<svg version="1.1" id="Layer_1" xmlns="http://www.w3.org/2000/svg" xmlns:xlink="http://www.w3.org/1999/xlink" x="0px" y="0px"
	 width="86.9px" height="131.4px" viewBox="0 0 86.9 131.4" style="enable-background:new 0 0 86.9 131.4;" xml:space="preserve">
<g>
	<path style="fill:#66200E;" d="M71.6,22.8L64.9,2.4c-0.4-1.3-1.1-2.1-2.1-2.3c-1.6-0.4-2.8,0.8-4.2,2.2c-1.3,1.2-2.9,2.8-4.8,3.4
		l-9.6,3.1c-2.9,0.9-5.3,2.6-6.9,4.8c-1.7,2.3-2.2,4.9-1.4,7.3L40,33.6c0,0.9,0.1,1.8,0.4,2.7L47.2,57c1.1,3.2,3.8,5.5,7,5.9
		c2.3,0.6,4.9,0.4,7.5-0.4l9.6-3.1c2.5-0.8,4.7-2.2,6.3-4.1c1.5-1.5,2.4-3.5,2.6-5.6c5.2-1.8,8-7.4,6.3-12.7l-2.5-7.7
		C82.2,24.2,76.7,21.4,71.6,22.8z M72.9,54.1l-15.9,5.1c-0.7,0.2-1.5,0.3-2.2,0.2c-1.8-0.4-3.2-1.5-3.7-2.9l-7.6-23.4
		c0.2-2,1.5-3.8,3.6-4.5L63,23.5c2-0.7,4.2,0,5.5,1.5l7.6,23.4c0.5,1.5-0.1,3.1-1.3,4.6C74.3,53.5,73.7,53.9,72.9,54.1z M45.3,12.2
		L54.9,9c2.7-0.9,4.7-2.8,6.2-4.2c0.2-0.2,0.5-0.5,0.7-0.7L66.9,20c-1.6-0.4-3.3-0.4-5,0.1l-15.9,5.1c-1.7,0.5-3.1,1.5-4.1,2.8
		l-2.7-8.3C38.4,17,41.1,13.5,45.3,12.2z M83,38.2c1,3.2-0.5,6.6-3.4,8l-6.5-20c3.2-0.6,6.4,1.2,7.5,4.4L83,38.2z"/>
	<path style="fill:#66200E;" d="M50.1,38.5c1.5,4.5,2.9,9,4.4,13.5c0,0.1,0,0.1,0.1,0.2c0.6,1.7,3.3,0.9,2.7-0.9
		c-0.7-2.3-1.5-4.5-2.2-6.8c-0.8-2.3-1.5-4.6-2.3-7C52.2,35.8,49.5,36.7,50.1,38.5z"/>
	<path style="fill:#66200E;" d="M56.9,36.3c1.5,4.5,2.9,9,4.4,13.5c0,0.1,0,0.1,0.1,0.2c0.6,1.7,3.3,0.9,2.7-0.9
		c-0.7-2.3-1.5-4.5-2.2-6.8c-0.8-2.3-1.5-4.6-2.3-7C59,33.6,56.3,34.5,56.9,36.3z"/>
	<path style="fill:#66200E;" d="M63.7,34c1.5,4.5,2.9,9,4.4,13.5c0,0.1,0,0.1,0.1,0.2c0.6,1.7,3.3,0.9,2.7-0.9
		c-0.7-2.3-1.5-4.5-2.2-6.8c-0.8-2.3-1.5-4.6-2.3-7C65.9,31.4,63.2,32.3,63.7,34z"/>
</g>
<g>
	<path style="fill:#66200E;" d="M33.6,75.5c-2.2-1.3-4.7-1.8-7.2-1.2c-2.5,0.6-4.6,2.1-5.9,4.3L0,111.9l2.6,1.6l20.5-33.3
		c0.9-1.5,2.3-2.5,4-2.9c1.7-0.4,3.4-0.1,4.9,0.8l33.3,20.5l1.6-2.6L33.6,75.5z"/>
	<path style="fill:#66200E;" d="M33.7,81.6c-1.7-1.1-3.8-1.4-5.8-0.9s-3.7,1.7-4.7,3.4L7.6,109.4c-1.1,1.7-1.4,3.8-0.9,5.8
		c0.5,2,1.7,3.7,3.4,4.7l18.7,11.5l21.1-5l11.5-18.7c2.2-3.6,1.1-8.3-2.5-10.5L33.7,81.6z M30.8,121.9l-4.4-18.6
		c-0.6-2.4,0.9-4.9,3.4-5.5l4.3-1c2.4-0.6,4.9,0.9,5.5,3.4l4.4,18.6c0.6,2.4-0.9,4.9-3.4,5.5l-4.3,1
		C33.8,125.8,31.3,124.3,30.8,121.9z M58.8,106.1L48,123.7l-2.3,0.5c1.2-1.7,1.7-4,1.2-6.2l-4.4-18.6c-1-4.1-5.1-6.6-9.2-5.7l-4.3,1
		c-4.1,1-6.6,5.1-5.7,9.2l4.4,18.6c0.5,2.2,2,4,3.9,5l-2.3,0.5l-17.6-10.9c-1-0.6-1.8-1.6-2-2.8c-0.3-1.2-0.1-2.4,0.6-3.4l15.6-25.3
		c0.6-1,1.6-1.8,2.8-2c1.2-0.3,2.4-0.1,3.4,0.6l25.3,15.6C59.5,101.2,60.1,104,58.8,106.1z"/>
	<path style="fill:#66200E;" d="M29.8,110.4c-0.8,0.2-1.3,1-1.1,1.8c0.2,0.8,1,1.3,1.8,1.1c0.8-0.2,1.3-1,1.1-1.8
		C31.4,110.7,30.6,110.2,29.8,110.4z"/>
</g>
</svg>
