<svg version="1.1" id="Layer_1" xmlns="http://www.w3.org/2000/svg" xmlns:xlink="http://www.w3.org/1999/xlink" x="0px" y="0px"
	 width="1218.8px" height="190px" viewBox="0 0 1218.8 190" style="enable-background:new 0 0 1218.8 190;" xml:space="preserve" preserveAspectRatio="none">
<g>
	<g>
		<polygon style="fill:#05232E;" points="55,133.3 47.3,174 347,177.3 346.9,180.6 43.3,177.3 51.8,132.7 		"/>
		
			<rect x="44" y="91.2" transform="matrix(0.1869 -0.9824 0.9824 0.1869 -41.5873 135.4543)" style="fill:#05232E;" width="34" height="3.3"/>
		
			<rect x="1190.9" y="34.9" transform="matrix(0.9782 -0.2075 0.2075 0.9782 10.9453 249.0865)" style="fill:#05232E;" width="3.3" height="74.9"/>
		
			<rect x="1213.8" y="171.8" transform="matrix(0.9782 -0.2075 0.2075 0.9782 -10.9268 256.1849)" style="fill:#05232E;" width="3.3" height="16.8"/>
		
			<rect x="773.1" y="-179.9" transform="matrix(1.087422e-02 -0.9999 0.9999 1.087422e-02 582.7737 956.292)" style="fill:#05232E;" width="3.3" height="727"/>
		<path style="fill:#05232E;" d="M1208.8,148.6c-0.9,0.2-2.4-3.3-3.3-7.8c-1-4.5-1-8.3-0.1-8.5c0.9-0.2,2.4,3.3,3.3,7.8
			C1209.6,144.6,1209.7,148.4,1208.8,148.6z"/>
		<path style="fill:#05232E;" d="M370.8,179.2c0-0.9,3.7-1.6,8.3-1.6s8.3,0.8,8.3,1.8s-3.7,1.6-8.3,1.6S370.8,180.1,370.8,179.2z"/>
		<path style="fill:#05232E;" d="M1162.1,187.8c0-0.9,3.7-1.6,8.3-1.6c4.6,0.1,8.3,0.8,8.3,1.8c0,0.9-3.7,1.6-8.3,1.6
			S1162.1,188.7,1162.1,187.8z"/>
	</g>
	
		<rect x="1196.3" y="168.9" transform="matrix(1.088174e-02 -0.9999 0.9999 1.088174e-02 996.7579 1384.0149)" style="fill:#05232E;" width="3.3" height="38.5"/>
</g>
<g>
	<g>
		<rect x="672.4" y="51.7" style="fill:#05232E;" width="153.7" height="1.4"/>
		<rect x="646.7" y="51.7" style="fill:#05232E;" width="15.1" height="1.4"/>
		<rect x="101" y="51.7" style="fill:#05232E;" width="33.4" height="1.4"/>
		<rect x="64.9" y="51.7" style="fill:#05232E;" width="7.5" height="1.4"/>
		<polygon style="fill:#05232E;" points="854.8,51.7 1174.3,51.7 1174.7,48.7 1176.1,48.9 1175.6,53.1 854.8,53.1 		"/>
		<rect x="163" y="51.7" style="fill:#05232E;" width="455" height="1.4"/>
		<ellipse style="fill:#05232E;" cx="148.7" cy="52.4" rx="3.7" ry="0.7"/>
		<ellipse style="fill:#05232E;" cx="86.7" cy="52.4" rx="3.7" ry="0.7"/>
		<path style="fill:#05232E;" d="M836.8,52.4c0-0.4,1.7-0.7,3.7-0.7c2,0,3.7,0.3,3.7,0.7s-1.7,0.7-3.7,0.7
			C838.4,53.1,836.8,52.8,836.8,52.4z"/>
		<path style="fill:#05232E;" d="M628.7,52.4c0-0.4,1.7-0.7,3.7-0.7s3.7,0.3,3.7,0.7s-1.7,0.7-3.7,0.7S628.7,52.8,628.7,52.4z"/>
		<path style="fill:#05232E;" d="M1176.9,38.3c-0.4-0.1-0.5-1.7-0.2-3.8c0.3-2,0.8-3.6,1.2-3.6s0.5,1.7,0.2,3.8
			S1177.3,38.3,1176.9,38.3z"/>
	</g>
	
		<rect x="1170.6" y="21.8" transform="matrix(0.1397 -0.9902 0.9902 0.1397 992.2137 1186.9258)" style="fill:#05232E;" width="17.1" height="1.4"/>
</g>
</svg>
