<svg version="1.1" id="Layer_1" xmlns="http://www.w3.org/2000/svg" xmlns:xlink="http://www.w3.org/1999/xlink" x="0px" y="0px"
	 width="660.2px" height="313.8px" viewBox="0 0 660.2 313.8" style="enable-background:new 0 0 660.2 313.8;" xml:space="preserve"
	 preserveAspectRatio="none">
<polygon style="fill:#C25932;" points="660.2,309.8 7.1,293.9 19.4,23.2 642.2,16.8 "/>
<polygon style="fill:#ED7B48;" points="656.4,305.4 3.3,289.5 15.5,18.8 638.4,12.4 "/>
<g>
	<g>
		<g>
			<polygon style="fill:#152F1D;" points="396.7,306.4 537.2,309.7 537.2,311 396.6,307.7 			"/>
			<polygon style="fill:#152F1D;" points="373.1,305.8 387,306.2 386.9,307.5 373.1,307.1 			"/>
			<polygon style="fill:#152F1D;" points="7.1,176.3 5.7,205.6 4.4,205.6 5.8,176.3 			"/>
			<polygon style="fill:#152F1D;" points="8.6,144.6 8.3,151.2 6.9,151.1 7.3,144.5 			"/>
			<polygon style="fill:#152F1D;" points="563.4,310.3 653.7,312.4 641.2,116.5 642.6,116.4 655.2,313.8 563.4,311.6 			"/>
			<polygon style="fill:#152F1D;" points="4.5,230.8 1.4,297.1 346.9,305.2 346.9,306.5 0,298.4 3.2,230.7 			"/>
			<path style="fill:#152F1D;" d="M4.6,214.9c0.4,0,0.6,1.5,0.5,3.3c-0.1,1.8-0.5,3.2-0.8,3.2c-0.4,0-0.6-1.5-0.5-3.3
				C3.9,216.4,4.2,214.9,4.6,214.9z"/>
			<path style="fill:#152F1D;" d="M7.2,160.5c0.4,0,0.6,1.5,0.5,3.3c-0.1,1.8-0.5,3.2-0.8,3.2c-0.4,0-0.6-1.5-0.5-3.3
				C6.4,161.9,6.8,160.5,7.2,160.5z"/>
			<path style="fill:#152F1D;" d="M546.9,310.6c0-0.4,1.5-0.6,3.4-0.6c1.9,0,3.4,0.4,3.4,0.7c0,0.4-1.5,0.6-3.4,0.6
				S546.9,310.9,546.9,310.6z"/>
			<path style="fill:#152F1D;" d="M356.6,306.1c0-0.4,1.5-0.6,3.4-0.6c1.9,0,3.4,0.4,3.4,0.7c0,0.4-1.5,0.6-3.4,0.6
				C358.1,306.8,356.6,306.5,356.6,306.1z"/>
			<path style="fill:#152F1D;" d="M641.3,107.1c-0.4,0-0.8-1.4-0.9-3.2c-0.1-1.8,0.1-3.3,0.5-3.3c0.4,0,0.8,1.4,0.9,3.2
				C641.9,105.6,641.7,107.1,641.3,107.1z"/>
		</g>
		<polygon style="fill:#152F1D;" points="639.2,85.6 640.2,100.7 641.5,100.6 640.6,85.5 		"/>
	</g>
</g>
<polygon style="fill:#842C1A;" points="645.6,25.9 14.2,25.9 16.4,8.1 649.2,0 "/>
<g>
	<g>
		<rect x="364.5" y="28.4" style="fill:#531C11;" width="86.6" height="0.8"/>
		<rect x="350" y="28.4" style="fill:#531C11;" width="8.5" height="0.8"/>
		<rect x="42.7" y="28.4" style="fill:#531C11;" width="18.8" height="0.8"/>
		<rect x="22.4" y="28.4" style="fill:#531C11;" width="4.2" height="0.8"/>
		<polygon style="fill:#531C11;" points="467.2,28.4 647.2,28.4 647.4,26.8 648.3,26.9 647.9,29.3 467.2,29.3 		"/>
		<rect x="77.6" y="28.4" style="fill:#531C11;" width="256.3" height="0.8"/>
		<ellipse style="fill:#531C11;" cx="69.6" cy="28.8" rx="2.1" ry="0.4"/>
		<ellipse style="fill:#531C11;" cx="34.6" cy="28.8" rx="2.1" ry="0.4"/>
		<path style="fill:#531C11;" d="M457.1,28.8c0-0.2,0.9-0.4,2.1-0.4c1.2,0,2.1,0.2,2.1,0.4c0,0.2-0.9,0.4-2.1,0.4
			C458,29.3,457.1,29.1,457.1,28.8z"/>
		<path style="fill:#531C11;" d="M339.9,28.8c0-0.2,0.9-0.4,2.1-0.4c1.2,0,2.1,0.2,2.1,0.4c0,0.2-0.9,0.4-2.1,0.4
			C340.8,29.3,339.9,29.1,339.9,28.8z"/>
		<path style="fill:#531C11;" d="M648.7,20.9c-0.2,0-0.3-1-0.1-2.1c0.2-1.1,0.5-2,0.7-2s0.3,1,0.1,2.1
			C649.2,20,648.9,20.9,648.7,20.9z"/>
	</g>
	
		<rect x="645.1" y="11.6" transform="matrix(0.1397 -0.9902 0.9902 0.1397 547.2912 653.8884)" style="fill:#531C11;" width="9.7" height="0.8"/>
</g>
</svg>
