<svg version="1.1" id="Layer_1" xmlns="http://www.w3.org/2000/svg" xmlns:xlink="http://www.w3.org/1999/xlink" x="0px" y="0px"
	 width="3.8px" height="253.2px" viewBox="0 0 3.8 253.2" style="enable-background:new 0 0 3.8 253.2;" xml:space="preserve" preserveAspectRatio="none">
<g>
	<g>
		<g>
			<polygon style="fill:#2A1228;" points="2.2,133.9 2.7,167.8 2.2,167.8 1.8,133.9 			"/>
			<polygon style="fill:#2A1228;" points="2.1,128.2 2.2,131.6 1.7,131.6 1.7,128.3 			"/>
			<polygon style="fill:#2A1228;" points="0.5,8 0.6,15.3 0.2,15.3 0.1,8 			"/>
			<polygon style="fill:#2A1228;" points="0.4,0 0.5,1.6 0,1.7 0,0 			"/>
			<polygon style="fill:#2A1228;" points="2.7,174.1 3.7,245.5 3.3,245.5 2.3,174.1 			"/>
			<polygon style="fill:#2A1228;" points="0.7,21.6 2,121.9 1.6,121.9 0.3,21.6 			"/>
			<path style="fill:#2A1228;" d="M0.4,17.7c0.1,0,0.2,0.4,0.2,0.8c0,0.5-0.1,0.8-0.2,0.8c-0.1,0-0.2-0.4-0.2-0.8
				C0.2,18,0.3,17.7,0.4,17.7z"/>
			<path style="fill:#2A1228;" d="M0.3,4c0.1,0,0.2,0.4,0.2,0.8c0,0.5-0.1,0.8-0.2,0.8c-0.1,0-0.2-0.4-0.2-0.8C0.1,4.4,0.1,4,0.3,4z
				"/>
			<path style="fill:#2A1228;" d="M2.5,170.1c0.1,0,0.2,0.4,0.2,0.8c0,0.5-0.1,0.8-0.2,0.8c-0.1,0-0.2-0.4-0.2-0.8
				C2.3,170.5,2.4,170.2,2.5,170.1z"/>
			<path style="fill:#2A1228;" d="M1.9,124.3c0.1,0,0.2,0.4,0.2,0.8c0,0.5-0.1,0.8-0.2,0.8c-0.1,0-0.2-0.4-0.2-0.8
				S1.7,124.3,1.9,124.3z"/>
			<path style="fill:#2A1228;" d="M3.5,247.8c0.1,0,0.2,0.4,0.2,0.8c0,0.5-0.1,0.8-0.2,0.8c-0.1,0-0.2-0.4-0.2-0.8
				C3.3,248.2,3.4,247.8,3.5,247.8z"/>
		</g>
		<polygon style="fill:#2A1228;" points="3.8,253.2 3.7,249.5 3.3,249.5 3.4,253.2 		"/>
	</g>
</g>
</svg>
