<svg version="1.1" id="Layer_1" xmlns="http://www.w3.org/2000/svg" xmlns:xlink="http://www.w3.org/1999/xlink" x="0px" y="0px"
	 width="61.6px" height="140.9px" viewBox="0 0 61.6 140.9" style="enable-background:new 0 0 61.6 140.9;" xml:space="preserve">
<path style="fill:#422C15;" d="M44.4,6.8L30.2,0.6c-3.6-1.6-7.9,0.1-9.4,3.7l-3.9,9c-0.1,0.2-0.1,0.4-0.2,0.5c0,0,0,0,0,0l0,0
	c-2.5,6.3-0.3,13.3,4.8,17.3c-1.9,4.3-3.8,8.7-5.7,13c-0.6,1.4-1.2,2.8-1.8,4.2c0,0.1-0.1,0.2-0.1,0.3l-0.7-0.3
	C7.7,46,2.2,47.1,0.6,50.8c-0.1,0.3-0.2,0.6-0.3,0.9L0,52.9l26.7,11.6l0.7-1.1c0.2-0.3,0.3-0.5,0.4-0.8c1.6-3.7-1.4-8.5-6.8-10.8
	l-0.7-0.3c0.2-0.4,0.4-0.8,0.6-1.3c1.1-2.5,2.2-5,3.3-7.5c1.3-2.9,2.5-5.8,3.8-8.7c6.6,1.1,13.4-2.4,16.2-8.8l3.9-9
	C49.7,12.6,48,8.4,44.4,6.8z M28.9,3.5l14.3,6.2c2,0.9,3,3.2,2.1,5.3l-0.9,2.2c-0.1-0.1-0.1-0.1-0.2-0.2c-2.5-2.3-7.1-2.2-11.4,0.2
	c-4.3,2.4-7.5,0.1-10.8-2.7c-0.6-0.5-1.1-0.9-1.6-1.3l3.3-7.6C24.5,3.5,26.9,2.6,28.9,3.5z M25.1,60.4l-21-9.2
	c1.4-1.2,4.5-1.4,7.8,0l7.9,3.5C23.2,56.2,25,58.6,25.1,60.4z M20,46.1c-0.6,1.4-1.2,2.8-1.8,4.2c0,0.1-0.1,0.2-0.1,0.3l-2-0.9
	c0.2-0.4,0.4-0.8,0.6-1.3c1.1-2.5,2.2-5,3.3-7.5c1.2-2.8,2.4-5.5,3.6-8.3c0.3,0.2,0.6,0.3,1,0.5c0.3,0.1,0.7,0.3,1,0.4
	C23.7,37.6,21.9,41.9,20,46.1z M41.3,24c-2.6,6-9.5,8.7-15.5,6.1c-5.4-2.4-8.2-8.3-6.7-13.9c0.2,0.2,0.5,0.4,0.7,0.6
	c1.3,1.1,3,2.6,5.2,3.6c2.5,1.1,5.6,1.4,9.1-0.5c3.4-1.9,6.5-1.8,7.8-0.6c0.7,0.6,0.8,1.5,0.3,2.7L41.3,24z"/>
<g>
	<g>
		<path style="fill:#422C15;" d="M45.9,99.5l-6.8-20.9c-0.4-1.3-1.1-2.1-2.1-2.4c-1.6-0.4-2.9,0.8-4.3,2.2c-1.3,1.3-2.9,2.9-4.9,3.5
			l-9.8,3.2c-2.9,0.9-5.4,2.7-7,4.9c-1.7,2.4-2.3,5-1.5,7.5l4.2,13c0,0.9,0.1,1.8,0.4,2.8l6.9,21.2c1.1,3.3,3.9,5.6,7.2,6.1
			c2.4,0.6,5.1,0.4,7.6-0.4l9.8-3.2c2.6-0.8,4.8-2.3,6.4-4.2c1.5-1.5,2.5-3.6,2.6-5.8c5.3-1.8,8.2-7.6,6.4-12.9l-2.5-7.8
			C56.8,101,51.2,98,45.9,99.5z M47.3,131.5l-16.2,5.3c-0.7,0.2-1.5,0.3-2.2,0.2c-1.9-0.5-3.3-1.5-3.8-3l-7.8-24
			c0.2-2.1,1.6-3.9,3.7-4.6l16.2-5.3c2.1-0.7,4.3,0,5.6,1.6l7.8,24c0.5,1.5-0.1,3.2-1.3,4.7C48.7,130.9,48.1,131.3,47.3,131.5z
			 M19,88.6l9.8-3.2c2.8-0.9,4.8-2.9,6.3-4.3c0.2-0.2,0.5-0.5,0.7-0.7l5.3,16.2c-1.6-0.4-3.4-0.4-5.1,0.1L19.8,102
			c-1.7,0.6-3.1,1.6-4.2,2.9l-2.8-8.5C11.9,93.6,14.8,90,19,88.6z M57.6,115.2c1.1,3.2-0.5,6.7-3.5,8.1l-6.6-20.5
			c3.3-0.6,6.6,1.3,7.6,4.5L57.6,115.2z"/>
		<path style="fill:#422C15;" d="M23.9,115.5c1.5,4.6,2.9,9.2,4.5,13.8c0,0.1,0,0.1,0.1,0.2c0.6,1.8,3.3,0.9,2.8-0.9
			c-0.7-2.3-1.5-4.6-2.2-6.9c-0.8-2.4-1.5-4.7-2.3-7.1C26.1,112.9,23.4,113.8,23.9,115.5z"/>
		<path style="fill:#422C15;" d="M30.9,113.3c1.5,4.6,2.9,9.2,4.5,13.8c0,0.1,0,0.1,0.1,0.2c0.6,1.8,3.3,0.9,2.8-0.9
			c-0.7-2.3-1.5-4.6-2.2-6.9c-0.8-2.4-1.5-4.7-2.3-7.1C33.1,110.6,30.3,111.5,30.9,113.3z"/>
		<path style="fill:#422C15;" d="M37.9,111c1.5,4.6,2.9,9.2,4.5,13.8c0,0.1,0,0.1,0.1,0.2c0.6,1.8,3.3,0.9,2.8-0.9
			c-0.7-2.3-1.5-4.6-2.2-6.9c-0.8-2.4-1.5-4.7-2.3-7.1C40.1,108.4,37.3,109.2,37.9,111z"/>
	</g>
</g>
</svg>
