<svg version="1.1" id="Layer_1" xmlns="http://www.w3.org/2000/svg" xmlns:xlink="http://www.w3.org/1999/xlink" x="0px" y="0px"
	 width="3.9px" height="89.9px" viewBox="0 0 3.9 89.9" style="enable-background:new 0 0 3.9 89.9;" xml:space="preserve" preserveAspectRatio="none">
<g>
	<g>
		<g>
			<polygon style="fill:#26718A;" points="1.8,42.4 2.3,30.3 2.7,30.3 2.3,42.4 			"/>
			<polygon style="fill:#26718A;" points="1.8,44.4 1.8,43.2 2.2,43.2 2.2,44.4 			"/>
			<polygon style="fill:#26718A;" points="0.1,87.1 0.2,84.5 0.6,84.5 0.5,87.1 			"/>
			<polygon style="fill:#26718A;" points="0,89.9 0,89.3 0.5,89.3 0.4,89.9 			"/>
			<polygon style="fill:#26718A;" points="2.4,28.1 3.4,2.8 3.8,2.8 2.8,28.1 			"/>
			<polygon style="fill:#26718A;" points="0.3,82.2 1.7,46.6 2.1,46.6 0.7,82.2 			"/>
			<path style="fill:#26718A;" d="M0.5,83.6c-0.1,0-0.2-0.1-0.2-0.3c0-0.2,0.1-0.3,0.2-0.3c0.1,0,0.2,0.1,0.2,0.3S0.6,83.6,0.5,83.6
				z"/>
			<path style="fill:#26718A;" d="M0.3,88.5c-0.1,0-0.2-0.1-0.2-0.3c0-0.2,0.1-0.3,0.2-0.3c0.1,0,0.2,0.1,0.2,0.3
				C0.5,88.4,0.4,88.5,0.3,88.5z"/>
			<path style="fill:#26718A;" d="M2.6,29.5c-0.1,0-0.2-0.1-0.2-0.3c0-0.2,0.1-0.3,0.2-0.3c0.1,0,0.2,0.1,0.2,0.3
				C2.8,29.4,2.7,29.5,2.6,29.5z"/>
			<path style="fill:#26718A;" d="M1.9,45.8c-0.1,0-0.2-0.1-0.2-0.3c0-0.2,0.1-0.3,0.2-0.3c0.1,0,0.2,0.1,0.2,0.3S2,45.8,1.9,45.8z"
				/>
			<path style="fill:#26718A;" d="M3.6,1.9c-0.1,0-0.2-0.1-0.2-0.3c0-0.2,0.1-0.3,0.2-0.3c0.1,0,0.2,0.1,0.2,0.3
				C3.8,1.8,3.7,1.9,3.6,1.9z"/>
		</g>
		<polygon style="fill:#26718A;" points="3.5,0 3.4,1.3 3.9,1.3 3.9,0 		"/>
	</g>
</g>
</svg>
