<svg version="1.1" id="Layer_1" xmlns="http://www.w3.org/2000/svg" xmlns:xlink="http://www.w3.org/1999/xlink" x="0px" y="0px"
	 width="103.9px" height="147.3px" viewBox="0 0 103.9 147.3" style="enable-background:new 0 0 103.9 147.3;" xml:space="preserve"
	>
<g>
	<path style="fill:#052A33;" d="M74.6,110.8l-11.9,1.1c-0.8-3.2-5.2-5.3-10.4-4.8l-8.3,0.8c-5.2,0.5-9.1,3.3-9.3,6.6l-11.9,1.1
		c-3.5,0.3-6.1,3.4-5.8,7l1.1,11.7c0.3,3.5,3.4,6.1,7,5.8l51.9-4.7c3.5-0.3,6.1-3.4,5.8-7l-1.1-11.7C81.3,113,78.1,110.4,74.6,110.8
		z M44.2,110.4l8.3-0.8c3.7-0.3,6.6,0.9,7.4,2.4l-22.6,2.1C37.9,112.5,40.5,110.8,44.2,110.4z M80.1,128.5c0.2,2.1-1.4,4-3.5,4.1
		l-51.9,4.7c-2.1,0.2-4-1.4-4.1-3.5l-1.1-11.7c-0.2-2.1,1.4-4,3.5-4.1l12.2-1.1l27.5-2.5l12.2-1.1c2.1-0.2,4,1.4,4.1,3.5L80.1,128.5
		z"/>
	<path style="fill:#052A33;" d="M31.8,118.7l-3.7,0.3c-3.5,0.3-6.1,3.4-5.8,7l0.3,3.7c0.3,3.5,3.4,6.1,7,5.8l3.7-0.3
		c3.5-0.3,6.1-3.4,5.8-7l-0.3-3.7C38.5,121,35.4,118.4,31.8,118.7z M36.6,128.4c0.2,2.1-1.4,4-3.5,4.1l-3.7,0.3
		c-2.1,0.2-4-1.4-4.1-3.5l-0.3-3.7c-0.2-2.1,1.4-4,3.5-4.1l3.7-0.3c2.1-0.2,4,1.4,4.1,3.5L36.6,128.4z"/>
	<path style="fill:#052A33;" d="M69.9,115.2l-3.7,0.3c-3.5,0.3-6.1,3.4-5.8,7l0.3,3.7c0.3,3.5,3.4,6.1,7,5.8l3.7-0.3
		c3.5-0.3,6.1-3.4,5.8-7l-0.3-3.7C76.6,117.5,73.5,114.9,69.9,115.2z M74.7,124.9c0.2,2.1-1.4,4-3.5,4.1l-3.7,0.3
		c-2.1,0.2-4-1.4-4.1-3.5l-0.3-3.7c-0.2-2.1,1.4-4,3.5-4.1l3.7-0.3c2.1-0.2,4,1.4,4.1,3.5L74.7,124.9z"/>
	<path style="fill:#052A33;" d="M53.7,122.6l-8.2,0.7c-2.3,0.2-3.9,2.2-3.7,4.5l0.2,2.3c0.2,2.3,2.2,3.9,4.5,3.7l8.2-0.7
		c2.3-0.2,3.9-2.2,3.7-4.5l-0.2-2.3C58,124.1,56,122.4,53.7,122.6z M55.8,128.9c0.1,0.8-0.5,1.6-1.4,1.7l-8.2,0.7
		c-0.8,0.1-1.6-0.5-1.7-1.4l-0.2-2.3c-0.1-0.8,0.5-1.6,1.4-1.7l8.2-0.7c0.8-0.1,1.6,0.5,1.7,1.4L55.8,128.9z"/>
	<path style="fill:#052A33;" d="M41.4,120c-0.1-0.7-0.7-1.2-1.3-1.1c-0.7,0.1-1.2,0.7-1.1,1.3c0.1,0.7,0.7,1.2,1.3,1.1
		C41,121.3,41.5,120.7,41.4,120z"/>
	<path style="fill:#052A33;" d="M46.4,120.8c0.7-0.1,1.2-0.7,1.1-1.3c-0.1-0.7-0.7-1.2-1.3-1.1c-0.7,0.1-1.2,0.7-1.1,1.3
		C45.1,120.4,45.7,120.9,46.4,120.8z"/>
	<path style="fill:#052A33;" d="M52.4,120.3c0.7-0.1,1.2-0.7,1.1-1.3c-0.1-0.7-0.7-1.2-1.3-1.1c-0.7,0.1-1.2,0.7-1.1,1.3
		C51.1,119.8,51.7,120.3,52.4,120.3z"/>
	<path style="fill:#052A33;" d="M58.2,117.3c-0.7,0.1-1.2,0.7-1.1,1.3c0.1,0.7,0.7,1.2,1.3,1.1c0.7-0.1,1.2-0.7,1.1-1.3
		C59.4,117.7,58.8,117.2,58.2,117.3z"/>
	<path style="fill:#052A33;" d="M13.5,137.7c-2,2.4-4,4.8-6,7.2c-0.2,0.3-0.4,0.5-0.7,0.8c-0.9,1,0.7,2.4,1.6,1.3
		c1.7-2.1,3.4-4.1,5.2-6.2c0.5-0.6,1-1.2,1.5-1.8C15.9,138,14.3,136.6,13.5,137.7z"/>
	<path style="fill:#052A33;" d="M11.4,129.9c1.3-0.1,1.1-2.2-0.2-2.1c-3.1,0.3-6.2,0.6-9.3,0.8c-0.3,0-0.7,0.1-1,0.1
		c-1.3,0.1-1.1,2.2,0.2,2.1c2.7-0.2,5.3-0.5,8-0.7C9.9,130,10.6,130,11.4,129.9z"/>
	<path style="fill:#052A33;" d="M6.9,112.6c-0.6-0.5-1.2-1-1.8-1.5c-1-0.9-2.4,0.7-1.3,1.6c2.4,2,4.8,4,7.2,6
		c0.3,0.2,0.5,0.4,0.8,0.7c1,0.9,2.4-0.7,1.3-1.6C11,116,9,114.3,6.9,112.6z"/>
	<path style="fill:#052A33;" d="M89.7,132.3c-0.6-0.5-1.2-1-1.8-1.5c-1-0.9-2.4,0.7-1.3,1.6c2.4,2,4.8,4,7.2,6
		c0.3,0.2,0.5,0.4,0.8,0.7c1,0.9,2.4-0.7,1.3-1.6C93.8,135.8,91.8,134.1,89.7,132.3z"/>
	<path style="fill:#052A33;" d="M98.7,119.8c-2.7,0.2-5.3,0.5-8,0.7c-0.8,0.1-1.5,0.1-2.3,0.2c-1.3,0.1-1.1,2.2,0.2,2.1
		c3.1-0.3,6.2-0.6,9.3-0.8c0.3,0,0.7-0.1,1-0.1C100.2,121.8,100,119.7,98.7,119.8z"/>
	<path style="fill:#052A33;" d="M86.3,112.6c1.7-2.1,3.4-4.1,5.2-6.2c0.5-0.6,1-1.2,1.5-1.8c0.9-1-0.7-2.4-1.6-1.3
		c-2,2.4-4,4.8-6,7.2c-0.2,0.3-0.4,0.5-0.7,0.8C83.8,112.3,85.4,113.6,86.3,112.6z"/>
</g>
<path style="fill:#052A33;" d="M97.3,34c0-0.2,0-0.3,0.1-0.4c0,0,0.1-0.1,0.1-0.1l1.1,0.3c0.8,0.2,1.6,0,2.2-0.7
	c0.6-0.7,0.9-1.6,0.6-2.5l-1.8-6c0-0.2,0-0.3,0.1-0.4c0,0,0.1-0.1,0.1-0.1l1.1,0.3c0.8,0.2,1.6,0,2.2-0.7c0.6-0.7,0.9-1.6,0.6-2.5
	L99.1,5.6C98.8,4.3,98,3.5,97,3.2c-1-0.3-2.1,0.1-3,1L82.3,15.8l0,0c-0.7,0.7-0.9,1.6-0.7,2.5c0.2,0.8,0.8,1.5,1.7,1.7l1.1,0.3
	c0,0,0.1,0.1,0.1,0.1c0,0.1,0,0.3-0.1,0.4l-4.4,4.4l0,0c-0.4,0.4-0.6,0.9-0.7,1.4l-1.5-5c-0.4-1.2-1.2-2.1-2.2-2.3
	c-1-0.3-2.1,0.1-3,1l-3.9,3.9l-0.8-2.7c0-0.2,0-0.3,0.1-0.4c0,0,0.1-0.1,0.1-0.1l1.1,0.3c0.8,0.2,1.6,0,2.2-0.7
	C72,20,72.2,19,72,18.1L67.2,2.4c-0.4-1.2-1.2-2.1-2.2-2.3c-1-0.3-2.1,0.1-3,1L50.4,12.6l0,0c-0.7,0.7-0.9,1.6-0.7,2.5
	c0.2,0.8,0.8,1.5,1.7,1.7l1.1,0.3c0,0,0.1,0.1,0.1,0.1c0,0.1,0,0.3-0.1,0.4L48,22l0,0c-0.7,0.7-0.9,1.6-0.7,2.5
	c0.2,0.8,0.8,1.5,1.7,1.7l1.1,0.3c0,0,0.1,0.1,0.1,0.1c0,0.1,0,0.3-0.1,0.4l-4.4,4.4l0,0C45,32.1,44.7,33,45,33.9
	c0.2,0.8,0.8,1.5,1.7,1.7l6.5,1.6c-1.2,4.7-2.4,9.3-3.5,14c-0.8,3.2-1.6,6.4-2.5,9.7c-0.5,1.8-0.9,3.7-1.4,5.5
	c-0.2,0.8-0.4,1.6-0.6,2.5c-0.1,0.2-0.1,0.4-0.2,0.6c0,0,0,0,0,0c-0.3,1.1,1.4,1.5,1.7,0.4c0-0.2,0.1-0.3,0.1-0.5
	c0.2-0.7,0.4-1.5,0.6-2.2c0.4-1.7,0.9-3.4,1.3-5.1c0.8-3,1.5-6.1,2.3-9.1c1.2-4.8,2.4-9.5,3.6-14.3c0.1-0.4,0.2-0.7,0.3-1.1l1.9,0.5
	c-1.2,4.7-2.4,9.3-3.5,14c-0.8,3.2-1.6,6.4-2.5,9.7c-0.5,1.8-0.9,3.7-1.4,5.5c-0.2,0.8-0.4,1.6-0.6,2.5c-0.1,0.2-0.1,0.4-0.2,0.6
	c0,0,0,0,0,0c-0.3,1.1,1.4,1.5,1.7,0.4c0-0.2,0.1-0.3,0.1-0.5c0.2-0.7,0.4-1.5,0.6-2.2c0.4-1.7,0.9-3.4,1.3-5.1
	c0.8-3,1.5-6.1,2.3-9.1c1.2-4.8,2.4-9.5,3.6-14.3c0.1-0.4,0.2-0.7,0.3-1.1l2.1,0.5l-2.1,2.1l0,0c-0.7,0.7-0.9,1.6-0.7,2.5
	c0.2,0.8,0.8,1.5,1.7,1.7l1.1,0.3c0,0,0.1,0.1,0.1,0.1c0,0.1,0,0.3-0.1,0.4l-4.4,4.4l0,0c-0.7,0.7-0.9,1.6-0.7,2.5
	c0.2,0.8,0.8,1.5,1.7,1.7l6.4,1.6c-1,4.1-2.1,8.2-3.1,12.3c-0.3,1.3-0.7,2.6-1,3.9c0,0.1,0,0.2-0.1,0.3c-0.3,1.1,1.4,1.5,1.7,0.4
	c0.1-0.4,0.2-0.8,0.3-1.2c0.6-2.4,1.2-4.7,1.8-7.1c0.7-2.7,1.4-5.4,2.1-8.1l1.7,0.4c-1,4.1-2.1,8.2-3.1,12.3c-0.3,1.3-0.7,2.6-1,3.9
	c0,0.1,0,0.2-0.1,0.3c-0.3,1.1,1.4,1.5,1.7,0.4c0.1-0.4,0.2-0.8,0.3-1.2c0.6-2.4,1.2-4.7,1.8-7.1c0.7-2.7,1.4-5.4,2.1-8.1l6.2,1.6
	c0.8,0.2,1.6,0,2.2-0.7c0.6-0.7,0.9-1.6,0.6-2.5l-1.8-6c0-0.2,0-0.3,0.1-0.4c0,0,0.1-0.1,0.1-0.1l1.1,0.3c0.8,0.2,1.6,0,2.2-0.7
	c0.6-0.7,0.9-1.6,0.6-2.5l-1.8-6c0-0.2,0-0.3,0.1-0.4c0,0,0.1-0.1,0.1-0.1l1.1,0.3c0.8,0.2,1.6,0,2.2-0.7c0.1-0.1,0.1-0.1,0.2-0.2
	l2.6,0.7c-1.4,5.4-2.7,10.8-4.1,16.2c-0.9,3.7-1.9,7.4-2.8,11.1c-0.5,2-1,4.1-1.6,6.1c-0.2,0.9-0.4,1.8-0.7,2.6
	c0,0.2-0.1,0.4-0.1,0.6c0,0,0,0,0,0C75,78,76.7,78.5,77,77.3c0-0.1,0.1-0.3,0.1-0.4c0.2-0.8,0.4-1.5,0.6-2.3
	c0.5-1.9,0.9-3.7,1.4-5.6c0.9-3.5,1.8-7,2.6-10.4c1.4-5.6,2.8-11.1,4.2-16.7c0.1-0.4,0.2-0.8,0.3-1.1l2,0.5
	c-1.4,5.4-2.7,10.8-4.1,16.2c-0.9,3.7-1.9,7.4-2.8,11.1c-0.5,2-1,4.1-1.6,6.1c-0.2,0.9-0.4,1.8-0.7,2.6c0,0.2-0.1,0.4-0.1,0.6
	c0,0,0,0,0,0c-0.3,1.1,1.4,1.5,1.7,0.4c0-0.1,0.1-0.3,0.1-0.4c0.2-0.8,0.4-1.5,0.6-2.3c0.5-1.9,0.9-3.7,1.4-5.6
	c0.9-3.5,1.8-7,2.6-10.4c1.4-5.6,2.8-11.1,4.2-16.7c0.1-0.4,0.2-0.8,0.3-1.1l6.2,1.6c0.8,0.2,1.6,0,2.2-0.7c0.6-0.7,0.9-1.6,0.6-2.5
	L97.3,34z M47.2,33.5c0,0-0.1-0.1-0.1-0.1c0-0.1,0-0.3,0.1-0.4l4.4-4.4c0.7-0.7,0.9-1.6,0.7-2.5c-0.2-0.8-0.8-1.5-1.7-1.7l-1.1-0.3
	c0,0-0.1-0.1-0.1-0.1c0-0.1,0-0.3,0.1-0.4l4.4-4.4c0.7-0.7,0.9-1.6,0.7-2.5c-0.2-0.8-0.8-1.5-1.7-1.7L52,14.7c0,0-0.1-0.1-0.1-0.1
	c0-0.1,0-0.3,0.1-0.4L63.6,2.7c0.3-0.3,0.7-0.5,0.9-0.4c0.2,0.1,0.5,0.4,0.6,0.8l4.7,15.7l0,0c0,0.2,0,0.3-0.1,0.4
	c0,0-0.1,0.1-0.1,0.1l-1.1-0.3c-0.8-0.2-1.6,0-2.2,0.7c-0.7,0.7-0.9,1.7-0.6,2.6l1.1,3.8l-5.9,5.9l0,0c-0.7,0.7-0.9,1.6-0.7,2.5
	c0.2,0.8,0.8,1.5,1.7,1.7l1.1,0.3c0,0,0.1,0.1,0.1,0.1c0,0,0,0,0,0c0,0.1,0,0.1,0,0.2c0,0.1,0,0.1-0.1,0.2c0,0,0,0,0,0l-0.5,0.5
	L47.2,33.5z M80.2,38.3c0,0-0.1,0.1-0.1,0.1L79,38.1c-0.8-0.2-1.6,0-2.2,0.7c-0.7,0.7-0.9,1.7-0.6,2.6l1.8,6l0,0
	c0,0.2,0,0.3-0.1,0.4c0,0-0.1,0.1-0.1,0.1l-1.1-0.3c-0.8-0.2-1.6,0-2.2,0.7c-0.7,0.7-0.9,1.7-0.6,2.6l1.8,6l0,0c0,0.2,0,0.3-0.1,0.4
	c0,0-0.1,0.1-0.1,0.1l-17.7-4.5c0,0-0.1-0.1-0.1-0.1c0-0.1,0-0.3,0.1-0.4l4.4-4.4c0.7-0.7,0.9-1.6,0.7-2.5c-0.2-0.8-0.8-1.5-1.7-1.7
	L60,43.3c0,0-0.1-0.1-0.1-0.1c0-0.1,0-0.3,0.1-0.4l4.4-4.4c0.3-0.2,0.4-0.5,0.6-0.9c0-0.1,0.1-0.2,0.1-0.3c0-0.1,0-0.1,0-0.2
	c0.1-0.4,0.1-0.8,0-1.2c-0.2-0.8-0.8-1.5-1.7-1.7l-1.1-0.3c0,0-0.1-0.1-0.1-0.1c0-0.1,0-0.3,0.1-0.4l11.6-11.6
	c0.3-0.3,0.7-0.5,0.9-0.4c0.2,0.1,0.5,0.4,0.6,0.8l4.7,15.7l0,0C80.3,38.1,80.3,38.2,80.2,38.3z M79.8,28.8c0.3,0.3,0.6,0.5,1.1,0.6
	l1.1,0.3c0,0,0.1,0.1,0.1,0.1c0,0.1,0,0.3-0.1,0.4l-1.3,1.3L79.8,28.8z M96.9,41c0,0-0.1,0.1-0.1,0.1l-14-3.6l-1.2-3.9l1.9-1.9
	c0.7-0.7,0.9-1.6,0.7-2.5c-0.2-0.8-0.8-1.5-1.7-1.7l-1.1-0.3c0,0-0.1-0.1-0.1-0.1c0-0.1,0-0.3,0.1-0.4l4.4-4.4
	c0.7-0.7,0.9-1.6,0.7-2.5c-0.2-0.8-0.8-1.5-1.7-1.7l-1.1-0.3c0,0-0.1-0.1-0.1-0.1c0-0.1,0-0.3,0.1-0.4L95.5,5.8
	c0.3-0.3,0.7-0.5,0.9-0.4c0.2,0.1,0.5,0.4,0.6,0.8l4.7,15.7l0,0c0,0.2,0,0.3-0.1,0.4c0,0-0.1,0.1-0.1,0.1l-1.1-0.3
	c-0.8-0.2-1.6,0-2.2,0.7c-0.7,0.7-0.9,1.7-0.6,2.6l1.8,6l0,0c0,0.2,0,0.3-0.1,0.4c0,0-0.1,0.1-0.1,0.1L98,31.4
	c-0.8-0.2-1.6,0-2.2,0.7c-0.7,0.7-0.9,1.7-0.6,2.6l1.8,6l0,0C97,40.8,96.9,41,96.9,41z"/>
</svg>
