<svg version="1.1" id="Layer_1" xmlns="http://www.w3.org/2000/svg" xmlns:xlink="http://www.w3.org/1999/xlink" x="0px" y="0px"
	 width="59.4px" height="62.9px" viewBox="0 0 59.4 62.9" style="enable-background:new 0 0 59.4 62.9;" xml:space="preserve">
<path style="fill:#66200E;" d="M56.1,27.2l2.2-4.4c2.3-4.5,0.5-10-4-12.3l-1.4-0.7L37.1,1.7L35.6,1c-4.5-2.3-10-0.5-12.3,4l-2.2,4.3
	c-4.5-2-10.6,1.4-13.9,8l-5.1,10c-3.4,6.7-2.5,13.8,2,16.2c0.1,0.1,0.2,0.1,0.4,0.2c-0.2,3.5,1.6,7,5,8.7l18.7,9.6
	c3.3,1.7,7.2,1.2,10-1.1c4.6,2.1,10.7-1.3,14-8l5.1-10C60.5,36.6,59.9,30,56.1,27.2z M51.2,13.1c2.4,1.2,3.3,4.1,2.1,6.5
	c-1.2,2.4-4.1,3.3-6.5,2.1l-5.5-2.8l0.9-1.9c0.7-1.4,0.2-3-1.2-3.7s-3-0.2-3.7,1.2l-0.9,1.9L31,13.7c-2.4-1.2-3.3-4.1-2.1-6.5
	S33,3.8,35.4,5L51.2,13.1z M5,39.5C3.2,37.6,3.3,33.1,5.4,29l5.1-10c2.1-4.1,5.7-6.8,8.3-6.5L5,39.5z M29.9,58.6L11.1,49
	c-2.7-1.4-3.7-4.6-2.4-7.3l16-31.3c0.3,2.7,2,5.2,4.6,6.5l5.5,2.8l-2.3,4.5l-0.9-0.4c-4.5-2.3-10-0.5-12.3,4l-5,9.9
	c-2.3,4.5-0.5,10,4,12.3l6.6,3.4c4.5,2.3,10,0.5,12.3-4l5-9.9c2.3-4.5,0.5-10-4-12.3l-0.9-0.4l2.3-4.5l5.5,2.8
	c2.6,1.3,5.6,1.2,8-0.1l-0.5,0.9L37.2,56.2C35.8,58.9,32.5,60,29.9,58.6z M29,37.1c1.4,0.7,3,0.2,3.7-1.2l3-5.8l0.9,0.4
	c2.7,1.4,3.7,4.6,2.4,7.3l-5,9.9c-1.4,2.7-4.6,3.7-7.3,2.4L20,46.7c-2.7-1.4-3.7-4.6-2.4-7.3l5-9.9c1.4-2.7,4.6-3.7,7.3-2.4l0.9,0.4
	l-3,5.8C27.1,34.8,27.7,36.4,29,37.1z M48.9,51.2c-2.1,4.1-5.7,6.8-8.3,6.5l13.8-27.1c1.8,1.9,1.7,6.5-0.4,10.5L48.9,51.2z"/>
</svg>
