<svg version="1.1" id="Layer_1" xmlns="http://www.w3.org/2000/svg" xmlns:xlink="http://www.w3.org/1999/xlink" x="0px" y="0px"
	 width="570.9px" height="59.2px" viewBox="0 0 570.9 59.2" style="enable-background:new 0 0 570.9 59.2;" xml:space="preserve" preserveAspectRatio="none">
<polygon style="fill:#E15922;" points="570.5,55.3 2,58.2 6.9,7.4 543.9,0 "/>
<g>
	<g>
		<polygon style="fill:#66200E;" points="4.2,42.6 2.7,54.9 150.9,55.5 150.9,57.4 0,56.8 1.8,42.4 		"/>
		<polygon style="fill:#66200E;" points="6.9,20.2 5.3,33.4 2.9,33.2 4.5,20 		"/>
		<polygon style="fill:#66200E;" points="555.2,29 543.8,3.7 542.6,3.7 542.6,1.8 545.5,1.8 557.5,28.3 		"/>
		<polygon style="fill:#66200E;" points="568.7,58.6 565.9,52.5 568.2,51.8 570.9,57.9 		"/>
		<polygon style="fill:#66200E;" points="181.9,55.6 531.8,57.1 531.8,59.1 181.8,57.6 		"/>
		<polygon style="fill:#66200E;" points="511.7,3.9 19.9,6 19.9,4.1 511.7,1.9 		"/>
		<path style="fill:#66200E;" d="M531.1,2.8c0,0.5-1.8,1-4,1c-2.2,0-4-0.4-4-1c0-0.5,1.8-1,4-1C529.3,1.9,531.1,2.3,531.1,2.8z"/>
		<path style="fill:#66200E;" d="M563.1,43.4c-0.6,0.2-1.7-1-2.5-2.7c-0.8-1.7-0.9-3.2-0.2-3.4c0.6-0.2,1.7,1,2.5,2.7
			C563.6,41.7,563.7,43.2,563.1,43.4z"/>
		<path style="fill:#66200E;" d="M162.4,56.5c0-0.5,1.8-1,4-1c2.2,0,4,0.5,4,1c0,0.5-1.8,1-4,1S162.4,57.1,162.4,56.5z"/>
		<path style="fill:#66200E;" d="M8.4,5.1c0,0.2-0.2,0.4-0.2,0.6c0.1,0.1,0.1,0.2,0.2,0.3c0,0.1,0.1,0,0.1,0.3c0,0.4,0,0.9,0,1.5
			c-0.2,1.8-0.9,3.2-1.6,3.1c-0.7-0.1-1-1.5-0.8-3.3c0.1-0.5,0.2-1,0.3-1.4C6.4,6,6.5,5.5,6.6,5.2c0.1-0.3,0.2-0.5,0.3-0.7
			C7.9,4.7,8.3,4.9,8.4,5.1z"/>
		<path style="fill:#66200E;" d="M543.3,58.2c0-0.5,1.8-1,4-1c2.2,0,4,0.5,4,1c0,0.5-1.8,1-4,1C545.1,59.1,543.3,58.7,543.3,58.2z"
			/>
	</g>
	<polygon style="fill:#66200E;" points="569.8,57.3 551.3,57.2 551.3,59.2 569.8,59.2 	"/>
</g>
</svg>
