<svg version="1.1" id="Layer_1" xmlns="http://www.w3.org/2000/svg" xmlns:xlink="http://www.w3.org/1999/xlink" x="0px" y="0px"
	 width="93.5px" height="121.2px" viewBox="0 0 93.5 121.2" style="enable-background:new 0 0 93.5 121.2;" xml:space="preserve">
<g>
	<path style="fill:#2A1228;" d="M70.2,107.8l11.6-16.8c2.2-3.3,5.6-5.5,9.5-6.3l2.3-0.5L92.8,82c-1.3-4.1-5.7-7.1-10-6.8l-20.3,1.2
		l-8.6-21.2c-1.7-4.3-6.7-7.7-11.3-7.8L9.2,46.6c-2.5-0.1-4.6,0.9-5.8,2.6C2.1,51,2,53.3,2.9,55.7l12.6,31c0.9,2.1,2.5,4,4.6,5.4
		s4.4,2.3,6.7,2.3l22.9,0.5l6.1,19.4c0.6,2.1,2.1,3.8,3.9,5.1c1.8,1.2,3.9,1.9,6,1.8l2.3-0.1l-0.4-2.3C67.1,115,68,111,70.2,107.8z
		 M49.8,90.8l-22.9-0.5c-3-0.1-6.4-2.5-7.6-5.2l-12.6-31c-0.4-1-0.4-1.9,0-2.5C7.1,51,8,50.7,9.1,50.8l33.4,0.7
		c1.5,0,3.1,0.6,4.5,1.6c1.4,1,2.5,2.2,3.1,3.6l8.6,21.2L49.8,90.8z M63.4,116.7c-1.7-0.6-3.1-2-3.6-3.7l-6.2-19.5l9-13.1l20.4-1.2
		c1.7-0.1,3.5,0.8,4.7,2.1c-3.8,1.4-7,3.9-9.3,7.2l-11.6,16.8C64.5,108.8,63.3,112.7,63.4,116.7z"/>
	<path style="fill:#2A1228;" d="M11.2,25c-3.3-2.2-7.7-1.4-10,1.8s-1.4,7.7,1.8,10c3.3,2.2,7.7,1.4,10-1.8S14.5,27.3,11.2,25z
		 M5.4,33.4c-1.4-1-1.7-2.9-0.8-4.2c1-1.4,2.9-1.7,4.2-0.8c1.4,1,1.7,2.9,0.8,4.2S6.8,34.4,5.4,33.4z"/>
	<path style="fill:#2A1228;" d="M17.5,18.5l1.7,1.2c4.2,2.9,9.9,1.8,12.8-2.4l1.2-1.7C36,11.4,35,5.7,30.8,2.8l-1.7-1.2
		C24.9-1.3,19.2-0.2,16.3,4l-1.2,1.7C12.3,9.8,13.3,15.6,17.5,18.5z M19.7,6.3C21.3,4,24.5,3.4,26.8,5l1.7,1.2
		c2.3,1.6,2.9,4.8,1.3,7.1l-1.2,1.7c-1.6,2.3-4.8,2.9-7.1,1.3l-1.7-1.2c-2.3-1.6-2.9-4.8-1.3-7.1L19.7,6.3z"/>
	
		<ellipse transform="matrix(0.5673 -0.8235 0.8235 0.5673 -37.5556 44.7337)" style="fill:#2A1228;" cx="23.8" cy="58.1" rx="1.9" ry="1.9"/>
</g>
</svg>
