<svg version="1.1" id="Layer_1" xmlns="http://www.w3.org/2000/svg" xmlns:xlink="http://www.w3.org/1999/xlink" x="0px" y="0px"
	 width="3.9px" height="526.7px" viewBox="0 0 3.9 526.7" style="enable-background:new 0 0 3.9 526.7;" xml:space="preserve" preserveAspectRatio="none">
<g>
	<g>
		<g>
			<polygon style="fill:#714C14;" points="2.2,278.5 2.7,349 2.3,349 1.8,278.5 			"/>
			<polygon style="fill:#714C14;" points="2.2,266.7 2.2,273.6 1.8,273.7 1.7,266.7 			"/>
			<polygon style="fill:#714C14;" points="0.5,16.6 0.6,31.9 0.2,31.9 0.1,16.6 			"/>
			<polygon style="fill:#714C14;" points="0.4,0 0.5,3.4 0,3.4 0,0 			"/>
			<polygon style="fill:#714C14;" points="2.8,362.1 3.8,510.5 3.3,510.5 2.4,362.1 			"/>
			<polygon style="fill:#714C14;" points="0.7,45 2.1,253.6 1.6,253.6 0.3,45 			"/>
			<path style="fill:#714C14;" d="M0.5,36.7c0.1,0,0.2,0.8,0.2,1.7c0,0.9-0.1,1.7-0.2,1.7c-0.1,0-0.2-0.8-0.2-1.7
				C0.2,37.5,0.3,36.7,0.5,36.7z"/>
			<path style="fill:#714C14;" d="M0.3,8.3c0.1,0,0.2,0.8,0.2,1.7c0,0.9-0.1,1.7-0.2,1.7c-0.1,0-0.2-0.8-0.2-1.7
				C0.1,9.1,0.2,8.3,0.3,8.3z"/>
			<path style="fill:#714C14;" d="M2.5,353.9c0.1,0,0.2,0.8,0.2,1.7c0,0.9-0.1,1.7-0.2,1.7c-0.1,0-0.2-0.8-0.2-1.7
				C2.3,354.6,2.4,353.9,2.5,353.9z"/>
			<path style="fill:#714C14;" d="M1.9,258.5c0.1,0,0.2,0.8,0.2,1.7c0,0.9-0.1,1.7-0.2,1.7s-0.2-0.8-0.2-1.7S1.8,258.5,1.9,258.5z"
				/>
			<path style="fill:#714C14;" d="M3.6,515.4c0.1,0,0.2,0.8,0.2,1.7c0,0.9-0.1,1.7-0.2,1.7c-0.1,0-0.2-0.8-0.2-1.7
				C3.4,516.2,3.4,515.4,3.6,515.4z"/>
		</g>
		<polygon style="fill:#714C14;" points="3.9,526.7 3.8,518.8 3.4,518.8 3.4,526.7 		"/>
	</g>
</g>
</svg>
