<svg version="1.1" id="Layer_1" xmlns="http://www.w3.org/2000/svg" xmlns:xlink="http://www.w3.org/1999/xlink" x="0px" y="0px"
	 width="1100.7px" height="6.2px" viewBox="0 0 1100.7 6.2" style="enable-background:new 0 0 1100.7 6.2;" xml:space="preserve" preserveAspectRatio="none">
<g>
	<g>
		<g>
			
				<rect x="582.1" y="1.9" transform="matrix(1 -4.356930e-03 4.356930e-03 1 -5.311620e-03 2.857)" style="fill:#714C14;" width="147.3" height="1.4"/>
			
				<rect x="557.4" y="2.3" transform="matrix(1 -4.356490e-03 4.356490e-03 1 -7.904177e-03 2.46)" style="fill:#714C14;" width="14.5" height="1.4"/>
			
				<rect x="34.6" y="4.6" transform="matrix(1 -4.357323e-03 4.357323e-03 1 -2.254441e-02 0.2205)" style="fill:#714C14;" width="32" height="1.4"/>
			
				<rect x="0" y="4.8" transform="matrix(1 -4.357237e-03 4.357237e-03 1 -2.388285e-02 1.568297e-02)" style="fill:#714C14;" width="7.2" height="1.4"/>
			
				<rect x="756.8" y="0.8" transform="matrix(1 -4.356980e-03 4.356980e-03 1 1.983059e-03 3.9732)" style="fill:#714C14;" width="310.2" height="1.4"/>
			
				<rect x="94" y="3.4" transform="matrix(1 -4.356937e-03 4.356937e-03 1 -1.509904e-02 1.3594)" style="fill:#714C14;" width="436" height="1.4"/>
			
				<ellipse transform="matrix(1 -4.353572e-03 4.353572e-03 1 -2.168031e-02 0.3497)" style="fill:#714C14;" cx="80.3" cy="5.2" rx="3.5" ry="0.7"/>
			<path style="fill:#714C14;" d="M17.3,5.4c0-0.4,1.6-0.7,3.5-0.7c2,0,3.5,0.3,3.5,0.7s-1.6,0.7-3.5,0.7
				C18.9,6.1,17.3,5.8,17.3,5.4z"/>
			
				<ellipse transform="matrix(1 -4.359628e-03 4.359628e-03 1 -2.821694e-03 3.2396)" style="fill:#714C14;" cx="743.1" cy="2.3" rx="3.5" ry="0.7"/>
			
				<ellipse transform="matrix(1 -4.351961e-03 4.351961e-03 1 -8.497843e-03 2.3662)" style="fill:#714C14;" cx="543.7" cy="3.1" rx="3.5" ry="0.7"/>
			<path style="fill:#714C14;" d="M1077.2,0.8c0-0.4,1.6-0.7,3.5-0.7c2,0,3.5,0.3,3.5,0.7c0,0.4-1.6,0.7-3.5,0.7
				C1078.8,1.5,1077.2,1.2,1077.2,0.8z"/>
		</g>
		
			<rect x="1084.3" y="0" transform="matrix(1 -4.357722e-03 4.357722e-03 1 7.128117e-03 4.7608)" style="fill:#714C14;" width="16.4" height="1.4"/>
	</g>
</g>
</svg>
