<svg version="1.1" id="Layer_1" xmlns="http://www.w3.org/2000/svg" xmlns:xlink="http://www.w3.org/1999/xlink" x="0px" y="0px"
	 width="1192.5px" height="642.5px" viewBox="0 0 1192.5 642.5" style="enable-background:new 0 0 1192.5 642.5;"
	 xml:space="preserve" preserveAspectRatio="none">
<g>
	<g>
		<g>
			<g>
				
					<rect x="761.4" y="509.3" transform="matrix(2.776523e-03 -1 1 2.776523e-03 120.2918 1401.1755)" style="fill:#422C15;" width="2.5" height="262"/>
				
					<rect x="599.4" y="626.9" transform="matrix(2.777962e-03 -1 1 2.777962e-03 -40.8279 1238.708)" style="fill:#422C15;" width="2.5" height="25.8"/>
				
					<rect x="2.2" y="284.4" transform="matrix(0.9997 -2.443036e-02 2.443036e-02 0.9997 -7.6424 0.1779)" style="fill:#422C15;" width="2.5" height="56.9"/>
				
					<rect x="0.2" y="222.9" transform="matrix(0.9997 -2.443073e-02 2.443073e-02 0.9997 -5.6 0.103)" style="fill:#422C15;" width="2.5" height="12.8"/>
				<polygon style="fill:#422C15;" points="942.5,639.5 1103.2,640 1147.4,253.5 1149.9,253.8 1105.5,642.5 942.5,642 				"/>
				<polygon style="fill:#422C15;" points="6.6,390.1 12.6,636.9 538.9,638.4 538.9,640.9 10.2,639.4 4.1,390.1 				"/>
				<path style="fill:#422C15;" d="M4.6,359.4c0.7,0,1.3,2.8,1.4,6.3c0.1,3.5-0.4,6.3-1.1,6.3c-0.7,0-1.3-2.8-1.4-6.3
					C3.4,362.3,3.9,359.4,4.6,359.4z"/>
				<path style="fill:#422C15;" d="M2,253.7c0.7,0,1.3,2.8,1.4,6.3c0.1,3.5-0.4,6.3-1.1,6.3c-0.7,0-1.3-2.8-1.4-6.3
					C0.8,256.6,1.3,253.7,2,253.7z"/>
				<path style="fill:#422C15;" d="M911.8,640.7c0-0.7,2.8-1.3,6.3-1.2c3.5,0,6.3,0.6,6.3,1.3c0,0.7-2.8,1.3-6.3,1.2
					C914.6,642,911.8,641.4,911.8,640.7z"/>
				<path style="fill:#422C15;" d="M557,639.7c0-0.7,2.8-1.3,6.3-1.2c3.5,0,6.3,0.6,6.3,1.3c0,0.7-2.8,1.3-6.3,1.2
					C559.9,641,557,640.4,557,639.7z"/>
				<path style="fill:#422C15;" d="M1150.7,235.6c-0.7-0.1-0.9-2.9-0.5-6.4c0.4-3.5,1.3-6.2,2-6.1c0.7,0.1,0.9,2.9,0.5,6.4
					C1152.3,233,1151.4,235.7,1150.7,235.6z"/>
			</g>
			
				<rect x="1139.2" y="207.3" transform="matrix(0.1135 -0.9935 0.9935 0.1135 815.5471 1331.2119)" style="fill:#422C15;" width="29.2" height="2.5"/>
		</g>
	</g>
</g>
<g>
	<g>
		<rect x="641.3" y="51.3" style="fill:#422C15;" width="156.5" height="1.5"/>
		<rect x="615.1" y="51.3" style="fill:#422C15;" width="15.4" height="1.5"/>
		<rect x="59.4" y="51.3" style="fill:#422C15;" width="34" height="1.5"/>
		<rect x="22.6" y="51.3" style="fill:#422C15;" width="7.6" height="1.5"/>
		<polygon style="fill:#422C15;" points="827,51.3 1152.3,51.3 1152.8,48.3 1154.3,48.5 1153.6,52.8 827,52.8 		"/>
		<rect x="122.6" y="51.3" style="fill:#422C15;" width="463.3" height="1.5"/>
		<ellipse style="fill:#422C15;" cx="108" cy="52.1" rx="3.8" ry="0.8"/>
		<ellipse style="fill:#422C15;" cx="44.8" cy="52.1" rx="3.8" ry="0.8"/>
		<path style="fill:#422C15;" d="M808.6,52.1c0-0.4,1.7-0.8,3.8-0.8c2.1,0,3.8,0.3,3.8,0.8c0,0.4-1.7,0.8-3.8,0.8
			C810.3,52.8,808.6,52.5,808.6,52.1z"/>
		<path style="fill:#422C15;" d="M596.7,52.1c0-0.4,1.7-0.8,3.8-0.8s3.8,0.3,3.8,0.8c0,0.4-1.7,0.8-3.8,0.8S596.7,52.5,596.7,52.1z"
			/>
		<path style="fill:#422C15;" d="M1155,37.7c-0.4-0.1-0.5-1.8-0.2-3.8c0.3-2.1,0.9-3.7,1.3-3.6c0.4,0.1,0.5,1.8,0.2,3.8
			S1155.4,37.8,1155,37.7z"/>
	</g>
	
		<rect x="1148.6" y="20.9" transform="matrix(0.1397 -0.9902 0.9902 0.1397 974.2543 1164.5472)" style="fill:#422C15;" width="17.5" height="1.5"/>
</g>
</svg>
