<?xml version="1.0" encoding="utf-8"?>
<!-- Generator: Adobe Illustrator 23.1.0, SVG Export Plug-In . SVG Version: 6.00 Build 0)  -->
<svg version="1.1" id="Layer_1" xmlns="http://www.w3.org/2000/svg" xmlns:xlink="http://www.w3.org/1999/xlink" x="0px" y="0px"
	 width="653.3px" height="247px" viewBox="0 0 653.3 247" style="enable-background:new 0 0 653.3 247;" xml:space="preserve" preserveAspectRatio="none">
<polygon style="fill:#E6A296;" points="653.3,239.3 10.6,237.6 24.3,23.4 636.7,10.9 "/>
<polygon style="fill:#F2BEB4;" points="649.6,235.1 6.9,233.4 20.6,19.2 633,6.6 "/>
<g>
	<g>
		
			<rect x="457.9" y="176.9" transform="matrix(2.428838e-02 -0.9997 0.9997 2.428838e-02 205.5647 694.3455)" style="fill:#67200E;" width="1.3" height="129.9"/>
		
			<rect x="377.6" y="233.5" transform="matrix(2.428792e-02 -0.9997 0.9997 2.428792e-02 129.1756 612.1766)" style="fill:#67200E;" width="1.3" height="12.8"/>
		
			<rect x="-7" y="154.6" transform="matrix(8.526958e-02 -0.9964 0.9964 8.526958e-02 -148.1481 149.122)" style="fill:#67200E;" width="28.2" height="1.3"/>
		
			<rect x="7.5" y="113.3" transform="matrix(8.526951e-02 -0.9964 0.9964 8.526951e-02 -103.748 114.8519)" style="fill:#67200E;" width="6.3" height="1.3"/>
		<polygon style="fill:#67200E;" points="547.6,243.4 642.5,245.7 633.5,68.6 634.8,68.5 643.8,247 547.6,244.7 		"/>
		<polygon style="fill:#67200E;" points="4.5,193.5 1.4,230.1 347.6,238.5 347.6,239.8 0,231.3 3.3,193.4 		"/>
		<path style="fill:#67200E;" d="M5.2,178.2c0.3,0,0.5,1.4,0.4,3.2c-0.1,1.7-0.5,3.1-0.9,3.1c-0.3,0-0.5-1.4-0.4-3.2
			C4.4,179.6,4.8,178.2,5.2,178.2z"/>
		
			<ellipse transform="matrix(8.526909e-02 -0.9964 0.9964 8.526909e-02 -120.0903 127.4658)" style="fill:#67200E;" cx="9.4" cy="129.1" rx="3.1" ry="0.6"/>
		<path style="fill:#67200E;" d="M532.4,243.7c0-0.3,1.4-0.6,3.1-0.5c1.7,0,3.1,0.4,3.1,0.7c0,0.3-1.4,0.6-3.1,0.5
			C533.8,244.3,532.4,244,532.4,243.7z"/>
		<path style="fill:#67200E;" d="M356.6,239.4c0-0.3,1.4-0.6,3.1-0.5c1.7,0,3.1,0.4,3.1,0.7c0,0.3-1.4,0.6-3.1,0.5
			C358,240,356.6,239.7,356.6,239.4z"/>
	</g>
</g>
<polygon style="fill:#E67957;" points="626.7,24.9 19.3,24.9 21.4,7.7 630.2,0 "/>
<g>
	<g>
		<rect x="357.2" y="27.3" style="fill:#67200E;" width="83.3" height="0.8"/>
		<rect x="343.2" y="27.3" style="fill:#67200E;" width="8.2" height="0.8"/>
		<rect x="47.6" y="27.3" style="fill:#67200E;" width="18.1" height="0.8"/>
		<rect x="28" y="27.3" style="fill:#67200E;" width="4.1" height="0.8"/>
		<polygon style="fill:#67200E;" points="456,27.3 629.1,27.3 629.3,25.7 630.1,25.8 629.8,28.1 456,28.1 		"/>
		<rect x="81.2" y="27.3" style="fill:#67200E;" width="246.5" height="0.8"/>
		<ellipse style="fill:#67200E;" cx="73.4" cy="27.7" rx="2" ry="0.4"/>
		<ellipse style="fill:#67200E;" cx="39.8" cy="27.7" rx="2" ry="0.4"/>
		<path style="fill:#67200E;" d="M446.2,27.7c0-0.2,0.9-0.4,2-0.4c1.1,0,2,0.2,2,0.4c0,0.2-0.9,0.4-2,0.4
			C447.1,28.1,446.2,27.9,446.2,27.7z"/>
		<path style="fill:#67200E;" d="M333.5,27.7c0-0.2,0.9-0.4,2-0.4c1.1,0,2,0.2,2,0.4c0,0.2-0.9,0.4-2,0.4
			C334.4,28.1,333.5,27.9,333.5,27.7z"/>
		<path style="fill:#67200E;" d="M630.5,20.1c-0.2,0-0.3-0.9-0.1-2c0.2-1.1,0.5-2,0.7-1.9c0.2,0,0.3,0.9,0.1,2
			C631.1,19.2,630.8,20.1,630.5,20.1z"/>
	</g>
	
		<rect x="627.1" y="11.1" transform="matrix(0.1397 -0.9902 0.9902 0.1397 532.1371 635.4659)" style="fill:#67200E;" width="9.3" height="0.8"/>
</g>
</svg>
