<svg version="1.1" id="Layer_1" xmlns="http://www.w3.org/2000/svg" xmlns:xlink="http://www.w3.org/1999/xlink" x="0px" y="0px"
	 width="653.3px" height="206.8px" viewBox="0 0 653.3 206.8" style="enable-background:new 0 0 653.3 206.8;" xml:space="preserve"
	 preserveAspectRatio="none">
<polygon style="fill:#B79570;" points="653.3,204.1 7.1,190.4 7.8,18.5 629.3,19.9 "/>
<polygon style="fill:#F0D9BD;" points="650,201.4 3.8,187.6 4.5,15.8 626,17.2 "/>
<g>
	<g>
		<g>
			
				<rect x="464" y="146.9" transform="matrix(2.129866e-02 -0.9998 0.9998 2.129866e-02 252.301 662.4397)" style="fill:#71481C;" width="1.1" height="110.9"/>
			
				<rect x="395.4" y="195.4" transform="matrix(2.128650e-02 -0.9998 0.9998 2.128650e-02 186.6919 592.4958)" style="fill:#71481C;" width="1.1" height="10.9"/>
			<polygon style="fill:#71481C;" points="1.7,188.4 1.7,192 21.1,192.4 21.1,193.4 0.6,193 0.6,188.3 			"/>
			
				<rect x="-1.4" y="164.5" transform="matrix(3.952772e-03 -1 1 3.952772e-03 -163.7231 165.6156)" style="fill:#71481C;" width="5.4" height="1.1"/>
			<polygon style="fill:#71481C;" points="540.6,203.4 646.7,205.7 630.4,80.6 631.5,80.5 647.9,206.8 540.6,204.5 			"/>
			
				<rect x="205.3" y="32.8" transform="matrix(2.129790e-02 -0.9998 0.9998 2.129790e-02 4.6249 398.4095)" style="fill:#71481C;" width="1.1" height="328.2"/>
			<path style="fill:#71481C;" d="M28.8,193.1c0-0.3,1.2-0.5,2.7-0.5c1.5,0,2.7,0.3,2.7,0.6c0,0.3-1.2,0.5-2.7,0.5
				C29.9,193.6,28.8,193.4,28.8,193.1z"/>
			<path style="fill:#71481C;" d="M1.2,175.4c0.3,0,0.5,1.2,0.5,2.7c0,1.5-0.2,2.7-0.5,2.7c-0.3,0-0.5-1.2-0.5-2.7
				C0.7,176.5,0.9,175.4,1.2,175.4z"/>
			<path style="fill:#71481C;" d="M527.6,203.7c0-0.3,1.2-0.5,2.7-0.5c1.5,0,2.7,0.3,2.7,0.6c0,0.3-1.2,0.5-2.7,0.5
				C528.8,204.3,527.6,204,527.6,203.7z"/>
			<path style="fill:#71481C;" d="M377.5,200.5c0-0.3,1.2-0.5,2.7-0.5c1.5,0,2.7,0.3,2.7,0.6c0,0.3-1.2,0.5-2.7,0.5
				C378.7,201.1,377.5,200.8,377.5,200.5z"/>
			<path style="fill:#71481C;" d="M630,72.9c-0.3,0-0.7-1.1-0.9-2.6c-0.2-1.5-0.1-2.7,0.2-2.7c0.3,0,0.7,1.1,0.9,2.6
				C630.4,71.7,630.3,72.9,630,72.9z"/>
		</g>
		
			<rect x="628" y="55.3" transform="matrix(0.9917 -0.1288 0.1288 0.9917 -2.6883 81.4619)" style="fill:#71481C;" width="1.1" height="12.4"/>
	</g>
</g>
<polygon style="fill:#E1A451;" points="628.3,25.1 4.5,25.1 0,7.8 631.9,0 "/>
<g>
	<g>
		<rect x="357" y="28.3" style="fill:#71481C;" width="83.7" height="0.8"/>
		<rect x="343" y="28.3" style="fill:#71481C;" width="8.2" height="0.8"/>
		<rect x="45.9" y="28.3" style="fill:#71481C;" width="18.2" height="0.8"/>
		<rect x="26.2" y="28.3" style="fill:#71481C;" width="4.1" height="0.8"/>
		<polygon style="fill:#71481C;" points="456.3,28.3 630.2,28.3 630.5,26.7 631.2,26.8 630.9,29.1 456.3,29.1 		"/>
		<rect x="79.7" y="28.3" style="fill:#71481C;" width="247.7" height="0.8"/>
		<ellipse style="fill:#71481C;" cx="71.9" cy="28.7" rx="2" ry="0.4"/>
		<ellipse style="fill:#71481C;" cx="38.1" cy="28.7" rx="2" ry="0.4"/>
		<path style="fill:#71481C;" d="M446.5,28.7c0-0.2,0.9-0.4,2-0.4c1.1,0,2,0.2,2,0.4c0,0.2-0.9,0.4-2,0.4
			C447.4,29.1,446.5,28.9,446.5,28.7z"/>
		<path style="fill:#71481C;" d="M333.2,28.7c0-0.2,0.9-0.4,2-0.4s2,0.2,2,0.4c0,0.2-0.9,0.4-2,0.4S333.2,28.9,333.2,28.7z"/>
		<path style="fill:#71481C;" d="M631.6,21.1c-0.2,0-0.3-0.9-0.1-2c0.2-1.1,0.5-2,0.7-1.9s0.3,0.9,0.1,2S631.9,21.1,631.6,21.1z"/>
	</g>
	
		<rect x="628.2" y="12.1" transform="matrix(0.1397 -0.9902 0.9902 0.1397 532.1577 637.366)" style="fill:#71481C;" width="9.3" height="0.8"/>
</g>
</svg>
