<svg version="1.1" id="Layer_1" xmlns="http://www.w3.org/2000/svg" xmlns:xlink="http://www.w3.org/1999/xlink" x="0px" y="0px"
	 width="3.9px" height="431.3px" viewBox="0 0 3.9 431.3" style="enable-background:new 0 0 3.9 431.3;" xml:space="preserve" preserveAspectRatio="none">
<g>
	<g>
		<g>
			<polygon style="fill:#531B12;" points="1.8,203.2 2.3,145.5 2.7,145.5 2.3,203.2 			"/>
			<polygon style="fill:#531B12;" points="1.8,212.9 1.8,207.2 2.2,207.2 2.2,212.9 			"/>
			<polygon style="fill:#531B12;" points="0.1,417.7 0.2,405.2 0.6,405.2 0.5,417.7 			"/>
			<polygon style="fill:#531B12;" points="0,431.3 0,428.5 0.5,428.5 0.4,431.3 			"/>
			<polygon style="fill:#531B12;" points="2.4,134.7 3.4,13.2 3.8,13.2 2.8,134.8 			"/>
			<polygon style="fill:#531B12;" points="0.3,394.4 1.7,223.6 2.1,223.6 0.7,394.4 			"/>
			<path style="fill:#531B12;" d="M0.5,401.2c-0.1,0-0.2-0.6-0.2-1.4c0-0.8,0.1-1.4,0.2-1.4c0.1,0,0.2,0.6,0.2,1.4
				C0.7,400.6,0.6,401.2,0.5,401.2z"/>
			<path style="fill:#531B12;" d="M0.3,424.5c-0.1,0-0.2-0.6-0.2-1.4c0-0.8,0.1-1.4,0.2-1.4s0.2,0.6,0.2,1.4
				C0.5,423.9,0.4,424.5,0.3,424.5z"/>
			<path style="fill:#531B12;" d="M2.5,141.5c-0.1,0-0.2-0.6-0.2-1.4c0-0.8,0.1-1.4,0.2-1.4c0.1,0,0.2,0.6,0.2,1.4
				C2.8,140.9,2.7,141.5,2.5,141.5z"/>
			<path style="fill:#531B12;" d="M1.9,219.6c-0.1,0-0.2-0.6-0.2-1.4c0-0.8,0.1-1.4,0.2-1.4c0.1,0,0.2,0.6,0.2,1.4
				C2.1,219,2,219.6,1.9,219.6z"/>
			<path style="fill:#531B12;" d="M3.6,9.2c-0.1,0-0.2-0.6-0.2-1.4c0-0.8,0.1-1.4,0.2-1.4c0.1,0,0.2,0.6,0.2,1.4
				C3.8,8.6,3.7,9.2,3.6,9.2z"/>
		</g>
		<polygon style="fill:#531B12;" points="3.5,0 3.4,6.4 3.8,6.4 3.9,0 		"/>
	</g>
</g>
</svg>
