<svg version="1.1" id="Layer_1" xmlns="http://www.w3.org/2000/svg" xmlns:xlink="http://www.w3.org/1999/xlink" x="0px" y="0px"
	 width="3.8px" height="437px" viewBox="0 0 3.8 437" style="enable-background:new 0 0 3.8 437;" xml:space="preserve" preserveAspectRatio="none">
<g>
	<g>
		<g>
			<polygon style="fill:#531B12;" points="2.2,231.1 2.6,289.6 2.2,289.6 1.8,231.1 			"/>
			<polygon style="fill:#531B12;" points="2.1,221.3 2.2,227.1 1.7,227.1 1.7,221.3 			"/>
			<polygon style="fill:#531B12;" points="0.5,13.7 0.6,26.4 0.2,26.4 0.1,13.7 			"/>
			<polygon style="fill:#531B12;" points="0.4,0 0.5,2.8 0,2.9 0,0 			"/>
			<polygon style="fill:#531B12;" points="2.7,300.5 3.7,423.6 3.2,423.7 2.3,300.5 			"/>
			<polygon style="fill:#531B12;" points="0.7,37.3 2,210.4 1.6,210.4 0.3,37.3 			"/>
			<path style="fill:#531B12;" d="M0.4,30.5c0.1,0,0.2,0.6,0.2,1.4c0,0.8-0.1,1.4-0.2,1.4c-0.1,0-0.2-0.6-0.2-1.4S0.3,30.5,0.4,30.5
				z"/>
			<path style="fill:#531B12;" d="M0.3,6.9c0.1,0,0.2,0.6,0.2,1.4c0,0.8-0.1,1.4-0.2,1.4c-0.1,0-0.2-0.6-0.2-1.4
				C0.1,7.5,0.1,6.9,0.3,6.9z"/>
			<path style="fill:#531B12;" d="M2.5,293.6c0.1,0,0.2,0.6,0.2,1.4c0,0.8-0.1,1.4-0.2,1.4c-0.1,0-0.2-0.6-0.2-1.4
				C2.2,294.3,2.3,293.6,2.5,293.6z"/>
			<path style="fill:#531B12;" d="M1.9,214.5c0.1,0,0.2,0.6,0.2,1.4c0,0.8-0.1,1.4-0.2,1.4c-0.1,0-0.2-0.6-0.2-1.4
				C1.6,215.1,1.7,214.5,1.9,214.5z"/>
			<path style="fill:#531B12;" d="M3.5,427.7c0.1,0,0.2,0.6,0.2,1.4c0,0.8-0.1,1.4-0.2,1.4c-0.1,0-0.2-0.6-0.2-1.4
				C3.3,428.3,3.4,427.7,3.5,427.7z"/>
		</g>
		<polygon style="fill:#531B12;" points="3.8,437 3.7,430.5 3.3,430.5 3.3,437 		"/>
	</g>
</g>
</svg>
