<svg version="1.1" id="Layer_1" xmlns="http://www.w3.org/2000/svg" xmlns:xlink="http://www.w3.org/1999/xlink" x="0px" y="0px"
	 width="66.9px" height="57.3px" viewBox="0 0 66.9 57.3" style="enable-background:new 0 0 66.9 57.3;" xml:space="preserve">
<g>
	<path style="fill:#531B12;" d="M33.6,1.4c-2.2-1.3-4.7-1.8-7.2-1.2s-4.6,2.1-5.9,4.3L0,37.8l2.6,1.6L23.1,6.2
		c0.9-1.5,2.3-2.5,4-2.9c1.7-0.4,3.4-0.1,4.9,0.8l33.3,20.5l1.6-2.6L33.6,1.4z"/>
	<path style="fill:#531B12;" d="M33.7,7.5c-1.7-1.1-3.8-1.4-5.8-0.9s-3.7,1.7-4.7,3.4L7.6,35.3C6.5,37,6.2,39.1,6.7,41
		c0.5,2,1.7,3.7,3.4,4.7l18.7,11.5l21.1-5l11.5-18.7c2.2-3.6,1.1-8.3-2.5-10.5L33.7,7.5z M30.8,47.8l-4.4-18.6
		c-0.6-2.4,0.9-4.9,3.4-5.5l4.3-1c2.4-0.6,4.9,0.9,5.5,3.4l4.4,18.6c0.6,2.4-0.9,4.9-3.4,5.5l-4.3,1C33.8,51.7,31.3,50.2,30.8,47.8z
		 M58.8,32L48,49.6l-2.3,0.5c1.2-1.7,1.7-4,1.2-6.2l-4.4-18.6c-1-4.1-5.1-6.6-9.2-5.7l-4.3,1c-4.1,1-6.6,5.1-5.7,9.2l4.4,18.6
		c0.5,2.2,2,4,3.9,5L29.3,54L11.7,43.2c-1-0.6-1.8-1.6-2-2.8c-0.3-1.2-0.1-2.4,0.6-3.4l15.6-25.3c0.6-1,1.6-1.8,2.8-2
		c1.2-0.3,2.4-0.1,3.4,0.6l25.3,15.6C59.5,27.1,60.1,29.9,58.8,32z"/>
	<path style="fill:#531B12;" d="M29.8,36.3c-0.8,0.2-1.3,1-1.1,1.8c0.2,0.8,1,1.3,1.8,1.1c0.8-0.2,1.3-1,1.1-1.8
		C31.4,36.6,30.6,36.1,29.8,36.3z"/>
</g>
</svg>
