<svg version="1.1" id="Layer_1" xmlns="http://www.w3.org/2000/svg" xmlns:xlink="http://www.w3.org/1999/xlink" x="0px" y="0px"
	 width="373.7px" height="59.4px" viewBox="0 0 373.7 59.4" style="enable-background:new 0 0 373.7 59.4;" xml:space="preserve" preserveAspectRatio="none">
<polygon style="fill:#E15922;" points="0,4.1 367.9,1.2 364.7,52 17.2,59.4 "/>
<g>
	<g>
		<polygon style="fill:#531B12;" points="371,16.6 371.9,4.4 276,3.7 276,1.8 373.7,2.4 372.5,16.8 		"/>
		<polygon style="fill:#531B12;" points="369.2,39.1 370.2,25.9 371.8,26.1 370.7,39.2 		"/>
		<polygon style="fill:#531B12;" points="14.4,30.3 21.8,55.5 22.5,55.5 22.5,57.4 20.7,57.5 12.9,31 		"/>
		<polygon style="fill:#531B12;" points="5.7,0.6 7.5,6.8 6,7.5 4.2,1.3 		"/>
		<polygon style="fill:#531B12;" points="256,3.6 29.5,2.1 29.5,0.2 256,1.7 		"/>
		<polygon style="fill:#531B12;" points="42.6,55.4 360.8,53.2 360.8,55.2 42.6,57.3 		"/>
		<path style="fill:#531B12;" d="M30,56.4c0-0.5,1.2-1,2.6-1c1.4,0,2.6,0.4,2.6,1c0,0.5-1.2,1-2.6,1C31.1,57.4,30,57,30,56.4z"/>
		<path style="fill:#531B12;" d="M9.3,15.8c0.4-0.2,1.1,1,1.6,2.7c0.5,1.7,0.6,3.2,0.2,3.4c-0.4,0.2-1.1-1-1.6-2.7
			C9,17.5,8.9,16,9.3,15.8z"/>
		<path style="fill:#531B12;" d="M268.6,2.7c0,0.5-1.2,1-2.6,1c-1.4,0-2.6-0.5-2.6-1c0-0.5,1.2-1,2.6-1S268.6,2.2,268.6,2.7z"/>
		<path style="fill:#531B12;" d="M368.2,54.2c0-0.2,0.1-0.4,0.1-0.6c0-0.1-0.1-0.2-0.1-0.3c0-0.1-0.1,0-0.1-0.3c0-0.4,0-0.9,0-1.5
			c0.1-1.8,0.6-3.2,1-3.1c0.4,0.1,0.7,1.5,0.5,3.3c0,0.5-0.1,1-0.2,1.4c0,0.1-0.1,0.6-0.2,0.9c-0.1,0.3-0.1,0.5-0.2,0.7
			C368.5,54.6,368.3,54.4,368.2,54.2z"/>
		<path style="fill:#531B12;" d="M22.1,1.1c0,0.5-1.2,1-2.6,1c-1.4,0-2.6-0.5-2.6-1c0-0.5,1.2-1,2.6-1C20.9,0.1,22.1,0.6,22.1,1.1z"
			/>
	</g>
	<polygon style="fill:#531B12;" points="4.9,1.9 16.9,2 16.9,0.1 4.9,0 	"/>
</g>
</svg>
