<svg version="1.1" id="Layer_1" xmlns="http://www.w3.org/2000/svg" xmlns:xlink="http://www.w3.org/1999/xlink" x="0px" y="0px"
	 width="82.4px" height="74.8px" viewBox="0 0 82.4 74.8" style="enable-background:new 0 0 82.4 74.8;" xml:space="preserve">
<g>
	<path style="fill:#856214;" d="M33.2,0.7c-3.2-1.1-6.7-0.9-9.7,0.6S18.1,5.3,17,8.6L0,57.7l3.9,1.3l17-49.2C21.7,7.7,23.2,6,25.3,5
		c2.1-1,4.4-1.1,6.6-0.4l49.2,17l1.3-3.9L33.2,0.7z"/>
	<path style="fill:#856214;" d="M35,8.6c-2.6-0.9-5.3-0.7-7.8,0.5s-4.3,3.2-5.2,5.8L9.2,52.3c-0.9,2.6-0.7,5.3,0.5,7.8
		c1.2,2.4,3.2,4.3,5.8,5.2l27.6,9.6l26-12.6l9.6-27.6c1.8-5.3-1-11.1-6.3-12.9L35,8.6z M42.9,61.8L31.8,38.9c-1.5-3-0.2-6.6,2.8-8.1
		l5.3-2.6c3-1.5,6.6-0.2,8.1,2.8L59,53.9c1.5,3,0.2,6.6-2.8,8.1l-5.3,2.6C47.9,66,44.3,64.8,42.9,61.8z M74.8,33.1l-9,26l-2.8,1.4
		c1.1-2.6,1.1-5.7-0.2-8.4L51.6,29.2c-2.4-5-8.5-7.1-13.6-4.7l-5.3,2.6c-5,2.4-7.1,8.5-4.7,13.6l11.1,22.9c1.3,2.7,3.7,4.6,6.5,5.4
		l-2.8,1.4l-26-9c-1.5-0.5-2.8-1.6-3.5-3.1c-0.7-1.5-0.8-3.1-0.3-4.6L26,16.2c0.5-1.5,1.6-2.8,3.1-3.5c1.5-0.7,3.1-0.8,4.6-0.3
		l37.4,12.9C74.2,26.6,75.9,30,74.8,33.1z"/>
	<path style="fill:#856214;" d="M38.3,47.1c-1,0.5-1.4,1.6-0.9,2.6c0.5,1,1.6,1.4,2.6,0.9c1-0.5,1.4-1.6,0.9-2.6
		C40.4,47,39.3,46.6,38.3,47.1z"/>
</g>
</svg>
