<svg version="1.1" id="Layer_1" xmlns="http://www.w3.org/2000/svg" xmlns:xlink="http://www.w3.org/1999/xlink" x="0px" y="0px"
	 width="1080.9px" height="3.5px" viewBox="0 0 1080.9 3.5" style="enable-background:new 0 0 1080.9 3.5;" xml:space="preserve" preserveAspectRatio="none">
<g>
	<g>
		<g>
			
				<rect x="364.7" y="1.3" transform="matrix(1 -1.974866e-03 1.974866e-03 1 -3.033947e-03 0.863)" style="fill:#2A1228;" width="144.6" height="1.4"/>
			
				<rect x="519.3" y="1.1" transform="matrix(1 -1.974323e-03 1.974323e-03 1 -2.510422e-03 1.0393)" style="fill:#2A1228;" width="14.2" height="1.4"/>
			
				<rect x="1015.5" y="0.1" transform="matrix(1 -1.975160e-03 1.975160e-03 1 4.427969e-04 2.0368)" style="fill:#2A1228;" width="31.4" height="1.4"/>
			
				<rect x="1073.9" y="0" transform="matrix(1 -1.975089e-03 1.975089e-03 1 7.128415e-04 2.128)" style="fill:#2A1228;" width="7" height="1.4"/>
			
				<rect x="33.1" y="1.8" transform="matrix(1 -1.974812e-03 1.974812e-03 1 -4.505534e-03 0.3661)" style="fill:#2A1228;" width="304.6" height="1.4"/>
			
				<rect x="560.5" y="0.6" transform="matrix(1 -1.974804e-03 1.974804e-03 1 -1.059318e-03 1.5295)" style="fill:#2A1228;" width="428.1" height="1.4"/>
			<path style="fill:#2A1228;" d="M1005.5,0.8c0,0.4-1.6,0.7-3.5,0.7c-1.9,0-3.5-0.3-3.5-0.7s1.6-0.7,3.5-0.7
				C1004,0.2,1005.5,0.5,1005.5,0.8z"/>
			<path style="fill:#2A1228;" d="M1063.9,0.7c0,0.4-1.6,0.7-3.5,0.7c-1.9,0-3.5-0.3-3.5-0.7c0-0.4,1.6-0.7,3.5-0.7
				C1062.3,0,1063.9,0.3,1063.9,0.7z"/>
			<path style="fill:#2A1228;" d="M354.7,2.1c0,0.4-1.6,0.7-3.5,0.7c-1.9,0-3.5-0.3-3.5-0.7c0-0.4,1.6-0.7,3.5-0.7
				C353.1,1.4,354.7,1.7,354.7,2.1z"/>
			
				<ellipse transform="matrix(1 -1.974234e-03 1.974234e-03 1 -2.389919e-03 1.0799)" style="fill:#2A1228;" cx="547" cy="1.8" rx="3.5" ry="0.7"/>
			
				<ellipse transform="matrix(1 -1.975844e-03 1.975844e-03 1 -5.478205e-03 3.875951e-02)" style="fill:#2A1228;" cx="19.6" cy="2.8" rx="3.5" ry="0.7"/>
		</g>
		
			<rect x="0" y="2.1" transform="matrix(1 -1.974635e-03 1.974635e-03 1 -5.542418e-03 1.593559e-02)" style="fill:#2A1228;" width="16.1" height="1.4"/>
	</g>
</g>
</svg>
