<svg version="1.1" id="Layer_1" xmlns="http://www.w3.org/2000/svg" xmlns:xlink="http://www.w3.org/1999/xlink" x="0px" y="0px"
	 width="1216.6px" height="385.2px" viewBox="0 0 1216.6 385.2" style="enable-background:new 0 0 1216.6 385.2;"
	 xml:space="preserve" preserveAspectRatio="none">
<g>
	<g>
		<g>
			
				<rect x="868.9" y="275.2" transform="matrix(2.129866e-02 -0.9998 0.9998 2.129866e-02 474.4435 1238.7323)" style="fill:#71471A;" width="2" height="203.6"/>
			
				<rect x="743.1" y="364.3" transform="matrix(2.128650e-02 -0.9998 0.9998 2.128650e-02 353.9319 1110.2582)" style="fill:#71471A;" width="2" height="20.1"/>
			<polygon style="fill:#71471A;" points="19.9,351.3 19.8,357.9 55.5,358.7 55.5,360.7 17.9,359.9 17.9,351.3 			"/>
			
				<rect x="14.1" y="307.4" transform="matrix(3.952772e-03 -1 1 3.952772e-03 -289.4281 326.2534)" style="fill:#71471A;" width="9.9" height="2"/>
			<polygon style="fill:#71471A;" points="1009.7,379 1204.6,383.2 1174.7,153.4 1176.7,153.2 1206.8,385.2 1009.6,381 			"/>
			
				<rect x="393.8" y="65.5" transform="matrix(2.129790e-02 -0.9998 0.9998 2.129790e-02 19.5077 753.7567)" style="fill:#71471A;" width="2" height="602.8"/>
			<path style="fill:#71471A;" d="M69.5,360c0-0.5,2.2-0.9,4.9-0.9c2.7,0.1,4.9,0.5,4.9,1.1c0,0.5-2.2,0.9-4.9,0.9
				C71.7,361,69.5,360.5,69.5,360z"/>
			<path style="fill:#71471A;" d="M19,327.4c0.5,0,1,2.2,1,4.9c0,2.7-0.5,4.9-1,4.9c-0.5,0-1-2.2-1-4.9
				C18,329.6,18.4,327.4,19,327.4z"/>
			<path style="fill:#71471A;" d="M985.8,379.5c0-0.5,2.2-0.9,4.9-0.9c2.7,0.1,4.9,0.5,4.9,1.1c0,0.5-2.2,0.9-4.9,0.9
				C988,380.5,985.8,380,985.8,379.5z"/>
			<path style="fill:#71471A;" d="M710.1,373.6c0-0.5,2.2-0.9,4.9-0.9c2.7,0.1,4.9,0.5,4.9,1.1c0,0.5-2.2,0.9-4.9,0.9
				C712.3,374.7,710.1,374.2,710.1,373.6z"/>
			<path style="fill:#71471A;" d="M1173.9,139.3c-0.5,0.1-1.3-2-1.6-4.7s-0.2-4.9,0.3-5c0.5-0.1,1.3,2,1.6,4.7
				C1174.6,137,1174.4,139.3,1173.9,139.3z"/>
		</g>
		
			<rect x="1170.2" y="107" transform="matrix(0.9917 -0.1288 0.1288 0.9917 -5.4878 151.8286)" style="fill:#71471A;" width="2" height="22.7"/>
	</g>
</g>
<g>
	<g>
		<rect x="672.5" y="57.4" style="fill:#71471A;" width="153.7" height="1.4"/>
		<rect x="646.7" y="57.4" style="fill:#71471A;" width="15.1" height="1.4"/>
		<rect x="101" y="57.4" style="fill:#71471A;" width="33.4" height="1.4"/>
		<rect x="64.9" y="57.4" style="fill:#71471A;" width="7.5" height="1.4"/>
		<polygon style="fill:#71471A;" points="854.8,57.4 1174.3,57.4 1174.7,54.4 1176.2,54.6 1175.6,58.8 854.8,58.8 		"/>
		<rect x="163.1" y="57.4" style="fill:#71471A;" width="455" height="1.4"/>
		<ellipse style="fill:#71471A;" cx="148.7" cy="58.1" rx="3.7" ry="0.7"/>
		<ellipse style="fill:#71471A;" cx="86.7" cy="58.1" rx="3.7" ry="0.7"/>
		<path style="fill:#71471A;" d="M836.8,58.1c0-0.4,1.7-0.7,3.7-0.7c2,0,3.7,0.3,3.7,0.7c0,0.4-1.7,0.7-3.7,0.7
			C838.4,58.8,836.8,58.5,836.8,58.1z"/>
		<path style="fill:#71471A;" d="M628.7,58.1c0-0.4,1.7-0.7,3.7-0.7s3.7,0.3,3.7,0.7c0,0.4-1.7,0.7-3.7,0.7S628.7,58.5,628.7,58.1z"
			/>
		<path style="fill:#71471A;" d="M1176.9,44c-0.4-0.1-0.5-1.7-0.2-3.8c0.3-2,0.8-3.6,1.2-3.6s0.5,1.7,0.2,3.8
			C1177.9,42.5,1177.3,44.1,1176.9,44z"/>
	</g>
	
		<rect x="1170.6" y="27.5" transform="matrix(0.1397 -0.9902 0.9902 0.1397 986.5618 1191.8829)" style="fill:#71471A;" width="17.1" height="1.4"/>
</g>
</svg>
