<svg version="1.1" id="Layer_1" xmlns="http://www.w3.org/2000/svg" xmlns:xlink="http://www.w3.org/1999/xlink" x="0px" y="0px"
	 width="68.4px" height="58.6px" viewBox="0 0 68.4 58.6" style="enable-background:new 0 0 68.4 58.6;" xml:space="preserve">
<g>
	<g>
		<path style="fill:#422C15;" d="M34.4,1.5c-2.2-1.4-4.8-1.8-7.4-1.2S22.4,2.4,21,4.6l-21,34l2.7,1.7l21-34c0.9-1.5,2.4-2.6,4.1-3
			c1.7-0.4,3.5-0.1,5,0.8l34,21l1.7-2.7L34.4,1.5z"/>
		<path style="fill:#422C15;" d="M34.5,7.7c-1.8-1.1-3.9-1.4-5.9-1s-3.7,1.7-4.8,3.5l-16,25.9c-1.1,1.8-1.4,3.9-1,5.9
			c0.5,2,1.7,3.7,3.5,4.8l19.1,11.8l21.6-5.1l11.8-19.1c2.3-3.7,1.1-8.5-2.5-10.7L34.5,7.7z M31.5,48.9l-4.5-19
			c-0.6-2.5,1-5,3.4-5.6l4.4-1c2.5-0.6,5,1,5.6,3.4l4.5,19c0.6,2.5-1,5-3.4,5.6l-4.4,1C34.6,52.9,32.1,51.4,31.5,48.9z M60.2,32.7
			l-11.1,18l-2.3,0.6c1.3-1.8,1.8-4.1,1.2-6.3l-4.5-19c-1-4.2-5.2-6.8-9.4-5.8l-4.4,1c-4.2,1-6.8,5.2-5.8,9.4l4.5,19
			c0.5,2.3,2,4.1,4,5.1L30,55.3L12,44.1c-1.1-0.7-1.8-1.7-2.1-2.9c-0.3-1.2-0.1-2.5,0.6-3.5l16-25.9c0.7-1.1,1.7-1.8,2.9-2.1
			c1.2-0.3,2.5-0.1,3.5,0.6l25.9,16C60.9,27.7,61.5,30.6,60.2,32.7z"/>
		<path style="fill:#422C15;" d="M30.5,37.1c-0.8,0.2-1.3,1-1.1,1.8c0.2,0.8,1,1.3,1.8,1.1c0.8-0.2,1.3-1,1.1-1.8
			C32.1,37.4,31.3,36.9,30.5,37.1z"/>
	</g>
</g>
</svg>
