<svg version="1.1" id="Layer_1" xmlns="http://www.w3.org/2000/svg" xmlns:xlink="http://www.w3.org/1999/xlink" x="0px" y="0px"
	 width="1221.6px" height="384.4px" viewBox="0 0 1221.6 384.4" style="enable-background:new 0 0 1221.6 384.4;"
	 xml:space="preserve" preserveAspectRatio="none">
<polygon style="display:none;fill:#4D8184;" points="1221.6,374.8 35.7,358.3 60.4,39.2 1190.9,28.9 "/>
<polygon style="display:none;fill:#6B9FA5;" points="1215.7,369.9 29.8,353.4 54.6,34.4 1185,24 "/>
<g>
	<g>
		<g>
			<g>
				
					<rect x="840.3" y="265.7" transform="matrix(1.173955e-02 -0.9999 0.9999 1.173955e-02 452.2852 1215.9376)" style="fill:#072830;" width="2" height="226.9"/>
				
					<rect x="700" y="366.4" transform="matrix(1.173984e-02 -0.9999 0.9999 1.173984e-02 315.2312 1073.9917)" style="fill:#072830;" width="2" height="22.3"/>
				
					<rect x="3.3" y="259.7" transform="matrix(8.902690e-02 -0.996 0.996 8.902690e-02 -234.2142 265.3298)" style="fill:#072830;" width="49.3" height="2"/>
				
					<rect x="28.8" y="187.7" transform="matrix(8.902577e-02 -0.996 0.996 8.902577e-02 -156.623 206.0555)" style="fill:#072830;" width="11" height="2"/>
				<polygon style="fill:#072830;" points="997,380 1203,382.4 1183.5,113.3 1185.4,113.2 1205.1,384.4 997,381.9 				"/>
				<polygon style="fill:#072830;" points="22.9,327.5 19.2,368.5 647.6,375.9 647.5,377.8 17.1,370.4 21,327.3 				"/>
				<path style="fill:#072830;" d="M24.3,300.9c0.5,0,0.8,2.5,0.5,5.5s-0.9,5.4-1.5,5.4s-0.8-2.5-0.5-5.5
					C23.1,303.3,23.8,300.9,24.3,300.9z"/>
				<path style="fill:#072830;" d="M32.5,209.7c0.5,0,0.8,2.5,0.5,5.5s-0.9,5.4-1.5,5.4c-0.5,0-0.8-2.5-0.5-5.5
					C31.3,212.1,31.9,209.7,32.5,209.7z"/>
				<path style="fill:#072830;" d="M970.4,380.7c0-0.5,2.5-0.9,5.5-0.9s5.5,0.5,5.4,1s-2.5,0.9-5.5,0.9S970.4,381.2,970.4,380.7z"/>
				<path style="fill:#072830;" d="M663.2,377c0-0.5,2.5-0.9,5.5-0.9s5.5,0.5,5.4,1s-2.5,0.9-5.5,0.9S663.2,377.6,663.2,377z"/>
				<path style="fill:#072830;" d="M1183.3,97.6c-0.5,0-1.1-2.4-1.4-5.4c-0.2-3,0-5.5,0.6-5.5c0.5,0,1.1,2.4,1.4,5.4
					C1184.1,95.1,1183.9,97.6,1183.3,97.6z"/>
			</g>
			
				<rect x="1180.6" y="61.5" transform="matrix(0.9974 -7.244593e-02 7.244593e-02 0.9974 -2.2672 85.7995)" style="fill:none;" width="2" height="25.3"/>
		</g>
	</g>
</g>
<polygon style="display:none;fill:#357481;" points="1170.9,51.4 50,51.4 53.9,19.6 1177.4,5.4 "/>
<g>
	<g>
		<g>
			<g>
				<rect x="673.6" y="55.8" style="fill:#072830;" width="153.7" height="1.4"/>
				<rect x="647.8" y="55.8" style="fill:#072830;" width="15.1" height="1.4"/>
				<rect x="102.1" y="55.8" style="fill:#072830;" width="33.4" height="1.4"/>
				<rect x="66" y="55.8" style="fill:#072830;" width="7.5" height="1.4"/>
				<polygon style="fill:#072830;" points="855.9,55.8 1175.4,55.8 1175.8,52.8 1177.3,53 1176.7,57.2 855.9,57.2 				"/>
				<rect x="164.2" y="55.8" style="fill:#072830;" width="455" height="1.4"/>
				<path style="fill:#072830;" d="M146.1,56.5c0-0.4,1.7-0.7,3.7-0.7s3.7,0.3,3.7,0.7s-1.7,0.7-3.7,0.7S146.1,56.9,146.1,56.5z"/>
				<path style="fill:#072830;" d="M84.1,56.5c0-0.4,1.7-0.7,3.7-0.7s3.7,0.3,3.7,0.7s-1.7,0.7-3.7,0.7
					C85.8,57.2,84.1,56.9,84.1,56.5z"/>
				<path style="fill:#072830;" d="M837.9,56.5c0-0.4,1.7-0.7,3.7-0.7s3.7,0.3,3.7,0.7s-1.7,0.7-3.7,0.7
					C839.5,57.2,837.9,56.9,837.9,56.5z"/>
				<path style="fill:#072830;" d="M629.8,56.5c0-0.4,1.7-0.7,3.7-0.7s3.7,0.3,3.7,0.7s-1.7,0.7-3.7,0.7S629.8,56.9,629.8,56.5z"/>
				<path style="fill:#072830;" d="M1178,42.4c-0.4-0.1-0.5-1.7-0.2-3.8c0.3-2,0.8-3.6,1.2-3.6c0.4,0.1,0.5,1.7,0.2,3.8
					S1178.4,42.5,1178,42.4z"/>
			</g>
			
				<rect x="1171.8" y="25.9" transform="matrix(0.1397 -0.9902 0.9902 0.1397 989.1002 1191.6392)" style="fill:none;" width="17.1" height="1.4"/>
		</g>
	</g>
</g>
</svg>
