<svg version="1.1" id="Layer_1" xmlns="http://www.w3.org/2000/svg" xmlns:xlink="http://www.w3.org/1999/xlink" x="0px" y="0px"
	 width="60.2px" height="137.7px" viewBox="0 0 60.2 137.7" style="enable-background:new 0 0 60.2 137.7;" xml:space="preserve">
<path style="fill:#531B12;" d="M43.4,6.6L29.5,0.6c-3.5-1.5-7.7,0.1-9.2,3.6L16.4,13c-0.1,0.2-0.1,0.3-0.2,0.5c0,0,0,0,0,0l0,0
	c-2.4,6.1-0.3,13,4.7,16.9c-1.8,4.3-3.7,8.5-5.5,12.8c-0.6,1.4-1.2,2.7-1.8,4.1c0,0.1-0.1,0.2-0.1,0.3l-0.6-0.3
	C7.5,45,2.2,46,0.6,49.6c-0.1,0.3-0.2,0.6-0.3,0.9L0,51.7l26.1,11.3l0.7-1.1c0.2-0.3,0.3-0.5,0.4-0.8c1.6-3.6-1.3-8.3-6.6-10.6
	L20,50.4c0.2-0.4,0.4-0.8,0.5-1.2c1.1-2.5,2.1-4.9,3.2-7.4c1.2-2.8,2.5-5.6,3.7-8.5c6.5,1.1,13.1-2.3,15.8-8.6l3.8-8.8
	C48.6,12.3,46.9,8.2,43.4,6.6z M28.2,3.4l13.9,6.1c2,0.9,2.9,3.2,2,5.2l-0.9,2.1c-0.1-0.1-0.1-0.1-0.2-0.2
	c-2.5-2.2-6.9-2.1-11.2,0.2c-4.2,2.3-7.4,0.1-10.5-2.6c-0.6-0.5-1.1-0.9-1.5-1.2l3.2-7.4C23.9,3.5,26.3,2.6,28.2,3.4z M24.6,59
	L4,50.1c1.3-1.1,4.4-1.4,7.6,0l7.8,3.4C22.6,54.9,24.5,57.3,24.6,59z M19.6,45c-0.6,1.4-1.2,2.7-1.8,4.1c0,0.1-0.1,0.2-0.1,0.3
	l-1.9-0.8c0.2-0.4,0.4-0.8,0.5-1.2c1.1-2.5,2.1-4.9,3.2-7.4c1.2-2.7,2.3-5.4,3.5-8.1c0.3,0.2,0.6,0.3,1,0.5c0.3,0.1,0.7,0.3,1,0.4
	C23.2,36.8,21.4,40.9,19.6,45z M40.4,23.5c-2.5,5.8-9.3,8.5-15.2,6c-5.3-2.3-8-8.1-6.5-13.6c0.2,0.2,0.5,0.4,0.7,0.6
	c1.2,1.1,3,2.6,5.1,3.5c2.5,1.1,5.5,1.4,8.9-0.5c3.4-1.9,6.4-1.7,7.6-0.6c0.7,0.6,0.8,1.5,0.3,2.6L40.4,23.5z"/>
<g>
	<path style="fill:#531B12;" d="M44.9,97.3l-6.6-20.4c-0.4-1.3-1.1-2.1-2.1-2.3c-1.6-0.4-2.8,0.8-4.2,2.2c-1.3,1.2-2.9,2.8-4.8,3.4
		l-9.6,3.1c-2.9,0.9-5.3,2.6-6.9,4.8c-1.7,2.3-2.2,4.9-1.4,7.3l4.1,12.7c0,0.9,0.1,1.8,0.4,2.7l6.7,20.7c1.1,3.2,3.8,5.5,7,5.9
		c2.3,0.6,4.9,0.4,7.5-0.4l9.6-3.1c2.5-0.8,4.7-2.2,6.3-4.1c1.5-1.5,2.4-3.5,2.6-5.6c5.2-1.8,8-7.4,6.3-12.7l-2.5-7.7
		C55.5,98.7,50.1,95.8,44.9,97.3z M46.3,128.6l-15.9,5.1c-0.7,0.2-1.5,0.3-2.2,0.2c-1.8-0.4-3.2-1.5-3.7-2.9l-7.6-23.4
		c0.2-2,1.5-3.8,3.6-4.5L36.3,98c2-0.7,4.2,0,5.5,1.5l7.6,23.4c0.5,1.5-0.1,3.1-1.3,4.6C47.6,128,47,128.3,46.3,128.6z M18.6,86.6
		l9.6-3.1c2.7-0.9,4.7-2.8,6.2-4.2c0.2-0.2,0.5-0.5,0.7-0.7l5.1,15.9c-1.6-0.4-3.3-0.4-5,0.1l-15.9,5.1c-1.7,0.5-3.1,1.5-4.1,2.8
		l-2.7-8.3C11.7,91.5,14.4,88,18.6,86.6z M56.3,112.6c1,3.2-0.5,6.6-3.4,8l-6.5-20c3.2-0.6,6.4,1.2,7.5,4.4L56.3,112.6z"/>
	<path style="fill:#531B12;" d="M23.4,112.9c1.5,4.5,2.9,9,4.4,13.5c0,0.1,0,0.1,0.1,0.2c0.6,1.7,3.3,0.9,2.7-0.9
		c-0.7-2.3-1.5-4.5-2.2-6.8c-0.8-2.3-1.5-4.6-2.3-7C25.5,110.3,22.8,111.2,23.4,112.9z"/>
	<path style="fill:#531B12;" d="M30.2,110.7c1.5,4.5,2.9,9,4.4,13.5c0,0.1,0,0.1,0.1,0.2c0.6,1.7,3.3,0.9,2.7-0.9
		c-0.7-2.3-1.5-4.5-2.2-6.8c-0.8-2.3-1.5-4.6-2.3-7C32.3,108.1,29.7,109,30.2,110.7z"/>
	<path style="fill:#531B12;" d="M37,108.5c1.5,4.5,2.9,9,4.4,13.5c0,0.1,0,0.1,0.1,0.2c0.6,1.7,3.3,0.9,2.7-0.9
		c-0.7-2.3-1.5-4.5-2.2-6.8c-0.8-2.3-1.5-4.6-2.3-7C39.2,105.9,36.5,106.8,37,108.5z"/>
</g>
</svg>
