<svg version="1.1" id="Layer_1" xmlns="http://www.w3.org/2000/svg" xmlns:xlink="http://www.w3.org/1999/xlink" x="0px" y="0px"
	 width="1220.2px" height="576.8px" viewBox="0 0 1220.2 576.8" style="enable-background:new 0 0 1220.2 576.8;"
	 xml:space="preserve" preserveAspectRatio="none">
<g>
	<g>
		<g>
			<polygon style="fill:#152F1D;" points="736.1,563.3 994.2,569.3 994.2,571.7 736.1,565.7 			"/>
			<polygon style="fill:#152F1D;" points="692.9,562.3 718.3,562.9 718.2,565.3 692.8,564.7 			"/>
			<polygon style="fill:#152F1D;" points="20.6,324.4 18,378.2 15.5,378.1 18.1,324.2 			"/>
			<polygon style="fill:#152F1D;" points="23.3,266.1 22.7,278.2 20.2,278.1 20.8,266 			"/>
			<polygon style="fill:#152F1D;" points="1042.3,570.4 1208.3,574.3 1185.3,214.4 1187.7,214.3 1211,576.8 1042.3,572.8 			"/>
			<polygon style="fill:#152F1D;" points="15.8,424.4 10.1,546.3 644.8,561.1 644.7,563.5 7.5,548.6 13.4,424.3 			"/>
			<path style="fill:#152F1D;" d="M16,395.3c0.7,0,1.1,2.7,1,6c-0.2,3.3-0.8,5.9-1.5,5.9c-0.7,0-1.1-2.7-1-6
				C14.6,397.9,15.3,395.2,16,395.3z"/>
			<path style="fill:#152F1D;" d="M20.7,295.2c0.7,0,1.1,2.7,1,6c-0.2,3.3-0.8,5.9-1.5,5.9c-0.7,0-1.1-2.7-1-6
				C19.3,297.9,20,295.2,20.7,295.2z"/>
			<path style="fill:#152F1D;" d="M1012.1,570.9c0-0.7,2.8-1.1,6.2-1c3.4,0.1,6.2,0.7,6.2,1.3s-2.8,1.1-6.2,1
				C1014.8,572.2,1012,571.6,1012.1,570.9z"/>
			<path style="fill:#152F1D;" d="M662.6,562.8c0-0.7,2.8-1.1,6.2-1c3.4,0.1,6.2,0.7,6.2,1.3c0,0.7-2.8,1.1-6.2,1
				S662.6,563.4,662.6,562.8z"/>
			<path style="fill:#152F1D;" d="M1185.4,197.2c-0.7,0-1.4-2.6-1.6-5.9c-0.2-3.3,0.2-6,0.9-6s1.4,2.6,1.6,5.9
				C1186.5,194.5,1186.1,197.2,1185.4,197.2z"/>
		</g>
		<polygon style="fill:#152F1D;" points="1181.6,157.8 1183.4,185.4 1185.9,185.2 1184.1,157.6 		"/>
	</g>
</g>
<g>
	<g>
		<rect x="677.1" y="52.7" style="fill:#531B12;" width="159" height="1.5"/>
		<rect x="650.4" y="52.7" style="fill:#531B12;" width="15.7" height="1.5"/>
		<rect x="85.9" y="52.7" style="fill:#531B12;" width="34.5" height="1.5"/>
		<rect x="48.6" y="52.7" style="fill:#531B12;" width="7.7" height="1.5"/>
		<polygon style="fill:#531B12;" points="865.7,52.7 1196.3,52.7 1196.7,49.6 1198.2,49.9 1197.6,54.2 865.7,54.2 		"/>
		<rect x="150.1" y="52.7" style="fill:#531B12;" width="470.7" height="1.5"/>
		<ellipse style="fill:#531B12;" cx="135.3" cy="53.5" rx="3.8" ry="0.8"/>
		<ellipse style="fill:#531B12;" cx="71.1" cy="53.5" rx="3.8" ry="0.8"/>
		<path style="fill:#531B12;" d="M847.1,53.5c0-0.4,1.7-0.8,3.8-0.8c2.1,0,3.8,0.3,3.8,0.8c0,0.4-1.7,0.8-3.8,0.8
			C848.8,54.2,847.1,53.9,847.1,53.5z"/>
		<path style="fill:#531B12;" d="M631.8,53.5c0-0.4,1.7-0.8,3.8-0.8c2.1,0,3.8,0.3,3.8,0.8c0,0.4-1.7,0.8-3.8,0.8
			C633.5,54.2,631.8,53.9,631.8,53.5z"/>
		<path style="fill:#531B12;" d="M1199,38.9c-0.4-0.1-0.5-1.8-0.2-3.9c0.3-2.1,0.9-3.7,1.3-3.7c0.4,0.1,0.5,1.8,0.2,3.9
			C1200,37.3,1199.4,38.9,1199,38.9z"/>
	</g>
	
		<rect x="1192.4" y="21.7" transform="matrix(0.1397 -0.9902 0.9902 0.1397 1011.2439 1208.9043)" style="fill:#531B12;" width="17.7" height="1.5"/>
</g>
</svg>
