<svg version="1.1" id="Layer_1" xmlns="http://www.w3.org/2000/svg" xmlns:xlink="http://www.w3.org/1999/xlink" x="0px" y="0px"
	 width="649.2px" height="349.8px" viewBox="0 0 649.2 349.8" style="enable-background:new 0 0 649.2 349.8;" xml:space="preserve"
	 preserveAspectRatio="none">
<polygon style="fill:#704B1E;" points="611.3,343.4 16.3,341.8 8.5,24 649.2,11.6 "/>
<polygon style="fill:#F2BF6C;" points="607.5,339.1 12.5,337.5 4.7,19.6 645.4,7.3 "/>
<g>
	<g>
		<g>
			<g>
				
					<rect x="414.5" y="277.3" transform="matrix(2.776523e-03 -1 1 2.776523e-03 65.4892 762.8277)" style="fill:#412C16;" width="1.4" height="142.6"/>
				
					<rect x="326.3" y="341.3" transform="matrix(2.777962e-03 -1 1 2.777962e-03 -22.2275 674.3772)" style="fill:#412C16;" width="1.4" height="14"/>
				
					<rect x="1.2" y="154.8" transform="matrix(0.9997 -2.443036e-02 2.443036e-02 0.9997 -4.1607 9.686216e-02)" style="fill:#412C16;" width="1.4" height="31"/>
				
					<rect x="0.1" y="121.3" transform="matrix(0.9997 -2.443073e-02 2.443073e-02 0.9997 -3.0488 5.609265e-02)" style="fill:#412C16;" width="1.4" height="6.9"/>
				<polygon style="fill:#412C16;" points="513.1,348.2 600.6,348.4 624.7,138 626,138.2 601.8,349.8 513.1,349.5 				"/>
				<polygon style="fill:#412C16;" points="3.6,212.4 6.9,346.8 293.4,347.6 293.4,348.9 5.5,348.1 2.2,212.4 				"/>
				<path style="fill:#412C16;" d="M2.5,195.7c0.4,0,0.7,1.5,0.8,3.4c0,1.9-0.2,3.4-0.6,3.4c-0.4,0-0.7-1.5-0.8-3.4
					C1.9,197.2,2.1,195.7,2.5,195.7z"/>
				<path style="fill:#412C16;" d="M1.1,138.1c0.4,0,0.7,1.5,0.8,3.4c0,1.9-0.2,3.4-0.6,3.4c-0.4,0-0.7-1.5-0.8-3.4
					C0.4,139.7,0.7,138.1,1.1,138.1z"/>
				<path style="fill:#412C16;" d="M496.4,348.8c0-0.4,1.5-0.7,3.4-0.7c1.9,0,3.4,0.3,3.4,0.7c0,0.4-1.5,0.7-3.4,0.7
					C497.9,349.5,496.4,349.2,496.4,348.8z"/>
				<path style="fill:#412C16;" d="M303.3,348.3c0-0.4,1.5-0.7,3.4-0.7c1.9,0,3.4,0.3,3.4,0.7c0,0.4-1.5,0.7-3.4,0.7
					C304.8,349,303.3,348.6,303.3,348.3z"/>
				<path style="fill:#412C16;" d="M626.5,128.3c-0.4,0-0.5-1.6-0.3-3.5c0.2-1.9,0.7-3.4,1.1-3.3c0.4,0,0.5,1.6,0.3,3.5
					C627.3,126.8,626.8,128.3,626.5,128.3z"/>
			</g>
			
				<rect x="620.2" y="112.9" transform="matrix(0.1135 -0.9935 0.9935 0.1135 444 724.7382)" style="fill:#412C16;" width="15.9" height="1.4"/>
		</g>
	</g>
</g>
<polygon style="fill:#F9D674;" points="624.9,25.5 3.4,25.5 5.6,7.9 628.5,0 "/>
<g>
	<g>
		<rect x="349.1" y="27.9" style="fill:#412C16;" width="85.2" height="0.8"/>
		<rect x="334.9" y="27.9" style="fill:#412C16;" width="8.4" height="0.8"/>
		<rect x="32.3" y="27.9" style="fill:#412C16;" width="18.5" height="0.8"/>
		<rect x="12.3" y="27.9" style="fill:#412C16;" width="4.1" height="0.8"/>
		<polygon style="fill:#412C16;" points="450.2,27.9 627.4,27.9 627.6,26.3 628.4,26.4 628.1,28.8 450.2,28.8 		"/>
		<rect x="66.7" y="27.9" style="fill:#412C16;" width="252.2" height="0.8"/>
		<ellipse style="fill:#412C16;" cx="58.8" cy="28.4" rx="2.1" ry="0.4"/>
		<ellipse style="fill:#412C16;" cx="24.4" cy="28.4" rx="2.1" ry="0.4"/>
		<path style="fill:#412C16;" d="M440.2,28.4c0-0.2,0.9-0.4,2.1-0.4c1.1,0,2.1,0.2,2.1,0.4c0,0.2-0.9,0.4-2.1,0.4
			C441.2,28.8,440.2,28.6,440.2,28.4z"/>
		<path style="fill:#412C16;" d="M324.9,28.4c0-0.2,0.9-0.4,2.1-0.4s2.1,0.2,2.1,0.4c0,0.2-0.9,0.4-2.1,0.4S324.9,28.6,324.9,28.4z"
			/>
		<path style="fill:#412C16;" d="M628.8,20.5c-0.2,0-0.3-1-0.1-2.1c0.2-1.1,0.5-2,0.7-2c0.2,0,0.3,1,0.1,2.1
			C629.3,19.7,629,20.6,628.8,20.5z"/>
	</g>
	
		<rect x="625.3" y="11.4" transform="matrix(0.1397 -0.9902 0.9902 0.1397 530.4034 634.0026)" style="fill:#412C16;" width="9.5" height="0.8"/>
</g>
</svg>
