<svg version="1.1" id="Layer_1" xmlns="http://www.w3.org/2000/svg" xmlns:xlink="http://www.w3.org/1999/xlink" x="0px" y="0px"

	 width="533.9px" height="62.5px" viewBox="0 0 533.9 62.5" style="enable-background:new 0 0 533.9 62.5;" xml:space="preserve"  preserveAspectRatio="none">

<polygon style="fill:#164655;" points="532.3,62.2 0.8,55.1 6.6,4.2 508.8,6.2 "/>

<g>

	<g>

		<g>

			<g>

				<polygon style="fill:#072830;" points="3.2,53.2 2.6,60.1 146.3,58.9 146.3,61.2 0,62.5 0.9,53 				"/>

				

					<rect x="-3.7" y="33.9" transform="matrix(9.579203e-02 -0.9954 0.9954 9.579203e-02 -31.4543 35.4863)" style="fill:#072830;" width="15.1" height="2.3"/>

				<polygon style="fill:#072830;" points="517.2,24.1 507.5,2.4 499.6,2.5 499.6,0.2 509,0 519.3,23.2 				"/>

				

					<rect x="530.2" y="49.5" transform="matrix(0.9145 -0.4046 0.4046 0.9145 23.9018 219.5197)" style="fill:#072830;" width="2.3" height="7.5"/>

				

					<rect x="174.9" y="57.2" transform="matrix(1 -8.799834e-03 8.799834e-03 1 -0.5005 2.9619)" style="fill:#072830;" width="322.9" height="2.3"/>

				

					<rect x="17.3" y="4.8" transform="matrix(0.9998 -1.806031e-02 1.806031e-02 0.9998 -6.754702e-02 4.4116)" style="fill:#072830;" width="453.8" height="2.3"/>

				<path style="fill:#072830;" d="M489,1.5c0,0.6-1.6,1.2-3.7,1.2c-2,0-3.7-0.5-3.7-1.1c0-0.6,1.6-1.2,3.7-1.2

					C487.4,0.4,489,0.9,489,1.5z"/>

				<path style="fill:#072830;" d="M525.5,40.1c-0.6,0.3-1.7-1-2.6-2.9s-1-3.6-0.4-3.8s1.7,1,2.6,2.9S526.1,39.9,525.5,40.1z"/>

				

					<ellipse transform="matrix(1 -8.797512e-03 8.797512e-03 1 -0.5207 1.4153)" style="fill:#072830;" cx="160.6" cy="59.9" rx="3.7" ry="1.2"/>

				<path style="fill:#072830;" d="M6.8,10.2c0.1,0.2,0,0.4,0,0.6c0.1,0.2,0.1,0.3,0.2,0.4c0.1,0.1,0.1,0.1,0.1,0.4

					c0,0.5,0,1.2,0,1.8c-0.2,2-0.9,3.6-1.5,3.6s-1-1.8-0.8-3.8c0.1-0.6,0.2-1.3,0.3-1.8c0.1-0.2,0.2-0.7,0.3-1

					c0.1-0.3,0.2-0.6,0.3-0.8C6.4,9.8,6.7,10,6.8,10.2z"/>

				

					<ellipse transform="matrix(1 -8.802103e-03 8.802103e-03 1 -0.4802 4.5092)" style="fill:#072830;" cx="512" cy="56.8" rx="3.7" ry="1.2"/>

			</g>

			

				<rect x="515.7" y="55.5" transform="matrix(1 -8.799177e-03 8.799177e-03 1 -0.4786 4.6154)" style="fill:none;" width="17.1" height="2.3"/>

		</g>

	</g>

</g>

</svg>

