<svg version="1.1" id="Layer_1" xmlns="http://www.w3.org/2000/svg" xmlns:xlink="http://www.w3.org/1999/xlink" x="0px" y="0px"
	 width="101.6px" height="143.8px" viewBox="0 0 101.6 143.8" style="enable-background:new 0 0 101.6 143.8;" xml:space="preserve"
	>
<path style="fill:#152F1D;" d="M87.6,45.3c-0.2-0.2-0.2-0.5-0.2-0.7c0,0,0-0.2,0.1-0.2l1.9-0.5c1.4-0.4,2.4-1.5,2.7-2.9
	c0.4-1.6-0.1-3.2-1.3-4.3L83,29.4c-0.2-0.2-0.2-0.5-0.2-0.7c0,0,0-0.2,0.1-0.2l1.9-0.5c1.4-0.4,2.4-1.5,2.7-2.9
	c0.4-1.6-0.1-3.2-1.3-4.3L65.7,1.7c-1.6-1.5-3.5-2.1-5.2-1.6c-1.7,0.5-3,2-3.6,4.1l-7.1,27.1l0,0c-0.4,1.5,0.1,3.2,1.2,4.3
	c1.1,1,2.5,1.4,3.9,1l1.9-0.5c0.1,0,0.2,0.1,0.2,0.1c0.1,0.1,0.3,0.4,0.2,0.7l-2.7,10.3l0,0c-0.2,0.9-0.2,1.8,0.2,2.7L48,43.9
	c-1.6-1.5-3.5-2.1-5.2-1.6c-1.7,0.5-3,2-3.6,4.1l-2.4,9.1l-3.5-3.2c-0.2-0.2-0.2-0.5-0.2-0.7c0,0,0-0.2,0.1-0.2l1.9-0.5
	c1.4-0.4,2.4-1.5,2.7-2.9c0.4-1.6-0.1-3.2-1.3-4.3L16.1,24.7c-1.6-1.5-3.5-2.1-5.2-1.6s-3,2-3.6,4.1L0.2,54.3l0,0
	c-0.4,1.5,0.1,3.2,1.2,4.3c1.1,1,2.5,1.4,3.9,1l1.9-0.5c0.1,0,0.2,0.1,0.2,0.1c0.1,0.1,0.3,0.4,0.2,0.7L4.8,70.2l0,0
	c-0.4,1.5,0.1,3.2,1.2,4.3c1.1,1,2.5,1.4,3.9,1l1.9-0.5c0.1,0,0.2,0.1,0.2,0.1c0.1,0.1,0.3,0.4,0.2,0.7L9.4,86.1l0,0.1
	c-0.4,1.5,0.1,3.2,1.2,4.3c1.1,1,2.5,1.4,3.9,1l10.9-3.2c2.3,7.9,4.6,15.8,6.9,23.6c1.6,5.5,3.2,10.9,4.7,16.4
	c0.9,3.1,1.8,6.2,2.7,9.3c0.4,1.4,0.8,2.8,1.2,4.2c0.1,0.3,0.2,0.7,0.3,1c0,0,0,0,0,0c0.5,1.9,3.4,1,2.9-0.8
	c-0.1-0.3-0.2-0.5-0.2-0.8c-0.4-1.2-0.7-2.5-1.1-3.7c-0.8-2.9-1.7-5.7-2.5-8.6c-1.5-5.1-3-10.3-4.5-15.4c-2.3-8.1-4.7-16.1-7-24.2
	c-0.2-0.6-0.4-1.3-0.5-1.9l3.2-0.9c2.3,7.9,4.6,15.8,6.9,23.6c1.6,5.5,3.2,10.9,4.7,16.4c0.9,3.1,1.8,6.2,2.7,9.3
	c0.4,1.4,0.8,2.8,1.2,4.2c0.1,0.3,0.2,0.7,0.3,1c0,0,0,0,0,0c0.5,1.9,3.4,1,2.9-0.8c-0.1-0.3-0.2-0.5-0.2-0.8
	c-0.4-1.2-0.7-2.5-1.1-3.7c-0.8-2.9-1.7-5.7-2.5-8.6c-1.5-5.1-3-10.3-4.5-15.4c-2.3-8.1-4.7-16.1-7-24.2c-0.2-0.6-0.4-1.3-0.5-1.9
	l3.6-1.1l-1.3,4.8l0,0c-0.4,1.5,0.1,3.2,1.2,4.3c1.1,1,2.5,1.4,3.9,1l1.9-0.5c0.1,0,0.2,0.1,0.2,0.1c0.1,0.1,0.3,0.4,0.2,0.7
	l-2.7,10.3l0,0.1c-0.4,1.5,0.1,3.2,1.2,4.3c1.1,1,2.5,1.4,3.9,1l10.8-3.1c2,6.9,4,13.9,6,20.8c0.6,2.2,1.3,4.4,1.9,6.6
	c0,0.1,0.1,0.3,0.1,0.4c0.5,1.9,3.4,1,2.9-0.8c-0.2-0.7-0.4-1.4-0.6-2c-1.2-4-2.3-8-3.5-12c-1.3-4.6-2.7-9.2-4-13.7l2.8-0.8
	c2,6.9,4,13.9,6,20.8c0.6,2.2,1.3,4.4,1.9,6.6c0,0.1,0.1,0.3,0.1,0.4c0.5,1.9,3.4,1,2.9-0.8c-0.2-0.7-0.4-1.4-0.6-2
	c-1.2-4-2.3-8-3.5-12c-1.3-4.6-2.7-9.2-4-13.7l10.5-3.1c1.4-0.4,2.4-1.5,2.7-2.9c0.4-1.6-0.1-3.2-1.3-4.3L70,87.4
	c-0.2-0.2-0.2-0.5-0.2-0.7c0,0,0-0.2,0.1-0.2l1.9-0.5c1.4-0.4,2.4-1.5,2.7-2.9c0.4-1.6-0.1-3.2-1.3-4.3l-7.8-7.3
	c-0.2-0.2-0.2-0.5-0.2-0.7c0,0,0-0.2,0.1-0.2l1.9-0.5c1.4-0.4,2.4-1.5,2.7-2.9c0-0.2,0.1-0.3,0.1-0.5l4.5-1.3
	c2.7,9.1,5.3,18.3,8,27.4c1.8,6.3,3.6,12.5,5.4,18.8c1,3.5,2,6.9,3,10.4c0.4,1.5,0.9,3,1.3,4.4c0.1,0.3,0.2,0.7,0.3,1c0,0,0,0,0,0
	c0.5,1.9,3.4,1,2.9-0.8c-0.1-0.2-0.1-0.5-0.2-0.7c-0.4-1.3-0.7-2.6-1.1-3.9c-0.9-3.2-1.8-6.3-2.8-9.5c-1.7-5.9-3.4-11.8-5.1-17.6
	c-2.7-9.4-5.5-18.9-8.2-28.3c-0.2-0.6-0.4-1.3-0.6-1.9l3.3-1c2.7,9.1,5.3,18.3,8,27.4c1.8,6.3,3.6,12.5,5.4,18.8c1,3.5,2,6.9,3,10.4
	c0.4,1.5,0.9,3,1.3,4.4c0.1,0.3,0.2,0.7,0.3,1c0,0,0,0,0,0c0.5,1.9,3.4,1,2.9-0.8c-0.1-0.2-0.1-0.5-0.2-0.7
	c-0.4-1.3-0.7-2.6-1.1-3.9c-0.9-3.2-1.8-6.3-2.8-9.5c-1.7-5.9-3.4-11.8-5.1-17.6c-2.7-9.4-5.5-18.9-8.2-28.3
	c-0.2-0.6-0.4-1.3-0.6-1.9l10.5-3c1.4-0.4,2.4-1.5,2.7-2.9c0.4-1.6-0.1-3.2-1.3-4.3L87.6,45.3z M13.4,87.8c0,0-0.1,0-0.2-0.1
	c-0.1-0.1-0.3-0.4-0.2-0.6l2.7-10.3c0.4-1.6-0.1-3.2-1.2-4.3c-1.1-1-2.5-1.4-3.9-1l-1.9,0.5c0,0-0.1,0-0.2-0.1
	c-0.1-0.1-0.3-0.4-0.2-0.6l2.7-10.3c0.4-1.6-0.1-3.2-1.2-4.3c-1.1-1-2.5-1.4-3.9-1L4.2,56c0,0-0.1,0-0.2-0.1
	c-0.1-0.1-0.3-0.4-0.2-0.6l7.1-27.1c0.2-0.8,0.6-1.3,1-1.4s1,0.2,1.6,0.7l20.5,19l0,0c0.2,0.2,0.2,0.5,0.2,0.6
	c0,0.1-0.1,0.2-0.1,0.2l-1.9,0.5c-1.4,0.4-2.4,1.5-2.7,2.9c-0.4,1.6,0.1,3.2,1.3,4.3l5,4.6l-3.6,13.8l0,0.1
	c-0.4,1.5,0.1,3.2,1.2,4.3c1.1,1,2.5,1.4,3.9,1l1.9-0.5c0.1,0,0.1,0.1,0.2,0.1c0,0,0,0,0,0c0.1,0.1,0.1,0.2,0.2,0.3
	c0,0.1,0,0.2,0,0.3c0,0,0,0.1,0,0.1l-0.3,1.2L13.4,87.8z M66.2,66.4c0,0.1-0.1,0.2-0.1,0.2l-1.9,0.5c-1.4,0.4-2.4,1.5-2.7,2.9
	c-0.4,1.6,0.1,3.2,1.3,4.3l7.8,7.2l0,0c0.2,0.2,0.2,0.5,0.2,0.6c0,0.1-0.1,0.2-0.1,0.2L68.8,83c-1.4,0.4-2.4,1.5-2.7,2.9
	c-0.4,1.6,0.1,3.2,1.3,4.3l7.8,7.3l0,0c0.2,0.2,0.2,0.5,0.2,0.6c0,0.1-0.1,0.2-0.1,0.2L45.4,107c0,0-0.1,0-0.2-0.1
	c-0.1-0.1-0.3-0.4-0.2-0.6l2.7-10.3c0.4-1.6-0.1-3.2-1.2-4.3c-1.1-1-2.5-1.4-3.9-1l-1.9,0.5c0,0-0.1,0-0.2-0.1
	c-0.1-0.1-0.3-0.4-0.2-0.6L43.1,80c0.2-0.6,0.2-1.2,0.1-1.8c0-0.2-0.1-0.4-0.1-0.6c0-0.1-0.1-0.2-0.1-0.3c-0.2-0.6-0.6-1.2-1.1-1.7
	c-1.1-1-2.5-1.4-3.9-1l-1.9,0.5c0,0-0.1,0-0.2-0.1c-0.1-0.1-0.3-0.4-0.2-0.6l7.1-27.1c0.2-0.8,0.6-1.3,1-1.4c0.4-0.1,1,0.2,1.6,0.7
	l20.5,19l0,0C66.2,65.9,66.2,66.2,66.2,66.4z M57.4,52.6c0.7,0.2,1.4,0.2,2.1,0l1.9-0.5c0.1,0,0.2,0.1,0.2,0.1
	c0.1,0.1,0.3,0.4,0.2,0.7l-0.8,3.1L57.4,52.6z M93.1,55.9c0,0.1-0.1,0.2-0.1,0.2L69.3,63l-5.1-4.7l1.2-4.5c0.4-1.6-0.1-3.2-1.2-4.3
	c-1.1-1-2.5-1.4-3.9-1l-1.9,0.5c0,0-0.1,0-0.2-0.1c-0.1-0.1-0.3-0.4-0.2-0.6l2.7-10.3c0.4-1.6-0.1-3.2-1.2-4.3c-1.1-1-2.5-1.4-3.9-1
	l-1.9,0.5c0,0-0.1,0-0.2-0.1c-0.1-0.1-0.3-0.4-0.2-0.6l7.1-27.1c0.2-0.8,0.6-1.3,1-1.4c0.4-0.1,1,0.2,1.6,0.7l20.5,19l0,0
	c0.2,0.2,0.2,0.5,0.2,0.6c0,0.1-0.1,0.2-0.1,0.2l-1.9,0.5c-1.4,0.4-2.4,1.5-2.7,2.9c-0.4,1.6,0.1,3.2,1.3,4.3l7.8,7.2l0,0
	c0.2,0.2,0.2,0.5,0.2,0.6c0,0.1-0.1,0.2-0.1,0.2l-1.9,0.5c-1.4,0.4-2.4,1.5-2.7,2.9c-0.4,1.6,0.1,3.2,1.3,4.3l7.8,7.2l0,0
	C93.1,55.5,93.1,55.8,93.1,55.9z"/>
</svg>
