<svg version="1.1" id="Layer_1" xmlns="http://www.w3.org/2000/svg" xmlns:xlink="http://www.w3.org/1999/xlink" x="0px" y="0px"
	 width="56.8px" height="67.7px" viewBox="0 0 56.8 67.7" style="enable-background:new 0 0 56.8 67.7;" xml:space="preserve">
<g>
	<path style="fill:#05232E;" d="M47.6,33.7l8.9-23.3C57,9,56.9,7.7,56.2,6.8c-1.2-1.5-3.1-1.3-5.4-1.1c-2.1,0.2-4.6,0.4-6.8-0.4
		L33,1.1c-3.3-1.2-6.7-1.5-9.7-0.7c-3.2,0.9-5.6,2.9-6.6,5.6l-5.5,14.5c-0.6,0.8-1.2,1.7-1.6,2.7l-9,23.6c-1.4,3.7-0.5,7.7,2,10.5
		c1.7,2.2,4.2,4,7,5.1l10.9,4.2c2.9,1.1,5.9,1.4,8.6,0.9c2.5-0.3,4.8-1.4,6.4-3.2c6,2.1,12.6-0.9,14.9-6.9l3.3-8.7
		C56.2,42.8,53.3,36.2,47.6,33.7z M26.1,63.1L8,56.2c-0.8-0.3-1.5-0.8-2.1-1.4C4.5,53,4,51.1,4.6,49.4l10.2-26.7
		c1.6-1.7,4.2-2.3,6.5-1.4l18.1,6.9c2.3,0.9,3.8,3,3.9,5.4L33.1,60.2c-0.6,1.7-2.3,2.8-4.5,3.2C27.8,63.5,26.9,63.4,26.1,63.1z
		 M31.6,5l10.9,4.2c3.1,1.2,6.3,0.9,8.7,0.7c0.3,0,0.7-0.1,1.1-0.1l-6.9,18.1c-1.1-1.5-2.7-2.8-4.6-3.5l-18.1-6.9
		c-1.9-0.7-3.9-0.8-5.8-0.4l3.6-9.5C21.8,4.3,26.8,3.2,31.6,5z M46.8,55.9c-1.4,3.6-5.2,5.6-8.9,4.7l8.7-22.8
		c3.3,1.8,4.9,5.8,3.5,9.4L46.8,55.9z"/>
	<path style="fill:#05232E;" d="M16.8,32.3c-2,5.1-4,10.2-5.9,15.4c0,0.1-0.1,0.2-0.1,0.2c-0.8,2,2.3,3.2,3.1,1.2
		c1-2.6,2-5.1,2.9-7.7c1-2.6,2-5.3,3-7.9C20.6,31.5,17.5,30.3,16.8,32.3z"/>
	<path style="fill:#05232E;" d="M24.6,35.2c-2,5.1-4,10.2-5.9,15.4c0,0.1-0.1,0.2-0.1,0.2c-0.8,2,2.3,3.2,3.1,1.2
		c1-2.6,2-5.1,2.9-7.7c1-2.6,2-5.3,3-7.9C28.4,34.4,25.3,33.3,24.6,35.2z"/>
	<path style="fill:#05232E;" d="M32.3,38.2c-2,5.1-4,10.2-5.9,15.4c0,0.1-0.1,0.2-0.1,0.2c-0.8,2,2.3,3.2,3.1,1.2
		c1-2.6,2-5.1,2.9-7.7c1-2.6,2-5.3,3-7.9C36.2,37.4,33.1,36.2,32.3,38.2z"/>
</g>
</svg>
