<svg version="1.1" id="Layer_1" xmlns="http://www.w3.org/2000/svg" xmlns:xlink="http://www.w3.org/1999/xlink" x="0px" y="0px"
	 width="1075.8px" height="3.5px" viewBox="0 0 1075.8 3.5" style="enable-background:new 0 0 1075.8 3.5;" xml:space="preserve" preserveAspectRatio="none">
<g>
	<g>
		<g>
			
				<rect x="363" y="1.3" transform="matrix(1 -1.974866e-03 1.974866e-03 1 -3.019680e-03 0.8589)" style="fill:#AB6F60;" width="143.9" height="1.4"/>
			
				<rect x="516.8" y="1.1" transform="matrix(1 -1.974323e-03 1.974323e-03 1 -2.498616e-03 1.0344)" style="fill:#AB6F60;" width="14.2" height="1.4"/>
			
				<rect x="1010.7" y="0.1" transform="matrix(1 -1.975160e-03 1.975160e-03 1 4.407146e-04 2.0273)" style="fill:#AB6F60;" width="31.3" height="1.4"/>
			
				<rect x="1068.8" y="0" transform="matrix(1 -1.975089e-03 1.975089e-03 1 7.094892e-04 2.118)" style="fill:#AB6F60;" width="7" height="1.4"/>
			
				<rect x="32.9" y="1.8" transform="matrix(1 -1.974812e-03 1.974812e-03 1 -4.484346e-03 0.3644)" style="fill:#AB6F60;" width="303.2" height="1.4"/>
			
				<rect x="557.8" y="0.6" transform="matrix(1 -1.974804e-03 1.974804e-03 1 -1.054337e-03 1.5223)" style="fill:#AB6F60;" width="426.1" height="1.4"/>
			<path style="fill:#AB6F60;" d="M1000.8,0.8c0,0.4-1.5,0.7-3.5,0.7c-1.9,0-3.5-0.3-3.5-0.7c0-0.4,1.5-0.7,3.5-0.7
				C999.3,0.2,1000.8,0.5,1000.8,0.8z"/>
			<path style="fill:#AB6F60;" d="M1058.9,0.7c0,0.4-1.5,0.7-3.5,0.7c-1.9,0-3.5-0.3-3.5-0.7c0-0.4,1.5-0.7,3.5-0.7
				C1057.3,0,1058.9,0.3,1058.9,0.7z"/>
			<path style="fill:#AB6F60;" d="M353,2.1c0,0.4-1.5,0.7-3.5,0.7c-1.9,0-3.5-0.3-3.5-0.7c0-0.4,1.5-0.7,3.5-0.7
				C351.5,1.4,353,1.7,353,2.1z"/>
			
				<ellipse transform="matrix(1 -1.974234e-03 1.974234e-03 1 -2.378680e-03 1.0748)" style="fill:#AB6F60;" cx="544.4" cy="1.7" rx="3.5" ry="0.7"/>
			
				<ellipse transform="matrix(1 -1.975844e-03 1.975844e-03 1 -5.452443e-03 3.857724e-02)" style="fill:#AB6F60;" cx="19.5" cy="2.8" rx="3.5" ry="0.7"/>
		</g>
		
			<rect x="0" y="2.1" transform="matrix(1 -1.974635e-03 1.974635e-03 1 -5.516354e-03 1.586065e-02)" style="fill:#AB6F60;" width="16.1" height="1.4"/>
	</g>
</g>
</svg>
