<?xml version="1.0" encoding="utf-8"?>
<!-- Generator: Adobe Illustrator 23.1.0, SVG Export Plug-In . SVG Version: 6.00 Build 0)  -->
<svg version="1.1" id="Layer_1" xmlns="http://www.w3.org/2000/svg" xmlns:xlink="http://www.w3.org/1999/xlink" x="0px" y="0px"
	 width="661px" height="216.1px" viewBox="0 0 661 216.1" style="enable-background:new 0 0 661 216.1;" xml:space="preserve" preserveAspectRatio="none">
<polygon style="fill:#4E8185;" points="661,211.2 15.4,202.2 28.8,28.5 644.3,22.8 "/>
<polygon style="fill:#6C9FA5;" points="657.8,208.5 12.2,199.5 25.7,25.8 641.1,20.2 "/>
<g>
	<g>
		<g>
			<g>
				
					<rect x="453.7" y="151.8" transform="matrix(1.173924e-02 -0.9999 0.9999 1.173924e-02 235.1261 664.9472)" style="fill:#082831;" width="0.6" height="123.5"/>
				
					<rect x="377.3" y="206.5" transform="matrix(1.173993e-02 -0.9999 0.9999 1.173993e-02 160.5452 587.6924)" style="fill:#082831;" width="0.6" height="12.2"/>
				
					<rect x="-2.3" y="148.8" transform="matrix(8.902430e-02 -0.996 0.996 8.902430e-02 -138.3333 146.8914)" style="fill:#082831;" width="26.8" height="0.6"/>
				
					<rect x="11.6" y="109.5" transform="matrix(8.902527e-02 -0.996 0.996 8.902527e-02 -96.0117 114.6056)" style="fill:#082831;" width="6" height="0.6"/>
				<polygon style="fill:#082831;" points="538.7,214.2 651.2,215.5 640.5,68.8 641.1,68.8 651.8,216.1 538.7,214.8 				"/>
				<polygon style="fill:#082831;" points="8.2,185.4 6.2,208 348.5,212 348.5,212.6 5.5,208.5 7.6,185.3 				"/>
				<path style="fill:#082831;" d="M9.2,170.9c0.2,0,0.2,1.4,0,3c-0.1,1.6-0.4,2.9-0.6,2.9c-0.2,0-0.2-1.4,0-3
					C8.8,172.2,9,170.9,9.2,170.9z"/>
				<path style="fill:#082831;" d="M13.6,121.3c0.2,0,0.2,1.4,0,3s-0.4,2.9-0.6,2.9c-0.2,0-0.2-1.4,0-3
					C13.2,122.6,13.5,121.3,13.6,121.3z"/>
				<path style="fill:#082831;" d="M524.3,214.3c0-0.2,1.3-0.3,3-0.3c1.6,0,3,0.2,3,0.3c0,0.2-1.3,0.3-3,0.3
					C525.6,214.7,524.3,214.5,524.3,214.3z"/>
				<path style="fill:#082831;" d="M357,212.4c0-0.2,1.3-0.3,3-0.3c1.6,0,3,0.2,3,0.3c0,0.2-1.3,0.3-3,0.3
					C358.4,212.7,357,212.5,357,212.4z"/>
				<path style="fill:#082831;" d="M640.2,60.3c-0.2,0-0.4-1.3-0.5-2.9s-0.1-3,0.1-3c0.2,0,0.4,1.3,0.5,2.9S640.3,60.3,640.2,60.3z"
					/>
			</g>
			
				<rect x="639" y="40.6" transform="matrix(0.9974 -7.245030e-02 7.245030e-02 0.9974 -1.7591 46.4384)" style="fill:none;" width="0.6" height="13.8"/>
		</g>
	</g>
</g>
<polygon style="fill:#357280;" points="633.4,35.1 23.2,35.1 25.3,17.8 637,10 "/>
<g>
	<g>
		<g>
			<g>
				<rect x="362.6" y="37.7" style="fill:#082831;" width="83.7" height="0.4"/>
				<rect x="348.6" y="37.7" style="fill:#082831;" width="8.2" height="0.4"/>
				<rect x="51.6" y="37.7" style="fill:#082831;" width="18.2" height="0.4"/>
				<rect x="31.9" y="37.7" style="fill:#082831;" width="4.1" height="0.4"/>
				<polygon style="fill:#082831;" points="461.9,37.7 636,37.7 636.3,35.9 636.7,35.9 636.4,38.1 461.9,38.1 				"/>
				<rect x="85.3" y="37.7" style="fill:#082831;" width="247.7" height="0.4"/>
				<ellipse style="fill:#082831;" cx="77.5" cy="37.9" rx="2" ry="0.2"/>
				<ellipse style="fill:#082831;" cx="43.8" cy="37.9" rx="2" ry="0.2"/>
				<ellipse style="fill:#082831;" cx="454.1" cy="37.9" rx="2" ry="0.2"/>
				<ellipse style="fill:#082831;" cx="340.8" cy="37.9" rx="2" ry="0.2"/>
				<path style="fill:#082831;" d="M637.3,30.2c-0.1,0-0.1-0.9,0.1-2c0.2-1.1,0.4-2,0.5-2c0.1,0,0.1,0.9-0.1,2
					C637.6,29.3,637.4,30.2,637.3,30.2z"/>
			</g>
			
				<rect x="633.8" y="21.4" transform="matrix(0.1397 -0.9902 0.9902 0.1397 527.9604 650.8181)" style="fill:none;" width="9.3" height="0.4"/>
		</g>
	</g>
</g>
</svg>
