<svg version="1.1" id="Layer_1" xmlns="http://www.w3.org/2000/svg" xmlns:xlink="http://www.w3.org/1999/xlink" x="0px" y="0px"
	 width="1100.7px" height="3.6px" viewBox="0 0 1100.7 3.6" style="enable-background:new 0 0 1100.7 3.6;" xml:space="preserve" preserveAspectRatio="none">
<g>
	<g>
		<g>
			
				<rect x="371.3" y="1.3" transform="matrix(1 -1.974866e-03 1.974866e-03 1 -3.089505e-03 0.8788)" style="fill:#714C14;" width="147.3" height="1.4"/>
			
				<rect x="528.8" y="1.1" transform="matrix(1 -1.974323e-03 1.974323e-03 1 -2.556393e-03 1.0583)" style="fill:#714C14;" width="14.5" height="1.4"/>
			
				<rect x="1034.1" y="0.1" transform="matrix(1 -1.975160e-03 1.975160e-03 1 4.509055e-04 2.0741)" style="fill:#714C14;" width="32" height="1.4"/>
			
				<rect x="1093.5" y="0" transform="matrix(1 -1.975089e-03 1.975089e-03 1 7.258950e-04 2.1669)" style="fill:#714C14;" width="7.2" height="1.4"/>
			
				<rect x="33.7" y="1.8" transform="matrix(1 -1.974812e-03 1.974812e-03 1 -4.588040e-03 0.3728)" style="fill:#714C14;" width="310.2" height="1.4"/>
			
				<rect x="570.7" y="0.6" transform="matrix(1 -1.974804e-03 1.974804e-03 1 -1.078716e-03 1.5575)" style="fill:#714C14;" width="436" height="1.4"/>
			<path style="fill:#714C14;" d="M1023.9,0.9c0,0.4-1.6,0.7-3.5,0.7c-2,0-3.5-0.3-3.5-0.7s1.6-0.7,3.5-0.7
				C1022.4,0.2,1023.9,0.5,1023.9,0.9z"/>
			<path style="fill:#714C14;" d="M1083.4,0.7c0,0.4-1.6,0.7-3.5,0.7c-2,0-3.5-0.3-3.5-0.7c0-0.4,1.6-0.7,3.5-0.7
				C1081.8,0,1083.4,0.4,1083.4,0.7z"/>
			<path style="fill:#714C14;" d="M361.2,2.2c0,0.4-1.6,0.7-3.5,0.7c-2,0-3.5-0.3-3.5-0.7c0-0.4,1.6-0.7,3.5-0.7
				C359.6,1.5,361.2,1.8,361.2,2.2z"/>
			
				<ellipse transform="matrix(1 -1.974234e-03 1.974234e-03 1 -2.433683e-03 1.0997)" style="fill:#714C14;" cx="557" cy="1.8" rx="3.5" ry="0.7"/>
			
				<ellipse transform="matrix(1 -1.975844e-03 1.975844e-03 1 -5.578522e-03 3.946928e-02)" style="fill:#714C14;" cx="20" cy="2.8" rx="3.5" ry="0.7"/>
		</g>
		
			<rect x="0" y="2.2" transform="matrix(1 -1.974635e-03 1.974635e-03 1 -5.643911e-03 1.622740e-02)" style="fill:#714C14;" width="16.4" height="1.4"/>
	</g>
</g>
</svg>
