<svg version="1.1" id="Layer_1" xmlns="http://www.w3.org/2000/svg" xmlns:xlink="http://www.w3.org/1999/xlink" x="0px" y="0px"
	 width="3.9px" height="601.9px" viewBox="0 0 3.9 601.9" style="enable-background:new 0 0 3.9 601.9;" xml:space="preserve" preserveAspectRatio="none">
<g>
	<g>
		<g>
			<polygon style="fill:#152F1D;" points="2.2,318.3 2.7,398.8 2.3,398.8 1.8,318.3 			"/>
			<polygon style="fill:#152F1D;" points="2.2,304.8 2.2,312.7 1.8,312.7 1.7,304.8 			"/>
			<polygon style="fill:#152F1D;" points="0.5,18.9 0.6,36.4 0.2,36.4 0.1,18.9 			"/>
			<polygon style="fill:#152F1D;" points="0.4,0 0.5,3.9 0,3.9 0,0 			"/>
			<polygon style="fill:#152F1D;" points="2.8,413.8 3.8,583.4 3.3,583.4 2.4,413.8 			"/>
			<polygon style="fill:#152F1D;" points="0.7,51.4 2.1,289.8 1.6,289.8 0.3,51.4 			"/>
			<path style="fill:#152F1D;" d="M0.5,42c0.1,0,0.2,0.9,0.2,1.9c0,1.1-0.1,1.9-0.2,1.9c-0.1,0-0.2-0.9-0.2-1.9
				C0.2,42.9,0.3,42,0.5,42z"/>
			<path style="fill:#152F1D;" d="M0.3,9.5c0.1,0,0.2,0.9,0.2,1.9c0,1.1-0.1,1.9-0.2,1.9c-0.1,0-0.2-0.9-0.2-1.9
				C0.1,10.4,0.2,9.5,0.3,9.5z"/>
			<path style="fill:#152F1D;" d="M2.5,404.4c0.1,0,0.2,0.9,0.2,1.9c0,1.1-0.1,1.9-0.2,1.9c-0.1,0-0.2-0.9-0.2-1.9
				C2.3,405.2,2.4,404.4,2.5,404.4z"/>
			<path style="fill:#152F1D;" d="M1.9,295.4c0.1,0,0.2,0.9,0.2,1.9c0,1.1-0.1,1.9-0.2,1.9s-0.2-0.9-0.2-1.9
				C1.7,296.2,1.8,295.4,1.9,295.4z"/>
			<path style="fill:#152F1D;" d="M3.6,589c0.1,0,0.2,0.9,0.2,1.9c0,1.1-0.1,1.9-0.2,1.9c-0.1,0-0.2-0.9-0.2-1.9
				C3.4,589.9,3.4,589,3.6,589z"/>
		</g>
		<polygon style="fill:#152F1D;" points="3.9,601.9 3.8,592.9 3.4,592.9 3.4,601.9 		"/>
	</g>
</g>
</svg>
