<svg version="1.1" id="Layer_1" xmlns="http://www.w3.org/2000/svg" xmlns:xlink="http://www.w3.org/1999/xlink" x="0px" y="0px"
	 width="656.4px" height="203.1px" viewBox="0 0 656.4 203.1" style="enable-background:new 0 0 656.4 203.1;" xml:space="preserve"
	 preserveAspectRatio="none">
<polygon style="fill:#AE95AE;" points="648.5,197.2 6.9,199.8 26.9,18.4 656.4,20 "/>
<polygon style="fill:#D0AFCD;" points="645.3,194.5 3.7,197.2 23.7,15.8 653.2,17.4 "/>
<g>
	<g>
		<g>
			
				<rect x="335.9" y="200.8" transform="matrix(1 -4.129243e-03 4.129243e-03 1 -0.8271 1.6433)" style="fill:#291328;" width="123.3" height="0.6"/>
			
				<rect x="315.2" y="201.1" transform="matrix(1 -4.115935e-03 4.115935e-03 1 -0.8264 1.3242)" style="fill:#291328;" width="12.1" height="0.6"/>
			
				<rect x="-1.1" y="93.8" transform="matrix(0.1095 -0.994 0.994 0.1095 -82.5197 95.9832)" style="fill:#291328;" width="26.8" height="0.6"/>
			
				<rect x="13.6" y="54.6" transform="matrix(0.1095 -0.994 0.994 0.1095 -39.7935 65.4291)" style="fill:#291328;" width="6" height="0.6"/>
			<polygon style="fill:#291328;" points="482.2,200.5 641.6,199.8 646.1,100.3 646.7,100.3 642.2,200.4 482.2,201.1 			"/>
			<polygon style="fill:#291328;" points="8.6,130.2 0.7,202.5 292.3,201.3 292.3,201.9 0,203.1 8,130.2 			"/>
			<path style="fill:#291328;" d="M9.9,115.8c0.2,0,0.1,1.4,0,3c-0.2,1.6-0.5,2.9-0.6,2.9c-0.2,0-0.1-1.4,0-3
				C9.5,117.1,9.7,115.8,9.9,115.8z"/>
			<path style="fill:#291328;" d="M15.4,66.4c0.2,0,0.1,1.4,0,3c-0.2,1.6-0.5,2.9-0.6,2.9c-0.2,0-0.1-1.4,0-3
				C14.9,67.7,15.2,66.4,15.4,66.4z"/>
			<path style="fill:#291328;" d="M467.7,200.8c0-0.2,1.3-0.3,3-0.3c1.6,0,3,0.1,3,0.3c0,0.2-1.3,0.3-3,0.3
				C469,201.1,467.7,201,467.7,200.8z"/>
			<path style="fill:#291328;" d="M300.8,201.5c0-0.2,1.3-0.3,3-0.3c1.6,0,3,0.1,3,0.3c0,0.2-1.3,0.3-3,0.3
				C302.1,201.8,300.8,201.7,300.8,201.5z"/>
			<path style="fill:#291328;" d="M646.7,91.8c-0.2,0-0.2-1.3-0.2-3c0.1-1.6,0.3-3,0.4-3c0.2,0,0.2,1.3,0.2,3
				C647.1,90.5,646.9,91.8,646.7,91.8z"/>
		</g>
		
			<rect x="640.4" y="78.7" transform="matrix(4.425550e-02 -0.999 0.999 4.425550e-02 539.7487 722.1506)" style="fill:#291328;" width="13.8" height="0.6"/>
	</g>
</g>
<polygon style="fill:#B373A8;" points="631.5,25.1 21.2,25.1 23.3,7.8 635,0 "/>
<g>
	<g>
		<rect x="355.8" y="26.5" style="fill:#291328;" width="83.7" height="0.8"/>
		<rect x="341.7" y="26.5" style="fill:#291328;" width="8.2" height="0.8"/>
		<rect x="44.7" y="26.5" style="fill:#291328;" width="18.2" height="0.8"/>
		<rect x="25" y="26.5" style="fill:#291328;" width="4.1" height="0.8"/>
		<polygon style="fill:#291328;" points="455,26.5 629,26.5 629.2,24.9 630,25 629.7,27.3 455,27.3 		"/>
		<rect x="78.4" y="26.5" style="fill:#291328;" width="247.7" height="0.8"/>
		<ellipse style="fill:#291328;" cx="70.6" cy="26.9" rx="2" ry="0.4"/>
		<ellipse style="fill:#291328;" cx="36.9" cy="26.9" rx="2" ry="0.4"/>
		<path style="fill:#291328;" d="M445.2,26.9c0-0.2,0.9-0.4,2-0.4c1.1,0,2,0.2,2,0.4c0,0.2-0.9,0.4-2,0.4
			C446.1,27.3,445.2,27.1,445.2,26.9z"/>
		<path style="fill:#291328;" d="M331.9,26.9c0-0.2,0.9-0.4,2-0.4s2,0.2,2,0.4c0,0.2-0.9,0.4-2,0.4S331.9,27.1,331.9,26.9z"/>
		<path style="fill:#291328;" d="M630.4,19.2c-0.2,0-0.3-0.9-0.1-2c0.2-1.1,0.5-2,0.7-1.9c0.2,0,0.3,0.9,0.1,2
			C630.9,18.4,630.6,19.2,630.4,19.2z"/>
	</g>
	
		<rect x="627" y="10.2" transform="matrix(0.1397 -0.9902 0.9902 0.1397 532.9201 634.5615)" style="fill:#291328;" width="9.3" height="0.8"/>
</g>
</svg>
