<svg version="1.1" id="Layer_1" xmlns="http://www.w3.org/2000/svg" xmlns:xlink="http://www.w3.org/1999/xlink" x="0px" y="0px"
	 width="1216.6px" height="378.3px" viewBox="0 0 1216.6 378.3" style="enable-background:new 0 0 1216.6 378.3;"
	 xml:space="preserve" preserveAspectRatio="none">
<g>
	<g>
		<g>
			
				<rect x="628" y="374.2" transform="matrix(1 -4.129243e-03 4.129243e-03 1 -1.5412 3.064)" style="fill:#2A1228;" width="226.4" height="1.1"/>
			
				<rect x="590.1" y="374.8" transform="matrix(1 -4.115935e-03 4.115935e-03 1 -1.5399 2.4778)" style="fill:#2A1228;" width="22.3" height="1.1"/>
			
				<rect x="9.1" y="177.6" transform="matrix(0.1095 -0.994 0.994 0.1095 -147.0643 192.0385)" style="fill:#2A1228;" width="49.2" height="1.1"/>
			
				<rect x="36.1" y="105.7" transform="matrix(0.1095 -0.994 0.994 0.1095 -68.584 135.9163)" style="fill:#2A1228;" width="11" height="1.1"/>
			<polygon style="fill:#2A1228;" points="896.7,373.6 1189.6,372.4 1197.7,189.5 1198.8,189.6 1190.7,373.5 896.7,374.7 			"/>
			<polygon style="fill:#2A1228;" points="26.9,244.5 12.3,377.2 547.9,375 547.9,376.1 11,378.3 25.8,244.4 			"/>
			<path style="fill:#2A1228;" d="M29.2,218.1c0.3,0,0.3,2.5-0.1,5.5c-0.3,3-0.8,5.4-1.1,5.4c-0.3,0-0.3-2.5,0.1-5.5
				C28.4,220.5,28.9,218.1,29.2,218.1z"/>
			<path style="fill:#2A1228;" d="M39.2,127.3c0.3,0,0.3,2.5-0.1,5.5c-0.3,3-0.8,5.4-1.1,5.4c-0.3,0-0.3-2.5,0.1-5.5
				C38.4,129.6,38.9,127.2,39.2,127.3z"/>
			<path style="fill:#2A1228;" d="M870.1,374.2c0-0.3,2.4-0.6,5.4-0.6c3,0,5.5,0.2,5.5,0.5c0,0.3-2.4,0.6-5.4,0.6
				C872.6,374.8,870.1,374.6,870.1,374.2z"/>
			<path style="fill:#2A1228;" d="M563.5,375.5c0-0.3,2.4-0.6,5.4-0.6c3,0,5.5,0.2,5.5,0.5c0,0.3-2.4,0.6-5.4,0.6
				C566,376.1,563.5,375.8,563.5,375.5z"/>
			<path style="fill:#2A1228;" d="M1199,173.9c-0.3,0-0.4-2.5-0.3-5.5c0.1-3,0.5-5.4,0.8-5.4c0.3,0,0.4,2.5,0.3,5.5
				C1199.6,171.5,1199.3,173.9,1199,173.9z"/>
		</g>
		
			<rect x="1187.4" y="149.9" transform="matrix(4.425550e-02 -0.999 0.999 4.425550e-02 996.6226 1342.5989)" style="fill:#2A1228;" width="25.3" height="1.1"/>
	</g>
</g>
<g>
	<g>
		<rect x="664.5" y="54" style="fill:#2A1228;" width="153.7" height="1.4"/>
		<rect x="638.8" y="54" style="fill:#2A1228;" width="15.1" height="1.4"/>
		<rect x="93.1" y="54" style="fill:#2A1228;" width="33.4" height="1.4"/>
		<rect x="57" y="54" style="fill:#2A1228;" width="7.5" height="1.4"/>
		<polygon style="fill:#2A1228;" points="846.9,54 1166.4,54 1166.8,51.1 1168.2,51.3 1167.6,55.5 846.9,55.5 		"/>
		<rect x="155.1" y="54" style="fill:#2A1228;" width="455" height="1.4"/>
		<ellipse style="fill:#2A1228;" cx="140.8" cy="54.7" rx="3.7" ry="0.7"/>
		<ellipse style="fill:#2A1228;" cx="78.8" cy="54.7" rx="3.7" ry="0.7"/>
		<path style="fill:#2A1228;" d="M828.8,54.7c0-0.4,1.7-0.7,3.7-0.7c2,0,3.7,0.3,3.7,0.7c0,0.4-1.7,0.7-3.7,0.7
			C830.5,55.5,828.8,55.1,828.8,54.7z"/>
		<path style="fill:#2A1228;" d="M620.7,54.7c0-0.4,1.7-0.7,3.7-0.7s3.7,0.3,3.7,0.7c0,0.4-1.7,0.7-3.7,0.7S620.7,55.1,620.7,54.7z"
			/>
		<path style="fill:#2A1228;" d="M1169,40.6c-0.4-0.1-0.5-1.7-0.2-3.8c0.3-2,0.8-3.6,1.2-3.6s0.5,1.7,0.2,3.8
			C1169.9,39.1,1169.4,40.7,1169,40.6z"/>
	</g>
	
		<rect x="1162.7" y="24.1" transform="matrix(0.1397 -0.9902 0.9902 0.1397 983.074 1181.1056)" style="fill:#2A1228;" width="17.1" height="1.4"/>
</g>
</svg>
