<svg version="1.1" id="Layer_1" xmlns="http://www.w3.org/2000/svg" xmlns:xlink="http://www.w3.org/1999/xlink" x="0px" y="0px"
	 width="643.9px" height="404.8px" viewBox="0 0 643.9 404.8" style="enable-background:new 0 0 643.9 404.8;" xml:space="preserve"
	 preserveAspectRatio="none">
<polygon style="fill:#92AE96;" points="640.3,384.7 3.8,398.9 9.2,24 625.6,18.9 "/>
<polygon style="fill:#B3D7BC;" points="636.5,380.3 0,394.6 5.4,19.6 621.8,14.6 "/>
<rect x="385.9" y="392.8" transform="matrix(0.9997 -2.240459e-02 2.240459e-02 0.9997 -8.7009 10.6381)" style="fill:#152F1D;" width="169" height="1.6"/>
<rect x="-8.4" y="172.8" transform="matrix(1.441574e-02 -0.9999 0.9999 1.441574e-02 -163.845 181.0519)" style="fill:#152F1D;" width="36.7" height="1.6"/>
<rect x="6.6" y="118.9" transform="matrix(1.441521e-02 -0.9999 0.9999 1.441521e-02 -109.1437 128.6668)" style="fill:#152F1D;" width="8.2" height="1.6"/>
<polygon style="fill:#152F1D;" points="586.3,390.2 642.2,389 630.3,90.8 631.9,90.8 643.9,390.5 586.4,391.8 "/>
<polygon style="fill:#152F1D;" points="10,223.5 7.4,403.2 326.1,396 326.2,397.7 5.8,404.8 8.4,223.5 "/>
<path style="fill:#152F1D;" d="M9.5,203.7c0.4,0,0.8,1.8,0.8,4.1c0,2.2-0.4,4.1-0.9,4.1c-0.4,0-0.8-1.8-0.8-4.1
	C8.6,205.5,9,203.7,9.5,203.7z"/>
<path style="fill:#152F1D;" d="M10.5,135.5c0.4,0,0.8,1.8,0.8,4.1c0,2.2-0.4,4.1-0.9,4.1c-0.4,0-0.8-1.8-0.8-4.1
	C9.6,137.3,10,135.5,10.5,135.5z"/>
<path style="fill:#152F1D;" d="M566.5,391.5c0-0.4,1.8-0.9,4-0.9c2.2-0.1,4.1,0.3,4.1,0.7c0,0.4-1.8,0.9-4,0.9
	C568.4,392.2,566.6,391.9,566.5,391.5z"/>
<path style="fill:#152F1D;" d="M630.6,79.1c-0.4,0-0.9-1.8-1-4c-0.1-2.2,0.2-4.1,0.6-4.1c0.4,0,0.9,1.8,1,4
	C631.4,77.3,631.1,79.1,630.6,79.1z"/>
<rect x="629.1" y="52.2" transform="matrix(0.9992 -4.003929e-02 4.003929e-02 0.9992 -1.9614 25.2719)" style="fill:#152F1D;" width="1.6" height="18.8"/>
<polygon style="fill:#5AAC71;" points="625.5,25.5 4.1,25.5 6.3,7.9 629.1,0 "/>
<g>
	<g>
		<rect x="350.1" y="21.6" style="fill:#152F1D;" width="85.2" height="0.8"/>
		<rect x="335.8" y="21.6" style="fill:#152F1D;" width="8.4" height="0.8"/>
		<rect x="33.3" y="21.6" style="fill:#152F1D;" width="18.5" height="0.8"/>
		<rect x="13.2" y="21.6" style="fill:#152F1D;" width="4.1" height="0.8"/>
		<polygon style="fill:#152F1D;" points="451.1,21.6 628.3,21.6 628.5,19.9 629.3,20 629,22.4 451.1,22.4 		"/>
		<rect x="67.7" y="21.6" style="fill:#152F1D;" width="252.2" height="0.8"/>
		<ellipse style="fill:#152F1D;" cx="59.7" cy="22" rx="2.1" ry="0.4"/>
		<ellipse style="fill:#152F1D;" cx="25.3" cy="22" rx="2.1" ry="0.4"/>
		<path style="fill:#152F1D;" d="M441.2,22c0-0.2,0.9-0.4,2.1-0.4c1.1,0,2.1,0.2,2.1,0.4c0,0.2-0.9,0.4-2.1,0.4
			C442.1,22.4,441.2,22.2,441.2,22z"/>
		<path style="fill:#152F1D;" d="M325.8,22c0-0.2,0.9-0.4,2.1-0.4c1.1,0,2.1,0.2,2.1,0.4c0,0.2-0.9,0.4-2.1,0.4
			C326.7,22.4,325.8,22.2,325.8,22z"/>
		<path style="fill:#152F1D;" d="M629.7,14.2c-0.2,0-0.3-1-0.1-2.1c0.2-1.1,0.5-2,0.7-2s0.3,1,0.1,2.1
			C630.3,13.3,630,14.2,629.7,14.2z"/>
	</g>
	
		<rect x="626.2" y="5" transform="matrix(0.1397 -0.9902 0.9902 0.1397 537.5186 629.4294)" style="fill:#152F1D;" width="9.5" height="0.8"/>
</g>
</svg>
