<svg version="1.1" id="Layer_1" xmlns="http://www.w3.org/2000/svg" xmlns:xlink="http://www.w3.org/1999/xlink" x="0px" y="0px"
	 width="164.6px" height="156.8px" viewBox="0 0 164.6 156.8" style="enable-background:new 0 0 164.6 156.8;" xml:space="preserve"
	>
<g>
	<path style="fill:#71471A;" d="M3.9,34.9c-1.3-2.4-0.5-5,1.2-7c1.9-2.3,4.7-3.4,7.7-3.4c3.5,0,6.9,1.4,10.1,2.8
		c3.4,1.5,6.6,3.3,10.2,4.5c3.4,1.1,7,1.7,10.5,0.9c3-0.7,5.7-2.1,8-4.1c4.7-3.9,8.1-9.2,12.2-13.8c5.2-5.7,12.1-9.9,19.6-11.6
		c-0.6-0.8-1.1-1.5-1.7-2.3c-2.2,4.9-2.6,10.4-1.2,15.6c0.6,2.4,1.8,5,4.2,5.9c2.1,0.8,4.4,0.4,6.3-0.7c2.1-1.1,3.7-2.8,5-4.7
		c1.2-1.8,2.4-3.8,4.1-5.2c0.7-0.6,1.6-1.1,2.5-1.3c-0.3,0.1,0.2,0,0.3,0c0.2,0,0.4-0.1,0.6-0.1c0.2,0,0.3,0,0.5,0c0.3,0,0.1,0,0,0
		c0.1,0,0.2,0,0.3,0c0.4,0,0.7,0.1,1.1,0.2c0.5,0.1,0.3,0.1,0.8,0.2c0.8,0.3,1.5,0.6,2.2,1c0.5,0.3,1.2,0.7,1.9,1.2
		c0.7,0.5,1.4,1,2.1,1.5c1.4,1,2.8,2,4.3,2.9c3.1,1.9,6.6,3,10.2,1.8c4.4-1.5,6.7-5.9,9.5-9.3c1.1-1.4,2.6-2.4,4.2-3.1
		c1.5-0.6,3-0.8,4.3-0.2c0.1,0,0.4,0.3,0.6,0.4c0.2,0.2,0.5,0.7,0.7,1c0.4,1.1,0.4,2.3,0.6,3.4c0.3,2.5,1.2,4.8,3.5,6.1
		c1.9,1,4.3,1,6.3,0.4c2.4-0.7,4.3-2.6,5.7-4.5c0.7-1,1.4-2,2.1-3.1c0.5-0.8,0.5-1.7-0.3-2.3c-0.6-0.5-1.8-0.5-2.3,0.3
		c-2,3.2-4.9,7.8-9.3,6.6c-1.8-0.5-2.3-2.1-2.5-4c-0.2-2.4-0.5-4.8-2.4-6.5c-2.9-2.7-7.5-1.4-10.5,0.5c-3.5,2.2-5.3,6.2-8.2,9
		c-1.3,1.3-2.8,2.2-4.6,2.4c-0.2,0-0.4,0-0.6,0c-0.2,0,0,0,0,0c-0.1,0-0.2,0-0.2,0c-0.4,0-0.8-0.1-1.1-0.1c-0.7-0.1-1.1-0.3-1.9-0.6
		c-1.5-0.7-2.6-1.4-4-2.3c-1.3-0.9-2.6-2-4-2.9c-2.7-1.9-5.6-3.5-9-3.4c-4.5,0.2-7.2,3.9-9.5,7.3c-1.1,1.7-2.3,3.3-4.1,4.3
		c-1.4,0.8-3.2,1.3-4.5,0.3c-0.8-0.7-1.2-1.7-1.5-2.7c-0.4-1.1-0.6-2.3-0.7-3.4c-0.3-2.4-0.2-4.9,0.4-7.3c0.3-1.1,0.7-2.3,1.2-3.3
		c0.5-1-0.5-2.6-1.7-2.3C75.8,1.7,69,5.2,63.6,10.4c-4.7,4.4-8,10.1-12.7,14.5c-2.1,2-4.5,3.7-7.4,4.5c-3.3,1-6.8,0.4-10-0.8
		c-7.1-2.5-13.6-7.5-21.6-7.3c-3.8,0.1-7.4,1.9-9.7,4.9c-2.2,2.8-3.1,6.7-1.4,9.9C1.3,37,2.2,37.5,3,37.1
		C3.8,36.8,4.4,35.7,3.9,34.9L3.9,34.9z"/>
</g>
<g>
	<path style="fill:#71471A;" d="M73.9,85.4c-2.8,2.8-5.6,5.6-8.4,8.4c-0.3,0.3-0.6,0.6-0.9,0.9c-1.2,1.2,0.7,3.1,1.9,1.9
		c2.4-2.4,4.8-4.8,7.2-7.2c0.7-0.7,1.4-1.4,2.1-2.1C77,86.1,75.1,84.2,73.9,85.4z"/>
	<path style="fill:#71471A;" d="M72.2,75.3c1.7,0,1.7-2.6,0-2.6c-4,0-7.9,0-11.9,0c-0.4,0-0.9,0-1.3,0c-1.7,0-1.7,2.6,0,2.6
		c3.4,0,6.8,0,10.3,0C70.2,75.3,71.2,75.3,72.2,75.3z"/>
	<path style="fill:#71471A;" d="M68.5,52.8c-0.7-0.7-1.4-1.4-2.1-2.1c-1.2-1.2-3.1,0.7-1.9,1.9c2.8,2.8,5.6,5.6,8.4,8.4
		c0.3,0.3,0.6,0.6,0.9,0.9c1.2,1.2,3.1-0.7,1.9-1.9C73.3,57.7,70.9,55.3,68.5,52.8z"/>
	<path style="fill:#71471A;" d="M130,95.7c0.3,0.3,0.6,0.6,0.9,0.9c1.2,1.2,3.1-0.7,1.9-1.9c-2.4-2.4-4.8-4.8-7.2-7.2
		c-0.7-0.7-1.4-1.4-2.1-2.1c-1.2-1.2-3.1,0.7-1.9,1.9C124.4,90.1,127.2,92.9,130,95.7z"/>
	<path style="fill:#71471A;" d="M125.2,72.7c-1.7,0-1.7,2.6,0,2.6c4,0,7.9,0,11.9,0c0.4,0,0.9,0,1.3,0c1.7,0,1.7-2.6,0-2.6
		c-3.4,0-6.8,0-10.3,0C127.1,72.7,126.1,72.7,125.2,72.7z"/>
	<path style="fill:#71471A;" d="M123.5,62c2.4-2.4,4.8-4.8,7.2-7.2c0.7-0.7,1.4-1.4,2.1-2.1c1.2-1.2-0.7-3.1-1.9-1.9
		c-2.8,2.8-5.6,5.6-8.4,8.4c-0.3,0.3-0.6,0.6-0.9,0.9C120.4,61.3,122.3,63.2,123.5,62z"/>
	<path style="fill:#71471A;" d="M146.2,149.1c0,0-0.1-0.1-0.1-0.1c-0.1-0.2-0.3-0.4-0.4-0.6c-0.8-1.2-1.7-2.5-2.5-3.7
		c-2.1-3-4.1-6-6.2-9c-3.8-5.6-7.6-11.1-11.5-16.7c-6.1-8.9-12.1-17.7-18.2-26.6c-0.8-1.2-1.7-2.5-2.5-3.7c1.5-6.7,3.1-13.3,4.6-20
		c1.4-0.6,2.4-1.9,2.8-3.4c0.2-0.7,0.3-1.4,0.5-2.1c0.2-0.9,0.4-1.9,0.6-2.8c0.3-1.3,0.2-2.7-0.4-3.9c-0.7-1.4-2.1-2.2-3.5-2.5
		c-1.3-0.3-2.6-0.6-3.9-0.3c-1.7,0.5-3.1,1.9-3.5,3.7c-0.2,0.7-0.3,1.4-0.5,2c-0.2,1-0.5,2-0.7,3c-0.4,1.6,0,3.3,1,4.5
		c-1,4.3-2,8.6-3,12.9c-1-1.5-2.1-3-3.1-4.6c0.5-1.5,0.3-3.1-0.6-4.4c-0.5-0.7-0.9-1.3-1.4-2c-0.5-0.7-1-1.5-1.5-2.2
		c-0.8-1.2-2-2.1-3.4-2.3c-1.5-0.2-2.9,0.2-4.1,1c-1.1,0.8-2.2,1.5-2.8,2.9c-0.7,1.6-0.5,3.4,0.4,4.8c0.4,0.6,0.8,1.2,1.2,1.8
		c0.6,0.8,1.1,1.6,1.7,2.5c0.9,1.4,2.4,2.3,4,2.3c2.4,3.5,4.8,7,7.2,10.5c-2.2,9.7-4.4,19.4-6.7,29c-1.4,6.2-2.9,12.5-4.3,18.7
		c-0.8,3.5-1.6,6.9-2.4,10.4c-0.3,1.5-0.7,3-1,4.5c-0.1,0.3-0.2,0.7-0.2,1c0,0,0,0,0,0c-0.2,0.7,0.2,1.5,0.9,1.6
		c1.7,0.4,3.4,0.8,5,1.2c0.7,0.2,1.5-0.2,1.6-0.9c0.1-0.2,0.1-0.5,0.2-0.7c0.3-1.2,0.6-2.4,0.8-3.7c0.7-2.9,1.4-5.9,2-8.8
		c1.3-5.5,2.5-10.9,3.8-16.4c2-8.7,4-17.3,6-26c0.1-0.4,0.2-0.7,0.3-1.1c1.6,2.3,3.1,4.6,4.7,6.9c3,4.4,6,8.8,9.1,13.2
		c4.2,6.2,8.5,12.4,12.7,18.5c2.3,3.4,4.7,6.8,7,10.3c1,1.5,2,2.9,3,4.4c0.2,0.3,0.4,0.7,0.7,1c0,0,0,0,0,0c0.4,0.6,1.2,0.9,1.8,0.5
		c1.4-1,2.8-1.9,4.3-2.9C146.3,150.6,146.6,149.7,146.2,149.1z M89.9,77.2c-1,0.1-1.8-0.2-2.4-1c-0.4-0.6-0.8-1.2-1.2-1.8
		c-0.5-0.7-1-1.4-1.5-2.1c-0.1-0.2-0.2-0.3-0.3-0.5c-0.2-0.3-0.2-0.4-0.3-0.7c0-0.1-0.1-0.3-0.1-0.3c0,0,0-0.3,0-0.4
		c0-0.4,0.2-0.9,0.5-1.3c0.2-0.3,0.5-0.5,0.8-0.7c0.3-0.2,0.7-0.5,1-0.7c0.2-0.1,0.4-0.2,0.6-0.3c0,0,0.2-0.1,0.3-0.1
		c0.1,0,0.4-0.1,0.4-0.1c0.6-0.1,1,0,1.4,0.2c0.3,0.2,0.6,0.4,0.9,0.7c0.4,0.5,0.8,1.1,1.1,1.7c0.5,0.8,1.1,1.6,1.6,2.4
		c0.6,0.9,0.9,1.8,0.4,2.8c0,0,0,0.1-0.1,0.1c-0.2,0.4-0.2,0.8,0.1,1.2c0,0,0,0.1,0.1,0.1c0,0,0,0,0,0c1.6,2.4,3.2,4.7,4.9,7.1
		c-0.3,1.1-0.5,2.2-0.8,3.3c-2-3-4.1-6-6.1-9C90.8,77.5,90.4,77.1,89.9,77.2z M94.2,122.9c-1.3,5.8-2.7,11.6-4,17.4
		c-0.7,3.2-1.5,6.4-2.2,9.6c-0.3,1.3-0.6,2.6-0.9,3.9c-0.8-0.2-1.6-0.4-2.4-0.6c0.3-1.1,0.5-2.2,0.8-3.3c0.7-3.2,1.5-6.4,2.2-9.6
		c1.3-5.9,2.7-11.7,4-17.6c2.2-9.4,4.3-18.7,6.5-28.1c0.3-1.4,0.7-2.9,1-4.3c0.3-1.4,0.6-2.7,0.9-4.1c0.2-0.7,0.3-1.4,0.5-2.1
		c0.1-0.2,0.1-0.5,0.2-0.7c1.3-5.5,2.5-11,3.8-16.5c0.1-0.4,0-1-0.3-1.3c-0.8-0.7-1-1.5-0.8-2.5c0.2-0.7,0.3-1.4,0.5-2.2
		c0.2-0.8,0.4-1.7,0.6-2.5c0.1-0.2,0.1-0.4,0.2-0.7c0.1-0.4,0.5-0.9,0.8-1.1c0.8-0.6,1.5-0.6,2.5-0.3c1,0.2,1.8,0.4,2.4,1
		c0.1,0.1,0.3,0.4,0.4,0.6c0.1,0.1,0,0,0,0c0,0.1,0,0.1,0.1,0.2c0,0.1,0.1,0.4,0.1,0.3c0.1,0.4,0,0.6-0.1,1
		c-0.2,0.7-0.3,1.5-0.5,2.2c-0.2,0.9-0.4,1.8-0.6,2.6c-0.1,0.4-0.2,0.7-0.4,1c-0.3,0.5-0.8,0.9-1.4,1c-0.4,0.1-0.8,0.5-0.9,0.9
		c-1.6,7.1-3.3,14.1-4.9,21.2c-0.4,1.6-0.7,3.2-1.1,4.8c-0.2,0.7-0.5,1.5-0.5,2.2C98.4,104.7,96.3,113.8,94.2,122.9z M139.1,147.9
		c-1.9-2.8-3.9-5.6-5.8-8.4c-3.6-5.2-7.1-10.4-10.7-15.5c-5.7-8.3-11.4-16.7-17.1-25c-0.8-1.1-1.5-2.2-2.3-3.3
		c0.3-1.1,0.5-2.2,0.8-3.3c5.8,8.5,11.7,17,17.5,25.5c4,5.9,8.1,11.8,12.1,17.7c2.2,3.3,4.5,6.5,6.7,9.8c1,1.4,1.9,2.8,2.9,4.2
		c-0.7,0.5-1.4,0.9-2.1,1.4C140.4,149.9,139.8,148.9,139.1,147.9z"/>
</g>
</svg>
