<svg version="1.1" id="Layer_1" xmlns="http://www.w3.org/2000/svg" xmlns:xlink="http://www.w3.org/1999/xlink" x="0px" y="0px"
	 width="4px" height="625.9px" viewBox="0 0 4 625.9" style="enable-background:new 0 0 4 625.9;" xml:space="preserve" preserveAspectRatio="none">
<g>
	<g>
		<g>
			<polygon style="fill:#152F1D;" points="1.9,294.9 2.3,211.1 2.8,211.2 2.3,294.9 			"/>
			<polygon style="fill:#152F1D;" points="1.8,308.9 1.8,300.7 2.3,300.7 2.2,308.9 			"/>
			<polygon style="fill:#152F1D;" points="0.1,606.2 0.2,588 0.7,588 0.6,606.2 			"/>
			<polygon style="fill:#152F1D;" points="0,625.9 0,621.8 0.5,621.8 0.4,625.9 			"/>
			<polygon style="fill:#152F1D;" points="2.4,195.5 3.4,19.2 3.9,19.2 2.9,195.5 			"/>
			<polygon style="fill:#152F1D;" points="0.3,572.4 1.7,324.5 2.1,324.5 0.7,572.4 			"/>
			<path style="fill:#152F1D;" d="M0.5,582.2c-0.1,0-0.2-0.9-0.2-2c0-1.1,0.1-2,0.2-2c0.1,0,0.2,0.9,0.2,2
				C0.7,581.3,0.6,582.2,0.5,582.2z"/>
			<path style="fill:#152F1D;" d="M0.3,616c-0.1,0-0.2-0.9-0.2-2c0-1.1,0.1-2,0.2-2s0.2,0.9,0.2,2C0.5,615.1,0.4,616,0.3,616z"/>
			<path style="fill:#152F1D;" d="M2.6,205.4c-0.1,0-0.2-0.9-0.2-2c0-1.1,0.1-2,0.2-2c0.1,0,0.2,0.9,0.2,2
				C2.8,204.5,2.7,205.4,2.6,205.4z"/>
			<path style="fill:#152F1D;" d="M2,318.7c-0.1,0-0.2-0.9-0.2-2c0-1.1,0.1-2,0.2-2c0.1,0,0.2,0.9,0.2,2S2.1,318.7,2,318.7z"/>
			<path style="fill:#152F1D;" d="M3.7,13.4c-0.1,0-0.2-0.9-0.2-2s0.1-2,0.2-2c0.1,0,0.2,0.9,0.2,2S3.8,13.4,3.7,13.4z"/>
		</g>
		<polygon style="fill:#152F1D;" points="3.5,0 3.5,9.3 3.9,9.3 4,0 		"/>
	</g>
</g>
</svg>
