<svg version="1.1" id="Layer_1" xmlns="http://www.w3.org/2000/svg" xmlns:xlink="http://www.w3.org/1999/xlink" x="0px" y="0px"

	 width="6.7px" height="909.9px" viewBox="0 0 6.7 909.9" style="enable-background:new 0 0 6.7 909.9;" xml:space="preserve"  preserveAspectRatio="none">>

<style type="text/css">

	.st0{fill:#787879;}

</style>

<g>

	<g>

		<g>

			<polygon class="st0" points="2.9,428.7 2.1,307 2.6,307 3.4,428.7 			"/>

			<polygon class="st0" points="3,449.1 2.9,437.1 3.5,437.1 3.6,449.1 			"/>

			<polygon class="st0" points="5.9,881.3 5.7,854.9 6.3,854.9 6.5,881.3 			"/>

			<polygon class="st0" points="6.1,909.9 6.1,904 6.6,904 6.7,909.9 			"/>

			<polygon class="st0" points="1.9,284.3 0.2,27.9 0.7,27.9 2.5,284.3 			"/>

			<polygon class="st0" points="5.6,832.2 3.2,471.8 3.7,471.8 6.1,832.2 			"/>

			<path class="st0" d="M6,846.5c-0.2,0-0.3-1.3-0.3-2.9c0-1.6,0.1-2.9,0.3-2.9s0.3,1.3,0.3,2.9C6.2,845.2,6.1,846.5,6,846.5z"/>

			<path class="st0" d="M6.3,895.6c-0.2,0-0.3-1.3-0.3-2.9c0-1.6,0.1-2.9,0.3-2.9c0.2,0,0.3,1.3,0.3,2.9

				C6.6,894.3,6.4,895.6,6.3,895.6z"/>

			<path class="st0" d="M2.3,298.6c-0.2,0-0.3-1.3-0.3-2.9c0-1.6,0.1-2.9,0.3-2.9c0.2,0,0.3,1.3,0.3,2.9

				C2.6,297.3,2.4,298.6,2.3,298.6z"/>

			

				<ellipse transform="matrix(1 -6.850243e-03 6.850243e-03 1 -3.1542 3.389288e-02)" class="st0" cx="3.4" cy="460.5" rx="0.3" ry="2.9"/>

			

				<ellipse transform="matrix(1 -6.850982e-03 6.850982e-03 1 -0.1131 3.048884e-03)" class="st0" cx="0.4" cy="16.5" rx="0.3" ry="2.9"/>

		</g>

		<polygon class="st0" points="0,0 0.1,13.6 0.6,13.6 0.6,0 		"/>

	</g>

</g>

</svg>

