<svg version="1.1" id="Layer_1" xmlns="http://www.w3.org/2000/svg" xmlns:xlink="http://www.w3.org/1999/xlink" x="0px" y="0px"
	 width="263.3px" height="1.2px" viewBox="0 0 263.3 1.2" style="enable-background:new 0 0 263.3 1.2;" xml:space="preserve" preserveAspectRatio="none">
<g>
	<g>
		<g>
			<polygon style="fill:#777779;" points="124,0.8 88.8,0.9 88.8,0.5 124,0.4 			"/>
			<polygon style="fill:#777779;" points="129.9,0.7 126.5,0.8 126.5,0.4 129.9,0.4 			"/>
			<polygon style="fill:#777779;" points="255,0.4 247.3,0.4 247.3,0 255,0 			"/>
			<polygon style="fill:#777779;" points="263.3,0.3 261.6,0.3 261.6,0 263.3,0 			"/>
			<polygon style="fill:#777779;" points="82.3,0.9 8.1,1.1 8.1,0.8 82.3,0.6 			"/>
			<polygon style="fill:#777779;" points="240.8,0.4 136.5,0.7 136.5,0.4 240.8,0.1 			"/>
			<path style="fill:#777779;" d="M244.9,0.2c0,0.1-0.4,0.2-0.8,0.2c-0.5,0-0.8-0.1-0.8-0.2s0.4-0.2,0.8-0.2
				C244.5,0.1,244.9,0.1,244.9,0.2z"/>
			<path style="fill:#777779;" d="M259.1,0.2c0,0.1-0.4,0.2-0.8,0.2c-0.5,0-0.8-0.1-0.8-0.2c0-0.1,0.4-0.2,0.8-0.2
				C258.7,0,259.1,0.1,259.1,0.2z"/>
			<path style="fill:#777779;" d="M86.4,0.7c0,0.1-0.4,0.2-0.8,0.2c-0.5,0-0.8-0.1-0.8-0.2c0-0.1,0.4-0.2,0.8-0.2
				C86,0.6,86.4,0.6,86.4,0.7z"/>
			
				<ellipse transform="matrix(1 -3.191464e-03 3.191464e-03 1 -1.142963e-03 0.4252)" style="fill:#777779;" cx="133.2" cy="0.6" rx="0.8" ry="0.2"/>
			
				<ellipse transform="matrix(1 -3.193049e-03 3.193049e-03 1 -3.071145e-03 1.525846e-02)" style="fill:#777779;" cx="4.8" cy="1" rx="0.8" ry="0.2"/>
		</g>
		<polygon style="fill:#777779;" points="0,1.2 3.9,1.1 3.9,0.8 0,0.8 		"/>
	</g>
</g>
</svg>
