<svg version="1.1" id="Layer_1" xmlns="http://www.w3.org/2000/svg" xmlns:xlink="http://www.w3.org/1999/xlink" x="0px" y="0px"
	 width="310.3px" height="59.9px" viewBox="0 0 310.3 59.9" style="enable-background:new 0 0 310.3 59.9;" xml:space="preserve" preserveAspectRatio="none">
<polygon style="fill:#F7D7A9;" points="0,6.9 300,0 310.3,49.7 14.9,58.6 "/>
<g>
	<g>
		<polygon style="fill:#71471A;" points="303.7,27.5 300.8,9.7 224.8,8.3 224.8,6.1 301.9,7.5 305,27 		"/>
		<polygon style="fill:#71471A;" points="307.3,50.6 305.2,37 306.5,36.5 308.6,50 		"/>
		<polygon style="fill:#71471A;" points="9.8,33.5 15,53.9 19.5,54 19.5,56.1 14.1,56 8.6,34.3 		"/>
		<polygon style="fill:#71471A;" points="2,2.6 3.7,9 2.4,9.8 0.8,3.4 		"/>
		<polygon style="fill:#71471A;" points="208.3,8 21.7,4.5 21.7,2.3 208.3,5.8 		"/>
		
			<rect x="166.1" y="-74.2" transform="matrix(1.308820e-02 -0.9999 0.9999 1.308820e-02 108.0197 223.3707)" style="fill:#71471A;" width="2.2" height="262.3"/>
		<path style="fill:#71471A;" d="M25.6,55.1c0-0.6,1-1.1,2.1-1s2.1,0.5,2.1,1.1c0,0.6-1,1.1-2.1,1C26.6,56.2,25.6,55.7,25.6,55.1z"
			/>
		<path style="fill:#71471A;" d="M5.3,18.5c0.3-0.2,1,1,1.4,2.7c0.4,1.7,0.5,3.3,0.2,3.6c-0.3,0.2-1-1-1.4-2.7
			C5.1,20.3,5,18.7,5.3,18.5z"/>
		<path style="fill:#71471A;" d="M218.7,7.1c0,0.6-1,1.1-2.1,1c-1.2,0-2.1-0.5-2.1-1.1c0-0.6,1-1.1,2.1-1
			C217.7,6,218.7,6.5,218.7,7.1z"/>
		<path style="fill:#71471A;" d="M304.4,58.8c0-0.6,1-1.1,2.1-1c0.6,0,1.1,0.1,1.5,0.3c0.4,0.2,0.5,0.5,0.6,0.8s-0.3,0.6-0.6,0.8
			c-0.4,0.2-0.9,0.3-1.5,0.3C305.4,59.9,304.4,59.4,304.4,58.8z"/>
		<path style="fill:#71471A;" d="M15.6,3.3c0,0.6-1,1.1-2.1,1c-1.2,0-2.1-0.5-2.1-1.1c0-0.6,1-1.1,2.1-1C14.6,2.2,15.6,2.7,15.6,3.3
			z"/>
	</g>
	<polygon style="fill:#71471A;" points="1.4,4.1 11.3,4.3 11.3,2.1 1.4,1.9 	"/>
</g>
</svg>
