<svg version="1.1" id="Layer_1" xmlns="http://www.w3.org/2000/svg" xmlns:xlink="http://www.w3.org/1999/xlink" x="0px" y="0px"
	 width="453.8px" height="62.5px" viewBox="0 0 453.8 62.5" style="enable-background:new 0 0 453.8 62.5;" xml:space="preserve" preserveAspectRatio="none">
<polygon style="fill:#103D56;" points="446.4,60.7 0.8,55.1 5.8,4.1 426.9,4.8 "/>
<g>
	<g>
		<polygon style="fill:#05232E;" points="2.7,53.2 2.2,60.1 124.4,58.9 124.4,61.2 0,62.5 0.8,53 		"/>
		<polygon style="fill:#05232E;" points="4.8,27.7 3.6,42.7 1.6,42.5 2.9,27.4 		"/>
		<polygon style="fill:#05232E;" points="439.6,24.1 431.4,2.4 424.7,2.5 424.7,0.2 432.7,0 441.5,23.2 		"/>
		<polygon style="fill:#05232E;" points="452,57.1 449.5,50.3 451.3,49.3 453.8,56.2 		"/>
		<polygon style="fill:#05232E;" points="148.7,58.6 423.1,55.8 423.1,58.1 148.7,60.9 		"/>
		<polygon style="fill:#05232E;" points="400.5,3 14.8,11.2 14.8,8.9 400.4,0.7 		"/>
		<path style="fill:#05232E;" d="M415.7,1.5c0,0.6-1.4,1.2-3.1,1.2c-1.7,0-3.1-0.5-3.2-1.1c0-0.6,1.4-1.2,3.1-1.2
			C414.3,0.4,415.7,0.9,415.7,1.5z"/>
		<path style="fill:#05232E;" d="M446.7,40.1c-0.5,0.3-1.5-1-2.2-2.9c-0.7-1.9-0.9-3.6-0.4-3.8c0.5-0.3,1.5,1,2.2,2.9
			S447.2,39.9,446.7,40.1z"/>
		<path style="fill:#05232E;" d="M133.4,59.9c0-0.6,1.4-1.2,3.1-1.2c1.7,0,3.1,0.5,3.1,1.1c0,0.6-1.4,1.2-3.1,1.2
			C134.8,61.1,133.4,60.6,133.4,59.9z"/>
		<path style="fill:#05232E;" d="M5.8,10.2c0.1,0.2,0,0.4,0,0.6c0.1,0.2,0.1,0.3,0.2,0.4C6,11.3,6,11.3,6,11.6c0,0.5,0,1.2,0,1.8
			c-0.2,2-0.7,3.6-1.3,3.6c-0.5-0.1-0.8-1.8-0.7-3.8c0.1-0.6,0.1-1.3,0.3-1.8c0.1-0.2,0.1-0.7,0.2-1c0.1-0.3,0.2-0.6,0.3-0.8
			C5.4,9.8,5.7,10,5.8,10.2z"/>
		<path style="fill:#05232E;" d="M432.1,56.8c0-0.6,1.4-1.2,3.1-1.2c1.7,0,3.1,0.5,3.1,1.1c0,0.6-1.4,1.2-3.1,1.2
			C433.5,58,432.1,57.5,432.1,56.8z"/>
	</g>
	<polygon style="fill:#05232E;" points="452.9,55.5 438.4,55.6 438.4,57.9 452.9,57.8 	"/>
</g>
</svg>
