<svg version="1.1" id="Layer_1" xmlns="http://www.w3.org/2000/svg" xmlns:xlink="http://www.w3.org/1999/xlink" x="0px" y="0px"
	 width="1080.9px" height="6.1px" viewBox="0 0 1080.9 6.1" style="enable-background:new 0 0 1080.9 6.1;" xml:space="preserve" preserveAspectRatio="none">
<g>
	<g>
		<g>
			
				<rect x="571.6" y="1.9" transform="matrix(1 -4.356930e-03 4.356930e-03 1 -5.216103e-03 2.8056)" style="fill:#71471A;" width="144.6" height="1.4"/>
			
				<rect x="547.4" y="2.3" transform="matrix(1 -4.356490e-03 4.356490e-03 1 -7.762038e-03 2.4158)" style="fill:#71471A;" width="14.2" height="1.4"/>
			
				<rect x="34" y="4.5" transform="matrix(1 -4.357323e-03 4.357323e-03 1 -2.213900e-02 0.2166)" style="fill:#71471A;" width="31.4" height="1.4"/>
			
				<rect x="0" y="4.7" transform="matrix(1 -4.357237e-03 4.357237e-03 1 -2.345337e-02 1.540095e-02)" style="fill:#71471A;" width="7" height="1.4"/>
			
				<rect x="743.2" y="0.8" transform="matrix(1 -4.356980e-03 4.356980e-03 1 1.947398e-03 3.9017)" style="fill:#71471A;" width="304.6" height="1.4"/>
			
				<rect x="92.3" y="3.4" transform="matrix(1 -4.356937e-03 4.356937e-03 1 -1.482752e-02 1.335)" style="fill:#71471A;" width="428.1" height="1.4"/>
			
				<ellipse transform="matrix(1 -4.353572e-03 4.353572e-03 1 -2.129044e-02 0.3434)" style="fill:#71471A;" cx="78.9" cy="5.1" rx="3.5" ry="0.7"/>
			<path style="fill:#71471A;" d="M17,5.3c0-0.4,1.6-0.7,3.5-0.7c1.9,0,3.5,0.3,3.5,0.7C24,5.7,22.4,6,20.5,6C18.6,6,17,5.7,17,5.3z
				"/>
			
				<ellipse transform="matrix(1 -4.359628e-03 4.359628e-03 1 -2.770952e-03 3.1813)" style="fill:#71471A;" cx="729.7" cy="2.2" rx="3.5" ry="0.7"/>
			
				<ellipse transform="matrix(1 -4.351961e-03 4.351961e-03 1 -8.345028e-03 2.3236)" style="fill:#71471A;" cx="533.9" cy="3.1" rx="3.5" ry="0.7"/>
			<path style="fill:#71471A;" d="M1057.8,0.8c0-0.4,1.6-0.7,3.5-0.7c1.9,0,3.5,0.3,3.5,0.7c0,0.4-1.6,0.7-3.5,0.7
				C1059.4,1.5,1057.8,1.2,1057.8,0.8z"/>
		</g>
		
			<rect x="1064.8" y="0" transform="matrix(1 -4.357722e-03 4.357722e-03 1 6.999933e-03 4.6752)" style="fill:#71471A;" width="16.1" height="1.4"/>
	</g>
</g>
</svg>
