<svg version="1.1" id="Layer_1" xmlns="http://www.w3.org/2000/svg" xmlns:xlink="http://www.w3.org/1999/xlink" x="0px" y="0px"
	 width="49.3px" height="63.3px" viewBox="0 0 49.3 63.3" style="enable-background:new 0 0 49.3 63.3;" xml:space="preserve">
<path style="fill:#072830;" d="M45.3,7.3L31.5,0.7C28-1,23.8,0.5,22.1,4l-4.2,8.7c-0.1,0.2-0.2,0.3-0.2,0.5c0,0,0,0,0,0l0,0
	c-2.6,6.1-0.8,13.1,4.1,17.1c-2,4.2-4,8.4-6,12.6c-0.6,1.3-1.3,2.7-1.9,4c0,0.1-0.1,0.2-0.1,0.3l-0.6-0.3
	c-5.2-2.5-10.7-1.7-12.4,1.9c-0.1,0.3-0.2,0.6-0.3,0.9L0,50.9l25.8,12.4l0.8-1.1c0.2-0.3,0.3-0.5,0.5-0.8c1.7-3.6-1-8.4-6.3-10.9
	l-0.6-0.3c0.2-0.4,0.4-0.8,0.6-1.2c1.2-2.4,2.3-4.9,3.5-7.3c1.3-2.8,2.7-5.6,4-8.4c6.4,1.3,13.2-1.8,16.2-8l4.2-8.7
	C50.3,13.2,48.8,9,45.3,7.3z M30.2,3.5l13.8,6.6c2,0.9,2.8,3.3,1.8,5.3l-1,2.1c-0.1-0.1-0.1-0.1-0.2-0.2c-2.4-2.3-6.9-2.4-11.2-0.2
	c-4.3,2.2-7.4-0.2-10.5-3c-0.5-0.5-1-1-1.5-1.3l3.5-7.3C25.9,3.4,28.2,2.6,30.2,3.5z M24.4,59.2L4.1,49.4c1.4-1.1,4.4-1.3,7.6,0.3
	l7.7,3.7C22.6,55,24.4,57.4,24.4,59.2z M19.9,45c-0.6,1.3-1.3,2.7-1.9,4c0,0.1-0.1,0.2-0.1,0.3l-1.9-0.9c0.2-0.4,0.4-0.8,0.6-1.2
	c1.2-2.4,2.3-4.9,3.5-7.3c1.3-2.7,2.6-5.3,3.8-8c0.3,0.2,0.6,0.3,0.9,0.5s0.6,0.3,1,0.4C23.8,36.8,21.9,40.9,19.9,45z M41.6,24.1
	c-2.8,5.7-9.7,8.2-15.4,5.4c-5.2-2.5-7.7-8.5-6-13.9c0.2,0.2,0.5,0.4,0.7,0.6c1.2,1.1,2.9,2.7,5,3.7c2.4,1.2,5.4,1.6,9-0.2
	c3.4-1.8,6.4-1.5,7.6-0.3c0.6,0.6,0.7,1.5,0.2,2.6L41.6,24.1z"/>
</svg>
