<svg version="1.1" id="Layer_1" xmlns="http://www.w3.org/2000/svg" xmlns:xlink="http://www.w3.org/1999/xlink" x="0px" y="0px"
	 width="489.1px" height="3.4px" viewBox="0 0 489.1 3.4" style="enable-background:new 0 0 489.1 3.4;" xml:space="preserve" preserveAspectRatio="none">
<g>
	<g>
		<g>
			<polygon style="fill:#777779;" points="230.4,1.9 165,2.3 165,2 230.4,1.6 			"/>
			<polygon style="fill:#777779;" points="241.4,1.9 234.9,1.9 235,1.6 241.4,1.5 			"/>
			<polygon style="fill:#777779;" points="473.7,0.4 459.5,0.5 459.5,0.2 473.7,0.1 			"/>
			<polygon style="fill:#777779;" points="489.1,0.3 485.9,0.4 485.9,0 489.1,0 			"/>
			<polygon style="fill:#777779;" points="152.8,2.4 15,3.3 15,2.9 152.8,2.1 			"/>
			<polygon style="fill:#777779;" points="447.3,0.6 253.6,1.8 253.6,1.5 447.3,0.3 			"/>
			<path style="fill:#777779;" d="M455,0.4c0,0.1-0.7,0.2-1.6,0.2c-0.9,0-1.6-0.1-1.6-0.2s0.7-0.2,1.6-0.2
				C454.3,0.2,455,0.3,455,0.4z"/>
			<path style="fill:#777779;" d="M481.4,0.2c0,0.1-0.7,0.2-1.6,0.2c-0.9,0-1.6-0.1-1.6-0.2c0-0.1,0.7-0.2,1.6-0.2
				C480.7,0.1,481.4,0.1,481.4,0.2z"/>
			<path style="fill:#777779;" d="M160.5,2.2c0,0.1-0.7,0.2-1.6,0.2c-0.9,0-1.6-0.1-1.6-0.2c0-0.1,0.7-0.2,1.6-0.2
				C159.8,2,160.5,2.1,160.5,2.2z"/>
			
				<ellipse transform="matrix(1 -6.343707e-03 6.343707e-03 1 -5.589438e-03 1.57)" style="fill:#777779;" cx="247.5" cy="1.7" rx="1.6" ry="0.2"/>
			
				<ellipse transform="matrix(1 -6.344535e-03 6.344535e-03 1 -1.978621e-02 5.637014e-02)" style="fill:#777779;" cx="8.9" cy="3.1" rx="1.6" ry="0.2"/>
		</g>
		<polygon style="fill:#777779;" points="0,3.4 7.3,3.3 7.3,3 0,3 		"/>
	</g>
</g>
</svg>
