<svg version="1.1" id="Layer_1" xmlns="http://www.w3.org/2000/svg" xmlns:xlink="http://www.w3.org/1999/xlink" x="0px" y="0px"
	 width="1075.8px" height="6.1px" viewBox="0 0 1075.8 6.1" style="enable-background:new 0 0 1075.8 6.1;" xml:space="preserve" preserveAspectRatio="none">
<g>
	<g>
		<g>
			
				<rect x="568.9" y="1.9" transform="matrix(1 -4.356930e-03 4.356930e-03 1 -5.191573e-03 2.7924)" style="fill:#531B12;" width="143.9" height="1.4"/>
			
				<rect x="544.8" y="2.3" transform="matrix(1 -4.356490e-03 4.356490e-03 1 -7.725535e-03 2.4044)" style="fill:#531B12;" width="14.2" height="1.4"/>
			
				<rect x="33.8" y="4.5" transform="matrix(1 -4.357323e-03 4.357323e-03 1 -2.203489e-02 0.2156)" style="fill:#531B12;" width="31.3" height="1.4"/>
			
				<rect x="0" y="4.7" transform="matrix(1 -4.357237e-03 4.357237e-03 1 -2.334308e-02 1.532852e-02)" style="fill:#531B12;" width="7" height="1.4"/>
			
				<rect x="739.7" y="0.8" transform="matrix(1 -4.356980e-03 4.356980e-03 1 1.938240e-03 3.8834)" style="fill:#531B12;" width="303.2" height="1.4"/>
			
				<rect x="91.9" y="3.4" transform="matrix(1 -4.356937e-03 4.356937e-03 1 -1.475779e-02 1.3287)" style="fill:#531B12;" width="426.1" height="1.4"/>
			
				<ellipse transform="matrix(1 -4.353572e-03 4.353572e-03 1 -2.119032e-02 0.3418)" style="fill:#531B12;" cx="78.5" cy="5" rx="3.5" ry="0.7"/>
			<path style="fill:#531B12;" d="M17,5.3c0-0.4,1.5-0.7,3.5-0.7c1.9,0,3.5,0.3,3.5,0.7c0,0.4-1.5,0.7-3.5,0.7C18.5,6,17,5.7,17,5.3
				z"/>
			
				<ellipse transform="matrix(1 -4.359628e-03 4.359628e-03 1 -2.757921e-03 3.1664)" style="fill:#531B12;" cx="726.3" cy="2.2" rx="3.5" ry="0.7"/>
			
				<ellipse transform="matrix(1 -4.351961e-03 4.351961e-03 1 -8.305784e-03 2.3127)" style="fill:#531B12;" cx="531.4" cy="3.1" rx="3.5" ry="0.7"/>
			<path style="fill:#531B12;" d="M1052.8,0.8c0-0.4,1.5-0.7,3.5-0.7c1.9,0,3.5,0.3,3.5,0.7c0,0.4-1.5,0.7-3.5,0.7
				C1054.4,1.5,1052.8,1.2,1052.8,0.8z"/>
		</g>
		
			<rect x="1059.8" y="0" transform="matrix(1 -4.357722e-03 4.357722e-03 1 6.967015e-03 4.6532)" style="fill:#531B12;" width="16.1" height="1.4"/>
	</g>
</g>
</svg>
