<svg version="1.1" id="Layer_1" xmlns="http://www.w3.org/2000/svg" xmlns:xlink="http://www.w3.org/1999/xlink" x="0px" y="0px"
	 width="1221.6px" height="384.4px" viewBox="0 0 1221.6 384.4" style="enable-background:new 0 0 1221.6 384.4;"
	 xml:space="preserve" preserveAspectRatio="none">
<polygon style="fill:#4D8184;" points="1221.6,374.8 35.7,358.3 60.4,39.2 1190.9,28.9 "/>
<polygon style="fill:#6B9FA5;" points="1215.7,369.9 29.8,353.4 54.6,34.4 1185,24 "/>
<g style="display:none;">
	<g style="display:inline;">
		<g>
			<g>
				
					<rect x="840.3" y="265.7" transform="matrix(1.173919e-02 -0.9999 0.9999 1.173919e-02 452.3028 1215.9205)" style="fill:#072830;" width="2" height="226.9"/>
				
					<rect x="700" y="366.3" transform="matrix(1.173947e-02 -0.9999 0.9999 1.173947e-02 315.3115 1074.0177)" style="fill:#072830;" width="2" height="22.3"/>
				
					<rect x="3.3" y="259.8" transform="matrix(8.902428e-02 -0.996 0.996 8.902428e-02 -234.3005 265.3268)" style="fill:#072830;" width="49.3" height="2"/>
				
					<rect x="28.8" y="187.6" transform="matrix(8.902314e-02 -0.996 0.996 8.902314e-02 -156.5634 206.024)" style="fill:#072830;" width="11" height="2"/>
				<polygon style="fill:#072830;" points="997,380 1203,382.4 1183.5,113.3 1185.4,113.2 1205.1,384.4 997,381.9 				"/>
				<polygon style="fill:#072830;" points="22.9,327.5 19.2,368.5 647.6,375.9 647.5,377.8 17.1,370.4 21,327.3 				"/>
				<path style="fill:#072830;" d="M24.3,300.9c0.5,0,0.8,2.5,0.5,5.5c-0.3,3-0.9,5.4-1.5,5.4s-0.8-2.5-0.5-5.5
					C23.1,303.3,23.8,300.9,24.3,300.9z"/>
				<path style="fill:#072830;" d="M32.5,209.7c0.5,0,0.8,2.5,0.5,5.5c-0.3,3-0.9,5.4-1.5,5.4c-0.5,0-0.8-2.5-0.5-5.5
					C31.3,212.1,31.9,209.7,32.5,209.7z"/>
				<path style="fill:#072830;" d="M970.4,380.7c0-0.5,2.5-0.9,5.5-0.9s5.5,0.5,5.4,1s-2.5,0.9-5.5,0.9S970.4,381.2,970.4,380.7z"/>
				<path style="fill:#072830;" d="M663.2,377c0-0.5,2.5-0.9,5.5-0.9c3,0,5.5,0.5,5.4,1s-2.5,0.9-5.5,0.9S663.2,377.6,663.2,377z"/>
				<path style="fill:#072830;" d="M1183.3,97.6c-0.5,0-1.1-2.4-1.4-5.4c-0.2-3,0-5.5,0.6-5.5c0.5,0,1.1,2.4,1.4,5.4
					C1184.1,95.1,1183.9,97.6,1183.3,97.6z"/>
			</g>
			
				<rect x="1180.6" y="61.5" transform="matrix(0.9974 -7.244794e-02 7.244794e-02 0.9974 -2.2651 85.8011)" style="fill:none;" width="2" height="25.3"/>
		</g>
	</g>
</g>
<polygon style="fill:#357481;" points="1170.9,51.4 50,51.4 53.9,19.6 1177.4,5.4 "/>
<g style="display:none;">
	<g style="display:inline;">
		<g>
			<g>
				<rect x="673.6" y="55.8" style="fill:#072830;" width="153.7" height="1.4"/>
				<rect x="647.8" y="55.8" style="fill:#072830;" width="15.1" height="1.4"/>
				<rect x="102.1" y="55.8" style="fill:#072830;" width="33.4" height="1.4"/>
				<rect x="66" y="55.8" style="fill:#072830;" width="7.5" height="1.4"/>
				<polygon style="fill:#072830;" points="855.9,55.8 1175.4,55.8 1175.8,52.8 1177.3,53 1176.7,57.2 855.9,57.2 				"/>
				<rect x="164.2" y="55.8" style="fill:#072830;" width="455" height="1.4"/>
				<path style="fill:#072830;" d="M146.1,56.5c0-0.4,1.7-0.7,3.7-0.7c2,0,3.7,0.3,3.7,0.7c0,0.4-1.7,0.7-3.7,0.7
					C147.8,57.2,146.1,56.9,146.1,56.5z"/>
				<path style="fill:#072830;" d="M84.1,56.5c0-0.4,1.7-0.7,3.7-0.7c2,0,3.7,0.3,3.7,0.7c0,0.4-1.7,0.7-3.7,0.7
					C85.8,57.2,84.1,56.9,84.1,56.5z"/>
				<path style="fill:#072830;" d="M837.9,56.5c0-0.4,1.7-0.7,3.7-0.7c2,0,3.7,0.3,3.7,0.7c0,0.4-1.7,0.7-3.7,0.7
					C839.5,57.2,837.9,56.9,837.9,56.5z"/>
				<path style="fill:#072830;" d="M629.8,56.5c0-0.4,1.7-0.7,3.7-0.7s3.7,0.3,3.7,0.7c0,0.4-1.7,0.7-3.7,0.7S629.8,56.9,629.8,56.5
					z"/>
				<path style="fill:#072830;" d="M1178,42.4c-0.4-0.1-0.5-1.7-0.2-3.8c0.3-2,0.8-3.6,1.2-3.6c0.4,0.1,0.5,1.7,0.2,3.8
					S1178.4,42.5,1178,42.4z"/>
			</g>
			
				<rect x="1171.7" y="25.9" transform="matrix(0.1397 -0.9902 0.9902 0.1397 989.1097 1191.5669)" style="fill:none;" width="17.1" height="1.4"/>
		</g>
	</g>
</g>
<g style="display:none;">
	<g style="display:inline;">
		<g>
			
				<rect x="448.8" y="186.7" transform="matrix(1 -1.974866e-03 1.974866e-03 1 -0.369 1.0295)" style="fill:#052A33;" width="144.6" height="1.4"/>
			
				<rect x="603.4" y="186.5" transform="matrix(1 -1.974323e-03 1.974323e-03 1 -0.3684 1.2058)" style="fill:#052A33;" width="14.2" height="1.4"/>
			
				<rect x="1099.7" y="185.5" transform="matrix(1 -1.975160e-03 1.975160e-03 1 -0.3656 2.2034)" style="fill:#052A33;" width="31.4" height="1.4"/>
			
				<rect x="1158" y="185.4" transform="matrix(1 -1.975089e-03 1.975089e-03 1 -0.3653 2.2945)" style="fill:#052A33;" width="7" height="1.4"/>
			
				<rect x="117.2" y="187.2" transform="matrix(1 -1.974812e-03 1.974812e-03 1 -0.3705 0.5327)" style="fill:#052A33;" width="304.6" height="1.4"/>
			
				<rect x="644.6" y="186" transform="matrix(1 -1.974804e-03 1.974804e-03 1 -0.367 1.696)" style="fill:#052A33;" width="428.1" height="1.4"/>
			<path style="fill:#052A33;" d="M1089.7,186.2c0,0.4-1.6,0.7-3.5,0.7c-1.9,0-3.5-0.3-3.5-0.7s1.6-0.7,3.5-0.7
				C1088.1,185.6,1089.7,185.9,1089.7,186.2z"/>
			<path style="fill:#052A33;" d="M1148,186.1c0,0.4-1.6,0.7-3.5,0.7s-3.5-0.3-3.5-0.7c0-0.4,1.6-0.7,3.5-0.7
				C1146.5,185.4,1148,185.7,1148,186.1z"/>
			<path style="fill:#052A33;" d="M438.8,187.5c0,0.4-1.6,0.7-3.5,0.7c-1.9,0-3.5-0.3-3.5-0.7c0-0.4,1.6-0.7,3.5-0.7
				C437.2,186.8,438.8,187.1,438.8,187.5z"/>
			
				<ellipse transform="matrix(1 -1.974234e-03 1.974234e-03 1 -0.3682 1.2464)" style="fill:#052A33;" cx="631.1" cy="187.1" rx="3.5" ry="0.7"/>
			
				<ellipse transform="matrix(1 -1.975844e-03 1.975844e-03 1 -0.3716 0.2054)" style="fill:#052A33;" cx="103.7" cy="188.2" rx="3.5" ry="0.7"/>
		</g>
		
			<rect x="84.1" y="187.5" transform="matrix(1 -1.974635e-03 1.974635e-03 1 -0.3715 0.1824)" style="fill:#052A33;" width="16.1" height="1.4"/>
	</g>
</g>
<g style="display:none;">
	<g style="display:inline;">
		<g>
			
				<rect x="655.8" y="266.4" transform="matrix(1 -4.356930e-03 4.356930e-03 1 -1.1566 3.1747)" style="fill:#052A33;" width="144.6" height="1.4"/>
			
				<rect x="631.5" y="266.8" transform="matrix(1 -4.356490e-03 4.356490e-03 1 -1.1591 2.7848)" style="fill:#052A33;" width="14.2" height="1.4"/>
			
				<rect x="118.1" y="269" transform="matrix(1 -4.357323e-03 4.357323e-03 1 -1.1737 0.5857)" style="fill:#052A33;" width="31.4" height="1.4"/>
			
				<rect x="84.1" y="269.2" transform="matrix(1 -4.357237e-03 4.357237e-03 1 -1.175 0.3845)" style="fill:#052A33;" width="7" height="1.4"/>
			
				<rect x="827.3" y="265.3" transform="matrix(1 -4.356980e-03 4.356980e-03 1 -1.1495 4.2708)" style="fill:#052A33;" width="304.6" height="1.4"/>
			
				<rect x="176.5" y="267.8" transform="matrix(1 -4.356937e-03 4.356937e-03 1 -1.1663 1.7041)" style="fill:#052A33;" width="428.1" height="1.4"/>
			
				<ellipse transform="matrix(1 -4.353572e-03 4.353572e-03 1 -1.1718 0.7122)" style="fill:#052A33;" cx="163" cy="269.5" rx="3.5" ry="0.7"/>
			<path style="fill:#052A33;" d="M101.2,269.8c0-0.4,1.6-0.7,3.5-0.7c1.9,0,3.5,0.3,3.5,0.7c0,0.4-1.6,0.7-3.5,0.7
				C102.7,270.5,101.2,270.2,101.2,269.8z"/>
			
				<ellipse transform="matrix(1 -4.359628e-03 4.359628e-03 1 -1.1549 3.5507)" style="fill:#052A33;" cx="813.9" cy="266.7" rx="3.5" ry="0.7"/>
			
				<ellipse transform="matrix(1 -4.351961e-03 4.351961e-03 1 -1.1585 2.6923)" style="fill:#052A33;" cx="618.1" cy="267.5" rx="3.5" ry="0.7"/>
			<path style="fill:#052A33;" d="M1142,265.3c0-0.4,1.6-0.7,3.5-0.7c1.9,0,3.5,0.3,3.5,0.7s-1.6,0.7-3.5,0.7
				C1143.5,265.9,1142,265.6,1142,265.3z"/>
		</g>
		
			<rect x="1148.9" y="264.5" transform="matrix(1 -4.357722e-03 4.357722e-03 1 -1.1446 5.0443)" style="fill:#052A33;" width="16.1" height="1.4"/>
	</g>
</g>
<g style="display:none;">
	<g style="display:inline;">
		<g>
			<polygon style="fill:#052A33;" points="424.9,209 425.4,175.1 425.8,175.1 425.4,209 			"/>
			<polygon style="fill:#052A33;" points="424.9,214.7 424.9,211.3 425.3,211.3 425.3,214.7 			"/>
			<polygon style="fill:#052A33;" points="423.2,335 423.3,327.6 423.7,327.6 423.6,335 			"/>
			<polygon style="fill:#052A33;" points="423.1,342.9 423.1,341.3 423.6,341.3 423.5,342.9 			"/>
			<polygon style="fill:#052A33;" points="425.5,168.8 426.5,97.4 426.9,97.4 425.9,168.8 			"/>
			<polygon style="fill:#052A33;" points="423.4,321.3 424.8,221 425.2,221 423.8,321.3 			"/>
			<path style="fill:#052A33;" d="M423.6,325.3c-0.1,0-0.2-0.4-0.2-0.8c0-0.5,0.1-0.8,0.2-0.8c0.1,0,0.2,0.4,0.2,0.8
				C423.8,324.9,423.7,325.3,423.6,325.3z"/>
			<path style="fill:#052A33;" d="M423.4,338.9c-0.1,0-0.2-0.4-0.2-0.8c0-0.5,0.1-0.8,0.2-0.8c0.1,0,0.2,0.4,0.2,0.8
				C423.6,338.6,423.5,338.9,423.4,338.9z"/>
			<path style="fill:#052A33;" d="M425.7,172.8c-0.1,0-0.2-0.4-0.2-0.8c0-0.5,0.1-0.8,0.2-0.8c0.1,0,0.2,0.4,0.2,0.8
				C425.9,172.4,425.8,172.8,425.7,172.8z"/>
			<path style="fill:#052A33;" d="M425,218.6c-0.1,0-0.2-0.4-0.2-0.8c0-0.5,0.1-0.8,0.2-0.8c0.1,0,0.2,0.4,0.2,0.8
				C425.2,218.3,425.1,218.6,425,218.6z"/>
			<path style="fill:#052A33;" d="M426.7,95.1c-0.1,0-0.2-0.4-0.2-0.8c0-0.5,0.1-0.8,0.2-0.8c0.1,0,0.2,0.4,0.2,0.8
				C426.9,94.7,426.8,95.1,426.7,95.1z"/>
		</g>
		<polygon style="fill:#052A33;" points="426.6,89.7 426.5,93.5 427,93.5 427,89.7 		"/>
	</g>
</g>
<g style="display:none;">
	<g style="display:inline;">
		<g>
			<polygon style="fill:#052A33;" points="685.8,223.6 686.2,257.5 685.8,257.5 685.3,223.6 			"/>
			<polygon style="fill:#052A33;" points="685.7,217.9 685.7,221.3 685.3,221.3 685.3,217.9 			"/>
			<polygon style="fill:#052A33;" points="684.1,97.6 684.2,105 683.8,105 683.7,97.6 			"/>
			<polygon style="fill:#052A33;" points="684,89.7 684,91.3 683.6,91.3 683.6,89.7 			"/>
			<polygon style="fill:#052A33;" points="686.3,263.8 687.2,335.2 686.8,335.2 685.9,263.8 			"/>
			<polygon style="fill:#052A33;" points="684.3,111.3 685.6,211.6 685.2,211.6 683.8,111.3 			"/>
			<path style="fill:#052A33;" d="M684,107.3c0.1,0,0.2,0.4,0.2,0.8c0,0.5-0.1,0.8-0.2,0.8c-0.1,0-0.2-0.4-0.2-0.8
				C683.8,107.7,683.9,107.3,684,107.3z"/>
			<path style="fill:#052A33;" d="M683.8,93.7c0.1,0,0.2,0.4,0.2,0.8s-0.1,0.8-0.2,0.8c-0.1,0-0.2-0.4-0.2-0.8
				C683.6,94,683.7,93.7,683.8,93.7z"/>
			<path style="fill:#052A33;" d="M686,259.8c0.1,0,0.2,0.4,0.2,0.8c0,0.5-0.1,0.8-0.2,0.8c-0.1,0-0.2-0.4-0.2-0.8
				C685.8,260.2,685.9,259.8,686,259.8z"/>
			<path style="fill:#052A33;" d="M685.4,214c0.1,0,0.2,0.4,0.2,0.8c0,0.5-0.1,0.8-0.2,0.8s-0.2-0.4-0.2-0.8
				C685.2,214.3,685.3,214,685.4,214z"/>
			<path style="fill:#052A33;" d="M687.1,337.5c0.1,0,0.2,0.4,0.2,0.8c0,0.5-0.1,0.8-0.2,0.8c-0.1,0-0.2-0.4-0.2-0.8
				S686.9,337.5,687.1,337.5z"/>
		</g>
		<polygon style="fill:#052A33;" points="687.3,342.9 687.3,339.1 686.9,339.1 686.9,342.9 		"/>
	</g>
</g>
<g style="display:none;">
	<g style="display:inline;">
		<g>
			<polygon style="fill:#052A33;" points="910.4,209 910,175.1 910.4,175.1 910.8,209 			"/>
			<polygon style="fill:#052A33;" points="910.5,214.7 910.4,211.3 910.9,211.3 910.9,214.7 			"/>
			<polygon style="fill:#052A33;" points="912.1,335 912,327.6 912.4,327.6 912.5,335 			"/>
			<polygon style="fill:#052A33;" points="912.2,342.9 912.2,341.3 912.6,341.3 912.6,342.9 			"/>
			<polygon style="fill:#052A33;" points="909.9,168.8 908.9,97.4 909.4,97.4 910.3,168.8 			"/>
			<polygon style="fill:#052A33;" points="911.9,321.3 910.6,221 911,221 912.3,321.3 			"/>
			<path style="fill:#052A33;" d="M912.2,325.3c-0.1,0-0.2-0.4-0.2-0.8c0-0.5,0.1-0.8,0.2-0.8c0.1,0,0.2,0.4,0.2,0.8
				S912.3,325.3,912.2,325.3z"/>
			<path style="fill:#052A33;" d="M912.3,338.9c-0.1,0-0.2-0.4-0.2-0.8s0.1-0.8,0.2-0.8c0.1,0,0.2,0.4,0.2,0.8
				C912.6,338.6,912.5,338.9,912.3,338.9z"/>
			<path style="fill:#052A33;" d="M910.1,172.8c-0.1,0-0.2-0.4-0.2-0.8c0-0.5,0.1-0.8,0.2-0.8c0.1,0,0.2,0.4,0.2,0.8
				C910.3,172.4,910.3,172.8,910.1,172.8z"/>
			<path style="fill:#052A33;" d="M910.7,218.6c-0.1,0-0.2-0.4-0.2-0.8c0-0.5,0.1-0.8,0.2-0.8c0.1,0,0.2,0.4,0.2,0.8
				C911,218.3,910.9,218.6,910.7,218.6z"/>
			<path style="fill:#052A33;" d="M909.1,95.1c-0.1,0-0.2-0.4-0.2-0.8c0-0.5,0.1-0.8,0.2-0.8c0.1,0,0.2,0.4,0.2,0.8
				C909.3,94.7,909.2,95.1,909.1,95.1z"/>
		</g>
		<polygon style="fill:#052A33;" points="908.8,89.7 908.9,93.5 909.3,93.5 909.3,89.7 		"/>
	</g>
</g>
</svg>
