<svg version="1.1" id="Layer_1" xmlns="http://www.w3.org/2000/svg" xmlns:xlink="http://www.w3.org/1999/xlink" x="0px" y="0px"
	 width="3.9px" height="333.2px" viewBox="0 0 3.9 333.2" style="enable-background:new 0 0 3.9 333.2;" xml:space="preserve" preserveAspectRatio="none">
<g>
	<g>
		<g>
			
				<rect x="-20" y="134.5" transform="matrix(1.039511e-02 -0.9999 0.9999 1.039511e-02 -132.4575 135.5973)" style="fill:#AB6F60;" width="44.6" height="0.4"/>
			
				<rect x="-0.2" y="162.1" transform="matrix(1.038482e-02 -0.9999 0.9999 1.038482e-02 -160.3082 162.5944)" style="fill:#AB6F60;" width="4.4" height="0.4"/>
			
				<rect x="-4.5" y="317.7" transform="matrix(1.039091e-02 -0.9999 0.9999 1.039091e-02 -317.5381 314.9955)" style="fill:#AB6F60;" width="9.7" height="0.4"/>
			
				<rect x="-0.9" y="331.9" transform="matrix(1.041014e-02 -0.9999 0.9999 1.041014e-02 -331.9178 328.9274)" style="fill:#AB6F60;" width="2.2" height="0.4"/>
			
				<rect x="-43.9" y="56.9" transform="matrix(1.039471e-02 -0.9999 0.9999 1.039471e-02 -54.1054 59.6514)" style="fill:#AB6F60;" width="93.9" height="0.4"/>
			
				<rect x="-64.8" y="238.6" transform="matrix(1.039449e-02 -0.9999 0.9999 1.039449e-02 -237.5868 237.4983)" style="fill:#AB6F60;" width="132" height="0.4"/>
			<path style="fill:#AB6F60;" d="M0.5,310c-0.1,0-0.2-0.5-0.2-1.1c0-0.6,0.1-1.1,0.2-1.1c0.1,0,0.2,0.5,0.2,1.1
				C0.7,309.5,0.6,310,0.5,310z"/>
			<path style="fill:#AB6F60;" d="M0.3,328c-0.1,0-0.2-0.5-0.2-1.1c0-0.6,0.1-1.1,0.2-1.1c0.1,0,0.2,0.5,0.2,1.1
				C0.5,327.5,0.4,328,0.3,328z"/>
			<path style="fill:#AB6F60;" d="M2.5,109.3c-0.1,0-0.2-0.5-0.2-1.1s0.1-1.1,0.2-1.1c0.1,0,0.2,0.5,0.2,1.1
				C2.8,108.9,2.7,109.3,2.5,109.3z"/>
			<path style="fill:#AB6F60;" d="M1.9,169.7c-0.1,0-0.2-0.5-0.2-1.1c0-0.6,0.1-1.1,0.2-1.1c0.1,0,0.2,0.5,0.2,1.1
				C2.1,169.2,2,169.7,1.9,169.7z"/>
			<path style="fill:#AB6F60;" d="M3.6,7.1C3.5,7.1,3.4,6.6,3.4,6C3.4,5.5,3.5,5,3.6,5c0.1,0,0.2,0.5,0.2,1.1
				C3.8,6.6,3.7,7.1,3.6,7.1z"/>
		</g>
		
			<rect x="1.2" y="2.3" transform="matrix(1.039368e-02 -0.9999 0.9999 1.039368e-02 1.1262 6.1159)" style="fill:#AB6F60;" width="5" height="0.4"/>
	</g>
</g>
</svg>
