<svg version="1.1" id="Layer_1" xmlns="http://www.w3.org/2000/svg" xmlns:xlink="http://www.w3.org/1999/xlink" x="0px" y="0px"
	 width="4px" height="523.6px" viewBox="0 0 4 523.6" style="enable-background:new 0 0 4 523.6;" xml:space="preserve" preserveAspectRatio="none">
<g>
	<g>
		<g>
			<polygon style="fill:#714C14;" points="1.9,246.7 2.3,176.6 2.8,176.6 2.3,246.7 			"/>
			<polygon style="fill:#714C14;" points="1.8,258.4 1.8,251.5 2.3,251.5 2.2,258.4 			"/>
			<polygon style="fill:#714C14;" points="0.1,507.1 0.2,491.9 0.7,491.9 0.6,507.1 			"/>
			<polygon style="fill:#714C14;" points="0,523.6 0,520.2 0.5,520.2 0.4,523.6 			"/>
			<polygon style="fill:#714C14;" points="2.4,163.6 3.4,16 3.9,16 2.9,163.6 			"/>
			<polygon style="fill:#714C14;" points="0.3,478.9 1.7,271.5 2.1,271.5 0.7,478.9 			"/>
			<path style="fill:#714C14;" d="M0.5,487.1c-0.1,0-0.2-0.8-0.2-1.7c0-0.9,0.1-1.7,0.2-1.7c0.1,0,0.2,0.8,0.2,1.7
				S0.6,487.1,0.5,487.1z"/>
			<path style="fill:#714C14;" d="M0.3,515.3c-0.1,0-0.2-0.8-0.2-1.7c0-0.9,0.1-1.7,0.2-1.7c0.1,0,0.2,0.8,0.2,1.7
				C0.5,514.6,0.4,515.3,0.3,515.3z"/>
			<path style="fill:#714C14;" d="M2.6,171.8c-0.1,0-0.2-0.8-0.2-1.7c0-0.9,0.1-1.7,0.2-1.7c0.1,0,0.2,0.8,0.2,1.7
				C2.8,171.1,2.7,171.8,2.6,171.8z"/>
			<path style="fill:#714C14;" d="M2,266.6c-0.1,0-0.2-0.8-0.2-1.7c0-0.9,0.1-1.7,0.2-1.7c0.1,0,0.2,0.8,0.2,1.7S2.1,266.6,2,266.6z
				"/>
			<path style="fill:#714C14;" d="M3.7,11.2c-0.1,0-0.2-0.8-0.2-1.7s0.1-1.7,0.2-1.7c0.1,0,0.2,0.8,0.2,1.7S3.8,11.2,3.7,11.2z"/>
		</g>
		<polygon style="fill:#714C14;" points="3.5,0 3.5,7.8 3.9,7.8 4,0 		"/>
	</g>
</g>
</svg>
