<svg version="1.1" id="Layer_1" xmlns="http://www.w3.org/2000/svg" xmlns:xlink="http://www.w3.org/1999/xlink" x="0px" y="0px"
	 width="157.1px" height="75.8px" viewBox="0 0 157.1 75.8" style="enable-background:new 0 0 157.1 75.8;" xml:space="preserve">
<g>
	<path style="fill:#05232E;" d="M121.9,24.5l-18.8-2.5c-0.2-5.2-6.2-9.9-14.3-11L75.7,9.2c-8.2-1.1-15.2,1.9-16.7,6.9l-18.8-2.5
		c-5.6-0.7-10.7,3.2-11.4,8.7l-2.5,18.4c-0.7,5.6,3.2,10.7,8.7,11.4L116.7,63c5.6,0.7,10.7-3.2,11.4-8.7l2.5-18.4
		C131.3,30.3,127.4,25.2,121.9,24.5z M75.1,13.3L88.2,15c5.9,0.8,9.9,3.7,10.6,6.4l-35.6-4.8C64.6,14.3,69.2,12.5,75.1,13.3z
		 M124,53.7c-0.4,3.3-3.5,5.6-6.8,5.2L35.6,48c-3.3-0.4-5.6-3.5-5.2-6.8l2.5-18.4c0.4-3.3,3.5-5.6,6.8-5.2l19.1,2.6l43.4,5.8
		l19.1,2.6c3.3,0.4,5.6,3.5,5.2,6.8L124,53.7z"/>
	<path style="fill:#05232E;" d="M53.1,21.7l-5.8-0.8c-5.6-0.7-10.7,3.2-11.4,8.7l-0.8,5.8c-0.7,5.6,3.2,10.7,8.7,11.4l5.8,0.8
		c5.6,0.7,10.7-3.2,11.4-8.7l0.8-5.8C62.5,27.5,58.6,22.4,53.1,21.7z M56.9,38.4c-0.4,3.3-3.5,5.6-6.8,5.2l-5.8-0.8
		c-3.3-0.4-5.6-3.5-5.2-6.8l0.8-5.8c0.4-3.3,3.5-5.6,6.8-5.2l5.8,0.8c3.3,0.4,5.6,3.5,5.2,6.8L56.9,38.4z"/>
	<path style="fill:#05232E;" d="M113.1,29.7l-5.8-0.8c-5.6-0.7-10.7,3.2-11.4,8.7l-0.8,5.8c-0.7,5.6,3.2,10.7,8.7,11.4l5.8,0.8
		c5.6,0.7,10.7-3.2,11.4-8.7l0.8-5.8C122.6,35.5,118.7,30.4,113.1,29.7z M117,46.4c-0.4,3.3-3.5,5.6-6.8,5.2l-5.8-0.8
		c-3.3-0.4-5.6-3.5-5.2-6.8l0.8-5.8c0.4-3.3,3.5-5.6,6.8-5.2l5.8,0.8c3.3,0.4,5.6,3.5,5.2,6.8L117,46.4z"/>
	<path style="fill:#05232E;" d="M85.4,35.4l-12.9-1.7c-3.6-0.5-6.9,2-7.3,5.6l-0.5,3.6c-0.5,3.6,2,6.9,5.6,7.3L83.2,52
		c3.6,0.5,6.9-2,7.3-5.6l0.5-3.6C91.5,39.1,89,35.8,85.4,35.4z M86.5,45.8c-0.2,1.3-1.4,2.3-2.7,2.1l-12.9-1.7
		c-1.3-0.2-2.3-1.4-2.1-2.7l0.5-3.6c0.2-1.3,1.4-2.3,2.7-2.1l12.9,1.7c1.3,0.2,2.3,1.4,2.1,2.7L86.5,45.8z"/>
	<path style="fill:#05232E;" d="M67.4,27.1c0.1-1.1-0.6-2-1.7-2.2c-1.1-0.1-2,0.6-2.2,1.7c-0.1,1.1,0.6,2,1.7,2.2
		C66.3,28.9,67.3,28.2,67.4,27.1z"/>
	<path style="fill:#05232E;" d="M74.7,30.1c1.1,0.1,2-0.6,2.2-1.7c0.1-1.1-0.6-2-1.7-2.2c-1.1-0.1-2,0.6-2.2,1.7
		C72.9,29,73.7,29.9,74.7,30.1z"/>
	<path style="fill:#05232E;" d="M84.2,31.3c1.1,0.1,2-0.6,2.2-1.7c0.1-1.1-0.6-2-1.7-2.2c-1.1-0.1-2,0.6-2.2,1.7
		C82.4,30.2,83.1,31.2,84.2,31.3z"/>
	<path style="fill:#05232E;" d="M94.2,28.8c-1.1-0.1-2,0.6-2.2,1.7c-0.1,1.1,0.6,2,1.7,2.2c1.1,0.1,2-0.6,2.2-1.7
		C96,29.9,95.2,28.9,94.2,28.8z"/>
	<path style="fill:#05232E;" d="M18,44.5c-3.9,3-7.8,6-11.7,9c-0.4,0.3-0.9,0.7-1.3,1c-1.7,1.3,0.3,3.9,2,2.6
		c3.4-2.6,6.7-5.2,10.1-7.7c1-0.7,1.9-1.5,2.9-2.2C21.7,45.8,19.7,43.2,18,44.5z"/>
	<path style="fill:#05232E;" d="M17.6,31.8c2.1,0.3,2.5-3,0.4-3.3c-4.9-0.7-9.7-1.3-14.6-2c-0.5-0.1-1.1-0.1-1.6-0.2
		c-2.1-0.3-2.5,3-0.4,3.3c4.2,0.6,8.4,1.1,12.6,1.7C15.2,31.5,16.4,31.6,17.6,31.8z"/>
	<path style="fill:#05232E;" d="M16.8,3.5c-0.7-1-1.5-1.9-2.2-2.9c-1.3-1.7-3.9,0.3-2.6,2c3,3.9,6,7.8,9,11.7c0.3,0.4,0.7,0.9,1,1.3
		c1.3,1.7,3.9-0.3,2.6-2C21.9,10.3,19.3,6.9,16.8,3.5z"/>
	<path style="fill:#05232E;" d="M137.6,63.1c-0.7-1-1.5-1.9-2.2-2.9c-1.3-1.7-3.9,0.3-2.6,2c3,3.9,6,7.8,9,11.7
		c0.3,0.4,0.7,0.9,1,1.3c1.3,1.7,3.9-0.3,2.6-2C142.7,69.8,140.1,66.4,137.6,63.1z"/>
	<path style="fill:#05232E;" d="M155.8,46.9c-4.2-0.6-8.4-1.1-12.6-1.7c-1.2-0.2-2.4-0.3-3.6-0.5c-2.1-0.3-2.5,3-0.4,3.3
		c4.9,0.7,9.7,1.3,14.6,2c0.5,0.1,1.1,0.1,1.6,0.2C157.4,50.5,157.9,47.2,155.8,46.9z"/>
	<path style="fill:#05232E;" d="M139.2,31.3c3.4-2.6,6.7-5.2,10.1-7.7c1-0.7,1.9-1.5,2.9-2.2c1.7-1.3-0.3-3.9-2-2.6
		c-3.9,3-7.8,6-11.7,9c-0.4,0.3-0.9,0.7-1.3,1C135.5,30,137.5,32.6,139.2,31.3z"/>
</g>
</svg>
