<svg version="1.1" id="Layer_1" xmlns="http://www.w3.org/2000/svg" xmlns:xlink="http://www.w3.org/1999/xlink" x="0px" y="0px"
	 width="472.4px" height="60.6px" viewBox="0 0 472.4 60.6" style="enable-background:new 0 0 472.4 60.6;" xml:space="preserve" preserveAspectRatio="none">
<polygon style="fill:#EFAB25;" points="0.4,4.1 470.7,1 466.7,53 22.4,60.6 "/>
<g>
	<g>
		<polygon style="fill:#422C15;" points="469,17 470.2,4.5 347.5,3.8 347.6,1.8 472.4,2.5 470.9,17.2 		"/>
		
			<rect x="461.6" y="32.3" transform="matrix(9.870292e-02 -0.9951 0.9951 9.870292e-02 388.9592 496.0887)" style="fill:#422C15;" width="13.5" height="2"/>
		<polygon style="fill:#422C15;" points="13,31 22.5,56.8 23.4,56.8 23.4,58.8 21.1,58.8 11.1,31.7 		"/>
		
			<rect x="1.1" y="0.8" transform="matrix(0.9388 -0.3444 0.3444 0.9388 -1.2975 0.9725)" style="fill:#422C15;" width="2" height="6.7"/>
		
			<rect x="176.2" y="-142.8" transform="matrix(5.307300e-03 -1 1 5.307300e-03 174.2883 179.0813)" style="fill:#422C15;" width="2" height="289.6"/>
		
			<rect x="49" y="55.6" transform="matrix(1 -5.350025e-03 5.350025e-03 1 -0.2989 1.3517)" style="fill:#422C15;" width="406.9" height="2"/>
		<path style="fill:#422C15;" d="M32.9,57.7c0-0.6,1.5-1,3.3-1c1.8,0,3.3,0.4,3.3,1c0,0.6-1.5,1-3.3,1
			C34.4,58.7,32.9,58.3,32.9,57.7z"/>
		<path style="fill:#422C15;" d="M6.5,16.2C7,16,8,17.2,8.6,19c0.6,1.7,0.7,3.3,0.2,3.4c-0.5,0.2-1.4-1-2.1-2.8
			C6.1,17.9,6,16.4,6.5,16.2z"/>
		<path style="fill:#422C15;" d="M338.1,2.8c0,0.6-1.5,1-3.3,1c-1.8,0-3.3-0.5-3.3-1c0-0.6,1.5-1,3.3-1
			C336.6,1.8,338.1,2.2,338.1,2.8z"/>
		<path style="fill:#422C15;" d="M465.5,55.4c0-0.2,0.1-0.4,0.1-0.6c0-0.1-0.1-0.2-0.1-0.3c0-0.1-0.1,0-0.1-0.3c0-0.5,0-1,0-1.5
			c0.2-1.8,0.8-3.2,1.3-3.2c0.5,0.1,0.8,1.6,0.7,3.4c-0.1,0.5-0.1,1-0.3,1.5c0,0.1-0.1,0.6-0.2,0.9c-0.1,0.3-0.2,0.6-0.2,0.7
			C465.8,55.8,465.5,55.6,465.5,55.4z"/>
		<path style="fill:#422C15;" d="M22.9,1.1c0,0.6-1.5,1-3.3,1c-1.8,0-3.3-0.5-3.3-1c0-0.6,1.5-1,3.3-1C21.4,0.1,22.9,0.6,22.9,1.1z"
			/>
	</g>
	
		<rect x="7.6" y="-6.6" transform="matrix(5.306412e-03 -1 1 5.306412e-03 7.5194 9.6356)" style="fill:#422C15;" width="2" height="15.3"/>
</g>
</svg>
