<svg version="1.1" id="Layer_1" xmlns="http://www.w3.org/2000/svg" xmlns:xlink="http://www.w3.org/1999/xlink" x="0px" y="0px"
	 width="1214.2px" height="459px" viewBox="0 0 1214.2 459" style="enable-background:new 0 0 1214.2 459;" xml:space="preserve" preserveAspectRatio="none">
<g>
	<g>
		
			<rect x="855.3" y="330.3" transform="matrix(2.428850e-02 -0.9997 0.9997 2.428850e-02 386.206 1294.8859)" style="fill:#66200E;" width="2.3" height="238.6"/>
		
			<rect x="707.9" y="434.3" transform="matrix(2.428804e-02 -0.9997 0.9997 2.428804e-02 245.9018 1144.0114)" style="fill:#66200E;" width="2.3" height="23.5"/>
		
			<rect x="1.5" y="289.3" transform="matrix(8.526600e-02 -0.9964 0.9964 8.526600e-02 -264.3762 292.9946)" style="fill:#66200E;" width="51.8" height="2.3"/>
		
			<rect x="28.1" y="213.4" transform="matrix(8.526593e-02 -0.9964 0.9964 8.526593e-02 -182.8264 230.0281)" style="fill:#66200E;" width="11.6" height="2.3"/>
		<polygon style="fill:#66200E;" points="1020.2,452.4 1194.4,456.6 1177.9,131.3 1180.2,131.2 1196.8,459 1020.1,454.7 		"/>
		<polygon style="fill:#66200E;" points="22.5,360.7 16.8,428 652.8,443.5 652.8,445.8 14.3,430.3 20.3,360.5 		"/>
		<path style="fill:#66200E;" d="M23.8,332.7c0.6,0.1,0.9,2.7,0.7,5.8c-0.3,3.2-1,5.7-1.6,5.6s-0.9-2.7-0.7-5.8
			C22.4,335.2,23.2,332.7,23.8,332.7z"/>
		
			<ellipse transform="matrix(8.526552e-02 -0.9964 0.9964 8.526552e-02 -212.8391 253.2251)" style="fill:#66200E;" cx="31.5" cy="242.5" rx="5.7" ry="1.1"/>
		<path style="fill:#66200E;" d="M992.2,452.9c0-0.6,2.6-1.1,5.8-1s5.7,0.7,5.7,1.3c0,0.6-2.6,1.1-5.8,1
			C994.7,454.1,992.2,453.5,992.2,452.9z"/>
		<path style="fill:#66200E;" d="M669.3,445c0-0.6,2.6-1.1,5.8-1s5.7,0.7,5.7,1.3c0,0.6-2.6,1.1-5.8,1
			C671.8,446.2,669.3,445.7,669.3,445z"/>
	</g>
</g>
<g>
	<g>
		<rect x="670.4" y="55.5" style="fill:#66200E;" width="153" height="1.5"/>
		<rect x="644.7" y="55.5" style="fill:#66200E;" width="15.1" height="1.5"/>
		<rect x="101.7" y="55.5" style="fill:#66200E;" width="33.2" height="1.5"/>
		<rect x="65.7" y="55.5" style="fill:#66200E;" width="7.4" height="1.5"/>
		<polygon style="fill:#66200E;" points="851.9,55.5 1169.9,55.5 1170.3,52.6 1171.7,52.8 1171.2,57 851.9,57 		"/>
		<rect x="163.4" y="55.5" style="fill:#66200E;" width="452.9" height="1.5"/>
		<ellipse style="fill:#66200E;" cx="149.1" cy="56.2" rx="3.7" ry="0.7"/>
		<ellipse style="fill:#66200E;" cx="87.4" cy="56.2" rx="3.7" ry="0.7"/>
		<path style="fill:#66200E;" d="M833.9,56.2c0-0.4,1.6-0.7,3.7-0.7c2,0,3.7,0.3,3.7,0.7s-1.6,0.7-3.7,0.7
			C835.6,57,833.9,56.6,833.9,56.2z"/>
		<path style="fill:#66200E;" d="M626.8,56.2c0-0.4,1.6-0.7,3.7-0.7c2,0,3.7,0.3,3.7,0.7s-1.6,0.7-3.7,0.7
			C628.5,57,626.8,56.6,626.8,56.2z"/>
		<path style="fill:#66200E;" d="M1172.5,42.2c-0.4-0.1-0.5-1.7-0.2-3.7s0.8-3.6,1.2-3.5c0.4,0.1,0.5,1.7,0.2,3.7
			C1173.5,40.7,1172.9,42.3,1172.5,42.2z"/>
	</g>
	
		<rect x="1166.2" y="25.7" transform="matrix(0.1397 -0.9902 0.9902 0.1397 984.4851 1185.97)" style="fill:#66200E;" width="17.1" height="1.5"/>
</g>
</svg>
