<svg version="1.1" id="Layer_1" xmlns="http://www.w3.org/2000/svg" xmlns:xlink="http://www.w3.org/1999/xlink" x="0px" y="0px"
	 width="411.6px" height="70.8px" viewBox="0 0 411.6 70.8" style="enable-background:new 0 0 411.6 70.8;" xml:space="preserve" preserveAspectRatio="none">
<polygon style="fill:#2A683D;" points="391.7,67.8 19.2,70.8 0,5.2 407.1,9.3 "/>
<g>
	<g>
		<g>
			<polygon style="fill:#152F1D;" points="9.5,13.1 24.8,65.6 90,65 90,67.4 23,67.9 7.2,13.8 			"/>
			<polygon style="fill:#152F1D;" points="12.3,2.4 6.3,2.4 7.1,5.1 4.8,5.7 3.2,0 12.3,0.1 			"/>
			
				<rect x="393.9" y="22.2" transform="matrix(0.2546 -0.9671 0.9671 0.2546 280.8498 411.1165)" style="fill:#152F1D;" width="26.4" height="2.3"/>
			
				<rect x="394.3" y="59.7" transform="matrix(0.2546 -0.9671 0.9671 0.2546 237.1901 429.5362)" style="fill:#152F1D;" width="5.9" height="2.3"/>
			
				<rect x="112.6" y="63.8" transform="matrix(1 -7.946275e-03 7.946275e-03 1 -0.509 1.9142)" style="fill:#152F1D;" width="256.1" height="2.3"/>
			
				<rect x="213.7" y="-176.6" transform="matrix(9.963315e-03 -1 1 9.963315e-03 209.4529 218.1096)" style="fill:#152F1D;" width="2.3" height="359.8"/>
			<path style="fill:#152F1D;" d="M409,5.2c0,0.6-1.3,1.2-2.9,1.1c-1.6,0-2.9-0.6-2.9-1.2c0-0.6,1.3-1.2,2.9-1.1
				C407.7,4,409,4.6,409,5.2z"/>
			<path style="fill:#152F1D;" d="M400.1,49.9c-0.6-0.2-0.8-1.6-0.4-3.1c0.4-1.6,1.3-2.7,1.9-2.5s0.8,1.6,0.4,3.1
				S400.7,50.1,400.1,49.9z"/>
			<path style="fill:#152F1D;" d="M98.4,66.1c0-0.6,1.3-1.2,2.9-1.2c1.6,0,2.9,0.5,2.9,1.1c0,0.6-1.3,1.2-2.9,1.2
				C99.7,67.3,98.4,66.8,98.4,66.1z"/>
			<path style="fill:#152F1D;" d="M26.6,1.4c0,0.6-1.3,1.2-2.9,1.1c-1.6,0-2.9-0.6-2.9-1.2s1.3-1.2,2.9-1.1S26.6,0.8,26.6,1.4z"/>
			<path style="fill:#152F1D;" d="M377.1,63.9c0-0.6,1.3-1.2,2.9-1.2c1.6,0,2.9,0.5,2.9,1.1c0,0.6-1.3,1.2-2.9,1.2
				C378.4,65.1,377.1,64.6,377.1,63.9z"/>
		</g>
		
			<rect x="382.9" y="62.7" transform="matrix(1 -7.940294e-03 7.940294e-03 1 -0.4945 3.0962)" style="fill:#152F1D;" width="13.6" height="2.3"/>
	</g>
</g>
</svg>
