<svg version="1.1" id="Layer_1" xmlns="http://www.w3.org/2000/svg" xmlns:xlink="http://www.w3.org/1999/xlink" x="0px" y="0px"
	 width="1194.1px" height="1009.3px" viewBox="0 0 1194.1 1009.3" style="enable-background:new 0 0 1194.1 1009.3;"
	 xml:space="preserve" preserveAspectRatio="none">
<g>
	<path style="fill:#856214;" d="M1193,312.7"/>
	<g>
		<g>
			
				<rect x="364.5" y="28" transform="matrix(0.9995 -3.087130e-02 3.087130e-02 0.9995 -0.6689 14.7745)" style="fill:#856214;" width="227.3" height="2.2"/>
			
				<rect x="607.4" y="23.6" transform="matrix(0.9995 -3.086910e-02 3.086910e-02 0.9995 -0.468 19.1071)" style="fill:#856214;" width="22.4" height="2.2"/>
			
				<rect x="1189.6" y="209.9" transform="matrix(0.9996 -2.886334e-02 2.886334e-02 0.9996 -6.2754 34.4665)" style="fill:#856214;" width="2.2" height="49.4"/>
			
				<rect x="1191.7" y="301.6" transform="matrix(0.9996 -2.886660e-02 2.886660e-02 0.9996 -8.3687 34.5611)" style="fill:#856214;" width="2.2" height="11.1"/>
			<polygon style="fill:#856214;" points="322.3,35 60.4,43 53.7,257.6 51.5,257.6 58.3,40.9 322.2,32.8 			"/>
			<polygon style="fill:#856214;" points="1187.7,167.6 1183.1,8.4 672.1,24.2 672.1,22 1185.2,6.1 1189.9,167.6 			"/>
			<path style="fill:#856214;" d="M1189.6,194.2c-0.6,0-1.2-2.4-1.3-5.4c-0.1-3,0.3-5.5,0.9-5.5s1.2,2.4,1.3,5.4
				C1190.6,191.8,1190.2,194.2,1189.6,194.2z"/>
			<path style="fill:#856214;" d="M1192.2,285.9c-0.6,0-1.2-2.4-1.3-5.4c-0.1-3,0.3-5.5,0.9-5.5s1.2,2.4,1.3,5.4
				S1192.8,285.9,1192.2,285.9z"/>
			<path style="fill:#856214;" d="M348.9,33c0,0.6-2.4,1.2-5.4,1.3c-3,0.1-5.5-0.3-5.5-0.9c0-0.6,2.4-1.2,5.4-1.3
				C346.4,32,348.8,32.4,348.9,33z"/>
			<path style="fill:#856214;" d="M656.4,23.5c0,0.6-2.4,1.2-5.4,1.3c-3,0.1-5.5-0.3-5.5-0.9c0-0.6,2.4-1.2,5.4-1.3
				S656.4,22.9,656.4,23.5z"/>
			<path style="fill:#856214;" d="M52.1,273.3c0.6,0,1,2.5,0.9,5.5c-0.1,3-0.7,5.5-1.3,5.4c-0.6,0-1-2.5-0.9-5.5
				C50.9,275.7,51.5,273.3,52.1,273.3z"/>
		</g>
		
			<rect x="38.7" y="295.8" transform="matrix(3.146611e-02 -0.9995 0.9995 3.146611e-02 -247.0247 338.8979)" style="fill:#856214;" width="25.4" height="2.2"/>
	</g>
</g>
<g>
	<path style="fill:#856214;" d="M1166.6,392.6"/>
	<g>
		<g>
			<polygon style="fill:#856214;" points="654.1,976.7 967.2,962.5 967.3,965.5 654.3,979.6 			"/>
			<polygon style="fill:#856214;" points="601.7,979.1 632.5,977.7 632.6,980.6 601.8,982 			"/>
			<polygon style="fill:#856214;" points="22.3,510.2 19.8,576.4 16.8,576.3 19.3,510.1 			"/>
			<polygon style="fill:#856214;" points="25.1,438.6 24.5,453.4 21.5,453.3 22.1,438.5 			"/>
			<polygon style="fill:#856214;" points="1025.5,959.9 1178.2,953 1166.7,462.3 1169.7,462.3 1181.3,955.8 1025.6,962.8 			"/>
			<polygon style="fill:#856214;" points="17.6,633.2 3.1,1006.2 543.3,981.7 543.5,984.7 0,1009.3 14.6,633.1 			"/>
			<path style="fill:#856214;" d="M17.5,597.4c0.8,0,1.4,3.3,1.2,7.4c-0.2,4.1-1,7.3-1.8,7.3c-0.8,0-1.4-3.3-1.2-7.4
				C15.8,600.6,16.6,597.4,17.5,597.4z"/>
			<path style="fill:#856214;" d="M22.2,474.4c0.8,0,1.4,3.3,1.2,7.4c-0.2,4.1-1,7.3-1.8,7.3c-0.8,0-1.4-3.3-1.2-7.4
				C20.6,477.7,21.4,474.4,22.2,474.4z"/>
			<path style="fill:#856214;" d="M988.9,963c0-0.8,3.3-1.6,7.5-1.8s7.6,0.3,7.6,1.1c0,0.8-3.3,1.6-7.5,1.8
				C992.3,964.3,988.9,963.8,988.9,963z"/>
			<path style="fill:#856214;" d="M565,982.2c0-0.8,3.3-1.6,7.5-1.8c4.2-0.2,7.6,0.3,7.6,1.1c0,0.8-3.3,1.6-7.5,1.8
				C568.5,983.5,565.1,983,565,982.2z"/>
			<path style="fill:#856214;" d="M1167.7,441.2c-0.8,0-1.6-3.3-1.7-7.3c-0.1-4.1,0.5-7.4,1.3-7.4c0.8,0,1.6,3.3,1.7,7.3
				C1169.2,437.9,1168.6,441.2,1167.7,441.2z"/>
		</g>
		<polygon style="fill:#856214;" points="1165.1,392.6 1165.9,426.6 1168.9,426.5 1168.1,392.5 		"/>
	</g>
</g>
</svg>
