<svg version="1.1" id="Layer_1" xmlns="http://www.w3.org/2000/svg" xmlns:xlink="http://www.w3.org/1999/xlink" x="0px" y="0px"
	 width="3.9px" height="253.2px" viewBox="0 0 3.9 253.2" style="enable-background:new 0 0 3.9 253.2;" xml:space="preserve" preserveAspectRatio="none">
<g>
	<g>
		<g>
			<polygon style="fill:#052A33;" points="1.8,119.3 2.3,85.4 2.7,85.4 2.3,119.3 			"/>
			<polygon style="fill:#052A33;" points="1.8,125 1.8,121.7 2.2,121.7 2.2,125 			"/>
			<polygon style="fill:#052A33;" points="0.1,245.3 0.2,237.9 0.6,237.9 0.5,245.3 			"/>
			<polygon style="fill:#052A33;" points="0,253.2 0,251.6 0.5,251.6 0.4,253.2 			"/>
			<polygon style="fill:#052A33;" points="2.4,79.1 3.4,7.8 3.8,7.8 2.8,79.1 			"/>
			<polygon style="fill:#052A33;" points="0.3,231.6 1.7,131.3 2.1,131.3 0.7,231.6 			"/>
			<path style="fill:#052A33;" d="M0.5,235.6c-0.1,0-0.2-0.4-0.2-0.8c0-0.5,0.1-0.8,0.2-0.8c0.1,0,0.2,0.4,0.2,0.8
				C0.7,235.2,0.6,235.6,0.5,235.6z"/>
			<path style="fill:#052A33;" d="M0.3,249.3c-0.1,0-0.2-0.4-0.2-0.8c0-0.5,0.1-0.8,0.2-0.8c0.1,0,0.2,0.4,0.2,0.8
				C0.5,248.9,0.4,249.3,0.3,249.3z"/>
			<path style="fill:#052A33;" d="M2.6,83.1c-0.1,0-0.2-0.4-0.2-0.8c0-0.5,0.1-0.8,0.2-0.8c0.1,0,0.2,0.4,0.2,0.8
				C2.8,82.7,2.7,83.1,2.6,83.1z"/>
			<path style="fill:#052A33;" d="M1.9,129c-0.1,0-0.2-0.4-0.2-0.8c0-0.5,0.1-0.8,0.2-0.8c0.1,0,0.2,0.4,0.2,0.8
				C2.1,128.6,2,129,1.9,129z"/>
			<path style="fill:#052A33;" d="M3.6,5.4C3.5,5.4,3.4,5,3.4,4.6c0-0.5,0.1-0.8,0.2-0.8c0.1,0,0.2,0.4,0.2,0.8
				C3.8,5,3.7,5.4,3.6,5.4z"/>
		</g>
		<polygon style="fill:#052A33;" points="3.5,0 3.4,3.8 3.9,3.8 3.9,0 		"/>
	</g>
</g>
</svg>
