<svg version="1.1" id="Layer_1" xmlns="http://www.w3.org/2000/svg" xmlns:xlink="http://www.w3.org/1999/xlink" x="0px" y="0px"
	 width="72.5px" height="277.5px" viewBox="0 0 72.5 277.5" style="enable-background:new 0 0 72.5 277.5;" xml:space="preserve">
<path style="fill:#856214;" d="M65.1,206.4c-0.2-0.2-0.2-0.4-0.1-0.5c0,0,0-0.1,0.1-0.1l1.4-0.3c1-0.2,1.8-1,2.1-2.1
	c0.3-1.1,0-2.4-0.8-3.2l-5.5-5.7c-0.2-0.2-0.2-0.4-0.1-0.5c0,0,0-0.1,0.1-0.1l1.4-0.3c1-0.2,1.8-1,2.1-2.1c0.3-1.1,0-2.4-0.8-3.2
	l-14.5-14.8c-1.1-1.2-2.5-1.7-3.8-1.3c-1.3,0.3-2.3,1.4-2.8,2.9l-6.3,19.7l0,0c-0.3,1.1-0.1,2.4,0.7,3.2c0.7,0.8,1.8,1.1,2.8,0.9
	l1.4-0.3c0,0,0.1,0.1,0.1,0.1c0.1,0.1,0.2,0.3,0.1,0.5l-2.4,7.5l0,0c-0.2,0.7-0.2,1.4,0,2l-4.6-4.7c-1.1-1.2-2.5-1.7-3.8-1.3
	c-1.3,0.3-2.3,1.4-2.8,2.9l-2.1,6.7l-2.4-2.5c-0.2-0.2-0.2-0.4-0.1-0.5c0,0,0-0.1,0.1-0.1l1.4-0.3c1-0.2,1.8-1,2.1-2.1
	c0.3-1.1,0-2.4-0.8-3.2L13,188.5c-1.1-1.2-2.5-1.6-3.8-1.3s-2.3,1.4-2.8,2.9l-6.3,19.7l0,0c-0.3,1.1-0.1,2.4,0.7,3.2
	c0.7,0.8,1.8,1.1,2.8,0.9l1.4-0.3c0,0,0.1,0.1,0.1,0.1c0.1,0.1,0.2,0.3,0.1,0.5L3,221.7l0,0c-0.3,1.1-0.1,2.4,0.7,3.2
	c0.7,0.8,1.8,1.1,2.8,0.9l1.4-0.3c0,0,0.1,0.1,0.1,0.1c0.1,0.1,0.2,0.3,0.1,0.5l-2.4,7.5l0,0c-0.3,1.1-0.1,2.4,0.7,3.2
	c0.7,0.8,1.8,1.1,2.8,0.9l8.2-1.9c1.4,5.9,2.8,11.8,4.2,17.7c1,4.1,1.9,8.2,2.9,12.3c0.6,2.3,1.1,4.6,1.7,7c0.2,1,0.5,2.1,0.7,3.1
	c0.1,0.3,0.1,0.5,0.2,0.8c0,0,0,0,0,0c0.3,1.4,2.5,0.9,2.2-0.5c0-0.2-0.1-0.4-0.1-0.6c-0.2-0.9-0.4-1.8-0.7-2.8
	c-0.5-2.1-1-4.3-1.5-6.4c-0.9-3.8-1.8-7.7-2.7-11.5c-1.4-6-2.9-12.1-4.3-18.1c-0.1-0.5-0.2-0.9-0.3-1.4l2.4-0.6
	c1.4,5.9,2.8,11.8,4.2,17.7c1,4.1,1.9,8.2,2.9,12.3c0.6,2.3,1.1,4.6,1.7,7c0.2,1,0.5,2.1,0.7,3.1c0.1,0.3,0.1,0.5,0.2,0.8
	c0,0,0,0,0,0c0.3,1.4,2.5,0.9,2.2-0.5c0-0.2-0.1-0.4-0.1-0.6c-0.2-0.9-0.4-1.8-0.7-2.8c-0.5-2.1-1-4.3-1.5-6.4
	c-0.9-3.8-1.8-7.7-2.7-11.5c-1.4-6-2.9-12.1-4.3-18.1c-0.1-0.5-0.2-0.9-0.3-1.4l2.7-0.6l-1.1,3.5l0,0c-0.3,1.1-0.1,2.4,0.7,3.2
	c0.7,0.8,1.8,1.1,2.8,0.9l1.4-0.3c0,0,0.1,0.1,0.1,0.1c0.1,0.1,0.2,0.3,0.1,0.5l-2.4,7.5l0,0c-0.3,1.1-0.1,2.4,0.7,3.2
	c0.7,0.8,1.8,1.1,2.8,0.9l8.1-1.9c1.2,5.2,2.5,10.4,3.7,15.6c0.4,1.6,0.8,3.3,1.2,4.9c0,0.1,0.1,0.2,0.1,0.3
	c0.3,1.4,2.5,0.9,2.2-0.5c-0.1-0.5-0.2-1-0.4-1.5c-0.7-3-1.4-6-2.1-9c-0.8-3.4-1.6-6.9-2.4-10.3l2.1-0.5c1.2,5.2,2.5,10.4,3.7,15.6
	c0.4,1.6,0.8,3.3,1.2,4.9c0,0.1,0.1,0.2,0.1,0.3c0.3,1.4,2.5,0.9,2.2-0.5c-0.1-0.5-0.2-1-0.4-1.5c-0.7-3-1.4-6-2.1-9
	c-0.8-3.4-1.6-6.9-2.4-10.3l7.9-1.9c1-0.2,1.8-1,2.1-2.1c0.3-1.1,0-2.4-0.8-3.2l-5.5-5.7c-0.2-0.2-0.2-0.4-0.1-0.5
	c0,0,0-0.1,0.1-0.1l1.4-0.3c1-0.2,1.8-1,2.1-2.1c0.3-1.1,0-2.4-0.8-3.2l-5.5-5.7c-0.2-0.2-0.2-0.4-0.1-0.5c0,0,0-0.1,0.1-0.1
	l1.4-0.3c1-0.2,1.8-1,2.1-2.1c0-0.1,0.1-0.2,0.1-0.4l3.3-0.8c1.6,6.9,3.2,13.7,4.9,20.6c1.1,4.7,2.2,9.4,3.3,14.1
	c0.6,2.6,1.2,5.2,1.8,7.8c0.3,1.1,0.5,2.2,0.8,3.3c0.1,0.2,0.1,0.5,0.2,0.7c0,0,0,0,0,0c0.3,1.4,2.5,0.9,2.2-0.5
	c0-0.2-0.1-0.4-0.1-0.6c-0.2-1-0.5-1.9-0.7-2.9c-0.6-2.4-1.1-4.7-1.7-7.1c-1-4.4-2.1-8.8-3.1-13.2c-1.7-7.1-3.4-14.1-5-21.2
	c-0.1-0.5-0.2-1-0.3-1.4l2.5-0.6c1.6,6.9,3.2,13.7,4.9,20.6c1.1,4.7,2.2,9.4,3.3,14.1c0.6,2.6,1.2,5.2,1.8,7.8
	c0.3,1.1,0.5,2.2,0.8,3.3c0.1,0.2,0.1,0.5,0.2,0.7c0,0,0,0,0,0c0.3,1.4,2.5,0.9,2.2-0.5c0-0.2-0.1-0.4-0.1-0.6
	c-0.2-1-0.5-1.9-0.7-2.9c-0.6-2.4-1.1-4.7-1.7-7.1c-1-4.4-2.1-8.8-3.1-13.2c-1.7-7.1-3.4-14.1-5-21.2c-0.1-0.5-0.2-1-0.3-1.4
	l7.9-1.9c1-0.2,1.8-1,2.1-2.1c0.3-1.1,0-2.4-0.8-3.2L65.1,206.4z M8.7,235.1c0,0-0.1,0-0.1-0.1c-0.1-0.1-0.2-0.3-0.1-0.5l2.4-7.5
	c0.4-1.1,0.1-2.4-0.7-3.2c-0.7-0.8-1.8-1.1-2.8-0.9l-1.4,0.3c0,0-0.1,0-0.1-0.1c-0.1-0.1-0.2-0.3-0.1-0.5l2.4-7.5
	c0.4-1.1,0.1-2.4-0.7-3.2c-0.7-0.8-1.8-1.1-2.8-0.9l-1.4,0.3c0,0-0.1,0-0.1-0.1c-0.1-0.1-0.2-0.3-0.1-0.5l6.3-19.8
	c0.2-0.6,0.5-1,0.8-1c0.3-0.1,0.7,0.2,1.1,0.6l14.5,14.8l0,0c0.1,0.1,0.1,0.3,0.1,0.5c0,0.1-0.1,0.1-0.1,0.1l-1.4,0.3
	c-1,0.2-1.8,1-2.1,2.1c-0.3,1.1,0,2.4,0.8,3.2l3.5,3.6l-3.2,10l0,0c-0.3,1.1-0.1,2.4,0.7,3.2c0.7,0.8,1.8,1.1,2.8,0.9L28,229
	c0,0,0.1,0.1,0.1,0.1c0,0,0,0,0,0c0,0.1,0.1,0.1,0.1,0.2c0,0.1,0,0.1,0,0.2c0,0,0,0.1,0,0.1l-0.3,0.9L8.7,235.1z M48.5,221.2
	c0,0.1-0.1,0.1-0.1,0.1l-1.4,0.3c-1,0.2-1.8,1-2.1,2.1c-0.3,1.1,0,2.4,0.8,3.2l5.5,5.6l0,0c0.1,0.1,0.1,0.3,0.1,0.5
	c0,0.1-0.1,0.1-0.1,0.1l-1.4,0.3c-1,0.2-1.8,1-2.1,2.1c-0.3,1.1,0,2.4,0.8,3.2l5.5,5.6l0,0c0.1,0.1,0.1,0.3,0.1,0.5
	c0,0.1-0.1,0.1-0.1,0.1l-22.4,5.3c0,0-0.1,0-0.1-0.1c-0.1-0.1-0.2-0.3-0.1-0.5l2.4-7.5c0.4-1.1,0.1-2.4-0.7-3.2
	c-0.7-0.8-1.8-1.1-2.8-0.9l-1.4,0.3c0,0-0.1,0-0.1-0.1c-0.1-0.1-0.2-0.3-0.1-0.5l2.4-7.5c0.1-0.4,0.2-0.9,0.1-1.3
	c0-0.1,0-0.3-0.1-0.4c0-0.1,0-0.1-0.1-0.2c-0.1-0.5-0.4-0.9-0.7-1.3c-0.7-0.8-1.8-1.1-2.8-0.9l-1.4,0.3c0,0-0.1,0-0.1-0.1
	c-0.1-0.1-0.2-0.3-0.1-0.5l6.3-19.8c0.2-0.6,0.5-1,0.8-1s0.7,0.2,1.1,0.6l14.5,14.8l0,0C48.5,220.8,48.5,221,48.5,221.2z
	 M42.5,210.7c0.5,0.2,1,0.2,1.5,0.1l1.4-0.3c0,0,0.1,0.1,0.1,0.1c0.1,0.1,0.2,0.3,0.1,0.5l-0.7,2.2L42.5,210.7z M68.8,214.5
	c0,0.1-0.1,0.1-0.1,0.1l-17.7,4.2l-3.6-3.7l1-3.3c0.4-1.1,0.1-2.4-0.7-3.2c-0.7-0.8-1.8-1.1-2.8-0.9l-1.4,0.3c0,0-0.1,0-0.1-0.1
	c-0.1-0.1-0.2-0.3-0.1-0.5l2.4-7.5c0.4-1.1,0.1-2.4-0.7-3.2c-0.7-0.8-1.8-1.1-2.8-0.9l-1.4,0.3c0,0-0.1,0-0.1-0.1
	c-0.1-0.1-0.2-0.3-0.1-0.5l6.3-19.8c0.2-0.6,0.5-1,0.8-1c0.3-0.1,0.7,0.2,1.1,0.6L63,190.2l0,0c0.1,0.1,0.1,0.3,0.1,0.5
	c0,0.1-0.1,0.1-0.1,0.1l-1.4,0.3c-1,0.2-1.8,1-2.1,2.1c-0.3,1.1,0,2.4,0.8,3.2l5.5,5.6l0,0c0.1,0.1,0.1,0.3,0.1,0.5
	c0,0.1-0.1,0.1-0.1,0.1l-1.4,0.3c-1,0.2-1.8,1-2.1,2.1c-0.3,1.1,0,2.4,0.8,3.2l5.5,5.6l0,0C68.8,214.1,68.8,214.3,68.8,214.5z"/>
<path style="fill:#856214;" d="M54.9,47.9l7.5-13.3c1.9-3.4,0.7-7.7-2.7-9.6l-8.4-4.7c-0.2-0.1-0.3-0.2-0.5-0.3c0,0,0,0,0,0l0,0
	c-5.9-3-13-1.7-17.4,3c-4.1-2.3-8.1-4.6-12.2-6.8c-1.3-0.7-2.6-1.4-3.9-2.2c-0.1,0-0.2-0.1-0.3-0.1l0.3-0.6
	c2.8-5.1,2.3-10.6-1.1-12.5c-0.3-0.1-0.5-0.3-0.8-0.4L14.2,0l-14,24.9l1,0.8C1.5,26,1.8,26.1,2,26.3c3.5,1.9,8.4-0.5,11.2-5.6
	l0.3-0.6c0.4,0.2,0.8,0.4,1.2,0.7c2.3,1.3,4.7,2.6,7,3.9c2.7,1.5,5.4,3,8.1,4.5c-1.7,6.3,1,13.3,7,16.7l8.4,4.7
	C48.7,52.5,53,51.3,54.9,47.9z M59.7,33.1l-7.5,13.3c-1.1,1.9-3.5,2.6-5.4,1.5l-2-1.1c0.1-0.1,0.2-0.1,0.2-0.2
	c2.5-2.2,2.8-6.7,0.9-11.2c-1.9-4.5,0.6-7.4,3.7-10.2c0.5-0.5,1-1,1.4-1.4l7.1,4C60.1,28.8,60.7,31.2,59.7,33.1z M4.5,23.8l11-19.7
	c1,1.4,1,4.5-0.8,7.6l-4.2,7.4C8.8,22.3,6.2,23.9,4.5,23.8z M18.9,20.2c-1.3-0.7-2.6-1.4-3.9-2.2c-0.1,0-0.2-0.1-0.3-0.1l1-1.9
	c0.4,0.2,0.8,0.4,1.2,0.7c2.3,1.3,4.7,2.6,7,3.9c2.6,1.4,5.2,2.9,7.7,4.3c-0.2,0.3-0.4,0.6-0.6,0.9c-0.2,0.3-0.3,0.6-0.5,0.9
	C26.8,24.7,22.9,22.5,18.9,20.2z M38.4,43.2C32.9,40.1,30.9,33,34,27.5c2.8-5.1,8.9-7.2,14.2-5.2c-0.2,0.2-0.4,0.4-0.6,0.6
	c-1.2,1.1-2.9,2.7-4,4.8c-1.3,2.4-2,5.3-0.4,9c1.5,3.5,1.1,6.5-0.2,7.6c-0.7,0.6-1.5,0.6-2.6,0L38.4,43.2z"/>
</svg>
