<svg version="1.1" id="Layer_1" xmlns="http://www.w3.org/2000/svg" xmlns:xlink="http://www.w3.org/1999/xlink" x="0px" y="0px"
	 width="3.8px" height="333.2px" viewBox="0 0 3.8 333.2" style="enable-background:new 0 0 3.8 333.2;" xml:space="preserve" preserveAspectRatio="none">
<g>
	<g>
		<g>
			
				<rect x="2" y="176.2" transform="matrix(0.9999 -1.002631e-02 1.002631e-02 0.9999 -1.9904 3.208988e-02)" style="fill:#AB6F60;" width="0.4" height="44.6"/>
			
				<rect x="1.7" y="168.8" transform="matrix(0.9999 -1.002112e-02 1.002112e-02 0.9999 -1.7131 2.791353e-02)" style="fill:#AB6F60;" width="0.4" height="4.4"/>
			
				<rect x="0.2" y="10.5" transform="matrix(0.9999 -1.003048e-02 1.003048e-02 0.9999 -0.1537 4.464231e-03)" style="fill:#AB6F60;" width="0.4" height="9.7"/>
			
				<rect x="0" y="0" transform="matrix(0.9999 -1.002866e-02 1.002866e-02 0.9999 -1.089285e-02 2.316143e-03)" style="fill:#AB6F60;" width="0.4" height="2.2"/>
			
				<rect x="2.8" y="229.1" transform="matrix(0.9999 -1.002630e-02 1.002630e-02 0.9999 -2.768 4.378590e-02)" style="fill:#AB6F60;" width="0.4" height="93.9"/>
			
				<rect x="0.9" y="28.5" transform="matrix(0.9999 -1.002704e-02 1.002704e-02 0.9999 -0.9471 1.639833e-02)" style="fill:#AB6F60;" width="0.4" height="132"/>
			<path style="fill:#AB6F60;" d="M0.4,23.2c0.1,0,0.2,0.5,0.2,1.1c0,0.6-0.1,1.1-0.2,1.1c-0.1,0-0.2-0.5-0.2-1.1
				C0.2,23.7,0.3,23.2,0.4,23.2z"/>
			<path style="fill:#AB6F60;" d="M0.3,5.3c0.1,0,0.2,0.5,0.2,1.1c0,0.6-0.1,1.1-0.2,1.1c-0.1,0-0.2-0.5-0.2-1.1
				C0.1,5.7,0.1,5.3,0.3,5.3z"/>
			<path style="fill:#AB6F60;" d="M2.5,223.9c0.1,0,0.2,0.5,0.2,1.1c0,0.6-0.1,1.1-0.2,1.1c-0.1,0-0.2-0.5-0.2-1.1
				C2.2,224.4,2.3,223.9,2.5,223.9z"/>
			<path style="fill:#AB6F60;" d="M1.9,163.5c0.1,0,0.2,0.5,0.2,1.1c0,0.6-0.1,1.1-0.2,1.1c-0.1,0-0.2-0.5-0.2-1.1
				C1.6,164,1.7,163.5,1.9,163.5z"/>
			<path style="fill:#AB6F60;" d="M3.5,326.1c0.1,0,0.2,0.5,0.2,1.1c0,0.6-0.1,1.1-0.2,1.1c-0.1,0-0.2-0.5-0.2-1.1
				C3.3,326.6,3.4,326.1,3.5,326.1z"/>
		</g>
		
			<rect x="3.3" y="328.3" transform="matrix(0.9999 -1.002507e-02 1.002507e-02 0.9999 -3.3157 5.202220e-02)" style="fill:#AB6F60;" width="0.4" height="5"/>
	</g>
</g>
</svg>
