<svg version="1.1" id="Layer_1" xmlns="http://www.w3.org/2000/svg" xmlns:xlink="http://www.w3.org/1999/xlink" x="0px" y="0px"
	 width="344px" height="62.4px" viewBox="0 0 344 62.4" style="enable-background:new 0 0 344 62.4;" xml:space="preserve" preserveAspectRatio="none">
<polygon style="fill:#631C55;" points="343.5,62.2 10,61.2 0,7.4 328.4,6.2 "/>
<g>
	<g>
		<polygon style="fill:#2A1228;" points="7,40.9 10.5,60 95,58.9 95.1,61.2 9.4,62.4 5.5,41.5 		"/>
		<polygon style="fill:#2A1228;" points="2.4,16.2 5.1,30.7 3.7,31.4 1,16.9 		"/>
		<polygon style="fill:#2A1228;" points="333.3,24.2 327.1,2.3 322,2.4 322,0.1 328,0 334.6,23.2 		"/>
		<polygon style="fill:#2A1228;" points="342.6,57.1 340.7,50.3 342,49.3 344,56.1 		"/>
		<polygon style="fill:#2A1228;" points="113.4,58.6 320.8,55.8 320.8,58.1 113.4,60.9 		"/>
		<polygon style="fill:#2A1228;" points="303.7,2.8 12.2,8.4 12.2,6 303.6,0.5 		"/>
		<path style="fill:#2A1228;" d="M315.2,1.4c0,0.6-1.1,1.2-2.4,1.2s-2.4-0.5-2.4-1.1c0-0.6,1.1-1.2,2.4-1.2S315.2,0.8,315.2,1.4z"/>
		<path style="fill:#2A1228;" d="M338.6,40.1c-0.4,0.3-1.1-1-1.6-2.9c-0.5-1.9-0.7-3.6-0.3-3.8s1.1,1,1.6,2.9
			C338.9,38.1,339,39.9,338.6,40.1z"/>
		<path style="fill:#2A1228;" d="M101.9,59.9c0-0.6,1.1-1.2,2.4-1.2c1.3,0,2.4,0.5,2.4,1.1c0,0.6-1.1,1.2-2.4,1.2
			C102.9,61.1,101.9,60.6,101.9,59.9z"/>
		<path style="fill:#2A1228;" d="M5.4,7.3c0,0.6-1.1,1.2-2.4,1.2c-0.7,0-1.2-0.1-1.7-0.3C0.9,8,0.8,7.7,0.7,7.4
			C0.6,7.1,1,6.8,1.4,6.6c0.4-0.2,1-0.4,1.7-0.4C4.4,6.2,5.4,6.7,5.4,7.3z"/>
		<path style="fill:#2A1228;" d="M327.6,56.8c0-0.6,1.1-1.2,2.4-1.2c1.3,0,2.4,0.5,2.4,1.1c0,0.6-1.1,1.2-2.4,1.2
			S327.6,57.5,327.6,56.8z"/>
	</g>
	<polygon style="fill:#2A1228;" points="343.3,55.5 332.3,55.6 332.3,57.9 343.3,57.8 	"/>
</g>
</svg>
