<svg version="1.1" id="Layer_1" xmlns="http://www.w3.org/2000/svg" xmlns:xlink="http://www.w3.org/1999/xlink" x="0px" y="0px"
	 width="344.4px" height="64.2px" viewBox="0 0 344.4 64.2" style="enable-background:new 0 0 344.4 64.2;" xml:space="preserve" preserveAspectRatio="none">
<polygon style="fill:#202020;" points="330.7,62.3 0,64.2 5.1,4 339.3,4.8 "/>
<g>
	<g>
		<polygon style="fill:#856214;" points="8.3,23 5.1,60.2 70.4,59.8 70.4,61.8 2.9,62.2 6.3,22.8 		"/>
		
			<rect x="3.2" y="9.5" transform="matrix(8.496384e-02 -0.9964 0.9964 8.496384e-02 -2.8825 17.9303)" style="fill:#856214;" width="10.3" height="2"/>
		
			<rect x="328.7" y="22.7" transform="matrix(0.1487 -0.9889 0.9889 0.1487 266.0387 356.4305)" style="fill:#856214;" width="22.8" height="2"/>
		
			<rect x="332.5" y="55.8" transform="matrix(0.1487 -0.9889 0.9889 0.1487 229.079 379.683)" style="fill:#856214;" width="5.1" height="2"/>
		
			<rect x="89.9" y="59.1" transform="matrix(1 -5.716470e-03 5.716470e-03 1 -0.3402 1.146)" style="fill:#856214;" width="220.8" height="2"/>
		
			<rect x="178.4" y="-153.7" transform="matrix(2.415436e-03 -1 1 2.415436e-03 177.5646 180.8088)" style="fill:#856214;" width="2" height="310.3"/>
		<path style="fill:#856214;" d="M342.8,5.3c-0.3,0-0.5-0.4-0.6-0.8c-0.1-0.2-0.1-0.5-0.1-0.8c0-0.2,0-0.3,0-0.5c0-0.1,0-0.4,0-0.3
			c0,0,0,0,0.1-0.1c0.1-0.1,0-0.2-0.1-0.4c-0.2-0.2-0.4-0.4-0.4-0.6c0-0.2,0.1-0.4,0.5-0.6c0.4-0.2,1.2-0.3,2.1-0.4
			c0,0.5-0.1,1.2-0.2,1.9c-0.1,0.4-0.1,0.5-0.1,0.7c0,0.2-0.1,0.3-0.1,0.5c-0.1,0.3-0.2,0.5-0.3,0.8C343.4,5.1,343.1,5.3,342.8,5.3z
			"/>
		<path style="fill:#856214;" d="M336.5,47.1c-0.6-0.1-0.8-1.3-0.6-2.6s0.8-2.4,1.4-2.3s0.8,1.3,0.6,2.6S337.1,47.2,336.5,47.1z"/>
		<path style="fill:#856214;" d="M77.6,60.8c0-0.6,1.1-1,2.5-1c1.4,0,2.5,0.4,2.5,1c0,0.6-1.1,1-2.5,1
			C78.7,61.8,77.6,61.3,77.6,60.8z"/>
		<path style="fill:#856214;" d="M17,1c0,0.6-1.1,1-2.5,1C13.1,2,12,1.6,12,1c0-0.6,1.1-1,2.5-1C15.9,0,17,0.5,17,1z"/>
		<path style="fill:#856214;" d="M317.9,59.4c0-0.6,1.1-1,2.5-1c1.4,0,2.5,0.4,2.5,1c0,0.6-1.1,1-2.5,1
			C319.1,60.4,317.9,60,317.9,59.4z"/>
	</g>
	
		<rect x="323" y="58.3" transform="matrix(1 -5.721038e-03 5.721038e-03 1 -0.3342 1.8822)" style="fill:#856214;" width="11.7" height="2"/>
</g>
</svg>
