<svg version="1.1" id="Layer_1" xmlns="http://www.w3.org/2000/svg" xmlns:xlink="http://www.w3.org/1999/xlink" x="0px" y="0px"
	 width="1182.8px" height="743.6px" viewBox="0 0 1182.8 743.6" style="enable-background:new 0 0 1182.8 743.6;"
	 xml:space="preserve" preserveAspectRatio="none">
<g>
	
		<rect x="708.9" y="721.5" transform="matrix(0.9997 -2.240459e-02 2.240459e-02 0.9997 -15.9819 19.5403)" style="fill:#152F1D;" width="310.4" height="3"/>
	
		<rect x="-15.5" y="317.4" transform="matrix(1.441574e-02 -0.9999 0.9999 1.441574e-02 -300.9533 332.5593)" style="fill:#152F1D;" width="67.4" height="3"/>
	
		<rect x="12.1" y="218.4" transform="matrix(1.441521e-02 -0.9999 0.9999 1.441521e-02 -200.4772 236.3374)" style="fill:#152F1D;" width="15.1" height="3"/>
	<polygon style="fill:#152F1D;" points="1077,716.7 1179.7,714.4 1157.7,166.9 1160.7,166.7 1182.8,717.4 1077.1,719.7 	"/>
	<polygon style="fill:#152F1D;" points="18.4,410.5 13.6,740.6 599.1,727.5 599.1,730.4 10.6,743.6 15.4,410.4 	"/>
	<path style="fill:#152F1D;" d="M17.4,374.1c0.8,0,1.4,3.4,1.4,7.5c-0.1,4.1-0.8,7.5-1.6,7.4c-0.8,0-1.4-3.4-1.4-7.5
		C15.9,377.4,16.6,374.1,17.4,374.1z"/>
	<path style="fill:#152F1D;" d="M19.2,248.9c0.8,0,1.4,3.4,1.4,7.5c-0.1,4.1-0.8,7.5-1.6,7.4c-0.8,0-1.4-3.4-1.4-7.5
		C17.7,252.2,18.4,248.8,19.2,248.9z"/>
	<path style="fill:#152F1D;" d="M1040.6,719.1c0-0.8,3.3-1.6,7.4-1.7c4.1-0.1,7.5,0.5,7.5,1.3c0,0.8-3.3,1.6-7.4,1.7
		C1044,720.5,1040.7,719.9,1040.6,719.1z"/>
	<path style="fill:#152F1D;" d="M1158.4,145.4c-0.8,0-1.6-3.3-1.8-7.4c-0.2-4.1,0.4-7.5,1.2-7.5c0.8,0,1.6,3.3,1.8,7.4
		C1159.7,142,1159.2,145.3,1158.4,145.4z"/>
	
		<rect x="1155.6" y="95.8" transform="matrix(0.9992 -4.003929e-02 4.003929e-02 0.9992 -3.6027 46.4198)" style="fill:#152F1D;" width="3" height="34.6"/>
	<g>
		<g>
			<rect x="643" y="39.6" style="fill:#152F1D;" width="156.5" height="1.5"/>
			<rect x="616.8" y="39.6" style="fill:#152F1D;" width="15.4" height="1.5"/>
			<rect x="61.1" y="39.6" style="fill:#152F1D;" width="34" height="1.5"/>
			<rect x="24.3" y="39.6" style="fill:#152F1D;" width="7.6" height="1.5"/>
			<polygon style="fill:#152F1D;" points="828.7,39.6 1154,39.6 1154.5,36.6 1156,36.8 1155.3,41.1 828.7,41.1 			"/>
			<rect x="124.3" y="39.6" style="fill:#152F1D;" width="463.3" height="1.5"/>
			<ellipse style="fill:#152F1D;" cx="109.7" cy="40.4" rx="3.8" ry="0.8"/>
			<ellipse style="fill:#152F1D;" cx="46.5" cy="40.4" rx="3.8" ry="0.8"/>
			<path style="fill:#152F1D;" d="M810.3,40.4c0-0.4,1.7-0.8,3.8-0.8c2.1,0,3.8,0.3,3.8,0.8c0,0.4-1.7,0.8-3.8,0.8
				C812,41.1,810.3,40.8,810.3,40.4z"/>
			<path style="fill:#152F1D;" d="M598.4,40.4c0-0.4,1.7-0.8,3.8-0.8c2.1,0,3.8,0.3,3.8,0.8c0,0.4-1.7,0.8-3.8,0.8
				C600.1,41.1,598.4,40.8,598.4,40.4z"/>
			<path style="fill:#152F1D;" d="M1156.7,26c-0.4-0.1-0.5-1.8-0.2-3.8s0.9-3.7,1.3-3.6c0.4,0.1,0.5,1.8,0.2,3.8
				C1157.7,24.4,1157.1,26.1,1156.7,26z"/>
		</g>
		
			<rect x="1150.3" y="9.1" transform="matrix(0.1397 -0.9902 0.9902 0.1397 987.3237 1156.1472)" style="fill:#152F1D;" width="17.5" height="1.5"/>
	</g>
</g>
</svg>
