<svg version="1.1" id="Layer_1" xmlns="http://www.w3.org/2000/svg" xmlns:xlink="http://www.w3.org/1999/xlink" x="0px" y="0px"
	 width="74.7px" height="77.5px" viewBox="0 0 74.7 77.5" style="enable-background:new 0 0 74.7 77.5;" xml:space="preserve">
<path style="fill:#152F1D;" d="M65.6,21.9l0.6-6.4c0.6-6.6-4.3-12.4-10.8-13l-2.1-0.2L30.1,0.2L28,0c-6.6-0.6-12.4,4.3-13,10.8
	l-0.6,6.3C8,16.9,2.3,24,1.4,33.6L0.1,48.2c-0.9,9.8,3.6,18,10.3,18.6c0.2,0,0.3,0,0.5,0c1.5,4.4,5.4,7.7,10.3,8.1l27.3,2.5
	c4.9,0.4,9.3-2.1,11.6-6.1c6.5,0.3,12.3-6.8,13.2-16.5l1.3-14.6C75.4,31.1,71.5,23.4,65.6,21.9z M52.8,7.2c3.5,0.3,6,3.4,5.7,6.9
	s-3.4,6-6.9,5.7l-8-0.7l0.2-2.7c0.2-2-1.3-3.7-3.3-3.9s-3.7,1.3-3.9,3.3l-0.2,2.7l-8-0.7c-3.5-0.3-6-3.4-5.7-6.9s3.4-6,6.9-5.7
	L52.8,7.2z M9.5,61.6c-3.1-1.5-5.2-7-4.6-13L6.3,34c0.5-6,3.6-11,6.9-11.9L9.5,61.6z M49,72.6l-27.3-2.5c-3.9-0.4-6.8-3.8-6.4-7.7
	l4.2-45.7c1.7,3.1,4.9,5.4,8.7,5.7l8,0.7l-0.6,6.6l-1.3-0.1c-6.6-0.6-12.4,4.3-13,10.8l-1.3,14.4c-0.6,6.6,4.3,12.4,10.8,13l9.7,0.9
	c6.6,0.6,12.4-4.3,13-10.8l1.3-14.4c0.6-6.6-4.3-12.4-10.8-13l-1.3-0.1l0.6-6.6l8,0.7c3.8,0.3,7.4-1.3,9.6-4l-0.1,1.3l-4,44.4
	C56.3,70.1,52.9,73,49,72.6z M37.5,47c2,0.2,3.7-1.3,3.9-3.3l0.8-8.5l1.3,0.1c3.9,0.4,6.8,3.8,6.4,7.7l-1.3,14.4
	c-0.4,3.9-3.8,6.8-7.7,6.4l-9.7-0.9c-3.9-0.4-6.8-3.8-6.4-7.7l1.3-14.4c0.4-3.9,3.8-6.8,7.7-6.4l1.3,0.1l-0.8,8.5
	C34.1,45.1,35.5,46.8,37.5,47z M68.4,54.4c-0.5,6-3.6,11-6.9,11.9l3.6-39.5c3.1,1.5,5.2,7,4.6,13L68.4,54.4z"/>
</svg>
