<svg id="Layer_1" data-name="Layer 1" xmlns="http://www.w3.org/2000/svg" viewBox="0 0 81.75 52.53"><defs><style>.cls-1{fill:#fae6cb;}.cls-2{fill:#c18d73;}</style></defs><title>gitar-sarga</title><polygon class="cls-1" points="27.7 28.86 15.91 35.69 0 24.53 22.98 23.17 27.7 28.86"/><polygon class="cls-1" points="33 37.51 14.14 52.53 15.62 33.41 26.81 28.63 33 37.51"/><polygon class="cls-1" points="25.25 33.27 34.4 26.7 46.48 37.78 28.8 38.89 25.25 33.27"/><polygon class="cls-1" points="21.29 24.74 35.97 10.22 34.59 28.93 25.93 33.5 21.29 24.74"/><polygon class="cls-1" points="35.96 29.31 73.74 8.6 70.55 6.55 33 25.44 35.96 29.31"/><polygon class="cls-1" points="67.02 11.76 81.75 8.07 76.97 0 64.75 9.39 67.02 11.76"/><polygon class="cls-2" points="36.77 10.57 37.81 11.55 39.05 21.32 35.7 23.08 36.77 10.57"/><polygon class="cls-2" points="40.37 27.76 38.12 28.89 47.36 37.33 47.82 36.34 40.37 27.76"/><polygon class="cls-2" points="41.47 27.23 39.22 28.36 40.54 28.97 69.41 11.9 41.47 27.23"/></svg>