<svg id="Layer_1" data-name="Layer 1" xmlns="http://www.w3.org/2000/svg" viewBox="0 0 62.04 66.78"><defs><style>.cls-1{fill:#408381;}.cls-2{fill:#62d5cd;}</style></defs><title>hal-kek</title><polygon class="cls-1" points="57.18 27.66 52.79 30.52 23.52 46.86 21.58 65.68 26.11 49.39 58.67 29.26 62.04 1.51 57.18 27.66"/><path class="cls-2" d="M49.27,28.47l-.19-.19-.14.28-.1,0,.06.06-16.53,34-19,5.2L27.1,73.37,33.53,88l1.75-20.45L68.9,48.65l.11.11,0-.2.2-.11-.15-.15L74,21.21Zm11.59,6a2.73,2.73,0,1,1,0-3.86A2.73,2.73,0,0,1,60.86,34.5Z" transform="translate(-13.36 -21.21)"/></svg>