<svg width="55" height="34" viewBox="0 0 55 34" fill="none" xmlns="http://www.w3.org/2000/svg">
<path d="M2 30.844L5.497 21.926H7.356L10.866 30.844H9.306L8.513 28.777H4.288L3.495 30.844H2ZM4.756 27.542H8.032L7.031 24.929C7.005 24.851 6.966 24.7427 6.914 24.604C6.862 24.4653 6.80567 24.3137 6.745 24.149C6.693 23.9843 6.63667 23.8197 6.576 23.655C6.524 23.4817 6.47633 23.3257 6.433 23.187H6.355C6.303 23.3517 6.238 23.5467 6.16 23.772C6.082 23.9973 6.004 24.214 5.926 24.422C5.85667 24.63 5.796 24.799 5.744 24.929L4.756 27.542Z" fill="black"/>
<path d="M15.3161 31C14.8307 31 14.3627 30.948 13.9121 30.844C13.4614 30.7487 13.0627 30.5927 12.7161 30.376C12.3694 30.1507 12.0964 29.869 11.8971 29.531C11.6977 29.1843 11.5981 28.7727 11.5981 28.296C11.5981 28.244 11.5981 28.1963 11.5981 28.153C11.6067 28.101 11.6111 28.0577 11.6111 28.023H13.0671C13.0671 28.049 13.0627 28.088 13.0541 28.14C13.0541 28.192 13.0541 28.2353 13.0541 28.27C13.0541 28.5907 13.1494 28.8637 13.3401 29.089C13.5307 29.3143 13.7951 29.4833 14.1331 29.596C14.4797 29.7087 14.8741 29.765 15.3161 29.765C15.5587 29.765 15.7927 29.752 16.0181 29.726C16.2434 29.6913 16.4471 29.6437 16.6291 29.583C16.8197 29.5137 16.9844 29.4313 17.1231 29.336C17.2617 29.232 17.3701 29.1107 17.4481 28.972C17.5261 28.8333 17.5651 28.673 17.5651 28.491C17.5651 28.2137 17.4827 27.984 17.3181 27.802C17.1621 27.62 16.9454 27.4683 16.6681 27.347C16.3994 27.2257 16.0917 27.1173 15.7451 27.022C15.4071 26.9267 15.0561 26.8313 14.6921 26.736C14.3281 26.6407 13.9727 26.528 13.6261 26.398C13.2881 26.268 12.9804 26.112 12.7031 25.93C12.4344 25.7393 12.2177 25.5053 12.0531 25.228C11.8971 24.942 11.8191 24.5953 11.8191 24.188C11.8191 23.798 11.9014 23.4513 12.0661 23.148C12.2307 22.8447 12.4691 22.5933 12.7811 22.394C13.0931 22.186 13.4657 22.03 13.8991 21.926C14.3324 21.822 14.8221 21.77 15.3681 21.77C15.8361 21.77 16.2781 21.822 16.6941 21.926C17.1101 22.0213 17.4741 22.173 17.7861 22.381C18.0981 22.589 18.3407 22.8533 18.5141 23.174C18.6961 23.4947 18.7871 23.876 18.7871 24.318V24.474H17.3441V24.305C17.3441 24.0277 17.2617 23.7937 17.0971 23.603C16.9324 23.4123 16.7027 23.265 16.4081 23.161C16.1134 23.057 15.7711 23.005 15.3811 23.005C14.9217 23.005 14.5361 23.0527 14.2241 23.148C13.9121 23.2347 13.6737 23.3603 13.5091 23.525C13.3531 23.681 13.2751 23.8717 13.2751 24.097C13.2751 24.3483 13.3574 24.5563 13.5221 24.721C13.6867 24.877 13.9034 25.0113 14.1721 25.124C14.4494 25.2367 14.7571 25.3407 15.0951 25.436C15.4417 25.5227 15.7927 25.618 16.1481 25.722C16.5121 25.8173 16.8631 25.93 17.2011 26.06C17.5477 26.19 17.8554 26.3503 18.1241 26.541C18.4014 26.7317 18.6224 26.97 18.7871 27.256C18.9517 27.5333 19.0341 27.8757 19.0341 28.283C19.0341 28.9243 18.8737 29.4487 18.5531 29.856C18.2324 30.2547 17.7904 30.545 17.2271 30.727C16.6724 30.909 16.0354 31 15.3161 31Z" fill="black"/>
<path d="M20.723 30.844V21.926H22.127L26.196 27.516C26.248 27.568 26.3044 27.6417 26.365 27.737C26.4344 27.8323 26.4994 27.9277 26.56 28.023C26.6207 28.1183 26.664 28.1963 26.69 28.257H26.755C26.755 28.127 26.755 28.0013 26.755 27.88C26.755 27.7587 26.755 27.6373 26.755 27.516V21.926H28.159V30.844H26.807L22.686 25.189C22.6167 25.085 22.53 24.955 22.426 24.799C22.322 24.6343 22.244 24.5087 22.192 24.422H22.127C22.127 24.5433 22.127 24.669 22.127 24.799C22.127 24.9203 22.127 25.0503 22.127 25.189V30.844H20.723Z" fill="black"/>
<path d="M30.3609 30.844V29.336H31.8039V30.844H30.3609Z" fill="black"/>
<rect x="0.5" y="0.5" width="54" height="33" stroke="black"/>
</svg>
