<svg width="30" height="10" viewBox="0 0 30 10" fill="none" xmlns="http://www.w3.org/2000/svg">
<path d="M0 9.844L3.497 0.926004H5.356L8.866 9.844H7.306L6.513 7.777H2.288L1.495 9.844H0ZM2.756 6.542H6.032L5.031 3.929C5.005 3.851 4.966 3.74267 4.914 3.604C4.862 3.46534 4.80567 3.31367 4.745 3.149C4.693 2.98434 4.63667 2.81967 4.576 2.655C4.524 2.48167 4.47633 2.32567 4.433 2.187H4.355C4.303 2.35167 4.238 2.54667 4.16 2.772C4.082 2.99734 4.004 3.214 3.926 3.422C3.85667 3.63 3.796 3.799 3.744 3.929L2.756 6.542Z" fill="black"/>
<path d="M13.3161 10C12.8307 10 12.3627 9.948 11.9121 9.844C11.4614 9.74867 11.0627 9.59267 10.7161 9.376C10.3694 9.15067 10.0964 8.869 9.89706 8.531C9.69773 8.18434 9.59806 7.77267 9.59806 7.296C9.59806 7.244 9.59806 7.19634 9.59806 7.153C9.60673 7.101 9.61106 7.05767 9.61106 7.023H11.0671C11.0671 7.049 11.0627 7.088 11.0541 7.14C11.0541 7.192 11.0541 7.23534 11.0541 7.27C11.0541 7.59067 11.1494 7.86367 11.3401 8.089C11.5307 8.31434 11.7951 8.48334 12.1331 8.596C12.4797 8.70867 12.8741 8.765 13.3161 8.765C13.5587 8.765 13.7927 8.752 14.0181 8.726C14.2434 8.69134 14.4471 8.64367 14.6291 8.583C14.8197 8.51367 14.9844 8.43134 15.1231 8.336C15.2617 8.232 15.3701 8.11067 15.4481 7.972C15.5261 7.83334 15.5651 7.673 15.5651 7.491C15.5651 7.21367 15.4827 6.984 15.3181 6.802C15.1621 6.62 14.9454 6.46834 14.6681 6.347C14.3994 6.22567 14.0917 6.11734 13.7451 6.022C13.4071 5.92667 13.0561 5.83134 12.6921 5.736C12.3281 5.64067 11.9727 5.528 11.6261 5.398C11.2881 5.268 10.9804 5.112 10.7031 4.93C10.4344 4.73934 10.2177 4.50534 10.0531 4.228C9.89706 3.942 9.81906 3.59534 9.81906 3.188C9.81906 2.798 9.9014 2.45134 10.0661 2.148C10.2307 1.84467 10.4691 1.59334 10.7811 1.394C11.0931 1.186 11.4657 1.03 11.8991 0.926004C12.3324 0.822004 12.8221 0.770004 13.3681 0.770004C13.8361 0.770004 14.2781 0.822004 14.6941 0.926004C15.1101 1.02134 15.4741 1.173 15.7861 1.381C16.0981 1.589 16.3407 1.85334 16.5141 2.174C16.6961 2.49467 16.7871 2.876 16.7871 3.318V3.474H15.3441V3.305C15.3441 3.02767 15.2617 2.79367 15.0971 2.603C14.9324 2.41234 14.7027 2.265 14.4081 2.161C14.1134 2.057 13.7711 2.005 13.3811 2.005C12.9217 2.005 12.5361 2.05267 12.2241 2.148C11.9121 2.23467 11.6737 2.36034 11.5091 2.525C11.3531 2.681 11.2751 2.87167 11.2751 3.097C11.2751 3.34834 11.3574 3.55634 11.5221 3.721C11.6867 3.877 11.9034 4.01134 12.1721 4.124C12.4494 4.23667 12.7571 4.34067 13.0951 4.436C13.4417 4.52267 13.7927 4.618 14.1481 4.722C14.5121 4.81734 14.8631 4.93 15.2011 5.06C15.5477 5.19 15.8554 5.35034 16.1241 5.541C16.4014 5.73167 16.6224 5.97 16.7871 6.256C16.9517 6.53334 17.0341 6.87567 17.0341 7.283C17.0341 7.92434 16.8737 8.44867 16.5531 8.856C16.2324 9.25467 15.7904 9.545 15.2271 9.72701C14.6724 9.90901 14.0354 10 13.3161 10Z" fill="black"/>
<path d="M18.723 9.844V0.926004H20.127L24.196 6.516C24.248 6.568 24.3044 6.64167 24.365 6.737C24.4344 6.83234 24.4994 6.92767 24.56 7.023C24.6207 7.11834 24.664 7.19634 24.69 7.257H24.755C24.755 7.127 24.755 7.00134 24.755 6.88C24.755 6.75867 24.755 6.63734 24.755 6.516V0.926004H26.159V9.844H24.807L20.686 4.189C20.6167 4.085 20.53 3.955 20.426 3.799C20.322 3.63434 20.244 3.50867 20.192 3.422H20.127C20.127 3.54334 20.127 3.669 20.127 3.799C20.127 3.92034 20.127 4.05034 20.127 4.189V9.844H18.723Z" fill="black"/>
<path d="M28.3609 9.844V8.336H29.8039V9.844H28.3609Z" fill="black"/>
</svg>
