<svg width="91" height="91" viewBox="0 0 91 91" fill="none" xmlns="http://www.w3.org/2000/svg">
<rect width="91" height="91" fill="#000000"/>
<path d="M11.856 8.92L6.48 25H8.64L10.152 20.512H16.872L18.408 25H20.736L15.264 8.92H11.856ZM13.2 11.344H13.752L16.224 18.592H10.776L13.2 11.344Z" fill="white"/>
<line y1="-1" x2="46" y2="-1" transform="matrix(-0.707107 0.707107 0.707107 0.707107 62.2634 29.2365)" stroke="white" stroke-width="2"/>
<path d="M76.96 66.68C73.432 66.68 71.296 68.408 71.296 71.072V71.312C71.296 74.192 73.384 75.104 76.648 75.896C79.696 76.64 80.896 77.216 80.896 78.704V78.944C80.896 80.432 79.672 81.32 77.224 81.32H76.984C74.56 81.32 73.36 80.432 73.36 78.44V76.976H71.08V78.44C71.08 81.392 73.024 83.24 76.96 83.24H77.2C81.16 83.24 83.176 81.392 83.176 78.944V78.704C83.176 75.968 81.256 74.96 77.8 74.024C74.728 73.208 73.576 72.824 73.576 71.312V71.072C73.576 69.632 74.824 68.6 76.96 68.6H77.2C79.336 68.6 80.584 69.632 80.584 71.312V72.8H82.864V71.312C82.864 68.408 80.488 66.68 77.2 66.68H76.96Z" fill="white"/>
</svg>
