
<svg width="215px" height="215px" viewBox="0 0 215 215" version="1.1" xmlns="http://www.w3.org/2000/svg" xmlns:xlink="http://www.w3.org/1999/xlink">
    <!-- Generator: Sketch 47.1 (45422) - http://www.bohemiancoding.com/sketch -->
    <desc>Created with Sketch.</desc>
    <defs></defs>
    <g id="Page-1" stroke="none" stroke-width="1" fill="none" fill-rule="evenodd">
        <g>
            <path d="M215,107.5 C215,166.871 166.871,215 107.5,215 C48.129,215 0,166.871 0,107.5 C0,48.129 48.129,0 107.5,0 C166.871,0 215,48.129 215,107.5" id="Fill-1" fill="#FFFFFF"></path>
            <path d="M92.0664,184.2688 C92.0664,183.4048 91.7684,182.6648 91.1704,182.0498 C90.5654,181.4358 89.8434,181.1278 89.0054,181.1278 L86.1714,181.1278 L86.1714,187.5178 L89.0054,187.5178 C89.8434,187.5178 90.5654,187.2098 91.1704,186.5948 C91.7684,185.9798 92.0664,185.2408 92.0664,184.3758 L92.0664,184.2688 Z M91.5864,175.8348 C91.5864,175.1038 91.3324,174.4798 90.8234,173.9628 C90.3244,173.4468 89.7224,173.1878 89.0194,173.1878 L86.1714,173.1878 L86.1714,178.5478 L89.0194,178.5478 C89.7224,178.5478 90.3294,178.2898 90.8374,177.7728 C91.3364,177.2558 91.5864,176.6368 91.5864,175.9148 L91.5864,175.8348 Z M92.4144,179.7648 C93.8484,180.9138 94.5664,182.4158 94.5664,184.2688 L94.5664,184.3758 C94.5664,185.9448 94.0274,187.2858 92.9494,188.3988 C91.8714,189.5218 90.5654,190.0878 89.0324,190.0968 L84.9284,190.0968 C84.5814,190.0968 84.2834,189.9728 84.0334,189.7228 C83.7934,189.4738 83.6724,189.1698 83.6724,188.8138 L83.6724,171.9048 C83.6724,171.5488 83.7934,171.2458 84.0334,170.9958 C84.2834,170.7468 84.5814,170.6218 84.9284,170.6218 L89.0194,170.6218 C90.4184,170.6218 91.6124,171.1298 92.6014,172.1448 C93.5904,173.1618 94.0854,174.3908 94.0854,175.8348 L94.0854,175.9148 C94.0854,177.4478 93.5284,178.7308 92.4144,179.7648 L92.4144,179.7648 Z" id="Fill-3" fill="#404041"></path>
            <path d="M105.5811,187.5974 C105.9281,187.5974 106.2231,187.7174 106.4631,187.9584 C106.7121,188.2074 106.8371,188.5014 106.8371,188.8404 C106.8371,189.1874 106.7121,189.4864 106.4631,189.7364 C106.2231,189.9764 105.9281,190.0974 105.5811,190.0974 L98.3621,190.0974 C98.0151,190.0974 97.7171,189.9764 97.4671,189.7364 C97.2271,189.4864 97.1061,189.1874 97.1061,188.8404 L97.1061,171.8914 C97.1061,171.5434 97.2271,171.2494 97.4671,171.0094 C97.7171,170.7604 98.0151,170.6354 98.3621,170.6354 C98.7011,170.6354 98.9951,170.7604 99.2451,171.0094 C99.4851,171.2494 99.6051,171.5434 99.6051,171.8914 L99.6051,187.5974 L105.5811,187.5974 Z" id="Fill-5" fill="#404041"></path>
            <path d="M111.4629,173.8293 C110.8389,174.4533 110.5269,175.2023 110.5269,176.0753 L110.5269,184.4163 C110.5269,185.2893 110.8389,186.0373 111.4629,186.6623 C112.0769,187.2853 112.8259,187.5973 113.7079,187.5973 C114.5809,187.5973 115.3299,187.2853 115.9539,186.6623 C116.5769,186.0373 116.8899,185.2893 116.8899,184.4163 L116.8899,176.0753 C116.8899,175.2023 116.5769,174.4533 115.9539,173.8293 C115.3299,173.2143 114.5809,172.9073 113.7079,172.9073 C112.8259,172.9073 112.0769,173.2143 111.4629,173.8293 M109.6979,188.4263 C108.5839,187.3213 108.0269,185.9843 108.0269,184.4163 L108.0269,176.0753 C108.0269,174.5163 108.5839,173.1793 109.6979,172.0653 C110.8029,170.9603 112.1399,170.4073 113.7079,170.4073 C115.2759,170.4073 116.6129,170.9603 117.7179,172.0653 C118.8319,173.1793 119.3889,174.5163 119.3889,176.0753 L119.3889,184.4163 C119.3889,185.9843 118.8319,187.3213 117.7179,188.4263 C116.6129,189.5403 115.2759,190.0973 113.7079,190.0973 C112.1399,190.0973 110.8029,189.5403 109.6979,188.4263" id="Fill-7" fill="#404041"></path>
            <path d="M126.7002,178.2942 C128.0912,178.3032 129.2752,178.8022 130.2562,179.7912 C131.2362,180.7722 131.7262,181.9572 131.7262,183.3472 L131.7262,185.0312 C131.7262,186.4302 131.2312,187.6242 130.2422,188.6132 C129.2532,189.6022 128.0632,190.0972 126.6742,190.0972 L126.5942,190.0972 C125.1942,190.0972 124.0002,189.6022 123.0112,188.6132 C122.0212,187.6242 121.5272,186.4302 121.5272,185.0312 L121.5272,175.4602 C121.5272,174.0702 122.0212,172.8802 123.0112,171.8912 C124.0002,170.9022 125.1942,170.4072 126.5942,170.4072 L126.6742,170.4072 C127.7692,170.4072 128.7592,170.7282 129.6402,171.3702 C130.5142,172.0022 131.1202,172.8272 131.4592,173.8432 C131.5932,174.2352 131.5342,174.6052 131.2852,174.9522 C131.0262,175.2912 130.6872,175.4602 130.2692,175.4602 C129.6722,175.4602 129.2802,175.1892 129.0932,174.6452 C128.9242,174.1282 128.6162,173.7092 128.1712,173.3882 C127.7242,173.0672 127.2252,172.9072 126.6742,172.9072 L126.5942,172.9072 C125.8802,172.9072 125.2742,173.1572 124.7752,173.6562 C124.2762,174.1552 124.0272,174.7562 124.0272,175.4602 L124.0272,185.0312 C124.0272,185.7442 124.2762,186.3502 124.7752,186.8492 C125.2742,187.3482 125.8802,187.5972 126.5942,187.5972 L126.6742,187.5972 C127.3772,187.5972 127.9782,187.3482 128.4782,186.8492 C128.9762,186.3502 129.2262,185.7442 129.2262,185.0312 L129.2262,183.3472 C129.2262,182.6432 128.9762,182.0412 128.4782,181.5422 C127.9782,181.0432 127.3772,180.7942 126.6742,180.7942 C126.3352,180.7852 126.0452,180.6552 125.8042,180.4062 C125.5732,180.1652 125.4572,179.8762 125.4572,179.5372 C125.4572,179.1982 125.5732,178.9092 125.8042,178.6682 C126.0452,178.4282 126.3352,178.3032 126.6742,178.2942 L126.7002,178.2942 Z" id="Fill-9" fill="#404041"></path>
            <path d="M150.5558,159.2017 C150.1068,159.2017 149.6618,159.0027 149.3618,158.6227 C148.8418,157.9627 148.9548,157.0077 149.6138,156.4867 C166.1028,143.4747 175.5578,123.9877 175.5578,103.0217 C175.5578,65.5027 145.0188,34.9787 107.4848,34.9787 C69.9658,34.9787 39.4428,65.5027 39.4428,103.0217 C39.4428,123.9877 48.8968,143.4747 65.3858,156.4867 C66.0448,157.0077 66.1578,157.9627 65.6378,158.6227 C65.1188,159.2847 64.1618,159.3967 63.5028,158.8747 C46.2798,145.2827 36.4008,124.9237 36.4008,103.0217 C36.4008,63.8257 68.2878,31.9367 107.4848,31.9367 C146.6968,31.9367 178.5988,63.8257 178.5988,103.0217 C178.5988,124.9237 168.7198,145.2827 151.4978,158.8747 C151.2178,159.0947 150.8858,159.2017 150.5558,159.2017" id="Fill-11" fill="#404041"></path>
            <path d="M135.1484,138.5768 C134.7534,138.5768 134.3884,138.4238 134.0854,138.1508 C133.8084,137.8768 133.6274,137.4808 133.6274,137.0558 C133.6274,136.6598 133.8084,136.2958 134.0854,135.9908 C134.6614,135.4138 135.6654,135.4428 136.2444,135.9908 C136.5174,136.2958 136.6994,136.6598 136.6994,137.0558 C136.6994,137.4808 136.5174,137.8768 136.2114,138.1508 C135.9384,138.4238 135.5734,138.5768 135.1484,138.5768" id="Fill-13" fill="#404041"></path>
            <path d="M100.2373,111.6957 L100.2373,117.1367 L99.9933,117.1367 L95.6113,117.1367 C94.0003,117.1367 92.6943,118.4417 92.6943,120.0527 L92.6943,134.1557 C92.6943,135.7667 94.0003,137.0727 95.6113,137.0727 L117.4313,137.0727 C119.0423,137.0727 120.3483,135.7667 120.3483,134.1557 L120.3483,120.0527 C120.3483,118.4417 119.0423,117.1367 117.4313,117.1367 L113.0483,117.1367 L112.8443,117.1367 L112.8443,111.6957" id="Fill-15" fill="#63C5BB"></path>
            <path d="M117.43,138.5931 L95.61,138.5931 C93.165,138.5931 91.175,136.6031 91.175,134.1551 L91.175,120.0531 C91.175,117.6061 93.165,115.6161 95.61,115.6161 L98.717,115.6161 L98.717,111.6961 C98.717,110.8551 99.397,110.1751 100.237,110.1751 C101.078,110.1751 101.758,110.8551 101.758,111.6961 L101.758,117.1361 C101.758,117.9771 101.078,118.6571 100.237,118.6571 L95.61,118.6571 C94.84,118.6571 94.216,119.2841 94.216,120.0531 L94.216,134.1551 C94.216,134.9251 94.84,135.5511 95.61,135.5511 L117.43,135.5511 C118.199,135.5511 118.826,134.9251 118.826,134.1551 L118.826,120.0531 C118.826,119.2841 118.199,118.6571 117.43,118.6571 L113.049,118.6571 C112.208,118.6571 111.323,117.9771 111.323,117.1361 L111.323,111.6961 C111.323,110.8551 112.003,110.1751 112.844,110.1751 C113.684,110.1751 114.365,110.8551 114.365,111.6961 L114.365,115.6161 L117.43,115.6161 C119.878,115.6161 121.868,117.6061 121.868,120.0531 L121.868,134.1551 C121.868,136.6031 119.878,138.5931 117.43,138.5931" id="Fill-17" fill="#404041"></path>
            <path d="M116.3339,113.0418 L96.7499,113.0418 C95.9099,113.0418 95.2289,112.3618 95.2289,111.5208 C95.2289,110.6808 95.9099,109.9998 96.7499,109.9998 L116.3339,109.9998 C117.1749,109.9998 117.8549,110.6808 117.8549,111.5208 C117.8549,112.3618 117.1749,113.0418 116.3339,113.0418" id="Fill-19" fill="#404041"></path>
            <path d="M106.5198,107.9298 C105.7088,107.9298 105.0348,107.2898 104.9988,106.4728 C104.9638,105.5698 104.2178,84.2048 116.8178,70.4318 C117.3858,69.8108 118.3448,69.7718 118.9688,70.3348 C119.5868,70.9028 119.6308,71.8648 119.0638,72.4838 C107.3218,85.3188 108.0318,106.1368 108.0408,106.3468 C108.0738,107.1858 107.4228,107.8928 106.5818,107.9288 C106.5618,107.9288 106.5408,107.9298 106.5198,107.9298" id="Fill-21" fill="#404041"></path>
            <path d="M107.0515,99.0557 C106.3505,99.0557 105.7235,98.5717 105.5665,97.8617 C105.3855,97.0417 105.9045,96.2297 106.7245,96.0497 C121.5415,92.7927 124.9245,69.4037 125.5835,62.8247 C121.4815,63.2897 110.9245,65.6147 105.6735,77.2457 C103.4515,82.1617 103.1455,86.9607 104.7615,91.5107 C105.0435,92.3027 104.6305,93.1717 103.8405,93.4537 C103.0445,93.7317 102.1775,93.3217 101.8975,92.5297 C100.5965,88.8747 99.7145,83.0397 102.8985,75.9917 C110.1915,59.8527 126.5555,59.6667 127.2475,59.6667 C127.6635,59.6667 128.0645,59.8377 128.3495,60.1407 C128.6375,60.4437 128.7885,60.8507 128.7655,61.2667 C128.6935,62.6327 126.7985,94.7517 107.3785,99.0197 C107.2685,99.0437 107.1585,99.0557 107.0515,99.0557" id="Fill-23" fill="#404041"></path>
            <path d="M123.0203,82.0473 L117.5433,82.0473 C116.7023,82.0473 116.0223,81.3673 116.0223,80.5263 C116.0223,79.6863 116.7023,79.0053 117.5433,79.0053 L123.0203,79.0053 C123.8613,79.0053 124.5413,79.6863 124.5413,80.5263 C124.5413,81.3673 123.8613,82.0473 123.0203,82.0473" id="Fill-25" fill="#404041"></path>
            <path d="M120.2816,87.9198 L114.9796,87.9198 C114.1386,87.9198 113.4586,87.2398 113.4586,86.3988 C113.4586,85.5588 114.1386,84.8778 114.9796,84.8778 L120.2816,84.8778 C121.1226,84.8778 121.8026,85.5588 121.8026,86.3988 C121.8026,87.2398 121.1226,87.9198 120.2816,87.9198" id="Fill-27" fill="#404041"></path>
            <path d="M128.8274,138.5931 L79.7834,138.5931 C78.9424,138.5931 78.2624,137.9131 78.2624,137.0721 C78.2624,136.2321 78.9424,135.5511 79.7834,135.5511 L128.8274,135.5511 C129.6684,135.5511 130.3484,136.2321 130.3484,137.0721 C130.3484,137.9131 129.6684,138.5931 128.8274,138.5931" id="Fill-29" fill="#404041"></path>
        </g>
    </g>
</svg>
