<?xml version="1.0" encoding="UTF-8"?>
<svg width="58px" height="64px" viewBox="0 0 58 64" version="1.1" xmlns="http://www.w3.org/2000/svg" xmlns:xlink="http://www.w3.org/1999/xlink">
    <!-- Generator: Sketch 44.1 (41455) - http://www.bohemiancoding.com/sketch -->
    <title>contact-h</title>
    <desc>Created with Sketch.</desc>
    <defs>
        <polygon id="path-1" points="0 51.5032071 0 0.042 57.5 0.042 57.5 64 0 64 0 51.5032071 57.4998 51.5032071 57.4998 0.0421 -0.0002 0.0421 -0.0002 51.5032071"></polygon>
    </defs>
    <g id="Page-1" stroke="none" stroke-width="1" fill="none" fill-rule="evenodd">
        <g id="Artboard-Copy-12" transform="translate(-3.000000, 0.000000)">
            <g id="contact-h" transform="translate(3.000000, -1.000000)">
                <polygon id="Fill-1" fill="#68D1C9" points="22.306 37.601 35.183 37.601 35.183 18.407 22.306 18.407"></polygon>
                <g id="Group-31" transform="translate(0.000000, 0.958000)">
                    <path d="M10.6828,56.4959 C10.6728,56.3589 10.6128,56.2459 10.5098,56.1549 C10.4038,56.0659 10.2838,56.0249 10.1428,56.0369 C10.0058,56.0469 9.8928,56.1059 9.8008,56.2099 L7.4398,59.0299 L7.4398,56.5389 C7.4398,56.3989 7.3918,56.2799 7.2928,56.1829 C7.1928,56.0849 7.0748,56.0369 6.9378,56.0369 C6.7958,56.0369 6.6758,56.0849 6.5748,56.1829 C6.4788,56.2799 6.4288,56.3989 6.4288,56.5389 L6.4288,63.4899 C6.4288,63.6309 6.4788,63.7499 6.5748,63.8469 C6.6758,63.9479 6.7958,63.9979 6.9378,63.9979 C7.0748,63.9979 7.1928,63.9479 7.2928,63.8469 C7.3918,63.7499 7.4398,63.6309 7.4398,63.4899 L7.4398,60.6209 L9.7798,63.7929 C9.8638,63.9049 9.9718,63.9719 10.1108,63.9929 C10.2458,64.0149 10.3708,63.9839 10.4838,63.9009 C10.5918,63.8179 10.6568,63.7089 10.6778,63.5709 C10.6998,63.4349 10.6688,63.3099 10.5868,63.1979 L8.0888,59.8089 L10.5648,56.8589 C10.6538,56.7539 10.6948,56.6329 10.6828,56.4959" id="Fill-2" fill="#404041"></path>
                    <path d="M14.8507,59.2369 L12.7467,59.2369 L12.7467,58.0789 C12.7467,57.9429 12.7747,57.8109 12.8277,57.6849 C12.8327,57.6739 12.8327,57.6709 12.8327,57.6739 C12.8687,57.5839 12.9197,57.5009 12.9797,57.4259 C12.9837,57.4259 12.9867,57.4249 12.9917,57.4209 C12.9917,57.4169 12.9917,57.4139 12.9957,57.4089 C13.0277,57.3739 13.0637,57.3379 13.1047,57.3009 C13.1207,57.2839 13.1327,57.2739 13.1357,57.2739 C13.1567,57.2559 13.1787,57.2409 13.2007,57.2259 C13.2197,57.2119 13.2437,57.1969 13.2727,57.1829 C13.2897,57.1709 13.3157,57.1589 13.3467,57.1449 C13.3687,57.1339 13.3927,57.1229 13.4167,57.1119 L13.4717,57.0969 C13.5107,57.0819 13.5537,57.0709 13.5967,57.0629 C13.6037,57.0629 13.6187,57.0619 13.6397,57.0579 C13.6907,57.0509 13.7337,57.0469 13.7747,57.0469 L13.8227,57.0469 C13.8637,57.0469 13.9067,57.0509 13.9567,57.0579 C13.9787,57.0619 13.9927,57.0629 14.0007,57.0629 C14.0437,57.0709 14.0867,57.0819 14.1257,57.0969 C14.1297,57.0969 14.1447,57.1009 14.1737,57.1119 C14.1997,57.1229 14.2237,57.1339 14.2497,57.1449 C14.2787,57.1589 14.3027,57.1709 14.3247,57.1829 C14.3507,57.1969 14.3747,57.2119 14.3967,57.2259 C14.4187,57.2409 14.4397,57.2559 14.4617,57.2739 C14.4687,57.2819 14.4787,57.2909 14.4927,57.3009 C14.5337,57.3379 14.5697,57.3739 14.6007,57.4089 C14.6127,57.4249 14.6157,57.4289 14.6127,57.4259 C14.6727,57.5009 14.7237,57.5839 14.7647,57.6739 L14.7687,57.6849 C14.8217,57.8109 14.8507,57.9429 14.8507,58.0789 L14.8507,59.2369 Z M15.7587,57.4429 C15.7587,57.4349 15.7567,57.4289 15.7517,57.4259 C15.5277,56.7659 15.0857,56.3339 14.4227,56.1279 C14.4187,56.1279 14.4157,56.1269 14.4107,56.1239 C14.3587,56.1089 14.3027,56.0949 14.2457,56.0799 L14.2237,56.0799 C14.2167,56.0769 14.2097,56.0739 14.2067,56.0739 C14.1567,56.0639 14.1037,56.0549 14.0507,56.0469 L14.0077,56.0419 C13.9377,56.0379 13.8757,56.0369 13.8177,56.0369 L13.7797,56.0369 C13.7217,56.0369 13.6567,56.0379 13.5847,56.0419 L13.5467,56.0469 C13.4937,56.0549 13.4407,56.0639 13.3897,56.0739 C13.3877,56.0739 13.3807,56.0769 13.3687,56.0799 L13.3517,56.0799 C13.2937,56.0949 13.2387,56.1089 13.1857,56.1239 C13.1787,56.1269 13.1717,56.1279 13.1687,56.1279 C12.5057,56.3339 12.0617,56.7659 11.8387,57.4259 C11.8457,57.4079 11.8457,57.4169 11.8337,57.4519 C11.7687,57.6589 11.7377,57.8679 11.7377,58.0789 L11.7377,63.4899 C11.7377,63.6309 11.7857,63.7519 11.8817,63.8519 C11.9827,63.9499 12.1047,63.9979 12.2447,63.9979 C12.3817,63.9979 12.5017,63.9499 12.6027,63.8519 C12.6987,63.7519 12.7467,63.6309 12.7467,63.4899 L12.7467,60.2469 L14.8507,60.2469 L14.8507,63.4899 C14.8507,63.6309 14.8987,63.7519 14.9947,63.8519 C15.0937,63.9499 15.2107,63.9979 15.3527,63.9979 C15.4917,63.9979 15.6127,63.9499 15.7087,63.8519 C15.8087,63.7519 15.8597,63.6309 15.8597,63.4899 L15.8597,58.0789 C15.8597,57.8679 15.8257,57.6589 15.7587,57.4519 L15.7587,57.4429 Z" id="Fill-4" fill="#404041"></path>
                    <path d="M20.2485,58.1991 C20.2485,58.4871 20.1475,58.7321 19.9415,58.9341 C19.7395,59.1361 19.4965,59.2371 19.2105,59.2371 L18.0605,59.2371 L18.0605,57.1341 L19.2105,57.1341 C19.4965,57.1341 19.7395,57.2341 19.9415,57.4361 C20.1475,57.6381 20.2485,57.8821 20.2485,58.1651 L20.2485,58.1991 Z M19.2105,56.1231 L17.5575,56.1231 C17.4165,56.1231 17.2965,56.1721 17.1955,56.2691 C17.0995,56.3661 17.0485,56.4851 17.0485,56.6261 L17.0485,63.4901 C17.0485,63.6301 17.0995,63.7521 17.1955,63.8511 C17.2965,63.9501 17.4165,63.9981 17.5575,63.9981 C17.6945,63.9981 17.8125,63.9501 17.9135,63.8511 C18.0125,63.7521 18.0605,63.6301 18.0605,63.4901 L18.0605,60.2471 L19.2105,60.2471 C19.7775,60.2471 20.2605,60.0461 20.6595,59.6481 C21.0605,59.2461 21.2595,58.7651 21.2595,58.1991 L21.2595,58.1651 C21.2595,57.6031 21.0605,57.1231 20.6595,56.7231 C20.2605,56.3231 19.7775,56.1231 19.2105,56.1231 L19.2105,56.1231 Z" id="Fill-6" fill="#404041"></path>
                    <path d="M23.4387,57.3499 C23.6407,57.1479 23.8857,57.0469 24.1737,57.0469 L24.2047,57.0469 C24.4287,57.0469 24.6307,57.1119 24.8107,57.2419 C24.9907,57.3719 25.1157,57.5409 25.1847,57.7499 C25.2597,57.9699 25.4177,58.0789 25.6607,58.0789 C25.8287,58.0789 25.9657,58.0119 26.0717,57.8749 C26.1727,57.7329 26.1937,57.5839 26.1417,57.4259 C26.0047,57.0149 25.7597,56.6819 25.4057,56.4259 C25.0487,56.1669 24.6497,56.0369 24.2047,56.0369 L24.1737,56.0369 C23.6067,56.0369 23.1237,56.2369 22.7257,56.6369 C22.3237,57.0369 22.1247,57.5169 22.1247,58.0789 L22.1247,61.9489 C22.1247,62.5159 22.3237,62.9989 22.7257,63.3979 C23.1237,63.7989 23.6067,63.9979 24.1737,63.9979 L24.2047,63.9979 C24.6497,63.9979 25.0487,63.8669 25.4057,63.6039 C25.7597,63.3479 26.0047,63.0169 26.1417,62.6099 C26.1937,62.4459 26.1727,62.2969 26.0717,62.1609 C25.9657,62.0199 25.8287,61.9489 25.6607,61.9489 C25.4177,61.9489 25.2597,62.0619 25.1847,62.2849 C25.1157,62.4899 24.9907,62.6579 24.8107,62.7869 C24.6307,62.9209 24.4287,62.9869 24.2047,62.9869 L24.1737,62.9869 C23.8857,62.9869 23.6407,62.8869 23.4387,62.6839 C23.2367,62.4839 23.1357,62.2389 23.1357,61.9489 L23.1357,58.0789 C23.1357,57.7959 23.2367,57.5519 23.4387,57.3499" id="Fill-8" fill="#404041"></path>
                    <path d="M29.0335,59.339 C28.7405,59.339 28.4935,59.238 28.2865,59.036 C28.0775,58.835 27.9745,58.588 27.9745,58.295 L27.9745,58.128 C27.9745,57.833 28.0755,57.582 28.2815,57.378 C28.4835,57.169 28.7305,57.063 29.0215,57.063 L29.0555,57.063 C29.2805,57.063 29.4875,57.133 29.6705,57.269 C29.8505,57.403 29.9775,57.576 30.0495,57.788 C30.1245,58.014 30.2825,58.128 30.5255,58.128 L30.5305,58.128 C30.7035,58.128 30.8395,58.057 30.9405,57.918 C31.0445,57.774 31.0705,57.619 31.0155,57.452 C30.8765,57.035 30.6265,56.694 30.2705,56.431 C29.9105,56.164 29.5045,56.031 29.0555,56.031 L29.0215,56.031 C28.4495,56.031 27.9595,56.235 27.5565,56.642 C27.1505,57.053 26.9455,57.548 26.9455,58.128 L26.9455,58.28 C26.9455,58.86 27.1525,59.352 27.5635,59.756 C27.9695,60.159 28.4645,60.366 29.0475,60.377 C29.4565,60.388 29.7835,60.557 30.0325,60.885 C30.2875,61.22 30.3615,61.598 30.2535,62.02 C30.1795,62.297 30.0235,62.524 29.7905,62.701 C29.5595,62.874 29.2975,62.96 29.0045,62.96 L28.9835,62.96 C28.6945,62.96 28.4375,62.873 28.2115,62.696 C27.9885,62.523 27.8375,62.301 27.7575,62.031 C27.6885,61.789 27.5275,61.668 27.2705,61.668 C27.0975,61.668 26.9605,61.739 26.8595,61.879 C26.7585,62.02 26.7345,62.175 26.7845,62.344 C26.9295,62.827 27.2005,63.222 27.5995,63.527 C28.0105,63.842 28.4715,63.998 28.9835,63.998 L28.9905,63.998 C29.5405,63.998 30.0305,63.828 30.4605,63.484 C30.8925,63.138 31.1615,62.697 31.2695,62.16 C31.4215,61.422 31.2655,60.766 30.7995,60.193 C30.3425,59.627 29.7545,59.343 29.0335,59.339" id="Fill-10" fill="#404041"></path>
                    <path d="M35.731,61.7016 C35.731,62.0546 35.604,62.3576 35.351,62.6096 C35.099,62.8616 34.797,62.9866 34.443,62.9866 C34.088,62.9866 33.785,62.8616 33.535,62.6096 C33.283,62.3576 33.158,62.0546 33.158,61.7016 L33.158,58.3286 C33.158,57.9756 33.283,57.6726 33.535,57.4206 C33.785,57.1706 34.088,57.0476 34.443,57.0476 C34.797,57.0476 35.099,57.1706 35.351,57.4206 C35.604,57.6726 35.731,57.9756 35.731,58.3286 L35.731,61.7016 Z M34.443,56.0376 C33.809,56.0376 33.269,56.2606 32.822,56.7076 C32.37,57.1576 32.147,57.6986 32.147,58.3286 L32.147,61.7016 C32.147,62.3356 32.37,62.8766 32.822,63.3236 C33.269,63.7736 33.809,63.9986 34.443,63.9986 C35.078,63.9986 35.618,63.7736 36.065,63.3236 C36.514,62.8766 36.74,62.3356 36.74,61.7016 L36.74,58.3286 C36.74,57.6986 36.514,57.1576 36.065,56.7076 C35.618,56.2606 35.078,56.0376 34.443,56.0376 L34.443,56.0376 Z" id="Fill-12" fill="#404041"></path>
                    <path d="M41.1937,62.9868 L38.7767,62.9868 L38.7767,56.6368 C38.7767,56.4958 38.7287,56.3768 38.6327,56.2798 C38.5317,56.1788 38.4117,56.1288 38.2747,56.1288 C38.1357,56.1288 38.0127,56.1788 37.9127,56.2798 C37.8157,56.3768 37.7677,56.4958 37.7677,56.6368 L37.7677,63.4898 C37.7677,63.6308 37.8157,63.7518 37.9127,63.8518 C38.0127,63.9498 38.1357,63.9978 38.2747,63.9978 L41.1937,63.9978 C41.3357,63.9978 41.4527,63.9498 41.5517,63.8518 C41.6527,63.7518 41.7027,63.6308 41.7027,63.4898 C41.7027,63.3528 41.6527,63.2338 41.5517,63.1338 C41.4527,63.0358 41.3357,62.9868 41.1937,62.9868" id="Fill-14" fill="#404041"></path>
                    <path d="M45.6811,59.2369 L43.5771,59.2369 L43.5771,58.0789 C43.5771,57.9429 43.6051,57.8109 43.6581,57.6849 C43.6631,57.6739 43.6631,57.6709 43.6631,57.6739 C43.6991,57.5839 43.7501,57.5009 43.8101,57.4259 C43.8141,57.4259 43.8171,57.4249 43.8221,57.4209 C43.8221,57.4169 43.8221,57.4139 43.8261,57.4089 C43.8581,57.3739 43.8941,57.3379 43.9351,57.3009 C43.9511,57.2839 43.9631,57.2739 43.9661,57.2739 C43.9871,57.2559 44.0091,57.2409 44.0311,57.2259 C44.0501,57.2119 44.0741,57.1969 44.1031,57.1829 C44.1201,57.1709 44.1461,57.1589 44.1771,57.1449 C44.1991,57.1339 44.2231,57.1229 44.2471,57.1119 L44.3021,57.0969 C44.3411,57.0819 44.3841,57.0709 44.4271,57.0629 C44.4341,57.0629 44.4491,57.0619 44.4701,57.0579 C44.5211,57.0509 44.5641,57.0469 44.6051,57.0469 L44.6531,57.0469 C44.6941,57.0469 44.7371,57.0509 44.7871,57.0579 C44.8091,57.0619 44.8231,57.0629 44.8311,57.0629 C44.8741,57.0709 44.9171,57.0819 44.9561,57.0969 C44.9601,57.0969 44.9751,57.1009 45.0041,57.1119 C45.0301,57.1229 45.0541,57.1339 45.0801,57.1449 C45.1091,57.1589 45.1331,57.1709 45.1551,57.1829 C45.1811,57.1969 45.2051,57.2119 45.2271,57.2259 C45.2491,57.2409 45.2701,57.2559 45.2921,57.2739 C45.2991,57.2819 45.3091,57.2909 45.3231,57.3009 C45.3641,57.3379 45.4001,57.3739 45.4311,57.4089 C45.4431,57.4249 45.4461,57.4289 45.4431,57.4259 C45.5031,57.5009 45.5541,57.5839 45.5951,57.6739 L45.5991,57.6849 C45.6521,57.8109 45.6811,57.9429 45.6811,58.0789 L45.6811,59.2369 Z M46.5891,57.4429 C46.5891,57.4349 46.5871,57.4289 46.5821,57.4259 C46.3581,56.7659 45.9161,56.3339 45.2531,56.1279 C45.2491,56.1279 45.2461,56.1269 45.2411,56.1239 C45.1891,56.1089 45.1331,56.0949 45.0761,56.0799 L45.0541,56.0799 C45.0471,56.0769 45.0401,56.0739 45.0371,56.0739 C44.9871,56.0639 44.9341,56.0549 44.8811,56.0469 L44.8381,56.0419 C44.7681,56.0379 44.7061,56.0369 44.6481,56.0369 L44.6101,56.0369 C44.5521,56.0369 44.4871,56.0379 44.4151,56.0419 L44.3771,56.0469 C44.3241,56.0549 44.2711,56.0639 44.2201,56.0739 C44.2181,56.0739 44.2111,56.0769 44.1991,56.0799 L44.1821,56.0799 C44.1241,56.0949 44.0691,56.1089 44.0161,56.1239 C44.0091,56.1269 44.0021,56.1279 43.9991,56.1279 C43.3361,56.3339 42.8921,56.7659 42.6691,57.4259 C42.6761,57.4079 42.6761,57.4169 42.6641,57.4519 C42.5991,57.6589 42.5681,57.8679 42.5681,58.0789 L42.5681,63.4899 C42.5681,63.6309 42.6161,63.7519 42.7121,63.8519 C42.8131,63.9499 42.9351,63.9979 43.0751,63.9979 C43.2111,63.9979 43.3321,63.9499 43.4321,63.8519 C43.5291,63.7519 43.5771,63.6309 43.5771,63.4899 L43.5771,60.2469 L45.6811,60.2469 L45.6811,63.4899 C45.6811,63.6309 45.7291,63.7519 45.8251,63.8519 C45.9241,63.9499 46.0411,63.9979 46.1831,63.9979 C46.3221,63.9979 46.4431,63.9499 46.5391,63.8519 C46.6391,63.7519 46.6901,63.6309 46.6901,63.4899 L46.6901,58.0789 C46.6901,57.8679 46.6561,57.6589 46.5891,57.4519 L46.5891,57.4429 Z" id="Fill-16" fill="#404041"></path>
                    <path d="M50.942,56.1068 L47.235,56.1068 C47.094,56.1068 46.973,56.1548 46.873,56.2538 C46.774,56.3538 46.726,56.4728 46.726,56.6088 C46.726,56.7508 46.774,56.8688 46.873,56.9668 C46.973,57.0678 47.094,57.1178 47.235,57.1178 L48.581,57.1178 L48.581,63.4898 C48.581,63.6308 48.631,63.7518 48.732,63.8518 C48.828,63.9498 48.948,63.9978 49.087,63.9978 C49.224,63.9978 49.344,63.9498 49.445,63.8518 C49.541,63.7518 49.592,63.6308 49.592,63.4898 L49.592,57.1178 L50.942,57.1178 C51.084,57.1178 51.201,57.0678 51.3,56.9668 C51.396,56.8688 51.444,56.7508 51.444,56.6088 C51.444,56.4728 51.396,56.3538 51.3,56.2538 C51.201,56.1548 51.084,56.1068 50.942,56.1068" id="Fill-18" fill="#404041"></path>
                    <path d="M11.7218,50.4051 C5.0548,45.1451 1.2298,37.2661 1.2298,28.7871 C1.2298,13.6151 13.5728,1.2721 28.7438,1.2721 C43.9218,1.2721 56.2698,13.6151 56.2698,28.7871 C56.2698,37.2651 52.4468,45.1441 45.7798,50.4051 C45.5128,50.6151 45.4678,51.0021 45.6778,51.2691 C45.7988,51.4221 45.9788,51.5031 46.1608,51.5031 C46.2938,51.5031 46.4278,51.4601 46.5408,51.3711 C53.5048,45.8761 57.4998,37.6441 57.4998,28.7871 C57.4998,12.9371 44.5998,0.0421 28.7438,0.0421 C12.8938,0.0421 -0.0002,12.9371 -0.0002,28.7871 C-0.0002,37.6441 3.9948,45.8761 10.9598,51.3711 C11.2278,51.5811 11.6148,51.5361 11.8238,51.2691 C12.0338,51.0021 11.9888,50.6151 11.7218,50.4051" id="Fill-20" fill="#404041"></path>
                    <g id="Group-22">
                        <mask id="mask-2" fill="white">
                            <use xlink:href="#path-1"></use>
                        </mask>
                        <g id="Clip-21"></g>
                    </g>
                    <path d="M22.921,36.0276 L22.921,35.3686 L29.21,29.0806 C29.45,28.8396 29.45,28.4506 29.21,28.2106 C28.97,27.9706 28.581,27.9706 28.34,28.2106 L22.921,33.6296 L22.921,18.0636 L34.568,18.0636 L34.568,18.8696 L24.971,28.4656 C24.731,28.7056 24.731,29.0946 24.971,29.3346 C25.091,29.4546 25.249,29.5156 25.406,29.5156 C25.563,29.5156 25.721,29.4546 25.841,29.3346 L34.568,20.6086 L34.568,36.0276 L22.921,36.0276 Z M35.183,16.8336 L22.306,16.8336 C21.966,16.8336 21.691,17.1086 21.691,17.4486 L21.691,35.1086 L21.691,35.1206 L21.691,36.6426 C21.691,36.9826 21.966,37.2576 22.306,37.2576 L35.183,37.2576 C35.523,37.2576 35.798,36.9826 35.798,36.6426 L35.798,17.4486 C35.798,17.1086 35.523,16.8336 35.183,16.8336 L35.183,16.8336 Z" id="Fill-23" fill="#404041"></path>
                    <path d="M37.2468,40.6832 C37.2468,41.5362 36.5538,42.2302 35.7008,42.2302 L21.7868,42.2302 C20.9348,42.2302 20.2408,41.5362 20.2408,40.6832 L20.2408,17.0262 C20.2408,16.1722 20.9348,15.4772 21.7868,15.4772 L35.7008,15.4772 C36.5538,15.4772 37.2468,16.1722 37.2468,17.0262 L37.2468,40.6832 Z M38.4768,17.0262 C38.4768,15.4942 37.2308,14.2472 35.7008,14.2472 L21.7868,14.2472 C20.2568,14.2472 19.0118,15.4942 19.0118,17.0262 L19.0118,40.6832 C19.0118,42.2142 20.2568,43.4602 21.7868,43.4602 L35.7008,43.4602 C37.2308,43.4602 38.4768,42.2142 38.4768,40.6832 L38.4768,17.0262 Z" id="Fill-25" fill="#404041"></path>
                    <path d="M28.7436,38.6844 C28.1766,38.6844 27.7166,39.1454 27.7166,39.7124 C27.7166,40.2794 28.1766,40.7404 28.7436,40.7404 C29.3106,40.7404 29.7706,40.2794 29.7706,39.7124 C29.7706,39.1454 29.3106,38.6844 28.7436,38.6844" id="Fill-27" fill="#404041"></path>
                    <path d="M29.7878,26.767 C29.6648,26.878 29.6038,27.038 29.6038,27.198 C29.6038,27.37 29.6648,27.53 29.7878,27.64 C29.8988,27.752 30.0588,27.813 30.2188,27.813 C30.3668,27.813 30.5268,27.752 30.6608,27.64 C30.7718,27.518 30.8338,27.358 30.8338,27.198 C30.8338,27.05 30.7718,26.891 30.6488,26.755 C30.4028,26.534 30.0098,26.546 29.7878,26.767" id="Fill-29" fill="#404041"></path>
                </g>
            </g>
        </g>
    </g>
</svg>