
<svg width="1366px" height="460px" viewBox="0 0 1366 460" version="1.1" xmlns="http://www.w3.org/2000/svg" xmlns:xlink="http://www.w3.org/1999/xlink">
    <!-- Generator: Sketch 44.1 (41455) - http://www.bohemiancoding.com/sketch -->
    <desc>Created with Sketch.</desc>
    <defs>
        <polygon id="path-1" points="0 207.789402 0 0.00270083701 85.6110869 0.00270083701 85.6110869 207.789402 2.5378323e-15 207.789402"></polygon>
        <polygon id="path-3" points="86.5062376 0.136529915 86.5062376 207.92323 0.895150762 207.92323 0.895150762 0.136529915 86.5062376 0.136529915"></polygon>
    </defs>
    <g id="monitor" stroke="none" stroke-width="1" fill="none" fill-rule="evenodd">
        <g id="gyerekeknek" transform="translate(0.000000, -21.000000)">
            <g id="HEADER_BG" transform="translate(-31.000000, 22.000000)">
                <g id="Group-74" transform="translate(0.000000, 0.507094)">
                    <g id="Group-37">
                        <path d="M201.203829,253.352453 C201.203829,253.352453 252.406943,348.444932 360.299635,339.301256 C412.984792,334.836214 449.790299,305.209718 488.638701,318.372368 C478.167053,271.078949 450.465936,230.893564 376.266463,249.782453 C288.365362,272.159974 284.698033,275.302795 201.203829,253.352453" id="Fill-2" stroke="#73E4E2" stroke-width="3"></path>
                        <path d="M355.557099,225.922154 C355.557099,225.922154 500.214615,199.611385 508.230721,126.852838 C510.218401,108.816855 504.515444,85.0386496 514.690682,73.2824957 C474.534596,57.598906 439.588907,83.6786496 421.390297,145.917538 C413.705471,172.194889 384.815814,211.749675 355.557099,225.922154" id="Fill-4" stroke="#73E4E2" stroke-width="3"></path>
                        <path d="M87.825546,266.153308 C87.825546,266.153308 150.687394,218.682624 182.689341,263.485615 C194.074914,279.424932 194.410553,312.641769 212.638222,314.264761 C201.203248,321.509376 186.609488,319.344419 170.11668,306.385188 C144.515123,286.268521 133.542197,265.239376 87.825546,266.153308" id="Fill-6" stroke="#73E4E2" stroke-width="3"></path>
                        <path d="M432.557051,220.436094 C432.557051,220.436094 467.393767,213.530026 475.248592,239.855325 C480.960268,258.99994 491.763195,272.854214 508.231302,267.720795 C497.589656,260.197205 512.790762,247.022932 502.894496,227.689427 C491.705075,205.830624 453.000519,205.763786 432.557051,220.436094" id="Fill-8" stroke="#73E4E2" stroke-width="3"></path>
                        <g id="Group-12" transform="translate(0.000000, 7.264957)">
                            <mask id="mask-2" fill="white">
                                <use xlink:href="#path-1"></use>
                            </mask>
                            <g id="Clip-11"></g>
                            <path d="M42.5379607,207.789402 C42.5379607,207.789402 101.242825,174.26453 81.5839677,79.6297436 C74.7680254,46.8182906 57.9381255,28.3769231 59.9650365,0.427179487 C42.6207807,-3.66880342 9.38670485,22.8947863 3.58203852,36.3596581 C-7.84712427,62.8767521 9.52473822,89.9677778 35.1277483,135.109316 C60.7293055,180.250855 42.5379607,207.789402 42.5379607,207.789402" id="Fill-10" stroke="#73E4E2" stroke-width="3" mask="url(#mask-2)"></path>
                        </g>
                        <path d="M108.367817,143.708846 C108.367817,143.708846 155.899244,135.17688 151.204656,89.1809829 C148.804329,65.6657692 133.606128,59.075 140.138739,48.1804701 C132.918868,48.6788462 104.751343,57.8501282 108.367817,80.4601282 C111.286859,98.7067949 125.783269,117.078419 108.367817,143.708846" id="Fill-13" stroke="#73E4E2" stroke-width="3"></path>
                        <path d="M289.499415,349.681718 C289.499415,349.681718 338.874677,385.182658 403.291217,361.394282 C472.191662,335.950949 495.506224,359.708812 500.460895,378.153085 C488.637974,375.136675 459.745411,388.780265 442.021926,404.52488 C411.343647,431.778641 337.511779,434.924368 289.499415,349.681718" id="Fill-15" stroke="#73E4E2" stroke-width="3"></path>
                        <path d="M357.098859,189.348325 C357.098859,189.348325 401.823123,175.905248 397.786737,118.485932 C395.985038,92.8420855 382.905287,90.7032821 394.981027,65.219265 C364.66454,59.6252479 344.92141,81.9214017 353.441701,112.92388 C363.041559,142.716017 374.634908,163.669607 357.098859,189.348325" id="Fill-17" stroke="#73E4E2" stroke-width="3"></path>
                        <path d="M128.536526,378.024641 C128.536526,378.024641 146.323942,379.409342 157.849001,350.757803 C165.921774,330.689085 183.30526,333.16353 190.185134,336.288915 C182.689195,340.511308 180.822113,357.030368 180.560576,359.574556 C178.196573,382.568145 159.360103,395.235325 128.536526,378.024641" id="Fill-19" stroke="#73E4E2" stroke-width="3"></path>
                        <path d="M195.123241,367.984179 C195.123241,367.984179 219.793436,319.143325 252.260337,333.995803 C269.825446,342.030846 269.993992,358.921872 280.38282,363.988453 C272.405944,371.384179 259.218672,368.489821 238.015294,359.574265 C218.459598,351.350333 195.123241,367.984179 195.123241,367.984179" id="Fill-21" stroke="#73E4E2" stroke-width="3"></path>
                        <path d="M59.9651818,244.639735 C59.9651818,244.639735 84.8896489,140.819137 201.203829,149.868368 C324.729163,159.477 321.42508,117.052556 321.42508,117.052556 C321.42508,117.052556 382.229504,215.053923 294.95028,244.241615 C239.302491,262.85153 160.630737,193.485718 59.9651818,244.639735" id="Fill-23" stroke="#73E4E2" stroke-width="3"></path>
                        <path d="M170.764856,126.852983 C170.764856,126.852983 206.101398,105.566658 243.833909,117.052556 C281.564966,128.538453 318.723549,106.91794 309.940268,73.8129829 C296.427528,85.9745214 236.734635,61.1516154 201.203393,81.9206752 C172.791767,98.5283675 170.764856,126.852983 170.764856,126.852983" id="Fill-25" stroke="#73E4E2" stroke-width="3"></path>
                        <path d="M369.900219,11.8642564 C338.706131,-24.788906 314.531403,41.4994701 270.078847,54.7565641 C270.078847,54.7565641 361.321808,68.0136581 369.900219,11.8642564" id="Fill-27" stroke="#73E4E2" stroke-width="3"></path>
                        <path d="M483.590021,198.826479 C483.590021,198.826479 503.125375,214.450496 525.711993,195.375624 C548.767924,175.905538 554.847204,177.596821 554.847204,177.596821 C554.847204,177.596821 543.69992,158.349043 523.728671,162.150068 C493.843721,167.835624 505.762539,187.31588 483.590021,198.826479" id="Fill-29" stroke="#73E4E2" stroke-width="3"></path>
                        <path d="M530.884612,129.957299 C530.884612,129.957299 541.055491,52.8688376 611.965411,54.2201197 C682.875332,55.5714017 701.442999,25.1617436 701.442999,25.1617436 C701.442999,25.1617436 723.465859,84.0224274 677.159297,110.671744 C630.854188,137.32106 559.281708,96.9206325 530.884612,129.957299" id="Fill-31" stroke="#73E4E2" stroke-width="3"></path>
                        <path d="M23.6969873,289.333462 C23.6969873,289.333462 62.6674392,254.275684 104.555481,295.010299 C131.843951,321.547735 131.335407,329.578419 145.30729,325.332778 C142.3897,349.850556 111.066297,364.158162 84.5028649,339.920812 C57.9379802,315.682009 50.260419,287.306538 23.6969873,289.333462" id="Fill-33" stroke="#73E4E2" stroke-width="3"></path>
                        <path d="M54.3678561,331.184701 C54.3678561,331.184701 64.9136054,370.235299 93.9165952,378.672821 C122.919585,387.108889 131.351244,410.311709 117.906794,424.549573 C102.866969,407.649829 71.3604901,418.304615 55.0144335,401.957009 C38.6669239,385.610855 35.3846357,364.904274 54.3678561,331.184701" id="Fill-35" stroke="#73E4E2" stroke-width="3"></path>
                    </g>
                    <g id="Group-73" transform="translate(729.397371, 31.965812)">
                        <path d="M505.725924,172.069205 C505.725924,172.069205 454.522809,76.9767265 346.630118,86.1204017 C293.944961,90.5854444 257.139453,120.21194 218.291052,107.049291 C228.762699,154.342709 256.463816,194.528094 330.66329,175.639205 C418.564391,153.261684 422.231719,150.118863 505.725924,172.069205" id="Fill-38" stroke="#73E4E2" stroke-width="3"></path>
                        <path d="M351.372654,199.499504 C351.372654,199.499504 206.715138,225.810274 198.699032,298.568821 C196.711351,316.604803 202.414309,340.383009 192.23907,352.139162 C232.395156,367.822752 267.340846,341.743009 285.539456,279.50412 C293.224282,253.226769 322.113939,213.671983 351.372654,199.499504" id="Fill-40" stroke="#73E4E2" stroke-width="3"></path>
                        <path d="M619.104207,159.26835 C619.104207,159.26835 556.242358,206.739034 524.240412,161.936043 C512.854839,145.996726 512.519199,112.779889 494.29153,111.156897 C505.726505,103.912282 520.320264,106.077239 536.813072,119.03647 C562.414629,139.153137 573.387555,160.182282 619.104207,159.26835" id="Fill-42" stroke="#73E4E2" stroke-width="3"></path>
                        <path d="M274.372847,204.985564 C274.372847,204.985564 239.536131,211.891632 231.681306,185.566333 C225.96963,166.421718 215.166703,152.567444 198.698596,157.700863 C209.340242,165.224453 194.139136,178.398726 204.035402,197.732231 C215.224822,219.591034 253.929379,219.657872 274.372847,204.985564" id="Fill-44" stroke="#73E4E2" stroke-width="3"></path>
                        <g id="Group-48" transform="translate(620.423660, 210.230769)">
                            <mask id="mask-4" fill="white">
                                <use xlink:href="#path-3"></use>
                            </mask>
                            <g id="Clip-47"></g>
                            <path d="M43.9682769,0.136529915 C43.9682769,0.136529915 -14.7365876,33.6614017 4.92226987,128.296188 C11.7382122,161.107641 28.5681121,179.549009 26.5412011,207.498752 C43.8854569,211.594735 77.1195328,185.031145 82.9241991,171.564821 C94.3533619,145.049179 76.9814994,117.956701 51.3784893,72.8166154 C25.7769322,27.6750769 43.9682769,0.136529915 43.9682769,0.136529915" id="Fill-46" stroke="#73E4E2" stroke-width="3" mask="url(#mask-4)"></path>
                        </g>
                        <path d="M598.561936,281.712812 C598.561936,281.712812 551.030509,290.244778 555.725096,336.240675 C558.125424,359.755889 573.323624,366.346658 566.791013,377.241188 C574.010885,376.742812 602.17841,367.57153 598.561936,344.96153 C595.642893,326.714863 581.146484,308.343239 598.561936,281.712812" id="Fill-49" stroke="#73E4E2" stroke-width="3"></path>
                        <path d="M417.430483,75.7399402 C417.430483,75.7399402 368.055221,40.239 303.638681,64.0273761 C234.738236,89.4707094 211.423674,65.7128462 206.469003,47.2685726 C218.291924,50.2849829 247.184487,36.6413932 264.907971,20.8967778 C295.58625,-6.35698291 369.418119,-9.5027094 417.430483,75.7399402" id="Fill-51" stroke="#73E4E2" stroke-width="3"></path>
                        <path d="M349.831039,236.073333 C349.831039,236.073333 305.106775,249.51641 309.143161,306.935726 C310.94486,332.579573 324.024611,334.718376 311.948871,360.202393 C342.265357,365.79641 362.008488,343.500256 353.488197,312.497778 C343.888339,282.705641 332.294989,261.752051 349.831039,236.073333" id="Fill-53" stroke="#73E4E2" stroke-width="3"></path>
                        <path d="M578.393372,47.3970171 C578.393372,47.3970171 560.605956,46.0123162 549.080897,74.6638547 C541.008124,94.7325726 523.624638,92.2581282 516.744764,89.1327436 C524.240702,84.9103504 526.107785,68.3912906 526.369322,65.8471026 C528.733325,42.8535128 547.569794,30.1863333 578.393372,47.3970171" id="Fill-55" stroke="#73E4E2" stroke-width="3"></path>
                        <path d="M510.793056,57.4480855 C510.793056,57.4480855 486.122861,106.28894 453.65596,91.4364615 C436.090851,83.4014188 435.922305,66.5103932 425.533478,61.443812 C433.510353,54.0480855 446.697625,56.9424444 467.89955,65.858 C487.456699,74.0819316 510.793056,57.4480855 510.793056,57.4480855" id="Fill-57" stroke="#73E4E2" stroke-width="3"></path>
                        <path d="M646.964571,180.781923 C646.964571,180.781923 622.040104,284.602521 505.725924,275.553291 C382.20059,265.944658 385.504673,308.369103 385.504673,308.369103 C385.504673,308.369103 324.700248,210.367735 411.979473,181.180043 C467.627261,162.570128 546.299016,231.93594 646.964571,180.781923" id="Fill-59" stroke="#73E4E2" stroke-width="3"></path>
                        <path d="M536.165042,298.568675 C536.165042,298.568675 500.8285,319.855 463.095989,308.369103 C425.364932,296.883205 388.206349,318.503718 396.98963,351.608675 C410.50237,339.447137 470.195263,364.270043 505.726505,343.500983 C534.138131,326.893291 536.165042,298.568675 536.165042,298.568675" id="Fill-61" stroke="#73E4E2" stroke-width="3"></path>
                        <path d="M337.029534,413.557402 C368.223622,450.210564 392.39835,383.922188 436.850906,370.665094 C436.850906,370.665094 345.607944,357.408 337.029534,413.557402" id="Fill-63" stroke="#73E4E2" stroke-width="3"></path>
                        <path d="M223.339877,226.595325 C223.339877,226.595325 203.804523,210.971308 181.217905,230.046179 C158.161974,249.516265 152.082694,247.824983 152.082694,247.824983 C152.082694,247.824983 163.229978,267.072761 183.201227,263.271735 C213.086177,257.586179 201.167359,238.105923 223.339877,226.595325" id="Fill-65" stroke="#73E4E2" stroke-width="3"></path>
                        <path d="M176.045286,295.464359 C176.045286,295.464359 165.874407,372.552821 94.9644865,371.201538 C24.0545663,369.850256 5.48689899,400.259915 5.48689899,400.259915 C5.48689899,400.259915 -16.5359615,341.399231 29.7706007,314.749915 C76.0757099,288.100598 147.64819,328.501026 176.045286,295.464359" id="Fill-67" stroke="#73E4E2" stroke-width="3"></path>
                        <path d="M683.232911,136.088197 C683.232911,136.088197 644.262459,171.145974 602.374417,130.411359 C575.085947,103.873923 575.594491,95.8432393 561.622608,100.08888 C564.540198,75.5711026 595.863601,61.2634957 622.427033,85.5008462 C648.991918,109.73965 656.669479,138.11512 683.232911,136.088197" id="Fill-69" stroke="#73E4E2" stroke-width="3"></path>
                        <path d="M652.561896,94.2369573 C652.561896,94.2369573 642.016147,55.186359 613.013157,46.7488376 C584.010167,38.3127692 575.578508,15.1099487 589.022958,0.87208547 C604.064236,17.7718291 635.569262,7.11704274 651.915319,23.4646496 C668.262829,39.8108034 671.545117,60.5173846 652.561896,94.2369573" id="Fill-71" stroke="#73E4E2" stroke-width="3"></path>
                    </g>
                </g>
            </g>
        </g>
    </g>
</svg>