
<svg width="960px" height="175px" viewBox="0 0 960 175" version="1.1" xmlns="http://www.w3.org/2000/svg" xmlns:xlink="http://www.w3.org/1999/xlink">
    <defs>
        <polygon id="path-1" points="0.0002 0.7564 960 0.7564 960 98 0.0002 98"></polygon>
    </defs>
    <g id="Page-1" stroke="none" stroke-width="1" fill="none" fill-rule="evenodd">
        <g id="Group-40">
            <polygon id="Fill-1" fill="#FFFFFF" points="0 0.0004 0 153.3054 960 153.2844 960 0.0214"></polygon>
            <g id="Group-39" transform="translate(0.000000, 5.000000)">
                <g id="Group-4" transform="translate(0.000000, 72.000000)">
                    <mask id="mask-2" fill="white">
                        <use xlink:href="#path-1"></use>
                    </mask>
                    <g id="Clip-3"></g>
                    <path d="M0.0002,0.7564 C0.0002,0.7564 215.1002,84.9154 495.0002,30.7764 C781.0222,-24.5476 960.0002,29.5514 960.0002,29.5514 L960.0002,98.0004 L0.0002,98.0004 L0.0002,0.7564 Z" id="Fill-2" fill="#50D1CA" mask="url(#mask-2)"></path>
                </g>
                <path d="M108.9846,56.2877 C103.0236,81.0687 107.7246,120.3057 126.6546,135.6767 C216.8306,162.4747 263.6546,122.7757 374.5726,134.6477 C374.5726,134.6477 404.0236,104.5147 405.7576,62.6757 C405.9366,58.5527 405.9166,54.3527 405.6686,50.0927 C299.4336,2.1347 217.7456,70.2817 197.0946,78.7767 C176.4436,87.2637 118.6216,96.4397 123.9016,59.9567 C147.9946,68.6787 167.0416,58.3527 174.3796,33.3447 C174.3796,33.3447 160.6116,40.9167 145.4676,33.3447 C130.6196,25.9167 122.6076,38.1287 122.3036,38.6037 C122.4636,38.1077 128.0516,20.2177 113.5766,16.5897 C98.8926,12.9207 93.6136,8.1017 94.5286,2.1347 C78.9306,19.8047 85.8146,43.4357 108.9846,56.2877" id="Fill-5" fill="#E6E7E8"></path>
                <path d="M405.76,62.6734 C384.83,61.1934 334.6,59.9934 317.33,80.4434 C295.3,106.5334 298.4,76.2534 285.67,83.8234 C272.93,91.3934 228.15,155.1734 169.33,131.6634 C172.09,120.3034 187.92,108.6034 207.88,110.3234 C186.89,105.1634 159.35,123.4034 141.11,116.5234 C122.87,109.6334 114.04,95.1834 108.98,56.2834 C85.82,43.4334 78.94,19.8234 94.52,2.1534 C94.531,2.1434 94.531,2.1334 94.531,2.1334 C93.61,8.1034 98.89,12.9234 113.58,16.5934 C128.05,20.2134 122.46,38.1034 122.3,38.6034 C122.55,38.2234 127.77,30.2634 137.51,31.0034 L137.52,31.0034 C139.9,31.1834 142.55,31.8834 145.47,33.3434 C160.61,40.9134 174.38,33.3434 174.38,33.3434 C173.69,35.6834 172.9,37.9034 172.01,39.9834 L172,39.9934 C163.42,60.1234 145.73,67.8534 123.9,59.9534 C122.75,67.9034 124.6,73.6934 128.4,77.7834 C128.4,77.7834 128.41,77.8034 128.43,77.8234 C142.13,92.4634 180.96,85.4034 197.09,78.7734 C210.08,73.4434 247.2,44.5034 299.39,35.6934 C330.19,30.4834 366.24,32.2934 405.67,50.0934 C405.92,54.3534 405.94,58.5534 405.76,62.6734" id="Fill-7" fill="#50D1CA"></path>
                <path d="M305.0266,77.3687 C303.4186,76.8327 300.2086,84.9407 302.8756,85.5427 C305.5436,86.1447 307.6076,78.2287 305.0266,77.3687" id="Fill-9" fill="#231F20"></path>
                <path d="M323.8479,141.6026 C329.4349,140.3266 335.1489,139.8536 340.8689,139.5916 C346.5889,139.4206 352.3379,139.5516 358.0589,140.0986 C360.9149,140.3956 363.7859,140.6566 366.6179,141.1766 C368.0359,141.4186 369.4639,141.6146 370.8759,141.8956 L375.1159,142.7456 C376.5379,142.9926 377.9199,143.4166 379.3199,143.7656 C380.7109,144.1426 382.1189,144.4666 383.4999,144.8876 L387.6429,146.1546 L389.6959,146.7776 L391.6509,147.3436 L395.5379,148.5506 L399.5119,149.4796 C402.1419,150.1986 404.8739,150.4426 407.5499,150.9956 C412.9639,151.7726 418.4409,152.2466 423.9659,152.3866 C435.0099,152.6086 446.1849,151.7956 457.3489,149.8876 L457.4769,150.2666 C446.6379,153.5826 435.3429,155.2126 424.0319,155.5276 C418.3689,155.7216 412.7039,155.3286 407.0739,154.7256 L402.8719,154.0816 C402.1729,153.9676 401.4689,153.8826 400.7739,153.7436 L398.6979,153.2866 L394.5449,152.3686 L390.4659,151.1616 C387.7359,150.3606 385.0789,149.4716 382.3879,148.6236 C381.0459,148.1956 379.6749,147.8636 378.3209,147.4786 C376.9589,147.1156 375.6109,146.7056 374.2319,146.4106 C368.7599,145.0526 363.2069,144.0486 357.6309,143.2226 C352.0459,142.4476 346.4229,141.9446 340.7889,141.7096 C335.1589,141.4906 329.4979,141.4976 323.8929,141.9996 L323.8479,141.6026 Z" id="Fill-11" fill="#FFFFFF"></path>
                <path d="M666.8683,122.0616 C659.9133,118.3796 652.5053,116.3406 645.1893,115.7726 C641.5163,115.5656 637.8713,115.6906 634.2803,116.2556 C633.3833,116.3716 632.4973,116.6076 631.6043,116.7696 C630.7193,116.9686 629.8163,117.0816 628.9433,117.3456 L626.3303,118.1576 C625.4593,118.4266 624.5813,118.6656 623.7453,119.0586 L621.1813,120.0596 L619.8973,120.5576 L618.4933,121.1286 L615.6543,122.2896 C615.1803,122.4786 614.7123,122.6816 614.2313,122.8606 C613.7433,123.0266 613.2443,123.1626 612.7523,123.3126 L609.7903,124.1906 C608.8063,124.4846 607.7673,124.6466 606.7613,124.8786 C605.7403,125.0706 604.7533,125.3656 603.6993,125.4376 L600.5873,125.7476 C598.4873,125.7906 596.4003,125.9166 594.3033,125.6116 C593.7803,125.5476 593.2613,125.5126 592.7413,125.4246 L591.1913,125.1086 C590.6783,124.9966 590.1633,124.9106 589.6563,124.7746 C589.1513,124.6176 588.6443,124.4756 588.1473,124.3046 C586.1593,123.6446 584.2493,122.7316 582.5193,121.5896 L581.2613,120.6826 L580.0843,119.6816 C579.3603,118.9356 578.6603,118.2086 578.0973,117.3346 L578.4013,117.0746 C579.7283,118.4406 581.3853,119.5376 583.1263,120.3706 C584.8743,121.1976 586.7113,121.8636 588.6143,122.2466 C592.4093,123.0786 596.3443,123.0826 600.1993,122.6286 C602.1163,122.2956 604.0473,122.0416 605.9183,121.4856 C606.8553,121.2266 607.8143,121.0406 608.7343,120.7196 L611.4963,119.7686 L612.8783,119.2936 C613.3313,119.1166 613.7743,118.9136 614.2233,118.7246 L616.9103,117.5726 C618.6903,116.7986 620.5433,116.0646 622.3573,115.3096 C623.2573,114.9006 624.2173,114.6596 625.1633,114.3836 L628.0063,113.5616 C628.9553,113.2966 629.9413,113.1846 630.9063,112.9886 C631.8803,112.8356 632.8403,112.5826 633.8243,112.5136 C635.7933,112.3886 637.7543,112.1016 639.7283,112.2246 C640.7133,112.2616 641.7033,112.2156 642.6823,112.3226 L645.6223,112.6486 C653.4063,113.8106 660.9523,116.8326 667.1323,121.7606 L666.8683,122.0616 Z" id="Fill-13" fill="#FFFFFF"></path>
                <path d="M888.9142,143.2691 C885.4622,142.5691 882.0582,141.9971 878.6642,141.6571 C877.8202,141.5551 876.9812,141.4501 876.1352,141.4011 C875.2912,141.3471 874.4572,141.2391 873.6132,141.2401 C872.7702,141.2311 871.9392,141.1711 871.1082,141.1271 L868.6172,141.1361 C865.3152,141.2921 862.0412,141.3781 858.8952,142.1091 C857.2992,142.3431 855.7702,142.7981 854.2232,143.1821 C853.4442,143.3631 852.7242,143.7081 851.9732,143.9581 C851.2382,144.2541 850.4612,144.4491 849.7612,144.8191 L845.1942,146.8911 L842.6132,148.0701 C841.7172,148.3911 840.8092,148.6941 839.8942,148.9631 C836.2352,149.9851 832.3812,150.6401 828.5662,150.2521 C827.6152,150.2361 826.6752,150.0631 825.7382,149.9191 L824.3402,149.6991 C823.8802,149.5891 823.4262,149.4501 822.9722,149.3261 L821.6172,148.9421 C821.1702,148.8051 820.7362,148.6211 820.2982,148.4621 C819.4222,148.1401 818.5562,147.8131 817.7322,147.3791 C814.4302,145.7191 811.3932,143.5991 809.1172,140.7771 L809.3832,140.4781 C812.0582,142.6351 815.1842,144.2571 818.4352,145.3891 C821.6952,146.5231 825.1392,147.1071 828.5812,147.1091 C829.4402,147.0721 830.3062,147.1191 831.1602,147.0131 L833.7232,146.6901 C834.5722,146.5581 835.4012,146.3101 836.2422,146.1261 L837.4972,145.8271 L838.7152,145.3931 L841.1452,144.5201 L843.4762,143.3981 L848.2032,141.1371 C848.5952,140.9341 849.0092,140.7901 849.4282,140.6541 L850.6742,140.2271 C851.5122,139.9661 852.3212,139.6111 853.1812,139.4261 C854.8932,139.0431 856.5852,138.5561 858.3342,138.3811 C861.7972,137.8111 865.3222,137.8001 868.8092,137.9891 C872.3052,138.1741 875.7592,138.7981 879.1552,139.5951 C882.5462,140.4321 885.8842,141.4751 889.0852,142.9071 L888.9142,143.2691 Z" id="Fill-15" fill="#FFFFFF"></path>
                <path d="M184.8322,156.9879 C180.7312,157.8949 176.5732,158.3029 172.4092,158.6009 C170.3252,158.7379 168.2442,158.7489 166.1532,158.8289 C164.0652,158.8649 161.9842,158.7639 159.8942,158.7379 C155.7162,158.6199 151.5602,158.1869 147.4022,157.7179 C145.3182,157.5169 143.2682,157.0899 141.2012,156.7549 L138.1062,156.2239 C137.0752,156.0429 136.0552,155.8029 135.0292,155.5859 C132.9942,155.0849 130.9462,154.6409 128.9242,154.0919 C126.9102,153.5019 124.8822,152.9649 122.8832,152.3299 L121.3842,151.8559 L119.9052,151.3109 L116.9512,150.2189 C115.9692,149.8509 114.9802,149.5029 114.0062,149.1179 C113.0232,148.7559 112.0842,148.2669 111.1262,147.8389 C109.2242,146.9439 107.3062,146.1019 105.4322,145.1669 C103.5842,144.1679 101.7702,143.1009 99.9592,142.0569 L97.2762,140.4329 C96.4072,139.8459 95.5492,139.2429 94.7072,138.6149 L92.1862,136.7479 L89.7252,134.8199 L89.9302,134.4759 L95.3472,137.4119 C96.2512,137.8969 97.1472,138.3999 98.0592,138.8699 L100.8612,140.1499 C102.7342,140.9919 104.5872,141.8799 106.4752,142.6839 L112.2252,144.8939 C119.9422,147.6859 127.8352,150.0349 135.8832,151.6809 C143.8992,153.4509 152.0212,154.7689 160.1982,155.5989 C168.3712,156.4069 176.6042,156.8289 184.8112,156.5889 L184.8322,156.9879 Z" id="Fill-17" fill="#FFFFFF"></path>
                <path d="M86.0334,162.9122 C80.4934,161.6102 75.1144,160.8552 69.8644,160.6592 C67.2324,160.6782 64.6524,160.6652 62.1164,161.0382 C60.8564,161.2342 59.5924,161.3752 58.3554,161.6432 C57.1304,161.9602 55.8824,162.1832 54.7034,162.6412 L50.6964,163.8382 C49.2484,164.3212 47.7174,164.5992 46.2004,164.8502 C45.4434,164.9842 44.6564,164.9802 43.8894,165.0472 C43.1194,165.0982 42.3524,165.1642 41.5764,165.1152 C40.8034,165.0852 40.0314,165.0882 39.2634,165.0252 L36.9764,164.6672 C33.9484,164.1232 31.0584,163.0282 28.4604,161.5442 C25.8984,159.9942 23.5434,158.1352 21.8634,155.7032 L22.1374,155.4102 C24.2434,157.1762 26.7154,158.5342 29.2764,159.5472 C31.8414,160.5772 34.5494,161.2312 37.2934,161.5082 C40.0434,161.8202 42.8184,161.5692 45.5354,161.1332 C48.2794,160.6452 50.8094,159.6682 53.5294,158.8202 C54.8594,158.3392 56.2604,158.1192 57.6334,157.8052 C58.3174,157.6262 59.0274,157.6022 59.7234,157.4942 C60.4244,157.4212 61.1194,157.2832 61.8234,157.2642 C64.6364,157.0702 67.4584,157.1652 70.2524,157.4962 C75.8264,158.2392 81.2804,159.8802 86.2324,162.5652 L86.0334,162.9122 Z" id="Fill-19" fill="#FFFFFF"></path>
                <path d="M384.6154,75.3316 C384.5564,80.5936 383.4724,85.6746 381.9494,90.6006 C380.4054,95.5226 378.3894,100.3196 375.7994,104.8336 C373.2274,109.3536 370.0864,113.6066 366.3594,117.3346 C364.4984,119.1996 362.4574,120.8946 360.2844,122.3916 C358.0574,123.8226 355.7454,125.1146 353.2274,125.9116 L353.0074,125.5786 C357.1254,122.7116 360.7244,119.1686 363.9154,115.3076 C367.0914,111.4276 369.8594,107.2226 372.3254,102.8536 C374.8264,98.5026 377.0384,93.9826 379.0124,89.3626 C379.9984,87.0516 380.9244,84.7146 381.7914,82.3556 C382.6704,80.0026 383.5074,77.6266 384.2294,75.2256 L384.6154,75.3316 Z" id="Fill-21" fill="#FFFFFF"></path>
                <path d="M351.8215,79.3927 C351.2555,84.9007 349.5085,90.1407 347.2615,95.1117 C344.9965,100.0827 342.1565,104.8097 338.7795,109.1407 C337.9055,110.1997 337.1105,111.3207 336.1695,112.3267 C335.2305,113.3327 334.3225,114.3657 333.3605,115.3467 C332.3855,116.3167 331.3415,117.2227 330.3375,118.1587 C329.8265,118.6197 329.3325,119.0947 328.8105,119.5407 L327.1585,120.7887 C326.0455,121.6027 324.9775,122.4617 323.8375,123.2257 L320.2845,125.3307 C319.6785,125.6577 319.0855,125.9947 318.4755,126.3067 C317.8445,126.5897 317.2265,126.8867 316.5835,127.1397 C315.3125,127.6727 314.0435,128.1847 312.7425,128.6127 L312.5305,128.2737 L315.7915,126.0027 L317.4215,124.8677 C317.9445,124.4637 318.4515,124.0367 318.9675,123.6217 L322.0665,121.1427 L324.9955,118.4627 L326.4535,117.1167 L327.8305,115.6867 C328.7395,114.7257 329.6855,113.7997 330.5635,112.8097 C332.2915,110.8047 334.0425,108.8197 335.6195,106.6917 C338.8745,102.5207 341.8515,98.1257 344.4945,93.5337 L346.4175,90.0567 C347.0135,88.8747 347.6405,87.7067 348.2145,86.5137 C349.3915,84.1427 350.4935,81.7247 351.4445,79.2607 L351.8215,79.3927 Z" id="Fill-23" fill="#FFFFFF"></path>
                <path d="M297.8244,103.1881 C296.8334,107.0641 295.0004,110.4751 292.9234,113.6881 C290.8054,116.8751 288.3264,119.8051 285.5604,122.4481 C282.8124,125.1061 279.7184,127.4311 276.3904,129.3781 C273.0584,131.3101 269.4114,132.8071 265.5084,133.4751 L265.3104,133.1271 C266.8614,132.1161 268.4764,131.2121 269.9614,130.1051 L272.2374,128.5231 L274.4434,126.8441 C277.3494,124.5621 280.1574,122.1481 282.7974,119.5581 C285.4794,117.0151 288.0564,114.3561 290.5064,111.5821 C291.7224,110.1881 292.9234,108.7801 294.0834,107.3381 C295.2604,105.9121 296.4084,104.4551 297.4934,102.9631 L297.8244,103.1881 Z" id="Fill-25" fill="#FFFFFF"></path>
                <path d="M122.3,38.6036 C121.94,34.3236 120.17,25.3836 104.33,18.5436 C88.93,11.8936 94.22,2.6536 94.52,2.1536 C94.53,2.1436 94.53,2.1336 94.53,2.1336 C93.61,8.1036 98.89,12.9236 113.58,16.5936 C128.05,20.2136 122.46,38.1036 122.3,38.6036" id="Fill-27" fill="#8EE8E3"></path>
                <path d="M152.1701,39.3834 C142.0001,32.2134 137.5001,31.0134 137.5001,31.0134 L137.5101,31.0034 L137.5201,31.0034 C139.8991,31.1834 142.5501,31.8834 145.4701,33.3434 C160.6091,40.9134 174.3801,33.3434 174.3801,33.3434 C173.6901,35.6834 172.8991,37.9034 172.0101,39.9834 L172.0001,39.9934 C171.6201,40.2434 162.1201,46.4034 152.1701,39.3834" id="Fill-29" fill="#8EE8E3"></path>
                <path d="M299.3899,35.6935 C271.2699,41.1735 230.3299,76.2135 186.9999,89.5435 C144.7409,102.5535 129.1699,79.0035 128.4299,77.8235 C142.1299,92.4635 180.9599,85.4035 197.0899,78.7735 C210.0799,73.4435 247.2009,44.5035 299.3899,35.6935" id="Fill-31" fill="#8EE8E3"></path>
                <path d="M244.8449,41.3453 C244.8449,41.3453 241.5009,22.4883 229.5229,17.6403 C217.5429,12.7943 209.1159,20.3073 216.9479,28.6103 C224.7789,36.9123 239.5999,30.7483 244.8449,41.3453" id="Fill-33" fill="#8EE8E3"></path>
                <path d="M250.2238,30.2584 C250.2238,30.2584 246.1058,13.1704 253.4408,11.7674 C260.7748,10.3654 260.2758,21.7424 250.2238,30.2584" id="Fill-35" fill="#8EE8E3"></path>
                <path d="M243.4494,17.1749 C243.4494,17.1749 242.0754,12.8939 244.8444,8.3929 C247.6134,3.8909 246.6694,-1.0611 242.6524,0.2229 C238.6364,1.5069 234.9284,9.0129 243.4494,17.1749" id="Fill-37" fill="#8EE8E3"></path>
            </g>
        </g>
    </g>
</svg>
