<svg xmlns="http://www.w3.org/2000/svg" viewBox="0 0 504.31 616.78"><defs><style>.cls-1{fill:#f8eed7;}</style></defs><title>Asset 1</title><g id="Layer_2" data-name="Layer 2"><g id="Layer_1-2" data-name="Layer 1"><path class="cls-1" d="M469.38,246.2a55.72,55.72,0,0,0,2.37-15.87V207.24c0-4.61,1.37-8.17,0-8.08,0-3.61,1-7.69-1.88-13.3-1.28-2.8-4.37-9.42-5.41-11.61-2.75-3-4.94-6.26-8.63-9.2a21.16,21.16,0,0,1-7.77-3.52c-1.23,0-2.46-.76-4-1.49l1.2-.45-1-.66c-5.35-1.78-8-3.33-13.21-2.25a12.49,12.49,0,0,0-7,.37c-.39,1-4.37,1.94-7.1,1.39,2.25-1.77-3.68-1.1-8.72,2.34-3-.31-5.46,1.12-9,2.2s-7.34,2.27-10.16,2.94c-7.49,1.74-14.28,6-19.19,5.14-7.08,2.28-9,3.85-8.72,2.34-4.11.44-6,1.41-7.68,5.14-.48.69-2.26,1.94-3.14,3.84l.1,1.07-.48.08a5.64,5.64,0,0,0,.56,3.75c.27-.94,1,3,0,7.72v39.17c-.4,7.59.41,15.32,0,20.62,1.57,7.7.61,11.42,0,18.4.41,7.23,1.49,8.4,0,13.21,1,2.5-1.58,5.87,0,5.06a5.4,5.4,0,0,0,.65.23c.29-.05.37.08,0,0a1.1,1.1,0,0,0-.65.41c.1-.24-.1,4.36,0,7.71.21,1.79-.86,4.71,0,8.57-1.75,1.76-.24,8.45,0,10.73-1,3.8-.58,5.76,0,9.66.84,3.42,0,4.81,0,10.22a21.59,21.59,0,0,1,.47,10.8c.9,1.52-.63,6-.47,9.83a70.76,70.76,0,0,1,.33,9.95c-.08,3.31-.27,6.37-.33,8.45.48,6.9-1.34,9.7,0,13.21-.05.26-.08.48-.11.71l0,0h0c-.38,2.76.39,4,.11,4.33-.42,2.93.75,6.41,4.21,10.15,2.24,2.56,5.14,3.59,9.05,4.08l.07-.27c.26.07.75.12.75.22a.75.75,0,0,1,0,.15l.28,0a16.06,16.06,0,0,0,10.16-4.21c2.44-1.86,5.07-5.66,4.21-10.15,1.38.34,0-3.55,0-6.93-1.2-3.79.63-9.26,0-17.31.13-2.7-1-5.44,0-10.1a81.33,81.33,0,0,1,0-12.41c.62-4.55-2.24-7.85,0-11.57-.19-3.66-2.66-8.41,0-10.93-.75-3.44,2.08-5.46,0-9.63-.6-3.31.61-6.22,0-7.68.16-4,.81-6.19.65-6.84-.72.49-1.13.8-.65-.09.4-.2.59-.17.65.09.77-.53,1.91-1.28,2.7-1,3.49-.19,3.94-.31,8.36-2.24,2-.59,7.57-.32,10.25-2.13,3.56-1.13,7.34-2.53,11.5-3.7,6.22-2.5,13.28-1.71,11.72-3.14,6.43-1,11.86-3.53,15.1-6.44,3.64-3.19,9.28-6.84,13-10.18,4.59-3.93,6.47-7.85,10.18-13A64.76,64.76,0,0,0,469.38,246.2Zm-3-8.37-.24-.31.38-.06Zm.74-18.74c2.36,1,2.64,3.34,2.94,5.66l.16.19h0v0l-.12,0,0-.2L465.88,220Zm-2.87,3.4c.22.5.45,1,.67,1.48l-.88.69a5.79,5.79,0,0,1-.78-1.44C463.2,223.06,463.87,222.74,464.22,222.49Zm-114,99.92,0-.25.25.06Zm10.43-136.78,2.47,1.43.37.08,0-.12,0,.13h0v0l0,0h0l-.07.07-.25-.14-2.93-.68Zm2.7,32.19L363,218v-.4Zm-1.44-4.4-.29.3c-.1.1-.19.17-.28.16s-.38-.31-.57-.49l.57-.5h0l.42.39.15.14ZM361.14,229c-.11,0-.27,0-.31-.08s0-.22.05-.33.27,0,.31.08S361.16,228.91,361.14,229Zm1.44,11.15c.08.16.26.44.21.48-.47.44-1,.83-1.46,1.24l-.52-.76ZM360,181.81h0l.11-.17-.11.17.23.19-.24-.16h0Zm-.08,22.73-5.74-.09-.12-1.06C356.14,202.17,358.09,202.57,359.94,204.54Zm-4.87,67.14.07.26-.26-.05Zm-.27-48.46.28-.21.06.33Zm-1.43,5.69v-.12l.05.13h0V229h0l-.08.13h0l-.68-.26A5.47,5.47,0,0,0,353.37,228.91Zm.06,60.16,1.05.23-.54,3.18-1.36-.46C352.86,291,353.14,290.05,353.43,289.07Zm-.55,6.11c0-.11-.11-.25-.08-.34s.18-.14.28-.2v0l0-.1v0l.26.07c.62.19,1.24.38,1.85.55h0l-1.85-.56-.26-.07v0l0,.07.12.09,2,.56h0a.66.66,0,0,1,0-.13h0l0,.12h0l-2-.56.14.12ZM354.66,405h0a.52.52,0,0,1-.11-.07l.26,0Zm.62-81.53c-.07,0-.33-.19-.32-.27a3.37,3.37,0,0,1,.23-.65l.68.52h0A3.35,3.35,0,0,1,355.28,323.44Zm3.2,77.32.18-.29.15.28Zm3.28-116.65-2.32-.15c0-.26,0-.51,0-.77l2.38-.21C361.79,283.36,361.77,283.74,361.76,284.11Zm1.87,41.15.27-.31.14.4Zm.77-3.3L363,321l-.3-.07h0l0-.11.28.19,1.63.41C364.55,321.61,364.47,321.79,364.4,322Zm4-43.86a5.69,5.69,0,0,1-.93.33l-.09-1.06h0a5.06,5.06,0,0,1,1,.21A.7.7,0,0,1,368.44,278.1Zm-.06-25.44-2.68-1-.37,0-.05,0c-.08.69-.16,1.38-.23,2.08l-1,.09-.12-3.06,1.38.89,0-.16v0h0v0l.42.16,2.77-.27C368.45,251.83,368.42,252.25,368.38,252.66Zm-.48-18.45-.87-.28c.35-1.07.69-2.15,1-3.23l.87.28C368.59,232.06,368.24,233.14,367.9,234.21Zm72.3-72.27.47,0-.1.15c2,.31,3.85.7,4.27,3.11l-9.09,3-.44-.48,5.06-5.48Zm1.58,9.95c-1.92,3.61-5.48,1.27-7.8,2.63C437,171.2,437,171.2,441.78,171.89Zm-7.86-12-.22.36-.21-.36Zm-2.68,19.16v.37l-.33-.2Zm-4.41-19.89a5,5,0,0,1,.93.27.72.72,0,0,1,0,.5,5.83,5.83,0,0,1-1,.2h0C426.81,159.84,426.82,159.51,426.83,159.19Zm-5.23,19.43h0a.76.76,0,0,1,.16,0l-.3.13Zm-7.51-15.9c.18,0,.43,0,.54.06s.06.34.08.52l-.5.26-.12-.84Zm-1.53,13,0,.29-.24-.13Zm-9.45-2.43.47.13c-.05.23-.11.47-.17.7-.13,0-.39-.07-.39-.11A5.9,5.9,0,0,1,403.11,173.33Zm-8.2,1.06-5.56-8.34C394.06,165.55,395.27,167.09,394.91,174.39Zm-.89.35c-4-.83-8.14,1.92-12.89-1.25C386.44,170.17,390.35,171.36,394,174.74Zm-3.56,5.31,0-.88,2.78-.2v1.29Zm.63,12.62-.23.27-.13-.35Zm-4-9c0,.43,0,.87-.07,1.3-.33-.09-.78-.09-1-.31s0-.62,0-.95h0Zm-6.72-.62c.08.13.23.27.22.38s-.21.2-.32.3l-.43-.2Zm-3.65,19.54h0l.37.24c-.08.12-.15.32-.25.34s-.24-.14-.37-.21Zm-.75,19.29c-.15.2-.21.37-.3.38s-.2-.12-.31-.19ZM374.81,211l-1.39.33a1.21,1.21,0,0,1-.11-.32l1.3-.58C374.67,210.58,374.74,210.77,374.81,211Zm-.11,47.83-.14.44-.33-.33Zm-.84-85.67,0,.13.47-.11h0l-.47.11h0l0-.13-1.86-.33Zm-1.88-.26,0-.07h0l0,.07,0,.07,1,.18.82.14h0l-.82-.14-1-.18h0A.3.3,0,0,0,372,172.86Zm-.64,231.8.25-.19.05.3Zm3.13-117-.07-.35.31.11Zm1.58,111.75a5.06,5.06,0,0,1-1-.12l.45-1h0a6.9,6.9,0,0,1,.79.61S376.14,399.45,376.05,399.45Zm-1-33.37c1.28,1.66,1.28,1.66.75,3.78C375.59,368.72,375.37,367.57,375.07,366.08ZM374,275.32l-2.86-.8,2.93-7.13c3.48,3.27,6.05,6.19,7.48,10l.58.17-.56-.12-2.15-.6ZM382.33,290c-1.05,1.16-1.35,3-2.19,5-1.93-4-2.29-7.39.81-11C383.17,285.88,384.79,287.26,382.33,290Zm2-6.89a4,4,0,0,1-.69.1l0-.76h0a3.73,3.73,0,0,1,.68.28C384.36,282.78,384.35,283.11,384.33,283.11Zm14.15,9.49-.1.17s.09-.16.1-.19l.19,0S398.48,292.58,398.48,292.6Zm9.35,2.65h-.65c0-.14-.05-.35,0-.42a4.44,4.44,0,0,1,.62-.41c0,.27,0,.55,0,.82Zm7.88-3.88v-.3l.23.16ZM425,261c0-.16,0-.33,0-.49a6.32,6.32,0,0,1,.87,0,2.52,2.52,0,0,1,0,.47Zm8.79,4.85-.48-.72,4.6-3.06.49.71Zm5.32,7.36c-.13,0-.25-.2-.38-.31l.17-.47.63.51C439.42,273,439.28,273.21,439.14,273.21Zm3.88-66c-1,2.46,0,10.39,0,15v8.08c0,4.56-1.57,8.32-3.67,13.71-2.87,5.33-5.14,6.9-9.44,11.84-2.32,3.4-8.13,5.55-12.9,7.08a14.13,14.13,0,0,0-2.54,1,21,21,0,0,1-6.11,5.73l.22.06-.12.21a7.31,7.31,0,0,1,.76,2.39c0,.37-1.06.77-2.47.46.57-.95,1.14-1.9,1.7-2.86,0-.08-.07-.16-.1-.25h0a12.24,12.24,0,0,0-2.45-.66c-4.67-.7-8.85,1.56-13.45,3.7l.69,1.24-.75.22c-.06-.45-.13-.9-.2-1.34l-1.3.59c-.65.28-1.31.54-2,.8l1.11,1.89-1.25.78a10.39,10.39,0,0,1-4.07-5.32c-1.2.1-2.1.13-2.65.73-1.5.36-2.13.48-2.46.59-.09.17-.2.23-.33.16a1,1,0,0,1,.33-.16c.39-.75.3-3.75-.33-7.62-.62-4.62.48-10.59,0-18.54.59-7-1.13-15.7,0-22.13,0-3.58-.13-6.9-.19-10a72.12,72.12,0,0,1,.19-8.57c-.14-4.37-.4-8.57,0-7.77,0,1.38,6.26-2.93,11.71-3.14a35.72,35.72,0,0,0,5.25-.61l-.13-.08a1.81,1.81,0,0,1-.24-1.64c.66-1.73,2.31-2,5.6-1a8.35,8.35,0,0,1,1-1.93c1.53-.42,3.06-.38,3.18,1.52,0,.26-.36.55-.85.84,2.18-.74,4.44-1.78,8-3a19.1,19.1,0,0,1,5.13-1.86l-.06-.49.4.41c1-.23,1.9-.42,2.71-.62,3.24-.25,3.5.22,3.54-.58,1.68,1.61,5.06-.39,7.8-.7,3.32-1.58,3.78,1.17,6.1,2.34,1.68,3.71,4.53,3.81,3.78,5.45-.27,2.55,1.25,4.72.89,5.87C442.16,197.29,443.39,203.36,443,207.24Zm1.58,39.09c.27,1.61.55,3.21.91,5.31C442.46,249.41,442.46,249.41,444.6,246.33Zm.26,16.49v0c-.17-.26-.35-.5-.3-.44Zm.22,9.24c-.25-.21-.72-.43-.71-.64s.33-.65.52-1h0c.25.21.72.43.71.65S445.27,271.74,445.08,272.06Zm-1.77-93.74c-2-4.41-1.25-6.34,2.88-6.67C445.21,173.93,444.25,176.14,443.31,178.32Zm5.88,29.56c-.14.06-.36-.06-.55-.1,0-.18-.09-.37-.14-.55l.88.15C449.32,207.55,449.3,207.82,449.19,207.88Zm1.86,60.35c1.58-5.06,4.51-5.76,7.75-6l.55,1.15Z"/><path class="cls-1" d="M158.43,449.14l-.21-.4.23.37h0l.11.2a20.66,20.66,0,0,0-.32-9.28c-1.12-2.53.22-5.37,0-7.95a8.33,8.33,0,0,1-.11-1c-.88,4.66-1.76,9.34-3,13.89a10.79,10.79,0,0,1-.65,1.79c0,2.43-1.23,4.45-2.17,6.58l-1.15-.33,1-3.62a30.69,30.69,0,0,1-3.63,1.92c-3.93-6.38-3.93-6.49,1.21-17.47.4,1.49.69,2.55,1.13,4.14,3.88-4.51,1.78-10.16,3.51-15,2,.77,3.47,1.83,4,3.36a11.26,11.26,0,0,0-.12-3.49,40.58,40.58,0,0,0,.49-5.9c0-1.91,0-3.75-.16-5.54.34-.85.37-1.33-.32-5.2-.92-.87-1.59-2.61,0-4.89,2.09-5,1.21-8.17.41-12.11a22.38,22.38,0,0,0-.31-4.89c-3.28,1.3-7,.43-10.56.21,3.24-3.8,6.88-5.43,10.24-4.71a24.74,24.74,0,0,1,.22-2.94,18.68,18.68,0,0,0-.78-12.59c-.06-3.69,1.46-8.18,1-12.18-1.45.74-2.74.24-3.92-1.35a26.15,26.15,0,0,1-2-3.66h0a12.53,12.53,0,0,1,5.78,2.15,3,3,0,0,1,.33.29c0-1.64-.64-4.09-.45-5.08-.35-.91-.1-5.12,0-6.5,2.87-2.36.73-4.13.14-5.72h-1l.95-.25a2.14,2.14,0,0,1-.07-.49v-6.39a207.41,207.41,0,0,1,0-24.43,49.89,49.89,0,0,1,0-21.53c-.6-8.06,2.6-13.66,0-17.18-.34-5.68.94-8.46,0-11.37-.42-3,0-4.11,0-4.11a14.37,14.37,0,0,0-28.73,0c-.67-.75,1.72,3.46,0,6.92,0,3.71.31,10.17,0,17.31-2.23,5.67-1.34,14.48,0,22.51a43.33,43.33,0,0,0-.94,8.44.46.46,0,0,1,.32.16c.1.22,0,.54-.06.82l-.27-.08c0,4.86.7,9.15.95,13.16V340a23.19,23.19,0,0,0-7.09,1.9c-1.11.39-2.18.73-3.23,1a1.94,1.94,0,0,1,.21,1.18l-1.58-.78c-4,1.09-7.77,1.81-12.31,3.09-1.85-.37-7.45,1.5-10.1,2.7a13.09,13.09,0,0,1-10.09,2.7c-4.36-.72-6.19,1.93-10.48,2.09-1.92,1-3.59,2.77-6.43,2.45a21.45,21.45,0,0,1-5.48.71,8.93,8.93,0,0,1-1.61,1.19c.17-1,.59-1.16,1.61-1.19,1-1.06.53-2.43-1.61-7.74.09-2.68.61-4.84,0-9.6a20.08,20.08,0,0,1,0-11.67c-1.79-2.72-1.9-7.18-.35-12.31.12-2.15-.47-9.75.35-13.08.1-4.9.11-9,.08-12.5s-.08-6.36-.08-8.77c.7-4.75-.3-7.4,0-8.92a12.5,12.5,0,0,0-4.21-10.16c-3.21-3.08-6.63-4.43-10.16-4.21-3.44,1-6,1.29-10.16,4.21-4.09,3.36-3.28,4.87-4.2,10.16.65-1.4-.37,1.34,0,4.11.87,2.91-.61,6.47,0,11.37-.25,2.3-.64,5.27-.78,8.33a27.69,27.69,0,0,0,.78,8.84c-.68,1.83-1.35,7.16-.22,10.58-.44,5.84-.27,9.56.22,11,0,3.59,1,8.45,0,11.95a3.49,3.49,0,0,0-.46,1A28.63,28.63,0,0,1,35,336.46c-.34,2.2-.36,4.6-3.18,5.81,0,2.58.46,5.89.75,8.83a92.5,92.5,0,0,0-.07,9.43l.58.28c-.22.49-.33.73-.44,1l-.1-.07c0,.22,0,.45,0,.68.11,3.47.21,6.94.05,10.35l.66.22A18.48,18.48,0,0,1,32,378.64a16.37,16.37,0,0,0,.58,6.5c.62,3.49,1.47,6.73,0,11.34a171.67,171.67,0,0,1,.18,21.92l.71.17-.3.62-.43-.31c0,1.27-.11,2.53-.16,3.72a51.46,51.46,0,0,1,.84,6.93,9.39,9.39,0,0,1,.85-.64c.08,1.6.15,3.2.26,5.67a12,12,0,0,1-1-.92c0,.62,0,1.23,0,1.83a28.71,28.71,0,0,1-.89,10.37c-.12,2-.2,3.72-.23,5.27l.79.13a3,3,0,0,1-.35,1.11c-.06.07-.24,0-.45,0a22.81,22.81,0,0,0,.24,3.54,11.24,11.24,0,0,0-.15,2.08.71.71,0,0,1,0,.59,21.87,21.87,0,0,1,.11,6c.16,3.13,0,7.62,0,10.35h0A2.11,2.11,0,0,1,34.3,476c.29,1.95-.68,2.79-2.23,3.45.09,1.57.9,2.55.52,2,1.19,4.58,1,7.56,4.2,10.16,2.78,2.62,5.85,3.77,10.16,4.2,3,0,7.51-.94,10.16-4.2,1.4-2.63,4.22-6.45,4.21-10.16-.35-.44.81-3.15.16-6.25,0,.12,0,.24,0,.35s-.09,0-.2,0l-.34,0,0-1,.42,0a.11.11,0,0,1,0-.05c.74-5-.65-10.77,0-17.32-.4-4.59.62-8.22-.16-10.84.58-2.73-.74-8.83.16-11.66-.15-4.07,0-8.35.06-12.29s.16-7.53-.06-10.22c0-1,0-2,0-3-.31.27-.63.54-1,.8l.93-2.77c-.08-4.65-.28-9,0-12.33-.47-4.28-.86-6.27,0-6.93.6-1.15,3.76-.54,7.09-1.9.86-1,3.84-1.22,7-1.8,3.25-.93,6.52-1.21,9.87-2.73,1.25-.42,2.45-.75,3.64-1-.15-.15-.27-.29-.26-.43,0-.34.43-.66.67-1l1,.83-.31.34c1.9-.43,3.74-.75,5.56-1.1a38.71,38.71,0,0,0,9.92-3c2.64-2.21,4.92-1.1,8.84-2.1,1.19-.42,5.23.08,8.07-2.43,5.82,1.6,5.77-1.57,7.09-1.9,1.19-.83.05,2.1,0,8.92.16,2.9-1.22,5.49.13,9.52,1,.09-1.49,3-.13,5.4.09,4.34-.37,3.38,0,6.36a53.71,53.71,0,0,0,.16,9.92,34.63,34.63,0,0,1-.16,9.19,50.34,50.34,0,0,0-.38,9.62c1.27,3.78,1.61,5.15.38,8.32-.95,6-1.55,8.06,0,13.32.43,3,.45,3.94,0,5.21-.85,5.88,1.1,9.4,4.21,10.16,3.29,3.57,8.2,3.68,10.16,4.21,3.17-.69,8.93-1.54,10.15-4.21,2.12-1.7,2.5-4.33,3.33-7.41l-.42.17C156.89,454.82,157.13,451.91,158.43,449.14Zm-1.85-136.71.21.17-.25.08ZM151.48,270l.86.23c0,.17-.05.34-.08.51a5.09,5.09,0,0,1-.84-.26S151.46,270.17,151.48,270Zm-118,196.77c-.14-.25-.38-.49-.4-.74a.54.54,0,0,1,.13-.34c.08-.11.17-.23.24-.34h0c.2.18.6.4.57.53A3.31,3.31,0,0,1,33.43,466.77Zm.87,17.53c-.09-.07-.06-.3-.07-.46l.48,0h0l.06.48C34.61,484.3,34.39,484.37,34.3,484.3ZM59.78,319.21a4.22,4.22,0,0,1-.56-.47s.12-.22.19-.33l.59.48Zm-.86-11.88.51,2-.77.21-.51-2Zm-1.39,66.28a3.91,3.91,0,0,1-.42,1.35c-.53-.52-.91-.75-.88-.89a6.24,6.24,0,0,1,.54-1.18C57,373.13,57.52,373.35,57.53,373.61Zm-1.78-19.82,1.21.66c-.19.32-.34.86-.58.91a1.31,1.31,0,0,1-1.05-.44C55.22,354.77,55.56,354.27,55.75,353.79ZM54,314.74c.08.18.13.28.18.38l-.32.13C53.93,315.1,54,315,54,314.74Zm-3.84,29.74c.1,0,.23.09.35.14l0,.39-.58-.25C50,344.66,50.08,344.5,50.19,344.48Zm-1,23.28-.25.14v-.3Zm-.73,24.89,1.58.26c-.25.8-.48,1.6-.77,2.39a2,2,0,0,1-.78-.11C48.4,394.34,48.42,393.5,48.42,392.65ZM50,408.21c0,.12-.07.29-.11.43s-.07.26-.12.27a2.87,2.87,0,0,1-1-.16c.14-.21.25-.52.46-.62s.47,0,.72.08Zm-2.22-59.82c-.14.1-.23.21-.31.21s-.12-.15-.19-.23Zm.39,71.21.22.24.82.35a4.36,4.36,0,0,1-.55.73s-.43-.12-.43-.2,0-.13,0-.19c-.38.42-.75.84-1.13,1.25-.25-.26-.49-.53-.73-.79Zm-2.84-84.86a3.82,3.82,0,0,1,.75,0l-.28.73h0a4.38,4.38,0,0,1-.62-.4S45.24,334.75,45.31,334.74ZM40,338.5l0,.36-.31-.15ZM39.67,371c-.12.16-.18.33-.27.34s-.21-.12-.32-.19Zm-3.23-28.68.39-.29h0c.15.21.43.43.41.62s-.28.47-.43.71a3.23,3.23,0,0,1-.58-.82S36.31,342.4,36.44,342.31Zm-.09,127.47.19-.38.24.34Zm.79-5.17c-.06.08-.26.05-.4.06,0-.14,0-.28,0-.42h0l.19,0,.22,0C37.15,464.35,37.21,464.53,37.14,464.61Zm-.69-46c1-2.32,1.95-4.63,2.5-5.95C39.84,414.29,38.89,416.71,36.45,418.64Zm3.3,13.44-.43-.34.27-.95c.15.12.42.24.41.35A4.5,4.5,0,0,1,39.75,432.08Zm.18-44.36c-.1,0-.24-.13-.36-.2l.24-.36.36.23C40.09,387.51,40,387.7,39.93,387.72Zm3.26,57.95h0c-.29.27-.55.54-.71.7l.69-.7h0c-.24-.51-.51-1-.77-1.52l.8,1.51Zm.12-58.42.24-.29.12.36Zm3.34,83.32a6.37,6.37,0,0,1-.2-2.18c.18-.65.85-1.17,1.3-1.75l1.18.6-1.38,3.39ZM48.53,491c-.18,0-.29-.39-.44-.61h0l.59-.56.57.86C49,490.81,48.74,491.05,48.53,491Zm1.32-33.42c-.31,1.05-1.45,1.86-2.22,2.78-.5-.31-1-.61-1.52-.91.34-2.1.67-4.2,1.14-7.11C49.39,454.05,50.44,455.56,49.85,457.59Zm3.09-21.73h0v0l-2.18,2.47c-.66-.72-1.37-1.4-2-2.17-.83-1.05-1.58-2.17-2.38-3.25A16.3,16.3,0,0,1,44.25,430c-.77-1.74.36-3,2.28-2.79a9.43,9.43,0,0,1,3.08.8,5.44,5.44,0,0,1,2.92,3.5,12.49,12.49,0,0,1,.41,4.35l.08-.09Zm2.39-54.46,4.06,3.44c0,3.34-1.52,5.77-3.86,7.92C53.31,389.05,52.63,385.5,55.33,381.4Zm2.44,43.5v0l0,0-1.06,1.13-.2-.23,1.23-.88.08-.09v0Zm0,28.44c-.09.49-1.07.82-1.64,1.23-.37-.57-1.19-1.31-1.05-1.69a36.71,36.71,0,0,1,2.17-4.17l.68.29A28.45,28.45,0,0,1,57.77,453.34Zm1.45,3.45.21-.4.21.41ZM59.66,379c-.72-4.19-.6-4.6,2.63-7.76C61.29,374.15,60.51,376.45,59.66,379Zm6.42-.61-.21-.3.37,0Zm4.53-9.06c-.06-.09-.18-.21-.16-.29s.18-.12.28-.18c.06.1.18.21.16.29S70.71,369.24,70.61,369.3Zm26.78,2.78s-.61-.3-.59-.37a8.49,8.49,0,0,1,.5-1.13A5.16,5.16,0,0,1,98,371,4.48,4.48,0,0,1,97.39,372.08Zm4-7.14,4.49-2.32C105.31,365.15,103.51,365.34,101.4,364.94Zm6,9.87-.09-.73,2.12-.23.09.71Zm41.29,25-.43,0c0-.13,0-.27-.05-.4Zm.15,20.62-.56.42c-.42-.4-1-.74-1.22-1.23a5.31,5.31,0,0,1-.21-1.72l.87-.21C148.08,418.62,148.46,419.53,148.83,420.45Zm-2.1-159.76.54.8-.41.27c-.17-.26-.36-.53-.51-.81A3.5,3.5,0,0,1,146.73,260.69Zm-10.6,92,.07.26-.25-.06Zm-.6,5.31c.18,0,.39-.14.53-.08s.23.29.34.44l-.84.18,0-.54Zm-.17,62.57c-.17.14-.66-.11-1-.19h0l.06-1.15,1.36.3C135.65,419.89,135.62,420.37,135.36,420.57Zm1.49,30.27c-.22-3.37-.37-5.66-.52-8,3.35-.89,4.65.5,5.48,2.89ZM141.13,246l.14-.84,4.17.54c-.06.44-.11.88-.17,1.31ZM145,313.86a5.89,5.89,0,0,1,1,.62s-.29.68-.4.67a5,5,0,0,1-1.13-.41Zm-.06,56.8c0-.15.37-.45.58-.69h0c.25.27.59.5.69.81,0,.14-.36.44-.57.67C145.36,371.19,145,371,144.91,370.66Zm7.32,92.11-.31-.2.31-.15Z"/><path class="cls-1" d="M312.79,410.25a12.45,12.45,0,0,1-3.56-4.58c-.42,2.24-.8,2.72-2.69,3.53l-1.12.46,3.51-4.58a9.29,9.29,0,0,0-2.83-3.55,13.82,13.82,0,0,0-3-1,2.89,2.89,0,0,1-.09.6,1.46,1.46,0,0,1-.69,0,3.3,3.3,0,0,1-.07-.77,51.42,51.42,0,0,0-7.06-.22c.07-.29-3.15.54-6.58,1.77-2.92,2.25-8.65,1.75-16.43,4.4-3,.86-5.78,1-10.37,2.78-4.13,1-8.71,2.45-11,2.94-2.69,0-3.17.45-5.77,1.87-2.86-.19-3.1,1.13-5.28,1.18-3.23,1.46-6.85,2.78-10.31,2.68a32.64,32.64,0,0,0-8.78,2.72,6.15,6.15,0,0,0-1-.12,11.59,11.59,0,0,1-1,1.52,13.25,13.25,0,0,1-1.45,1.61c-.1-1-.2-1.95-.28-2.79a35.2,35.2,0,0,0-3.95,1.46c-4.73,1.21-6,2.36-6.57,1.76-2-.59-2.87.82-4.84,2.43-.9-.2-1.77,2.82-3.88,4.26-2.63,1.12-1.8,4.17-1.79,5.21.65.42-1.67,2.73.36,5.7,2.4,2.53,2.73,5.94,5.2,7.73,2.59,1.53,5.05,1.87,8.66,2.92a6.08,6.08,0,0,1,3.74-.49c-.83-1,2.46-1.2,6.57-1.76,2.85-.31,7.24-2.09,12.26-3.45l1-1.41c.07.4.13.76.18,1.11,1-.24,2-.47,3-.66,3.34-.83,7-1.93,10.72-3s7.25-1.73,10.65-2.74c4.21-.75,8.55-2.24,11.54-2.52,3.49-1.18,6.88-2.68,9.82-3.2,7.11-.3,14-4.92,16.43-4.41,4.51.06,6.87-2.74,6.57-1.76,2.33-1,4.85-3.56,8.72-6.69C312.65,417.84,311.88,413.73,312.79,410.25ZM207.36,433.19a2.56,2.56,0,0,1-.69.08c.12-.3.22-.56.33-.82h0a2.86,2.86,0,0,1,.52.37C207.56,432.87,207.45,433.16,207.36,433.19Zm8.44,12.4-7.23-8.14c4.57-1.13,3.67-5.38,5.33-9.31,1.07,6.57,1.93,11.83,2.78,17.09Zm9.66-26.81,1.63,1.31L225,422.58l-1.29-1.35Zm1.12,23.57c-1,1.21-1.36,1.22-4.62-.45a39.16,39.16,0,0,0,2.46-3.9,27.34,27.34,0,0,0,1.24-4C228.16,437.45,228.33,440.29,226.58,442.35Zm1.81-16.67c-.1-.09-.26-.15-.29-.26s.08-.24.12-.36l.39,0C228.54,425.28,228.47,425.48,228.39,425.68Zm3.14-2.55c-.18-.36-.35-.72-.55-1.14.35,0,.68-.12.78,0a1.22,1.22,0,0,1,.3.78C232.06,422.89,231.72,423,231.53,423.13Zm4.23,9-.06.08v0a3.83,3.83,0,0,1-.28.29c-.44.47-.89.95-1.3,1.42l.31.12-.36-.06h0l-.06-.1.12,0,1.34-1.41.28-.3v-.07c-.11-.74-.25-1.47-.39-2.2h.75c-.12.7-.23,1.39-.34,2.09Zm1.39-11.72c0-.1.27-.33.42-.5h0l.56.48-.46.52C237.49,420.76,237.23,420.62,237.15,420.42Zm1.34,22.65a6.45,6.45,0,0,1-.76,0s0-.26,0-.4a6.49,6.49,0,0,1,.76,0,.51.51,0,0,1,0,.15,2,2,0,0,0,0,.26Zm1.32-.22-1-.49,1.32-3.11,1.38.66C241,440.89,240.39,441.87,239.81,442.85Zm16.1-26.94-.22-.23.3-.07ZM265,436.43l.23-.3.15.35Zm4.3-20.71-1.79-1.07.58-.71,1.53,1.31Zm17.85,6.34.18.27h-.32Zm-12-10.37-1.52-1.15.33-.48,1.68.95Zm1.86-6.08-.23-.64c.2.12.39.18.42.28S277.12,405.48,277.05,405.61Zm1,24.85.05-.13-.17-.06s.19.07.18.05h0Zm1.05-3.7a4.4,4.4,0,0,1,.55-1.15.84.84,0,0,1,.76,0,3.63,3.63,0,0,1,.13,1.06Zm3.35-17.62c-.23.05-.51-.15-.77-.25.13-.22.26-.45.38-.68h0l.78.31C282.68,408.74,282.59,409.1,282.42,409.14Zm6.18,22.46-2.14-.57.42-.86,1.91.74C288.73,431.14,288.66,431.37,288.6,431.6Zm1.88-4.82c-.49-.18-1-.39-1.44-.6.2-.28.41-.55.62-.83.37.38.74.75,1.1,1.14C290.77,426.5,290.53,426.8,290.48,426.78Zm3.87-15.61-5.49-4.88c1.2-2.28,2.89-3.77,5.19-2S296.5,408.67,294.35,411.17Zm1.68-5.62c-.37-.13-.95-.14-1.08-.4a10.26,10.26,0,0,1-.53-2.28c1.43.73,2.08.92,2.07,1.08A6.89,6.89,0,0,1,296,405.55Zm1.6,15.94a13.56,13.56,0,0,1-.91-1.37c0-.09.35-.39.53-.59l1.25,1.39Zm1.5,5.49-.12-.37c.11-.07.22-.19.32-.18s.21.15.31.23Zm4.08-21.76-4.38-1c.16-.51.33-1,.5-1.52l4.2,1.21C303.42,404.33,303.32,404.78,303.21,405.22Z"/><path class="cls-1" d="M309.75,348.06c1.83,0,3.29-1.52,4.84-2.36.08-3.43.35-7.63.26-11.19a45.12,45.12,0,0,1-.35-11c.35-4.23-.12-7.85.35-11.73a76.74,76.74,0,0,0-.18-11.53c-2.29.85-4.41.38-6.94-1.28a7.85,7.85,0,0,1,6.79-1.28,49.25,49.25,0,0,1,.33-10.68c-1.06-7.12,1-14.14,0-22.73V247.66c-.21-4.56,1.18-7.62,0-6.45A47.82,47.82,0,0,0,313,227.9c.21-4.22-3-9.56-5.41-11.61-2.46-3.42-6.22-5.45-8.62-9.19a11.32,11.32,0,0,1-2.37-1.17c-1.85,2.57-3.67,5.16-5.68,7.59a3.77,3.77,0,0,1-3.26.95c-3.48-1-6.73-.51-10.1.43-1.17.32-2.62-.35-3.75-.53-.8-2.79.54-4,2.44-4.49,4.43-1.24,8.92-2.23,13.33-3.5a34.66,34.66,0,0,0,4.63-2.07c-2.17-1.56-4.41-3.16-6.78-3.33a55.76,55.76,0,0,0-13.21-2.25,21.41,21.41,0,0,0-14.09,1.76c.52-1.6-7.05.07-8.49,2.27-4.7.93-7.26,3-8.49,2.27-4.62.38-7.19,1.27-10.27,3.84a84.47,84.47,0,0,1-9.44,5.63c-3.3,3.48-5.29,3-8.4,7.16-2.25,2.28-4.36,4-5.49,6.2-1.41,1.88-4.14,5-4.7,6.79-1.91,4.09-3.47,6.11-4.09,8.2-.28,2-2.46,5.23-2.55,6.69a23.87,23.87,0,0,0-2.45,7.66,24.16,24.16,0,0,0-.31,6,5.39,5.39,0,0,1,.6.37h0l-.31.37-.23-.17a10.51,10.51,0,0,0,.33,1.6c1.71-1.88,0,3.93,0,6.44-.54,2.63-.7,9.62,0,16.63-.05,3.7-.05,7.35,0,11.09s.81,7.51,0,11.64c1,7.13,1.88,13.37,0,19.85a38.86,38.86,0,0,1,1.23,9.86,43.09,43.09,0,0,1-1.23,9.21c.25,3-.74,7.13-.43,8.94.27,4,.11,4.95.43,7.26-1.54,1.95-1.27,3.5.37,5.86-.2,3.22.77,3.94-.37,5.39,1.43,3.18.67,3.71,0,4.21.19,2.6,1.17,7.77,4.21,10.16a12,12,0,0,0,10.15,4.21c3.81-.91,9-1.56,10.16-4.21,4.07-3.18,4.15-5.3,4.21-10.16-.49.27-1.45-5.33,0-9.73-1.54-2.94-.2-6.56-.08-9,1-3,.18-5.17.08-9.09,0-2.08-.35-4.68-.52-6.68s-.17-3.39.52-3.05c.46.34,4.88-.58,9.62-2.57,4.62-1.58,13.47-3.61,21.17-5.68l7.63-2c3.73-.76,5.54-1.54,7.19-1.93,2.63-.61,6.06-1.77,7.88-1.61,2.07-.62,3.19-2.28,3.53-1.44,3.18-2.9,1.71-.46,4.56-1.22,1.31.17-2.56,4.61,0,7.72-.56,1.63,1.22,6.23,0,7.18a39,39,0,0,1,0,7.18c.09,4.63,1.88,7.17,0,7.72a30.75,30.75,0,0,0,1.14,6.13l-.05-.17c.35-.06.8-.27,1-.12a.64.64,0,0,1,.2.42c0,.19.07.39.11.57l-1,.15a6.37,6.37,0,0,0,2.74,3.18c1.57,3.77,7.25,3.87,10.15,4.21,4.33-.62,7.62-.93,10.16-4.21,2.15-3,4.15-4.57,4.21-10.16-1.17,1.49-1.23-2.5,0-6.44a9.21,9.21,0,0,1-.22-1.61C312.69,351.16,312.52,351.06,309.75,348.06Zm2.56-42,1,.06h0c0,.17,0,.36,0,.54h0a.66.66,0,0,1-.11.44.9.9,0,0,1-.9-.05C312.15,306.79,312.29,306.37,312.31,306Zm1.07-18.18.11,0-.25.23Zm-37.87-87,.1.43-.42-.12ZM198.12,304.19c-.07,0-.21,0-.32-.07l.44-.3C198.19,304,198.19,304.15,198.12,304.19Zm7.43-53.56c-.05.11-.29.14-.45.2l-.15-.49.46-.19.11.26A.36.36,0,0,1,205.55,250.63Zm.45,86.93a1,1,0,0,1-.31-.77c0-.18.36-.33.68-.59l.35,1.21C206.47,337.47,206.12,337.66,206,337.56Zm1.31,23.5.2-.24.12.3Zm.07-73.74c-.28,0-.63-.4-.94-.63.23-.33.42-.83.73-.93s.66.31,1.18.58C207.93,286.79,207.69,287.27,207.38,287.32Zm1.56-52-1,1.57-.1-.07c-.07.31-.12.58-.1.47,0,0,0,0,0,0v0c0-.08.05-.27.09-.48h0l.54-.82.5-.75h0l-.5.75-.54.82h0a.7.7,0,0,0,.1.08l1-1.57s0,0-.05-.05l0,0h0l0,.05.06,0Zm1.9,116,.11-.3.2.23Zm2.37,31.07a5.6,5.6,0,0,1-.3-.71h0l.17-.05c.11,0,.22-.08.23-.06a7.56,7.56,0,0,1,.3.71C213.47,382.27,213.23,382.37,213.21,382.34Zm2.56,5.07.25-.2,0,.31Zm-.5-8.26,1.16-.2h0l-1.18.21,0,0,1.21-.19h0l-1.18.19Zm2.7-83.58-.33-.25.35-.15Zm.37-62.14,0,0-.25-.09-.14-.06a6.23,6.23,0,0,1,.24-.73h0l.2.08.21.08h0Zm3.46,100.08c0-.06,0-.19.08-.29l.27.42C222,333.59,221.84,333.58,221.8,333.51Zm1.47,51.38c-.08,0-.15-.13-.22-.2s.15-.2.23-.2.14.13.22.21C223.42,384.77,223.34,384.89,223.27,384.89Zm42.29-178c-.21,3.49-1.78,3.68-4,3.09Zm-8.3,22.77v0h0l0,.12v-.11l-.34.07S257.29,229.67,257.26,229.65Zm-13.69,3.68c.48.45,1,.69,1.05,1s-.32.66-.51,1c-.34-.25-.83-.44-1-.78S243.36,233.89,243.57,233.33Zm-6,1.19a5.77,5.77,0,0,1,1.42-.27c0,.57,0,.92.06,1.26a6.1,6.1,0,0,1-1.42,0A1.51,1.51,0,0,1,237.6,234.52ZM236,224.44l.06-.19a1,1,0,0,0,0,.2l.28.1-.28-.05h0v0h0l0-.07Zm-2.5,16.34c-.23-2.46-.37-4-.53-5.73C235.05,236.86,235.05,236.86,233.46,240.78Zm-1,85c-.21.43-.81.68-1.24,1l-1.35-1.1,1.45-2.31,1.36.66A5.19,5.19,0,0,1,232.43,325.82Zm29-15-.5-.75c.37.17.57.22.67.34S261.49,310.64,261.42,310.78Zm5-2.1c.28-.55.55-1.1.82-1.65l9.71,5.42-.6,1.15A16.06,16.06,0,0,1,266.44,308.68ZM279,319.05l-4.75-.94c-.18,0-.35.05-.52.09v-.05h0l0,0a0,0,0,0,0,0,0h0l.05-.13-.06.13h0l.07-.13.34.06,4.91-.8C279,317.87,279,318.46,279,319.05Zm9.25-48.24c-.12.06-.37-.11-.56-.18l.38-.9h0l.82.33.19.08h0A6.41,6.41,0,0,1,288.2,270.81Zm1.38,3.59,0,.14h0v0l0,0h0l-.1.07,0-.08-.54-.07h0l.14,0c-.64-.08-.14,0,.41,0l.1-.33Zm4.68,20.86.06-.34.24.21Zm-5.69-45c-.8-2-1.31-3.17-1.95-4.74a11.7,11.7,0,0,1-.5,4.56c1.32,2.33,1.06,7.09-.05,9.66,0,3.52,0,7.07.05,9.87,1,7.43-1.25,13.65,0,19.53.44,5.67,2,9,0,8.87-.4-.31-2.48.65-4.56,1.23-2.14,2.2-5.47,2.55-8.61,2.8a1.55,1.55,0,0,0,.05.23l-1.35.19c.23.28.45.56.67.85l.18.1h0l.12.2,2.1,1.51-.77.72-1.35-2.25-.11-.08s-.09-.1-.13-.16l-1.47-.79-.18,0a.53.53,0,0,1,0-.12l-.38-.2-.19,0c-3.37-.52-8,1.95-14.82,4-4.37,1.38-7.7,2.06-11.31,3l-9.86,2.64c-5.15,1.1-9.19,2.17-9.62,2.58-.6.72,1.27-4.54,0-7.67a78.31,78.31,0,0,0,.38-7.9c0-2.6-.14-5.38-.38-9-.06-5.5.38-14.67,0-16.88-1-5.83.81-6,0-7.67.14-3.58.29-5.37,1.31-7.74,1.21-1.68,1.42-5,2.36-6-.19-1.53,3-4.88,4.21-5.42,2.4-2.39,3.07-4.59,5.23-6.42,1.19-1.59,4.42-2.48,6.25-3.85,2.45-.12,4.47-2.84,6.66-3.22-.24,1.57,5.55-1.95,8.49-2.27,2.13-1.75,10-5.07,8.49-2.27,2.81-2.46,4.72-.51,7.81-.71,2.74.89,5.83,1.7,6.1,2.35,2.5,1.29,3.62,2.71,3.78,5.45,1.57.89,1,5.53.89,5.87-.4-.49.28,1.48.48,4l7.94-4.28.77.82C293.31,244.32,291.31,246.84,288.57,250.27ZM296,220.55a3.32,3.32,0,0,1,4.3.85l-.33,1.64-4.28-.95C295.75,221.57,295.86,221.06,296,220.55Zm1.54,29.95A9,9,0,0,1,296,251c-.06-.34-.29-.9-.17-1a6.78,6.78,0,0,1,1.51-.69A4.84,4.84,0,0,1,297.5,250.5Zm2.83,3.76c-.13,0-.3-.16-.46-.25l.3-.45.47.28C300.54,254,300.46,254.23,300.33,254.26Zm5-9.9c.07.08-.12.4-.19.61-.12-.08-.32-.12-.36-.23a4.24,4.24,0,0,1-.17-.76A2.13,2.13,0,0,1,305.3,244.36Zm-2.06,12.89h0v0h0l0,.08-.07,0-.13.12.11-.13-.25-.11Zm-.58,100.87.18.25-.31,0Zm.18,4.12c-.13-.05-.21-.25-.31-.38l.65-.32c0,.17.05.34.07.51C303.11,362.12,302.94,362.28,302.84,362.24Zm.21-82.34c-.07-.1,0-.31,0-.47l.52.59C303.35,280,303.12,280,303.05,279.9Zm2.69,75.9.15,0Zm.31-60.51-.07-.38h.36Zm.27-34a16.68,16.68,0,0,1-3.38.87c.54-1.45.66-2.56,1.05-2.66a7.67,7.67,0,0,1,2.67.19C306.56,260.27,306.63,261.16,306.32,261.32Zm1.23,89.21a4.53,4.53,0,0,1,.73-.08h0c0,.23-.08.47-.13.71a4.84,4.84,0,0,1-.66-.28S307.5,350.54,307.55,350.53Zm1,15.5-.75-.24c.05-.14.13-.4.16-.39a7.08,7.08,0,0,1,.75.22C308.62,365.76,308.57,365.9,308.52,366Z"/><path class="cls-1" d="M35.42,123.22l-.24.29a2.61,2.61,0,0,1-.28-.17,11.49,11.49,0,0,0-1.81.49,17,17,0,0,0,0,3.61,30.22,30.22,0,0,1,0,7.92c.13,2.7-.12,5.71,0,7.93a6.43,6.43,0,0,1,0,3.61c.12,0-.41.19-1.23.41s-1.94.49-3,.73c-2.25.67-5.39,1.16-7.91,2.12a38.49,38.49,0,0,0-4.25,1.14c-.14.06-.17-1.21,0-3.61a16.08,16.08,0,0,0-.15-3.51c-.09-1.68.1-2.87.15-4.42-.13-3.22.18-5.6,0-7.93.15-2.21.35-4,0-3.6.35-.34-2,.21-4.19,1.12a13.31,13.31,0,0,0-4.19,1.12,7.45,7.45,0,0,0,0,2.33,31.11,31.11,0,0,1,0,6.14,34,34,0,0,0-.05,4.2c0,1.49.11,3,.05,4.47a9.8,9.8,0,0,1,0,2.42c0,.4,0,2.06,0,2.48.09.84-.13,1.28,0,2.51,0,1,0,1.45,0,2.54a36.22,36.22,0,0,0,.1,5.08,33.81,33.81,0,0,0-.1,4.87c.08,3.42-.22,6,0,8.67.06,2.43-.06,4.39,0,6.14a10.76,10.76,0,0,1,0,2.33c-.06-.24,2.18-.84,4.19-1.13a11,11,0,0,1,4.19-1.12c.26-.13,0-1.72,0-3.71a13.33,13.33,0,0,1,0-3.82c.18-.71-.17-1.26.09-2.1,0-.85,0-1.47-.09-2.25a32.23,32.23,0,0,0,0-4.17,13.73,13.73,0,0,0,0-4c.11-2.15-.05-3.66,0-3.71.26,0,1.72-.43,4.25-1.14,2.44-.52,5.45-1.6,7.91-2.12a38,38,0,0,0,4.25-1.13c.29-.2.34,1.52,0,3.71a26.22,26.22,0,0,0,.09,4c-.45,1.39.3,3-.09,4.2a16.74,16.74,0,0,1,0,4.36c.35,1.42.48,3.07,0,3.81a32.8,32.8,0,0,1,0,3.71c.13.11,2-.71,4.19-1.12,1.09-.22,2.19-.52,3-.76a5.32,5.32,0,0,1,1.23-.44,9.92,9.92,0,0,0,0-2.25,19.22,19.22,0,0,1-.1-2.65,12.83,12.83,0,0,0,.1-3.49c0-1.21-.1-2.69-.07-4.14s.07-2.95.07-4.54v-9.94c-.17-3.25.13-6.54,0-10-.21-3.25.24-5.86,0-8.68a34.3,34.3,0,0,1,0-6.13c0-.81.08-1.87.05-2.23-.29.18-2.45.47-4.24,1C36.63,122.91,36,123.07,35.42,123.22Zm-2,1.12.28-.21.06.34Zm2.26,3a6.27,6.27,0,0,1-1.27-.18c.14-.33.24-.93.42-1a3.06,3.06,0,0,1,1.22.31C35.87,126.86,35.77,127.31,35.65,127.32Z"/><path class="cls-1" d="M48.68,173.83c0,.11.88-.48,1.46-.49a8.88,8.88,0,0,1,2.93-.68,5.4,5.4,0,0,0,2.89-.75,4.57,4.57,0,0,0,1.41-.45c-.1-.17.88-1.33.78-3a3.93,3.93,0,0,1,.58-2.7,10.87,10.87,0,0,0,.7-2.9c.35-1.94.91-3.09.69-3a3.08,3.08,0,0,1,1-.32c.61-.17,1.5-.3,2.7-.66l-3-2.5c2.38-.39,3.65.52,4.4,2.05,1.06-.3,2.32-.57,2.54-.63,1.49.24,2.15-.28,3.7-1,1.93-.66,2.39-.32,2.84-.76,1.23.31.93-.43,1.13-.3a13.22,13.22,0,0,0,.45,1.53,13.1,13.1,0,0,1,.92,3.55,18,18,0,0,0,.91,3.51,3,3,0,0,1,.47,1.58c.49,0,.31-.24,1.24-.31.86-.22,2,0,3.09-.85,1-.12,2.48-.16,3-.75,1.06,0,1.13-.37,1.39-.42a17,17,0,0,0-.62-2.16,18.32,18.32,0,0,1-.75-2.22c-.29-1-.69-2.29-.91-3.47A10,10,0,0,1,83.53,152a34,34,0,0,0-1.25-4.32c-.46-1.71-.86-3.05-1.3-4.54s-.9-3.11-1.38-4.69-1-3.25-1.46-4.77-.79-3-1.22-4.46-.83-3-1.2-4.31a9.52,9.52,0,0,0-1.14-3.74c-.57-1.68-.12-2.54-1-3.27a5.43,5.43,0,0,0-.54-2.19,4.2,4.2,0,0,1-2.31,1.78c-.18-1.25-.25-2.49-.45-3.67-1,.39-1.94.16-2.5.71-1.36.2-2-.1-3.15.71a4.71,4.71,0,0,0-1.37.5,2.94,2.94,0,0,0-.5,2,17.53,17.53,0,0,1-.61,2.39,9.57,9.57,0,0,0-.73,3c-.74,1-.47,2-.91,3.62,0,.64-.53.87-.53,2a3,3,0,0,1-.5,2.13A4.38,4.38,0,0,0,59,133a23.17,23.17,0,0,0-.63,2.32c.19,1.17-.66,1.81-.63,2.37-.24.9-.28,1.5-.53,2.29a24.81,24.81,0,0,1-1.09,4.67c-.07,1.8-.77,3-1.33,5-.28.14-.46,1.53-.58,2.38a6.69,6.69,0,0,1-.62,2.39c-.39,1.56-.76,3.05-1.1,4.39a28,28,0,0,0-1,4.13,10.06,10.06,0,0,1-.93,3.6,9,9,0,0,1-.89,3.07c-.42,1.2-.05,1.64-.45,2.27C48.41,173.34,48.64,173.84,48.68,173.83Zm32.06-18.22-.16.21-.09-.28ZM70.35,129.7l.6.47c-.07.13-.13.26-.19.39a4.65,4.65,0,0,1-.59-.49S70.28,129.83,70.35,129.7ZM62.11,136c.14,0,.3-.08.4,0s.12.22.18.34l-.63.08C62.08,136.25,62.09,136.12,62.11,136Zm.13,14.81c.17-.27.4-1.91.63-2.73.24-1.36.37-2.11.76-3.85.56-.94.61-2.4.95-3.62,0-.18,0-.34.06-.5l-.48.18c-.06-.17-.12-.34-.19-.51l.74-.28c.14-.9.32-1.57.33-1.94-.06-1,.23-.89.46-1,.24-.48,0-1.5.21-2.07a5.29,5.29,0,0,0,.67-2.12c-.4-.95.21-1.93.24-2.32.41-1.25.91-1.37.5-2,.12-1.43.47-2.62.54-3.64a1,1,0,0,0,.28,0l0,0c.1,0,.14,0,0,0,.39.43.33,2,.35,2.5a12.78,12.78,0,0,1,.55,2.74c.16,1.21.63,2.08.77,3.05.54,1.1.82,1.36.46,2.68.38.39.56.71.94,3.52.33.62.33,2,1,3.22a13.23,13.23,0,0,1,.76,3.32,6.69,6.69,0,0,0,.21.88l.68-.39c.46.82.92,1.65,1.39,2.47l-.85.48-.89-1.61c.36.86.69,1.37.41,1.69.24.67-1.44.56-3.06.82-.78-.21-1.73.32-2.81.79a10.56,10.56,0,0,1-2.86.73,19.53,19.53,0,0,1-3,.82A8.61,8.61,0,0,0,62.24,150.8Z"/><path class="cls-1" d="M94.14,144.16a38.47,38.47,0,0,1,.06,4.28c.42,2-.15,4.43,0,6.8.21,2.11-.27,3.34,0,4.67-.33,1.41-.07,1.67,0,1.73,0,.44.58-.52,1.31-.35.53-.41,2-.2,2.88-.77,1.17-.61,2.25-.23,3-.72a7,7,0,0,0,1.19-.41c-.19.3-.43-1.19,0-3.07a3.82,3.82,0,0,0-.13-3.19,6.87,6.87,0,0,1,.13-3.57c-.44-1.08.19-2.24,0-3.48.22-.77-.2-2.09,0-3.28-.08-1.45.07-2.75.06-3.08h-.06c0-.13.06-.12.06,0a20.87,20.87,0,0,1,2.55-.69c1.72-.42,2.9-.86,2.61-.7-.3.38,1.29.77,1.82,2.58.84.58,1,1.48,2,2.46,1,.73,1,1.85,2,3.22a12.28,12.28,0,0,1,2.24,3.15,3,3,0,0,1,1.78,2.54c.94,1.29,1.55,2.87,1.83,2.58.41.26.6-.42,1.49-.23a12.21,12.21,0,0,0,3.15-1,10.26,10.26,0,0,0,3.26-.82c1.1-.35,1.23-.34,1.38-.42a14.36,14.36,0,0,1-2-2.72c-.69-1-1.17-2.27-2.1-3-.63-.88-1.78-2.34-2.23-3a12.6,12.6,0,0,0-2.36-3.12c-.87-1.39-1.51-2.15-2-2.85-1.48-1.95-1.73-2.49-2-2.72,1.46-1.51,2.89-1.69,4.43-3.52a11.12,11.12,0,0,1,1.75-2.2,6.81,6.81,0,0,0,1.53-2.26c0-.48,1-1.27.88-2.21l-.25-.06.09-.38a.94.94,0,0,1,.3.07,18.86,18.86,0,0,0,1-2.71,12.42,12.42,0,0,1,.54-2.76c-.1-1.12.21-1.5.16-3.25a27.59,27.59,0,0,1-.29-3.74c-.54-.48,0-2-.87-3.14.2-1-.82-2.12-1.48-2.47-.39-.9-1.16-1.15-1.9-1.94.18-.5-1-1.13-2.38-1.41-1.14.33-1.78-.33-3.08-.43a3.78,3.78,0,0,0-3.45.2c-2.18.09-2.09-.55-4,.65a1.83,1.83,0,0,1-1.17.33l-2.72.71c-1,.29-2.18.67-3.43,1a14.6,14.6,0,0,1-3.79.91,5.81,5.81,0,0,0-2.9.74c-.58.61-.85,0-1,.3.43,0-.28,1.27,0,2.33a.81.81,0,0,1,.07.28l4.38-1.81c.24.53.48,1.06.73,1.59l-5.13,1.74a4.52,4.52,0,0,1-.15.82c-.25,1.36.43,2.77.1,3.52a11.94,11.94,0,0,0,0,4.72,20,20,0,0,1,0,5.33c-.29,1.76.53,3.82,0,5.67a8.09,8.09,0,0,1,0,4.47c0,1.12,0,2.22,0,3.23,2.48,4.18,5.18,10.29,5.27,12.85ZM123.38,126l-.13.33-.24-.42Zm-20.8-13.34c.17-.8,1.2.09,3.27-.87.48-.93,3.28-.62,3.28-.88a13.3,13.3,0,0,0,2.56-.41c.72,0,1.31.68,2.32.18.82.38,1.53,1.11,1.83,1-.07,1.05.79,1.12,1.15,1.38.62.16.43.94,1,2.16.77,1.28-.11,1.83,0,2.94.76,1.72-.21,2.49-.37,3.07.12,1.15-.67,2.14-.65,2.64.21.12-.67,1.54-1.25,2.3a24,24,0,0,0-1.75,1.89,6.44,6.44,0,0,1-2.23,1.47,20.62,20.62,0,0,1-2.71,1,16.64,16.64,0,0,0-3.23.86,6,6,0,0,1-3.24.8v.06c-.09,0-.09-.05,0-.06a13.4,13.4,0,0,1,0-3c-.43-1,.45-1.91,0-3.15,0-1.09-.67-3.43,0-3.61.07-1.2.46-3.5-.11-3.86-.09-.84.5-2.14.11-2.9C102.48,114.08,101.53,112.88,102.58,112.64Z"/><path class="cls-1" d="M136.07,133.8a7.28,7.28,0,0,0-1,2.75,7.86,7.86,0,0,0-.43,2.87,13.61,13.61,0,0,0-.55,2.26,9.51,9.51,0,0,1-.67,2.6,9.7,9.7,0,0,0-.73,3.08,8.36,8.36,0,0,0-.61,2.26,2.92,2.92,0,0,1-.35,1.92,2,2,0,0,1,1.26-.35c.71-.07,2-.67,3-.75a26,26,0,0,1,3-.81c.72-.43,1.19-.52,1.37-.37a5,5,0,0,0,.69-3,23.48,23.48,0,0,1,.62-2.81,18.29,18.29,0,0,0,.66-2.79c.91-2,.41-3.47.69-3-.33-.7,1.33-.18,1.13-.31.46-1.17,1-.76,2.84-.76,1.3.45,1.89-.36,3.59-1.06.87-.18.82-.15,1.68-.29.56-.59,1.07-.33,2.12-.62,1.5.27,1.15-1.52,2.73-.74-.06-.26,1.6-.82,1.25-.33.36.25.31,1,.43,1.59.39,1,.57,2.28.94,3.5-.29,1.17.31,1.82.67,3a2.29,2.29,0,0,1,.76,1.85c.2-.08.61-.14,1.12-.31,1,.37,2.09-.19,3.16-.64,1.27-.38,2.6.44,3.31-.41s1.08-.51,1-.76a4.36,4.36,0,0,1-.52-2.52,13.19,13.19,0,0,0-1.76-5.33c-.81-1.06-.47-1.49-.66-2.39a5.36,5.36,0,0,0-.84-2.79,21.84,21.84,0,0,0-.85-2.88,22.28,22.28,0,0,1-.86-3,28.47,28.47,0,0,1-1.8-6.22,23.88,23.88,0,0,0-1.37-4.69c-.61-1.1-.77-3.27-1.31-4.54a31.14,31.14,0,0,1-1.19-4.08,29.83,29.83,0,0,0-1.15-4c-.33-2-1.26-4.1-1.65-5.69-.41-1.31-1-2-.63-2.16-.07.09-2.12.56-4.52,1.21-2.42-.15-4.06,1.62-4.52,1.21,0-.35-.22.52-.39,1.54s-.48,2.17-1,4.19a24.19,24.19,0,0,0-1.56,6.21c-.67,3-1.77,5-1.9,7.58l-.51,2-.23.9c1.24-.45,1.66.22,3,2.46l-3.56-.88a3.83,3.83,0,0,0-.39,1.75,11,11,0,0,1-.44,2c-.3,2.53-1,3.93-1.59,6.33a22.9,22.9,0,0,0-.74,3A18.4,18.4,0,0,1,136.07,133.8ZM158.47,116a.32.32,0,0,1,.17.15c.05.13-.1.32-.16.49l-.72-.47.45-.3C158.29,115.89,158.38,115.92,158.47,116Zm-.65-13,.2.28-.47-.08Zm-12.51,25c.8-.65.16-1.77.62-2.06a11.09,11.09,0,0,1,.41-2.45c.35-.4.16-1.46.77-2.54.54-.86.27-1.12.39-2.48.44-1.5.39-2,.66-2.87.61-.29.27-.93.26-1.15.34-1.07,0-1.38.34-2.18a4,4,0,0,1,.53-2c.27-.93.14-1.16.45-2a10.77,10.77,0,0,0,.3-2.33,10,10,0,0,0,.54-3.63c.09.29-.08-.17.25-.06a10.56,10.56,0,0,1,.34,2.45,9,9,0,0,0,.58,2.84c.78,1.16.33,2.1.65,2.89.55.73.18,1.94.59,2.84-.16.21.6,1.17.94,3.52.29,1,.58,2.08.88,3.21l.88,3.33a7.94,7.94,0,0,1,.94,3.52c0,.28-1,.62-3,.82a29.15,29.15,0,0,0-2.85.79,16.5,16.5,0,0,0-2.82.73c-.73.55-2.49,1.35-3,.82C144.49,130.05,144.66,128.92,145.31,127.92Z"/><path class="cls-1" d="M175.24,93a12.26,12.26,0,0,0-1.11,5.74,8.27,8.27,0,0,0,2.52,7.33,29.22,29.22,0,0,0,2.79,2.22,27,27,0,0,0,3.24,1.69,16.48,16.48,0,0,0,3.54,1.32c1.11.73,2.68.58,3.65,1,1.62.67,3,.45,4.29,1.6,1.18.53,2,1.65,3.08,2.28,0,1,.94,1.24,1.14,2.72a10.27,10.27,0,0,1,8.78-1.76c.38-1.22.33-2.61-.14-3a5.76,5.76,0,0,0-1.15-2.23c-.84-1.41-1.6-3-3.09-3.66a10.19,10.19,0,0,0-4.31-2.32c-.43-.18-.87-.4-1.33-.61a1,1,0,0,1-.11.31,6.45,6.45,0,0,1-1-.21c.05-.16.11-.32.16-.49a4.44,4.44,0,0,0-1.34-.27c-1-.38-2.79-.32-3.63-1-1.33-.14-2.43-1-3.29-1-.87-.52-2.36-.84-2.76-1.45-.56,0-1.25-1.19-1.79-1.87a3.39,3.39,0,0,1-.74-2.76c.25-.78.37-2.9.88-3.6,1.13-1,1.19-3.23,2.55-2.88.53-.62.52-.61,1.71-1.12a3.81,3.81,0,0,1,2.32-.75,11.23,11.23,0,0,1,3.17-.32,8.39,8.39,0,0,1,2.22.77c.36,1,1.29,1.31,1.54,2a4.79,4.79,0,0,1,.62,3.21c0,.4,2.78-.49,4.27-1.14,2.37-.15,4.22-.79,4.26-1.14A9,9,0,0,0,205,85.68a6.6,6.6,0,0,0-3.21-3.92,9.69,9.69,0,0,0-5-1.71c-2,.19-4.83,0-6.69.71-1.38.1-2.08,1.36-3.36,1.25a6.25,6.25,0,0,1-3.26,1.57c-.43.69-1.61,1.26-2.51,2s-1.8,1.53-2.5,2.22C176.8,89.33,176.1,91.35,175.24,93Zm6.42,10.68,3.48.21c0,.38-.06.77-.08,1.16l-3.45-.26C181.63,104.42,181.65,104.05,181.66,103.68Z"/><path class="cls-1" d="M198.1,121.78c.25.94.36,1.48-.59,2-.45.12-.68,1.19-1.15,1.84-.83,1.09-1.13,1-1.61,1.51-.71.79-1,.59-2.2,1.31-.44.29-2.54.79-2.42.89-.76-.17-1.33.5-2.4.42a18.61,18.61,0,0,0-2-.13,4.42,4.42,0,0,1-2.92-2c-.38-1-.31-1.35-.79-1.87-.3-1.11-.66-1.83-.3-2.46,1.05-.16-.58-.26-1.22.33a7,7,0,0,1-3,.81c-1.42-.32-2.32.83-2.93.79-.31.34-1.37.83-1.33.35-.06,1.42.5,2.42.33,3.44a8.92,8.92,0,0,0,.91,2.89,11.3,11.3,0,0,0,1.46,2.32c.35.43,1.08,1.62,2,1.75.89.63,1.73.68,2.32,1.28,1-.21,2.37.78,3,.42.88-.17,1.86,0,3.21-.09a35.63,35.63,0,0,0,3.77-.7c.79-.08,1.47-.79,3.14-1,.74-.64,2.1-.83,2.79-1.41a3.71,3.71,0,0,0,2.32-1.66,8.66,8.66,0,0,0,2.4-1.76,9.2,9.2,0,0,0,1.73-2,12.37,12.37,0,0,1,1.72-2.16,8.09,8.09,0,0,0,1.22-2.29,6,6,0,0,1,.89-2.37c.62-.54.44-1.8.57-2.25a4,4,0,0,0,.23-1.88l-8.71,3.32C198.36,121.66,198.25,121.78,198.1,121.78Z"/><path class="cls-1" d="M212.66,122.7c-.66.91-.48,2.19-.89,2a6,6,0,0,1,0,2.71c.22,1.63-.32,2.48,0,2.71-.16,0,.88-.45,3.27-.88,2-.54,4.65-1.37,7.79-2.09,1.37-.3,2.94-.68,4.54-1.1,1.95-.55,3.58-1.11,4.76-1.39a22.8,22.8,0,0,1,4.18-1.12,34,34,0,0,1,3.61-1,17.61,17.61,0,0,1,3.23-.89,8.12,8.12,0,0,1,0-3.7c.09-1.61-.09-3.21-.05-3.61a10.08,10.08,0,0,1-3.27.79c-.83,0-1.93.63-3.46.91a7.28,7.28,0,0,0-3.83,1c-1.16.12-2.52.93-3.93,1.28a5,5,0,0,1-3.36.67c-2.12.81-3.5,1-3.32.89a4.1,4.1,0,0,0,.9-2,12,12,0,0,1,.92-2.33c.41-.87.92-1.84,1.43-3a16.3,16.3,0,0,0,1.58-3.56c.32-.54,0-1.16.84-1.89a4.39,4.39,0,0,1,.92-2.08c.06-.9.55-1.23.9-2.06a9.14,9.14,0,0,0,.6-1.09l-.69-.33.89-.16a2.55,2.55,0,0,0,.16-.58c.37-1.2,1.08-1.83,1-2.2a7.74,7.74,0,0,0,1-2.21c.56-.52.46-1.37.85-2.22a6.75,6.75,0,0,0,1.09-2.16,5.57,5.57,0,0,0,1-2.15c.28-.62,1-1.4.88-2.09.62-.47.47-1.5.77-2a8.81,8.81,0,0,0,.93-2c.4-1,1.31-2.43,1.64-3.5a20.46,20.46,0,0,1,1.35-3c.39-.91.72-1.71,1-2.35.57-1.29.9-2,.9-2V67.65l-3.1.83c-1.58.29-4.72,1.69-7.38,2a33.82,33.82,0,0,1-8.81,2.36c-2.7.69-5.74,1.07-7.38,2-1.43.62-3.28,1.27-3.1.83-.25-.27.28,1.85,0,3.72.06,1.72.45,3,.16,3.55a4.21,4.21,0,0,1,2.89-.66c.81-.36,1.59-.3,2.73-.66a27,27,0,0,0,4-1.13,9,9,0,0,1,3.53-1.22,12,12,0,0,1,3.16-.58,21.48,21.48,0,0,1,3-.82c.21,0,0,1.22-.89,2a5.58,5.58,0,0,0-1,2.25c-.11,1.25-1.42,1.79-1.29,3.06-.65.57-1,2-1.32,3.46-.43.88-.82,1-1,2-.58.66-.4,1.61-1,2.08.26.81-1.06,1.5-.91,2.07a5,5,0,0,0-1,2.17A3.86,3.86,0,0,0,223,99a5.68,5.68,0,0,1-.85,2.29c0,.93-.67,1.61-1,2.27a14.84,14.84,0,0,0-1,2.1,5.67,5.67,0,0,1-1,2.26c-.36.79-.68,1.54-.84,2-.9,3-2.52,5.36-3.32,7.51A56.14,56.14,0,0,1,212.66,122.7Zm2.1,1.88v-.33l.07.16h0v0S214.76,124.58,214.76,124.58Zm22.68-53.23h0c.28,0,.65,0,.8.11s.07.51.09.78c-.27,0-.63,0-.78-.11s-.08-.51-.11-.78Z"/><path class="cls-1" d="M247.51,73.81c.32-.38,1.56-.53,3.11-.84a23.18,23.18,0,0,1,2.85-1,4.35,4.35,0,0,0,2.94-.56c1.6-.89,3.41-.54,3.12-.84.84.28.25,1.39,0,2.59.06.65.06,1.29.28,2.84-.06,1.17-.21,2.51-.28,3.84.08,1.31,0,2.49,0,4.45a24.56,24.56,0,0,1,0,4.68c0,.44.06.86.09,1.28a3.91,3.91,0,0,1,2,2c1.69,3.57,3.2,7.23,5,11.29a21.91,21.91,0,0,1-6.92-2,10.54,10.54,0,0,1-.16,3c-.25,1.36.23,2.48,0,3.45-.11,1.4.08,2.19,0,3.05-.1,1.82.3,3.86,0,4.52,0,.58.14,1.29.13,1.58.52-.18,2.45-.42,4.14-1a18,18,0,0,1,4.17-1.13,2.57,2.57,0,0,1,.11-1.7,9.1,9.1,0,0,1,0-2,16.45,16.45,0,0,1,0-2.56,5.78,5.78,0,0,0,0-3.22c.15-1.09-.23-2.33,0-3.29s0-2.13,0-3.45,0-2.67,0-4.21c-.57-2.17.05-5.53,0-8a40.83,40.83,0,0,1,0-5c0-1.69,0-2.79,0-4.18s-.05-2.86.14-3.81c-.48-1-.11-2-.14-2.87a2.71,2.71,0,0,1,0-2.31s0-.13,0-.27a.82.82,0,0,1,0,.27c.15.26,1.36-.68,3.15-1.12.51.16,1.63-.79,2.78-.86.89-.56,2.48-.53,3.05-.7l3.13-.84V57.62a29.22,29.22,0,0,1-3.39.91,12.79,12.79,0,0,1-3.71,1.06,17.55,17.55,0,0,0-4.4,1.12,11.62,11.62,0,0,1-4.52,1.43c-1.4.35-3.58.81-5.15,1.16a12,12,0,0,0-4.6,1.2,9.42,9.42,0,0,1-3.5,1c-1.57.78-3.24.69-3.39.91.38-.25,0,1.39,0,3.72C247.06,71.83,247.66,73.78,247.51,73.81Z"/><path class="cls-1" d="M287.73,107.45a5.69,5.69,0,0,1,0,2.33c.42.46,1.1-.14,1.44-.13.5-.16,1.6-.54,2.74-1,1.16.06,2.12-1,2.75-.7.7-.1,1.23-.59,1.38-.53-.2-.48.25-1,0-2.22,0-.74-.57-1.66-.21-2.51a5.31,5.31,0,0,0,.21-3.63c-.42-1.76.1-3,0-4.15a25.57,25.57,0,0,0,0-4.53,44.37,44.37,0,0,0,.07-4.67c0-1.58-.08-3.27-.07-5.27,0-1.7.09-3.3.13-4.92a41,41,0,0,0-.13-5c0-3.3.39-6.09,0-8.68-.13-3,0-4.86,0-6.13a8.55,8.55,0,0,0,0-2.33,20.4,20.4,0,0,1-4.18,1.12,11.59,11.59,0,0,1-4.19,1.16,8.59,8.59,0,0,1,0,2.29,48.56,48.56,0,0,1,0,6.14c-.12,3.2.61,5.81,0,8.68v9.94c-.08,1.61-.1,3.28-.09,5-.06,1,.52,3.13.09,5,.21,1,.72,2.94,0,4.47-.2,1.28.14,2.65,0,4.21-.38,1.72.84,2,.07,3.66A3.35,3.35,0,0,0,287.73,107.45Zm5-43.63c0-.08,0-.17.05-.24l.66.19-.06.39a3.5,3.5,0,0,1-.65-.2S292.77,63.89,292.78,63.82Z"/><path class="cls-1" d="M330.66,98.28a22.46,22.46,0,0,1,.69-3c.47-1.89.73-3.7,1.28-5.59.18-2.1,1-3.25.69-3,.08,0,.55-.16,1.26-.35s1.66-.42,2.71-.71a11.84,11.84,0,0,1,3.71-.94c1.58-.54,2.34-.51,3.68-1,1.05.13,2.46-.66,2.76-.63.08-.37.48-.27,1.22-.44-.44.66.36,1,.5,1.43.66,1.2.38,2.56.87,3.66a27.41,27.41,0,0,0,.8,3.71,3.71,3.71,0,0,0,.56,1.38,2.25,2.25,0,0,1,1.25-.31,5.73,5.73,0,0,0,3.1-.86,20.16,20.16,0,0,0,3-.8c.44.16,1.13-.26,1.31-.35a4.16,4.16,0,0,1-.58-2.17,10.44,10.44,0,0,1-.82-2.36c-.15-.63-.32-1.35-.52-2.15l-.21-.13,0,0,0-.06.08,0c-.08-.32-.17-.65-.27-1-.63-.77-.87-2.32-1.15-3.87-.08-1.59-.61-2.37-1.19-4.18a1.94,1.94,0,0,1-.48-1l-2,.47L353,74l.2.29L355.32,76l-.6.57c-.53-.77-1.07-1.53-1.62-2.3l-.33-.26.19,0c.47-.56.84-1,1.16-1.31a8.55,8.55,0,0,1-2.36-.23l2.46-1.63a3.14,3.14,0,0,0-.06-.81,2.75,2.75,0,0,0-.68-2.33,2.32,2.32,0,0,1-.68-2.35c-.74-1.78-.83-2.93-1.45-4.88-.75-.83-.88-2.42-1.23-4.35-1.09-1.63-1-3-1.41-4.36a21.67,21.67,0,0,1-.93-3.69c-.84-2.83-.84-4.37-1.65-5.69l-.63-2.16L341,41.34c-2.14.53-4.17,1.34-4.46,1.22a4.2,4.2,0,0,1-.55,2,28.79,28.79,0,0,1-.66,3.06l.34.24-.67.92q-.17.56-.36,1.11a52.84,52.84,0,0,0-1.94,7.73c-.5,2.87-1.38,5.84-2.3,9.17q-.6,2.39-1.21,4.82A14.75,14.75,0,0,0,328,76.41c-.86,3.11-1.61,6.58-2.3,9.16-1,3.06-1,5.51-1.94,7.73l-1.34,5.34-.5,2,4.39-1.18C328.46,98.86,331.05,98.39,330.66,98.28ZM342.37,81.2a3.74,3.74,0,0,1-.63.45,2,2,0,0,1,.06-.8c.05-.11.41-.06.63-.07C342.42,80.92,342.45,81.11,342.37,81.2Zm-7.23-2.31c.45,0-.08-.24.26-1.15a7.45,7.45,0,0,1,.66-2.87c.12-.81.21-3.22.85-3.76.58-.82.2-2.4.87-3.7.34-1.43.67-2.24.78-2.81-.29-1,.47-1,.14-1.22.65-1.14.87-1.18.64-2.14s.74-1.18.23-2.05c.7-.78.23-1.61.33-2.32a13,13,0,0,1,.42-2c0-1.25.7-2.33.54-3.63a1.79,1.79,0,0,0,.27-.1h0s0,0,0,0a7.2,7.2,0,0,1,.51,2.46,14.43,14.43,0,0,0,.41,2.82c.74,1.51-.4,1.94.52,3a7.86,7.86,0,0,1,.72,2.74c-.55.37.41.74.94,3.52a8.52,8.52,0,0,0,.92,3.31,7.25,7.25,0,0,1,.84,3.23c.17,2.24.14,3.14.94,3.52a11.78,11.78,0,0,0-3.05.82c-.44-.09-2,.76-2.83.75-1.19-.06-2.4,1-2.84.77C336.31,78.8,334.83,79.19,335.14,78.89ZM328.9,90.52c.18.06.42.07.51.19s0,.34,0,.51l-.53.13Z"/><path class="cls-1" d="M339.29,36.52c1.34-.53,3.18-.76,3.14-.84a12.42,12.42,0,0,0,2.35-3.14,18.36,18.36,0,0,0,4.35-5.82,14.54,14.54,0,0,1,2.34-3.14,19.9,19.9,0,0,0-3.82,1c-2.12,1.07-3.54.76-3.81,1-.37.05-1.06,1.37-2,3-.37.5-.78,1.1-1.21,1.74a1.92,1.92,0,0,1,.09.32c0,.06-.29.17-.47.26-.72,1.11-1.45,2.29-2.11,3.33a13.59,13.59,0,0,1-2,3A20,20,0,0,0,339.29,36.52Z"/><path class="cls-1" d="M367.4,59.89a17.09,17.09,0,0,1,0,4.35c.17,1.53-.23,4.17,0,5.68.07,2.18-.28,3.42,0,5.12l1.47-1,.61.69a6.25,6.25,0,0,1-1.27,1.2,2.13,2.13,0,0,1-.82.2,17.52,17.52,0,0,0,0,3.82c0,1.27,0,2.39,0,3.39s0,1.91,0,2.75c0,1.52-.31,2.37,0,2.32a35.06,35.06,0,0,0,3.76-1,33.91,33.91,0,0,1,7-1.87c2.33-.65,3.55-.83,3.76-1a52.14,52.14,0,0,0,6.15-2.38,12.41,12.41,0,0,0,2.5-1.4A18.08,18.08,0,0,0,393,78.67a5.78,5.78,0,0,1,2.05-2.3,12,12,0,0,1,1.61-2.17,9.86,9.86,0,0,0,1.47-2.79,3.86,3.86,0,0,1,.8-2.56c.72-1.32.39-2,.58-3-.14-.66.37-2.24.2-3.14a18,18,0,0,0,0-3.17,14.68,14.68,0,0,1,0-3.25c-.11-1.13,0-2.55,0-3.72a15.8,15.8,0,0,1,.06-3.88c0-1.19-.08-2.25-.06-3.09,0-2,.25-2.84,0-3.17,0-.65,0-1.24-.05-1.8l0-.06h0a11.08,11.08,0,0,0-1.16-5A9.53,9.53,0,0,0,395,31.29c-1.29-1.08-3.26-1.57-5.62-1.79a18.61,18.61,0,0,1-3.55.11c-.91.23-1.93.29-2.84.46.05.47,0,1,0,1.46l-1.24.24c-.18-.45-.35-.91-.52-1.36a.73.73,0,0,1-.35,0,23.61,23.61,0,0,1-2.83,1c-1.35.23-2.56.49-3.7.79a31.71,31.71,0,0,0-3.25,1.07,16.71,16.71,0,0,1-3.74,1,2.37,2.37,0,0,1,0,1.73c.55,1,.23,2.5,0,4.66-.07,1.77,0,4.54,0,6.8a15.73,15.73,0,0,0,0,3.75c.06,1.42-.35,3.34,0,4.38A14.1,14.1,0,0,0,367.4,59.89ZM395.51,36.2l-.08.39-.3-.26Zm-4.2,39.33-.26-.27.39-.11Zm1.33-5.13.23.22-.33.09ZM375.73,35.5h0l0,0h0v0l.12,0c0,.86-.05,1.72-.06,2.59h0l0,0c0-.84,0-1.69-.07-2.51l-.24.08Zm0,28.47a8.11,8.11,0,0,0,0-2.42,8,8,0,0,0,0-2.45,18.9,18.9,0,0,1,0-4.78,11.58,11.58,0,0,0,0-4.69,39.21,39.21,0,0,1,0-4.22,14.7,14.7,0,0,0,0-3.06,14.63,14.63,0,0,1,.09-2.89l-.09,0c.07-.11.09-.1.09,0a10.12,10.12,0,0,0,3-.85c1.75-1,2.66-1.49,3.07-.82a13.51,13.51,0,0,1,2.75-.2c.65.37,1.4.12,2.36-.1a8.23,8.23,0,0,0,1.64.95c.17.39.95.63,1.53,1.42.28.51.45,1.63.81,2.18a6.33,6.33,0,0,1,.27,2.85c.41.21.1,1.15,0,3.12,0,1.06-.06,2.23-.06,3.41.36,1.42.6,2.21.06,3.45-.34,1.22.23,2.1,0,3.67,0,1.16.14,1.94,0,3.19.22,1.55.3,3.41,0,3.12a16.55,16.55,0,0,1-.34,3.1,4.33,4.33,0,0,1-.76,2.58A12.15,12.15,0,0,1,389,73a12.69,12.69,0,0,1-2,1.7c-.79.51-1.5,1-2.29,1.47a8.4,8.4,0,0,1-2.79,1,9.29,9.29,0,0,1-3.07.83c-1.43.41-2.6.66-2.95.77-.05.14-.1.18-.12.05l.12-.05a5.44,5.44,0,0,0-.12-2.86c.07-.84-.12-2.47.06-3.47a13.85,13.85,0,0,1-.06-3.81,10,10,0,0,1-.3-2.32C375.65,65.17,375.34,64.57,375.77,64Z"/><path class="cls-1" d="M426.18,3.57a8.7,8.7,0,0,1-2,3.05c-1.47,1.87-2.33,3.9-3.71,5.64a14.7,14.7,0,0,1-2,3l3.15-.84c1.47-.43,3-.58,3.15-.85a21,21,0,0,1,2.34-3.13,44.91,44.91,0,0,0,4.35-5.82,26.66,26.66,0,0,1,2.16-2.9,15.57,15.57,0,0,1-3.63.79C428.32,3.1,426.3,3.47,426.18,3.57Z"/><path class="cls-1" d="M422.68,32.5a27.57,27.57,0,0,0,.52-3.37c.27-.51.11.13.25-.06.07,1.68.73,3.33.93,5.29.07.39.16.79.25,1.19L425,36l-.17.11a25.82,25.82,0,0,1,.83,3.94,19.89,19.89,0,0,0,.95,3.52c-.07.8.71,1.8.93,3.36.5.75.38,2.13.82,3.18a11.87,11.87,0,0,0,.95,3.52c.13-.1-1.16.37-3.05.82a12.08,12.08,0,0,1-2.74.69,10.91,10.91,0,0,0-2.93.83c-1.3.77-2.68.39-3,.75,0,0,0,0-.06.06l.06-.06c0-.11-.37-.31.21-1.09.11-.74-.28-2,.66-2.87a25.84,25.84,0,0,1,.64-2.82c-.45.14-1,.22-1.6.39-.1-.84-.35-1.66-.17-1.78a3.76,3.76,0,0,1,1-.41c.35-.11.71-.19,1.06-.3h0q0,.18.12.39c.23-1,.46-2,.67-2.93.84-2.42,1.35-4.25.93-4,0-.64.71-2.2.85-3.62-3,1.32-4.38.43-6.65-3-.07.31-.15.61-.23.9a43.69,43.69,0,0,1-2.3,9.17l-1.21,4.82c-.4,1.61-.81,3.22-1.21,4.82s-.89,3.36-1.33,4.88c-.42,1.74-.42,2.18-1,4.28-.37,1.62-.92,3.3-1.18,4.26-.47,1.25-.25,2.7-.76,3.47a12.38,12.38,0,0,0-.79,3c-.29,1.38-.58,2.06-.55,2.36-.54,1.87-.85,2.25-.5,2s.65,0,1.3-.33a7,7,0,0,0,3.09-.85,4.22,4.22,0,0,1,3-.81c1.37,0,1.28-.41,1.38-.37a9.5,9.5,0,0,1,.68-3A35.67,35.67,0,0,0,415,67.6c.7-1.6.35-2.78.69-3-.46-.2.16-.51,1.14-.3.47,0,1.5-.57,2.84-.76a10.88,10.88,0,0,1,3.47-1c1.4-.27,2.52-.81,3.91-1a10.56,10.56,0,0,0,2.86-.6A9,9,0,0,0,431,60.5v0s0,0,0,0c0,.29,1,2.82,1.37,5.07.5,1.86.89,5.34,1.37,5.09.49.16,2.61-.42,4.35-1.17l2.81-.68a6,6,0,0,1,.48-3.33,24.84,24.84,0,0,1-1.22-5,64.75,64.75,0,0,0-2.34-8c-.23-1.33-1.06-3-1.32-4.54-1.14-1.88-.66-2.87-1.36-4.69-.45-1.81-.92-3.49-1.37-5s-.9-2.94-1.31-4.21c-.54-2.62-1.92-5.75-2.34-8a25.47,25.47,0,0,1-1.65-5.69c-.79-1.77-.78-2.09-.62-2.16-.12-.26-2.26,1-4.53,1.21-2.24.44-4.11,1.17-4.52,1.22a12,12,0,0,0-.5,2A29.06,29.06,0,0,0,417,27.82c-.75,1.48-1.1,4-1.59,6.25l6.15-3.37Z"/><path class="cls-1" d="M463.16,19.58a15.18,15.18,0,0,0-1.6-3.46,15.43,15.43,0,0,0-1.76-3.19c-.87-2-1.47-2.75-1.52-3A15.75,15.75,0,0,0,454,11.05c-2.21.31-4.72.9-4.27,1.15-.47.37.09.77,0,2.32-.47.69.14,1.34,0,2.68-.72.76-.11,2.58,0,3.46-.32,1.35.2,2.47,0,4-.09,1.79.25,2.44,0,4.64a28.26,28.26,0,0,0-.16,4.89c.05,1.66.16,3.36.16,5.06v9.94c0,.82,0,1.64,0,2.45l2.89.12c0,.59,0,1.18.05,1.77-.69.23-1.44.76-2.05.62a3.24,3.24,0,0,1-.87-.35c0,1.49,0,2.88,0,4.07,0,.3,0,.61,0,.91A33.25,33.25,0,0,1,458,62.17c0-.4-.05-.84-.07-1.3a14.38,14.38,0,0,0,0-3.42c0-.74.06-2.92,0-3.84a12,12,0,0,1,0-3.84c.42-1.29-.38-2.45,0-3.43,0-2.23-.18-3.73,0-3.3.46-1.16-.15-2.53,0-3a9.43,9.43,0,0,1-.19-3,21.3,21.3,0,0,0,0-2.79c-.06-.89-.15-1.81-.19-2.94.31-1.06-.46-1.45-.1-2.6a13,13,0,0,1-.14-3c-.09.14.29,0,.44-.11,0,0-.06-.1-.11-.13.21,0,.2.06.11.13a3,3,0,0,1,.53,1.55,17.06,17.06,0,0,0,1.11,2.37c.63.53.15,1.39,1.1,2.18a7.84,7.84,0,0,1,.81,2.11A20.19,20.19,0,0,0,462,36.2c1,.5.92,1.42,1.22,2,.36-.08.44.63,1.32,2.84a11.21,11.21,0,0,1,1.21,2.63c.2,1.27.39,2.47,1.22,2.64A7.06,7.06,0,0,0,468.25,49l.58-.37A3.76,3.76,0,0,1,469,49a29.6,29.6,0,0,1,3.46-.94A16.77,16.77,0,0,1,476.59,47a34.94,34.94,0,0,0,1.32-3.54,3.65,3.65,0,0,1,1.41-3.23,16.22,16.22,0,0,0,1-3.35c.76-1.88,1.29-3.49,1.32-3.55a8,8,0,0,1,1-2.73,5.35,5.35,0,0,0,1-2.72c-.23-1.1.52-1.63,1-2.69a23.82,23.82,0,0,0,.94-2.62,7.2,7.2,0,0,0,.84-2.35,9.71,9.71,0,0,1,.87-2.53c-.14-.05,0-.22.05-.1s0,.07-.05.1.17,0,.37-.05a21.15,21.15,0,0,0-.2,2.88,17.46,17.46,0,0,0-.07,2.87c0,1.21,0,1.78-.11,2.9a11.27,11.27,0,0,1-.1,3,3.76,3.76,0,0,1-.08,3c.44,1-.1,2.2-.08,3.08s-.15,1.22,0,3.3a10.1,10.1,0,0,0,0,3.54c.65,1.3.19,2.72,0,3.73-.5,1.24.27,2.55-.27,4,0,1.11.27,2.29.27,3.22,0,2,.25,3.22,0,3.3.22.18,2.34-.73,4.1-1.09,2-.3,4.57-1.37,4.1-1.1.36,0-.27-.71,0-2.33a2.37,2.37,0,0,0,.12-2.56c.08-.87-.16-1.9-.12-3.57-.05-1.12.12-2.57,0-4.26a19.85,19.85,0,0,0,0-4.42c-.25-3.66,0-6.61,0-10,.05-2.13-.13-3.87,0-5.06,0-1.67,0-3.31,0-4.88-.27-3.46,0-5.53,0-8.68s.05-4.48,0-6.14c-.4-.93.49-2.14,0-2.33a26.36,26.36,0,0,0-4.27,1.15c-1.84.58-4.06,1.05-4.27,1.14.33,0-.37.87-.72,1.82-.94,1-.62,2.27-1.82,4.56-1.49,1.61-2,3.86-2.35,5.92-.55,1.53-1.5,2.62-1.8,4.51-.08,1.29-1.43,2.54-1.57,3.94-.54,1.21-.9,2.13-1.14,2.77s-.35,1-.39,1.08a13.41,13.41,0,0,0-1.48,4c-.23.67-.49,1.39-.75,2.12-.6.62-.63.73-.79,2.24s-1.4,2.6-1.21,3.52c.23.27-.6,1.08-.32.09a1.8,1.8,0,0,1-.72-1.94c-1-.56-1.17-1.13-1.25-2.68a26.92,26.92,0,0,0-1.26-2.61,14,14,0,0,1-1-2.4l-1.53-3c-1.19-1.19-.62-2.06-1.45-3.08S464,21.15,463.16,19.58Zm-11.3,10.49h-.16c-.05-.25-.06-.52-.09-.78l.44,0,.06.63c0,.05,0,.1,0,.16Zm4.08-19.41.28-.19,0,.35Z"/><path class="cls-1" d="M157.22,567.37a17.79,17.79,0,0,1-.89-3.24,5.7,5.7,0,0,1-1.45-2.61c-.71-.47-1-1.5-2-2a4.78,4.78,0,0,0-2.81-1.29c-.92-.11-1.63-.75-2.78-.63-1.1-.46-2.26.05-3.37.18-.92-.16-2.46.68-4.21.67.57.54-.75.56-1.1.4-.78.12-1.77.4-2.88.67a47.37,47.37,0,0,0-7.38,2,24.1,24.1,0,0,0-4,1.07,21.05,21.05,0,0,1,0,2.32,5.66,5.66,0,0,1,.1,2.34c-.15,1.4,0,1.94-.1,3.8-.44,1.32,0,2-.11,4a30.17,30.17,0,0,1,.11,4.72c.29,1.51-.17,2.87,0,4.06a17.24,17.24,0,0,0,0,4.19,15.77,15.77,0,0,1,.11,4.06c.16,1.15-.39,2.64-.11,4.34a38.42,38.42,0,0,1-.12,3.85c0,.88,0,1.77,0,2.63l.15-.36c3.09,4.13,3.85,8.31,2.84,13.39.4-.09.83-.18,1.32-.25,2.18-.91,4.32-.86,4.18-1.12s-.12-2.28,0-4.94c.21-3.32-.32-6.13,0-9.16a26.63,26.63,0,0,0-.1-3.29c-.06-.84-.43-1.3.1-1.65-.31.39,1.17-.47,3.48-.93a8.31,8.31,0,0,0,3.49-.94,11.6,11.6,0,0,0,3.31-1,17,17,0,0,0,2.91-1.38c2.34-.77,3.24-2,5-3.53,1.44-1.11,2.36-3.18,3.64-4.55,1.07-1.59,2.35-3.8,2.24-5.53a24.85,24.85,0,0,0,.57-3.09,8.75,8.75,0,0,0,.19-3.31C157.4,570.09,157.38,569.1,157.22,567.37Zm-8.34,9.38c-.22,1.48-.19,2.06-.93,2.77a3.39,3.39,0,0,1-1.29,2.32,3,3,0,0,0-1.82,1.88c-1.07,0-1.35,1-2.34,1.46a10.12,10.12,0,0,1-2.89,1c-.06-.38-1.44,1.12-3.44.92a18.31,18.31,0,0,1-3.46,1c-.64.81.13-1.56,0-3.19a8.13,8.13,0,0,1,.19-3.23c-.13-.55.08-2.43-.19-3.75a20.69,20.69,0,0,0,0-3.52,16.72,16.72,0,0,1,0-3.45c.43-2.26-.32-3.59,0-3.16-.07-.13,1.79-.33,3.44-.93,2.05-.36,3.6-.38,3.44-.92a4.5,4.5,0,0,1,2.8-.44c1.1-.11,1.74-.3,2.43.17.25.37,1.94.91,2,.94a3.81,3.81,0,0,1,1.15,1.6,10.82,10.82,0,0,0,.58,2.23c.28,1.41,1.07,1.46.45,3.07C148.2,574.3,149.3,575.72,148.88,576.75Zm.19,3.57.11-.3.2.24Z"/><path class="cls-1" d="M125.08,608.78c-.25.69-.48,1.35-.71,2a43.14,43.14,0,0,1,0,4.37c.06,1.35-.48,1.24,0,1.64.25,0,.85-.32,1.87-.62C124.76,613.76,126.36,611.24,125.08,608.78Z"/><path class="cls-1" d="M200.05,596.5c.13-.3-.65-1.25-2-2.71a30,30,0,0,1-2.07-2.71,13.4,13.4,0,0,1-2.26-3.26c-.63-.86-2-2.46-2.45-3.11a10.75,10.75,0,0,1-1.88-2.86,14.7,14.7,0,0,1-1.93-2.74l0,0s0,0,0,0c.8-.81,1.72-.72,2.45-1.52.93-.31,1.28-1,1.95-2,.61-.85,1.22-1.51,1.78-2.19a10,10,0,0,0,1.49-2.27,8.92,8.92,0,0,0,1.21-2.23,10.17,10.17,0,0,0,.83-3.07,7.82,7.82,0,0,0,.52-2.92c-.06-1.23.23-2.4.17-3.09-.22-2-.65-3.26-.51-4.85.07-1.41-.79-2.53-1.53-3.78a6.59,6.59,0,0,0-2.49-2.66c-.63-.42-1.87-.23-2.35-1.28-.95-.67-1.95-.43-3.12-.56a6.43,6.43,0,0,1-3.49,0c-1.69.28-2.6.65-3.92.86.22.3.2.28-1.09.6-.8.37-1.53.12-2.79.44-.89.71-2.35.86-3.6,1.22a17.92,17.92,0,0,1-3.63.72,20.25,20.25,0,0,1-2.87.67,1.23,1.23,0,0,1-.84.47,2.85,2.85,0,0,1-.18,2.23c-.25,1-.83,1.79-.31,2.59a12.19,12.19,0,0,0,.31,3.55,29.33,29.33,0,0,0,0,4.19,21.83,21.83,0,0,1,0,4.49v16.65c0,2.89-.12,5.3,0,7.82a36,36,0,0,1,0,6.49c0,1.83.43,3.19.19,4l1-1.26.64.45c-.43.7-.85,1.41-1.28,2.12l-.55-.38c0,.39,0,.72,0,1.11.24-.29,1.9-.36,4.19-1.12,2.05-.71,4.37-.83,4.19-1.12-.23-.55,0-.66,0-3.07a41.05,41.05,0,0,0,0-6.76c.37-2.82-.17-4.54,0-6.76-.27-1.63-.3-3.19,0-3.07a26.19,26.19,0,0,0,2.61-.7,3.42,3.42,0,0,0,2.62-.62s0,0,0-.08,0,0,0,.08c0,1,.78,1.05,1.82,2.5.8.12.78,1.53,1.75,2.52a8.78,8.78,0,0,1,2.27,3.16c.71,1,1.58,2.07,2.26,2.93.82,1.28,1.42,1.6,1.75,2.75,1.14,1.28,1.73,3.12,1.83,2.59.15.14.77-.37,1.43-.42a7.81,7.81,0,0,0,3.21-.83c1.14-.22,2.24-.67,3.29-.83S200.43,596.62,200.05,596.5Zm-31.54-4.39.13-.52c.17,0,.4-.1.5,0s.11.33.16.5Zm10.86-39.4.44.14a1.77,1.77,0,0,1-.27.49c-.06,0-.27-.08-.42-.13Zm-6.6,26.76c-.63,0-1.27-.53-2.65-1.17,1.35-.67,2-1.24,2.6-1.23.84,0,1.67.45,3.81,1.1C174.4,578.94,173.59,579.43,172.77,579.47Zm12.55-.74s-.32-.05-.5-.08c.09-.29.17-.59.26-.88l.52.08A6.44,6.44,0,0,1,185.32,578.73Zm1.86-8.43a16.51,16.51,0,0,1-1.92,1.91c-1.5,1.27-2.58,2.48-4.94,2.49-.19.37-1.26.29-3.23.87-1.41.43-3.45.9-3.23.86.25-.43-.37-.92,0-3.07.28-1-.25-1.87-.09-3-.39-1.3.25-2.71.09-3.76.13-1.32.62-2.51.39-3.69a15.42,15.42,0,0,1-.39-3.07c.07-1.69-.31-3,0-3.07-.33.25,1.66-.41,3.27-.88,1.21-.82,3.49-.71,3.28-.88.82.36,1.9-.48,2.63-.44.39.18,1.75-.26,2.25.21,1,.16,1.92,1.74,3,2.44.55.87.17,1.25.7,2.22a18.74,18.74,0,0,1,.31,2.87c0,.8-.29,2.39-.25,3-.59.64-.13,2.26-.76,2.68C187.43,569.23,187.9,569.9,187.18,570.3Z"/><path class="cls-1" d="M241.93,565c.5-.87,0-2.15,0-3.17,0-1.4,0-2.55,0-3.64.09-1.32.14-2.53.14-3.65a31.42,31.42,0,0,0-.14-3.16,5.33,5.33,0,0,1-.16-2.85c-2.26-1.11-3.4-3.1-3.61-6.27a5.4,5.4,0,0,1,3.37,2.21l0-.1c-.58-1.6-.11-2.12-.79-3.37a11.34,11.34,0,0,1-1.48-2.72c-.74-.82-1.69-1.37-2-2.07-1.07-.2-2.15-1.29-3.5-1.71-1.2-.48-2.32-.44-4.37-.48a7.09,7.09,0,0,0-2.48.18c-.61.07-1.56.53-2.69.65a2.72,2.72,0,0,0-3.1,1.07,9.77,9.77,0,0,0-3,1.37,4.31,4.31,0,0,0-2.62,1.69c-1,.32-1.16.86-2.31,2a8.66,8.66,0,0,0-3.65,4.73c-.93,1.56-2.17,3.68-2.27,5.66a9.39,9.39,0,0,0-.73,3.14c-.08,1.07-.05,2.17-.05,3.3a16.93,16.93,0,0,0,0,3.1c-.19,1.92.2,4.12,0,6.81-.5,1.16.05,2.76,0,3.64a18.32,18.32,0,0,0,0,3.17c.26,1.82.44,2.76,0,3.1.35,1.5.24,3.21.4,3.92-.2,1.43.23,2,.81,3.36.61,1,1,2,1.44,2.88a3.55,3.55,0,0,0,2.06,1.9,21.52,21.52,0,0,0,5.58,2.11c.6-.14,2.24.3,3.43,0,.67-.46,2.22.12,4-.76,1.49-.16,1.87-.9,2.41-.74.32-.49,2-.6,1.79-.74a3.46,3.46,0,0,1,2.09-.95c1-.48.26-.9,1.6-1.1a8.84,8.84,0,0,0,1.58-1.19c.49-.44,1-.92,1.58-1.38a18.89,18.89,0,0,0,2-2.24,5.73,5.73,0,0,0,1.66-2.49c-.13-.36.75-1.27,1-2.42a31.53,31.53,0,0,1,1.32-3.24,7.48,7.48,0,0,1,.44-3.12,9.6,9.6,0,0,0,.34-3.32C241.49,568,241.87,566.86,241.93,565Zm-20.76-25.62c.66.21,1.3.46,2,.7l-.64,1c-.53-.43-1.07-.85-1.59-1.3C220.87,539.78,221.12,539.36,221.17,539.38Zm10.76,38,.1-.36.26.27Zm1.37-16.92c0,2.54-.07,4.92,0,6.81-.11,1.88.23,3.28,0,3.1.3.82-.08,2.21-.26,3.21a13.57,13.57,0,0,1-.78,2.82,13.92,13.92,0,0,1-1.37,2.38c-.89.66-.25,1.58-1.69,2-.88,0-2,1.36-2.24,1.16-1.12.91-1.7.4-2.78,1.4-1.05.23-2,.71-2.71.45-1.15.17-1.05-.42-2.34-.31a2.48,2.48,0,0,1-1.72-1.2c-.69-.31-.68-1.34-1.33-1.53a12.34,12.34,0,0,0-.63-2.57c.1-1.27-.79-2-.39-2.91,0-.19.11-1.42,0-3.1a7.65,7.65,0,0,1-.11-3.14,24.77,24.77,0,0,1,.11-3.67c.31-.92-.18-2.46,0-3.64.39-1.12-.27-1.92,0-3.17.11-1.86-.37-3.07,0-3.1-.5-1.39-.36-1.65.26-3.21.48-1.17.06-2.08.76-2.82a15.64,15.64,0,0,1,1.27-2.4,1.36,1.36,0,0,1,.89-1.38l.2-.5.29.19.4-.28c.12-1.16,1.06-.93,2.07-1.49a16.34,16.34,0,0,0,3-1.08c.88-.34,1.61-.83,2.75-.43.79.6,1.45-.41,2.27.3.75,0,1.29.69,1.78,1a4.7,4.7,0,0,0,1.28,1.72c.34,1.29.9,1.72.89,2.6a6.82,6.82,0,0,1,.15,2.87c-.29-.43.38,1.28,0,3.1-.05.88-.16,2-.19,3.17A17.86,17.86,0,0,0,233.3,560.5Zm1.61-22.87h0c0-.16,0-.36,0-.54s0-.32.07-.39c.24-.19.68-.15,1-.2v1.25Zm1,2.49a1,1,0,0,1-.25-.31c0-.06.13-.17.2-.25l.27.31C236.05,540,236,540,235.9,540.12Zm1.15,10c-.25-.09-.66-.13-.7-.27a5.21,5.21,0,0,1-.08-1.28c.37.14.79.2.82.33A5.58,5.58,0,0,1,237.05,550.1Z"/><path class="cls-1" d="M261.58,568.83c-.19-1.27.09-4.09,0-6.51v-8.89c0-2.82.1-5.41,0-8.49l-.37-.29c.12-.07.24-.2.36-.19,0-.24,0-.47,0-.71.08-3.23-.16-6.16,0-8.89a17.68,17.68,0,0,0,.15-2.82l-.56,0c.1-.48.18-1,.3-1.43,0,0,.09,0,.19,0a13.58,13.58,0,0,1-.08-2.17c0-1.18-.47-2.28,0-2.52-.13-.31-1.72.3-4.18,1.12s-3.73.71-4.19,1.12c0,.24-.07,1,0,2.52.19,1.24-.4,3.81,0,6.5a35.12,35.12,0,0,0,0,8.89c0,1.6-.15,3.2,0,4.85,0,.83,0,2.13,0,3.32l.62.66-.65.62a1.85,1.85,0,0,1,0,.24,11,11,0,0,0-.19,4.79c-.39,1.23.45,2.92.19,4.1,0,.95.09,2.3,0,3.54s0,2.14,0,3c.71,1.86,0,2.48,0,2.52a18.94,18.94,0,0,1-1.11,6.29c-.43.53-.92,1.4-1.46,2.21a4.43,4.43,0,0,1-1.79,1.77,3.19,3.19,0,0,0-.59.45l.35.35-.69,1.34-1.23-.62c-.68.59-1.28.94-3.1.77-.63.24.31,1.11,0,3.84,0,2.28.31,3.42,0,3.83,1.22.21,2-.59,3.36-1.09,1.69-.72,2.28-.5,3-1.36.88-.64,1.83-1.24,2.72-1.81a17.12,17.12,0,0,0,2.31-1.72c1.47-.89,2.35-2.59,3.63-4.54a37.42,37.42,0,0,0,2.2-5.52c.1-1.56.67-3.77.74-6.43C261.2,571.47,261.49,571,261.58,568.83Zm-4.77-11.09,4.31,2.77C258.34,560.2,258.34,560.2,256.81,557.74Z"/><path class="cls-1" d="M300.31,568.63l-.45.16a2.09,2.09,0,0,0-.17-.14c-6.94-.67-8.07-.82-10.15-3.48l-.9.22c-.76.32-1.93.39-3.24.89-1.86.8-3.49,1.12-3.26.88a9.52,9.52,0,0,1,0-2.09c.3-.63-.3-.88,0-2.14,0-1.06,0-1.79,0-2.68.27-.65-.26-1.73,0-2.75a5.84,5.84,0,0,0,0-2.61c0-1.24.16-2.33,0-3.1-.29-.85.09-1.1.11-1.17s-.13,0-.15,0,.16,0,.15,0c.27-.08.81-.54,1.3-.47s1.71-.15,3.34-.84a32.4,32.4,0,0,1,4.51-1.09c1.8-.05,2.94-1.16,4.4-1.3.74-.25,1.35-.44,1.89-.59h0c.24-.47.39-1.21.74-1.33a1.8,1.8,0,0,1,1.47.5c.07.07,0,.24,0,.46.51-.1.84-.3.76-.31-.43-.12-.63-1.82,0-3.6-.16-1.78.22-3.52,0-3.61.23-.31-.83,0-1.55.39-1.2.16-2.33.89-3.25.9s-1.19.24-1.86.54c.27.59.54,1.17.82,1.75l-1.31.41c-.16-.59-.33-1.18-.49-1.76a3.33,3.33,0,0,1-1.58.33,18.26,18.26,0,0,0-2.29.58c-.66-.19-1.42.51-2.2.54-1.37.13-3,.95-3.32.84-1,.36-1.61.19-1.47.44-.4.18,0-.54,0-1.31.16-1.14.56-1.84,0-2.76.26-1-.43-1.09,0-2a2.7,2.7,0,0,1,0-2c-.49-1.29.36-2.56,0-3.64a7.34,7.34,0,0,0,.11-2.72,6.32,6.32,0,0,1-.11-1.36,9.44,9.44,0,0,1,3.13-.84c.87-1.11,2.41-.61,3.34-.84,1.07-.39,1.81-.33,3.56-1,1.63,0,2.2-.56,3.64-1.13a6,6,0,0,0,3.26-.71,9.3,9.3,0,0,1,3.05-.91,12.63,12.63,0,0,1,.08-3.61c.1-1.45-.1-3.77,0-3.68.16-.3-1.07.79-3,.79-.6.22-1.69.46-3,.76a9,9,0,0,1-4.08,1.13c-1.53.23-3.34.45-4.32,1.16a12.55,12.55,0,0,1-4.1,1.09c-1.55,0-2.38.74-3.9.9-1.41.46-2.62,1.21-3.15,1-1.9.7-2.88.31-3,.8a9.38,9.38,0,0,0,0,2.32,4.87,4.87,0,0,1,0,2.74c-.21.69.78,2.1,0,3.4a16.81,16.81,0,0,1,.07,2.32c.16.14-.06,1,0,1.89a2.15,2.15,0,0,1,0,2,14.3,14.3,0,0,1,0,2.46c0,.71.34,1.75,0,2.26-.31.2-.27,1.33,0,2.45a8.78,8.78,0,0,1,0,2.58,6.1,6.1,0,0,1,0,2.65c-.08,1.32.29,1.81,0,2.54a23.54,23.54,0,0,0,0,2.52,6.8,6.8,0,0,0,0,2.47v2.42c-.19,3,0,6.3,0,8.68-.08,2.91-.09,4.78,0,6.14-.22,1.66.24,2.21,0,2.32s.92-.38,3.05-.81a21.55,21.55,0,0,0,3.45-.79c1.26-.38,2.57-.81,3.81-1.15a40.35,40.35,0,0,1,4.34-1.22,13.49,13.49,0,0,1,4.32-1.1c1.12-.31,2.52-.07,4-1,1.18-.79,2.05-.48,3.21-.94,1.84-.65,3.27-.71,3-.81,0,0,.06-.13.09-.39Z"/><path class="cls-1" d="M300,568.62h.41l2.79-1a12.38,12.38,0,0,0-.15-2.41c.39-1.61.32-3.9,0-3.67-.07.33-1.19.17-3.26.87-1.28.12-2,.75-3.35.9a33.61,33.61,0,0,0-3.84,1,5.8,5.8,0,0,1-.63.2,19,19,0,0,1,7.65,4Z"/><path class="cls-1" d="M342,547.7c-1-1.31-1.73-2.25-2.81-3.78s-2.28-2.58-2.81-3.77a28.74,28.74,0,0,1-2.33-3.31c-.75-1-1.5-2-2.37-3-1.15-1.62-1.72-2.26-2-2.65-.17-.21.59-1.52,1.73-2.92a30.58,30.58,0,0,0,2.09-3.08c.56-.89,1.2-2.58,2-3.88a34.77,34.77,0,0,1,2.3-4l-2.11-3.15,1.16-.53c.36,1.16.72,2.33,1.09,3.5.75-1.38,2-2.4,2.47-4.1,1.64-2.65,2.88-5.41,4.11-6.95a9.71,9.71,0,0,0,1.73-2.92s-2.33.56-4.89,1.31-4.84,1.2-4.9,1.31c-.28.15-.55,1-1.81,3.17a24.31,24.31,0,0,0-1.86,3.25c-.82,1.33-1.38,2.61-2.13,3.73a24.81,24.81,0,0,1-2.13,3.76,7.57,7.57,0,0,0-1.86,3.21c-.86,2-2,3.08-1.81,3.17s-.2.5-.61,1.22-.92,1.66-1.3,2.47a13.93,13.93,0,0,0-1.9,3.68,16,16,0,0,1,0-3.67c.06-1,0-2.32-.05-3.72a35.54,35.54,0,0,1,.05-4.37,14.39,14.39,0,0,0,.07-4.37,24.49,24.49,0,0,1-.07-3.72c0-2,0-3.47,0-3.67-.15.09-2.51.52-4.13,1.11l-4.15,1.11v8.46a61.31,61.31,0,0,1,0,8.68c-.17,3.6.19,6.61,0,10v6.53l.87.93c-.28,0-.58-.07-.87-.12v2.6c.07,2.77-.37,5.69,0,8.68,0,1.29,0,2.48,0,3.51a13.83,13.83,0,0,0,0,2.63c.19,1.44-.29,2.37,0,2.33.4-.23.52-.14,1.3-.35a14.64,14.64,0,0,1,2.85-.77,4.55,4.55,0,0,0,3-.58c1-.12,1-.12,1.15-.53.32-.3.51-.23,0-1.25.08-.93-.49-1.82,0-3.5a12.74,12.74,0,0,1,0-4.45c.12-1.38-.21-3.22,0-4.39.06-1.07-.21-2.41-.08-3.41-.36-.52.09-1,.08-1.34.48-.1.78-1.57,1.9-3.19.53-1.73,2.09-3.61,1.91-3.18-.34.12-.08.55.41,1.12s1.22,1.29,1.81,2c.37,1.06.28,1.22,1,1.8-.2,1.17.53,1,1.25,1.56.47.13.8,1.44,1.23,1.82.57.6.48,1.2,1.37,1.65a5.57,5.57,0,0,0,1.85,2.45c.54,1.06,1.22,1.51,1.56,2.34a19,19,0,0,1,1.25,2.11c1.17,1.17,1.13,1.5,1.38,1.57.88,1.71,1,1.86,1,1.56-.08.09-.09.1,0-.08,0,0,0,0,0,.08a1.46,1.46,0,0,1,1.4-.53,8.35,8.35,0,0,1,3.41-.84l3.3-.88,1.51-.4-2-2.65C345.53,552.39,343.66,549.78,342,547.7Zm-.42-39.79h0s0,.09,0,.14c0,.21-.07.42-.09.62h0v0l-.09,0Zm-2.35,3.72.2.25-.3.06Zm-5.78,6.23c1.79,1.4,1.95,2.68.86,4.53C332.33,521.08,332.57,519.74,333.48,517.86ZM318.7,533.28a9.81,9.81,0,0,1-1.91-4.82h0l-.42-.63.34-.22c-.06-1-.05-1.9-.12-2.79-.18-2.5-2.19-5.16-.17-7.6l1.31.08a47.57,47.57,0,0,0,.38,4.79c.32,1.8,1.14,3.52,1.29,5.31C319.52,529,319,530.63,318.7,533.28Zm8-5.44-.55-.08.15-1.66.82.26Z"/><path class="cls-1" d="M382.24,493.56c-.53.15-1.2.32-2,.49-2.37.74-4.44,1.24-8.1,2.17-3,1-6.26,1.66-9.67,2.59-3,1.21-6.26,1.4-8.1,2.17l-3.4.91v7.42l3.12-.83c1.78-.48,4-1.17,5.79-1.55s3.18-.59,3.11-.83a18.12,18.12,0,0,1,0,2.59,13.65,13.65,0,0,0-.19,2.88c.07.95-.39,2.49.19,3.8-.06,1.07,0,2.78,0,4.36-.15,1.36.39,3.3,0,4.77.3,2.77-.05,5.19,0,8,0,1.26,0,2.59,0,3.9s.36,2.74,0,3.76c.09.78-.07,2.58,0,3.45,0,1.13-.35,2.27,0,3.06.11,2.12-.19,2.92,0,4.52-.44.6-.26,2.09,0,1.69-.25-.1,2.54-.58,4.28-1.15,2.37,0,4.19-.85,4.27-1.14.5-.16.31-.55,0-1.69-.21-1.32.1-2.12,0-4.52-.56-.73-.14-2.08,0-3.09a13.43,13.43,0,0,0,0-3.42c0-1.05.07-2.26.1-3.57a35.44,35.44,0,0,0-.1-4.09c-.26-2.77.3-5.53,0-8-.18-1.39.17-3,0-4.9.43-1-.22-3.43,0-4.23a10.13,10.13,0,0,0,.14-3.85,12,12,0,0,0-.14-2.83c-.24-1.64-.6-2.67,0-2.59a27.24,27.24,0,0,0,3.14-.84,56.86,56.86,0,0,0,5.82-1.57c1.79-.41,3.08-.34,3.14-.84-.29.19-.21-1.85,0-3.71.05-.6.06-1.33.06-2l-.37.48A4.38,4.38,0,0,1,382.24,493.56ZM366,538.86c-.15-.1-.13-.45-.18-.69h.77c.06.24.11.48.17.72C366.46,538.89,366.14,539,366,538.86Zm5.47-31.59c-1.26,2.14-2.23,4.4-4.71,5.27a2.75,2.75,0,0,1-2.41-.31,2.67,2.67,0,0,1,.09-2.39C365.84,507.21,367.7,506.55,371.43,507.27Z"/><path class="cls-1" d="M0,222.89c-.28,1.91,1.56,5.35,3.44,6.66,1.71,1.78,4.2,2.4,7.15,2.28-.09-.27,1.53-.16,5.71-.62,4-1,8.64-1.62,16-2.3,2.79-.54,5.07-.39,8.87-1.57,2.9-1,6.67-.4,10.14-2,1.78-.37,3.62-.77,5.5-1.18,1.05-.54,4.26-.68,5.78-1.3,1.59-.28,5.34-1.36,8.11-1.92,3,.21,5.36-.71,8.55-2.13,2.62-.47,6-2.14,9-2.35a21.49,21.49,0,0,0,5.79-.9,45,45,0,0,0,6-2.12c3,.33,2.06.3,6.19-1.38,4,1.79,4.42-1.19,6.15-1.89,1.64-1.22,2.54-.49,6.36-1.73,1.38-.67,5.9.19,6.48-1.78,4.74-.58,6.34-3,9.93-2.77,3.51-1.19,7-1,10.17-2.87a34.45,34.45,0,0,0,4.94-1.35c1.79-.59,3.65-1.22,5.45-1.63a16,16,0,0,1,5.43-1.91,36,36,0,0,1,5.14-1.14c1.2-.47,2.15-1,3.22-1.27a10.81,10.81,0,0,1,0-1.38,7.22,7.22,0,0,1,1-3.37c.08-.12.2-.23.28-.36a7.35,7.35,0,0,1,.83-1.05,9.42,9.42,0,0,1,1.12-.91c.15-.11.26-.23.41-.33a18.54,18.54,0,0,1,4.3-2l-.15-.05.2,0h0l0,0,4.12,1.42c-.55,1.18-1,2.39-1.66,3.52-.41.75-.86,1.48-1.31,2.21h0c2.31.19,4.58-1,5.86-1.75,2.1.5,5.05-1,6.64-1.87,3.06,0,4.46-1,6.57-2.05,2.08-.61,4.09-1.16,6.1-1.62,3.74-.09,9-2.69,12.8-3.71,2.14-.63,4-2,6.44-1.87,2.82-.84,4.51-1.3,6.45-1.87,2.68-1,6.06-1.11,8.64-2.51,3.1-1.08,6.23-1,8.66-2.51,1.5.39,2.95-1,4.33-1.25,1.1.46,3-1.79,4.34-1.26,1.13-1.26,4.37-1.25,6.66-2.08a9.62,9.62,0,0,0,2.05-.52l0,0,5.36-2.2.22.48c1.54-.5,3.49-.7,5.19-1.14a48.18,48.18,0,0,0,6.49-2.07,10.47,10.47,0,0,1,6.45-2.43c2.61-.25,4.54-1.52,6.44-1.32,1.18-1.37,4.53-.91,6.35-2,2.37-1.91,4.42-1.69,6.45-1.76,1.91-.5,5.28-.83,6.65-1.57,1.74-.46,3.78-1.66,6-2.12,1.4-.74,2.88-.14,4.18-1.22A13.74,13.74,0,0,0,328,148c1.18-1,2.55-.82,4.41-1.28,1.57-.09,2.71-.17,3.86-1.13,1.82-.54,2.25-2.17,4.25-1.66a17,17,0,0,1,3.92-.72c2.66-.75,6.58-1.62,10.58-3,3.53-.92,6.6-2.38,10.35-3.1,3.19-1.09,7-2.39,10.1-3.12,3.28-.58,7.58-1.47,9.84-3.13,2.18-.64,4.29-.7,6.41-2.05,1.48.33,4.56-1.06,6.26-2.11a16.6,16.6,0,0,1,7.69-2.64c.73-1.22,1.69-2.55,2.45-4,.56.75,1.11,1.45,1.66,2.13l.23.31a35.94,35.94,0,0,1,4-1c1.35-.72,4.46-1.11,7.09-2.26a21.13,21.13,0,0,1,1.67-5,11.38,11.38,0,0,1,2.28,3.33,28.58,28.58,0,0,1,7.62-1.94c1.78-.41,3.5-.76,5.28-1.21l-1.69-1.64,1.18-1.29,2.33,2.43c1.06-.32,2.15-.68,3.31-1.14.23,0,.45,0,.68-.06-.06-.32-.13-.65-.19-1a2.76,2.76,0,0,1,.53-.08,6.65,6.65,0,0,1,.25,1,21.83,21.83,0,0,0,3.63-.89c.81-.15,3.8-1.2,4.8-1.55,2.92-.64,4.84-1.31,6.81-1.54a16.71,16.71,0,0,1,6.67-.22,31.24,31.24,0,0,1,6.34.53c2.48-.43,4.32.79,5.63,0a21.29,21.29,0,0,0,9.26-2.11c2.34-1.56,5-2.62,5.87-3.4,3.09-2.73,3.69-4.17,4.79-4.06,1.4-.69,1.7-1.38,1.45-2.51.68-1.54.22-5-.15-7.37-.45-2-3.39-3.72-5.31-5.1,0-1.56-1.63-1.37-6.18-1.13a37.84,37.84,0,0,0-9.23,1l.68.87c.77.94.73,2.53,1,3.65-2.23,1.84-3.83,1.08-5.08-.45-.71-.87-1.41-1.75-2.1-2.63-.38.11-.75.22-1.14.35-.61,1-2.91,2-4.9,2.77-1.35,2-4.17,1.29-5.23,3.63a10.42,10.42,0,0,1-5.88,3.14c-2.69.82-3.86,1.64-6.68,2.07a28.35,28.35,0,0,0-4.73,1.3l-4.93,1.35c-4.59,1.58-6.77,1.5-10.45,2.73-5,1.07-6.9,1.79-11.21,2.6-1.82.54-4.83.36-7.88,1.65-2.52,1.33-5.08.68-8.15,1.71a43.12,43.12,0,0,1-4.71.91,28.5,28.5,0,0,0,3.44,2.38l-1.12,1.62-5.11-3.41c-.31.08-.62.16-.91.26a7.34,7.34,0,0,1-3.36.6l.71.28c.57.25.63,1.61.92,2.47-.87.14-2,.69-2.57.36a23.88,23.88,0,0,1-3.17-2.15l-5.58,1.17c-3.3,1-6.54,1-10.08,2.21-3.57,1.37-6.42.73-10.31,2.35a40.46,40.46,0,0,1-10.52,2.5,52.46,52.46,0,0,0-10.68,2.64c-1.27.35-2.72.78-4.16,1.17-1.61.33-2.59,1.2-4.11.85-.67.29-3.36-.56-4.17,1-1.07-.56-3,.19-4.2,1-1.85,1.34-2.92.75-4.21,1a13.63,13.63,0,0,0-4.23,1c-2.19.09-3.65.68-6.36,1.67a17.75,17.75,0,0,1-6.45,1.47c-2,0-4.74,1.37-6.33,1.34-1.72,1.83-4.88,1.49-6.62,1.83-2.35.57-4.89,1.26-6.57,1.65a44.26,44.26,0,0,1-6.47,1.54c-2.07.69-4.34,1.46-6.6,2.07-2.39.36-4.12,1.67-6.51,1.14-1.33.93-4.41.57-6.18,1.29a16.51,16.51,0,0,0-2,.26l1.55.19c-.13.66-.27,1.31-.41,2-.25-.07-.56-.1-.84-.16a.91.91,0,0,1-.62-.3c-.23-.32,0-1,.08-1.64-1.42.33-2.47.88-4.76,1.61-1.88-.16-3.3-.49-4.39,1.08-2,.23-3.07,1.1-4.38,1.08-3,.13-5.88,1.92-8.75,2.15-3.92-.06-6.59,1.53-8.73,2.15-1.71.79-4.77,1.07-6.53,1.61-3.06.37-4.3,1.46-6.51,1.61-1.9.33-4.16.85-6.43,1.43s-4.28.48-6.51,1.75c-1.89.36-4.67-.59-6.33,1.45-2,.65-4.24,1.6-6.47,1.7-2.31-.49-3.61-.08-6.33,1.33-2,.26-4.21,2.09-6.31,1.79-3-.47-4.8,1.07-6.49,1.26a15.43,15.43,0,0,0-5.57,1.62,21.13,21.13,0,0,1,4,2.57,54.69,54.69,0,0,1-7-1.35,4.38,4.38,0,0,1-3.11.37,7.59,7.59,0,0,0-3,.2l12.51,4.89-.54,1.38c-4.32-1.74-9.3-1.88-12.94-5.27.1-.26.21-.52.31-.79-.86.34-1.46.76-2,1-2.08-.65-3.28,1.67-5.67,1.66-1.86,2.44-3.48,1.52-5.48,1.13a24.45,24.45,0,0,0-10.89,2.77c-3.81,2.56-6.34,2.68-10.58,2.73-2.52.23-3.59,1.45-10.26,2.7-3.13,1.2-4.55,2.67-6,1.35-1.5.57-4.16,1.84-6.38,2a50.54,50.54,0,0,0-6,1.24,44.09,44.09,0,0,0-5.66,2c-4.18,1.09-6,2.05-8.93,2.44a11.72,11.72,0,0,1-4.45,1.29c-.87.26-2.49.18-4,1.14a8.33,8.33,0,0,1-3.73,1.53c-1.38.29-2.86.47-4.26.87-2.78,1.45-3.82,1.18-5.65,1.76s-3.63,1.16-5.36,1.73c-3.65,2-7.56,2.47-9.79,3.31-3.09,1.54-5.92,1.31-8.48,3.07-7.1,2.42-12,5.44-15,6-3.73,1-5.27,2.12-5.26,2.32-3.07.22-3.35,2-4.27,3.91A13.3,13.3,0,0,0,0,222.89ZM481.35,101.56l-4.42-2.4C480.21,98,481,99.32,481.35,101.56Zm-6.44-9.34-.31.45c0-.2,0-.31,0-.43Zm-7.13,0,.05.43-.41-.17Zm-6,11.8c.17.07.49.17.49.22a7.91,7.91,0,0,1-.28.91l-.52-.23C461.58,104.59,461.68,104.29,461.79,104Zm-12.46,1.77.28.27-.35.06Zm-49.21,5.7-.19-.43.44,0Zm.14,6.82.06.19h0v0a.58.58,0,0,1-.08.14Zm-8.11,6.53a.62.62,0,0,1,.16,0Zm6.93-1.4c-4.25-1.89-6.61-4.18-7.09-9.23C397,116.11,398.92,118.62,399.08,123.41Zm-11.34,3.32.21-.3-.13.33h0l-.14,0,.05-.06-.36,0h0C386.8,126.65,387.24,126.7,387.74,126.73Zm-72.61,10.74.5.72-1.92,1.54L313,138.6Zm-41.64,13.87c-4.75,1.8-8.52.27-12.75-2.61C265.41,145.2,268.59,145.93,273.49,151.34Zm-18.67,4.57v.43l-.39-.22Zm-8.31,5.1c.27.24.69.44.75.72s-.33.56-.52.84h0l-1-.43Zm-5,.51.24-.2-.18.23h0l0,0h-.1l0,0-.14-.14Zm-40.59,13.09.25.53c-.12,0-.26.08-.35,0s-.11-.21-.16-.31S200.85,174.7,200.94,174.61ZM191,171.46a38.53,38.53,0,0,1,5.4-2c.65-.15,1.55.88,2.34,1.38-.51.75-1,2.13-1.54,2.14a50.05,50.05,0,0,1-6.21-.54C191,172.12,191,171.79,191,171.46Zm-4.95-4.61c.31,0,.64.22,1,.35h0c-.16.25-.32.69-.51.71s-.64-.22-1-.35C185.72,167.31,185.87,166.87,186.06,166.85Zm-24.51,17h0l.06,0,1.93.73-.18.36-1.7-1.06-.16-.06h0Zm-29.06,5c0-.56-.06-1.12-.1-1.68,3.18-1.84,6.37-.81,9.62,1.06Zm13.69-7.77c-8.88.91-18-.08-26.28,4.37C123,178.07,136.76,175.63,146.18,181.05Zm-34.12-1.69.71.29c-.25.75-.5,1.51-.76,2.27l-1-.5Zm-.43,22.78c4.08-1.72,7.84-1.06,11.65.72-3.41,4.6-7.42,7.23-13.81,6ZM100,211.46a8.28,8.28,0,0,1-1.72-.06c.15-.45.19-1.15.49-1.3a5.37,5.37,0,0,1,1.87-.16C100.3,210.85,100.21,211.42,100,211.46Zm3-9.62.72.28h0a3.62,3.62,0,0,1-.53.51c-.08.05-.37-.09-.37-.11A5.69,5.69,0,0,1,103.07,201.84Zm-2.77-4.62-.26.4-.22-.43Zm4,7.56c-4.76,3-5.34,3.06-10.84.7ZM86.54,196c.11,0,.24.16.37.25-.1.12-.17.32-.28.34s-.24-.16-.36-.25C86.36,196.22,86.44,196,86.54,196ZM71.66,211.93l.11-.33.23.26Zm-.72-6.77c.29-.3,1.08-.12,1.88-.17.07.77.37,1.57.12,1.84a11.41,11.41,0,0,1-2.65,2c-.17.1-1.24-.85-1.19-.95A12.52,12.52,0,0,1,70.94,205.16Zm-16.63,5.27a4.47,4.47,0,0,1,.61.33h0l-.52.46a3.27,3.27,0,0,1-.35-.56S54.25,210.41,54.31,210.43Zm-5.48-6.79c1.29.24,2.56.53,3.84.81l-.31,1.06c-1.48.4-3,1-3.8-1.07A1.26,1.26,0,0,1,48.83,203.64Zm-4.15-2.39c.3,0,.61.4,1.12.76-.56.29-.93.62-1.23.58s-.56-.48-.83-.74C44.05,201.64,44.36,201.25,44.68,201.25ZM1.62,218.05a53.69,53.69,0,0,1,6.15-2.39c-.87,3.77-2.69,4.82-4.81,5.39-.57.16-1.85-.33-1.92-.69C.9,219.62,1.12,218.31,1.62,218.05Z"/><path class="cls-1" d="M478.47,439.11c2.67-.79,5.85-2.34,8.44-3.2,2.65-1.49,4.35-1.77,6.55-2.8,3.29-.46,5.1-1.77,5.26-2.32,1.44-.68,3.73-2.26,4.27-3.91a20.19,20.19,0,0,0,1.32-5.78c-.79-2.93-1.1-5.35-3.44-6.67-2.14-1.12-3.9-2.36-7.15-2.28-.12-1.24-1.68.12-5.71.62-2.27.28-4.56,1.49-6.61,1.16-3.52,0-6.4.78-9.37,1.14-1.68.4-4.2-.16-5.94.89-2.42.39-3.63-.06-5.36,1.15-2.07.48-3.94.84-6.05,1.34s-4.42,1-7.17,1.41a39.89,39.89,0,0,0-7.54,1.62c-3.07,1-4.43,1.87-7.4,1.85-3.29-.2-5.26.77-8.05,2.07l-.51.14a12.73,12.73,0,0,1,2.92,5.3c.61,1.79,1.46,2.72,3.59,1.9l-3.38,3.37a35.11,35.11,0,0,0-4.41-2.61c-1.5-.61-3.17-.79-4.79-2l4.27-.95c-1.23-1.56-2-2.6-2.89-3.63l-.11-.13c-1,.24-2.07.49-3.1.78-.67.05-1.36.12-2.05.21l.66,1.17-.62.34-.74-1.41a36.8,36.8,0,0,0-3.82.76c-.59.14-1.2.31-1.82.5.48.52.95,1.05,1.43,1.58l-.66.73c-.53-.69-1.06-1.37-1.58-2.06-1.57.5-3.22,1.09-5,1.83-1.34.19-4.56,1.48-7.38,2.16a20,20,0,0,0-4.12,1.16c3.14,1.14,2.7,4.45,3.73,6.89,4.32-.74,5.16,2.46,6,5.7l6.32.24c-1.09,2.21-1.8,3.64-2.76,5.57a28.76,28.76,0,0,1,4.12.76,7.39,7.39,0,0,1,1.93,1.53c-.58.62-1.06,1.57-1.77,1.8a10,10,0,0,1-4.47.67c-1.15-.2-3-1.39-3-2.19-.16-4.8-4.11-6.62-6.94-9.13a12.27,12.27,0,0,1-3.76-5.59l-.33-.19.2-.34a15.88,15.88,0,0,1-.38-5.36,7.3,7.3,0,0,1-2.34.33c-1.49,0-2.9-.25-4,.25a10.09,10.09,0,0,1-3.86,1c-.68,1.1-2.35,1.36-3.84,1.47-1.48.53-2.59,1.57-4,1.61-.69.63-2.13.42-3.82,1.08a15.5,15.5,0,0,0-4.26,1.19c-2,.66-3.35,1.69-4.2,1.29-1.14.77-2.75.24-4,1.06-1.3,1.05-3.89.37-4.77,1-1.92.87-2.29.44-3.59,1.39-1,.5-3,.33-4.5,1.07a22.44,22.44,0,0,0-4,1.39l-1.69.44c.27.11.53.23.8.32-.23.47-.34,1.16-.72,1.37a10.69,10.69,0,0,1-2.29.7l.09-1.57.16-.26-2.49.72c-1.94.26-4.55,1.56-6.16,1.84-1.42,1.07-3.66.9-6.14,1.64a15.49,15.49,0,0,0-6.36,2c-1.09.32-2.64-.68-4.45.88-2.48.76-3.21.93-4,1.56-1.46,0-3-.08-4.3,1.09-1.25-.25-3.66,1.19-4.19,1.37a15.17,15.17,0,0,1-4.55,1.15c-1.05.18-3,.1-4,1.33-2.61-.22-3.8.76-6.43,1.86-.53.45-4.59.73-6.46,1.88a53.83,53.83,0,0,1-6.1,1.6A16.35,16.35,0,0,0,262,471.1c-2.05-.23-5.43.87-6.59,2.24a32.89,32.89,0,0,1-6.4,1.52c-4.77,2.37-8.06,2.64-13,3.79-4.39.79-8.64,1.47-13,3.77a52.18,52.18,0,0,1-6.18,1.81c.28.07.62.1.71.27s0,.66,0,1c-.3-.08-.76-.09-.86-.28s0-.62,0-.94h-.05a56.08,56.08,0,0,0-6.53,1.9c-1.86.08-3.67,1.61-6.41,1.87-2,.61-4.78,1.46-6.38,1.86a28.35,28.35,0,0,1-6.58,1.7c-2.07-.25-4,1.37-6.09,2-1.2,1-3.64,1.59-6,1.88a16.59,16.59,0,0,1-3.54,1c-.29.87-1.12,1.81-2.76,3.65.36-1.24.65-2.26.94-3.24l-1.13.31c-1.74,1.68-4.45.53-6,1.56a14.9,14.9,0,0,0-6.25,2c-2,1.15-4.26,0-5.31,1.52-1.56.1-2.41,1.16-5.26,1.54-1.19.66-3.48,1-5.21,1.54L138.94,507c-4.75,1.2-7.08,2.28-10.11,3.13-3.21,1.49-5.7,2-9.84,3.12a68.36,68.36,0,0,1-12.67,4.16c-2,.62-3.76,1.39-5.6,2.1-.09.2-.2.42-.31.69-.17-.14-.35-.26-.51-.38a28.14,28.14,0,0,1-5.72,1.58c-4.87.47-8,2.73-11.58,3.8q-2.82.92-5.57,1.75t-5.44,1.6a53.15,53.15,0,0,1-10.41,2.86c-4,.51-7,2.61-9.7,2.54-1.78,1.17-3.53,1-6.81,1.55-2.49-.64-4.8,1.08-6.67.22-1.23-.84-4.63.43-6.34-.53-1.31-.16-3.74.11-5.63.05-4.29-.37-5.94.74-8.91,2-2.23,1.72-3.81,2.2-6.22,3.52a26.93,26.93,0,0,0-4.79,4.07c-.87.51-.94,2.25-1.44,2.51a7.16,7.16,0,0,0-.26,6.4q.2-.81.39-1.65c4.73,1.25,5.25,2.11,4.25,6.33l-2.12-.66a9,9,0,0,0,3.2,2c.09.54,2.28.89,6.17,1.13a32.36,32.36,0,0,0,3.69,0c.2-.36.41-.72.62-1.08l1.09.5-.18.47c.57-.06,1.15-.12,1.75-.22a39,39,0,0,0,8.89-2.46,8.61,8.61,0,0,1,4.9-2.78,37.74,37.74,0,0,0,5.23-3.63c2.16-1,5-2.14,5.88-3.14,2.77-.62,4.41-1.55,6.68-2.06,3.72.17,5.9-2,9.67-2.65,3-.41,6.83-1.83,10.44-2.73s7.34-1.79,11.21-2.61S94,536.64,98.09,536c4.15-1.46,8.37-2,12.52-2.63a55.65,55.65,0,0,0,13-2.73c3.14.45,6.53-1.17,10.09-2.21,4.17-.86,6.83-1.54,10.31-2.35s7-1.63,10.51-2.49c1.77-.43,3.73-.88,5.61-1.33,2.38,0,4-1.3,5.07-1.31a32.37,32.37,0,0,1,6.38-1.85c2.22.12,4.44-2,6.06-1.2,2.57.4,4.51-.85,6.23-1.23,1.82-.84,4.56,0,6.42-1.87a14.67,14.67,0,0,1,3.49-1.33,8.29,8.29,0,0,0,.17-.84c.38.24.74.4,1,.55.52-.1,1-.18,1.54-.24,1.89-.58,4.2-.69,6.58-1.27s4.35-1,6.46-1.53,4.21-1.05,6.49-1.64l6.51-1.6,6.53-1.6c2.29-.47,4.48-1.23,6.78-1.9,3-2.87,6.29-5.38,11-5.7,0,0,0,0,0-.05h0l.25-.24a28.2,28.2,0,0,1,1.72-5.55c1.34-2.5,2.85-1.33,4.12,0l-5.84,5.55-.06.24a1.85,1.85,0,0,0-.23,0q-2.17,2.24-4.46,4.34c4.61-1.15,7.56-2.31,12.93-3.17,2-.66,4.26-1.31,6.5-1.88s4.14-.59,6.64-1.35c2.27-.46,4-1.46,6.56-1.62,1.92-.37,4.4-1.93,6.54-1.61,1.45,1.09,3.7-.78,4.9-1.21,1.51,0,3.41-2.42,4.89-1.2,2.71-.67,2.6-1.1,4.66-1.42s3.23-.65,5.08-1a4,4,0,0,0,1.71-.62v-.4h.86a4.79,4.79,0,0,1,2.07-.43c1.83,0,4.17-.16,5-.92,1.73.05,2.5-.28,4.86-1.42.84-.19,1.66-.36,2.44-.51a10.38,10.38,0,0,1-.23-1.66l3.44-.39s0,0,0-.06,0-.17.08-.26l-.81-2.82a2.7,2.7,0,0,1,1.11.78c.51.7-.06,1.4-.3,2.05l.09.29-.17,0a11.82,11.82,0,0,1-.16,1.3,18.49,18.49,0,0,1,5.57-1.23c1.85-.72,3.89-1.85,6.29-1.56,1.79-.07,3.87-1,6.06-1.3a19.56,19.56,0,0,0,6.38-1.77,64.86,64.86,0,0,0,8.56-2.11c1-.21,2.31-.58,3.77-1s3-1.5,4.67-1.13c.95-.64,2.76-.73,3.84-.95a9,9,0,0,0,1.11-.28l0-.48,1.09.12a16.68,16.68,0,0,1,2.21-.49,24.69,24.69,0,0,0,4.29-1.51c.91-.34,2.87.1,3.85-.56,1.32-.59,3-1.69,3.52-1.15,1.59-.59,2.91-.42,4.31-.72a11.25,11.25,0,0,0,4.33-.81c1.42-.44,1.92-.22,3.6-1.41a13,13,0,0,0,2.76-.47c0-.37,0-.75,0-1.14.34.29.64.58.93.88,1.06-.34,2.13-.75,3.24-1.17a28.5,28.5,0,0,1,8.07-2.12c3.24-2.26,9.18-2,14.13-3.95,2.69-.65,5.15-.34,8.34-2.28,3.62-.63,5.56-.42,8-2.28,2.78-1.17,5.4-1.31,7.71-2.09s4.51-1.61,7-2.38c2.09-.77,4.3-1.31,6.49-1.91,2.37-.62,4.2-.95,6.33-2.32a19.7,19.7,0,0,1,6.16-1.73A4.63,4.63,0,0,0,478.47,439.11ZM496.11,415c.38.1,1,.09,1.09.32a1.44,1.44,0,0,1-.05,1.23c-.13.22-.69.17-1.46.31C495.88,416,496,415.48,496.11,415ZM15.62,549.62a3,3,0,0,1-.74-.32l-.72-.42c.13-.2.26-.49.4-.72s.26-.42.37-.41c.48,0,.93.47,1.57.85C16.09,549.09,15.78,549.66,15.62,549.62Zm7.61-12s-.21-.1-.32-.16a5.58,5.58,0,0,1,.39-.56s.21.1.35.18A5.56,5.56,0,0,1,23.23,537.64Zm7,13.93v0l-.35.25.35-.26ZM32.86,553a4.42,4.42,0,0,1-1.41,0c0-.5.08-1,.15-1.84a5.57,5.57,0,0,1,1.47.85C33.21,552.22,33,553,32.86,553Zm.28-3.88-.22-.15.25-.12Zm12.13-3.71c-.18-.6-.35-1.19-.53-1.78l1-.2c0,.61.1,1.22.16,1.83ZM59.17,539l.15,0S59.16,539,59.17,539Zm2.46,2.66-.07-.25.25.06Zm9.54-2c.12-.22.23-.45.33-.66h0Zm.34-.66h0l.09.06Zm4.15-2c-.2-.24-.37-.52-.55-.78l.49-.33a6.87,6.87,0,0,1,.48.83A1.62,1.62,0,0,1,75.66,536.9Zm8.54-5.11c-.13,0-.32,0-.38-.12s.05-.26.08-.39l.4.11Zm8.24,1.65c-.09,0-.12-.24-.17-.37l.41-.14.16.39C92.7,533.37,92.54,533.48,92.44,533.44Zm2.44-4.74v0h0l-.1-.1.11.09c.21-.35.43-.7.65-1C95.3,528,95.08,528.34,94.88,528.7Zm49.36-3.85-.25-.21.31-.1Zm56.4-34.26.05-.59c.11.17.24.28.23.37S200.74,490.52,200.64,490.59Zm1,9.46a5,5,0,0,1-.31-.76h0l.46-.15c.1.25.19.51.29.77A2,2,0,0,1,201.68,500.05Zm34.1-5.31.08-.38.34.45Zm.56-12.6c-.3-.16-.79-.27-.85-.49s.15-.71.25-1.07h0c.3.15.8.26.85.47S236.44,481.77,236.34,482.14Zm5.9,7.95-1-.19c.11-.26.21-.52.31-.77h0c.27,0,.67,0,.77.14S242.26,489.81,242.24,490.09Zm1.68.83c.13-1,.25-2.06.42-3.42C245.83,489.12,245.83,489.12,243.92,490.92ZM245.7,493l-.37-.61.33-.23a5.11,5.11,0,0,1,.34.6S245.8,492.92,245.7,493Zm9.59-12.72h0a0,0,0,0,0,0,0v-.06h0l.1-.2-.09.21.25.12ZM266,495.39a1.94,1.94,0,0,1-.13-.45,7.5,7.5,0,0,1,.83-.32h0c0,.08.06.19.09.28a.43.43,0,0,1,0,.17A8.36,8.36,0,0,1,266,495.39Zm4.36-4.86a.85.85,0,0,1,0-.75,4.15,4.15,0,0,1,1.08-.14c0,.38,0,.76.08,1.4A4.38,4.38,0,0,1,270.33,490.53Zm7.15-12.14-.21-.05h0l0-.08.11.05,1.12-.41c-.37.14-.74.28-1.09.43Zm3.92,4c-.13,0-.31-.08-.46-.13l.4-.65.32.39C281.58,482.18,281.52,482.39,281.4,482.43Zm.4-13.34-1.65-1.2.83-.75,1.33,1.36Zm2-2.13h0l-.5-.53Zm-.05.11.05-.09h0Zm1.67,19.49a15.15,15.15,0,0,1-1-1.38l.61-.42,1,1.47C285.83,486.35,285.45,486.6,285.42,486.56Zm5.88-3.63-.91,0c0-.76.07-1.52.11-2.28l.87,0C291.35,481.41,291.32,482.17,291.3,482.93Zm31.45-13.2a5.32,5.32,0,0,1-.45-.61c.14-.08.33-.21.34-.2a5.42,5.42,0,0,1,.42.64C323,469.62,322.76,469.75,322.75,469.73Zm7.92,3.81c-.25-.1-.61-.15-.73-.34s.07-.5.12-.76c.24.11.59.16.71.35S330.71,473.29,330.67,473.54Zm6.64-15.74L338,457l3.12,2.69C339.06,460,337.91,459.2,337.31,457.8Zm5.61,11.66s-.12.12-.12.12l.19-.37S342.93,469.44,342.92,469.46Zm1.47-16.29.23-.2.06.3Zm3.13-5.11c-.1,0-.26-.08-.39-.13h0c.09-.19.19-.39.29-.58h0l.72.31A3.83,3.83,0,0,1,347.52,448.06Zm6.12,5.56c-.07-.05,0-.23-.06-.36h0l.39,0,0,.38C353.89,453.62,353.72,453.68,353.64,453.62Zm3.89,2.76v0h0v0h0l0,.17v-.17l-.74.21A5.37,5.37,0,0,0,357.53,456.38Zm1.51,14.2c0,.24-.05.51-.09.83s-.1.68-.16,1.1l-2.16-3.71h-.08v0h0l0-.1.06.11c1.32.2,2,.31,2.27.77a1.74,1.74,0,0,1,.15,1Zm14.09-30.05c-.1,0-.23-.13-.35-.21h0l.12-.19c0-.06.08-.11.13-.12s.23.13.35.21C373.3,440.33,373.23,440.52,373.13,440.53Zm15.65-3.17-.51.27c-.06-.14-.13-.27-.2-.41Zm-3.22,11.2,0,0h0l.05,0Zm.39.22h0l-.1,0,0-.06-.32-.23c-.27-.19,0,0,.33.2l.14-.23Zm.6-5-3.46-2.66c2.87-.77,3.62.42,4.22,1.84Zm2.53,17.37-1.29-1.59.62-.5,1.28,1.6Zm1.18-5.62a4.18,4.18,0,0,1-.51-.84l1,0h0c0,.29,0,.58,0,.86C390.61,455.6,390.34,455.66,390.26,455.56Zm5.62.62-.3-.16h0l-1.82-.06.27-.81,1.56.87h.32l.75.08Zm23.42-9.95-1.38-1.05-.44.1c0-.14,0-.28,0-.42l-2.25-1.7c3-.36,4.15.5,5,1.92C419.91,445.46,419.61,445.85,419.3,446.23Zm4-2.89.38.14c0,.12.09.29,0,.36s-.24.06-.36.09l-.06-.59Zm.78,6.3a8.59,8.59,0,0,1-1.07-.49,5.57,5.57,0,0,1,.29-.7l.8.36h0C424.13,449.09,424.12,449.36,424.11,449.64Zm4.1-3.64-.26-.06h0l-.06-.08.11-.2c.15-1,.31-2,.47-2.94l.91.28c-.44.86-.89,1.72-1.34,2.58,0,.11,0,.21,0,.32Zm5,1.68c0,.06-.47-.18-.84-.34l.42-1.17,1,.42A7.2,7.2,0,0,1,433.24,447.68Zm-.29-3.12c.21-.1.35-.24.45-.21s.13.22.2.34Zm1.71-4c-.32.2-1,0-1.44-.27a1.33,1.33,0,0,1,.15-1.12,6.64,6.64,0,0,1,2-.52C435,439.65,435,440.36,434.66,440.57Zm4.16-9c-2-1.56-1.81-2.58-1-3.66L439,428C438.94,429,438.9,430,438.82,431.54Zm4.74,7.21c-2.3-.64-2.17-1.87-1.27-3.68C444.21,435.89,444.55,437,443.56,438.75Zm1.49-11.59-1.48-.79c.17-.29.32-.8.52-.82a1.31,1.31,0,0,1,1,.41C445.27,426.15,445.1,426.61,445.05,427.16Zm22.09-1.33a4.38,4.38,0,0,1,.84.66c.06.07-.28.62-.33.6a5.5,5.5,0,0,1-1-.47Zm-1-6.18c.11,0,.2.14.3.22l-.5.27c0-.11-.08-.23-.13-.35C465.94,419.74,466.06,419.64,466.16,419.65Zm.11,20.53-.15-.31.35,0Zm1-5.36c-.43,0-.94-.41-1.3-.78-.08-.08.27-.81.57-1a7.51,7.51,0,0,1,1.66-.54l.06,1.25C467.9,434.15,467.59,434.8,467.24,434.82Zm2.58-16.14.26-.21.06.34Z"/></g></g></svg>