<?xml version="1.0" encoding="utf-8"?>
<!-- Generator: Adobe Illustrator 18.1.0, SVG Export Plug-In . SVG Version: 6.00 Build 0)  -->
<svg version="1.1" id="Layer_1" xmlns="http://www.w3.org/2000/svg" xmlns:xlink="http://www.w3.org/1999/xlink" x="0px" y="0px"
	 viewBox="0 0 200 200" enable-background="new 0 0 200 200" xml:space="preserve">
<path fill-rule="evenodd" clip-rule="evenodd" fill="#FFFFFF" d="M78.1,58.6c4.9-9.9,9.9-19.7,14.8-29.6H78.1V58.6z M182.6,104
	l-14.8,29.6h14.8V104z M128.5,100.3h-15.2l-16.6,33.3h15.2L128.5,100.3z M146.3,100.3H131l-16.6,33.3h15.2L146.3,100.3z M146.3,64.7
	H131L114.4,98h15.2L146.3,64.7z M164.1,64.7h-15.2L132.2,98h15.2L164.1,64.7z M150,62.4h15.2l16.6-33.3h-15.2L150,62.4z M132.2,62.4
	h15.2l16.6-33.3h-15.2L132.2,62.4z M93.6,98.9V68.4c-5.2,10.3-10.3,20.7-15.5,31v30.5L93.6,98.9z M93.6,133.6V104l-14.8,29.6H93.6z
	 M111.4,63.3V32.8l-15.5,31v30.5L111.4,63.3z M111.4,98.9V68.4c-5.2,10.3-10.3,20.7-15.5,31v30.5L111.4,98.9z M113.7,29.1v29.6
	l14.8-29.6H113.7z M147,133.6c0-9.9,0-19.7,0-29.6l-14.8,29.6H147z M164.8,98.9c0-10.2,0-20.3,0-30.5l-15.5,31c0,10.2,0,20.3,0,30.5
	C154.4,119.5,159.6,109.2,164.8,98.9z M167.1,63.8c0,10.2,0,20.3,0,30.5c5.2-10.3,10.3-20.7,15.5-31V32.8L167.1,63.8z M129.2,63.3
	V32.8l-15.5,31v30.5L129.2,63.3z M131.5,29.1v29.6l14.8-29.6H131.5z M164.1,133.6l-7-14.1l-7,14.1H164.1z M176.1,81.3l6.5,12.9V68.4
	L176.1,81.3z M182.4,99.1l-7.6-15.2c-5.5,11-11,22-16.5,33l7.6,15.2L182.4,99.1z M87.1,45.7l7.6,15.2c5.3-10.6,10.6-21.3,15.9-31.9
	H95.4L87.1,45.7z M93.4,63.5l-7.6-15.2l-7.7,15.5c0,10.2,0,20.3,0,30.5C83.2,84,88.3,73.8,93.4,63.5z M76.9,26.8
	c35.6,0,71.2,0,106.8,0c0.6,0,1.2,0.5,1.2,1.2v106.8c0,0.6-0.5,1.2-1.2,1.2H76.9c-0.6,0-1.2-0.5-1.2-1.2c0-35.6,0-71.2,0-106.8
	C75.8,27.3,76.3,26.8,76.9,26.8z M188.6,23H72c0,23.2,0,46.5,0,69.7v46.9h116.6V23z M70.8,20.7h118.9c0.6,0,1.2,0.5,1.2,1.2v118.9
	c0,0.6-0.5,1.2-1.2,1.2H70.8c-0.4,0-0.8,0-1.2,0c-33.5,0-60.6-27.1-60.6-60.6c0-33.5,27.1-60.6,60.6-60.6
	C70.1,20.7,70.5,20.7,70.8,20.7z M61.4,56.4c1.9-0.6,3.9-1.1,6-1.2l-6,12V56.4z M56,58.9c1.2-0.8,2.6-1.4,3.9-2V70l-9.7,19.4v-19
	L56,58.9z M50.3,63.6c1-1.1,2.1-2.1,3.3-3l-3.3,6.6V63.6z M43.4,80.8c0.1-5.8,2.1-11.2,5.4-15.5V70L43.4,80.8z M47.4,95.2
	c-2.1-3.4-3.5-7.2-3.9-11.4l5.3-10.6v19L47.4,95.2z M54.7,102.9c-2.5-1.7-4.6-3.9-6.4-6.3l1.7-3.4h9.5L54.7,102.9z M69.7,98.3v9.3
	c-1.5,0-3-0.1-4.5-0.4L69.7,98.3z M69.7,93.2v1.9l-5.9,11.9c-2.8-0.7-5.5-1.8-7.9-3.3l5.2-10.5H69.7z M69.7,89.1
	c-4.3,0-7.8-3.4-7.8-7.8c0-4.3,3.5-7.8,7.8-7.8 M69.7,91.7h-7.9l1.4-2.7c1.8,1.5,4.1,2.4,6.5,2.4 M69.7,71.3
	c-5.6,0-10.1,4.5-10.1,10.1c0,2.4,0.9,4.8,2.5,6.6l-1.9,3.8h-9.5l10.4-20.8h8.6 M69.7,55c0,4.8,0,9.6,0,14.5h-7.9L69,55
	C69.3,55,69.5,55,69.7,55z M186.2,167.4c0,2-0.3,4-2.6,4c-2.3,0-2.6-2-2.6-4c0-2,0.3-4,2.6-4C185.9,163.4,186.2,165.4,186.2,167.4z
	 M188.8,173.9v-12.7h-2.5v1.4c-1-1.2-2-1.5-3.3-1.5c-1.3,0-2.4,0.4-3.1,1.1c-1.2,1.2-1.4,3-1.4,5.2c0,2.2,0.2,3.9,1.4,5.2
	c0.7,0.7,1.8,1.1,3,1.1c1.3,0,2.4-0.4,3.3-1.5v1.6c0,1.7-0.8,3.2-3,3.2c-1.3,0-2-0.4-2.8-1.1l-1.6,1.6c1.3,1.2,2.6,1.7,4.5,1.7
	C186.7,179.3,188.8,177,188.8,173.9z M175.1,174v-8.1c0-1.4-0.3-2.6-1.3-3.6c-0.8-0.7-1.8-1.2-3.1-1.2c-1.3,0-2.5,0.5-3.4,1.4v-1.3
	h-2.5V174h2.6v-7.8c0-2,1.2-2.8,2.6-2.8c1.4,0,2.6,0.9,2.6,2.8v7.8H175.1z M160.8,158.8V156h-2.7v2.7H160.8z M160.7,174v-12.7h-2.6
	V174H160.7z M154.2,174v-8.1c0-1.4-0.3-2.6-1.3-3.6c-0.8-0.7-1.8-1.2-3.1-1.2c-1.3,0-2.5,0.5-3.3,1.4v-6.4h-2.6V174h2.6v-7.8
	c0-2,1.2-2.8,2.6-2.8s2.6,0.9,2.6,2.8v7.8H154.2z M140.7,170.1c0-2.2-1.4-3.4-4-3.6l-1.8-0.2c-1.3-0.1-1.8-0.6-1.8-1.5
	c0-1,0.8-1.6,2.3-1.6c1.2,0,2.3,0.3,3.1,0.9l1.6-1.6c-1.2-1-2.8-1.4-4.7-1.4c-2.7,0-4.8,1.4-4.8,3.9c0,2.2,1.4,3.3,3.8,3.5l2,0.2
	c1.2,0.1,1.7,0.6,1.7,1.5c0,1.2-1.2,1.8-2.8,1.8c-1.3,0-2.6-0.3-3.7-1.3l-1.7,1.7c1.5,1.5,3.3,1.8,5.4,1.8
	C138.5,174.2,140.7,172.8,140.7,170.1z M127.3,158.8V156h-2.7v2.7H127.3z M127.3,174v-12.7h-2.6V174H127.3z M121.9,174v-2.2h-1.1
	c-1,0-1.4-0.5-1.4-1.5v-14.2h-2.6v14.4c0,1.9,1.1,3.5,3.5,3.5H121.9z M110.8,167.6c0,2.3-0.3,4.2-2.6,4.2c-2.3,0-2.7-2-2.7-4.2
	c0-2.3,0.3-4.2,2.7-4.2C110.5,163.4,110.8,165.4,110.8,167.6z M113.4,167.6c0-2.1-0.2-4.1-1.4-5.4c-0.7-0.7-1.8-1.1-3.1-1.1
	c-1.4,0-2.4,0.3-3.3,1.4v-6.4H103V174h2.5v-1.4c1,1.2,2,1.5,3.4,1.5c1.3,0,2.4-0.4,3.1-1.1C113.2,171.8,113.4,169.7,113.4,167.6z
	 M98.9,174v-12.7h-2.6v7.8c0,2-1.2,2.8-2.6,2.8c-1.4,0-2.6-0.9-2.6-2.8v-7.8h-2.6v8.1c0,1.4,0.3,2.6,1.3,3.6
	c0.8,0.7,1.8,1.2,3.1,1.2c1.3,0,2.5-0.5,3.4-1.4v1.3H98.9z M82.7,167.6c0,2.3-0.3,4.2-2.6,4.2c-2.3,0-2.7-2-2.7-4.2
	c0-2.3,0.3-4.2,2.7-4.2C82.3,163.4,82.7,165.4,82.7,167.6z M85.2,167.6c0-2.1-0.2-4.1-1.4-5.4c-0.7-0.7-1.8-1.1-3.1-1.1
	c-1.4,0-2.4,0.4-3.4,1.5v-1.4h-2.5v17.9h2.6v-6.5c0.9,1.1,2,1.5,3.3,1.5c1.3,0,2.4-0.4,3.1-1.1C85,171.8,85.2,169.7,85.2,167.6z
	 M57.5,153.4h2c0.3,0,0.5,0.2,0.7,0.6c0,0.1,0,0.1,0,0.2v6c0,0,0.6-1.2,1.6-3.5c0.8-1.8,1.3-2.8,1.4-2.9c0.2-0.2,0.4-0.4,0.6-0.4
	h2.3c0.3,0,0.5,0.1,0.7,0.4c0.1,0.1,0.1,0.2,0.1,0.3v0.1c0,0.1-0.1,0.5-0.5,1.1l-3.8,8.2c2.9,6.3,4.4,9.4,4.4,9.5c0,0,0,0.1,0,0.2
	c0,0.4-0.2,0.6-0.6,0.8c-0.1,0-0.2,0-0.3,0h-2c-0.4,0-0.7-0.2-0.8-0.5c-0.4-0.9-1.4-3.1-3.1-6.7h0v6.1c0,0.1,0,0.2,0,0.3
	c0,0.2-0.1,0.4-0.4,0.6c-0.1,0.1-0.3,0.1-0.5,0.1h-1.6c-0.4,0-0.7-0.1-0.8-0.3c-0.1-0.1-0.2-0.3-0.2-0.5v-18.8c0-0.1,0-0.2,0-0.3
	c0-0.2,0.1-0.4,0.4-0.6C57.3,153.4,57.4,153.4,57.5,153.4z M27.9,153.4h2c0.3,0,0.5,0.2,0.7,0.5c2.5,8.5,3.9,13.1,4,13.6h0l4-13.5
	c0.1-0.2,0.2-0.3,0.4-0.4c0.1-0.1,0.2-0.1,0.3-0.1h2c0.3,0,0.6,0.2,0.7,0.6c0,0.1,0,0.1,0,0.2V173c0,0.1,0,0.2,0,0.3
	c0,0.2-0.1,0.4-0.4,0.6c-0.1,0.1-0.3,0.1-0.5,0.1h-1.6c-0.4,0-0.7-0.1-0.8-0.3c-0.1-0.1-0.2-0.3-0.2-0.5v-7.6h0
	c-1.5,5-2.3,7.7-2.4,7.9c-0.2,0.3-0.4,0.4-0.8,0.4h-1.6c-0.5,0-0.7-0.2-0.9-0.6c-0.1-0.2-0.8-2.8-2.3-7.7h0v7.3c0,0.1,0,0.2,0,0.3
	c0,0.2-0.1,0.4-0.4,0.6c-0.1,0.1-0.3,0.1-0.5,0.1h-1.6c-0.4,0-0.7-0.1-0.8-0.3c-0.1-0.1-0.2-0.3-0.2-0.5v-18.8c0-0.1,0-0.2,0-0.3
	c0-0.2,0.1-0.4,0.4-0.6C27.7,153.4,27.8,153.4,27.9,153.4z M45.6,153.5h7.6c0.4,0,0.7,0.2,0.8,0.6c0,0.1,0,0.2,0,0.3v1.9
	c0,0.1-0.1,0.6-0.5,1.3c0,0-1.6,4.4-4.8,13h4.3c0.4,0,0.7,0.2,0.9,0.5c0,0.1,0.1,0.3,0.1,0.4v1.8c0,0.4-0.2,0.7-0.6,0.8
	c-0.1,0-0.1,0-0.1,0c-0.1,0-0.2,0-0.3,0h-7.4c-0.3,0-0.5-0.2-0.7-0.5c0-0.1,0-0.2,0-0.2v-2c0-0.1,0.1-0.4,0.3-0.9
	c3.2-8.7,4.9-13.2,4.9-13.4h-4.4c-0.4,0-0.6-0.2-0.8-0.6c0-0.1,0-0.1,0-0.1v-2c0-0.3,0.2-0.6,0.5-0.7
	C45.5,153.5,45.6,153.5,45.6,153.5z"/>
</svg>
