<svg xmlns="http://www.w3.org/2000/svg" xmlns:xlink="http://www.w3.org/1999/xlink" viewBox="0 0 230 230" preserveAspectRatio="none">
  <defs>
    <path id="a" d="M0 0h230v230H0z"/>
  </defs>
  <clipPath id="b">
    <use xlink:href="#a" overflow="visible"/>
  </clipPath>
  <path clip-path="url(#b)" fill="#c2c2c2" d="M0 0v230h9c.9-8.8 8.3-15.8 17.4-15.8 9.1 0 16.5 6.9 17.4 15.8h9.5c.9-8.8 8.3-15.8 17.4-15.8 9.1 0 16.5 6.9 17.4 15.8h9.5c.9-8.8 8.3-15.8 17.4-15.8s16.5 6.9 17.4 15.8h9.5c.9-8.8 8.3-15.8 17.4-15.8 9.1 0 16.5 6.9 17.4 15.8h9.5c.9-8.8 8.3-15.8 17.4-15.8 9.1 0 16.5 6.9 17.4 15.8h9V0H0z"/>
</svg>