
<svg width="58px" height="64px" viewBox="0 0 58 64" version="1.1" xmlns="http://www.w3.org/2000/svg" xmlns:xlink="http://www.w3.org/1999/xlink">
    <!-- Generator: Sketch 47.1 (45422) - http://www.bohemiancoding.com/sketch -->
    <desc>Created with Sketch.</desc>
    <defs>
        <polygon id="path-1" points="5.5811 8 0.9841 8 0.9841 0.0323 5.5811 0.0323 5.5811 8"></polygon>
        <polygon id="path-3" points="57.541 0.0001 57.541 51.4989395 0.0002 51.4989395 0.0002 0.0001"></polygon>
    </defs>
    <g id="Page-1" stroke="none" stroke-width="1" fill="none" fill-rule="evenodd">
        <g>
            <path d="M22.5253,61.6416 C22.5253,61.2916 22.4043,60.9926 22.1633,60.7436 C21.9183,60.4946 21.6263,60.3706 21.2873,60.3706 L20.1403,60.3706 L20.1403,62.9566 L21.2873,62.9566 C21.6263,62.9566 21.9183,62.8316 22.1633,62.5826 C22.4043,62.3336 22.5253,62.0346 22.5253,61.6846 L22.5253,61.6416 Z M22.3313,58.2286 C22.3313,57.9336 22.2283,57.6806 22.0223,57.4716 C21.8203,57.2626 21.5773,57.1576 21.2923,57.1576 L20.1403,57.1576 L20.1403,59.3266 L21.2923,59.3266 C21.5773,59.3266 21.8223,59.2226 22.0273,59.0126 C22.2293,58.8036 22.3313,58.5536 22.3313,58.2616 L22.3313,58.2286 Z M22.6663,59.8186 C23.2463,60.2836 23.5373,60.8916 23.5373,61.6416 L23.5373,61.6846 C23.5373,62.3196 23.3193,62.8626 22.8823,63.3126 C22.4463,63.7676 21.9183,63.9966 21.2973,63.9996 L19.6373,63.9996 C19.4963,63.9996 19.3763,63.9496 19.2743,63.8486 C19.1773,63.7476 19.1293,63.6246 19.1293,63.4806 L19.1293,56.6386 C19.1293,56.4946 19.1773,56.3716 19.2743,56.2706 C19.3763,56.1696 19.4963,56.1196 19.6373,56.1196 L21.2923,56.1196 C21.8583,56.1196 22.3413,56.3246 22.7423,56.7356 C23.1423,57.1466 23.3423,57.6446 23.3423,58.2286 L23.3423,58.2616 C23.3423,58.8816 23.1173,59.4006 22.6663,59.8186 L22.6663,59.8186 Z" id="Fill-1" fill="#404041"></path>
            <path d="M27.994,62.9886 C28.134,62.9886 28.254,63.0376 28.351,63.1346 C28.452,63.2356 28.502,63.3546 28.502,63.4916 C28.502,63.6326 28.452,63.7526 28.351,63.8536 C28.254,63.9516 28.134,63.9996 27.994,63.9996 L25.073,63.9996 C24.932,63.9996 24.812,63.9516 24.711,63.8536 C24.613,63.7526 24.565,63.6326 24.565,63.4916 L24.565,56.6326 C24.565,56.4926 24.613,56.3736 24.711,56.2756 C24.812,56.1756 24.932,56.1246 25.073,56.1246 C25.21,56.1246 25.329,56.1756 25.43,56.2756 C25.527,56.3736 25.576,56.4926 25.576,56.6326 L25.576,62.9886 L27.994,62.9886 Z" id="Fill-3" fill="#404041"></path>
            <g id="Group-7" transform="translate(28.000000, 56.000000)">
                <mask id="mask-2" fill="white">
                    <use xlink:href="#path-1"></use>
                </mask>
                <g id="Clip-6"></g>
                <path d="M2.3741,1.4173 C2.1211,1.6703 1.9951,1.9723 1.9951,2.3263 L1.9951,5.7013 C1.9951,6.0543 2.1211,6.3573 2.3741,6.6103 C2.6231,6.8623 2.9261,6.9883 3.2821,6.9883 C3.6361,6.9883 3.9391,6.8623 4.1911,6.6103 C4.4441,6.3573 4.5701,6.0543 4.5701,5.7013 L4.5701,2.3263 C4.5701,1.9723 4.4441,1.6703 4.1911,1.4173 C3.9391,1.1683 3.6361,1.0443 3.2821,1.0443 C2.9261,1.0443 2.6231,1.1683 2.3741,1.4173 M1.6601,7.3243 C1.2091,6.8763 0.9841,6.3363 0.9841,5.7013 L0.9841,2.3263 C0.9841,1.6953 1.2091,1.1543 1.6601,0.7033 C2.1071,0.2563 2.6481,0.0323 3.2821,0.0323 C3.9171,0.0323 4.4581,0.2563 4.9051,0.7033 C5.3561,1.1543 5.5811,1.6953 5.5811,2.3263 L5.5811,5.7013 C5.5811,6.3363 5.3561,6.8763 4.9051,7.3243 C4.4581,7.7743 3.9171,8.0003 3.2821,8.0003 C2.6481,8.0003 2.1071,7.7743 1.6601,7.3243" id="Fill-5" fill="#404041" mask="url(#mask-2)"></path>
            </g>
            <path d="M36.54,59.224 C37.103,59.228 37.582,59.429 37.979,59.83 C38.376,60.227 38.574,60.706 38.574,61.269 L38.574,61.95 C38.574,62.516 38.374,62.999 37.973,63.4 C37.573,63.8 37.092,64 36.529,64 L36.497,64 C35.931,64 35.447,63.8 35.047,63.4 C34.647,62.999 34.447,62.516 34.447,61.95 L34.447,58.077 C34.447,57.515 34.647,57.033 35.047,56.633 C35.447,56.233 35.931,56.033 36.497,56.033 L36.529,56.033 C36.973,56.033 37.373,56.162 37.73,56.422 C38.084,56.678 38.329,57.012 38.466,57.423 C38.52,57.581 38.496,57.731 38.395,57.872 C38.291,58.009 38.153,58.077 37.984,58.077 C37.742,58.077 37.584,57.967 37.508,57.747 C37.44,57.538 37.315,57.369 37.135,57.239 C36.955,57.109 36.753,57.044 36.529,57.044 L36.497,57.044 C36.208,57.044 35.963,57.145 35.761,57.347 C35.559,57.549 35.458,57.792 35.458,58.077 L35.458,61.95 C35.458,62.239 35.559,62.484 35.761,62.686 C35.963,62.888 36.208,62.989 36.497,62.989 L36.529,62.989 C36.814,62.989 37.057,62.888 37.26,62.686 C37.461,62.484 37.562,62.239 37.562,61.95 L37.562,61.269 C37.562,60.984 37.461,60.74 37.26,60.538 C37.057,60.336 36.814,60.235 36.529,60.235 C36.392,60.232 36.275,60.18 36.178,60.079 C36.084,59.981 36.037,59.864 36.037,59.727 C36.037,59.59 36.084,59.473 36.178,59.375 C36.275,59.278 36.392,59.228 36.529,59.224 L36.54,59.224 Z" id="Fill-8" fill="#404041"></path>
            <g id="Group-12">
                <mask id="mask-4" fill="white">
                    <use xlink:href="#path-3"></use>
                </mask>
                <g id="Clip-11"></g>
                <path d="M46.1932,51.4981 C46.0112,51.4981 45.8312,51.4171 45.7102,51.2641 C45.4992,50.9971 45.5452,50.6101 45.8122,50.3991 C52.4842,45.1341 56.3102,37.2491 56.3102,28.7641 C56.3102,13.5821 43.9532,1.2311 28.7642,1.2311 C13.5822,1.2311 1.2312,13.5821 1.2312,28.7641 C1.2312,37.2491 5.0562,45.1341 11.7292,50.3991 C11.9962,50.6101 12.0412,50.9971 11.8312,51.2641 C11.6212,51.5321 11.2332,51.5771 10.9672,51.3661 C3.9982,45.8661 0.0002,37.6271 0.0002,28.7641 C0.0002,12.9041 12.9032,0.0001 28.7642,0.0001 C44.6322,0.0001 57.5412,12.9041 57.5412,28.7641 C57.5412,37.6271 53.5432,45.8661 46.5742,51.3661 C46.4612,51.4551 46.3262,51.4981 46.1932,51.4981" id="Fill-10" fill="#404041" mask="url(#mask-4)"></path>
            </g>
            <path d="M39.9586,43.1522 C39.7986,43.1522 39.6506,43.0902 39.5286,42.9802 C39.4166,42.8692 39.3436,42.7082 39.3436,42.5372 C39.3436,42.3762 39.4166,42.2292 39.5286,42.1062 C39.7616,41.8722 40.1676,41.8842 40.4026,42.1062 C40.5126,42.2292 40.5856,42.3762 40.5856,42.5372 C40.5856,42.7082 40.5126,42.8692 40.3886,42.9802 C40.2786,43.0902 40.1306,43.1522 39.9586,43.1522" id="Fill-13" fill="#404041"></path>
            <path d="M32.7888,43.1588 L23.9588,43.1588 C22.9698,43.1588 22.1648,42.3538 22.1648,41.3628 L22.1648,35.6568 C22.1648,34.6658 22.9698,33.8608 23.9588,33.8608 L25.2168,33.8608 L25.2168,32.2748 C25.2168,31.9348 25.4918,31.6598 25.8318,31.6598 C26.1718,31.6598 26.4468,31.9348 26.4468,32.2748 L26.4468,34.4768 C26.4468,34.8168 26.1718,35.0918 25.8318,35.0918 L23.9588,35.0918 C23.6478,35.0918 23.3958,35.3458 23.3958,35.6568 L23.3958,41.3628 C23.3958,41.6748 23.6478,41.9278 23.9588,41.9278 L32.7888,41.9278 C33.0998,41.9278 33.3538,41.6748 33.3538,41.3628 L33.3538,35.6568 C33.3538,35.3458 33.0998,35.0918 32.7888,35.0918 L31.0158,35.0918 C30.6758,35.0918 30.3178,34.8168 30.3178,34.4768 L30.3178,32.2748 C30.3178,31.9348 30.5928,31.6598 30.9328,31.6598 C31.2728,31.6598 31.5488,31.9348 31.5488,32.2748 L31.5488,33.8608 L32.7888,33.8608 C33.7788,33.8608 34.5848,34.6658 34.5848,35.6568 L34.5848,41.3628 C34.5848,42.3538 33.7788,43.1588 32.7888,43.1588" id="Fill-15" fill="#404041"></path>
            <path d="M32.3452,32.8194 L24.4202,32.8194 C24.0802,32.8194 23.8052,32.5444 23.8052,32.2044 C23.8052,31.8634 24.0802,31.5884 24.4202,31.5884 L32.3452,31.5884 C32.6852,31.5884 32.9602,31.8634 32.9602,32.2044 C32.9602,32.5444 32.6852,32.8194 32.3452,32.8194" id="Fill-17" fill="#404041"></path>
            <path d="M28.3739,30.7508 C28.0459,30.7508 27.7729,30.4918 27.7589,30.1608 C27.7439,29.7958 27.4419,21.1508 32.5409,15.5768 C32.7709,15.3258 33.1589,15.3098 33.4109,15.5378 C33.6619,15.7678 33.6799,16.1568 33.4499,16.4078 C28.6989,21.6018 28.9859,30.0258 28.9889,30.1098 C29.0029,30.4498 28.7389,30.7358 28.3989,30.7498 C28.3909,30.7498 28.3819,30.7508 28.3739,30.7508" id="Fill-19" fill="#404041"></path>
            <path d="M28.5891,27.1599 C28.3051,27.1599 28.0521,26.9639 27.9881,26.6769 C27.9151,26.3449 28.1251,26.0159 28.4571,25.9439 C34.4521,24.6259 35.8211,15.1609 36.0881,12.4989 C34.4281,12.6869 30.1561,13.6279 28.0311,18.3339 C27.1321,20.3239 27.0081,22.2659 27.6621,24.1069 C27.7761,24.4269 27.6091,24.7789 27.2901,24.8929 C26.9681,25.0049 26.6171,24.8399 26.5041,24.5189 C25.9771,23.0399 25.6201,20.6789 26.9091,17.8269 C29.8591,11.2959 36.4811,11.2209 36.7611,11.2209 C36.9301,11.2209 37.0921,11.2899 37.2071,11.4129 C37.3241,11.5349 37.3851,11.6999 37.3751,11.8679 C37.3471,12.4209 36.5801,25.4179 28.7211,27.1459 C28.6771,27.1549 28.6321,27.1599 28.5891,27.1599" id="Fill-21" fill="#404041"></path>
            <path d="M35.0509,20.2774 L32.8349,20.2774 C32.4939,20.2774 32.2189,20.0024 32.2189,19.6624 C32.2189,19.3214 32.4939,19.0464 32.8349,19.0464 L35.0509,19.0464 C35.3909,19.0464 35.6659,19.3214 35.6659,19.6624 C35.6659,20.0024 35.3909,20.2774 35.0509,20.2774" id="Fill-23" fill="#404041"></path>
            <path d="M33.9427,22.6537 L31.7967,22.6537 C31.4567,22.6537 31.1817,22.3787 31.1817,22.0387 C31.1817,21.6977 31.4567,21.4227 31.7967,21.4227 L33.9427,21.4227 C34.2827,21.4227 34.5577,21.6977 34.5577,22.0387 C34.5577,22.3787 34.2827,22.6537 33.9427,22.6537" id="Fill-25" fill="#404041"></path>
            <path d="M37.4007,43.1588 L17.5547,43.1588 C17.2147,43.1588 16.9397,42.8838 16.9397,42.5438 C16.9397,42.2028 17.2147,41.9278 17.5547,41.9278 L37.4007,41.9278 C37.7407,41.9278 38.0157,42.2028 38.0157,42.5438 C38.0157,42.8838 37.7407,43.1588 37.4007,43.1588" id="Fill-27" fill="#404041"></path>
        </g>
    </g>
</svg>
