<svg width="24" height="24" viewBox="0 0 24 24" fill="none" xmlns="http://www.w3.org/2000/svg">
<g clip-path="url(#clip0)">
<path d="M-7.1543 -0.63739V24.1794H30.6618V-0.63739H-7.1543Z" fill="#006EB7"/>
<path d="M-7.1543 -0.63739L30.6618 24.1794L-7.1543 -0.63739ZM30.6618 -0.63739L-7.1543 24.1794Z" fill="black"/>
<path fill-rule="evenodd" clip-rule="evenodd" d="M7.52582 11.771L-7.99988 1.58225L-6.30869 -2.85712L11.7538 8.99638L29.8163 -2.85712L31.5075 1.58225L15.9818 11.771L31.5075 21.9597L29.8163 26.3991L11.7538 14.5456L-6.30869 26.3991L-7.99988 21.9597L7.52582 11.771Z" fill="white"/>
<path d="M-7.1543 -0.63739L30.6618 24.1794L-7.1543 -0.63739ZM30.6618 -0.63739L-7.1543 24.1794Z" fill="black"/>
<path fill-rule="evenodd" clip-rule="evenodd" d="M8.93513 11.771L-7.71802 0.842333L-6.59056 -2.11725L11.7538 9.92122L30.0981 -2.11725L31.2256 0.842333L14.5724 11.771L31.2256 22.6996L30.0981 25.6592L11.7538 13.6207L-6.59056 25.6592L-7.71802 22.6996L8.93513 11.771Z" fill="#F06060"/>
<path d="M11.7538 -0.63739V24.1794V-0.63739ZM-7.1543 11.771H30.6618Z" fill="black"/>
<path fill-rule="evenodd" clip-rule="evenodd" d="M14.9051 15.9072V24.1794H8.60243V15.9072H-7.1543V7.63489H8.60243V-0.63739H14.9051V7.63489H30.6618V15.9072H14.9051Z" fill="white"/>
<path d="M11.7538 -0.63739V24.1794V-0.63739ZM-7.1543 11.771H30.6618Z" fill="black"/>
<path fill-rule="evenodd" clip-rule="evenodd" d="M13.6446 14.2527V24.1794H9.86296V14.2527H-7.1543V9.28934H9.86296V-0.63739H13.6446V9.28934H30.6618V14.2527H13.6446Z" fill="#F06060"/>
</g>
<defs>
<clipPath id="clip0">
<rect width="24" height="24" rx="12" fill="white"/>
</clipPath>
</defs>
</svg>
