<?xml version="1.0" encoding="UTF-8"?>
<svg width="58px" height="64px" viewBox="0 0 58 64" version="1.1" xmlns="http://www.w3.org/2000/svg" xmlns:xlink="http://www.w3.org/1999/xlink">
    <!-- Generator: Sketch 44.1 (41455) - http://www.bohemiancoding.com/sketch -->
    <title>kids</title>
    <desc>Created with Sketch.</desc>
    <defs>
        <polygon id="path-1" points="4.55964505 8 0.3006 8 0.3006 0.0281442163 4.55964505 0.0281442163 4.55964505 8"></polygon>
        <polygon id="path-3" points="4.58528067 8 0.3265 8 0.3265 0.0281442163 4.58528067 0.0281442163 4.58528067 8"></polygon>
        <polygon id="path-5" points="4.28615802 8 0.0253 8 0.0253 0.0281442163 4.28615802 0.0281442163 4.28615802 8"></polygon>
        <polygon id="path-7" points="57.556 0.9821 57.556 52.4931 0.0004 52.4931 0.0004 0.9821"></polygon>
    </defs>
    <g id="Page-1" stroke="none" stroke-width="1" fill="none" fill-rule="evenodd">
        <g id="Artboard" transform="translate(-3.000000, 0.000000)">
            <g id="kids" transform="translate(3.000000, -1.000000)">
                <path d="M3.3388,60.2408 L3.3278,60.2408 C3.1908,60.2428 3.0728,60.2938 2.9768,60.3918 C2.8828,60.4888 2.8348,60.6058 2.8348,60.7438 C2.8348,60.8808 2.8828,60.9978 2.9768,61.0948 C3.0728,61.1958 3.1908,61.2488 3.3278,61.2518 C3.6128,61.2518 3.8568,61.3528 4.0588,61.5548 C4.2608,61.7568 4.3618,62.0008 4.3618,62.2848 L4.3618,62.9678 C4.3618,63.2558 4.2608,63.5018 4.0588,63.7038 C3.8568,63.9058 3.6128,64.0068 3.3278,64.0068 L3.2958,64.0068 C3.0068,64.0068 2.7618,63.9058 2.5598,63.7038 C2.3578,63.5018 2.2568,63.2558 2.2568,62.9678 L2.2568,59.0938 C2.2568,58.8078 2.3578,58.5648 2.5598,58.3628 C2.7618,58.1608 3.0068,58.0598 3.2958,58.0598 L3.3278,58.0598 C3.5518,58.0598 3.7538,58.1248 3.9338,58.2548 C4.1138,58.3848 4.2398,58.5538 4.3068,58.7628 C4.3838,58.9828 4.5428,59.0938 4.7828,59.0938 C4.9538,59.0938 5.0908,59.0238 5.1938,58.8868 C5.2948,58.7478 5.3188,58.5968 5.2648,58.4388 C5.1278,58.0278 4.8828,57.6948 4.5288,57.4368 C4.1718,57.1778 3.7718,57.0478 3.3278,57.0478 L3.2958,57.0478 C2.7288,57.0478 2.2458,57.2478 1.8458,57.6488 C1.4448,58.0488 1.2458,58.5308 1.2458,59.0938 L1.2458,62.9678 C1.2458,63.5328 1.4448,64.0158 1.8458,64.4178 C2.2458,64.8168 2.7288,65.0178 3.2958,65.0178 L3.3278,65.0178 C3.8908,65.0178 4.3718,64.8168 4.7728,64.4178 C5.1728,64.0158 5.3728,63.5328 5.3728,62.9678 L5.3728,62.2848 C5.3728,61.7218 5.1748,61.2438 4.7778,60.8468 C4.3808,60.4448 3.9018,60.2428 3.3388,60.2408" id="Fill-1" fill="#404041"></path>
                <path d="M10.4528,57.1028 C10.3298,57.0378 10.2028,57.0258 10.0688,57.0688 C9.9358,57.1128 9.8368,57.1968 9.7728,57.3188 L8.4188,59.9038 L7.0718,57.3188 C7.0068,57.1968 6.9088,57.1128 6.7738,57.0688 C6.6418,57.0258 6.5128,57.0378 6.3898,57.1028 C6.2638,57.1678 6.1808,57.2668 6.1418,57.3998 C6.0978,57.5328 6.1088,57.6608 6.1738,57.7828 L7.9158,61.1218 L7.9158,64.5088 C7.9158,64.6498 7.9638,64.7708 8.0628,64.8718 C8.1638,64.9678 8.2818,65.0178 8.4188,65.0178 C8.5608,65.0178 8.6808,64.9678 8.7818,64.8718 C8.8788,64.7708 8.9278,64.6498 8.9278,64.5088 L8.9278,61.1218 L10.6688,57.7828 C10.7338,57.6608 10.7458,57.5328 10.7028,57.3998 C10.6618,57.2668 10.5798,57.1678 10.4528,57.1028" id="Fill-3" fill="#404041"></path>
                <path d="M14.8087,58.2498 C14.9497,58.2498 15.0687,58.1998 15.1657,58.0988 C15.2667,57.9998 15.3177,57.8818 15.3177,57.7398 C15.3177,57.6028 15.2667,57.4848 15.1657,57.3838 C15.0687,57.2858 14.9497,57.2378 14.8087,57.2378 L12.1407,57.2378 C12.0017,57.2378 11.8797,57.2858 11.7787,57.3838 C11.6817,57.4848 11.6337,57.6028 11.6337,57.7398 L11.6337,64.5088 C11.6337,64.6498 11.6817,64.7708 11.7787,64.8718 C11.8797,64.9678 12.0017,65.0178 12.1407,65.0178 L14.8087,65.0178 C14.9497,65.0178 15.0687,64.9678 15.1657,64.8718 C15.2667,64.7708 15.3177,64.6498 15.3177,64.5088 C15.3177,64.3718 15.2667,64.2528 15.1657,64.1518 C15.0687,64.0548 14.9497,64.0068 14.8087,64.0068 L12.6447,64.0068 L12.6447,61.3598 L14.4837,61.3598 C14.6247,61.3598 14.7447,61.3098 14.8457,61.2088 C14.9447,61.1108 14.9927,60.9918 14.9927,60.8518 C14.9927,60.7108 14.9447,60.5918 14.8457,60.4948 C14.7447,60.3968 14.6247,60.3488 14.4837,60.3488 L12.6447,60.3488 L12.6447,58.2498 L14.8087,58.2498 Z" id="Fill-5" fill="#404041"></path>
                <path d="M19.5482,59.2116 C19.5482,59.5006 19.4462,59.7456 19.2392,59.9476 C19.0372,60.1496 18.7942,60.2506 18.5092,60.2506 L17.3562,60.2506 L17.3562,58.1466 L18.5092,58.1466 C18.7942,58.1466 19.0372,58.2476 19.2392,58.4496 C19.4462,58.6516 19.5482,58.8946 19.5482,59.1806 L19.5482,59.2116 Z M18.5092,57.1336 L16.8542,57.1336 C16.7132,57.1336 16.5922,57.1836 16.4912,57.2806 C16.3942,57.3786 16.3452,57.4976 16.3452,57.6376 L16.3452,64.5086 C16.3452,64.6496 16.3942,64.7706 16.4912,64.8716 C16.5922,64.9686 16.7132,65.0176 16.8542,65.0176 C16.9912,65.0176 17.1102,64.9686 17.2112,64.8716 C17.3082,64.7706 17.3562,64.6496 17.3562,64.5086 L17.3562,61.2626 L18.5092,61.2626 C18.7942,61.2626 19.0372,61.3636 19.2392,61.5656 C19.4462,61.7676 19.5482,62.0106 19.5482,62.2966 L19.5482,64.5086 C19.5482,64.6496 19.5972,64.7706 19.6932,64.8716 C19.7922,64.9686 19.9102,65.0176 20.0522,65.0176 C20.1912,65.0176 20.3112,64.9686 20.4082,64.8716 C20.5092,64.7706 20.5592,64.6496 20.5592,64.5086 L20.5592,62.2966 C20.5592,61.6786 20.3232,61.1656 19.8512,60.7546 C20.3232,60.3466 20.5592,59.8316 20.5592,59.2116 L20.5592,59.1806 C20.5592,58.6176 20.3602,58.1356 19.9592,57.7356 C19.5592,57.3346 19.0752,57.1336 18.5092,57.1336 L18.5092,57.1336 Z" id="Fill-7" fill="#404041"></path>
                <path d="M24.7637,58.2498 C24.9047,58.2498 25.0237,58.1998 25.1207,58.0988 C25.2217,57.9998 25.2727,57.8818 25.2727,57.7398 C25.2727,57.6028 25.2217,57.4848 25.1207,57.3838 C25.0237,57.2858 24.9047,57.2378 24.7637,57.2378 L22.0957,57.2378 C21.9567,57.2378 21.8347,57.2858 21.7337,57.3838 C21.6367,57.4848 21.5887,57.6028 21.5887,57.7398 L21.5887,64.5088 C21.5887,64.6498 21.6367,64.7708 21.7337,64.8718 C21.8347,64.9678 21.9567,65.0178 22.0957,65.0178 L24.7637,65.0178 C24.9047,65.0178 25.0237,64.9678 25.1207,64.8718 C25.2217,64.7708 25.2727,64.6498 25.2727,64.5088 C25.2727,64.3718 25.2217,64.2528 25.1207,64.1518 C25.0237,64.0548 24.9047,64.0068 24.7637,64.0068 L22.5997,64.0068 L22.5997,61.3598 L24.4387,61.3598 C24.5797,61.3598 24.6997,61.3098 24.8007,61.2088 C24.8997,61.1108 24.9477,60.9918 24.9477,60.8518 C24.9477,60.7108 24.8997,60.5918 24.8007,60.4948 C24.6997,60.3968 24.5797,60.3488 24.4387,60.3488 L22.5997,60.3488 L22.5997,58.2498 L24.7637,58.2498 Z" id="Fill-9" fill="#404041"></path>
                <g id="Group-13" transform="translate(26.000000, 57.018300)">
                    <mask id="mask-2" fill="white">
                        <use xlink:href="#path-1"></use>
                    </mask>
                    <g id="Clip-12"></g>
                    <path d="M4.5576,0.4897 C4.5476,0.3527 4.4906,0.2387 4.3846,0.1497 C4.2806,0.0577 4.1586,0.0197 4.0166,0.0297 C3.8796,0.0417 3.7666,0.0987 3.6766,0.2027 L1.3116,3.0277 L1.3116,0.5327 C1.3116,0.3927 1.2636,0.2737 1.1656,0.1757 C1.0646,0.0787 0.9456,0.0297 0.8086,0.0297 C0.6686,0.0297 0.5466,0.0787 0.4456,0.1757 C0.3496,0.2737 0.3006,0.3927 0.3006,0.5327 L0.3006,7.4907 C0.3006,7.6317 0.3496,7.7507 0.4456,7.8477 C0.5466,7.9487 0.6686,7.9997 0.8086,7.9997 C0.9456,7.9997 1.0646,7.9487 1.1656,7.8477 C1.2636,7.7507 1.3116,7.6317 1.3116,7.4907 L1.3116,4.6167 L3.6546,7.7937 C3.7376,7.9057 3.8486,7.9717 3.9856,7.9937 C4.1226,8.0147 4.2466,7.9847 4.3576,7.9017 C4.4666,7.8187 4.5316,7.7097 4.5526,7.5727 C4.5746,7.4357 4.5436,7.3107 4.4616,7.1987 L1.9606,3.8067 L4.4396,0.8517 C4.5286,0.7477 4.5696,0.6267 4.5576,0.4897" id="Fill-11" fill="#404041" mask="url(#mask-2)"></path>
                </g>
                <path d="M34.7897,58.2498 C34.9287,58.2498 35.0497,58.1998 35.1457,58.0988 C35.2467,57.9998 35.2967,57.8818 35.2967,57.7398 C35.2967,57.6028 35.2467,57.4848 35.1457,57.3838 C35.0497,57.2858 34.9287,57.2378 34.7897,57.2378 L32.1217,57.2378 C31.9807,57.2378 31.8607,57.2858 31.7597,57.3838 C31.6617,57.4848 31.6137,57.6028 31.6137,57.7398 L31.6137,64.5088 C31.6137,64.6498 31.6617,64.7708 31.7597,64.8718 C31.8607,64.9678 31.9807,65.0178 32.1217,65.0178 L34.7897,65.0178 C34.9287,65.0178 35.0497,64.9678 35.1457,64.8718 C35.2467,64.7708 35.2967,64.6498 35.2967,64.5088 C35.2967,64.3718 35.2467,64.2528 35.1457,64.1518 C35.0497,64.0548 34.9287,64.0068 34.7897,64.0068 L32.6257,64.0068 L32.6257,61.3598 L34.4647,61.3598 C34.6047,61.3598 34.7257,61.3098 34.8267,61.2088 C34.9247,61.1108 34.9727,60.9918 34.9727,60.8518 C34.9727,60.7108 34.9247,60.5918 34.8267,60.4948 C34.7257,60.3968 34.6047,60.3488 34.4647,60.3488 L32.6257,60.3488 L32.6257,58.2498 L34.7897,58.2498 Z" id="Fill-14" fill="#404041"></path>
                <g id="Group-18" transform="translate(36.000000, 57.018300)">
                    <mask id="mask-4" fill="white">
                        <use xlink:href="#path-3"></use>
                    </mask>
                    <g id="Clip-17"></g>
                    <path d="M4.5835,0.4897 C4.5725,0.3527 4.5145,0.2387 4.4105,0.1497 C4.3055,0.0577 4.1835,0.0197 4.0425,0.0297 C3.9055,0.0417 3.7915,0.0987 3.7025,0.2027 L1.3375,3.0277 L1.3375,0.5327 C1.3375,0.3927 1.2875,0.2737 1.1915,0.1757 C1.0905,0.0787 0.9705,0.0297 0.8335,0.0297 C0.6945,0.0297 0.5725,0.0787 0.4715,0.1757 C0.3745,0.2737 0.3265,0.3927 0.3265,0.5327 L0.3265,7.4907 C0.3265,7.6317 0.3745,7.7507 0.4715,7.8477 C0.5725,7.9487 0.6945,7.9997 0.8335,7.9997 C0.9705,7.9997 1.0905,7.9487 1.1915,7.8477 C1.2875,7.7507 1.3375,7.6317 1.3375,7.4907 L1.3375,4.6167 L3.6805,7.7937 C3.7625,7.9057 3.8725,7.9717 4.0095,7.9937 C4.1475,8.0147 4.2725,7.9847 4.3825,7.9017 C4.4905,7.8187 4.5555,7.7097 4.5775,7.5727 C4.5995,7.4357 4.5695,7.3107 4.4865,7.1987 L1.9865,3.8067 L4.4645,0.8517 C4.5545,0.7477 4.5945,0.6267 4.5835,0.4897" id="Fill-16" fill="#404041" mask="url(#mask-4)"></path>
                </g>
                <path d="M45.6152,57.0427 C45.4742,57.0427 45.3552,57.0927 45.2582,57.1937 C45.1612,57.2917 45.1122,57.4107 45.1122,57.5517 L45.1122,62.3617 L42.5962,57.3197 C42.5922,57.3197 42.5902,57.3147 42.5902,57.3067 C42.5882,57.3047 42.5832,57.3027 42.5802,57.3027 C42.5682,57.2767 42.5562,57.2567 42.5422,57.2427 L42.5422,57.2377 C42.4372,57.1077 42.3062,57.0427 42.1482,57.0427 C42.0062,57.0427 41.8852,57.0927 41.7842,57.1937 C41.6872,57.2917 41.6382,57.4107 41.6382,57.5517 L41.6382,64.5087 C41.6382,64.6497 41.6872,64.7687 41.7842,64.8657 C41.8852,64.9667 42.0062,65.0177 42.1482,65.0177 C42.2852,65.0177 42.4022,64.9667 42.5032,64.8657 C42.6022,64.7687 42.6502,64.6497 42.6502,64.5087 L42.6502,59.6997 L45.1652,64.7427 C45.2302,64.8647 45.3302,64.9467 45.4642,64.9897 C45.5932,65.0327 45.7212,65.0237 45.8482,64.9587 C45.9932,64.8867 46.0802,64.7687 46.1132,64.6067 L46.1132,64.5957 C46.1162,64.5777 46.1182,64.5567 46.1182,64.5357 C46.1222,64.5067 46.1242,64.4917 46.1242,64.4917 L46.1242,57.5517 C46.1242,57.4107 46.0732,57.2917 45.9722,57.1937 C45.8752,57.0927 45.7562,57.0427 45.6152,57.0427" id="Fill-19" fill="#404041"></path>
                <path d="M50.4893,58.2498 C50.6313,58.2498 50.7493,58.1998 50.8473,58.0988 C50.9483,57.9998 50.9993,57.8818 50.9993,57.7398 C50.9993,57.6028 50.9483,57.4848 50.8473,57.3838 C50.7493,57.2858 50.6313,57.2378 50.4893,57.2378 L47.8223,57.2378 C47.6823,57.2378 47.5603,57.2858 47.4593,57.3838 C47.3633,57.4848 47.3143,57.6028 47.3143,57.7398 L47.3143,64.5088 C47.3143,64.6498 47.3633,64.7708 47.4593,64.8718 C47.5603,64.9678 47.6823,65.0178 47.8223,65.0178 L50.4893,65.0178 C50.6313,65.0178 50.7493,64.9678 50.8473,64.8718 C50.9483,64.7708 50.9993,64.6498 50.9993,64.5088 C50.9993,64.3718 50.9483,64.2528 50.8473,64.1518 C50.7493,64.0548 50.6313,64.0068 50.4893,64.0068 L48.3253,64.0068 L48.3253,61.3598 L50.1643,61.3598 C50.3063,61.3598 50.4263,61.3098 50.5273,61.2088 C50.6253,61.1108 50.6743,60.9918 50.6743,60.8518 C50.6743,60.7108 50.6253,60.5918 50.5273,60.4948 C50.4263,60.3968 50.3063,60.3488 50.1643,60.3488 L48.3253,60.3488 L48.3253,58.2498 L50.4893,58.2498 Z" id="Fill-21" fill="#404041"></path>
                <g id="Group-25" transform="translate(52.000000, 57.018300)">
                    <mask id="mask-6" fill="white">
                        <use xlink:href="#path-5"></use>
                    </mask>
                    <g id="Clip-24"></g>
                    <path d="M4.2843,0.4897 C4.2733,0.3527 4.2153,0.2387 4.1113,0.1497 C4.0063,0.0577 3.8843,0.0197 3.7433,0.0297 C3.6063,0.0417 3.4933,0.0987 3.4023,0.2027 L1.0383,3.0277 L1.0383,0.5327 C1.0383,0.3927 0.9903,0.2737 0.8913,0.1757 C0.7903,0.0787 0.6723,0.0297 0.5353,0.0297 C0.3933,0.0297 0.2733,0.0787 0.1723,0.1757 C0.0753,0.2737 0.0253,0.3927 0.0253,0.5327 L0.0253,7.4907 C0.0253,7.6317 0.0753,7.7507 0.1723,7.8477 C0.2733,7.9487 0.3933,7.9997 0.5353,7.9997 C0.6723,7.9997 0.7903,7.9487 0.8913,7.8477 C0.9903,7.7507 1.0383,7.6317 1.0383,7.4907 L1.0383,4.6167 L3.3803,7.7937 C3.4643,7.9057 3.5733,7.9717 3.7113,7.9937 C3.8483,8.0147 3.9713,7.9847 4.0843,7.9017 C4.1933,7.8187 4.2583,7.7097 4.2793,7.5727 C4.3013,7.4357 4.2703,7.3107 4.1873,7.1987 L1.6873,3.8067 L4.1653,0.8517 C4.2553,0.7477 4.2953,0.6267 4.2843,0.4897" id="Fill-23" fill="#404041" mask="url(#mask-6)"></path>
                </g>
                <g id="Group-28" transform="translate(0.000000, 0.018300)">
                    <mask id="mask-8" fill="white">
                        <use xlink:href="#path-7"></use>
                    </mask>
                    <g id="Clip-27"></g>
                    <path d="M57.5564,29.7551 C57.5564,13.8891 44.6454,0.9821 28.7734,0.9821 C12.9084,0.9821 0.0004,13.8891 0.0004,29.7551 C0.0004,38.6211 3.9984,46.8601 10.9714,52.3611 C11.2394,52.5711 11.6254,52.5251 11.8354,52.2581 C12.0454,51.9911 12.0004,51.6041 11.7334,51.3941 C5.0594,46.1291 1.2314,38.2421 1.2314,29.7551 C1.2314,14.5681 13.5864,2.2131 28.7734,2.2131 C43.9654,2.2131 56.3254,14.5681 56.3254,29.7551 C56.3254,38.2421 52.4984,46.1291 45.8254,51.3941 C45.5584,51.6041 45.5134,51.9911 45.7234,52.2581 C45.8444,52.4121 46.0254,52.4931 46.2064,52.4931 C46.3404,52.4931 46.4744,52.4501 46.5874,52.3611 C53.5584,46.8601 57.5564,38.6211 57.5564,29.7551" id="Fill-26" fill="#404041" mask="url(#mask-8)"></path>
                </g>
                <path d="M28.4187,33.4765 C35.0287,33.4765 37.5907,39.0505 38.2077,40.7085 C35.0507,41.6585 31.7587,42.1645 28.4237,42.1645 C25.0867,42.1645 21.7927,41.6575 18.6357,40.7065 C19.2607,39.0715 21.8777,33.4765 28.4187,33.4765 M26.6237,28.0565 C23.9177,28.0565 21.7057,26.0065 21.3957,23.3825 L31.8487,23.3825 C31.5397,26.0065 29.3287,28.0565 26.6237,28.0565 M10.4417,38.4495 C15.8587,41.6845 22.0767,43.3955 28.4237,43.3955 C33.0397,43.3955 37.5857,42.4795 41.8087,40.7395 C41.8117,40.7385 41.8147,40.7395 41.8187,40.7385 C41.8307,40.7355 41.8397,40.7265 41.8517,40.7225 C43.4167,40.0755 44.9397,39.3245 46.4017,38.4515 C46.6937,38.2775 46.7897,37.8985 46.6157,37.6075 C46.4397,37.3135 46.0597,37.2195 45.7717,37.3935 C44.5927,38.0975 43.3697,38.7155 42.1197,39.2675 C41.2337,35.3745 40.7697,31.3725 40.7697,27.3495 C40.7697,26.7655 40.7787,26.1835 40.7987,25.6055 C40.8107,25.2645 40.5437,24.9795 40.2047,24.9675 C39.9017,24.9975 39.5807,25.2225 39.5677,25.5615 C39.5467,26.1545 39.5387,26.7505 39.5387,27.3495 C39.5387,31.5355 40.0267,35.7015 40.9627,39.7475 C40.4377,39.9565 39.9117,40.1615 39.3777,40.3435 C38.7007,38.5605 35.7857,32.2455 28.4187,32.2455 C21.0557,32.2455 18.1387,38.5525 17.4597,40.3405 C16.8887,40.1455 16.3267,39.9265 15.7667,39.7015 C16.9307,35.2215 17.5317,30.5855 17.5317,25.9115 C17.5317,25.0715 17.4977,24.2245 17.4597,23.3825 L20.1647,23.3825 C20.4807,26.6855 23.2387,29.2875 26.6237,29.2875 C30.1697,29.2875 33.0497,26.4385 33.1277,22.9095 C34.2237,18.3575 38.1277,14.9845 42.7467,14.5025 L42.7467,15.6725 C42.7467,15.7185 42.7627,15.7585 42.7727,15.8015 C42.7547,15.9785 42.8057,16.1605 42.9417,16.2955 C45.0307,18.3875 46.1827,21.1675 46.1827,24.1255 C46.1827,24.7395 46.1197,25.3475 46.0217,25.9425 L44.7087,25.9425 C43.0637,25.1305 41.6297,23.9165 40.5647,22.4125 C40.3667,22.1355 39.9807,22.0725 39.7057,22.2665 C39.4277,22.4635 39.3637,22.8465 39.5587,23.1245 C40.7707,24.8345 42.4067,26.2135 44.2887,27.1165 C44.2947,27.1195 44.3017,27.1175 44.3077,27.1205 C44.3537,27.1405 44.4057,27.1455 44.4577,27.1545 C44.4897,27.1595 44.5217,27.1765 44.5547,27.1765 C44.5577,27.1765 44.5607,27.1745 44.5637,27.1745 L46.5617,27.1745 C46.9017,27.1745 47.1767,26.8985 47.1767,26.5585 C47.1767,26.5525 47.1737,26.5465 47.1737,26.5405 C47.3307,25.7545 47.4137,24.9425 47.4137,24.1255 C47.4137,20.9225 46.1907,17.9105 43.9777,15.6085 L43.9777,13.8215 C43.9777,13.8185 43.9757,13.8165 43.9757,13.8145 C43.9757,13.8105 43.9777,13.8075 43.9777,13.8045 C43.9747,13.7295 43.9557,13.6575 43.9307,13.5905 C43.9297,13.5875 43.9307,13.5845 43.9287,13.5815 C43.8567,13.3915 43.6987,13.2575 43.4847,13.2305 C43.4437,13.2215 43.4057,13.2055 43.3617,13.2055 C43.3317,13.2055 43.3067,13.2185 43.2777,13.2225 C38.0237,13.4835 33.4927,17.1215 32.0647,22.1505 L16.9167,22.1505 C16.8937,22.1505 16.8747,22.1615 16.8527,22.1635 C16.8317,22.1635 16.8147,22.1555 16.7927,22.1565 C16.4537,22.1765 16.1937,22.4675 16.2127,22.8065 C16.2707,23.8355 16.3007,24.8805 16.3007,25.9115 C16.3007,30.4205 15.7237,34.8895 14.6157,39.2155 C13.4047,38.6745 12.2177,38.0745 11.0747,37.3915 C10.7807,37.2185 10.4037,37.3115 10.2287,37.6035 C10.0547,37.8965 10.1507,38.2735 10.4417,38.4495" id="Fill-29" fill="#404041"></path>
                <path d="M10.4444,40.4474 C12.4304,41.6324 14.5394,42.6244 16.7104,43.3944 C16.7794,43.4184 16.8474,43.4294 16.9164,43.4294 C17.1704,43.4294 17.4074,43.2714 17.4974,43.0194 C17.6104,42.6984 17.4414,42.3474 17.1224,42.2324 C15.0264,41.4914 12.9924,40.5344 11.0744,39.3894 C10.7844,39.2164 10.4044,39.3104 10.2304,39.6024 C10.0564,39.8944 10.1524,40.2734 10.4444,40.4474" id="Fill-31" fill="#404041"></path>
                <path d="M23.9197,45.1027 C24.2237,45.1027 24.4887,44.8767 24.5297,44.5667 C24.5727,44.2287 24.3347,43.9207 23.9977,43.8767 C23.1637,43.7677 22.3197,43.6267 21.4887,43.4547 C21.1607,43.3787 20.8297,43.5987 20.7617,43.9317 C20.6917,44.2647 20.9057,44.5907 21.2387,44.6587 C22.0997,44.8377 22.9747,44.9847 23.8387,45.0977 C23.8657,45.1017 23.8937,45.1027 23.9197,45.1027" id="Fill-33" fill="#404041"></path>
                <path d="M39.3043,42.3771 C37.2113,43.0881 35.0363,43.5931 32.8403,43.8771 C32.5043,43.9221 32.2663,44.2301 32.3093,44.5681 C32.3503,44.8781 32.6143,45.1041 32.9193,45.1041 C32.9453,45.1041 32.9733,45.1031 32.9993,45.0991 C35.2753,44.8031 37.5293,44.2801 39.7013,43.5431 C40.0223,43.4341 40.1953,43.0841 40.0853,42.7621 C39.9753,42.4401 39.6263,42.2701 39.3043,42.3771" id="Fill-35" fill="#404041"></path>
                <path d="M42.1573,42.6055 C43.6123,41.9875 45.0403,41.2615 46.4013,40.4495 C46.6933,40.2755 46.7893,39.8975 46.6153,39.6055 C46.4403,39.3115 46.0603,39.2175 45.7713,39.3915 C44.4573,40.1755 43.0793,40.8755 41.6763,41.4725 C41.3623,41.6065 41.2173,41.9675 41.3503,42.2795 C41.4503,42.5145 41.6773,42.6545 41.9173,42.6545 C41.9973,42.6545 42.0793,42.6395 42.1573,42.6055" id="Fill-37" fill="#404041"></path>
                <path d="M11.6046,26.8638 C11.6046,24.9438 13.1666,23.3818 15.0866,23.3818 C15.4266,23.3818 15.7016,23.1068 15.7016,22.7668 C15.7016,22.4258 15.4266,22.1508 15.0866,22.1508 C12.4926,22.1508 10.3816,24.2598 10.3746,26.8518 C10.3746,26.8558 10.3726,26.8598 10.3726,26.8638 L10.3726,30.9608 C10.3726,31.3018 10.6476,31.5768 10.9876,31.5768 C13.5856,31.5768 15.7006,29.4618 15.7006,26.8638 C15.7006,26.5238 15.4256,26.2478 15.0856,26.2478 C14.7446,26.2478 14.4696,26.5238 14.4696,26.8638 C14.4696,28.5738 13.2316,29.9998 11.6036,30.2918 L11.6036,26.8698 C11.6036,26.8678 11.6046,26.8658 11.6046,26.8638" id="Fill-39" fill="#404041"></path>
                <path d="M44.0374,19.679 C44.0374,19.313 43.7414,19.018 43.3764,19.018 C43.0104,19.018 42.7144,19.313 42.7144,19.679 C42.7144,20.044 43.0104,20.34 43.3764,20.34 C43.7414,20.34 44.0374,20.044 44.0374,19.679" id="Fill-41" fill="#404041"></path>
            </g>
        </g>
    </g>
</svg>