
<svg width="215px" height="215px" viewBox="0 0 215 215" version="1.1" xmlns="http://www.w3.org/2000/svg" xmlns:xlink="http://www.w3.org/1999/xlink">
    <!-- Generator: Sketch 44.1 (41455) - http://www.bohemiancoding.com/sketch -->
    <desc>Created with Sketch.</desc>
    <defs>
        <polygon id="path-1" points="0.00187991839 18.8883035 9.83584948 18.8883035 9.83584948 0.463580585 0.00187991839 0.463580585"></polygon>
        <polygon id="path-3" points="0.409669193 18.8883035 10.2413661 18.8883035 10.2413661 0.463580585 0.409669193 0.463580585"></polygon>
        <polygon id="path-5" points="0.735157389 18.8883035 10.5682084 18.8883035 10.5682084 0.463580585 0.735157389 0.463580585"></polygon>
        <polygon id="path-7" points="132.85121 0.000569020021 132.85121 119.040885 0.000852521131 119.040885 0.000852521131 0.000569020021"></polygon>
    </defs>
    <g id="Page-1" stroke="none" stroke-width="1" fill="none" fill-rule="evenodd">
        <circle id="Oval" fill="#FFFFFF" cx="107.5" cy="107.5" r="107.5"></circle>
        <g id="kidsbig" transform="translate(41.000000, 33.000000)">
            <path d="M75.0784101,50.3279136 C75.0784101,57.8645838 68.9800423,63.9758588 61.4522807,63.9758588 C53.9245191,63.9758588 47.8204678,57.8645838 47.8204678,50.3279136 L75.0784101,50.3279136 Z" id="Fill-1" fill="#68D1C9" fill-rule="nonzero"></path>
            <path d="M7.70650685,136.928493 C9.00518071,136.937028 10.1162999,137.403625 11.0313393,138.328282 C11.9463786,139.244405 12.4010565,140.353994 12.4010565,141.654204 L12.4010565,143.23039 C12.4010565,144.539136 11.9406951,145.654415 11.0171306,146.581918 C10.093566,147.506575 8.98244681,147.967482 7.68377295,147.967482 L7.60704605,147.967482 C6.30268872,147.967482 5.18588604,147.506575 4.25947974,146.581918 C3.33875692,145.654415 2.87555377,144.539136 2.87555377,143.23039 L2.87555377,134.27686 C2.87555377,132.976649 3.33875692,131.864215 4.25947974,130.939557 C5.18588604,130.0149 6.30268872,129.551149 7.60704605,129.551149 L7.68377295,129.551149 C8.70679831,129.551149 9.63320461,129.852729 10.4544666,130.453045 C11.2700452,131.044826 11.8355509,131.815848 12.1509837,132.766112 C12.2788618,133.13313 12.2248688,133.477387 11.9918464,133.801728 C11.7502987,134.120379 11.4348659,134.27686 11.0427062,134.27686 C10.4857257,134.27686 10.1191416,134.023646 9.94295395,133.514373 C9.78381667,133.030706 9.49964296,132.640927 9.08190761,132.339347 C8.66701399,132.040611 8.20096911,131.889821 7.68377295,131.889821 L7.60704605,131.889821 C6.93923783,131.889821 6.37373215,132.123119 5.90768726,132.589715 C5.44164238,133.056312 5.20861994,133.619642 5.20861994,134.27686 L5.20861994,143.23039 C5.20861994,143.896143 5.44164238,144.462318 5.90768726,144.93176 C6.37373215,145.398356 6.93923783,145.631654 7.60704605,145.631654 L7.68377295,145.631654 C8.34021422,145.631654 8.90287817,145.398356 9.36892305,144.93176 C9.83496794,144.462318 10.0679904,143.896143 10.0679904,143.23039 L10.0679904,141.654204 C10.0679904,140.996986 9.83496794,140.433656 9.36892305,139.96706 C8.90287817,139.500464 8.34021422,139.267165 7.68377295,139.267165 C7.36834013,139.25863 7.09553337,139.136291 6.87103614,138.902993 C6.65506412,138.67823 6.54707811,138.407945 6.54707811,138.092139 C6.54707811,137.773488 6.65506412,137.503203 6.87103614,137.27844 C7.09553337,137.053678 7.36834013,136.937028 7.68377295,136.928493 L7.70650685,136.928493 Z" id="Fill-3" fill="#404041" fill-rule="nonzero"></path>
            <path d="M24.1297581,129.676617 C24.422457,129.827408 24.6128534,130.055016 24.703789,130.365132 C24.8032498,130.672403 24.7805159,130.968293 24.6299038,131.252803 L20.6088458,138.965869 L20.6088458,146.79274 C20.6088458,147.117081 20.4951763,147.398746 20.2735208,147.632044 C20.0404984,147.856807 19.7591664,147.967766 19.4352084,147.967766 C19.1169338,147.967766 18.8441271,147.856807 18.6111046,147.632044 C18.3866074,147.398746 18.2729379,147.117081 18.2729379,146.79274 L18.2729379,138.965869 L14.2490382,131.252803 C14.1012679,130.968293 14.078534,130.672403 14.1779948,130.365132 C14.2660886,130.055016 14.4621685,129.827408 14.7491839,129.676617 C15.0333576,129.525827 15.3288983,129.500221 15.6386476,129.602645 C15.9455552,129.702223 16.1757359,129.892845 16.326348,130.177355 L19.4352084,136.152065 L22.5554357,130.177355 C22.7060478,129.892845 22.9362285,129.702223 23.2431361,129.602645 C23.5528855,129.500221 23.8455844,129.525827 24.1297581,129.676617" id="Fill-5" fill="#404041" fill-rule="nonzero"></path>
            <path d="M34.1812664,145.630516 C34.5080662,145.630516 34.7808729,145.74432 35.0082119,145.969083 C35.2412343,146.202381 35.3577456,146.475511 35.3577456,146.794162 C35.3577456,147.118504 35.2412343,147.397323 35.0082119,147.630622 C34.7808729,147.855385 34.5080662,147.969189 34.1812664,147.969189 L28.0260638,147.969189 C27.7021058,147.969189 27.4207738,147.855385 27.1877514,147.630622 C26.9660959,147.397323 26.8524264,147.118504 26.8524264,146.794162 L26.8524264,131.151802 C26.8524264,130.835996 26.9660959,130.560021 27.1877514,130.326723 C27.4207738,130.10196 27.7021058,129.988156 28.0260638,129.988156 L34.1812664,129.988156 C34.5080662,129.988156 34.7808729,130.10196 35.0082119,130.326723 C35.2412343,130.560021 35.3577456,130.835996 35.3577456,131.151802 C35.3577456,131.476143 35.2412343,131.752118 35.0082119,131.976881 C34.7808729,132.210179 34.5080662,132.326828 34.1812664,132.326828 L29.1854926,132.326828 L29.1854926,137.177724 L33.4310478,137.177724 C33.7606893,137.177724 34.0363378,137.291528 34.2693602,137.516291 C34.4938575,137.741054 34.607527,138.017028 34.607527,138.34137 C34.607527,138.665711 34.4938575,138.941686 34.2693602,139.166449 C34.0363378,139.399747 33.7606893,139.516396 33.4310478,139.516396 L29.1854926,139.516396 L29.1854926,145.630516 L34.1812664,145.630516 Z" id="Fill-7" fill="#404041" fill-rule="nonzero"></path>
            <path d="M40.0645147,136.953246 L42.7243806,136.953246 C43.3836637,136.953246 43.9434859,136.719947 44.4095307,136.253351 C44.8841008,135.786754 45.119965,135.22058 45.119965,134.551981 L45.119965,134.478008 C45.119965,133.817945 44.8841008,133.25746 44.4095307,132.790864 C43.9434859,132.324268 43.3836637,132.090969 42.7243806,132.090969 L40.0645147,132.090969 L40.0645147,136.953246 Z M47.4587147,134.551981 C47.4587147,135.985911 46.9131011,137.175163 45.8190324,138.116891 C46.9131011,139.067155 47.4587147,140.253562 47.4587147,141.678957 L47.4587147,146.791602 C47.4587147,147.118788 47.3422034,147.397608 47.109181,147.630906 C46.881842,147.855669 46.6090353,147.969473 46.2822355,147.969473 C45.9582775,147.969473 45.6854707,147.855669 45.4581317,147.630906 C45.2336345,147.397608 45.119965,147.118788 45.119965,146.791602 L45.119965,141.678957 C45.119965,141.021739 44.8841008,140.458409 44.4095307,139.991812 C43.9434859,139.525216 43.3836637,139.291918 42.7243806,139.291918 L40.0645147,139.291918 L40.0645147,146.791602 C40.0645147,147.118788 39.953687,147.397608 39.726348,147.630906 C39.4933256,147.855669 39.2205188,147.969473 38.905086,147.969473 C38.5782862,147.969473 38.299796,147.855669 38.0667735,147.630906 C37.8422763,147.397608 37.7286068,147.118788 37.7286068,146.791602 L37.7286068,130.913098 C37.7286068,130.588757 37.8422763,130.315627 38.0667735,130.088019 C38.299796,129.863256 38.5782862,129.752297 38.905086,129.752297 L42.7243806,129.752297 C44.0315797,129.752297 45.1483824,130.213203 46.0691052,131.140706 C46.9955115,132.065364 47.4587147,133.177798 47.4587147,134.478008 L47.4587147,134.551981 Z" id="Fill-9" fill="#404041" fill-rule="nonzero"></path>
            <path d="M57.1595526,145.630516 C57.4863524,145.630516 57.7591591,145.74432 57.9864981,145.969083 C58.2195205,146.202381 58.3360318,146.475511 58.3360318,146.794162 C58.3360318,147.118504 58.2195205,147.397323 57.9864981,147.630622 C57.7591591,147.855385 57.4863524,147.969189 57.1595526,147.969189 L51.00435,147.969189 C50.680392,147.969189 50.39906,147.855385 50.1660376,147.630622 C49.9443821,147.397323 49.8307126,147.118504 49.8307126,146.794162 L49.8307126,131.151802 C49.8307126,130.835996 49.9443821,130.560021 50.1660376,130.326723 C50.39906,130.10196 50.680392,129.988156 51.00435,129.988156 L57.1595526,129.988156 C57.4863524,129.988156 57.7591591,130.10196 57.9864981,130.326723 C58.2195205,130.560021 58.3360318,130.835996 58.3360318,131.151802 C58.3360318,131.476143 58.2195205,131.752118 57.9864981,131.976881 C57.7591591,132.210179 57.4863524,132.326828 57.1595526,132.326828 L52.1637788,132.326828 L52.1637788,137.177724 L56.409334,137.177724 C56.7389755,137.177724 57.014624,137.291528 57.2476465,137.516291 C57.4721437,137.741054 57.5858132,138.017028 57.5858132,138.34137 C57.5858132,138.665711 57.4721437,138.941686 57.2476465,139.166449 C57.014624,139.399747 56.7389755,139.516396 56.409334,139.516396 L52.1637788,139.516396 L52.1637788,145.630516 L57.1595526,145.630516 Z" id="Fill-11" fill="#404041" fill-rule="nonzero"></path>
            <g id="Group-15" transform="translate(60.703876, 129.083161)">
                <g id="Fill-13-Clipped">
                    <mask id="mask-2" fill="white">
                        <use xlink:href="#path-1"></use>
                    </mask>
                    <g id="path-1"></g>
                    <path d="M9.60695133,17.0347208 C9.79734771,17.2936249 9.87123288,17.58098 9.82008161,17.8967861 C9.77177208,18.2154373 9.62116001,18.4686512 9.37108715,18.6592729 C9.10964733,18.8527397 8.82547362,18.9238672 8.50719907,18.8726554 C8.19176625,18.8214436 7.93885165,18.6678082 7.74561352,18.4089041 L2.33778782,11.0713909 L2.33778782,17.7090095 C2.33778782,18.036196 2.22696007,18.3093256 1.9996211,18.5340885 C1.76659866,18.7673867 1.49663363,18.8840358 1.17835908,18.8840358 C0.851559312,18.8840358 0.573069076,18.7673867 0.340046634,18.5340885 C0.115549403,18.3093256 0.00187991839,18.036196 0.00187991839,17.7090095 L0.00187991839,1.63134879 C0.00187991839,1.30700738 0.115549403,1.03103267 0.340046634,0.806269758 C0.573069076,0.581506849 0.851559312,0.467702845 1.17835908,0.467702845 C1.49663363,0.467702845 1.76659866,0.581506849 1.9996211,0.806269758 C2.22696007,1.03103267 2.33778782,1.30700738 2.33778782,1.63134879 L2.33778782,7.3955216 L7.79392305,0.86886196 C8.00705334,0.627028451 8.26565141,0.493308746 8.58392597,0.467702845 C8.907884,0.442096944 9.19205771,0.535985248 9.43076363,0.743677555 C9.67231128,0.951369863 9.80587292,1.21311907 9.83144856,1.53177028 C9.85702419,1.8475764 9.7660886,2.12639621 9.55580006,2.36822972 L3.83822501,9.19646997 L9.60695133,17.0347208 Z" id="Fill-13" fill="#404041" fill-rule="nonzero" mask="url(#mask-2)"></path>
                </g>
            </g>
            <path d="M80.3012387,145.630516 C80.6251967,145.630516 80.9008452,145.74432 81.1253425,145.969083 C81.3583649,146.202381 81.4748761,146.475511 81.4748761,146.794162 C81.4748761,147.118504 81.3583649,147.397323 81.1253425,147.630622 C80.9008452,147.855385 80.6251967,147.969189 80.3012387,147.969189 L74.1431944,147.969189 C73.8220781,147.969189 73.5407461,147.855385 73.3077237,147.630622 C73.0832265,147.397323 72.9723987,147.118504 72.9723987,146.794162 L72.9723987,131.151802 C72.9723987,130.835996 73.0832265,130.560021 73.3077237,130.326723 C73.5407461,130.10196 73.8220781,129.988156 74.1431944,129.988156 L80.3012387,129.988156 C80.6251967,129.988156 80.9008452,130.10196 81.1253425,130.326723 C81.3583649,130.560021 81.4748761,130.835996 81.4748761,131.151802 C81.4748761,131.476143 81.3583649,131.752118 81.1253425,131.976881 C80.9008452,132.210179 80.6251967,132.326828 80.3012387,132.326828 L75.3054649,132.326828 L75.3054649,137.177724 L79.5510201,137.177724 C79.8778199,137.177724 80.1534684,137.291528 80.3864908,137.516291 C80.6138298,137.741054 80.7246575,138.017028 80.7246575,138.34137 C80.7246575,138.665711 80.6138298,138.941686 80.3864908,139.166449 C80.1534684,139.399747 79.8778199,139.516396 79.5510201,139.516396 L75.3054649,139.516396 L75.3054649,145.630516 L80.3012387,145.630516 Z" id="Fill-16" fill="#404041" fill-rule="nonzero"></path>
            <g id="Group-20" transform="translate(83.437773, 129.083161)">
                <g id="Fill-18-Clipped">
                    <mask id="mask-4" fill="white">
                        <use xlink:href="#path-3"></use>
                    </mask>
                    <g id="path-3"></g>
                    <path d="M10.0147406,17.0347208 C10.2022952,17.2936249 10.2761804,17.58098 10.2250291,17.8967861 C10.1767196,18.2154373 10.0261075,18.4686512 9.77603468,18.6592729 C9.51743661,18.8527397 9.2332629,18.9238672 8.91498834,18.8726554 C8.59955552,18.8214436 8.34379918,18.6678082 8.1534028,18.4089041 L2.74273535,11.0713909 L2.74273535,17.7090095 C2.74273535,18.036196 2.63190761,18.3093256 2.40741038,18.5340885 C2.17438793,18.7673867 1.90158117,18.8840358 1.58330662,18.8840358 C1.25934859,18.8840358 0.978016613,18.7673867 0.744994171,18.5340885 C0.523338677,18.3093256 0.409669193,18.036196 0.409669193,17.7090095 L0.409669193,1.63134879 C0.409669193,1.30700738 0.523338677,1.03103267 0.744994171,0.806269758 C0.978016613,0.581506849 1.25934859,0.467702845 1.58330662,0.467702845 C1.90158117,0.467702845 2.17438793,0.581506849 2.40741038,0.806269758 C2.63190761,1.03103267 2.74273535,1.30700738 2.74273535,1.63134879 L2.74273535,7.3955216 L8.20171233,0.86886196 C8.41200087,0.627028451 8.67059895,0.493308746 8.98887351,0.467702845 C9.31567327,0.442096944 9.59984698,0.535985248 9.8385529,0.743677555 C10.0801006,0.951369863 10.2136622,1.21311907 10.2363961,1.53177028 C10.2648135,1.8475764 10.1710361,2.12639621 9.96358933,2.36822972 L4.24317254,9.19646997 L10.0147406,17.0347208 Z" id="Fill-18" fill="#404041" fill-rule="nonzero" mask="url(#mask-4)"></path>
                </g>
            </g>
            <path d="M106.451472,146.855616 C106.451472,146.906828 106.445788,146.95235 106.440105,146.992181 L106.440105,147.017787 C106.363378,147.39334 106.158773,147.663625 105.82629,147.831486 C105.536433,147.982276 105.240892,148.005037 104.942509,147.905458 C104.629918,147.80588 104.402579,147.615258 104.254809,147.330748 L98.4491402,135.677218 L98.4491402,146.793024 C98.4491402,147.117366 98.3354707,147.39334 98.1081317,147.618103 C97.8751093,147.851401 97.6023025,147.968051 97.284028,147.968051 C96.96007,147.968051 96.6815797,147.851401 96.4485573,147.618103 C96.2212183,147.39334 96.1103906,147.117366 96.1103906,146.793024 L96.1103906,130.715364 C96.1103906,130.388177 96.2212183,130.115047 96.4485573,129.890285 C96.6815797,129.656986 96.96007,129.540337 97.284028,129.540337 C97.6506121,129.540337 97.9546779,129.688282 98.1990673,129.989863 L98.1990673,130.001243 C98.2303264,130.035385 98.2587438,130.080906 98.2843194,130.140653 C98.2928447,130.140653 98.3013699,130.143498 98.3098951,130.152034 C98.3098951,130.169104 98.3155785,130.17764 98.321262,130.17764 L104.129773,141.828325 L104.129773,130.715364 C104.129773,130.388177 104.243442,130.115047 104.465098,129.890285 C104.692437,129.656986 104.965243,129.540337 105.292043,129.540337 C105.613159,129.540337 105.89165,129.656986 106.113305,129.890285 C106.346328,130.115047 106.462839,130.388177 106.462839,130.715364 L106.462839,146.793024 L106.462839,146.756038 C106.462839,146.756038 106.459997,146.790179 106.451472,146.855616" id="Fill-21" fill="#404041" fill-rule="nonzero"></path>
            <path d="M116.541628,145.630516 C116.865586,145.630516 117.141234,145.74432 117.365732,145.969083 C117.598754,146.202381 117.715265,146.475511 117.715265,146.794162 C117.715265,147.118504 117.598754,147.397323 117.365732,147.630622 C117.141234,147.855385 116.865586,147.969189 116.541628,147.969189 L110.386425,147.969189 C110.059625,147.969189 109.781135,147.855385 109.548113,147.630622 C109.323616,147.397323 109.209946,147.118504 109.209946,146.794162 L109.209946,131.151802 C109.209946,130.835996 109.323616,130.560021 109.548113,130.326723 C109.781135,130.10196 110.059625,129.988156 110.386425,129.988156 L116.541628,129.988156 C116.865586,129.988156 117.141234,130.10196 117.365732,130.326723 C117.598754,130.560021 117.715265,130.835996 117.715265,131.151802 C117.715265,131.476143 117.598754,131.752118 117.365732,131.976881 C117.141234,132.210179 116.865586,132.326828 116.541628,132.326828 L111.545854,132.326828 L111.545854,137.177724 L115.791409,137.177724 C116.118209,137.177724 116.396699,137.291528 116.629722,137.516291 C116.851377,137.741054 116.965047,138.017028 116.965047,138.34137 C116.965047,138.665711 116.851377,138.941686 116.629722,139.166449 C116.396699,139.399747 116.118209,139.516396 115.791409,139.516396 L111.545854,139.516396 L111.545854,145.630516 L116.541628,145.630516 Z" id="Fill-23" fill="#404041" fill-rule="nonzero"></path>
            <g id="Group-27" transform="translate(119.352958, 129.083161)">
                <g id="Fill-25-Clipped">
                    <mask id="mask-6" fill="white">
                        <use xlink:href="#path-5"></use>
                    </mask>
                    <g id="path-5"></g>
                    <path d="M10.3373871,17.0347208 C10.5306252,17.2936249 10.6016686,17.58098 10.5505173,17.8967861 C10.5022078,18.2154373 10.3515957,18.4686512 10.1015229,18.6592729 C9.8429248,18.8527397 9.55590936,18.9238672 9.2376348,18.8726554 C8.92220198,18.8214436 8.66928738,18.6678082 8.47889099,18.4089041 L3.07106529,11.0713909 L3.07106529,17.7090095 C3.07106529,18.036196 2.9573958,18.3093256 2.73289857,18.5340885 C2.49987613,18.7673867 2.22706937,18.8840358 1.90879481,18.8840358 C1.58483678,18.8840358 1.30634655,18.7673867 1.0733241,18.5340885 C0.845985136,18.3093256 0.735157389,18.036196 0.735157389,17.7090095 L0.735157389,1.63134879 C0.735157389,1.30700738 0.845985136,1.03103267 1.0733241,0.806269758 C1.30634655,0.581506849 1.58483678,0.467702845 1.90879481,0.467702845 C2.22706937,0.467702845 2.49987613,0.581506849 2.73289857,0.806269758 C2.9573958,1.03103267 3.07106529,1.30700738 3.07106529,1.63134879 L3.07106529,7.3955216 L8.52720052,0.86886196 C8.73748907,0.627028451 8.99892888,0.493308746 9.31720344,0.467702845 C9.63831973,0.442096944 9.92249344,0.535985248 10.1640411,0.743677555 C10.402747,0.951369863 10.5363087,1.21311907 10.564726,1.53177028 C10.5874599,1.8475764 10.4993661,2.12639621 10.2862358,2.36822972 L4.57150248,9.19646997 L10.3373871,17.0347208 Z" id="Fill-25" fill="#404041" fill-rule="nonzero" mask="url(#mask-6)"></path>
                </g>
            </g>
            <g id="Group-30" transform="translate(0.000000, 0.026259)">
                <g id="Fill-28-Clipped">
                    <mask id="mask-8" fill="white">
                        <use xlink:href="#path-7"></use>
                    </mask>
                    <g id="path-7"></g>
                    <path d="M106.654088,119.039557 C106.236352,119.039557 105.818617,118.854626 105.537285,118.498988 C105.05419,117.881602 105.159334,116.985395 105.773149,116.498883 C121.175364,104.333235 130.010325,86.1075237 130.010325,66.4934036 C130.010325,31.3990938 101.482126,2.84566913 66.4150904,2.84566913 C31.3594215,2.84566913 2.84258962,31.3990938 2.84258962,66.4934036 C2.84258962,86.1046786 11.6775503,104.333235 27.0826071,116.498883 C27.6992641,116.985395 27.8044083,117.881602 27.3184713,118.498988 C26.8325342,119.116375 25.9402288,119.221644 25.3235718,118.735132 C9.23081463,106.023224 0.000852521131,86.9809694 0.000852521131,66.4934036 C0.000852521131,29.8314436 29.7936243,0.000569020021 66.4150904,0.000569020021 C103.047923,0.000569020021 132.852062,29.8314436 132.852062,66.4934036 C132.852062,86.9838145 123.624942,106.023224 107.535026,118.735132 C107.273586,118.939979 106.960995,119.039557 106.654088,119.039557" id="Fill-28" fill="#404041" fill-rule="nonzero" mask="url(#mask-8)"></path>
                </g>
            </g>
            <path d="M65.6069003,97.9998419 C50.9577456,97.9998419 36.6041314,94.0451528 24.1033299,86.5682297 C23.4298382,86.1642255 23.2081827,85.2907798 23.6117094,84.616491 C24.0152361,83.9422023 24.8819659,83.7231296 25.5611411,84.1271338 C37.6214733,91.3423077 51.4692582,95.1547418 65.6069003,95.1547418 C79.7388589,95.1547418 93.5838021,91.3423077 105.649818,84.1299789 C106.314784,83.7316649 107.192881,83.9450474 107.596408,84.6221812 C107.999934,85.2993151 107.778279,86.1699157 107.104787,86.5739199 C94.5983022,94.0479979 80.2475299,97.9998419 65.6069003,97.9998419" id="Fill-31" fill="#404041" fill-rule="nonzero"></path>
            <path d="M39.0460361,98.0777977 C38.8868989,98.0777977 38.7306033,98.0521918 38.571466,97.9952898 C33.5586418,96.2199473 28.6907461,93.9296417 24.1041825,91.1869652 C23.4335325,90.782961 23.211877,89.9095153 23.6125619,89.2352266 C24.0160886,88.5580927 24.8885019,88.3447102 25.5648353,88.7430242 C29.9865783,91.3889673 34.6839697,93.5996101 39.5206062,95.3152055 C40.2594579,95.5769547 40.6459341,96.3906533 40.3873361,97.1303793 C40.1770475,97.7136249 39.631434,98.0777977 39.0460361,98.0777977" id="Fill-33" fill="#404041" fill-rule="nonzero"></path>
            <path d="M55.2112577,101.945427 C55.1515812,101.945427 55.0862212,101.942582 55.0265447,101.934046 C53.0288036,101.675142 51.0083285,101.33373 49.0219542,100.921191 C48.2546852,100.761865 47.760223,100.007914 47.922202,99.2397366 C48.0813393,98.4658693 48.8457665,97.9793572 49.5988269,98.1358377 C51.5169994,98.5341517 53.4664311,98.8613383 55.3902871,99.1117071 C56.1689231,99.2141307 56.7173783,99.9282508 56.6179175,100.704963 C56.5241402,101.421928 55.9131667,101.945427 55.2112577,101.945427" id="Fill-35" fill="#404041" fill-rule="nonzero"></path>
            <path d="M75.9832192,101.947987 C75.2813101,101.947987 74.6703366,101.424489 74.5765593,100.707524 C74.4770985,99.9308114 75.0255538,99.2166913 75.8041897,99.1142677 C80.871007,98.4570495 85.8895147,97.2905585 90.7233095,95.6460906 C91.4593194,95.3957218 92.2692145,95.7883456 92.5249709,96.536607 C92.7778855,97.2791781 92.3800423,98.0900316 91.6383489,98.3404004 C86.6255246,100.044615 81.422304,101.253783 76.1679321,101.936607 C76.1082556,101.945142 76.0428957,101.947987 75.9832192,101.947987" id="Fill-37" fill="#404041" fill-rule="nonzero"></path>
            <path d="M96.752339,96.2885142 C96.201042,96.2885142 95.6753206,95.9641728 95.4451399,95.4236038 C95.1382323,94.6981033 95.4735573,93.8644889 96.1982002,93.5572181 C99.4349388,92.1773446 102.614843,90.5584826 105.649818,88.7489989 C106.314784,88.3478398 107.192881,88.5640674 107.596408,89.2412013 C107.999934,89.91549 107.778279,90.7889357 107.104787,91.1900948 C103.961826,93.070706 100.665411,94.74647 97.3064777,96.1747102 C97.1274483,96.2515279 96.9370519,96.2885142 96.752339,96.2885142" id="Fill-39" fill="#404041" fill-rule="nonzero"></path>
            <path d="M41.2773681,93.8602213 C41.1466482,93.8602213 41.0130866,93.8431507 40.8795249,93.8033193 C40.1264646,93.5842466 39.6916788,92.7933087 39.9133343,92.0393572 C39.970169,91.8430453 45.9008744,72.2317703 65.5969542,72.2317703 C85.2901924,72.2317703 91.218056,91.8430453 91.2777324,92.0393572 C91.4965462,92.7933087 91.0646022,93.5814015 90.3115418,93.8004742 C89.5414311,94.022392 88.7656368,93.5870917 88.5496648,92.8359852 C88.3365345,92.1104847 83.1333139,75.0768704 65.5969542,75.0768704 C48.0094433,75.0768704 42.6925532,92.6567439 42.6414019,92.8359852 C42.4595307,93.4562171 41.8940251,93.8602213 41.2773681,93.8602213" id="Fill-41" fill="#404041" fill-rule="nonzero"></path>
            <path d="M96.1916642,91.8985248 C95.5494317,91.8985248 94.9668755,91.4632244 94.81058,90.8116965 C92.4576217,81.075764 91.2640921,71.0183351 91.2640921,60.9182297 C91.2640921,59.5355111 91.2811425,58.1584826 91.3294521,56.7871444 C91.3607112,56.0018967 92.1024045,55.3475237 92.8014719,55.4158061 C93.5829496,55.4442571 94.1996065,56.1014752 94.1711892,56.8867229 C94.1228796,58.2239199 94.1058292,59.5696523 94.1058292,60.9182297 C94.1058292,70.7935722 95.2709414,80.6262381 97.5727485,90.1402529 C97.7574614,90.9055848 97.2885748,91.6737619 96.5241475,91.8586934 C96.4133197,91.8871444 96.2996502,91.8985248 96.1916642,91.8985248" id="Fill-43" fill="#404041" fill-rule="nonzero"></path>
            <path d="M34.816963,91.3929505 C34.69761,91.3929505 34.5725736,91.378725 34.4503789,91.3445838 C33.6916351,91.1425817 33.2397989,90.3630242 33.444404,89.6033825 C36.2179394,79.2187671 37.6245992,68.4500632 37.6245992,57.5960063 C37.6245992,55.2118124 37.5563976,52.7991675 37.4228359,50.4206639 C37.3773681,49.6354162 37.9769746,48.9639726 38.7612941,48.918451 C39.6308656,48.8814647 40.2162635,49.4760906 40.2588895,50.2584932 C40.3981347,52.6910537 40.4663363,55.1606006 40.4663363,57.5960063 C40.4663363,68.6975869 39.0255756,79.7138145 36.189522,90.3374183 C36.0190178,90.9747208 35.4449869,91.3929505 34.816963,91.3929505" id="Fill-45" fill="#404041" fill-rule="nonzero"></path>
            <path d="M25.3619353,70.688019 C24.5776159,70.688019 23.9410667,70.0507165 23.9410667,69.2654689 L23.9410667,59.7969758 C23.9410667,59.0117281 24.5776159,58.3744257 25.3619353,58.3744257 C26.1462547,58.3744257 26.7828038,59.0117281 26.7828038,59.7969758 L26.7828038,67.7177345 C30.5395803,67.0434457 33.3983678,63.7488198 33.3983678,59.7969758 C33.3983678,59.0117281 34.0349169,58.3744257 34.8192364,58.3744257 C35.6035558,58.3744257 36.2401049,59.0117281 36.2401049,59.7969758 C36.2401049,65.8029821 31.3580006,70.688019 25.3619353,70.688019" id="Fill-47" fill="#404041" fill-rule="nonzero"></path>
            <path d="M25.364777,61.2192413 C24.5804576,61.2192413 23.9439085,60.5819389 23.9439085,59.7966913 C23.9439085,53.7906849 28.8260128,48.9056481 34.8220781,48.9056481 C35.6063976,48.9056481 36.2429467,49.5429505 36.2429467,50.3281981 C36.2429467,51.1134457 35.6063976,51.7507482 34.8220781,51.7507482 C30.39181,51.7507482 26.7856456,55.3583351 26.7856456,59.7966913 C26.7856456,60.5819389 26.1490965,61.2192413 25.364777,61.2192413" id="Fill-49" fill="#404041" fill-rule="nonzero"></path>
            <path d="M75.0036724,51.7504636 L39.0471728,51.7504636 C38.2600117,51.7504636 37.6263043,51.1131612 37.6263043,50.3279136 C37.6263043,49.542666 38.2600117,48.9053635 39.0471728,48.9053635 L75.0036724,48.9053635 C75.7879918,48.9053635 76.424541,49.542666 76.424541,50.3279136 C76.424541,51.1131612 75.7879918,51.7504636 75.0036724,51.7504636" id="Fill-51" fill="#404041" fill-rule="nonzero"></path>
            <path d="M75.0784101,51.7698103 C74.9704241,51.7698103 74.8595963,51.7584299 74.7487686,51.7299789 C73.9843413,51.5478925 73.5126129,50.7797155 73.6973259,50.0143836 C76.6299985,37.7719178 87.4541752,28.8269231 100.02602,28.2607482 C100.84444,28.198156 101.472464,28.8326133 101.509407,29.6178609 C101.543508,30.4031085 100.938218,31.068862 100.153898,31.1030032 C88.8437846,31.6122761 79.0994681,39.6610643 76.4594943,50.680137 C76.3060405,51.3316649 75.7234844,51.7698103 75.0784101,51.7698103" id="Fill-53" fill="#404041" fill-rule="nonzero"></path>
            <path d="M107.47535,60.3301475 C107.378731,60.3301475 107.284953,60.3216122 107.185493,60.3016965 C106.418224,60.1423709 105.923761,59.3912645 106.082899,58.6202424 C106.423907,56.9501686 106.597253,55.2146575 106.597253,53.4677661 C106.597253,46.6338356 103.940229,40.2067545 99.1178009,35.3757745 C98.5608205,34.8181349 98.5608205,33.9162381 99.1178009,33.3614436 C99.6719397,32.8066491 100.569929,32.8066491 101.126909,33.3614436 C106.486425,38.7329926 109.43899,45.8741939 109.43899,53.4677661 C109.43899,55.4081243 109.245752,57.3342571 108.862117,59.1949526 C108.725714,59.8663962 108.131791,60.3301475 107.47535,60.3301475" id="Fill-55" fill="#404041" fill-rule="nonzero"></path>
            <path d="M102.841045,60.5190622 C102.633598,60.5190622 102.426151,60.4735406 102.22723,60.3796523 C97.8822136,58.2941939 94.1083868,55.1048367 91.3092757,51.1558377 C90.8574395,50.5156902 91.0080516,49.628019 91.6502842,49.172803 C92.2868333,48.720432 93.176297,48.8655321 93.6309749,49.5113699 C96.148754,53.0648999 99.5446298,55.938451 103.45486,57.813372 C104.162453,58.1519389 104.460835,59.0026238 104.122668,59.7110537 C103.878279,60.2231718 103.369608,60.5190622 102.841045,60.5190622" id="Fill-57" fill="#404041" fill-rule="nonzero"></path>
            <path d="M61.4525648,65.3981243 C53.1518508,65.3981243 46.3998834,58.6381665 46.3998834,50.3276291 C46.3998834,49.5423815 47.0364325,48.905079 47.820752,48.905079 C48.6050714,48.905079 49.2416205,49.5423815 49.2416205,50.3276291 C49.2416205,57.0676712 54.7204897,62.5530242 61.4525648,62.5530242 C68.1817983,62.5530242 73.6578257,57.0676712 73.6578257,50.3276291 C73.6578257,49.5423815 74.2943748,48.905079 75.0786943,48.905079 C75.8630137,48.905079 76.4995628,49.5423815 76.4995628,50.3276291 C76.4995628,58.6381665 69.7504372,65.3981243 61.4525648,65.3981243" id="Fill-59" fill="#404041" fill-rule="nonzero"></path>
            <path d="M107.472508,60.5136565 L102.840477,60.5136565 C102.056157,60.5136565 101.419608,59.8763541 101.419608,59.0911064 C101.419608,58.3058588 102.056157,57.6685564 102.840477,57.6685564 L107.472508,57.6685564 C108.256827,57.6685564 108.893377,58.3058588 108.893377,59.0911064 C108.893377,59.8763541 108.256827,60.5136565 107.472508,60.5136565" id="Fill-61" fill="#404041" fill-rule="nonzero"></path>
            <path d="M100.08797,35.3578504 C99.3036505,35.3578504 98.6671014,34.7205479 98.6671014,33.9353003 L98.6671014,29.6562698 C98.6671014,28.8710221 99.3036505,28.2337197 100.08797,28.2337197 C100.872289,28.2337197 101.508839,28.8710221 101.508839,29.6562698 L101.508839,33.9353003 C101.508839,34.7205479 100.872289,35.3578504 100.08797,35.3578504" id="Fill-63" fill="#404041" fill-rule="nonzero"></path>
            <path d="M101.647515,43.1929715 C101.647515,44.0379663 100.965498,44.7207903 100.121502,44.7207903 C99.2775066,44.7207903 98.5954897,44.0379663 98.5954897,43.1929715 C98.5954897,42.3479768 99.2775066,41.6651528 100.121502,41.6651528 C100.965498,41.6651528 101.647515,42.3479768 101.647515,43.1929715" id="Fill-65" fill="#404041" fill-rule="nonzero"></path>
        </g>
    </g>
</svg>