
<svg width="960px" height="206px" viewBox="0 0 960 206" version="1.1" xmlns="http://www.w3.org/2000/svg" xmlns:xlink="http://www.w3.org/1999/xlink">
    <defs>
        <polygon id="path-1" points="0.0002 0.497396516 960 0.497396516 960 117.2527 0.0002 117.2527"></polygon>
        <polygon id="path-3" points="0.1172 0.514218796 80.0852 0.514218796 80.0852 13 0.1172 13"></polygon>
    </defs>
    <g id="Page-1" stroke="none" stroke-width="1" fill="none" fill-rule="evenodd">
        <g id="Group-59">
            <polygon id="Fill-1" fill="#50D1CA" points="960.0003 -0.0003 0.0003 0.0217 0.0003 159.0497 960.0003 159.0707"></polygon>
            <g id="Group-58" transform="translate(0.000000, 4.791000)">
                <g id="Group-4" transform="translate(0.000000, 53.000000)">
                    <mask id="mask-2" fill="white">
                        <use xlink:href="#path-1"></use>
                    </mask>
                    <g id="Clip-3"></g>
                    <path d="M960.0002,88.9427 L960.0002,117.2527 L0.0002,117.2327 L0.0002,55.9527 C0.0002,55.9527 191.3762,7.5617 405.9602,43.3627 C740.3332,99.1497 847.4312,100.6437 876.6482,4.7547 C880.0192,2.9447 901.6742,-4.2453 923.3332,5.4827 C952.3332,38.4827 960.0002,88.9427 960.0002,88.9427" id="Fill-2" fill="#FFFFFF" mask="url(#mask-2)"></path>
                </g>
                <path d="M946.3849,142.2703 C945.7249,141.6493 945.3559,141.1183 945.0869,140.5933 C944.7959,140.0733 944.6459,139.5733 944.5689,139.0673 C944.5039,138.5573 944.4929,138.0553 944.6149,137.4883 C944.7199,136.9203 944.8819,136.3333 945.2809,135.5073 L945.4619,135.4203 C946.0399,136.4533 946.3409,137.6153 946.5459,138.7713 C946.6829,139.9403 946.7579,141.1203 946.5839,142.2903 L946.3849,142.2703 Z" id="Fill-5" fill="#E6E7E8"></path>
                <path d="M941.218,154.2703 C940.558,153.6493 940.189,153.1183 939.92,152.5933 C939.629,152.0733 939.479,151.5733 939.402,151.0673 C939.337,150.5573 939.326,150.0553 939.449,149.4883 C939.553,148.9203 939.715,148.3333 940.115,147.5073 L940.295,147.4203 C940.873,148.4533 941.174,149.6153 941.379,150.7713 C941.516,151.9403 941.591,153.1203 941.417,154.2903 L941.218,154.2703 Z" id="Fill-7" fill="#E6E7E8"></path>
                <path d="M937.7092,136.8074 C936.9772,136.0594 936.5252,135.3734 936.1642,134.6824 C935.7832,133.9974 935.5272,133.3204 935.3352,132.6274 C935.1542,131.9314 935.0202,131.2324 934.9922,130.4624 C934.9552,129.6904 934.9452,128.9004 935.1592,127.8584 L935.3302,127.7544 C935.7582,128.4224 936.1612,129.1134 936.4582,129.8524 C936.7742,130.5814 937.0452,131.3314 937.2632,132.0964 C937.6492,133.6374 937.9352,135.2094 937.9082,136.8054 L937.7092,136.8074 Z" id="Fill-9" fill="#E6E7E8"></path>
                <path d="M60.0412,106.5823 C60.8742,105.4753 61.9372,104.7423 63.0522,104.1833 C64.1652,103.6023 65.3672,103.2493 66.5962,103.0583 C67.8242,102.8693 69.0912,102.8573 70.3382,103.0943 C71.5802,103.2903 72.8172,103.7543 73.9062,104.5713 L73.8822,104.7693 C72.7142,104.6913 71.5482,104.6263 70.3812,104.6823 C69.2152,104.7243 68.0512,104.8393 66.8992,105.0343 C65.7452,105.2013 64.5972,105.4263 63.4652,105.7213 C62.3372,106.0223 61.2132,106.3593 60.1202,106.7663 L60.0412,106.5823 Z" id="Fill-11" fill="#E6E7E8"></path>
                <path d="M12.3205,128.3211 C12.9755,127.1001 13.9155,126.2151 14.9325,125.4931 C15.9455,124.7511 17.0805,124.2191 18.2655,123.8441 C19.4515,123.4711 20.7015,123.2681 21.9705,123.3141 C23.2275,123.3191 24.5215,123.5901 25.7205,124.2331 L25.7265,124.4321 C24.5615,124.5321 23.3985,124.6441 22.2535,124.8761 C21.1065,125.0941 19.9735,125.3841 18.8655,125.7521 C17.7495,126.0921 16.6485,126.4881 15.5755,126.9511 C14.5055,127.4201 13.4445,127.9241 12.4265,128.4901 L12.3205,128.3211 Z" id="Fill-13" fill="#E6E7E8"></path>
                <path d="M21.7063,115.3885 C22.5393,114.2815 23.6023,113.5485 24.7173,112.9895 C25.8303,112.4085 27.0323,112.0555 28.2613,111.8645 C29.4893,111.6755 30.7563,111.6635 32.0033,111.9005 C33.2463,112.0965 34.4833,112.5605 35.5713,113.3775 L35.5473,113.5755 C34.3803,113.4975 33.2133,113.4325 32.0463,113.4885 C30.8803,113.5305 29.7163,113.6455 28.5643,113.8405 C27.4103,114.0075 26.2623,114.2325 25.1313,114.5275 C24.0023,114.8285 22.8783,115.1655 21.7863,115.5725 L21.7063,115.3885 Z" id="Fill-15" fill="#E6E7E8"></path>
                <path d="M73.8674,113.598 C74.2194,112.741 74.7504,112.23 75.3184,111.865 C75.8874,111.481 76.5204,111.29 77.1694,111.234 C77.8164,111.181 78.4914,111.275 79.1294,111.573 C79.7634,111.845 80.3834,112.313 80.8104,113.115 L80.7674,113.31 C80.1954,113.238 79.6264,113.175 79.0534,113.159 C78.4794,113.146 77.9044,113.162 77.3344,113.226 C76.1864,113.288 75.0514,113.524 73.9314,113.787 L73.8674,113.598 Z" id="Fill-17" fill="#E6E7E8"></path>
                <path d="M21.3342,138.2943 C21.5492,137.3933 21.9952,136.8063 22.5002,136.3573 C23.0032,135.8903 23.5992,135.6043 24.2312,135.4483 C24.8622,135.2963 25.5442,135.2843 26.2202,135.4803 C26.8892,135.6513 27.5732,136.0183 28.1202,136.7443 L28.1072,136.9433 C27.5302,136.9613 26.9592,136.9863 26.3902,137.0593 C25.8212,137.1343 25.2562,137.2403 24.7022,137.3913 C23.5782,137.6293 22.4922,138.0383 21.4282,138.4713 L21.3342,138.2943 Z" id="Fill-19" fill="#E6E7E8"></path>
                <path d="M44.0041,110.8821 C44.2771,109.9971 44.7611,109.4411 45.2951,109.0271 C45.8271,108.5931 46.4411,108.3471 47.0821,108.2331 C47.7221,108.1231 48.4021,108.1551 49.0641,108.3961 C49.7211,108.6101 50.3791,109.0211 50.8771,109.7811 L50.8521,109.9801 C50.2751,109.9591 49.7021,109.9471 49.1291,109.9821 C48.5581,110.0201 47.9861,110.0891 47.4241,110.2031 C46.2861,110.3671 45.1771,110.7031 44.0851,111.0651 L44.0041,110.8821 Z" id="Fill-21" fill="#E6E7E8"></path>
                <path d="M53.5305,118.6263 C53.8745,117.6113 54.4785,116.9113 55.1535,116.3583 C55.8235,115.7853 56.6015,115.4033 57.4235,115.1603 C58.2445,114.9203 59.1195,114.8263 60.0055,114.9583 C60.8815,115.0553 61.7815,115.3733 62.5815,116.0513 L62.5835,116.2513 C61.8025,116.3163 61.0255,116.3843 60.2585,116.5253 C59.4895,116.6613 58.7295,116.8433 57.9855,117.0783 C56.4785,117.4853 55.0305,118.1033 53.6345,118.7973 L53.5305,118.6263 Z" id="Fill-23" fill="#E6E7E8"></path>
                <path d="M82.7688,102.6224 C83.3298,101.7094 84.0758,101.1604 84.8558,100.7724 C85.6358,100.3614 86.4798,100.1624 87.3338,100.1084 C88.1888,100.0574 89.0628,100.1594 89.8968,100.4844 C90.7298,100.7734 91.5368,101.2844 92.1658,102.1224 L92.1238,102.3184 C91.3478,102.2084 90.5758,102.1014 89.7948,102.0694 C89.0168,102.0304 88.2348,102.0394 87.4568,102.1034 C85.8978,102.1654 84.3478,102.4454 82.8318,102.8124 L82.7688,102.6224 Z" id="Fill-25" fill="#E6E7E8"></path>
                <path d="M34.9387,126.5076 C35.3157,125.5046 35.9437,124.8246 36.6357,124.2956 C37.3247,123.7446 38.1157,123.3896 38.9447,123.1746 C39.7727,122.9626 40.6507,122.8976 41.5317,123.0586 C42.4037,123.1846 43.2927,123.5326 44.0707,124.2366 L44.0657,124.4366 C43.2837,124.4756 42.5037,124.5176 41.7327,124.6336 C40.9597,124.7426 40.1947,124.9006 39.4437,125.1106 C37.9227,125.4666 36.4547,126.0346 35.0367,126.6826 L34.9387,126.5076 Z" id="Fill-27" fill="#E6E7E8"></path>
                <path d="M830.4162,29.8157 C840.1022,33.6567 863.9822,42.6427 873.9822,65.6427 C885.6492,73.9767 886.4162,63.8157 886.4162,63.8157 C886.4162,63.8157 885.0832,27.0857 863.0832,14.1487 C841.0832,1.2127 791.7502,14.4827 830.4162,29.8157" id="Fill-29" fill="#FFFFFF"></path>
                <path d="M892.1828,19.5711 C899.1108,27.3531 918.0028,42.1921 916.6048,67.2321 C923.2838,79.9191 926.9398,75.1051 926.9398,75.1051 C926.9398,75.1051 942.2488,41.6911 928.4068,20.2501 C914.5628,-1.1909 864.5268,-11.4989 892.1828,19.5711" id="Fill-31" fill="#FFFFFF"></path>
                <path d="M920.3752,60.7322 C920.3752,60.7322 924.5002,40.4822 920.3752,30.2322 C916.2502,19.9822 902.6252,16.6072 904.5002,20.3572 C906.3752,24.1072 920.3752,28.4822 920.3752,60.7322" id="Fill-33" fill="#E6E7E8"></path>
                <path d="M876.6486,57.7547 C876.6486,57.7547 872.9476,37.4227 865.3066,29.4417 C857.6656,21.4607 843.7626,23.3947 846.8976,26.1787 C850.0326,28.9627 864.6556,27.8177 876.6486,57.7547" id="Fill-35" fill="#E6E7E8"></path>
                <path d="M888.7844,94.4285 C888.7844,94.4285 891.9674,99.3245 895.1484,100.9145 C901.2674,98.4675 903.7164,94.4285 903.7164,94.4285 C903.7164,94.4285 896.1884,90.7565 888.7844,94.4285" id="Fill-37" fill="#F96850"></path>
                <path d="M888.4992,103.0765 C889.2792,103.2655 889.9272,103.4995 890.5422,103.6825 C891.1482,103.8715 891.7052,104.0105 892.1622,104.0395 C892.6152,104.0595 892.9782,103.9955 893.4642,103.7165 C893.7222,103.6155 893.9462,103.3845 894.2282,103.1965 C894.4972,102.9805 894.7392,102.7215 895.0912,102.4815 L895.0942,102.4825 L895.0932,102.4845 C895.6752,102.9935 896.0842,103.4985 896.5272,103.8955 C896.9592,104.2925 897.3562,104.5825 897.7322,104.7225 C898.1072,104.8575 898.5102,104.9165 899.0662,104.8985 C899.6192,104.8785 900.2502,104.7505 901.0302,104.6695 C900.7712,105.4095 900.2602,106.0035 899.5452,106.3865 C898.8442,106.7755 897.8432,106.8795 896.9832,106.5015 C896.1222,106.1285 895.5702,105.4015 895.2802,104.6975 C895.0092,103.9715 894.9372,103.2305 895.0932,102.4845 L895.0912,102.4825 L895.0942,102.4825 C895.1462,102.8775 895.1302,103.2765 895.0662,103.6775 C894.9332,104.0525 894.8532,104.4775 894.5572,104.8245 C894.0852,105.5645 893.0422,106.1125 892.0782,106.0445 C891.1222,106.0005 890.3412,105.5885 889.7352,105.0825 C889.1352,104.5595 888.6602,103.9305 888.4362,103.1385 L888.4992,103.0765 Z" id="Fill-39" fill="#E6E7E8"></path>
                <path d="M842.2062,84.8646 C844.0982,84.8926 845.8562,85.2336 847.5692,85.6856 C848.4382,85.8806 849.2582,86.1946 850.1022,86.4476 C850.9292,86.7436 851.7412,87.0736 852.5602,87.3896 C853.3542,87.7606 854.1602,88.1076 854.9452,88.5006 C855.7172,88.9266 856.5112,89.3006 857.2572,89.7866 C858.7742,90.7006 860.2462,91.7236 861.5862,93.0566 L861.5082,93.2416 L851.7782,89.2376 L842.1272,85.0496 L842.2062,84.8646 Z" id="Fill-41" fill="#E6E7E8"></path>
                <path d="M836.176,94.2156 C837.551,93.6336 838.894,93.3886 840.226,93.2646 C840.895,93.1696 841.551,93.2016 842.214,93.1696 C842.872,93.1836 843.528,93.2326 844.184,93.2676 C844.834,93.3626 845.488,93.4306 846.136,93.5486 C846.78,93.7036 847.431,93.8006 848.07,94.0196 C849.354,94.3946 850.626,94.8876 851.866,95.7156 L851.847,95.9156 L843.992,95.2656 L836.157,94.4156 L836.176,94.2156 Z" id="Fill-43" fill="#E6E7E8"></path>
                <path d="M939.2043,97.5814 C937.6823,98.7044 936.0753,99.4984 934.4383,100.1754 C933.6283,100.5454 932.7863,100.7924 931.9603,101.1024 C931.1233,101.3664 930.2773,101.5964 929.4343,101.8404 C928.5773,102.0254 927.7263,102.2374 926.8633,102.4004 C925.9913,102.5284 925.1333,102.7114 924.2443,102.7764 C922.4833,102.9674 920.6933,103.0434 918.8193,102.7934 L918.7693,102.5994 L928.9373,99.8964 L939.1543,97.3874 L939.2043,97.5814 Z" id="Fill-45" fill="#E6E7E8"></path>
                <path d="M940.7121,107.7327 C939.3621,108.3707 938.0301,108.6707 936.7051,108.8487 C936.0411,108.9717 935.3841,108.9667 934.7231,109.0257 C934.0651,109.0397 933.4071,109.0167 932.7501,109.0087 C932.0971,108.9397 931.4411,108.8987 930.7881,108.8077 C930.1381,108.6797 929.4831,108.6087 928.8361,108.4167 C927.5381,108.0947 926.2471,107.6537 924.9741,106.8777 L924.9841,106.6767 L932.8591,107.0047 L940.7231,107.5317 L940.7121,107.7327 Z" id="Fill-47" fill="#E6E7E8"></path>
                <path d="M875.4885,86.16 C875.2745,84.706 875.4755,83.331 876.0535,81.983 C876.3335,81.289 876.7595,80.643 877.4885,79.964 C877.8995,79.644 878.4085,79.33 879.1545,79.222 C879.8715,79.118 880.7095,79.316 881.2155,79.658 C882.2565,80.385 882.6265,81.141 882.9685,81.841 C883.2605,82.569 883.4675,83.236 883.5515,83.938 C883.7575,85.313 883.7005,86.676 883.2835,88.067 L883.0885,88.108 C882.8015,86.872 882.4905,85.64 882.0665,84.451 C881.8485,83.861 881.6195,83.271 881.3125,82.73 C881.0135,82.195 880.6585,81.655 880.1675,81.36 C879.6925,81.022 879.0875,81.126 878.6025,81.484 C878.1205,81.842 877.7215,82.335 877.3705,82.85 C876.6735,83.892 876.1305,85.05 875.6775,86.225 L875.4885,86.16 Z" id="Fill-49" fill="#231F20"></path>
                <path d="M912.7092,88.3128 C912.4942,86.8588 912.6962,85.4848 913.2732,84.1358 C913.5542,83.4418 913.9802,82.7958 914.7082,82.1178 C915.1192,81.7968 915.6292,81.4838 916.3742,81.3748 C917.0922,81.2708 917.9292,81.4688 918.4362,81.8118 C919.4772,82.5378 919.8472,83.2938 920.1892,83.9938 C920.4802,84.7218 920.6882,85.3888 920.7722,86.0908 C920.9772,87.4658 920.9212,88.8288 920.5042,90.2198 L920.3082,90.2608 C920.0222,89.0248 919.7112,87.7928 919.2872,86.6038 C919.0682,86.0138 918.8392,85.4238 918.5322,84.8828 C918.2332,84.3478 917.8792,83.8078 917.3872,83.5128 C916.9132,83.1758 916.3072,83.2788 915.8232,83.6378 C915.3402,83.9958 914.9422,84.4878 914.5902,85.0028 C913.8932,86.0448 913.3502,87.2028 912.8972,88.3788 L912.7092,88.3128 Z" id="Fill-51" fill="#231F20"></path>
                <path d="M666.8683,172.6961 C659.9133,169.0151 652.5053,166.9751 645.1893,166.4071 C641.5163,166.2001 637.8713,166.3251 634.2803,166.8901 C633.3833,167.0061 632.4973,167.2431 631.6043,167.4041 C630.7193,167.6041 629.8163,167.7161 628.9433,167.9811 L626.3303,168.7921 C625.4593,169.0611 624.5813,169.3001 623.7453,169.6931 L621.1813,170.6941 L619.8973,171.1921 L618.4933,171.7631 L615.6543,172.9241 C615.1803,173.1141 614.7123,173.3171 614.2313,173.4951 C613.7433,173.6611 613.2443,173.7971 612.7523,173.9471 L609.7903,174.8251 C608.8063,175.1191 607.7673,175.2821 606.7613,175.5141 C605.7403,175.7061 604.7533,176.0011 603.6993,176.0731 L600.5873,176.3821 C598.4873,176.4251 596.4003,176.5511 594.3033,176.2461 C593.7803,176.1831 593.2613,176.1481 592.7413,176.0591 L591.1913,175.7431 C590.6783,175.6311 590.1633,175.5461 589.6563,175.4101 C589.1513,175.2521 588.6443,175.1101 588.1473,174.9391 C586.1593,174.2791 584.2493,173.3661 582.5193,172.2251 L581.2613,171.3181 L580.0843,170.3161 C579.3603,169.5701 578.6603,168.8431 578.0973,167.9691 L578.4013,167.7101 C579.7283,169.0751 581.3853,170.1721 583.1263,171.0051 C584.8743,171.8331 586.7113,172.4981 588.6143,172.8811 C592.4093,173.7141 596.3443,173.7171 600.1993,173.2631 C602.1163,172.9311 604.0473,172.6761 605.9183,172.1211 C606.8553,171.8611 607.8143,171.6751 608.7343,171.3551 L611.4963,170.4041 L612.8783,169.9281 C613.3313,169.7511 613.7743,169.5481 614.2233,169.3591 L616.9103,168.2071 C618.6903,167.4341 620.5433,166.6991 622.3573,165.9441 C623.2573,165.5351 624.2173,165.2951 625.1633,165.0181 L628.0063,164.1971 C628.9553,163.9311 629.9413,163.8191 630.9063,163.6231 C631.8803,163.4701 632.8403,163.2171 633.8243,163.1481 C635.7933,163.0231 637.7543,162.7371 639.7283,162.8591 C640.7133,162.8961 641.7033,162.8501 642.6823,162.9571 L645.6223,163.2831 C653.4063,164.4451 660.9523,167.4671 667.1323,172.3951 L666.8683,172.6961 Z" id="Fill-53" fill="#FFFFFF"></path>
                <g id="Group-57" transform="translate(809.000000, 188.000000)">
                    <mask id="mask-4" fill="white">
                        <use xlink:href="#path-3"></use>
                    </mask>
                    <g id="Clip-56"></g>
                    <path d="M79.9142,5.9041 C76.4622,5.2041 73.0582,4.6311 69.6642,4.2921 C68.8202,4.1901 67.9812,4.0841 67.1352,4.0361 C66.2912,3.9821 65.4572,3.8741 64.6132,3.8751 C63.7702,3.8661 62.9392,3.8051 62.1082,3.7621 L59.6172,3.7711 C56.3152,3.9271 53.0412,4.0131 49.8952,4.7431 C48.2992,4.9781 46.7702,5.4331 45.2232,5.8171 C44.4442,5.9971 43.7242,6.3431 42.9732,6.5931 C42.2382,6.8881 41.4612,7.0841 40.7612,7.4541 L36.1942,9.5261 L33.6132,10.7051 C32.7172,11.0251 31.8092,11.3291 30.8942,11.5971 C27.2352,12.6201 23.3812,13.2751 19.5662,12.8871 C18.6152,12.8711 17.6752,12.6981 16.7382,12.5541 L15.3402,12.3341 C14.8802,12.2241 14.4262,12.0851 13.9722,11.9611 L12.6172,11.5771 C12.1702,11.4401 11.7362,11.2551 11.2982,11.0961 C10.4222,10.7751 9.5562,10.4481 8.7322,10.0141 C5.4302,8.3541 2.3932,6.2341 0.1172,3.4121 L0.3832,3.1131 C3.0582,5.2701 6.1842,6.8921 9.4352,8.0241 C12.6952,9.1571 16.1392,9.7421 19.5812,9.7441 C20.4402,9.7071 21.3062,9.7531 22.1602,9.6481 L24.7232,9.3251 C25.5722,9.1931 26.4012,8.9451 27.2422,8.7611 L28.4972,8.4611 L29.7152,8.0281 L32.1452,7.1551 L34.4762,6.0331 L39.2032,3.7721 C39.5952,3.5691 40.0092,3.4251 40.4282,3.2881 L41.6742,2.8621 C42.5122,2.6011 43.3212,2.2461 44.1812,2.0611 C45.8932,1.6781 47.5852,1.1911 49.3342,1.0161 C52.7972,0.4461 56.3222,0.4351 59.8092,0.6231 C63.3052,0.8091 66.7592,1.4331 70.1552,2.2301 C73.5462,3.0671 76.8842,4.1091 80.0852,5.5421 L79.9142,5.9041 Z" id="Fill-55" fill="#FFFFFF" mask="url(#mask-4)"></path>
                </g>
            </g>
        </g>
    </g>
</svg>
