<?xml version="1.0" encoding="utf-8"?>
<!-- Generator: Adobe Illustrator 25.2.1, SVG Export Plug-In . SVG Version: 6.00 Build 0)  -->
<svg version="1.1" id="Layer_1" xmlns="http://www.w3.org/2000/svg" xmlns:xlink="http://www.w3.org/1999/xlink" x="0px" y="0px"
	 viewBox="0 0 82.3 64" style="enable-background:new 0 0 82.3 64;" xml:space="preserve">
<style type="text/css">
	.st0{fill:#404041;}
</style>
<desc>Created with Sketch.</desc>
<g>
	<g>
		<path class="st0" d="M4.2,56.1c0.1,0,0.3,0,0.4,0.1c0.1,0.1,0.1,0.2,0.1,0.4c0,0.1,0,0.3-0.1,0.4c-0.1,0.1-0.2,0.2-0.4,0.2H2.9
			v6.4c0,0.1,0,0.3-0.1,0.4C2.6,64,2.5,64,2.4,64c-0.1,0-0.3,0-0.4-0.1c-0.1-0.1-0.2-0.2-0.2-0.4v-6.4H0.5c-0.1,0-0.3-0.1-0.4-0.2
			C0,56.8,0,56.7,0,56.6c0-0.1,0-0.3,0.1-0.4c0.1-0.1,0.2-0.1,0.4-0.1H4.2z M4.2,56.1c0.1,0,0.3,0,0.4,0.1c0.1,0.1,0.1,0.2,0.1,0.4
			c0,0.1,0,0.3-0.1,0.4c-0.1,0.1-0.2,0.2-0.4,0.2H2.9v6.4c0,0.1,0,0.3-0.1,0.4C2.6,64,2.5,64,2.4,64c-0.1,0-0.3,0-0.4-0.1
			c-0.1-0.1-0.2-0.2-0.2-0.4v-6.4H0.5c-0.1,0-0.3-0.1-0.4-0.2C0,56.8,0,56.7,0,56.6c0-0.1,0-0.3,0.1-0.4c0.1-0.1,0.2-0.1,0.4-0.1
			H4.2z"/>
		<path class="st0" d="M9.2,56c0.1,0,0.3,0,0.4,0.1c0.1,0.1,0.1,0.2,0.1,0.4v7c0,0.1,0,0.3-0.1,0.4C9.4,64,9.3,64,9.2,64
			s-0.3,0-0.4-0.1c-0.1-0.1-0.2-0.2-0.2-0.4v-3.3H6.6v3.3c0,0.1,0,0.3-0.1,0.4C6.3,64,6.2,64,6.1,64c-0.1,0-0.3,0-0.4-0.1
			c-0.1-0.1-0.1-0.2-0.1-0.4v-7c0-0.1,0-0.3,0.1-0.4C5.8,56,5.9,56,6.1,56c0.1,0,0.3,0,0.4,0.1c0.1,0.1,0.1,0.2,0.1,0.4v2.7h2.1
			v-2.7c0-0.1,0.1-0.3,0.2-0.4C8.9,56,9,56,9.2,56z"/>
		<path class="st0" d="M14,63c0.1,0,0.3,0,0.4,0.1c0.1,0.1,0.2,0.2,0.2,0.4c0,0.1-0.1,0.3-0.2,0.4C14.3,64,14.2,64,14,64h-2.7
			c-0.1,0-0.3,0-0.4-0.1c-0.1-0.1-0.1-0.2-0.1-0.4v-6.8c0-0.1,0-0.3,0.1-0.4c0.1-0.1,0.2-0.1,0.4-0.1H14c0.1,0,0.3,0,0.4,0.1
			c0.1,0.1,0.2,0.2,0.2,0.4c0,0.1-0.1,0.3-0.2,0.4c-0.1,0.1-0.2,0.2-0.4,0.2h-2.2v2.1h1.8c0.1,0,0.3,0,0.4,0.1
			c0.1,0.1,0.1,0.2,0.1,0.4s0,0.3-0.1,0.4c-0.1,0.1-0.2,0.2-0.4,0.2h-1.8V63H14z"/>
		<path class="st0" d="M19.8,58.2c0,0.6-0.2,1.1-0.7,1.5c0.5,0.4,0.7,0.9,0.7,1.5v2.2c0,0.1-0.1,0.3-0.2,0.4
			C19.6,64,19.5,64,19.3,64s-0.3,0-0.4-0.1c-0.1-0.1-0.1-0.2-0.1-0.4v-2.2c0-0.3-0.1-0.5-0.3-0.7c-0.2-0.2-0.4-0.3-0.7-0.3h-1.2v3.3
			c0,0.1,0,0.3-0.1,0.4C16.4,64,16.2,64,16.1,64c-0.1,0-0.3,0-0.4-0.1c-0.1-0.1-0.1-0.2-0.1-0.4v-6.9c0-0.1,0-0.3,0.1-0.4
			c0.1-0.1,0.2-0.1,0.4-0.1h1.7c0.6,0,1.1,0.2,1.5,0.6S19.8,57.6,19.8,58.2L19.8,58.2z M16.6,59.2h1.2c0.3,0,0.5-0.1,0.7-0.3
			c0.2-0.2,0.3-0.4,0.3-0.7v0c0-0.3-0.1-0.5-0.3-0.7c-0.2-0.2-0.4-0.3-0.7-0.3h-1.2V59.2z"/>
		<path class="st0" d="M24.9,57.4C25,57.6,25,57.8,25,58v5.4c0,0.1-0.1,0.3-0.2,0.4C24.8,64,24.6,64,24.5,64s-0.3,0-0.4-0.1
			C24,63.8,24,63.6,24,63.5v-3.3h-2.1v3.3c0,0.1,0,0.3-0.1,0.4C21.6,64,21.5,64,21.4,64c-0.1,0-0.3,0-0.4-0.1
			c-0.1-0.1-0.1-0.2-0.1-0.4V58c0-0.2,0-0.4,0.1-0.6c0,0,0,0,0,0c0.2-0.7,0.7-1.1,1.3-1.3c0,0,0,0,0,0c0.1,0,0.1,0,0.2,0h0
			c0,0,0,0,0,0c0.1,0,0.1,0,0.2,0l0,0c0.1,0,0.1,0,0.2,0h0c0.1,0,0.1,0,0.2,0l0,0c0.1,0,0.1,0,0.2,0c0,0,0,0,0,0h0
			c0.1,0,0.1,0,0.2,0c0,0,0,0,0,0C24.2,56.3,24.7,56.7,24.9,57.4C24.9,57.4,24.9,57.4,24.9,57.4L24.9,57.4z M24,59.2V58
			c0-0.1,0-0.3-0.1-0.4l0,0c0-0.1-0.1-0.2-0.2-0.3c0,0,0,0,0,0c0,0-0.1-0.1-0.1-0.1c0,0,0,0,0,0c0,0,0,0-0.1,0c0,0,0,0-0.1,0
			c0,0,0,0-0.1,0c0,0-0.1,0-0.1,0c0,0,0,0,0,0c0,0-0.1,0-0.1,0c0,0,0,0,0,0C23,57,23,57,23,57h0c0,0-0.1,0-0.1,0c0,0,0,0,0,0
			c0,0-0.1,0-0.1,0l-0.1,0c0,0,0,0-0.1,0c0,0-0.1,0-0.1,0c0,0-0.1,0-0.1,0c0,0,0,0-0.1,0c0,0,0,0,0,0c0,0-0.1,0.1-0.1,0.1
			c0,0,0,0,0,0c0,0,0,0,0,0C22,57.5,22,57.5,22,57.6c0,0,0,0,0,0c-0.1,0.1-0.1,0.3-0.1,0.4v1.2H24z"/>
		<path class="st0" d="M28.4,56.1c0.6,0,1.1,0.2,1.5,0.6c0.4,0.4,0.6,0.9,0.6,1.5v0c0,0.6-0.2,1.1-0.6,1.5c-0.4,0.4-0.9,0.6-1.5,0.6
			h-1.2v3.3c0,0.1,0,0.3-0.1,0.4C27,64,26.8,64,26.7,64c-0.1,0-0.3,0-0.4-0.1c-0.1-0.1-0.1-0.2-0.1-0.4v-6.9c0-0.1,0-0.3,0.1-0.4
			c0.1-0.1,0.2-0.1,0.4-0.1H28.4z M29.4,58.1c0-0.3-0.1-0.5-0.3-0.7c-0.2-0.2-0.4-0.3-0.7-0.3h-1.2v2.1h1.2c0.3,0,0.5-0.1,0.7-0.3
			C29.3,58.7,29.4,58.5,29.4,58.1L29.4,58.1z"/>
		<path class="st0" d="M35.5,56c0.1,0.1,0.2,0.2,0.3,0.3c0,0.1,0,0.3,0,0.4L34,60.1v3.4c0,0.1,0,0.3-0.1,0.4
			C33.8,64,33.6,64,33.5,64c-0.1,0-0.3,0-0.4-0.1C33,63.8,33,63.6,33,63.5v-3.4l-1.8-3.4c-0.1-0.1-0.1-0.3,0-0.4
			c0-0.1,0.1-0.2,0.3-0.3c0.1-0.1,0.3-0.1,0.4,0c0.1,0,0.2,0.1,0.3,0.2l1.4,2.6l1.4-2.6c0.1-0.1,0.2-0.2,0.3-0.2
			C35.3,56,35.4,56,35.5,56z"/>
		<path class="st0" d="M39.8,63.9c-0.1-0.1-0.1-0.2-0.1-0.4v-7c0-0.1,0-0.3,0.1-0.4C39.9,56,40,56,40.1,56c0.1,0,0.3,0,0.4,0.1
			c0.1,0.1,0.1,0.2,0.1,0.4v7c0,0.1,0,0.3-0.1,0.4C40.4,64,40.3,64,40.1,64C40,64,39.9,64,39.8,63.9z"/>
		<path class="st0" d="M46.3,63.5C46.3,63.5,46.3,63.6,46.3,63.5L46.3,63.5c0,0.2-0.1,0.4-0.3,0.4c-0.1,0.1-0.3,0.1-0.4,0
			c-0.1,0-0.2-0.1-0.3-0.3l-2.5-5.1v4.8c0,0.1,0,0.3-0.1,0.4c-0.1,0.1-0.2,0.2-0.4,0.2c-0.1,0-0.3-0.1-0.4-0.2
			c-0.1-0.1-0.1-0.2-0.1-0.4v-7c0-0.1,0-0.3,0.1-0.4c0.1-0.1,0.2-0.2,0.4-0.2c0.2,0,0.3,0.1,0.4,0.2v0c0,0,0,0,0,0.1c0,0,0,0,0,0
			c0,0,0,0,0,0l2.5,5.1v-4.8c0-0.1,0-0.3,0.1-0.4c0.1-0.1,0.2-0.2,0.4-0.2s0.3,0.1,0.4,0.2c0.1,0.1,0.2,0.2,0.2,0.4L46.3,63.5
			C46.3,63.5,46.3,63.5,46.3,63.5z"/>
		<path class="st0" d="M53.6,63c0.1,0,0.3,0,0.4,0.1c0.1,0.1,0.2,0.2,0.2,0.4c0,0.1-0.1,0.3-0.2,0.4C53.9,64,53.8,64,53.6,64h-2.7
			c-0.1,0-0.3,0-0.4-0.1c-0.1-0.1-0.1-0.2-0.1-0.4v-6.8c0-0.1,0-0.3,0.1-0.4c0.1-0.1,0.2-0.1,0.4-0.1h2.7c0.1,0,0.3,0,0.4,0.1
			c0.1,0.1,0.2,0.2,0.2,0.4c0,0.1-0.1,0.3-0.2,0.4c-0.1,0.1-0.2,0.2-0.4,0.2h-2.2v2.1h1.8c0.1,0,0.3,0,0.4,0.1
			c0.1,0.1,0.1,0.2,0.1,0.4s0,0.3-0.1,0.4c-0.1,0.1-0.2,0.2-0.4,0.2h-1.8V63H53.6z"/>
		<path class="st0" d="M59.7,63.5C59.7,63.5,59.7,63.6,59.7,63.5L59.7,63.5c0,0.2-0.1,0.4-0.3,0.4C59.3,64,59.1,64,59,64
			c-0.1,0-0.2-0.1-0.3-0.3l-2.5-5.1v4.8c0,0.1,0,0.3-0.1,0.4c-0.1,0.1-0.2,0.2-0.4,0.2c-0.1,0-0.3-0.1-0.4-0.2
			c-0.1-0.1-0.1-0.2-0.1-0.4v-7c0-0.1,0-0.3,0.1-0.4c0.1-0.1,0.2-0.2,0.4-0.2c0.2,0,0.3,0.1,0.4,0.2v0c0,0,0,0,0,0.1c0,0,0,0,0,0
			c0,0,0,0,0,0l2.5,5.1v-4.8c0-0.1,0-0.3,0.1-0.4C58.9,56,59,56,59.2,56s0.3,0.1,0.4,0.2c0.1,0.1,0.2,0.2,0.2,0.4L59.7,63.5
			C59.7,63.5,59.7,63.5,59.7,63.5z"/>
		<path class="st0" d="M62.8,59.2c0.6,0,1,0.2,1.4,0.6c0.4,0.4,0.6,0.9,0.6,1.4v0.7c0,0.6-0.2,1.1-0.6,1.5c-0.4,0.4-0.9,0.6-1.5,0.6
			h0c-0.6,0-1.1-0.2-1.5-0.6c-0.4-0.4-0.6-0.9-0.6-1.5V58c0-0.6,0.2-1,0.6-1.5c0.4-0.4,0.9-0.6,1.5-0.6h0c0.4,0,0.8,0.1,1.2,0.4
			c0.4,0.3,0.6,0.6,0.7,1c0.1,0.2,0,0.3-0.1,0.5C64.6,58,64.4,58,64.3,58c-0.2,0-0.4-0.1-0.5-0.3c-0.1-0.2-0.2-0.4-0.4-0.5
			S63,57,62.8,57h0c-0.3,0-0.5,0.1-0.7,0.3s-0.3,0.4-0.3,0.7v3.9c0,0.3,0.1,0.5,0.3,0.7c0.2,0.2,0.4,0.3,0.7,0.3h0
			c0.3,0,0.5-0.1,0.7-0.3c0.2-0.2,0.3-0.4,0.3-0.7v-0.7c0-0.3-0.1-0.5-0.3-0.7s-0.4-0.3-0.7-0.3c-0.1,0-0.3-0.1-0.4-0.2
			c-0.1-0.1-0.1-0.2-0.1-0.4c0-0.1,0-0.3,0.1-0.4C62.5,59.3,62.7,59.2,62.8,59.2L62.8,59.2z"/>
		<path class="st0" d="M69.3,63c0.1,0,0.3,0,0.4,0.1c0.1,0.1,0.2,0.2,0.2,0.4c0,0.1-0.1,0.3-0.2,0.4C69.6,64,69.5,64,69.3,64h-2.9
			c-0.1,0-0.3,0-0.4-0.1c-0.1-0.1-0.1-0.2-0.1-0.4v-6.9c0-0.1,0-0.3,0.1-0.4c0.1-0.1,0.2-0.2,0.4-0.2c0.1,0,0.3,0.1,0.4,0.2
			c0.1,0.1,0.1,0.2,0.1,0.4V63H69.3z"/>
		<path class="st0" d="M70.9,63.9c-0.1-0.1-0.1-0.2-0.1-0.4v-7c0-0.1,0-0.3,0.1-0.4C71,56,71.1,56,71.2,56c0.1,0,0.3,0,0.4,0.1
			c0.1,0.1,0.1,0.2,0.1,0.4v7c0,0.1,0,0.3-0.1,0.4C71.5,64,71.4,64,71.2,64C71.1,64,71,64,70.9,63.9z"/>
		<path class="st0" d="M74.9,59.3c0.7,0,1.3,0.3,1.8,0.9c0.5,0.6,0.6,1.2,0.5,2c-0.1,0.5-0.4,1-0.8,1.3c-0.4,0.3-0.9,0.5-1.5,0.5h0
			c-0.5,0-1-0.2-1.4-0.5c-0.4-0.3-0.7-0.7-0.8-1.2c-0.1-0.2,0-0.3,0.1-0.5c0.1-0.1,0.2-0.2,0.4-0.2c0.3,0,0.4,0.1,0.5,0.4
			c0.1,0.3,0.2,0.5,0.5,0.7c0.2,0.2,0.5,0.3,0.8,0.3h0c0.3,0,0.6-0.1,0.8-0.3c0.2-0.2,0.4-0.4,0.5-0.7c0.1-0.4,0-0.8-0.2-1.1
			c-0.3-0.3-0.6-0.5-1-0.5c-0.6,0-1.1-0.2-1.5-0.6c-0.4-0.4-0.6-0.9-0.6-1.5v-0.2c0-0.6,0.2-1.1,0.6-1.5c0.4-0.4,0.9-0.6,1.5-0.6h0
			c0.5,0,0.9,0.1,1.2,0.4c0.4,0.3,0.6,0.6,0.7,1c0.1,0.2,0,0.3-0.1,0.5c-0.1,0.1-0.2,0.2-0.4,0.2h0c-0.2,0-0.4-0.1-0.5-0.3
			c-0.1-0.2-0.2-0.4-0.4-0.5c-0.2-0.1-0.4-0.2-0.6-0.2h0c-0.3,0-0.5,0.1-0.7,0.3c-0.2,0.2-0.3,0.5-0.3,0.8v0.2
			c0,0.3,0.1,0.5,0.3,0.7C74.3,59.2,74.6,59.3,74.9,59.3z"/>
		<path class="st0" d="M81.8,56c0.1,0,0.3,0,0.4,0.1c0.1,0.1,0.1,0.2,0.1,0.4v7c0,0.1,0,0.3-0.1,0.4C82,64,81.9,64,81.8,64
			c-0.1,0-0.3,0-0.4-0.1c-0.1-0.1-0.2-0.2-0.2-0.4v-3.3h-2.1v3.3c0,0.1,0,0.3-0.1,0.4C78.9,64,78.8,64,78.7,64c-0.1,0-0.3,0-0.4-0.1
			c-0.1-0.1-0.1-0.2-0.1-0.4v-7c0-0.1,0-0.3,0.1-0.4c0.1-0.1,0.2-0.1,0.4-0.1c0.1,0,0.3,0,0.4,0.1c0.1,0.1,0.1,0.2,0.1,0.4v2.7h2.1
			v-2.7c0-0.1,0.1-0.3,0.2-0.4C81.5,56,81.6,56,81.8,56z"/>
	</g>
</g>
<g>
	<path class="st0" d="M41.1,0C24.8,0,11.5,13.3,11.5,29.7c0,7.5,2.8,14.6,7.9,20.1c0.1,0.1,0.3,0.2,0.4,0.2c0.1,0,0.3,0,0.4-0.1
		c0.2-0.2,0.2-0.6,0-0.8c-4.9-5.3-7.6-12.2-7.6-19.4c0-15.8,12.8-28.6,28.6-28.6s28.6,12.8,28.6,28.6c0,7.2-2.7,14.1-7.6,19.4
		c-0.2,0.2-0.2,0.6,0,0.8c0.2,0.2,0.6,0.2,0.8,0c5.1-5.5,7.9-12.6,7.9-20.1C70.8,13.3,57.5,0,41.1,0z"/>
	<path class="st0" d="M32.7,44.8l-2.1-7.3l28-8.2c0.1,0,0.3-0.1,0.3-0.3c0.1-0.1,0.1-0.3,0-0.4l-4.4-14.9c-0.1-0.3-0.4-0.5-0.7-0.4
		l-28,8.2l-0.4-1.4c-0.1-0.3-0.4-0.5-0.7-0.4c-0.3,0.1-0.5,0.4-0.4,0.7l3.3,11.2l1.7,5.7l0,0l2.3,7.8c0.1,0.2,0.3,0.4,0.5,0.4
		c0.1,0,0.1,0,0.2,0C32.6,45.4,32.8,45.1,32.7,44.8z M40.2,24.8c0.3-0.1,0.5-0.4,0.4-0.7L39,18.9c0,0,0,0-0.1-0.1l2.3-0.7
		c0,0,0,0.1,0,0.1l1.5,5.2c0.1,0.2,0.3,0.4,0.5,0.4c0.1,0,0.1,0,0.2,0l11.9-3.5l0.7,2.3l-11.9,3.5c-0.3,0.1-0.5,0.4-0.4,0.7l0,0
		c0,0,0,0,0,0l1.5,5.3L43,32.7l-1.5-5.3c-0.1-0.3-0.4-0.5-0.7-0.4l-12.3,3.6l-0.5-1.5l-0.2-0.7L40.2,24.8z M39.1,23.2l-9.7-1.6
		l8.6-2.5c0,0,0,0.1,0,0.1L39.1,23.2z M42.3,17.9C42.3,17.9,42.3,17.9,42.3,17.9l8.5-2.6l-7.3,6.5L42.3,17.9z M55.1,19.2l-6.3,1.8
		l5.4-4.8L55.1,19.2z M57.3,26.6l-7.2-1.2l6.3-1.9L57.3,26.6z M57.8,28.4l-0.4,0.1l-11.3-1.8l1.5-0.5l10,1.6L57.8,28.4z M54.9,29.2
		l-8.5,2.5l-1.2-4.1L54.9,29.2z M42,33l-8.6,2.5l7.4-6.6L42,33z M35.5,29.8l-5.7,5.1l-0.9-3.2L35.5,29.8z M27.6,27.3l-0.9-3.2
		l7.6,1.2L27.6,27.3z M30.1,36l7.8-7l1.5-0.5l-8.6,7.7l-0.7,0.2L30.1,36z M53.9,15.1l-7.5,6.8l-1.5,0.5l8.5-7.6l0.4-0.1L53.9,15.1z
		 M26.9,22.4l11.3,1.8l-1.5,0.5L26.3,23l-0.1-0.4L26.9,22.4z"/>
	<path class="st0" d="M32.7,46.6c-0.3,0.1-0.5,0.4-0.4,0.7l0.7,2.3c0.1,0.2,0.3,0.4,0.5,0.4c0.1,0,0.1,0,0.2,0
		c0.3-0.1,0.5-0.4,0.4-0.7L33.4,47C33.3,46.7,33,46.5,32.7,46.6z"/>
	<circle class="st0" cx="24.4" cy="18.3" r="0.5"/>
</g>
</svg>
