<svg xmlns="http://www.w3.org/2000/svg" viewBox="0 0 960 175.02"><defs><style>.cls-1{fill:#8ee8e3;}.cls-2{fill:#fff;}.cls-3,.cls-9{fill:#e6e7e8;}.cls-4{fill:#fc97c1;opacity:0.7;}.cls-5{fill:#ddb1dd;}.cls-6{fill:#231f20;}.cls-7{fill:#e85b83;}.cls-8{opacity:0.2;}.cls-9{opacity:0.3;}.cls-10{fill:#c297c4;}</style></defs><title>Asset 1</title><g id="Layer_2" data-name="Layer 2"><g id="maci"><rect class="cls-1" width="960" height="164.35"/><path class="cls-2" d="M960,146.71V175L0,175V113.72s169.6-42.89,368.5-18Q387.07,98,406,101.13c318.66,53.16,420.53,50.19,448,1.63a56.06,56.06,0,0,0,3.54-7.51c3.37-1.81,6.56-2.91,40-33.33C930.5,92.67,960,146.71,960,146.71Z"/><path class="cls-3" d="M944.57,136.19a3.57,3.57,0,0,1,2.19.57,3.88,3.88,0,0,1,1.36,1.4,3.92,3.92,0,0,1,.53,1.92,3.41,3.41,0,0,1-.68,2.18l-.19.05c-.18-.55-.37-1.09-.6-1.62a13,13,0,0,0-.79-1.53,20.38,20.38,0,0,0-2-2.83Z"/><path class="cls-3" d="M933.06,130a3.63,3.63,0,0,1,2.18.58,4,4,0,0,1,1.89,3.32,3.34,3.34,0,0,1-.67,2.18l-.2,0a17.12,17.12,0,0,0-.59-1.61,13.87,13.87,0,0,0-.8-1.53,18.88,18.88,0,0,0-2-2.84Z"/><path class="cls-3" d="M941.2,145.88a4.85,4.85,0,0,1,2.44,1.35,6.32,6.32,0,0,1,2,4.65,4.71,4.71,0,0,1-.78,2.69l-.2,0c-.16-.76-.32-1.53-.55-2.27a17.6,17.6,0,0,0-.81-2.2A24.44,24.44,0,0,0,941,146Z"/><path class="cls-2" d="M897.58,60.75s-2.73,31.41-70.1,52l-.2.06c-6.31,1.87-16,2.16-21.39,2.14-38.88-.16-50.25-18.69-44.47-35.6,3.48-10.2,13.22-19.81,26.91-24.43,2.52-.86,5-1.62,7.47-2.31C855.49,35.81,897.58,60.75,897.58,60.75Z"/><path class="cls-4" d="M805.89,115c18.64-31.78,1-53.08-10.09-62.33-2.46.69-4.95,1.45-7.47,2.3C751.94,67.21,743.54,114.7,805.89,115Z"/><path class="cls-5" d="M904.25,53.73c-.42,8.73-6.62,8.85-6.62,8.85a17,17,0,0,1-5.41,1.54c-4,.58-10.29.49-18.56-2.54,4.92-3.42,4.73-7.74,4.73-7.74s-8.59,7.71-25.69,7.41c-13.06-.23-17.92-4.82-17.92-4.82s8.09-1.53,10-8.18c-6.17,2.19-23.43-.29-25.38-11.37,5.73,2.36,10.85.67,13.54-2.67s11.81-7.38,18-2c-3.66-6.74-1.2-11.87-1.2-11.87s4.62,13.5,21.74,14.73S890.21,43,890.21,43s1.74-6.8-2-9.85C894.73,35.59,904.68,45,904.25,53.73Z"/><path class="cls-3" d="M57.53,115.36a8.2,8.2,0,0,1,3-2.4,11.63,11.63,0,0,1,3.54-1.13,10.93,10.93,0,0,1,3.74,0,8,8,0,0,1,3.57,1.48l0,.2a29.28,29.28,0,0,0-3.5-.09,25.33,25.33,0,0,0-3.48.35,30.79,30.79,0,0,0-3.44.69c-1.13.3-2.25.64-3.34,1Z"/><path class="cls-3" d="M9.81,137.1a8.2,8.2,0,0,1,2.61-2.83,11.64,11.64,0,0,1,3.33-1.65,11,11,0,0,1,3.71-.53,8,8,0,0,1,3.75.92v.2a31,31,0,0,0-3.47.44,26.37,26.37,0,0,0-3.39.88,29.38,29.38,0,0,0-3.29,1.2c-1.07.47-2.13,1-3.15,1.54Z"/><path class="cls-3" d="M19.19,124.16a8.25,8.25,0,0,1,3-2.39,11.24,11.24,0,0,1,3.55-1.13,10.93,10.93,0,0,1,3.74,0,8,8,0,0,1,3.57,1.47l0,.2a31.47,31.47,0,0,0-3.5-.09,27.19,27.19,0,0,0-3.48.36,31,31,0,0,0-3.43.68c-1.13.3-2.26.64-3.35,1Z"/><path class="cls-3" d="M71.35,122.37a3.69,3.69,0,0,1,1.45-1.73,4,4,0,0,1,1.85-.63,3.85,3.85,0,0,1,2,.34,3.35,3.35,0,0,1,1.69,1.54l0,.2a16.47,16.47,0,0,0-1.71-.16,14.05,14.05,0,0,0-1.72.07,19.61,19.61,0,0,0-3.4.56Z"/><path class="cls-3" d="M18.82,147.07A3.57,3.57,0,0,1,20,145.13a3.91,3.91,0,0,1,1.73-.91,3.85,3.85,0,0,1,2,0,3.37,3.37,0,0,1,1.9,1.26l0,.2c-.57,0-1.15,0-1.72.11a13.89,13.89,0,0,0-1.68.34,19.08,19.08,0,0,0-3.28,1.08Z"/><path class="cls-3" d="M41.49,119.66a3.62,3.62,0,0,1,1.29-1.86,4,4,0,0,1,3.77-.63,3.39,3.39,0,0,1,1.81,1.39l0,.2a16.64,16.64,0,0,0-1.73,0,12.16,12.16,0,0,0-1.7.22,19.27,19.27,0,0,0-3.34.86Z"/><path class="cls-3" d="M51,127.4a4.91,4.91,0,0,1,1.62-2.27,6.12,6.12,0,0,1,2.27-1.19,6,6,0,0,1,2.58-.21,4.74,4.74,0,0,1,2.58,1.1v.2a22.76,22.76,0,0,0-2.33.27,20.26,20.26,0,0,0-2.27.55,24.3,24.3,0,0,0-4.35,1.72Z"/><path class="cls-3" d="M80.25,111.4a4.94,4.94,0,0,1,2.09-1.85,6.2,6.2,0,0,1,2.48-.67,6.12,6.12,0,0,1,2.56.38,4.74,4.74,0,0,1,2.27,1.64l0,.19a23,23,0,0,0-2.33-.24,18.28,18.28,0,0,0-2.34,0,23.25,23.25,0,0,0-4.62.71Z"/><path class="cls-3" d="M32.42,135.28a5,5,0,0,1,1.7-2.21A6.2,6.2,0,0,1,36.43,132a6.09,6.09,0,0,1,2.59-.12A4.81,4.81,0,0,1,41.56,133v.2a22.64,22.64,0,0,0-2.33.2,17.91,17.91,0,0,0-2.29.48,23.16,23.16,0,0,0-4.41,1.57Z"/><path class="cls-6" d="M856.81,71.77a22.74,22.74,0,0,0-2.41-3.08,3.11,3.11,0,0,0-1.27-.83A1.56,1.56,0,0,0,852,68c-.7.33-1.22,1.46-1.56,2.66s-.6,2.54-1,3.89a11.32,11.32,0,0,1-.53-4.14,7.1,7.1,0,0,1,.46-2.2,3.78,3.78,0,0,1,1.68-2,3.47,3.47,0,0,1,1.34-.4,3.06,3.06,0,0,1,1.41.23,4.25,4.25,0,0,1,1.85,1.63A7.55,7.55,0,0,1,856.81,71.77Z"/><path class="cls-6" d="M827.28,110.2c1.43-.6,2.82-1.18,4.19-1.79s2.72-1.24,4-1.93a36.84,36.84,0,0,0,3.75-2.25c.6-.41,1.17-.86,1.74-1.3s1.06-1,1.58-1.47L843,101l.37.16a3.12,3.12,0,0,1,1.19.72,2.81,2.81,0,0,1,.68,1.19,3.46,3.46,0,0,1-.31,2.33,5.8,5.8,0,0,0-.2-1.07,3,3,0,0,0-.4-.89,1.78,1.78,0,0,0-1.34-.78l.79-.26a17.81,17.81,0,0,1-7.45,5.74,24.91,24.91,0,0,1-4.42,1.47A19.84,19.84,0,0,1,827.28,110.2Z"/><path class="cls-7" d="M774.85,76.37a1.88,1.88,0,0,0,1.4,1.88,3,3,0,0,0,1.19,0,2.15,2.15,0,0,0,1-.4,2.54,2.54,0,0,0,.94-1.78,2,2,0,0,0-.6-1.72,3,3,0,0,0-2-.6,4.28,4.28,0,0,0-2.22.58,3.42,3.42,0,0,0-1.44,1.85,8.58,8.58,0,0,0-.29,2.73,5.87,5.87,0,0,1-.67-2.91,4.18,4.18,0,0,1,1.45-2.91,5.36,5.36,0,0,1,3.09-1.23,4.58,4.58,0,0,1,3.37,1,3.77,3.77,0,0,1,1.13,3.47,4,4,0,0,1-2,2.86,3.43,3.43,0,0,1-1.73.37,4,4,0,0,1-1.6-.42,2.2,2.2,0,0,1-1.09-1.27A2.29,2.29,0,0,1,774.85,76.37Z"/><path class="cls-2" d="M877.89,30.42c-.57,7.57-1.31,14.85-1.31,14.85s-6-2.44-11.73-1.49c0,0,.76-2,1.92-5,3.3-8.54,9.86-25,11.2-25C878.92,13.75,878.5,22.25,877.89,30.42Z"/><g class="cls-8"><path class="cls-6" d="M868,36.8c1.55-.58,3.06-1,4.57-1.44.76-.21,1.51-.46,2.27-.68s1.5-.47,2.3-.69a10.27,10.27,0,0,1-4.29,2.32,13.86,13.86,0,0,1-2.39.48A10.12,10.12,0,0,1,868,36.8Z"/></g><g class="cls-8"><path class="cls-6" d="M872.55,25.34a11.55,11.55,0,0,1,2.57-1c.86-.22,1.67-.39,2.63-.58a2.9,2.9,0,0,1-1.06,1,4.92,4.92,0,0,1-1.32.55,6.55,6.55,0,0,1-1.39.19A4.45,4.45,0,0,1,872.55,25.34Z"/></g><path class="cls-9" d="M368.5,95.68Q387.07,98,406,101.13c318.66,53.16,420.53,50.19,448,1.63l0,0s7.77-1.81,18.57-10.46C872.55,92.28,903.39,241.83,368.5,95.68Z"/><path class="cls-5" d="M950,119.25c5.33-2.5,4.67-8.33,4.67-8.33s-8.17,3.33-17.17-13-15.33-20.33-23.33-24.67S901,65.92,901,65.92A14.47,14.47,0,0,0,899.75,72h0c2.33,4.08,7.62,11.62,16.58,15.46,12.67,5.42,8,20.42,16.66,25.59,0,0-3,2.33-7.32,0,3.83,6.16,5.93,12.5,19.05,17.66,6.39,2.52,11.72,7.43,15.28,14.93V127C956.17,125.83,951.94,123.63,950,119.25Z"/><path class="cls-10" d="M960,145.68c-3.56-7.5-8.89-12.41-15.28-14.93-13.12-5.16-15.22-11.5-19.05-17.66,4.35,2.33,7.32,0,7.32,0-8.69-5.17-4-20.17-16.66-25.59-9-3.84-14.25-11.38-16.58-15.46,0,3.91,1.41,9.22,7.25,14.55,11.33,10.33,5.83,21.33,5.83,21.33a9.6,9.6,0,0,0,8.17-5.5c3,9.5-8,32.17,5.67,39,0,0-1.67-5.49,3.16-8.33,2.17,8.33-.16,19.33,13.09,27.16,8.59,5.09,10.77,11.14,11.24,14.77H960Z"/><path class="cls-10" d="M893.5,55.92l-1.28,8.2c-4,.58-10.29.49-18.56-2.54,4.92-3.42,4.73-7.74,4.73-7.74s-8.59,7.71-25.69,7.41c-13.06-.23-17.92-4.82-17.92-4.82,16.53,2.92,23-3.38,23-3.38-4.69-2.19-3.5-5.69-3.5-5.69s4.94,3.5,13.67,2.31c5-.68,7.35-2.08,14.85,2.94S893.5,55.92,893.5,55.92Z"/><path class="cls-2" d="M917.93,39.41s4.89,31.83-27.34,31.26C888.6,48.55,898.83,40.86,917.93,39.41Z"/><g class="cls-8"><path class="cls-6" d="M895.62,65.92a12.48,12.48,0,0,1,2-5,16.91,16.91,0,0,1,3.71-4.07,17.6,17.6,0,0,1,4.8-2.69,16.78,16.78,0,0,1,2.62-.77,18.9,18.9,0,0,1,2.7-.3c-.79.47-1.61.8-2.38,1.22s-1.55.79-2.28,1.26a34.92,34.92,0,0,0-4.21,2.85,32.06,32.06,0,0,0-3.74,3.45A36.17,36.17,0,0,0,895.62,65.92Z"/></g><path class="cls-9" d="M877.89,30.42c-.57,7.57-1.31,14.85-1.31,14.85s-6-2.44-11.73-1.49c0,0,.76-2,1.92-5C867.91,40.91,871.3,44.42,877.89,30.42Z"/></g></g></svg>