<?xml version="1.0" encoding="utf-8"?>
<!-- Generator: Adobe Illustrator 24.2.0, SVG Export Plug-In . SVG Version: 6.00 Build 0)  -->
<svg version="1.1" id="Layer_1" xmlns="http://www.w3.org/2000/svg" xmlns:xlink="http://www.w3.org/1999/xlink" x="0px" y="0px"
	 viewBox="0 0 1366 136" style="enable-background:new 0 0 1366 136;" xml:space="preserve">
<style type="text/css">
	.st0{fill:#50D1CA;}
</style>
<desc>Created with Sketch.</desc>
<g id="monitor">
	<g id="felnőtteknek" transform="translate(0.000000, -3528.000000)">
		<g id="Group-4" transform="translate(-1.000000, 3528.000000)">
			
				<g id="Page-1" transform="translate(684.000000, 59.500000) scale(-1, -1) translate(-684.000000, -59.500000) translate(1.000000, 0.000000)">
				<g id="Clip-2">
				</g>
				<path id="Fill-1" class="st0" d="M1366,0c0,0-306.1,119.8-704.3,42.7C254.7-36,0,41,0,41v77.8h1366V0z"/>
			</g>
			
				<g id="Page-1_1_" transform="translate(683.500000, 106.000000) scale(-1, -1) translate(-683.500000, -106.000000) translate(0.000000, 69.000000)">
				<path id="Fill-1_1_" class="st0" d="M753.5,61.9c-0.1,0-0.2,0-0.3,0c-30.7-3.9-61.7-8.8-91.9-14.6
					C452.1,6.7,284.1,8.4,180.1,16.9C67.4,26.2,3.4,45.2,2.7,45.4C1.6,45.7,0.4,45.1,0,44c-0.3-1.1,0.3-2.3,1.4-2.7
					c0.6-0.2,65-19.4,178.1-28.6C283.9,4.1,452.3,2.5,662.1,43c30.2,5.8,61,10.8,91.7,14.6c1.2,0.1,2,1.2,1.8,2.4
					C755.5,61.1,754.6,61.9,753.5,61.9"/>
				<path id="Fill-4" class="st0" d="M808.9,67.7c-0.1,0-0.1,0-0.2,0c-9.7-0.8-19.5-1.8-29.1-2.8c-1.2-0.1-2-1.2-1.9-2.3
					c0.1-1.2,1.2-2,2.3-1.9c9.6,1,19.4,2,29.1,2.8c1.2,0.1,2,1.1,1.9,2.3C810.9,66.9,810,67.7,808.9,67.7"/>
				<path id="Fill-6" class="st0" d="M932.1,73c-15.2,0-30.3-0.2-45.4-0.7c-1.2,0-2.1-1-2.1-2.2s1-2.1,2.2-2.1
					c73.3,2.3,147.3-1,220.1-9.8c1.2-0.1,2.2,0.7,2.4,1.9c0.1,1.2-0.7,2.2-1.9,2.4C1049.4,69.5,990.6,73,932.1,73"/>
				<path id="Fill-8" class="st0" d="M1158.2,55.3c-1,0-1.9-0.7-2.1-1.8c-0.2-1.2,0.6-2.3,1.8-2.4c3.2-0.5,6.4-1,9.5-1.5
					c1.2-0.2,2.3,0.6,2.4,1.8c0.2,1.2-0.6,2.3-1.8,2.4c-3.1,0.5-6.3,1-9.5,1.5C1158.4,55.3,1158.3,55.3,1158.2,55.3"/>
				<g id="Group-12" transform="translate(0.000000, 0.251781)">
					<g id="Clip-11">
					</g>
					<path id="Fill-10" class="st0" d="M1197.9,48.2c-1,0-1.9-0.7-2.1-1.7c-0.2-1.2,0.5-2.3,1.7-2.5c102.8-19.3,165-43.4,165.6-43.7
						c1.1-0.4,2.3,0.1,2.8,1.2c0.4,1.1-0.1,2.3-1.2,2.8c-0.6,0.2-63.2,24.5-166.4,43.9C1198.1,48.2,1198,48.2,1197.9,48.2"/>
				</g>
			</g>
		</g>
	</g>
</g>
</svg>
