
<svg width="100px" height="102px" viewBox="0 0 100 102" version="1.1" xmlns="http://www.w3.org/2000/svg" xmlns:xlink="http://www.w3.org/1999/xlink">
    <!-- Generator: Sketch 48.2 (47327) - http://www.bohemiancoding.com/sketch -->
    <desc>Created with Sketch.</desc>
    <defs>
        <polygon id="path-1" points="0 0.7168 13.2436 0.7168 13.2436 12.7258 0 12.7258"></polygon>
        <polygon id="path-3" points="0.1952 0.4764 12.5296388 0.4764 12.5296388 13 0.1952 13"></polygon>
        <polygon id="path-5" points="0 101.548 99.237 101.548 99.237 0 0 0"></polygon>
    </defs>
    <g id="Page-1" stroke="none" stroke-width="1" fill="none" fill-rule="evenodd">
        <g>
            <path d="M38.0035,5.05 C38.0035,5.05 37.2045,10.504 42.8855,21.209 C47.7665,30.407 57.2755,35.851 57.2755,35.851 C57.2755,35.851 45.8025,33.495 40.3045,22.05 C37.3655,15.933 36.7135,9.819 38.0035,5.05 M65.8875,39.105 C66.3995,38.993 70.9975,28.219 68.7835,23.107 C65.8905,16.426 53.1925,10.316 47.3355,13.325 C47.1075,13.442 46.8865,13.573 46.6675,13.707 C46.4945,16.911 44.8205,19.021 44.8205,19.021 C45.1285,14.812 43.2455,10.555 43.2215,10.604 C42.3235,12.4 41.0335,13.129 41.0335,13.129 C41.0335,13.129 41.8775,8.146 41.8215,7.768 C41.2855,4.208 38.3035,-0.063 38.2565,0.001 C25.1275,17.253 43.8945,43.93 65.8875,39.105" id="Fill-1" fill="#202428"></path>
            <path d="M73.49,50.6912 L74.22,54.5632 L76.604,57.1992 C77.07,56.7652 77.108,56.0922 77.109,55.7832 L75.23,51.5612 L78.96,47.4932 L83.042,47.4932 C82.798,46.3812 81.923,45.5272 81.779,45.4312 C81.022,44.9262 79.441,44.7112 79.441,44.7112 L76.688,46.3152 L73.49,50.6912 Z" id="Fill-3" fill="#202428"></path>
            <path d="M71.3439,48.0395 C71.3439,48.0395 72.2929,49.0485 72.6069,49.3445 L75.1729,45.8105 L78.6239,43.8535 C78.4319,43.5875 77.8379,43.0335 76.9119,43.0335 L73.2799,45.1365 L71.3439,48.0395 Z" id="Fill-5" fill="#202428"></path>
            <path d="M86.0845,50.0804 C85.7225,49.5914 84.9985,48.9454 83.8705,48.7134 L80.0835,48.7134 L76.9405,52.1214 L79.1075,56.9814 C79.3775,56.7804 79.7225,56.3374 79.5495,55.2144 C79.4365,54.4804 78.9605,53.0264 78.9605,53.0264 C78.9605,53.0264 80.3695,52.5424 81.0855,51.2594 C81.1005,51.2304 83.6455,51.0274 83.5045,53.7414 C83.5045,53.7414 82.6845,52.9214 81.6955,52.5844 C81.4515,53.3164 81.0415,53.7564 80.4755,53.8604 C81.5985,57.1704 79.0725,58.4894 79.0725,58.4894 L78.0905,57.0874 C78.0115,57.5784 77.1025,58.6304 76.4565,58.9384 L72.6905,55.3194 L71.8485,50.7334 C71.2995,49.9444 69.9705,48.0584 67.7965,47.2414 C69.1695,46.6174 70.3375,45.8614 71.2455,44.9964 C62.1575,46.0064 47.5135,42.6684 39.1815,33.9154 C32.2285,26.6114 32.2805,19.2724 32.2805,19.2724 C30.5135,18.0104 27.2345,17.5754 25.3735,20.3694 C20.6675,27.4364 29.5295,38.6664 38.9575,43.9304 C48.2235,49.1044 57.5555,50.0134 64.1745,48.4594 C64.7145,48.7064 67.7785,50.2024 68.3845,52.6264 C70.9095,62.7254 74.5175,63.7654 75.1285,64.1404 C76.4555,64.7814 78.1355,65.4584 79.7175,65.6994 C79.7175,65.6994 77.7205,66.5264 75.4105,65.7904 C75.2595,67.6474 75.0565,67.4044 75.2395,68.0794 C75.8525,70.3354 81.8495,73.4414 84.4865,71.2534 C85.7865,70.1744 85.6925,64.3704 85.6925,64.3704 C85.6925,64.3704 85.1455,60.1144 86.2255,56.1614 C87.0995,52.9624 86.9895,51.3024 86.0845,50.0804" id="Fill-7" fill="#202428"></path>
            <path d="M67.655,43.3137 C69.409,43.3547 70.853,42.5847 70.853,42.5847 C70.853,42.5847 72.349,44.1077 72.368,44.0997 C74.242,43.3847 75.51,42.0227 75.51,42.0227 C73.76,40.1607 71.807,39.0777 71.807,39.0777 L63.812,41.6027 C63.812,41.6027 64.654,43.2437 67.655,43.3137" id="Fill-9" fill="#202428"></path>
            <g id="Group-13" transform="translate(0.000000, 88.548000)">
                <mask id="mask-2" fill="white">
                    <use xlink:href="#path-1"></use>
                </mask>
                <g id="Clip-12"></g>
                <path d="M6.6216,3.2388 L4.3916,8.3508 L8.8516,8.3508 L6.6216,3.2388 Z M9.7616,10.4608 L3.4826,10.4608 L2.4536,12.7258 L-0.0004,12.7258 L5.3866,0.7168 L7.8566,0.7168 L13.2436,12.7258 L10.7736,12.7258 L9.7616,10.4608 Z" id="Fill-11" fill="#202428" mask="url(#mask-2)"></path>
            </g>
            <path d="M24.7349,89.2822 L24.7349,96.1612 C24.7349,99.7122 22.5559,101.5312 19.5369,101.5312 C16.6549,101.5312 14.2019,99.7812 14.2019,96.1612 L14.2019,89.2822 L16.4489,89.2822 L16.4489,96.1612 C16.4489,98.3232 17.6839,99.4722 19.5539,99.4722 C21.4239,99.4722 22.4869,98.2202 22.4869,96.1612 L22.4869,89.2822 L24.7349,89.2822 Z" id="Fill-14" fill="#202428"></path>
            <path d="M30.0726,91.3747 L30.0726,95.2177 L33.5206,95.2177 C34.9616,95.2177 35.5796,94.2567 35.5796,93.2967 C35.5796,92.3357 34.9446,91.3747 33.5206,91.3747 L30.0726,91.3747 Z M38.4436,101.2737 L35.7506,101.2737 L32.2516,97.2587 L30.0726,97.2587 L30.0726,101.2737 L27.8086,101.2737 L27.8086,89.2477 C29.7126,89.2477 31.6166,89.2647 33.5206,89.2647 C36.3516,89.2817 37.8436,91.1687 37.8436,93.2447 C37.8436,94.8917 37.0896,96.5557 34.8076,97.0187 L38.4436,101.1187 L38.4436,101.2737 Z" id="Fill-16" fill="#202428"></path>
            <polygon id="Fill-18" fill="#202428" points="49.306 101.2734 40.317 101.2734 40.317 89.2654 49.306 89.2654 49.306 91.4604 42.564 91.4604 42.564 94.2224 49.066 94.2224 49.066 96.3334 42.564 96.3334 42.564 99.0434 49.306 99.0434"></polygon>
            <polygon id="Fill-20" fill="#202428" points="58.3894 101.3248 56.0394 101.3248 51.0474 89.2648 53.5854 89.2648 57.2054 98.6138 60.8424 89.2648 63.3814 89.2648"></polygon>
            <g id="Group-24" transform="translate(64.000000, 88.548000)">
                <mask id="mask-4" fill="white">
                    <use xlink:href="#path-3"></use>
                </mask>
                <g id="Clip-23"></g>
                <path d="M2.4252,6.8414 C2.4772,8.8144 3.5402,10.9244 6.3712,10.9244 C9.2022,10.9244 10.2652,8.7964 10.3002,6.8244 C10.3332,4.8004 9.2022,2.5354 6.3712,2.5354 C3.5402,2.5354 2.3742,4.8174 2.4252,6.8414 M12.5292,6.7904 C12.4952,9.8944 10.5902,13.0004 6.3712,13.0004 C2.1502,13.0004 0.1952,9.9634 0.1952,6.8074 C0.1952,3.6504 2.2202,0.4764 6.3712,0.4764 C10.5052,0.4764 12.5642,3.6504 12.5292,6.7904" id="Fill-22" fill="#202428" mask="url(#mask-4)"></path>
            </g>
            <mask id="mask-6" fill="white">
                <use xlink:href="#path-5"></use>
            </mask>
            <g id="Clip-26"></g>
            <polygon id="Fill-25" fill="#202428" mask="url(#mask-6)" points="79.044 101.273 81.292 101.273 81.292 89.265 79.044 89.265"></polygon>
            <path d="M86.6044,91.3747 L86.6044,95.2177 L90.0524,95.2177 C91.4934,95.2177 92.1104,94.2567 92.1104,93.2967 C92.1104,92.3357 91.4764,91.3747 90.0524,91.3747 L86.6044,91.3747 Z M94.9754,101.2737 L92.2824,101.2737 L88.7824,97.2587 L86.6044,97.2587 L86.6044,101.2737 L84.3394,101.2737 L84.3394,89.2477 C86.2444,89.2477 88.1484,89.2647 90.0524,89.2647 C92.8834,89.2817 94.3754,91.1687 94.3754,93.2447 C94.3754,94.8917 93.6214,96.5557 91.3394,97.0187 L94.9754,101.1187 L94.9754,101.2737 Z" id="Fill-27" fill="#202428" mask="url(#mask-6)"></path>
            <path d="M99.237,100.1925 C99.237,101.8225 96.766,101.8225 96.766,100.1925 C96.766,98.5635 99.237,98.5635 99.237,100.1925" id="Fill-28" fill="#202428" mask="url(#mask-6)"></path>
        </g>
    </g>
</svg>
