
<svg width="26px" height="4px" viewBox="0 0 26 4" version="1.1" xmlns="http://www.w3.org/2000/svg" xmlns:xlink="http://www.w3.org/1999/xlink">
    <!-- Generator: Sketch 48.2 (47327) - http://www.bohemiancoding.com/sketch -->
    <desc>Created with Sketch.</desc>
    <defs>
        <polygon id="path-1" points="0.0004 0.00042 25.751 0.00042 25.751 3.34702 0.0004 3.34702"></polygon>
    </defs>
    <g id="Page-1" stroke="none" stroke-width="1" fill="none" fill-rule="evenodd">
        <g>
            <mask id="mask-2" fill="white">
                <use xlink:href="#path-1"></use>
            </mask>
            <g id="Clip-2"></g>
            <path d="M24.3404,1.31642 C23.8554,0.72942 23.2514,0.00042 22.0664,0.00042 C20.8814,0.00042 20.2784,0.72942 19.7934,1.31642 C19.3124,1.89642 19.0084,2.22542 18.3824,2.22542 C17.7574,2.22542 17.4554,1.89642 16.9764,1.31642 C16.4904,0.72942 15.8874,0.00042 14.7034,0.00042 C13.5204,0.00042 12.9184,0.72942 12.4334,1.31642 C11.9534,1.89642 11.6524,2.22542 11.0264,2.22542 C10.4014,2.22542 10.1004,1.89642 9.6204,1.31642 C9.1354,0.72942 8.5334,0.00042 7.3504,0.00042 C6.1674,0.00042 5.5644,0.73042 5.0804,1.31642 C4.6024,1.89642 4.2994,2.22542 3.6764,2.22542 C3.0514,2.22542 2.7504,1.89642 2.2704,1.31642 C1.7854,0.72942 1.1824,0.00042 0.0004,0.00042 L0.0004,1.12142 C0.6244,1.12142 0.9254,1.45042 1.4054,2.03042 C1.8904,2.61642 2.4924,3.34742 3.6764,3.34742 C4.8594,3.34742 5.4614,2.61642 5.9464,2.03042 C6.4244,1.45042 6.7264,1.12142 7.3504,1.12142 C7.9744,1.12142 8.2754,1.45042 8.7554,2.03042 C9.2404,2.61642 9.8424,3.34742 11.0264,3.34742 C12.2104,3.34742 12.8134,2.61642 13.2984,2.03042 C13.7784,1.45042 14.0794,1.12142 14.7034,1.12142 C15.3284,1.12142 15.6314,1.45042 16.1104,2.03042 C16.5964,2.61742 17.1994,3.34742 18.3824,3.34742 C19.5674,3.34742 20.1704,2.61742 20.6564,2.03042 C21.1364,1.45042 21.4404,1.12142 22.0664,1.12142 C22.6934,1.12142 22.9964,1.45042 23.4774,2.03042 C23.9624,2.61742 24.5664,3.34742 25.7514,3.34742 L25.7514,2.22542 C25.1244,2.22542 24.8214,1.89642 24.3404,1.31642" id="Fill-1" fill="#212529" mask="url(#mask-2)"></path>
        </g>
    </g>
</svg>
