<?xml version="1.0" encoding="UTF-8"?>
<svg width="60px" height="64px" viewBox="0 0 60 64" version="1.1" xmlns="http://www.w3.org/2000/svg" xmlns:xlink="http://www.w3.org/1999/xlink">
    <!-- Generator: Sketch 44.1 (41455) - http://www.bohemiancoding.com/sketch -->
    <title>adults</title>
    <desc>Created with Sketch.</desc>
    <defs>
        <polygon id="path-1" points="6.05797964e-17 7.998 6.05797964e-17 0.232 3.6776 0.232 3.6776 7.998"></polygon>
        <polygon id="path-3" points="59.973 56.0420184 59.973 0.094 0 0.094 0 64 59.973 64 59.973 56.0420184 55.7218 56.0420184 55.7218 63.999958 59.9731688 63.999958 59.9731688 56.0420184"></polygon>
    </defs>
    <g id="Page-1" stroke="none" stroke-width="1" fill="none" fill-rule="evenodd">
        <g id="Artboard-Copy-4" transform="translate(-2.000000, 0.000000)">
            <g id="adults" transform="translate(2.000000, -1.000000)">
                <g id="Group-3" transform="translate(0.000000, 56.905800)">
                    <mask id="mask-2" fill="white">
                        <use xlink:href="#path-1"></use>
                    </mask>
                    <g id="Clip-2"></g>
                    <path d="M3.1696,0.232 L0.5076,0.232 C0.3676,0.232 0.2456,0.281 0.1456,0.377 C0.0476,0.479 -0.0004,0.598 -0.0004,0.735 L-0.0004,7.49 C-0.0004,7.631 0.0476,7.752 0.1456,7.852 C0.2456,7.95 0.3676,7.998 0.5076,7.998 C0.6446,7.998 0.7636,7.95 0.8646,7.852 C0.9616,7.752 1.0096,7.631 1.0096,7.49 L1.0096,4.347 L2.8456,4.347 C2.9856,4.347 3.1076,4.297 3.2076,4.196 C3.3056,4.099 3.3536,3.98 3.3536,3.84 C3.3536,3.699 3.3056,3.58 3.2076,3.483 C3.1076,3.386 2.9856,3.337 2.8456,3.337 L1.0096,3.337 L1.0096,1.241 L3.1696,1.241 C3.3096,1.241 3.4286,1.192 3.5256,1.09 C3.6266,0.994 3.6776,0.874 3.6776,0.735 C3.6776,0.598 3.6266,0.479 3.5256,0.377 C3.4286,0.281 3.3096,0.232 3.1696,0.232" id="Fill-1" fill="#404041" mask="url(#mask-2)"></path>
                </g>
                <path d="M7.7121,58.1472 C7.8521,58.1472 7.9711,58.0982 8.0681,57.9962 C8.1691,57.9002 8.2201,57.7802 8.2201,57.6412 C8.2201,57.5042 8.1691,57.3852 8.0681,57.2832 C7.9711,57.1872 7.8521,57.1382 7.7121,57.1382 L5.0491,57.1382 C4.9081,57.1382 4.7881,57.1872 4.6881,57.2832 C4.5901,57.3852 4.5411,57.5042 4.5411,57.6412 L4.5411,64.3962 C4.5411,64.5372 4.5901,64.6582 4.6881,64.7572 C4.7881,64.8562 4.9081,64.9042 5.0491,64.9042 L7.7121,64.9042 C7.8521,64.9042 7.9711,64.8562 8.0681,64.7572 C8.1691,64.6582 8.2201,64.5372 8.2201,64.3962 C8.2201,64.2592 8.1691,64.1412 8.0681,64.0402 C7.9711,63.9422 7.8521,63.8932 7.7121,63.8932 L5.5521,63.8932 L5.5521,61.2532 L7.3881,61.2532 C7.5281,61.2532 7.6481,61.2032 7.7491,61.1022 C7.8461,61.0052 7.8961,60.8862 7.8961,60.7452 C7.8961,60.6052 7.8461,60.4862 7.7491,60.3892 C7.6481,60.2922 7.5281,60.2422 7.3881,60.2422 L5.5521,60.2422 L5.5521,58.1472 L7.7121,58.1472 Z" id="Fill-4" fill="#404041"></path>
                <path d="M12.6699,63.8934 L10.2549,63.8934 L10.2549,57.5484 C10.2549,57.4074 10.2069,57.2894 10.1099,57.1914 C10.0089,57.0914 9.8899,57.0404 9.7539,57.0404 C9.6129,57.0404 9.4919,57.0914 9.3909,57.1914 C9.2939,57.2894 9.2459,57.4074 9.2459,57.5484 L9.2459,64.3964 C9.2459,64.5364 9.2939,64.6574 9.3909,64.7574 C9.4919,64.8564 9.6129,64.9044 9.7539,64.9044 L12.6699,64.9044 C12.8099,64.9044 12.9289,64.8564 13.0259,64.7574 C13.1269,64.6574 13.1779,64.5364 13.1779,64.3964 C13.1779,64.2594 13.1269,64.1404 13.0259,64.0394 C12.9289,63.9424 12.8099,63.8934 12.6699,63.8934" id="Fill-6" fill="#404041"></path>
                <path d="M18.0105,56.9434 C17.8705,56.9434 17.7515,56.9934 17.6545,57.0944 C17.5565,57.1914 17.5085,57.3104 17.5085,57.4514 L17.5085,62.2514 L14.9965,57.2184 C14.9935,57.2184 14.9925,57.2154 14.9925,57.2084 C14.9885,57.2054 14.9845,57.2024 14.9815,57.2024 C14.9705,57.1774 14.9575,57.1584 14.9425,57.1434 L14.9425,57.1374 C14.8385,57.0084 14.7075,56.9434 14.5495,56.9434 C14.4085,56.9434 14.2875,56.9934 14.1865,57.0944 C14.0895,57.1914 14.0415,57.3104 14.0415,57.4514 L14.0415,64.3964 C14.0415,64.5364 14.0895,64.6554 14.1865,64.7524 C14.2875,64.8534 14.4085,64.9044 14.5495,64.9044 C14.6865,64.9044 14.8045,64.8534 14.9055,64.7524 C15.0025,64.6554 15.0505,64.5364 15.0505,64.3964 L15.0505,59.5944 L17.5625,64.6284 C17.6275,64.7514 17.7265,64.8344 17.8595,64.8774 C17.9885,64.9204 18.1175,64.9084 18.2435,64.8444 C18.3875,64.7734 18.4745,64.6554 18.5075,64.4934 L18.5075,64.4824 C18.5105,64.4644 18.5135,64.4454 18.5135,64.4234 C18.5165,64.3954 18.5185,64.3804 18.5185,64.3804 L18.5185,57.4514 C18.5185,57.3104 18.4675,57.1914 18.3665,57.0944 C18.2695,56.9934 18.1505,56.9434 18.0105,56.9434" id="Fill-8" fill="#404041"></path>
                <path d="M22.7043,56.3061 C22.8373,56.2661 22.9363,56.1861 23.0003,56.0641 L23.5513,55.0101 C23.6163,54.8871 23.6273,54.7601 23.5843,54.6261 C23.5413,54.4941 23.4583,54.3941 23.3353,54.3291 C23.2133,54.2651 23.0863,54.2541 22.9523,54.2971 C22.8193,54.3371 22.7203,54.4181 22.6553,54.5391 L22.1043,55.5931 C22.0393,55.7161 22.0283,55.8441 22.0723,55.9771 C22.1113,56.1101 22.1933,56.2091 22.3153,56.2741 C22.4413,56.3381 22.5713,56.3491 22.7043,56.3061" id="Fill-10" fill="#404041"></path>
                <path d="M20.2524,55.9773 C20.2924,56.1103 20.3724,56.2093 20.4944,56.2733 C20.6204,56.3383 20.7504,56.3493 20.8834,56.3063 C21.0164,56.2663 21.1164,56.1863 21.1814,56.0633 L21.7324,55.0103 C21.7974,54.8873 21.8074,54.7603 21.7644,54.6263 C21.7214,54.4943 21.6384,54.3943 21.5164,54.3293 C21.3934,54.2643 21.2654,54.2543 21.1324,54.2973 C20.9984,54.3363 20.9004,54.4183 20.8354,54.5393 L20.2844,55.5933 C20.2204,55.7153 20.2094,55.8443 20.2524,55.9773" id="Fill-12" fill="#404041"></path>
                <path d="M23.1255,62.6093 C23.1255,62.9623 22.9995,63.2643 22.7475,63.5163 C22.4955,63.7683 22.1925,63.8933 21.8405,63.8933 C21.4835,63.8933 21.1815,63.7683 20.9325,63.5163 C20.6805,63.2643 20.5545,62.9623 20.5545,62.6093 L20.5545,59.2393 C20.5545,58.8863 20.6805,58.5843 20.9325,58.3323 C21.1815,58.0823 21.4835,57.9583 21.8405,57.9583 C22.1925,57.9583 22.4955,58.0823 22.7475,58.3323 C22.9995,58.5843 23.1255,58.8863 23.1255,59.2393 L23.1255,62.6093 Z M21.8405,56.9493 C21.2065,56.9493 20.6665,57.1723 20.2195,57.6193 C19.7695,58.0693 19.5445,58.6093 19.5445,59.2393 L19.5445,62.6093 C19.5445,63.2433 19.7695,63.7833 20.2195,64.2293 C20.6665,64.6793 21.2065,64.9043 21.8405,64.9043 C22.4735,64.9043 23.0135,64.6793 23.4605,64.2293 C23.9105,63.7833 24.1345,63.2433 24.1345,62.6093 L24.1345,59.2393 C24.1345,58.6093 23.9105,58.0693 23.4605,57.6193 C23.0135,57.1723 22.4735,56.9493 21.8405,56.9493 L21.8405,56.9493 Z" id="Fill-14" fill="#404041"></path>
                <path d="M28.6642,57.019 L24.9592,57.019 C24.8192,57.019 24.6982,57.067 24.5972,57.165 C24.5002,57.266 24.4522,57.385 24.4522,57.521 C24.4522,57.662 24.5002,57.78 24.5972,57.878 C24.6982,57.979 24.8192,58.03 24.9592,58.03 L26.3032,58.03 L26.3032,64.396 C26.3032,64.537 26.3542,64.658 26.4552,64.758 C26.5522,64.856 26.6712,64.904 26.8112,64.904 C26.9482,64.904 27.0672,64.856 27.1672,64.758 C27.2652,64.658 27.3142,64.537 27.3142,64.396 L27.3142,58.03 L28.6642,58.03 C28.8042,58.03 28.9232,57.979 29.0202,57.878 C29.1182,57.78 29.1662,57.662 29.1662,57.521 C29.1662,57.385 29.1182,57.266 29.0202,57.165 C28.9232,57.067 28.8042,57.019 28.6642,57.019" id="Fill-16" fill="#404041"></path>
                <path d="M34.0324,57.019 L30.3274,57.019 C30.1874,57.019 30.0664,57.067 29.9654,57.165 C29.8674,57.266 29.8194,57.385 29.8194,57.521 C29.8194,57.662 29.8674,57.78 29.9654,57.878 C30.0664,57.979 30.1874,58.03 30.3274,58.03 L31.6734,58.03 L31.6734,64.396 C31.6734,64.537 31.7224,64.658 31.8244,64.758 C31.9204,64.856 32.0404,64.904 32.1794,64.904 C32.3164,64.904 32.4354,64.856 32.5374,64.758 C32.6334,64.658 32.6824,64.537 32.6824,64.396 L32.6824,58.03 L34.0324,58.03 C34.1724,58.03 34.2914,57.979 34.3884,57.878 C34.4864,57.78 34.5344,57.662 34.5344,57.521 C34.5344,57.385 34.4864,57.266 34.3884,57.165 C34.2914,57.067 34.1724,57.019 34.0324,57.019" id="Fill-18" fill="#404041"></path>
                <path d="M38.5138,58.1472 C38.6558,58.1472 38.7728,58.0982 38.8718,57.9962 C38.9708,57.9002 39.0228,57.7802 39.0228,57.6412 C39.0228,57.5042 38.9708,57.3852 38.8718,57.2832 C38.7728,57.1872 38.6558,57.1382 38.5138,57.1382 L35.8518,57.1382 C35.7118,57.1382 35.5898,57.1872 35.4898,57.2832 C35.3938,57.3852 35.3438,57.5042 35.3438,57.6412 L35.3438,64.3962 C35.3438,64.5372 35.3938,64.6582 35.4898,64.7572 C35.5898,64.8562 35.7118,64.9042 35.8518,64.9042 L38.5138,64.9042 C38.6558,64.9042 38.7728,64.8562 38.8718,64.7572 C38.9708,64.6582 39.0228,64.5372 39.0228,64.3962 C39.0228,64.2592 38.9708,64.1412 38.8718,64.0402 C38.7728,63.9422 38.6558,63.8932 38.5138,63.8932 L36.3538,63.8932 L36.3538,61.2532 L38.1898,61.2532 C38.3318,61.2532 38.4518,61.2032 38.5518,61.1022 C38.6498,61.0052 38.6988,60.8862 38.6988,60.7452 C38.6988,60.6052 38.6498,60.4862 38.5518,60.3892 C38.4518,60.2922 38.3318,60.2422 38.1898,60.2422 L36.3538,60.2422 L36.3538,58.1472 L38.5138,58.1472 Z" id="Fill-20" fill="#404041"></path>
                <path d="M44.2984,57.4079 C44.2884,57.2709 44.2304,57.1579 44.1254,57.0669 C44.0214,56.9779 43.9004,56.9379 43.7584,56.9499 C43.6214,56.9589 43.5084,57.0179 43.4184,57.1219 L41.0584,59.9399 L41.0584,57.4509 C41.0584,57.3109 41.0104,57.1919 40.9124,57.0949 C40.8124,56.9979 40.6934,56.9499 40.5564,56.9499 C40.4164,56.9499 40.2944,56.9979 40.1944,57.0949 C40.0984,57.1919 40.0484,57.3109 40.0484,57.4509 L40.0484,64.3959 C40.0484,64.5369 40.0984,64.6559 40.1944,64.7529 C40.2944,64.8539 40.4164,64.9039 40.5564,64.9039 C40.6934,64.9039 40.8124,64.8539 40.9124,64.7529 C41.0104,64.6559 41.0584,64.5369 41.0584,64.3959 L41.0584,61.5289 L43.3974,64.6989 C43.4804,64.8099 43.5894,64.8779 43.7274,64.8989 C43.8624,64.9209 43.9874,64.8899 44.0994,64.8069 C44.2074,64.7239 44.2724,64.6149 44.2934,64.4769 C44.3154,64.3409 44.2844,64.2159 44.2024,64.1049 L41.7064,60.7179 L44.1804,57.7699 C44.2694,57.6659 44.3104,57.5449 44.2984,57.4079" id="Fill-22" fill="#404041"></path>
                <path d="M49.321,56.9434 C49.182,56.9434 49.062,56.9934 48.966,57.0944 C48.867,57.1914 48.819,57.3104 48.819,57.4514 L48.819,62.2514 L46.309,57.2184 C46.304,57.2184 46.303,57.2154 46.303,57.2084 C46.299,57.2054 46.295,57.2024 46.292,57.2024 C46.281,57.1774 46.268,57.1584 46.253,57.1434 L46.253,57.1374 C46.149,57.0084 46.018,56.9434 45.86,56.9434 C45.719,56.9434 45.598,56.9934 45.497,57.0944 C45.401,57.1914 45.352,57.3104 45.352,57.4514 L45.352,64.3964 C45.352,64.5364 45.401,64.6554 45.497,64.7524 C45.598,64.8534 45.719,64.9044 45.86,64.9044 C45.997,64.9044 46.115,64.8534 46.216,64.7524 C46.313,64.6554 46.361,64.5364 46.361,64.3964 L46.361,59.5944 L48.873,64.6284 C48.938,64.7514 49.037,64.8344 49.17,64.8774 C49.299,64.9204 49.428,64.9084 49.554,64.8444 C49.698,64.7734 49.787,64.6554 49.818,64.4934 L49.818,64.4824 C49.821,64.4644 49.824,64.4454 49.824,64.4234 C49.827,64.3954 49.83,64.3804 49.83,64.3804 L49.83,57.4514 C49.83,57.3104 49.778,57.1914 49.679,57.0944 C49.58,56.9934 49.463,56.9434 49.321,56.9434" id="Fill-24" fill="#404041"></path>
                <path d="M54.1864,58.1472 C54.3284,58.1472 54.4454,58.0982 54.5444,57.9962 C54.6434,57.9002 54.6954,57.7802 54.6954,57.6412 C54.6954,57.5042 54.6434,57.3852 54.5444,57.2832 C54.4454,57.1872 54.3284,57.1382 54.1864,57.1382 L51.5244,57.1382 C51.3844,57.1382 51.2624,57.1872 51.1624,57.2832 C51.0664,57.3852 51.0164,57.5042 51.0164,57.6412 L51.0164,64.3962 C51.0164,64.5372 51.0664,64.6582 51.1624,64.7572 C51.2624,64.8562 51.3844,64.9042 51.5244,64.9042 L54.1864,64.9042 C54.3284,64.9042 54.4454,64.8562 54.5444,64.7572 C54.6434,64.6582 54.6954,64.5372 54.6954,64.3962 C54.6954,64.2592 54.6434,64.1412 54.5444,64.0402 C54.4454,63.9422 54.3284,63.8932 54.1864,63.8932 L52.0264,63.8932 L52.0264,61.2532 L53.8624,61.2532 C54.0044,61.2532 54.1244,61.2032 54.2244,61.1022 C54.3224,61.0052 54.3714,60.8862 54.3714,60.7452 C54.3714,60.6052 54.3224,60.4862 54.2244,60.3892 C54.1244,60.2922 54.0044,60.2422 53.8624,60.2422 L52.0264,60.2422 L52.0264,58.1472 L54.1864,58.1472 Z" id="Fill-26" fill="#404041"></path>
                <path d="M57.3788,60.7179 L59.8538,57.7699 C59.9428,57.6659 59.9828,57.5449 59.9708,57.4079 C59.9618,57.2709 59.9028,57.1579 59.7978,57.0669 C59.6938,56.9779 59.5728,56.9379 59.4308,56.9499 C59.2938,56.9589 59.1818,57.0179 59.0918,57.1219 L56.7308,59.9399 L56.7308,57.4509 C56.7308,57.3109 56.6828,57.1919 56.5858,57.0949 C56.4848,56.9979 56.3658,56.9499 56.2288,56.9499 C56.0888,56.9499 55.9678,56.9979 55.8668,57.0949 C55.7708,57.1919 55.7218,57.3109 55.7218,57.4509 L55.7218,64.3959 C55.7218,64.5369 55.7708,64.6559 55.8668,64.7529 C55.9678,64.8539 56.0888,64.9039 56.2288,64.9039 C56.3658,64.9039 56.4848,64.8539 56.5858,64.7529 C56.6828,64.6559 56.7308,64.5369 56.7308,64.3959 L56.7308,61.5289 L59.0698,64.6989 C59.1528,64.8099 59.2618,64.8779 59.3998,64.8989 C59.5358,64.9209 59.6598,64.8899 59.7718,64.8069 C59.8798,64.7239 59.9448,64.6149 59.9668,64.4769 C59.9878,64.3409 59.9568,64.2159 59.8748,64.1049 L57.3788,60.7179 Z" id="Fill-28" fill="#404041"></path>
                <g id="Group-30" transform="translate(0.000000, 0.905800)">
                    <mask id="mask-4" fill="white">
                        <use xlink:href="#path-3"></use>
                    </mask>
                    <g id="Clip-29"></g>
                </g>
                <path d="M29.9063,1 C14.0703,1 1.1873,13.884 1.1873,29.721 C1.1873,38.569 5.1773,46.794 12.1353,52.286 C12.4023,52.496 12.7883,52.451 12.9983,52.184 C13.2083,51.917 13.1633,51.531 12.8963,51.321 C6.2363,46.064 2.4163,38.191 2.4163,29.721 C2.4163,14.562 14.7483,2.229 29.9063,2.229 C45.0713,2.229 57.4083,14.562 57.4083,29.721 C57.4083,38.191 53.5883,46.064 46.9283,51.321 C46.6613,51.531 46.6163,51.917 46.8263,52.184 C46.9473,52.337 47.1273,52.418 47.3083,52.418 C47.4413,52.418 47.5763,52.374 47.6893,52.286 C54.6473,46.794 58.6373,38.569 58.6373,29.721 C58.6373,13.884 45.7493,1 29.9063,1" id="Fill-31" fill="#404041"></path>
                <path d="M20.5692,39.809 L20.5692,33.818 C20.5692,33.478 20.2942,33.203 19.9552,33.203 C19.6152,33.203 19.3402,33.478 19.3402,33.818 L19.3402,39.809 C19.3402,40.149 19.6152,40.423 19.9552,40.423 C20.2942,40.423 20.5692,40.149 20.5692,39.809" id="Fill-33" fill="#404041"></path>
                <path d="M39.6395,31.8556 C39.8675,31.8556 40.0915,31.8306 40.3185,31.8246 L40.3185,34.7816 L39.7145,36.2426 L39.0855,34.6526 L39.0855,31.8376 C39.2705,31.8416 39.4545,31.8556 39.6395,31.8556 M33.0025,27.8506 C33.4915,28.7406 34.1285,29.5256 34.9065,30.1466 C34.4195,30.0496 33.9335,29.9496 33.4535,29.8216 C33.4535,29.8216 33.4525,29.8216 33.4525,29.8216 C32.9675,29.6926 32.4755,29.5386 31.9815,29.3726 C32.4135,28.9276 32.7565,28.4126 33.0025,27.8506 M46.3475,27.9506 C46.5875,28.4646 46.8835,28.9506 47.2805,29.3626 C46.3695,29.6686 45.4455,29.9296 44.5045,30.1226 C45.2435,29.5276 45.8675,28.7946 46.3475,27.9506 M19.9575,27.8616 C20.1625,27.8616 20.3605,27.8286 20.5625,27.8136 L20.5625,29.4176 L19.9575,30.0216 L19.3545,29.4186 L19.3545,27.8106 C19.5565,27.8266 19.7525,27.8616 19.9575,27.8616 M19.9595,13.7366 C20.9005,13.7366 21.7885,13.9506 22.5955,14.3146 C22.0225,17.6006 19.1905,20.0376 15.8095,20.0376 C15.0375,20.0376 14.2905,19.8846 13.5675,19.6376 C13.8505,16.3416 16.5915,13.7366 19.9595,13.7366 M26.3635,19.7796 C24.9465,19.3806 23.6815,18.5226 22.7695,17.3486 C23.2075,16.6276 23.5365,15.8336 23.7345,14.9836 C25.2405,16.0806 26.2385,17.8086 26.3635,19.7796 M37.4475,33.8546 L37.9025,35.0036 C37.9045,35.0086 37.9055,35.0126 37.9075,35.0166 L39.1305,38.1056 C39.1315,38.1076 39.1325,38.1076 39.1325,38.1086 C39.1735,38.2096 39.2465,38.2916 39.3345,38.3596 C39.3565,38.3766 39.3765,38.3896 39.4005,38.4036 C39.4235,38.4166 39.4405,38.4376 39.4665,38.4476 C39.5435,38.4806 39.6235,38.4946 39.7015,38.4946 C39.7775,38.4946 39.8545,38.4816 39.9275,38.4516 C39.9545,38.4406 39.9725,38.4206 39.9965,38.4066 C40.0225,38.3926 40.0435,38.3786 40.0665,38.3616 C40.1535,38.2956 40.2255,38.2166 40.2665,38.1186 C40.2675,38.1176 40.2685,38.1166 40.2695,38.1156 L42.0275,33.8676 C43.5075,34.0986 44.9365,34.5426 46.2835,35.2006 L48.6065,40.8666 C48.7045,41.1036 48.9345,41.2476 49.1755,41.2476 C49.2535,41.2476 49.3335,41.2336 49.4085,41.2026 C49.7235,41.0726 49.8735,40.7136 49.7445,40.4006 L47.3305,34.5116 C47.3145,34.4746 47.2875,34.4476 47.2655,34.4156 C47.2475,34.3866 47.2325,34.3566 47.2095,34.3306 C47.1805,34.2996 47.1455,34.2776 47.1105,34.2536 C47.0845,34.2336 47.0645,34.2076 47.0335,34.1926 C45.3655,33.3486 43.5785,32.8026 41.7215,32.5706 C41.7095,32.5686 41.6975,32.5746 41.6855,32.5736 C41.6395,32.5706 41.5975,32.5756 41.5535,32.5826 C41.5515,32.5836 41.5495,32.5826 41.5475,32.5836 L41.5475,31.7686 C44.0135,31.5846 46.4235,31.0576 48.7305,30.1666 C48.7475,30.1606 48.7595,30.1466 48.7755,30.1386 C48.7935,30.1296 48.8075,30.1176 48.8245,30.1076 C48.8915,30.0656 48.9475,30.0156 48.9925,29.9536 C49.0005,29.9436 49.0135,29.9396 49.0215,29.9286 C49.0285,29.9166 49.0285,29.9036 49.0355,29.8926 C49.0595,29.8496 49.0765,29.8056 49.0895,29.7586 C49.0995,29.7256 49.1085,29.6936 49.1125,29.6606 C49.1165,29.6206 49.1145,29.5816 49.1115,29.5406 C49.1075,29.4986 49.1025,29.4586 49.0905,29.4176 C49.0855,29.4016 49.0885,29.3866 49.0825,29.3716 C49.0745,29.3516 49.0595,29.3396 49.0505,29.3216 C49.0295,29.2796 49.0055,29.2416 48.9755,29.2046 C48.9535,29.1786 48.9295,29.1556 48.9035,29.1336 C48.8835,29.1156 48.8705,29.0926 48.8465,29.0776 C47.8425,28.4146 47.2005,27.3536 47.0855,26.1656 C47.0605,25.9056 46.8715,25.7146 46.6345,25.6446 C46.6325,25.6446 46.6315,25.6426 46.6305,25.6426 C46.6105,25.6356 46.5915,25.6406 46.5715,25.6356 C46.5195,25.6256 46.4675,25.6116 46.4135,25.6136 C46.4095,25.6136 46.4065,25.6166 46.4025,25.6166 C46.1585,25.6336 45.9385,25.7986 45.8625,26.0486 C45.0245,28.7666 42.5485,30.5916 39.7015,30.5916 C36.8965,30.5916 34.4825,28.8026 33.6085,26.1886 C36.8135,25.2766 39.4225,22.7726 40.3305,19.4486 C40.4195,19.1206 40.2275,18.7836 39.8995,18.6936 C39.5735,18.6086 39.2355,18.7976 39.1455,19.1246 C38.3555,22.0126 36.0965,24.1926 33.3155,24.9996 C33.2785,24.7166 33.2545,24.4316 33.2545,24.1446 C33.2545,20.5896 36.1475,17.6986 39.7015,17.6986 C43.1165,17.6986 45.8925,20.3766 46.1055,23.7396 C44.5625,23.3036 43.1915,22.3316 42.2705,20.9936 C42.0785,20.7126 41.6925,20.6436 41.4155,20.8346 C41.1365,21.0266 41.0655,21.4096 41.2575,21.6896 C42.5125,23.5136 44.4785,24.7656 46.6495,25.1206 C46.6835,25.1266 46.7165,25.1286 46.7505,25.1286 C47.0455,25.1286 47.3065,24.9156 47.3555,24.6136 C47.3595,24.5896 47.3515,24.5676 47.3525,24.5436 C47.3575,24.5126 47.3695,24.4846 47.3705,24.4516 L47.3755,24.1446 C47.3755,19.9126 43.9335,16.4696 39.7015,16.4696 C35.4695,16.4696 32.0255,19.9126 32.0255,24.1446 C32.0255,24.5196 32.0625,24.8916 32.1165,25.2596 C31.7395,25.3116 31.3605,25.3556 30.9725,25.3556 C30.6325,25.3556 30.3575,25.6306 30.3575,25.9706 C30.3575,26.3096 30.6325,26.5846 30.9725,26.5846 C31.3635,26.5846 31.7445,26.5346 32.1265,26.4886 C31.9325,27.5396 31.3425,28.4806 30.4285,29.0796 C30.4065,29.0936 30.3945,29.1156 30.3755,29.1316 C30.3475,29.1556 30.3225,29.1796 30.2995,29.2076 C30.2685,29.2446 30.2445,29.2836 30.2235,29.3266 C30.2155,29.3436 30.2015,29.3546 30.1945,29.3726 C30.1895,29.3856 30.1915,29.3986 30.1875,29.4126 C30.1725,29.4606 30.1665,29.5076 30.1635,29.5576 C30.1615,29.5886 30.1595,29.6186 30.1615,29.6486 C30.1665,29.6946 30.1785,29.7376 30.1925,29.7826 C30.2035,29.8156 30.2145,29.8466 30.2305,29.8766 C30.2395,29.8946 30.2415,29.9136 30.2515,29.9306 C30.2635,29.9476 30.2835,29.9546 30.2955,29.9706 C30.3335,30.0176 30.3775,30.0556 30.4285,30.0906 C30.4565,30.1106 30.4825,30.1316 30.5135,30.1456 C30.5255,30.1516 30.5345,30.1616 30.5475,30.1666 C31.4125,30.5006 32.2845,30.7826 33.1355,31.0086 C33.1365,31.0086 33.1365,31.0096 33.1375,31.0096 C34.6755,31.4196 36.2565,31.6776 37.8565,31.7896 L37.8565,32.5656 C37.8325,32.5646 37.8095,32.5746 37.7865,32.5776 C37.7505,32.5756 37.7165,32.5646 37.6805,32.5696 C35.8205,32.8026 34.0305,33.3496 32.3605,34.1956 C32.3245,34.2146 32.3005,34.2436 32.2695,34.2676 C32.2445,34.2866 32.2185,34.3026 32.1965,34.3256 C32.1565,34.3666 32.1295,34.4146 32.1035,34.4646 C32.0945,34.4816 32.0785,34.4936 32.0715,34.5116 L32.0565,34.5466 C32.0555,34.5496 32.0545,34.5526 32.0535,34.5556 L30.6975,37.8626 L27.5875,30.2776 C27.5725,30.2416 27.5455,30.2156 27.5255,30.1846 C27.5055,30.1536 27.4895,30.1216 27.4655,30.0946 C27.4395,30.0676 27.4095,30.0486 27.3805,30.0276 C27.3505,30.0036 27.3265,29.9746 27.2915,29.9566 C25.6205,29.1136 23.8325,28.5686 21.9775,28.3376 C21.9635,28.3366 21.9525,28.3416 21.9395,28.3406 C21.9005,28.3376 21.8635,28.3436 21.8245,28.3486 C21.8135,28.3496 21.8015,28.3486 21.7905,28.3506 L21.7905,27.6186 C24.3715,26.9896 26.4825,25.0816 27.2935,22.4476 C27.3945,22.1236 27.2125,21.7796 26.8875,21.6796 C26.5635,21.5756 26.2185,21.7616 26.1195,22.0856 C25.2825,24.8046 22.8055,26.6326 19.9575,26.6326 C16.9525,26.6326 14.3715,24.5916 13.6825,21.6696 C13.6275,21.4326 13.5865,21.1906 13.5575,20.9466 C14.2875,21.1566 15.0405,21.2666 15.8095,21.2666 C18.2865,21.2666 20.5185,20.1546 22.0195,18.3866 C23.2665,19.8546 25.0085,20.8496 26.9085,21.1586 C26.9425,21.1646 26.9745,21.1676 27.0075,21.1676 C27.3035,21.1676 27.5645,20.9526 27.6125,20.6506 C27.6175,20.6206 27.6095,20.5926 27.6095,20.5626 C27.6145,20.5356 27.6275,20.5126 27.6285,20.4846 L27.6335,20.1846 C27.6335,15.9516 24.1915,12.5086 19.9595,12.5086 C15.7265,12.5086 12.2835,15.9516 12.2835,20.1846 C12.2835,20.7806 12.3515,21.3746 12.4875,21.9506 C13.1625,24.8156 15.3725,26.9446 18.1255,27.6166 L18.1255,28.3516 C18.1165,28.3496 18.1065,28.3506 18.0975,28.3496 C18.0565,28.3436 18.0185,28.3376 17.9775,28.3406 C17.9645,28.3416 17.9525,28.3366 17.9395,28.3376 C16.0735,28.5686 14.2825,29.1156 12.6175,29.9626 C12.5825,29.9806 12.5595,30.0096 12.5305,30.0316 C12.5035,30.0516 12.4765,30.0686 12.4535,30.0926 C12.4155,30.1326 12.3885,30.1786 12.3635,30.2266 C12.3535,30.2446 12.3375,30.2576 12.3295,30.2776 L12.3125,30.3176 C12.3125,30.3186 12.3115,30.3196 12.3115,30.3216 L10.0805,35.7606 C9.9515,36.0746 10.1015,36.4326 10.4165,36.5626 C10.4915,36.5936 10.5705,36.6086 10.6485,36.6086 C10.8905,36.6086 11.1195,36.4646 11.2175,36.2266 L13.3755,30.9656 C14.7705,30.2836 16.2575,29.8276 17.8045,29.6056 L19.5205,31.3216 C19.5215,31.3226 19.5215,31.3236 19.5225,31.3256 C19.6425,31.4456 19.7995,31.5056 19.9575,31.5056 C20.1145,31.5056 20.2715,31.4456 20.3915,31.3256 L22.1125,29.6056 C23.6535,29.8266 25.1395,30.2826 26.5415,30.9656 L30.0335,39.4826 L28.4375,43.3756 C28.3085,43.6886 28.4585,44.0476 28.7735,44.1776 C28.8495,44.2086 28.9285,44.2226 29.0065,44.2226 C29.2475,44.2226 29.4775,44.0786 29.5755,43.8416 L33.1175,35.2006 C34.4865,34.5316 35.9395,34.0826 37.4475,33.8546" id="Fill-35" fill="#404041"></path>
                <path d="M40.3116,43.8895 L40.3116,42.8365 C40.3116,42.4975 40.0366,42.2225 39.6976,42.2225 C39.3576,42.2225 39.0826,42.4975 39.0826,42.8365 L39.0826,43.8895 C39.0826,44.2295 39.3576,44.5035 39.6976,44.5035 C40.0366,44.5035 40.3116,44.2295 40.3116,43.8895" id="Fill-37" fill="#404041"></path>
                <path d="M39.2554,39.9782 C39.1454,40.0882 39.0834,40.2482 39.0834,40.4082 C39.0834,40.5672 39.1454,40.7272 39.2554,40.8392 C39.3794,40.9612 39.5384,41.0222 39.6984,41.0222 C39.8574,41.0222 40.0174,40.9612 40.1284,40.8392 C40.2514,40.7272 40.3124,40.5672 40.3124,40.4082 C40.3124,40.2482 40.2514,40.0882 40.1284,39.9782 C39.8954,39.7442 39.4894,39.7442 39.2554,39.9782" id="Fill-39" fill="#404041"></path>
                <path d="M20.3136,24.2239 C20.0666,24.4159 19.8476,24.4159 19.6056,24.2259 C19.3406,24.0159 18.9536,24.0609 18.7436,24.3319 C18.5346,24.5979 18.5816,24.9849 18.8496,25.1939 C19.1846,25.4569 19.5686,25.5959 19.9576,25.5959 C20.3496,25.5959 20.7216,25.4609 21.0646,25.1959 C21.3336,24.9879 21.3826,24.6029 21.1756,24.3339 C20.9656,24.0629 20.5786,24.0159 20.3136,24.2239" id="Fill-41" fill="#404041"></path>
                <path d="M16.5131,22.327 C16.5131,22.687 16.8031,22.979 17.1631,22.979 C17.5241,22.979 17.8141,22.687 17.8141,22.327 C17.8141,21.968 17.5241,21.677 17.1631,21.677 C16.8031,21.677 16.5131,21.968 16.5131,22.327" id="Fill-43" fill="#404041"></path>
                <path d="M22.1032,22.327 C22.1032,22.687 22.3942,22.979 22.7532,22.979 C23.1142,22.979 23.4042,22.687 23.4042,22.327 C23.4042,21.968 23.1142,21.677 22.7532,21.677 C22.3942,21.677 22.1032,21.968 22.1032,22.327" id="Fill-45" fill="#404041"></path>
                <path d="M40.2924,28.1352 C40.0514,28.3212 39.8284,28.3232 39.5844,28.1352 C39.3174,27.9252 38.9314,27.9732 38.7224,28.2432 C38.5134,28.5112 38.5634,28.8972 38.8304,29.1052 C39.1674,29.3682 39.5504,29.5062 39.9374,29.5062 C40.3244,29.5062 40.7084,29.3682 41.0464,29.1052 C41.3134,28.8972 41.3634,28.5112 41.1544,28.2432 C40.9444,27.9732 40.5564,27.9252 40.2924,28.1352" id="Fill-47" fill="#404041"></path>
                <path d="M36.4917,26.2359 C36.4917,26.5959 36.7827,26.8859 37.1417,26.8859 C37.5027,26.8859 37.7927,26.5959 37.7927,26.2359 C37.7927,25.8769 37.5027,25.5859 37.1417,25.5859 C36.7827,25.5859 36.4917,25.8769 36.4917,26.2359" id="Fill-49" fill="#404041"></path>
                <path d="M42.0821,26.2359 C42.0821,26.5959 42.3721,26.8859 42.7321,26.8859 C43.0921,26.8859 43.3851,26.5959 43.3851,26.2359 C43.3851,25.8769 43.0921,25.5859 42.7321,25.5859 C42.3721,25.5859 42.0821,25.8769 42.0821,26.2359" id="Fill-51" fill="#404041"></path>
            </g>
        </g>
    </g>
</svg>