
<svg width="136px" height="145px" viewBox="0 0 136 145" version="1.1" xmlns="http://www.w3.org/2000/svg" xmlns:xlink="http://www.w3.org/1999/xlink">
    <!-- Generator: Sketch 44 (41411) - http://www.bohemiancoding.com/sketch -->
    <desc>Created with Sketch.</desc>
    <defs>
        <polygon id="path-1" points="10.5524898 18.420334 10.5524898 0.461063204 0.951167347 0.461063204 0.951167347 18.420334"></polygon>
    </defs>
    <g id="monitor" stroke="none" stroke-width="1" fill="none" fill-rule="evenodd">
        <g id="felnőtteknek" transform="translate(-615.000000, -187.000000)">
            <g id="Page-1" transform="translate(615.000000, 186.000000)">
                <path d="M90.1982531,37.3038452 C100.911722,37.3038452 105.582906,47.1024672 105.599559,53.8863419 C98.0529469,52.2971513 95.7437224,49.124317 89.7541714,41.5416868 C87.6447837,49.9064317 81.8328653,55.6308461 74.1419265,56.8983157 C73.2149061,51.7313661 74.4028245,37.3038452 90.1982531,37.3038452 Z" id="Fill-1" fill="#68D1C9"></path>
                <path d="M69.9509061,65.5218242 C74.1474776,67.5825024 79.851151,68.9304023 84.9025796,68.7778621 C79.0906612,66.2595636 76.9229878,63.6303268 74.3639673,58.5937297 C73.051151,61.7194152 72.218498,63.4195441 69.9509061,65.5218242 Z" id="Fill-3" fill="#68D1C9"></path>
                <path d="M109.275167,65.5218242 C105.084147,67.5825024 99.3749224,68.9304023 94.3234939,68.7778621 C100.135412,66.2595636 102.303086,63.6303268 104.862106,58.5937297 C106.174922,61.7194152 107.007576,63.4195441 109.275167,65.5218242 Z" id="Fill-5" fill="#68D1C9"></path>
                <path d="M45.0801143,28.3541782 C58.0972571,28.3541782 61.4250939,40.6821926 61.4250939,44.6898373 C55.8019102,44.2072559 52.3075429,41.2590715 49.7374204,37.9642052 C46.1875429,41.7361061 43.0539918,47.0916507 29.1320327,44.2904596 C29.1320327,39.9777346 32.0657469,28.3541782 45.0801143,28.3541782 Z" id="Fill-7" fill="#68D1C9"></path>
                <path d="M2.28230204,129.961423 L2.28230204,134.690166 L6.42891429,134.690166 C6.74532245,134.690166 7.01732245,134.803878 7.24491429,135.020208 C7.46417959,135.242084 7.5752,135.508336 7.5752,135.827284 C7.5752,136.143458 7.46417959,136.412483 7.24491429,136.628813 C7.01732245,136.856236 6.74532245,136.969948 6.42891429,136.969948 L2.28230204,136.969948 L2.28230204,144.067223 C2.28230204,144.380624 2.17128163,144.657969 1.95201633,144.879846 C1.72442449,145.101722 1.4552,145.209887 1.14711837,145.209887 C0.830710204,145.209887 0.558710204,145.101722 0.331118367,144.879846 C0.111853061,144.657969 0.000832653061,144.380624 0.000832653061,144.067223 L0.000832653061,128.818759 C0.000832653061,128.510905 0.111853061,128.244653 0.331118367,128.011683 C0.558710204,127.795354 0.830710204,127.687189 1.14711837,127.687189 L7.16164898,127.687189 C7.47805714,127.687189 7.74728163,127.795354 7.96654694,128.011683 C8.19413878,128.244653 8.30793469,128.510905 8.30793469,128.818759 C8.30793469,129.13216 8.19413878,129.403958 7.96654694,129.620288 C7.74728163,129.853258 7.47805714,129.961423 7.16164898,129.961423 L2.28230204,129.961423 Z" id="Fill-9" fill="#404041"></path>
                <path d="M17.4174367,142.929551 C17.7338449,142.929551 18.0030694,143.043263 18.2223347,143.259593 C18.4499265,143.487016 18.5637224,143.758815 18.5637224,144.066668 C18.5637224,144.380069 18.4499265,144.657415 18.2223347,144.879291 C18.0030694,145.101168 17.7338449,145.209333 17.4174367,145.209333 L11.4056816,145.209333 C11.0892735,145.209333 10.814498,145.101168 10.5869061,144.879291 C10.3676408,144.657415 10.2593959,144.380069 10.2593959,144.066668 L10.2593959,128.818204 C10.2593959,128.510351 10.3676408,128.244099 10.5869061,128.011128 C10.814498,127.794799 11.0892735,127.686634 11.4056816,127.686634 L17.4174367,127.686634 C17.7338449,127.686634 18.0030694,127.794799 18.2223347,128.011128 C18.4499265,128.244099 18.5637224,128.510351 18.5637224,128.818204 C18.5637224,129.131605 18.4499265,129.403404 18.2223347,129.619733 C18.0030694,129.852704 17.7338449,129.960868 17.4174367,129.960868 L12.5380898,129.960868 L12.5380898,134.689612 L16.684702,134.689612 C17.0038857,134.689612 17.2758857,134.803324 17.5034776,135.019653 C17.7227429,135.244303 17.8309878,135.507781 17.8309878,135.826729 C17.8309878,136.142903 17.7227429,136.411928 17.5034776,136.631031 C17.2758857,136.858455 17.0038857,136.972167 16.684702,136.972167 L12.5380898,136.972167 L12.5380898,142.929551 L17.4174367,142.929551 Z" id="Fill-11" fill="#404041"></path>
                <path d="M28.6144,142.929551 C28.9308082,142.929551 29.2000327,143.043263 29.419298,143.259593 C29.6468898,143.487016 29.7606857,143.758815 29.7606857,144.066668 C29.7606857,144.380069 29.6468898,144.657415 29.419298,144.879291 C29.2000327,145.101168 28.9308082,145.209333 28.6144,145.209333 L22.0281143,145.209333 C21.7117061,145.209333 21.4397061,145.101168 21.2121143,144.879291 C20.992849,144.657415 20.8818286,144.380069 20.8818286,144.066668 L20.8818286,128.612969 C20.8818286,128.294021 20.992849,128.027769 21.2121143,127.805893 C21.4397061,127.578469 21.7117061,127.464757 22.0281143,127.464757 C22.3361959,127.464757 22.6054204,127.578469 22.8330122,127.805893 C23.0522776,128.027769 23.163298,128.294021 23.163298,128.612969 L23.163298,142.929551 L28.6144,142.929551 Z" id="Fill-13" fill="#404041"></path>
                <path d="M41.8116735,144.126852 C41.8116735,144.176775 41.808898,144.218376 41.8005714,144.262752 L41.8005714,144.284939 C41.7284082,144.651036 41.5257959,144.917288 41.2010612,145.075375 C40.9179592,145.222368 40.6293061,145.247329 40.3378776,145.150258 C40.0353469,145.053187 39.8105306,144.870139 39.6662041,144.587246 L33.9958367,133.227168 L33.9958367,144.06861 C33.9958367,144.38201 33.8848163,144.651036 33.6627755,144.870139 C33.4351837,145.097562 33.1687347,145.211274 32.8578776,145.211274 C32.5414694,145.211274 32.2694694,145.097562 32.0418776,144.870139 C31.8226122,144.651036 31.7115918,144.38201 31.7115918,144.06861 L31.7115918,128.39026 C31.7115918,128.076859 31.8226122,127.805061 32.0418776,127.588731 C32.2694694,127.361308 32.5414694,127.247596 32.8578776,127.247596 C33.2159184,127.247596 33.5156735,127.394589 33.7515918,127.685802 L33.7515918,127.696896 C33.7821224,127.730177 33.8098776,127.774553 33.8348571,127.832795 C33.8431837,127.832795 33.8515102,127.838342 33.8598367,127.843889 C33.8598367,127.86053 33.8653878,127.866077 33.8737143,127.866077 L39.5440816,139.223381 L39.5440816,128.39026 C39.5440816,128.076859 39.655102,127.805061 39.8743673,127.588731 C40.0936327,127.361308 40.3628571,127.247596 40.6792653,127.247596 C40.9956735,127.247596 41.264898,127.361308 41.4841633,127.588731 C41.7117551,127.805061 41.825551,128.076859 41.825551,128.39026 L41.825551,144.06861 L41.825551,144.029781 C41.825551,144.029781 41.82,144.063063 41.8116735,144.126852" id="Fill-15" fill="#404041"></path>
                <path d="M53.2659265,122.014915 C53.3630694,122.317222 53.3380898,122.605662 53.1937633,122.880234 L51.9475592,125.25986 C51.8032327,125.537205 51.5784163,125.720253 51.2758857,125.80623 C50.9761306,125.903301 50.6819265,125.883887 50.3988245,125.736894 C50.1212735,125.589901 49.9408653,125.368024 49.852049,125.065718 C49.7521306,124.766184 49.7771102,124.474971 49.9242122,124.197626 L51.1676408,121.820773 C51.3147429,121.548975 51.5367837,121.365927 51.8365388,121.271629 C52.1390694,121.174558 52.4277224,121.202293 52.7052735,121.349286 C52.980049,121.496279 53.1687837,121.718156 53.2659265,122.014915 M47.2763755,130.37966 C46.7073959,130.948219 46.4215184,131.630489 46.4215184,132.426471 L46.4215184,140.031289 C46.4215184,140.827271 46.7073959,141.509541 47.2763755,142.0781 C47.8370286,142.646659 48.5198041,142.929551 49.324702,142.929551 C50.1212735,142.929551 50.804049,142.646659 51.3730286,142.0781 C51.9420082,141.509541 52.2278857,140.827271 52.2278857,140.031289 L52.2278857,132.426471 C52.2278857,131.630489 51.9420082,130.948219 51.3730286,130.37966 C50.804049,129.816649 50.1212735,129.539303 49.324702,129.539303 C48.5198041,129.539303 47.8370286,129.816649 47.2763755,130.37966 M49.1553959,122.014915 C49.2525388,122.317222 49.2275592,122.605662 49.0804571,122.880234 L47.8370286,125.25986 C47.6899265,125.537205 47.4678857,125.720253 47.1681306,125.80623 C46.8656,125.903301 46.5741714,125.883887 46.2882939,125.736894 C46.0135184,125.589901 45.8275592,125.368024 45.7387429,125.065718 C45.6416,124.766184 45.6665796,124.474971 45.8109061,124.197626 L47.0571102,121.820773 C47.2014367,121.548975 47.4262531,121.365927 47.7287837,121.271629 C48.0285388,121.174558 48.3171918,121.202293 48.5919673,121.349286 C48.8695184,121.496279 49.0554776,121.718156 49.1553959,122.014915 M45.6665796,143.686705 C44.6507429,142.67994 44.1428245,141.462393 44.1428245,140.031289 L44.1428245,132.426471 C44.1428245,131.006462 44.6507429,129.788914 45.6665796,128.771056 C46.6740898,127.761517 47.8925388,127.259522 49.324702,127.259522 C50.7568653,127.259522 51.9753143,127.761517 52.9828245,128.771056 C54.0014367,129.788914 54.5093551,131.006462 54.5093551,132.426471 L54.5093551,140.031289 C54.5093551,141.462393 54.0014367,142.67994 52.9828245,143.686705 C51.9753143,144.707337 50.7568653,145.209333 49.324702,145.209333 C47.8925388,145.209333 46.6740898,144.707337 45.6665796,143.686705" id="Fill-17" fill="#404041"></path>
                <path d="M64.7365551,127.415667 C65.0529633,127.415667 65.3221878,127.523832 65.5414531,127.745709 C65.7607184,127.973132 65.8717388,128.244931 65.8717388,128.547238 C65.8717388,128.866185 65.7607184,129.132437 65.5414531,129.354313 C65.3221878,129.581737 65.0529633,129.695449 64.7365551,129.695449 L61.6862694,129.695449 L61.6862694,144.0675 C61.6862694,144.380901 61.5780245,144.658247 61.3587592,144.880123 C61.1311673,145.102 60.8619429,145.210165 60.5538612,145.210165 C60.2374531,145.210165 59.9682286,145.102 59.7489633,144.880123 C59.5213714,144.658247 59.4075755,144.380901 59.4075755,144.0675 L59.4075755,129.695449 L56.3683918,129.695449 C56.0519837,129.695449 55.7799837,129.581737 55.5523918,129.354313 C55.3331265,129.132437 55.2221061,128.866185 55.2221061,128.547238 C55.2221061,128.244931 55.3331265,127.973132 55.5523918,127.745709 C55.7799837,127.523832 56.0519837,127.415667 56.3683918,127.415667 L64.7365551,127.415667 Z" id="Fill-19" fill="#404041"></path>
                <path d="M76.8605388,127.415667 C77.1769469,127.415667 77.4461714,127.523832 77.6654367,127.745709 C77.884702,127.973132 77.9929469,128.244931 77.9929469,128.547238 C77.9929469,128.866185 77.884702,129.132437 77.6654367,129.354313 C77.4461714,129.581737 77.1769469,129.695449 76.8605388,129.695449 L73.8102531,129.695449 L73.8102531,144.0675 C73.8102531,144.380901 73.6992327,144.658247 73.4827429,144.880123 C73.2523755,145.102 72.9859265,145.210165 72.6750694,145.210165 C72.3614367,145.210165 72.0894367,145.102 71.8729469,144.880123 C71.6425796,144.658247 71.5315592,144.380901 71.5315592,144.0675 L71.5315592,129.695449 L68.4923755,129.695449 C68.1759673,129.695449 67.9011918,129.581737 67.6736,129.354313 C67.4571102,129.132437 67.3460898,128.866185 67.3460898,128.547238 C67.3460898,128.244931 67.4571102,127.973132 67.6736,127.745709 C67.9011918,127.523832 68.1759673,127.415667 68.4923755,127.415667 L76.8605388,127.415667 Z" id="Fill-21" fill="#404041"></path>
                <path d="M86.9839347,142.929551 C87.3031184,142.929551 87.5695673,143.043263 87.7916082,143.259593 C88.0164245,143.487016 88.1329959,143.758815 88.1329959,144.066668 C88.1329959,144.380069 88.0164245,144.657415 87.7916082,144.879291 C87.5695673,145.101168 87.3031184,145.209333 86.9839347,145.209333 L80.9721796,145.209333 C80.6557714,145.209333 80.3809959,145.101168 80.1534041,144.879291 C79.9369143,144.657415 79.8258939,144.380069 79.8258939,144.066668 L79.8258939,128.818204 C79.8258939,128.510351 79.9369143,128.244099 80.1534041,128.011128 C80.3809959,127.794799 80.6557714,127.686634 80.9721796,127.686634 L86.9839347,127.686634 C87.3031184,127.686634 87.5695673,127.794799 87.7916082,128.011128 C88.0164245,128.244099 88.1329959,128.510351 88.1329959,128.818204 C88.1329959,129.131605 88.0164245,129.403404 87.7916082,129.619733 C87.5695673,129.852704 87.3031184,129.960868 86.9839347,129.960868 L82.1045878,129.960868 L82.1045878,134.689612 L86.2512,134.689612 C86.5731592,134.689612 86.8423837,134.803324 87.0699755,135.019653 C87.2892408,135.244303 87.4002612,135.507781 87.4002612,135.826729 C87.4002612,136.142903 87.2892408,136.411928 87.0699755,136.631031 C86.8423837,136.858455 86.5731592,136.972167 86.2512,136.972167 L82.1045878,136.972167 L82.1045878,142.929551 L86.9839347,142.929551 Z" id="Fill-23" fill="#404041"></path>
                <path d="M99.8317714,143.406308 C100.014955,143.661466 100.087118,143.941586 100.037159,144.246666 C99.9899755,144.560066 99.8428735,144.804131 99.5986286,144.992726 C99.3460571,145.178547 99.0657306,145.247884 98.757649,145.197961 C98.4467918,145.150813 98.1997714,144.998272 98.0138122,144.748661 L92.7292408,137.593143 L92.7292408,144.066391 C92.7292408,144.382565 92.6209959,144.65159 92.4017306,144.86792 C92.1741388,145.095343 91.9076898,145.209055 91.5968327,145.209055 C91.2804245,145.209055 91.005649,145.095343 90.7780571,144.86792 C90.5615673,144.65159 90.4505469,144.382565 90.4505469,144.066391 L90.4505469,128.390815 C90.4505469,128.077414 90.5615673,127.805615 90.7780571,127.589286 C91.005649,127.367409 91.2804245,127.259244 91.5968327,127.259244 C91.9076898,127.259244 92.1741388,127.367409 92.4017306,127.589286 C92.6209959,127.805615 92.7292408,128.077414 92.7292408,128.390815 L92.7292408,134.007064 L98.0609959,127.647528 C98.2663837,127.414558 98.5189551,127.281432 98.8298122,127.259244 C99.1489959,127.23151 99.4237714,127.323034 99.6596898,127.522723 C99.8928327,127.730732 100.026057,127.983117 100.048261,128.293744 C100.076016,128.601597 99.9844245,128.878943 99.7818122,129.111913 L94.1947102,135.762662 L99.8317714,143.406308 Z" id="Fill-25" fill="#404041"></path>
                <path d="M112.52751,144.126852 C112.52751,144.176775 112.521959,144.218376 112.513633,144.262752 L112.513633,144.284939 C112.444245,144.651036 112.241633,144.917288 111.916898,145.075375 C111.633796,145.222368 111.342367,145.247329 111.050939,145.150258 C110.748408,145.053187 110.526367,144.870139 110.382041,144.587246 L104.708898,133.227168 L104.708898,144.06861 C104.708898,144.38201 104.600653,144.651036 104.378612,144.870139 C104.15102,145.097562 103.884571,145.211274 103.573714,145.211274 C103.257306,145.211274 102.985306,145.097562 102.754939,144.870139 C102.538449,144.651036 102.427429,144.38201 102.427429,144.06861 L102.427429,128.39026 C102.427429,128.076859 102.538449,127.805061 102.754939,127.588731 C102.985306,127.361308 103.257306,127.247596 103.573714,127.247596 C103.931755,127.247596 104.228735,127.394589 104.464653,127.685802 L104.464653,127.696896 C104.495184,127.730177 104.525714,127.774553 104.550694,127.832795 C104.55902,127.832795 104.567347,127.838342 104.575673,127.843889 C104.575673,127.86053 104.578449,127.866077 104.589551,127.866077 L110.259918,139.223381 L110.259918,128.39026 C110.259918,128.076859 110.368163,127.805061 110.590204,127.588731 C110.806694,127.361308 111.078694,127.247596 111.392327,127.247596 C111.71151,127.247596 111.977959,127.361308 112.2,127.588731 C112.424816,127.805061 112.541388,128.076859 112.541388,128.39026 L112.541388,144.06861 L112.541388,144.029781 C112.541388,144.029781 112.535837,144.063063 112.52751,144.126852" id="Fill-27" fill="#404041"></path>
                <path d="M122.382792,142.929551 C122.701976,142.929551 122.968424,143.043263 123.190465,143.259593 C123.415282,143.487016 123.531853,143.758815 123.531853,144.066668 C123.531853,144.380069 123.415282,144.657415 123.190465,144.879291 C122.968424,145.101168 122.701976,145.209333 122.382792,145.209333 L116.371037,145.209333 C116.054629,145.209333 115.779853,145.101168 115.552261,144.879291 C115.335771,144.657415 115.224751,144.380069 115.224751,144.066668 L115.224751,128.818204 C115.224751,128.510351 115.335771,128.244099 115.552261,128.011128 C115.779853,127.794799 116.054629,127.686634 116.371037,127.686634 L122.382792,127.686634 C122.701976,127.686634 122.968424,127.794799 123.190465,128.011128 C123.415282,128.244099 123.531853,128.510351 123.531853,128.818204 C123.531853,129.131605 123.415282,129.403404 123.190465,129.619733 C122.968424,129.852704 122.701976,129.960868 122.382792,129.960868 L117.503445,129.960868 L117.503445,134.689612 L121.650057,134.689612 C121.972016,134.689612 122.241241,134.803324 122.468833,135.019653 C122.688098,135.244303 122.799118,135.507781 122.799118,135.826729 C122.799118,136.142903 122.688098,136.411928 122.468833,136.631031 C122.241241,136.858455 121.972016,136.972167 121.650057,136.972167 L117.503445,136.972167 L117.503445,142.929551 L122.382792,142.929551 Z" id="Fill-29" fill="#404041"></path>
                <g id="Group-33" transform="translate(124.897959, 126.793326)">
                    <mask id="mask-2" fill="white">
                        <use xlink:href="#path-1"></use>
                    </mask>
                    <g id="Clip-32"></g>
                    <path d="M10.3323918,16.6129823 C10.5155755,16.8681403 10.5877388,17.1482594 10.5377796,17.4533396 C10.4905959,17.7667402 10.3434939,18.0108044 10.099249,18.1993994 C9.84667755,18.385221 9.56635102,18.4545574 9.25826939,18.4046352 C8.94741224,18.3574864 8.70039184,18.2049463 8.51443265,17.9553352 L3.22986122,10.7998173 L3.22986122,17.2730649 C3.22986122,17.589239 3.12161633,17.8582643 2.90235102,18.0745939 C2.67475918,18.3020173 2.4083102,18.415729 2.09745306,18.415729 C1.7810449,18.415729 1.50626939,18.3020173 1.27867755,18.0745939 C1.06218776,17.8582643 0.951167347,17.589239 0.951167347,17.2730649 L0.951167347,1.59748849 C0.951167347,1.2840879 1.06218776,1.01228915 1.27867755,0.795959543 C1.50626939,0.574083019 1.7810449,0.465918213 2.09745306,0.465918213 C2.4083102,0.465918213 2.67475918,0.574083019 2.90235102,0.795959543 C3.12161633,1.01228915 3.22986122,1.2840879 3.22986122,1.59748849 L3.22986122,7.21373801 L8.56161633,0.854202131 C8.76700408,0.62123178 9.01957551,0.488105866 9.33043265,0.465918213 C9.64961633,0.438183648 9.92439184,0.529707714 10.1603102,0.729396586 C10.3934531,0.937405827 10.5266776,1.18979037 10.5488816,1.50041751 C10.5766367,1.80827118 10.4850449,2.08561684 10.2824327,2.31858719 L4.69533061,8.969336 L10.3323918,16.6129823 Z" id="Fill-31" fill="#404041" mask="url(#mask-2)"></path>
                </g>
                <path d="M106.846318,117.034065 C106.438318,117.034065 106.030318,116.85379 105.755543,116.507108 C105.283706,115.905268 105.3864,115.031629 105.98591,114.557368 C121.029176,102.695294 129.658237,84.9285317 129.658237,65.8110957 C129.658237,31.5977356 101.79489,3.76609914 67.5450939,3.76609914 C33.311951,3.76609914 5.45970612,31.5977356 5.45970612,65.8110957 C5.45970612,84.9285317 14.0859918,102.695294 29.1292571,114.557368 C29.7315429,115.031629 29.8342367,115.905268 29.3596245,116.507108 C28.8850122,117.108948 28.013502,117.208793 27.4112163,116.737305 C11.6962776,104.342728 2.68419592,85.7799829 2.68419592,65.8110957 C2.68419592,30.0723345 31.7798694,0.992642588 67.5450939,0.992642588 C103.324196,0.992642588 132.433747,30.0723345 132.433747,65.8110957 C132.433747,85.7799829 123.421665,104.342728 107.706727,116.737305 C107.45138,116.936994 107.146073,117.034065 106.846318,117.034065" id="Fill-34" fill="#404041"></path>
                <path d="M45.0748408,61.6137465 C36.9925551,61.6137465 30.0565551,56.1278495 28.2052898,48.276194 C28.0276571,47.5329076 28.4883918,46.7868478 29.2377796,46.61212 C29.9899429,46.423525 30.7310041,46.9005595 30.9058612,47.6438459 C32.4601469,54.2363521 38.2887184,58.84029 45.0748408,58.84029 C51.505698,58.84029 57.1011265,54.7189335 58.9940245,48.5812742 C59.2160653,47.8490817 59.9932082,47.4302897 60.7287184,47.6660335 C61.4586776,47.8906835 61.8722286,48.6672513 61.6446367,49.3994439 C59.3909224,56.701955 52.7324735,61.6137465 45.0748408,61.6137465" id="Fill-36" fill="#404041"></path>
                <path d="M29.5547429,49.3470255 C28.9219265,49.3470255 28.3529469,48.9171398 28.2058449,48.2764713 C27.8977633,46.9784936 27.7451102,45.6361407 27.7451102,44.2910142 C27.7451102,34.7364564 35.5193143,26.9680046 45.0809469,26.9680046 C54.6370286,26.9680046 62.4112327,34.7364564 62.4112327,44.2910142 L62.4001306,44.9677376 C62.380702,45.7304382 61.7506612,46.4182554 60.9790694,46.3267314 C60.2130286,46.3073172 59.6051918,45.680516 59.6246204,44.915042 L59.6357224,44.2910142 C59.6357224,36.2674044 53.1049469,29.7414612 45.0809469,29.7414612 C37.0513959,29.7414612 30.5206204,36.2674044 30.5206204,44.2910142 C30.5206204,45.4225845 30.6510694,46.5513813 30.9036408,47.6441232 C31.0812735,48.3874096 30.6177633,49.1362428 29.871151,49.3081972 C29.7656816,49.3359317 29.6574367,49.3470255 29.5547429,49.3470255" id="Fill-38" fill="#404041"></path>
                <path d="M61.0123755,68.9697853 C60.8014367,68.9697853 60.5877224,68.9198631 60.3851102,68.8200187 C56.9018449,67.0588738 53.1715592,65.9189831 49.2941714,65.4419486 C48.5336816,65.3448776 47.9952327,64.6542869 48.0896,63.8943599 C48.1811918,63.1344328 48.8917224,62.576968 49.6355592,62.6879063 C53.8293551,63.2093161 57.8677224,64.4379573 61.6396408,66.3460954 C62.3251918,66.6927775 62.5971918,67.5248145 62.2502531,68.2098582 C62.0060082,68.6896662 61.5175184,68.9697853 61.0123755,68.9697853" id="Fill-40" fill="#404041"></path>
                <path d="M29.1264816,68.9781057 C28.6213388,68.9781057 28.1356245,68.7007601 27.8886041,68.2209521 C27.5416653,67.5359083 27.8136653,66.7010979 28.4964408,66.3544158 C32.2683592,64.4435042 36.3122776,63.2093161 40.5171755,62.6879063 C41.2610122,62.5797414 41.9715429,63.1372062 42.0659102,63.8943599 C42.1602776,64.6542869 41.6218286,65.3448776 40.8613388,65.4419486 C36.972849,65.9217566 33.2342367,67.0616472 29.7565224,68.8283391 C29.5539102,68.9281835 29.3374204,68.9781057 29.1264816,68.9781057" id="Fill-42" fill="#404041"></path>
                <path d="M24.0525714,81.355765 C23.8777143,81.355765 23.6973061,81.3224835 23.528,81.2531471 C22.8174694,80.9591607 22.4788571,80.1493114 22.7675102,79.4448534 L27.8466939,67.0669168 C28.1381224,66.3569119 28.9652245,66.0185502 29.659102,66.3069897 C30.3668571,66.6009761 30.7054694,67.4108254 30.4168163,68.1180568 L25.3376327,80.49322 C25.1183673,81.0312705 24.5965714,81.355765 24.0525714,81.355765" id="Fill-44" fill="#404041"></path>
                <path d="M69.2306612,88.9827705 C68.6866612,88.9827705 68.1648653,88.6582761 67.9456,88.1202255 L59.7384163,68.1180568 C59.4497633,67.4108254 59.7883755,66.6009761 60.4989061,66.3069897 C61.1955592,66.0213237 62.0171102,66.3569119 62.3085388,67.0669168 L70.5157224,87.0718589 C70.8043755,87.7763169 70.4657633,88.5861662 69.7552327,88.8801526 C69.5859265,88.949489 69.4055184,88.9827705 69.2306612,88.9827705" id="Fill-46" fill="#404041"></path>
                <path d="M45.0748408,69.839264 C44.7195755,69.839264 44.3643102,69.7033646 44.0923102,69.4343393 C43.5510857,68.8907418 43.5510857,68.0143296 44.0923102,67.4707321 L48.4859429,63.0831238 C49.0271673,62.5422998 49.9042286,62.5422998 50.4482286,63.0831238 C50.9894531,63.6267213 50.9894531,64.5031336 50.4482286,65.0439576 L46.0573714,69.4343393 C45.7853714,69.7033646 45.4301061,69.839264 45.0748408,69.839264" id="Fill-48" fill="#404041"></path>
                <path d="M45.0748408,69.8364905 C44.7195755,69.8364905 44.3643102,69.7005911 44.0923102,69.4315659 L39.7070041,65.0439576 C39.1657796,64.5031336 39.1657796,63.6267213 39.7070041,63.0831238 C40.2510041,62.5422998 41.1280653,62.5422998 41.6692898,63.0831238 L46.0573714,67.4679586 C46.5985959,68.0115561 46.5985959,68.8879684 46.0573714,69.4315659 C45.7853714,69.7005911 45.4301061,69.8364905 45.0748408,69.8364905" id="Fill-50" fill="#404041"></path>
                <path d="M45.0695673,89.9631874 C44.3035265,89.9631874 43.6818122,89.3419331 43.6818122,88.5764591 L43.6818122,75.0558584 C43.6818122,74.2903844 44.3035265,73.6691301 45.0695673,73.6691301 C45.8356082,73.6691301 46.4573224,74.2903844 46.4573224,75.0558584 L46.4573224,88.5764591 C46.4573224,89.3419331 45.8356082,89.9631874 45.0695673,89.9631874" id="Fill-52" fill="#404041"></path>
                <path d="M35.7074939,46.7335974 C33.2789224,46.7335974 30.9141878,46.2648833 28.6826776,45.3440957 C27.9749224,45.0528828 27.6390857,44.2430334 27.9305143,43.5330286 C28.2219429,42.8257972 29.0351673,42.4818885 29.745698,42.7814218 C31.6358204,43.5635366 33.6452898,43.9601409 35.7074939,43.9601409 C43.6621061,43.9601409 50.3344327,38.01385 51.2253714,30.1289131 C51.3141878,29.3662125 52.0025143,28.8253885 52.7630041,28.9058187 C53.5234939,28.9945693 54.0702694,29.6823865 53.9842286,30.4423136 C52.9323102,39.7306196 45.0748408,46.7335974 35.7074939,46.7335974" id="Fill-54" fill="#404041"></path>
                <path d="M60.9987755,46.5086701 C60.9238367,46.5086701 60.8461224,46.5031232 60.7739592,46.4892559 C55.8668571,45.6905004 51.4288163,42.8698951 48.5922449,38.7485387 C48.1592653,38.118964 48.3202449,37.2536456 48.9502857,36.8209864 C49.5858776,36.3911006 50.4462857,36.5464142 50.8792653,37.1787623 C53.2884082,40.676091 57.057551,43.0751309 61.2180408,43.7546277 C61.9785306,43.8766598 62.4892245,44.5894382 62.3643265,45.3438184 C62.2533061,46.0260887 61.664898,46.5086701 60.9987755,46.5086701" id="Fill-56" fill="#404041"></path>
                <path d="M89.667298,70.5489915 C81.5877878,70.5489915 74.6490122,65.0658679 72.7921959,57.2169859 C72.6145633,56.4736995 73.075298,55.7248662 73.8219102,55.5501385 C74.576849,55.35877 75.3179102,55.833031 75.4927673,56.5790908 C77.0526041,63.1715971 82.8811755,67.775535 89.667298,67.775535 C96.0953796,67.775535 101.688033,63.656952 103.580931,57.5220661 C103.805747,56.7898735 104.585665,56.3683082 105.315624,56.6068254 C106.045584,56.8314754 106.459135,57.6080432 106.231543,58.3402358 C103.977829,65.6399734 97.3221551,70.5489915 89.667298,70.5489915" id="Fill-58" fill="#404041"></path>
                <path d="M74.1419265,58.285044 C73.5091102,58.285044 72.9401306,57.8551582 72.7930286,57.2144897 C72.4849469,55.9165121 72.3322939,54.5741591 72.3322939,53.2290327 C72.3322939,43.6772483 80.106498,35.9087965 89.6681306,35.9087965 C99.2242122,35.9087965 106.998416,43.6772483 106.998416,53.2290327 L106.987314,53.9223968 C106.967886,54.6740035 106.348947,55.2730702 105.599559,55.2730702 L105.563478,55.2730702 C104.800212,55.253656 104.192376,54.6185344 104.211804,53.8502869 L104.222906,53.2290327 C104.222906,45.2054229 97.6921306,38.6822531 89.6681306,38.6822531 C81.6385796,38.6822531 75.1078041,45.2054229 75.1078041,53.2290327 C75.1078041,54.360603 75.2382531,55.4893998 75.4908245,56.5821417 C75.6684571,57.325428 75.2049469,58.0742613 74.4583347,58.2462156 C74.3528653,58.2739501 74.2446204,58.285044 74.1419265,58.285044" id="Fill-60" fill="#404041"></path>
                <path d="M105.599559,78.5279487 C105.38862,78.5279487 105.174906,78.4780264 104.972294,78.378182 C101.497355,76.6198106 97.7698449,75.4799199 93.8869061,74.9973385 C93.1264163,74.9002675 92.5879673,74.2069034 92.6823347,73.4497497 C92.7739265,72.6898226 93.5066612,72.1351313 94.2282939,72.2432961 C98.4304163,72.7674794 102.466008,73.9988941 106.226824,75.9042588 C106.912376,76.2509408 107.184376,77.0829778 106.837437,77.7680216 C106.590416,78.250603 106.104702,78.5279487 105.599559,78.5279487" id="Fill-62" fill="#404041"></path>
                <path d="M73.7136653,78.5334956 C73.2057469,78.5334956 72.7200327,78.2533765 72.4757878,77.7735685 C72.128849,77.0885247 72.4036245,76.2564877 73.0864,75.9098057 C76.8610939,74.0016676 80.9050122,72.7674794 85.1043592,72.2405227 C85.8370939,72.1351313 86.5587265,72.6815022 86.6530939,73.4442028 C86.7474612,74.2041299 86.2090122,74.897494 85.451298,74.994565 C81.5655837,75.4771465 77.8269714,76.622584 74.3409306,78.3837289 C74.1383184,78.4835734 73.9246041,78.5334956 73.7136653,78.5334956" id="Fill-64" fill="#404041"></path>
                <path d="M65.5117551,98.5406564 C65.336898,98.5406564 65.1564898,98.507375 64.9871837,98.4380386 C64.2766531,98.1440522 63.9380408,97.3342028 64.2266939,96.6297449 L72.4338776,76.6220293 C72.7280816,75.9120244 73.5496327,75.5792097 74.2435102,75.8621022 C74.9540408,76.1560886 75.2926531,76.9659379 75.004,77.6731693 L66.7968163,97.6781115 C66.577551,98.216162 66.0557551,98.5406564 65.5117551,98.5406564" id="Fill-66" fill="#404041"></path>
                <path d="M111.063706,91.8238994 C110.519706,91.8238994 109.99791,91.499405 109.778645,90.9613544 L104.324767,77.6709506 C104.036114,76.9664926 104.374727,76.1566433 105.085257,75.8626569 C105.790237,75.5797643 106.606237,75.9125791 106.89489,76.622584 L112.348767,89.9129878 C112.63742,90.6174458 112.298808,91.4272951 111.588278,91.7212815 C111.418971,91.7906179 111.238563,91.8238994 111.063706,91.8238994" id="Fill-68" fill="#404041"></path>
                <path d="M89.667298,85.6132981 C89.4924408,85.6132981 89.3092571,85.5800166 89.1371755,85.5079068 C88.4294204,85.2139204 88.0935837,84.4040711 88.3850122,83.6968396 L92.7758694,73.0883683 C93.067298,72.3811369 93.8805224,72.0400017 94.5882776,72.3395351 C95.2960327,72.630748 95.6318694,73.4405973 95.3404408,74.1506022 L90.9495837,84.7563 C90.7303184,85.2915772 90.211298,85.6132981 89.667298,85.6132981" id="Fill-70" fill="#404041"></path>
                <path d="M89.667298,85.6132981 C89.1149714,85.6132981 88.5931755,85.2832568 88.3766857,84.7368858 L84.1745633,74.1284145 C83.8942367,73.4211831 84.243951,72.6141073 84.9572571,72.3312147 C85.6566857,72.0455487 86.4726857,72.3922307 86.7557878,73.110556 L90.9579102,83.7162538 C91.2382367,84.4262587 90.8885224,85.2333346 90.1779918,85.5162271 C90.0114612,85.5827901 89.8393796,85.6132981 89.667298,85.6132981" id="Fill-72" fill="#404041"></path>
                <path d="M89.6564735,99.1746686 C88.8904327,99.1746686 88.2687184,98.5534143 88.2687184,97.7879403 L88.2687184,95.4138615 C88.2687184,94.6456141 88.8904327,94.0271333 89.6564735,94.0271333 C90.4225143,94.0271333 91.0442286,94.6456141 91.0442286,95.4138615 L91.0442286,97.7879403 C91.0442286,98.5534143 90.4225143,99.1746686 89.6564735,99.1746686" id="Fill-74" fill="#404041"></path>
                <path d="M89.659249,91.3282827 C89.2984327,91.3282827 88.9376163,91.1618753 88.6878204,90.9122642 C88.4102694,90.6626531 88.2714939,90.3021038 88.2714939,89.9138198 C88.2714939,89.5532705 88.4102694,89.1899477 88.6600653,88.9431101 C89.1874122,88.4161533 90.1310857,88.4161533 90.6334531,88.9431101 C90.9082286,89.2204557 91.0470041,89.5532705 91.0470041,89.9138198 C91.0470041,90.2743692 90.9082286,90.6349185 90.6334531,90.9122642 C90.3808816,91.1618753 90.0200653,91.3282827 89.659249,91.3282827" id="Fill-76" fill="#404041"></path>
                <path d="M105.585959,55.4491846 C105.51102,55.4491846 105.433306,55.4436377 105.358367,55.4297705 C100.451265,54.6226946 96.0132245,51.8020893 93.1794286,47.6862798 C92.746449,47.0567051 92.9074286,46.1913867 93.5374694,45.7587275 C94.1647347,45.3288417 95.0362449,45.4813818 95.466449,46.1165034 C97.8755918,49.6138321 101.641959,52.0100985 105.808,52.6951423 C106.565714,52.8199478 107.076408,53.5327262 106.95151,54.2871064 C106.84049,54.9666032 106.252082,55.4491846 105.585959,55.4491846" id="Fill-78" fill="#404041"></path>
                <path d="M69.9514612,58.7346213 C69.1854204,58.7346213 68.5637061,58.113367 68.5637061,57.347893 C68.5637061,56.582419 69.1854204,55.9611647 69.9514612,55.9611647 C78.5555429,55.9611647 86.1437878,50.1785078 88.4086041,41.89974 C88.6139918,41.1620006 89.3772571,40.7376617 90.1155429,40.9262568 C90.8538286,41.1287191 91.2868082,41.8914196 91.0869714,42.6291591 C88.4946449,52.111607 79.8017469,58.7346213 69.9514612,58.7346213" id="Fill-80" fill="#404041"></path>
                <path d="M69.4854531,66.9088298 C69.0358204,66.9088298 68.5917388,66.6897267 68.3252898,66.2820286 C67.9061878,65.6413601 68.0838204,64.7815886 68.7249633,64.3627967 C71.2506776,62.7070431 72.7605551,59.9169458 72.7605551,56.9021985 C72.7605551,56.1339511 73.3794939,55.5154703 74.1483102,55.5154703 C74.914351,55.5154703 75.5360653,56.1339511 75.5360653,56.9021985 C75.5360653,60.8543741 73.559902,64.5125633 70.2459429,66.6814063 C70.0100245,66.8367199 69.7491265,66.9088298 69.4854531,66.9088298" id="Fill-82" fill="#404041"></path>
                <path d="M109.556882,66.9032829 C109.293208,66.9032829 109.029535,66.831173 108.793616,66.673086 C105.821045,64.7150256 103.922596,61.5754728 103.578433,58.0615034 C103.503494,57.2960294 104.064147,56.619306 104.824637,56.5444226 C105.587902,56.5166881 106.267902,57.0270041 106.342841,57.7897046 C106.603739,60.4716371 108.052555,62.8651301 110.320147,64.3600232 C110.96129,64.7788151 111.136147,65.6413601 110.714269,66.2792551 C110.44782,66.6841798 110.006514,66.9032829 109.556882,66.9032829" id="Fill-84" fill="#404041"></path>
                <path d="M75.1991184,68.7667683 C75.0825469,68.7667683 74.9604245,68.752901 74.8410776,68.7196196 C72.912098,68.2065301 70.9414857,67.5658616 68.9930776,66.8170284 C68.2769959,66.5396827 67.9217306,65.7381538 68.1965061,65.022602 C68.4685061,64.3125971 69.2678531,63.9575947 69.9894857,64.2266199 C71.846302,64.9421717 73.7197714,65.5523322 75.5571592,66.0404605 C76.2982204,66.2373759 76.736751,66.9945296 76.5396898,67.7378159 C76.3759347,68.3590702 75.8152816,68.7667683 75.1991184,68.7667683" id="Fill-86" fill="#404041"></path>
                <path d="M89.5265796,70.6274803 C84.5445388,70.6274803 79.6041306,69.9868119 74.8413551,68.7221157 C74.1002939,68.5224268 73.6617633,67.7652732 73.856049,67.0219868 C74.0558857,66.2870208 74.808049,65.8321739 75.5574367,66.0401832 C86.520702,68.9578595 98.466498,68.3282848 109.055069,64.2291161 C109.771151,63.9545439 110.576049,64.3067728 110.850824,65.0223246 C111.128376,65.735103 110.77311,66.5366319 110.057029,66.8139776 C103.517927,69.3433699 96.6124571,70.6274803 89.5265796,70.6274803" id="Fill-88" fill="#404041"></path>
                <path d="M42.3265306,67.0441745 C41.5604898,67.0441745 40.9387755,66.4229202 40.9387755,65.6574462 L40.9387755,59.988501 C40.9387755,59.223027 41.5604898,58.6017727 42.3265306,58.6017727 C43.0925714,58.6017727 43.7142857,59.223027 43.7142857,59.988501 L43.7142857,65.6574462 C43.7142857,66.4229202 43.0925714,67.0441745 42.3265306,67.0441745" id="Fill-90" fill="#404041"></path>
                <path d="M47.828702,67.0441745 C47.0626612,67.0441745 46.4409469,66.4229202 46.4409469,65.6574462 L46.4409469,59.988501 C46.4409469,59.223027 47.0626612,58.6017727 47.828702,58.6017727 C48.5947429,58.6017727 49.2164571,59.223027 49.2164571,59.988501 L49.2164571,65.6574462 C49.2164571,66.4229202 48.5947429,67.0441745 47.828702,67.0441745" id="Fill-92" fill="#404041"></path>
                <path d="M45.0748408,56.5028208 C44.1977796,56.5028208 43.3290449,56.1894202 42.5741061,55.5959005 C41.9690449,55.1244129 41.8635755,54.2507741 42.3354122,53.6517075 C42.807249,53.041547 43.6815347,52.9361557 44.2810449,53.4131902 C44.8278204,53.837529 45.3218612,53.837529 45.8797388,53.4076433 C46.479249,52.9417026 47.3535347,53.0470939 47.8253714,53.6572544 C48.2944327,54.2618679 48.1834122,55.1327333 47.5755755,55.6014474 C46.8012082,56.200514 45.9602286,56.5028208 45.0748408,56.5028208" id="Fill-94" fill="#404041"></path>
                <path d="M39.7786122,49.1248717 C39.7786122,49.9374944 39.1235918,50.5948036 38.3103673,50.5948036 C37.4971429,50.5948036 36.8393469,49.9374944 36.8393469,49.1248717 C36.8393469,48.3150224 37.4971429,47.6577132 38.3103673,47.6577132 C39.1235918,47.6577132 39.7786122,48.3150224 39.7786122,49.1248717" id="Fill-96" fill="#404041"></path>
                <path d="M52.4038531,49.1248717 C52.4038531,49.9374944 51.7488327,50.5948036 50.9356082,50.5948036 C50.1223837,50.5948036 49.4645878,49.9374944 49.4645878,49.1248717 C49.4645878,48.3150224 50.1223837,47.6577132 50.9356082,47.6577132 C51.7488327,47.6577132 52.4038531,48.3150224 52.4038531,49.1248717" id="Fill-98" fill="#404041"></path>
                <path d="M90.1985306,65.324354 C89.3214694,65.324354 88.4527347,65.0109535 87.6977959,64.4174338 C87.0927347,63.9459461 86.9872653,63.0723073 87.459102,62.4732407 C87.9309388,61.8603068 88.8052245,61.7576889 89.4047347,62.2347235 C89.9515102,62.6590623 90.4622041,62.6562888 90.9978776,62.2347235 C91.5973878,61.7604624 92.468898,61.8630803 92.9435102,62.4732407 C93.4153469,63.0723073 93.3098776,63.9459461 92.7048163,64.4174338 C91.9498776,65.0109535 91.0811429,65.324354 90.1985306,65.324354" id="Fill-100" fill="#404041"></path>
                <path d="M84.902302,57.9464049 C84.902302,58.7590277 84.2472816,59.4135634 83.4340571,59.4135634 C82.6208327,59.4135634 81.9630367,58.7590277 81.9630367,57.9464049 C81.9630367,57.1365556 82.6208327,56.4792464 83.4340571,56.4792464 C84.2472816,56.4792464 84.902302,57.1365556 84.902302,57.9464049" id="Fill-102" fill="#404041"></path>
                <path d="M97.5330939,57.9464049 C97.5330939,58.7590277 96.8725224,59.4135634 96.059298,59.4135634 C95.2460735,59.4135634 94.5882776,58.7590277 94.5882776,57.9464049 C94.5882776,57.1365556 95.2460735,56.4792464 96.059298,56.4792464 C96.8725224,56.4792464 97.5330939,57.1365556 97.5330939,57.9464049" id="Fill-104" fill="#404041"></path>
                <path d="M86.8865143,78.5983945 C86.1204735,78.5983945 85.4987592,77.9771402 85.4987592,77.2116662 L85.4987592,68.9745002 C85.4987592,68.2090262 86.1204735,67.5877719 86.8865143,67.5877719 C87.6525551,67.5877719 88.2742694,68.2090262 88.2742694,68.9745002 L88.2742694,77.2116662 C88.2742694,77.9771402 87.6525551,78.5983945 86.8865143,78.5983945" id="Fill-106" fill="#404041"></path>
                <path d="M92.4483592,78.8937676 C91.6823184,78.8937676 91.0606041,78.2725133 91.0606041,77.5070393 L91.0606041,68.9758869 C91.0606041,68.2076395 91.6823184,67.5891587 92.4483592,67.5891587 C93.2144,67.5891587 93.8361143,68.2076395 93.8361143,68.9758869 L93.8361143,77.5070393 C93.8361143,78.2725133 93.2144,78.8937676 92.4483592,78.8937676" id="Fill-108" fill="#404041"></path>
            </g>
        </g>
    </g>
</svg>