
<svg width="1366px" height="250px" viewBox="0 0 1366 250" version="1.1" xmlns="http://www.w3.org/2000/svg" xmlns:xlink="http://www.w3.org/1999/xlink">
    <!-- Generator: Sketch 44.1 (41455) - http://www.bohemiancoding.com/sketch -->
    <desc>Created with Sketch.</desc>
    <defs>
        <polygon id="path-1" points="1366 124.649533 1366 249.010417 0 249.010417 0 124.649533 0 0.288650273 1366 0.288650273 1366 124.649533"></polygon>
    </defs>
    <g id="monitor" stroke="none" stroke-width="1" fill="none" fill-rule="evenodd">
        <g id="gyerekeknek" transform="translate(0.000000, -1765.000000)">
            <g id="maci" transform="translate(0.000000, 1765.000000)">
                <polygon id="Fill-1" fill="#F45A3B" points="1366.00043 -0.000284583333 0.000426875 0.0305641372 0.000426875 224.969151 1366.00043 225"></polygon>
                <g id="Group-47" transform="translate(0.000000, 0.068300)">
                    <g id="Group-4">
                        <mask id="mask-2" fill="white">
                            <use xlink:href="#path-1"></use>
                        </mask>
                        <g id="Clip-3"></g>
                        <path d="M1366,208.727788 C1366,208.727788 1338.74545,99.0081069 1252.08698,34.7136173 C1273.05224,38.9069527 1281.0533,29.7632902 1280.08714,20.1116465 C1279.11529,10.3803194 1268.20436,-1.67036187 1256.0185,0.557925625 C1243.83264,2.78479021 1250.16462,21.076384 1219.72132,30.6953006 C1191.53619,39.601336 1176.52015,45.2460465 1152.67206,34.1074548 C1128.82398,22.9688631 1123.80393,27.8124715 1121.83888,39.2128798 C1119.87384,50.6132881 1135.72797,80.3579381 1154.33545,54.2815673 C1167.10471,220.886611 908.362965,212.911163 577.64725,143.871246 C274.622917,80.6126402 0,161.785767 0,161.785767 L0,248.976409 L1366,249.010559 L1366,208.727788 Z" id="Fill-2" fill="#FFFFFF" mask="url(#mask-2)"></path>
                    </g>
                    <path d="M1216.26748,98.9708265 C1262.01709,95.7934535 1284.67704,116.898154 1256.25713,144.037443 C1236.51416,162.891089 1210.86466,166.895176 1183.84916,151.457954 C1156.83367,136.020731 1160.69404,102.829776 1216.26748,98.9708265" id="Fill-5" fill="#E6E7E8"></path>
                    <path d="M1221.30531,136.184793 C1221.30531,136.184793 1221.55432,136.540522 1221.88444,137.19791 C1222.20175,137.853874 1222.60586,138.815766 1222.87337,140.026668 C1223.01993,140.631408 1223.14087,141.303024 1223.18498,142.027289 C1223.23052,142.754399 1223.26467,143.548387 1223.13661,144.38933 C1223.08253,144.810514 1222.97439,145.261578 1222.88475,145.71122 C1222.75669,146.17936 1222.58736,146.65746 1222.34831,147.129868 C1222.02815,147.622197 1221.83037,148.108835 1221.32523,148.588358 C1221.09614,148.824562 1220.86705,149.059343 1220.61377,149.275626 C1220.31923,149.470566 1220.01046,149.659814 1219.6903,149.824872 C1219.0571,150.176333 1218.34422,150.206214 1217.66834,150.322893 L1217.65268,150.324316 L1217.37664,150.327162 L1217.35814,150.325739 L1217.32257,150.322893 L1217.25284,150.317201 L1217.11055,150.305818 L1216.82882,150.284474 C1216.63103,150.264553 1216.51293,150.275937 1216.09174,150.183447 C1215.74171,150.10661 1215.39167,150.021235 1215.05871,149.905978 C1214.73001,149.78503 1214.52511,149.631355 1214.26045,149.489064 C1213.73966,149.214441 1213.36259,148.840214 1212.96702,148.494445 C1212.23849,147.780141 1211.78315,146.969078 1211.47153,146.234853 C1211.13003,145.503474 1210.96498,144.78917 1210.86537,144.144589 C1210.64197,142.859695 1210.73162,141.798199 1210.83976,141.06682 C1210.87818,140.703976 1210.97778,140.412278 1211.02189,140.218762 C1211.07739,140.025245 1211.10584,139.921372 1211.10584,139.921372 L1211.1215,139.865878 C1211.14142,139.79331 1211.21683,139.752045 1211.2894,139.771966 C1211.34347,139.787618 1211.38047,139.831728 1211.38758,139.882953 C1211.38758,139.882953 1211.44165,140.254335 1211.59533,140.89607 C1211.75185,141.536383 1212.00086,142.451318 1212.44481,143.487201 C1212.66109,144.006566 1212.93856,144.551543 1213.28718,145.08656 C1213.62583,145.628691 1214.06551,146.140941 1214.58061,146.587737 C1215.10993,147.004651 1215.75024,147.357535 1216.41332,147.468522 C1216.72494,147.558166 1217.1817,147.516901 1217.48905,147.539668 C1217.8149,147.430103 1218.19197,147.459985 1218.47655,147.253662 L1218.93189,147.013189 L1219.31323,146.653191 C1219.59497,146.441176 1219.73583,146.088293 1219.95069,145.810824 C1220.28935,145.179049 1220.5284,144.498895 1220.6963,143.820164 C1221.02642,142.45701 1221.1246,141.129428 1221.15448,139.99821 C1221.20998,137.725812 1221.02215,136.218943 1221.02215,136.218943 C1221.01361,136.144951 1221.06484,136.079497 1221.13883,136.069537 C1221.18863,136.063845 1221.23559,136.086612 1221.26405,136.12503 L1221.30531,136.184793 Z" id="Fill-7" fill="#231F1F"></path>
                    <path d="M1190.88435,112.498211 C1197.57063,109.059021 1213.47884,103.004511 1235.69484,108.193888 C1237.9274,108.716098 1239.01024,111.236084 1237.92597,113.256625 C1228.23307,131.326244 1204.04064,132.309479 1190.08182,117.748773 C1188.54365,116.145146 1188.90792,113.514173 1190.88435,112.498211" id="Fill-9" fill="#231F1F"></path>
                    <path d="M1231.7821,80.6319919 C1234.26225,80.1311252 1237.67156,89.6988169 1234.30636,91.2056856 C1230.94116,92.7111315 1227.29565,81.5383898 1231.7821,80.6319919" id="Fill-11" fill="#231F1F"></path>
                    <path d="M1193.9116,85.9787435 C1196.18543,85.9787435 1198.00534,95.3771081 1193.9116,94.9231977 C1189.81787,94.4678644 1191.63778,85.9787435 1193.9116,85.9787435" id="Fill-13" fill="#231F1F"></path>
                    <path d="M1152.20677,50.4802454 C1152.20677,50.4802454 1143.55117,54.7489954 1136.91042,50.4802454 C1138.57096,58.6620162 1142.36446,61.7454767 1152.20677,50.4802454" id="Fill-15" fill="#E6E7E8"></path>
                    <path d="M1250.41207,31.3704746 C1250.41207,31.3704746 1277.60116,36.7846725 1267.19964,19.34256 C1263.77752,25.3814183 1261.23762,28.7807662 1250.41207,31.3704746" id="Fill-17" fill="#E6E7E8"></path>
                    <path d="M1340.89662,186.572122 C1340.89662,186.572122 1340.66895,186.280424 1340.32318,185.782403 C1339.98453,185.284382 1339.52635,184.582884 1339.07386,183.744786 C1338.84335,183.326449 1338.58438,182.879653 1338.37094,182.398707 C1338.1447,181.920607 1337.86865,181.429701 1337.66091,180.907491 C1337.19419,179.875876 1336.78154,178.764578 1336.37459,177.657549 C1335.99752,176.539136 1335.64037,175.419301 1335.34013,174.34073 C1335.06693,173.250776 1334.80511,172.219161 1334.62867,171.288574 C1334.51626,170.836086 1334.46361,170.385022 1334.40385,169.986605 C1334.31848,169.605264 1334.28575,169.240997 1334.24448,168.94503 C1334.17903,168.343136 1334.17049,167.963218 1334.17049,167.963218 L1334.40243,167.799582 C1334.40243,167.799582 1334.58314,168.05713 1334.90045,168.508195 C1335.22203,168.956414 1335.67878,169.600995 1336.14408,170.426286 C1336.62929,171.237349 1337.14297,172.217739 1337.64099,173.289195 C1338.14612,174.359228 1338.63703,175.524597 1339.05821,176.714155 C1339.88493,179.098964 1340.4669,181.559186 1340.79417,183.418939 C1341.12002,185.280114 1341.17978,186.546509 1341.17978,186.546509 L1340.89662,186.572122 Z" id="Fill-19" fill="#E6E7E8"></path>
                    <path d="M1322.69339,175.67756 C1322.69339,175.67756 1322.45718,175.586494 1322.11142,175.424281 C1321.77276,175.259223 1321.32027,175.027288 1320.89625,174.725629 C1320.67569,174.577646 1320.44091,174.422548 1320.24882,174.237569 C1320.04534,174.058281 1319.80487,173.884685 1319.62843,173.678363 C1319.24139,173.278523 1318.91555,172.828881 1318.63808,172.359319 C1318.37199,171.882642 1318.16994,171.37466 1318.01911,170.860988 C1317.93942,170.604863 1317.91097,170.321702 1317.8569,170.067 C1317.79286,169.81799 1317.78433,169.534829 1317.75729,169.284396 C1317.70322,168.77926 1317.71176,168.276971 1317.71318,167.907013 C1317.72599,167.528517 1317.75445,167.269546 1317.75445,167.269546 L1317.94938,167.0618 C1317.94938,167.0618 1318.06606,167.167096 1318.26954,167.350652 C1318.47729,167.532785 1318.77325,167.794602 1319.08345,168.151754 C1319.71238,168.856098 1320.46795,169.867792 1321.10968,170.950631 C1321.71869,172.051969 1322.20675,173.210223 1322.52833,174.093854 C1322.84137,174.978908 1322.96659,175.5993 1322.96659,175.5993 L1322.69339,175.67756 Z" id="Fill-21" fill="#E6E7E8"></path>
                    <path d="M1346.62642,209.18924 C1346.62642,209.18924 1346.4386,209.01849 1346.17536,208.742444 C1345.91923,208.466398 1345.58058,208.08648 1345.29457,207.65249 C1345.14232,207.434784 1344.97868,207.204271 1344.86627,206.963798 C1344.74106,206.721903 1344.58027,206.474315 1344.49062,206.21819 C1344.27292,205.70594 1344.13205,205.168078 1344.0424,204.630215 C1343.96699,204.09093 1343.96272,203.543107 1344.00683,203.009513 C1344.02533,202.743428 1344.10074,202.467382 1344.14201,202.209834 C1344.17189,201.956555 1344.26722,201.687623 1344.33268,201.444305 C1344.46501,200.954821 1344.65426,200.489528 1344.78943,200.145182 C1344.93742,199.796567 1345.05694,199.564632 1345.05694,199.564632 L1345.31307,199.442261 C1345.31307,199.442261 1345.38421,199.581707 1345.50801,199.826448 C1345.63607,200.07119 1345.8182,200.42265 1345.97757,200.8666 C1346.30911,201.750232 1346.64919,202.968248 1346.85551,204.209032 C1347.02626,205.45693 1347.06326,206.713365 1347.04476,207.65249 C1347.0163,208.591615 1346.90958,209.214853 1346.90958,209.214853 L1346.62642,209.18924 Z" id="Fill-23" fill="#E6E7E8"></path>
                    <path d="M1335.77298,200.823344 C1335.77298,200.823344 1335.52397,200.67536 1335.15259,200.417813 C1334.78548,200.157419 1334.29457,199.790306 1333.81505,199.33355 C1333.56888,199.105883 1333.29995,198.866833 1333.07513,198.595056 C1332.83608,198.327548 1332.55719,198.061463 1332.34091,197.759804 C1331.86707,197.174985 1331.45158,196.52329 1331.06455,195.861633 C1330.70028,195.187171 1330.37444,194.495633 1330.11262,193.804096 C1329.87357,193.096906 1329.65729,192.415329 1329.52211,191.765056 C1329.43389,191.457706 1329.39405,191.131858 1329.34851,190.844429 C1329.2859,190.575498 1329.26456,190.302298 1329.2361,190.083169 C1329.19057,189.632104 1329.18772,189.336138 1329.18772,189.336138 L1329.38835,189.134083 C1329.38835,189.134083 1329.54061,189.282067 1329.80669,189.539615 C1330.0742,189.797163 1330.45981,190.162852 1330.86534,190.653758 C1331.69348,191.619919 1332.69664,192.997302 1333.54469,194.468598 C1334.36287,195.956969 1335.02595,197.519331 1335.45282,198.716004 C1335.87543,199.912677 1336.0476,200.749352 1336.0476,200.749352 L1335.77298,200.823344 Z" id="Fill-25" fill="#E6E7E8"></path>
                    <path d="M1326.89398,157.494535 C1326.89398,157.494535 1326.64497,157.346552 1326.27359,157.089004 C1325.90648,156.82861 1325.41557,156.461498 1324.93605,156.004741 C1324.68988,155.777075 1324.42095,155.538025 1324.19613,155.266248 C1323.95566,154.998739 1323.67819,154.732654 1323.46191,154.430996 C1322.98808,153.846177 1322.57258,153.194481 1322.18555,152.532825 C1321.82128,151.858362 1321.49544,151.166825 1321.23362,150.475287 C1320.99457,149.768098 1320.77829,149.086521 1320.64311,148.436248 C1320.55489,148.128898 1320.51505,147.80305 1320.46951,147.515621 C1320.4069,147.246689 1320.38556,146.973489 1320.3571,146.75436 C1320.31157,146.303296 1320.30872,146.007329 1320.30872,146.007329 L1320.50935,145.805275 C1320.50935,145.805275 1320.66161,145.953258 1320.92769,146.210806 C1321.1952,146.468354 1321.58081,146.834044 1321.98634,147.32495 C1322.81448,148.29111 1323.81764,149.668494 1324.66569,151.139789 C1325.48387,152.62816 1326.14695,154.190523 1326.57383,155.387196 C1326.99643,156.583869 1327.1686,157.420544 1327.1686,157.420544 L1326.89398,157.494535 Z" id="Fill-27" fill="#E6E7E8"></path>
                    <path d="M85.4343356,158.407052 C85.4343356,158.407052 86.2895085,157.149193 87.9813565,156.02082 C88.8123398,155.417504 89.8539148,154.891025 91.0050544,154.400118 C91.5884502,154.188104 92.1917669,153.953323 92.8249648,153.802493 C93.4553169,153.627475 94.1041669,153.495143 94.7615544,153.392693 C96.0720606,153.189216 97.413871,153.145106 98.6674606,153.250402 C99.292121,153.274591 99.8997065,153.406923 100.470296,153.519333 C101.039463,153.606131 101.573056,153.765498 102.061117,153.941939 C103.035815,154.243598 103.816996,154.656243 104.347744,154.987783 C104.877069,155.315054 105.163075,155.545566 105.163075,155.545566 L105.127502,155.827304 C105.127502,155.827304 104.815884,155.807383 104.270906,155.77181 C103.727352,155.720585 102.949017,155.694973 102.014161,155.685012 C101.080727,155.657977 99.9893502,155.687858 98.8254044,155.774656 C97.6600356,155.855762 96.4206752,155.993785 95.1926981,156.204377 C92.7253606,156.550145 90.293596,157.140656 88.5049898,157.689902 C86.7064231,158.216381 85.5453231,158.668868 85.5453231,158.668868 L85.4343356,158.407052 Z" id="Fill-29" fill="#E6E7E8"></path>
                    <path d="M17.5317563,189.339126 C17.5317563,189.339126 18.1862979,187.966011 19.687475,186.594319 C20.4174313,185.872901 21.3679396,185.194169 22.4308583,184.535359 C22.9758354,184.236546 23.5364646,183.913544 24.1397813,183.668803 C24.7359833,183.401294 25.3577979,183.170782 25.9909958,182.970151 C27.2559688,182.570311 28.5750125,182.322724 29.8314479,182.237349 C30.4532625,182.167626 31.0736542,182.206044 31.6527813,182.230234 C32.2290625,182.230234 32.7811542,182.305649 33.2905583,182.408099 C34.3008292,182.557505 35.1346583,182.84778 35.7080938,183.095367 C36.2815292,183.338686 36.5988396,183.522242 36.5988396,183.522242 L36.6073771,183.806826 C36.6073771,183.806826 36.2971813,183.833861 35.7522042,183.880817 C35.2072271,183.912121 34.4331604,184.006034 33.5082646,184.136942 C32.5819458,184.252199 31.5062208,184.447138 30.3693104,184.708955 C29.2309771,184.96508 28.0257667,185.289505 26.8447458,185.683653 C24.4570917,186.39938 22.1434292,187.351311 20.4586958,188.165219 C18.7611563,188.957784 17.6811625,189.581021 17.6811625,189.581021 L17.5317563,189.339126 Z" id="Fill-31" fill="#E6E7E8"></path>
                    <path d="M30.8869675,170.937398 C30.8869675,170.937398 31.7421404,169.67954 33.4339883,168.551167 C34.2649717,167.94785 35.3065467,167.421371 36.4576862,166.930465 C37.0410821,166.71845 37.6443987,166.483669 38.2775967,166.33284 C38.9079487,166.157821 39.5567987,166.02549 40.2141862,165.92304 C41.5246925,165.719563 42.8665029,165.675452 44.1200925,165.780748 C44.7447529,165.804938 45.3523383,165.937269 45.9229279,166.049679 C46.4920946,166.136477 47.0256883,166.295844 47.5137487,166.472286 C48.4884467,166.773944 49.2696279,167.18659 49.8003758,167.518129 C50.3297008,167.8454 50.6157071,168.075913 50.6157071,168.075913 L50.5801342,168.35765 C50.5801342,168.35765 50.2685154,168.337729 49.7235383,168.302156 C49.1799842,168.250931 48.4016487,168.225319 47.4667925,168.215359 C46.5333592,168.188323 45.4419821,168.218204 44.2780362,168.305002 C43.1126675,168.386109 41.8733071,168.524131 40.64533,168.734723 C38.1779925,169.080492 35.7462279,169.671002 33.9576217,170.220248 C32.159055,170.746727 30.997955,171.199215 30.997955,171.199215 L30.8869675,170.937398 Z" id="Fill-33" fill="#E6E7E8"></path>
                    <path d="M105.108151,168.389524 C105.108151,168.389524 105.458188,167.407711 106.297709,166.622261 C106.707509,166.193963 107.238257,165.848194 107.834459,165.54369 C108.436353,165.267644 109.112238,165.085511 109.805199,165.025749 C110.499582,164.975946 111.206771,165.037132 111.861313,165.229226 C112.188584,165.306063 112.49878,165.459738 112.790478,165.60203 C113.082176,165.722978 113.346838,165.897996 113.585888,166.084399 C114.066834,166.418784 114.422563,166.830007 114.651653,167.154432 C114.879319,167.477434 114.987461,167.702255 114.987461,167.702255 L114.926276,167.981146 C114.926276,167.981146 114.774024,167.961226 114.506515,167.927076 C114.241853,167.881542 113.859088,167.858776 113.400909,167.817511 C112.487396,167.734982 111.259419,167.732136 110.03998,167.860199 C108.816271,167.932767 107.599678,168.131976 106.698971,168.325492 C105.791151,168.503357 105.199217,168.659878 105.199217,168.659878 L105.108151,168.389524 Z" id="Fill-35" fill="#E6E7E8"></path>
                    <path d="M30.3582117,203.529731 C30.3582117,203.529731 30.5517283,202.506654 31.2603408,201.600256 C31.598995,201.113619 32.0714033,200.68959 32.6121117,200.296865 C33.1642033,199.931175 33.8030929,199.646592 34.4789783,199.48011 C35.1577096,199.325013 35.8648992,199.27521 36.5422075,199.364854 C36.8765929,199.389044 37.2081325,199.492917 37.5169054,199.588252 C37.8242554,199.663667 38.1131075,199.795998 38.3791929,199.942558 C38.9042492,200.198683 39.3197408,200.550144 39.5957867,200.834727 C39.8704096,201.117888 40.0127012,201.32421 40.0127012,201.32421 L39.9956262,201.608794 C39.9956262,201.608794 39.8419512,201.613063 39.57302,201.6216 C39.3040887,201.617331 38.9213242,201.652904 38.463145,201.684208 C37.5482096,201.743971 36.3330387,201.930373 35.1491721,202.244838 C33.9524992,202.505231 32.7800158,202.889419 31.9205742,203.220958 C31.0511721,203.536846 30.48912,203.78301 30.48912,203.78301 L30.3582117,203.529731 Z" id="Fill-37" fill="#E6E7E8"></path>
                    <path d="M62.615021,164.525309 C62.615021,164.525309 62.8754148,163.516461 63.6423669,162.658442 C64.0123252,162.195994 64.510346,161.804692 65.0766669,161.44754 C65.6515252,161.118846 66.3074898,160.87695 66.9933356,160.756002 C67.6806044,160.645015 68.3906398,160.642169 69.0594106,160.775923 C69.3923731,160.82288 69.7153752,160.948096 70.0184565,161.063352 C70.3201148,161.158688 70.5990065,161.309517 70.8537085,161.473152 C71.3616898,161.763427 71.7544148,162.1405 72.0091169,162.443582 C72.2652419,162.74524 72.3933044,162.9601 72.3933044,162.9601 L72.3577315,163.241838 C72.3577315,163.241838 72.2040565,163.236146 71.9351252,163.226186 C71.6676169,163.204842 71.2834294,163.216225 70.8238273,163.216225 C69.907469,163.216225 68.6823377,163.321521 67.4799731,163.559148 C66.2676481,163.739859 65.073821,164.045786 64.1944585,164.320409 C63.3065585,164.577957 62.7288544,164.785702 62.7288544,164.785702 L62.615021,164.525309 Z" id="Fill-39" fill="#E6E7E8"></path>
                    <path d="M76.1704367,175.544091 C76.1704367,175.544091 76.4962846,174.39722 77.4610221,173.31438 C77.9248929,172.740945 78.5538221,172.218735 79.2681263,171.72356 C79.6366617,171.500162 80.0165804,171.261112 80.4320721,171.090362 C80.8390263,170.898268 81.27017,170.747439 81.7084283,170.612262 C82.584945,170.356137 83.5055721,170.23092 84.3820888,170.242303 C84.8160783,170.226651 85.2514908,170.304912 85.6541763,170.366097 C86.0554388,170.405939 86.4396263,170.515503 86.7910867,170.637874 C87.4911617,170.844197 88.0617513,171.164353 88.4502075,171.42617 C88.8372408,171.686564 89.0492554,171.88008 89.0492554,171.88008 L89.0506783,172.164664 C89.0506783,172.164664 88.8429325,172.181739 88.4786658,172.21162 C88.1143992,172.230118 87.5964575,172.294149 86.9774888,172.37241 C85.7367054,172.517547 84.0989283,172.844818 82.5095304,173.342839 C80.9030575,173.78252 79.340695,174.382991 78.2023617,174.900933 C77.0512221,175.398953 76.3155742,175.788833 76.3155742,175.788833 L76.1704367,175.544091 Z" id="Fill-41" fill="#E6E7E8"></path>
                    <path d="M117.774955,152.772302 C117.774955,152.772302 118.34839,151.726458 119.527988,150.885514 C120.108538,150.428758 120.837071,150.060223 121.645288,149.735798 C122.052242,149.599198 122.476271,149.451214 122.918799,149.377223 C123.359903,149.280464 123.81239,149.229239 124.269146,149.195089 C125.181236,149.139595 126.107555,149.222125 126.959882,149.428448 C127.385334,149.508131 127.792288,149.681727 128.172207,149.831133 C128.553549,149.959195 128.903586,150.151289 129.220896,150.349075 C129.85694,150.704804 130.342155,151.143062 130.662311,151.484562 C130.982467,151.826062 131.14468,152.062266 131.14468,152.062266 L131.084917,152.339735 C131.084917,152.339735 130.877171,152.309854 130.515751,152.258629 C130.155753,152.194598 129.637811,152.14195 129.015996,152.080764 C127.775213,151.94701 126.104709,151.9029 124.444165,152.033808 C122.780776,152.106377 121.124501,152.344004 119.899369,152.59586 C118.665701,152.826373 117.861753,153.042656 117.861753,153.042656 L117.774955,152.772302 Z" id="Fill-43" fill="#E6E7E8"></path>
                    <path d="M49.7154277,186.758951 C49.7154277,186.758951 50.0796944,185.623463 51.0800048,184.574774 C51.5623735,184.015568 52.2083777,183.516124 52.9397569,183.043715 C53.313984,182.833124 53.7024402,182.60688 54.1236235,182.450359 C54.5376923,182.271072 54.9731048,182.135895 55.414209,182.01637 C56.2992631,181.788703 57.224159,181.69479 58.1006756,181.734632 C58.5346652,181.733209 58.965809,181.827122 59.3670715,181.901113 C59.766911,181.953761 60.1468298,182.076132 60.4940215,182.211309 C61.1869819,182.440399 61.7461881,182.779053 62.1261069,183.053676 C62.5046027,183.326876 62.7095027,183.52893 62.7095027,183.52893 L62.7023881,183.81209 C62.7023881,183.81209 62.4932194,183.823474 62.1275298,183.840549 C61.7632631,183.84624 61.2438985,183.893197 60.622084,183.950113 C59.3784548,184.053986 57.7292944,184.327186 56.1242444,184.771136 C54.5049652,185.156747 52.9226819,185.70457 51.7672735,186.184093 C50.6004819,186.643695 49.8520277,187.007961 49.8520277,187.007961 L49.7154277,186.758951 Z" id="Fill-45" fill="#E6E7E8"></path>
                </g>
            </g>
        </g>
    </g>
</svg>