<?xml version="1.0" encoding="UTF-8"?>
<svg width="58px" height="64px" viewBox="0 0 58 64" version="1.1" xmlns="http://www.w3.org/2000/svg" xmlns:xlink="http://www.w3.org/1999/xlink">
    <!-- Generator: Sketch 44.1 (41455) - http://www.bohemiancoding.com/sketch -->
    <title>contact</title>
    <desc>Created with Sketch.</desc>
    <defs>
        <polygon id="path-1" points="0 51.5032071 0 0.042 57.5 0.042 57.5 64 0 64 0 51.5032071 57.4998 51.5032071 57.4998 0.0421 -0.0002 0.0421 -0.0002 51.5032071"></polygon>
    </defs>
    <g id="Page-1" stroke="none" stroke-width="1" fill="none" fill-rule="evenodd">
        <g id="Artboard-Copy-5" transform="translate(-3.000000, 0.000000)">
            <g id="contact" transform="translate(3.000000, -1.000000)">
                <path d="M10.6828,57.4539 C10.6728,57.3169 10.6128,57.2039 10.5098,57.1129 C10.4038,57.0239 10.2838,56.9829 10.1428,56.9949 C10.0058,57.0049 9.8928,57.0639 9.8008,57.1679 L7.4398,59.9879 L7.4398,57.4969 C7.4398,57.3569 7.3918,57.2379 7.2928,57.1409 C7.1928,57.0429 7.0748,56.9949 6.9378,56.9949 C6.7958,56.9949 6.6758,57.0429 6.5748,57.1409 C6.4788,57.2379 6.4288,57.3569 6.4288,57.4969 L6.4288,64.4479 C6.4288,64.5889 6.4788,64.7079 6.5748,64.8049 C6.6758,64.9059 6.7958,64.9559 6.9378,64.9559 C7.0748,64.9559 7.1928,64.9059 7.2928,64.8049 C7.3918,64.7079 7.4398,64.5889 7.4398,64.4479 L7.4398,61.5789 L9.7798,64.7509 C9.8638,64.8629 9.9718,64.9299 10.1108,64.9509 C10.2458,64.9729 10.3708,64.9419 10.4838,64.8589 C10.5918,64.7759 10.6568,64.6669 10.6778,64.5289 C10.6998,64.3929 10.6688,64.2679 10.5868,64.1559 L8.0888,60.7669 L10.5648,57.8169 C10.6538,57.7119 10.6948,57.5909 10.6828,57.4539" id="Fill-1" fill="#404041"></path>
                <path d="M14.8507,60.1949 L12.7467,60.1949 L12.7467,59.0369 C12.7467,58.9009 12.7747,58.7689 12.8277,58.6429 C12.8327,58.6319 12.8327,58.6289 12.8327,58.6319 C12.8687,58.5419 12.9197,58.4589 12.9797,58.3839 C12.9797,58.3839 12.9867,58.3829 12.9917,58.3789 C12.9917,58.3749 12.9917,58.3719 12.9957,58.3669 C13.0277,58.3319 13.0637,58.2959 13.1047,58.2589 C13.1207,58.2419 13.1327,58.2319 13.1357,58.2319 C13.1567,58.2139 13.1787,58.1989 13.2007,58.1839 C13.2197,58.1699 13.2437,58.1549 13.2727,58.1409 C13.2897,58.1289 13.3157,58.1169 13.3467,58.1029 C13.3687,58.0919 13.3927,58.0809 13.4167,58.0699 L13.4717,58.0549 C13.5107,58.0399 13.5537,58.0289 13.5967,58.0209 C13.5967,58.0209 13.6187,58.0199 13.6397,58.0159 C13.6907,58.0089 13.7337,58.0049 13.7747,58.0049 L13.8227,58.0049 C13.8637,58.0049 13.9067,58.0089 13.9567,58.0159 C13.9787,58.0199 13.9927,58.0209 14.0007,58.0209 C14.0437,58.0289 14.0867,58.0399 14.1257,58.0549 C14.1257,58.0549 14.1447,58.0589 14.1737,58.0699 C14.1997,58.0809 14.2237,58.0919 14.2497,58.1029 C14.2787,58.1169 14.3027,58.1289 14.3247,58.1409 C14.3507,58.1549 14.3747,58.1699 14.3967,58.1839 C14.4187,58.1989 14.4397,58.2139 14.4617,58.2319 C14.4687,58.2399 14.4787,58.2489 14.4927,58.2589 C14.5337,58.2959 14.5697,58.3319 14.6007,58.3669 C14.6127,58.3829 14.6157,58.3869 14.6127,58.3839 C14.6727,58.4589 14.7237,58.5419 14.7647,58.6319 L14.7687,58.6429 C14.8217,58.7689 14.8507,58.9009 14.8507,59.0369 L14.8507,60.1949 Z M15.7587,58.4009 C15.7587,58.3929 15.7567,58.3869 15.7517,58.3839 C15.5277,57.7239 15.0857,57.2919 14.4227,57.0859 C14.4227,57.0859 14.4157,57.0849 14.4107,57.0819 C14.3587,57.0669 14.3027,57.0529 14.2457,57.0379 L14.2237,57.0379 C14.2167,57.0349 14.2097,57.0319 14.2097,57.0319 C14.1567,57.0219 14.1037,57.0129 14.0507,57.0049 L14.0077,56.9999 C13.9377,56.9959 13.8757,56.9949 13.8177,56.9949 L13.7797,56.9949 C13.7217,56.9949 13.6567,56.9959 13.5847,56.9999 L13.5467,57.0049 C13.4937,57.0129 13.4407,57.0219 13.3897,57.0319 C13.3897,57.0319 13.3807,57.0349 13.3687,57.0379 L13.3517,57.0379 C13.2937,57.0529 13.2387,57.0669 13.1857,57.0819 C13.1787,57.0849 13.1717,57.0859 13.1717,57.0859 C12.5057,57.2919 12.0617,57.7239 11.8387,58.3839 C11.8457,58.3659 11.8457,58.3749 11.8337,58.4099 C11.7687,58.6169 11.7377,58.8259 11.7377,59.0369 L11.7377,64.4479 C11.7377,64.5889 11.7857,64.7099 11.8817,64.8099 C11.9827,64.9079 12.1047,64.9559 12.2447,64.9559 C12.3817,64.9559 12.5017,64.9079 12.6027,64.8099 C12.6987,64.7099 12.7467,64.5889 12.7467,64.4479 L12.7467,61.2049 L14.8507,61.2049 L14.8507,64.4479 C14.8507,64.5889 14.8987,64.7099 14.9947,64.8099 C15.0937,64.9079 15.2107,64.9559 15.3527,64.9559 C15.4917,64.9559 15.6127,64.9079 15.7087,64.8099 C15.8087,64.7099 15.8597,64.5889 15.8597,64.4479 L15.8597,59.0369 C15.8597,58.8259 15.8257,58.6169 15.7587,58.4099 L15.7587,58.4009 Z" id="Fill-3" fill="#404041"></path>
                <path d="M20.2485,59.1571 C20.2485,59.4451 20.1475,59.6901 19.9415,59.8921 C19.7395,60.0941 19.4965,60.1951 19.2105,60.1951 L18.0605,60.1951 L18.0605,58.0921 L19.2105,58.0921 C19.4965,58.0921 19.7395,58.1921 19.9415,58.3941 C20.1475,58.5961 20.2485,58.8401 20.2485,59.1231 L20.2485,59.1571 Z M19.2105,57.0811 L17.5575,57.0811 C17.4165,57.0811 17.2965,57.1301 17.1955,57.2271 C17.0995,57.3241 17.0485,57.4431 17.0485,57.5841 L17.0485,64.4481 C17.0485,64.5881 17.0995,64.7101 17.1955,64.8091 C17.2965,64.9081 17.4165,64.9561 17.5575,64.9561 C17.6945,64.9561 17.8125,64.9081 17.9135,64.8091 C18.0125,64.7101 18.0605,64.5881 18.0605,64.4481 L18.0605,61.2051 L19.2105,61.2051 C19.7775,61.2051 20.2605,61.0041 20.6595,60.6061 C21.0605,60.2041 21.2595,59.7231 21.2595,59.1571 L21.2595,59.1231 C21.2595,58.5611 21.0605,58.0811 20.6595,57.6811 C20.2605,57.2811 19.7775,57.0811 19.2105,57.0811 L19.2105,57.0811 Z" id="Fill-5" fill="#404041"></path>
                <path d="M23.4387,58.3079 C23.6407,58.1059 23.8857,58.0049 24.1737,58.0049 L24.2047,58.0049 C24.4287,58.0049 24.6307,58.0699 24.8107,58.1999 C24.9907,58.3299 25.1157,58.4989 25.1847,58.7079 C25.2597,58.9279 25.4177,59.0369 25.6607,59.0369 C25.8287,59.0369 25.9657,58.9699 26.0717,58.8329 C26.1727,58.6909 26.1937,58.5419 26.1417,58.3839 C26.0047,57.9729 25.7597,57.6399 25.4057,57.3839 C25.0487,57.1249 24.6497,56.9949 24.2047,56.9949 L24.1737,56.9949 C23.6067,56.9949 23.1237,57.1949 22.7257,57.5949 C22.3237,57.9949 22.1247,58.4749 22.1247,59.0369 L22.1247,62.9069 C22.1247,63.4739 22.3237,63.9569 22.7257,64.3559 C23.1237,64.7569 23.6067,64.9559 24.1737,64.9559 L24.2047,64.9559 C24.6497,64.9559 25.0487,64.8249 25.4057,64.5619 C25.7597,64.3059 26.0047,63.9749 26.1417,63.5679 C26.1937,63.4039 26.1727,63.2549 26.0717,63.1189 C25.9657,62.9779 25.8287,62.9069 25.6607,62.9069 C25.4177,62.9069 25.2597,63.0199 25.1847,63.2429 C25.1157,63.4479 24.9907,63.6159 24.8107,63.7449 C24.6307,63.8789 24.4287,63.9449 24.2047,63.9449 L24.1737,63.9449 C23.8857,63.9449 23.6407,63.8449 23.4387,63.6419 C23.2367,63.4419 23.1357,63.1969 23.1357,62.9069 L23.1357,59.0369 C23.1357,58.7539 23.2367,58.5099 23.4387,58.3079" id="Fill-7" fill="#404041"></path>
                <path d="M29.0335,60.297 C28.7405,60.297 28.4935,60.196 28.2865,59.994 C28.0775,59.793 27.9745,59.546 27.9745,59.253 L27.9745,59.086 C27.9745,58.791 28.0755,58.54 28.2815,58.336 C28.4835,58.127 28.7305,58.021 29.0215,58.021 L29.0555,58.021 C29.2805,58.021 29.4875,58.091 29.6705,58.227 C29.8505,58.361 29.9775,58.534 30.0495,58.746 C30.1245,58.972 30.2825,59.086 30.5255,59.086 L30.5305,59.086 C30.7035,59.086 30.8395,59.015 30.9405,58.876 C31.0445,58.732 31.0705,58.577 31.0155,58.41 C30.8765,57.993 30.6265,57.652 30.2705,57.389 C29.9105,57.122 29.5045,56.989 29.0555,56.989 L29.0215,56.989 C28.4495,56.989 27.9595,57.193 27.5565,57.6 C27.1505,58.011 26.9455,58.506 26.9455,59.086 L26.9455,59.238 C26.9455,59.818 27.1525,60.31 27.5635,60.714 C27.9695,61.117 28.4645,61.324 29.0475,61.335 C29.4565,61.346 29.7835,61.515 30.0325,61.843 C30.2875,62.178 30.3615,62.556 30.2535,62.978 C30.1795,63.255 30.0235,63.482 29.7905,63.659 C29.5595,63.832 29.2975,63.918 29.0045,63.918 L28.9835,63.918 C28.6945,63.918 28.4375,63.831 28.2115,63.654 C27.9885,63.481 27.8375,63.259 27.7575,62.989 C27.6885,62.747 27.5275,62.626 27.2705,62.626 C27.0975,62.626 26.9605,62.697 26.8595,62.837 C26.7585,62.978 26.7345,63.133 26.7845,63.302 C26.9295,63.785 27.2005,64.18 27.5995,64.485 C28.0105,64.8 28.4715,64.956 28.9835,64.956 L28.9905,64.956 C29.5405,64.956 30.0305,64.786 30.4605,64.442 C30.8925,64.096 31.1615,63.655 31.2695,63.118 C31.4215,62.38 31.2655,61.724 30.7995,61.151 C30.3425,60.585 29.7545,60.301 29.0335,60.297" id="Fill-9" fill="#404041"></path>
                <path d="M35.731,62.6596 C35.731,63.0126 35.604,63.3156 35.351,63.5676 C35.099,63.8196 34.797,63.9446 34.443,63.9446 C34.088,63.9446 33.785,63.8196 33.535,63.5676 C33.283,63.3156 33.158,63.0126 33.158,62.6596 L33.158,59.2866 C33.158,58.9336 33.283,58.6306 33.535,58.3786 C33.785,58.1286 34.088,58.0056 34.443,58.0056 C34.797,58.0056 35.099,58.1286 35.351,58.3786 C35.604,58.6306 35.731,58.9336 35.731,59.2866 L35.731,62.6596 Z M34.443,56.9956 C33.809,56.9956 33.269,57.2186 32.822,57.6656 C32.37,58.1156 32.147,58.6566 32.147,59.2866 L32.147,62.6596 C32.147,63.2936 32.37,63.8346 32.822,64.2816 C33.269,64.7316 33.809,64.9566 34.443,64.9566 C35.078,64.9566 35.618,64.7316 36.065,64.2816 C36.514,63.8346 36.74,63.2936 36.74,62.6596 L36.74,59.2866 C36.74,58.6566 36.514,58.1156 36.065,57.6656 C35.618,57.2186 35.078,56.9956 34.443,56.9956 L34.443,56.9956 Z" id="Fill-11" fill="#404041"></path>
                <path d="M41.1937,63.9448 L38.7767,63.9448 L38.7767,57.5948 C38.7767,57.4538 38.7287,57.3348 38.6327,57.2378 C38.5317,57.1368 38.4117,57.0868 38.2747,57.0868 C38.1357,57.0868 38.0127,57.1368 37.9127,57.2378 C37.8157,57.3348 37.7677,57.4538 37.7677,57.5948 L37.7677,64.4478 C37.7677,64.5888 37.8157,64.7098 37.9127,64.8098 C38.0127,64.9078 38.1357,64.9558 38.2747,64.9558 L41.1937,64.9558 C41.3357,64.9558 41.4527,64.9078 41.5517,64.8098 C41.6527,64.7098 41.7027,64.5888 41.7027,64.4478 C41.7027,64.3108 41.6527,64.1918 41.5517,64.0918 C41.4527,63.9938 41.3357,63.9448 41.1937,63.9448" id="Fill-13" fill="#404041"></path>
                <path d="M45.6811,60.1949 L43.5771,60.1949 L43.5771,59.0369 C43.5771,58.9009 43.6051,58.7689 43.6581,58.6429 C43.6631,58.6319 43.6631,58.6289 43.6631,58.6319 C43.6991,58.5419 43.7501,58.4589 43.8101,58.3839 C43.8141,58.3839 43.8171,58.3829 43.8221,58.3789 C43.8221,58.3749 43.8221,58.3719 43.8261,58.3669 C43.8581,58.3319 43.8941,58.2959 43.9351,58.2589 C43.9511,58.2419 43.9631,58.2319 43.9661,58.2319 C43.9871,58.2139 44.0091,58.1989 44.0311,58.1839 C44.0501,58.1699 44.0741,58.1549 44.1031,58.1409 C44.1201,58.1289 44.1461,58.1169 44.1771,58.1029 C44.1991,58.0919 44.2231,58.0809 44.2471,58.0699 L44.3021,58.0549 C44.3411,58.0399 44.3841,58.0289 44.4271,58.0209 C44.4271,58.0209 44.4491,58.0199 44.4701,58.0159 C44.5211,58.0089 44.5641,58.0049 44.6051,58.0049 L44.6531,58.0049 C44.6941,58.0049 44.7371,58.0089 44.7871,58.0159 C44.8091,58.0199 44.8231,58.0209 44.8311,58.0209 C44.8741,58.0289 44.9171,58.0399 44.9561,58.0549 C44.9561,58.0549 44.9751,58.0589 45.0041,58.0699 C45.0301,58.0809 45.0541,58.0919 45.0801,58.1029 C45.1091,58.1169 45.1331,58.1289 45.1551,58.1409 C45.1811,58.1549 45.2051,58.1699 45.2271,58.1839 C45.2491,58.1989 45.2701,58.2139 45.2921,58.2319 C45.2991,58.2399 45.3091,58.2489 45.3231,58.2589 C45.3641,58.2959 45.4001,58.3319 45.4311,58.3669 C45.4431,58.3829 45.4461,58.3869 45.4431,58.3839 C45.5031,58.4589 45.5541,58.5419 45.5951,58.6319 L45.5991,58.6429 C45.6521,58.7689 45.6811,58.9009 45.6811,59.0369 L45.6811,60.1949 Z M46.5891,58.4009 C46.5891,58.3929 46.5871,58.3869 46.5821,58.3839 C46.3581,57.7239 45.9161,57.2919 45.2531,57.0859 C45.2531,57.0859 45.2461,57.0849 45.2411,57.0819 C45.1891,57.0669 45.1331,57.0529 45.0761,57.0379 L45.0541,57.0379 C45.0471,57.0349 45.0401,57.0319 45.0401,57.0319 C44.9871,57.0219 44.9341,57.0129 44.8811,57.0049 L44.8381,56.9999 C44.7681,56.9959 44.7061,56.9949 44.6481,56.9949 L44.6101,56.9949 C44.5521,56.9949 44.4871,56.9959 44.4151,56.9999 L44.3771,57.0049 C44.3241,57.0129 44.2711,57.0219 44.2201,57.0319 C44.2201,57.0319 44.2111,57.0349 44.1991,57.0379 L44.1821,57.0379 C44.1241,57.0529 44.0691,57.0669 44.0161,57.0819 C44.0091,57.0849 44.0021,57.0859 44.0021,57.0859 C43.3361,57.2919 42.8921,57.7239 42.6691,58.3839 C42.6761,58.3659 42.6761,58.3749 42.6641,58.4099 C42.5991,58.6169 42.5681,58.8259 42.5681,59.0369 L42.5681,64.4479 C42.5681,64.5889 42.6161,64.7099 42.7121,64.8099 C42.8131,64.9079 42.9351,64.9559 43.0751,64.9559 C43.2111,64.9559 43.3321,64.9079 43.4321,64.8099 C43.5291,64.7099 43.5771,64.5889 43.5771,64.4479 L43.5771,61.2049 L45.6811,61.2049 L45.6811,64.4479 C45.6811,64.5889 45.7291,64.7099 45.8251,64.8099 C45.9241,64.9079 46.0411,64.9559 46.1831,64.9559 C46.3221,64.9559 46.4431,64.9079 46.5391,64.8099 C46.6391,64.7099 46.6901,64.5889 46.6901,64.4479 L46.6901,59.0369 C46.6901,58.8259 46.6561,58.6169 46.5891,58.4099 L46.5891,58.4009 Z" id="Fill-15" fill="#404041"></path>
                <path d="M50.942,57.0648 L47.235,57.0648 C47.094,57.0648 46.973,57.1128 46.873,57.2118 C46.774,57.3118 46.726,57.4308 46.726,57.5668 C46.726,57.7088 46.774,57.8268 46.873,57.9248 C46.973,58.0258 47.094,58.0758 47.235,58.0758 L48.581,58.0758 L48.581,64.4478 C48.581,64.5888 48.631,64.7098 48.732,64.8098 C48.828,64.9078 48.948,64.9558 49.087,64.9558 C49.224,64.9558 49.344,64.9078 49.445,64.8098 C49.541,64.7098 49.592,64.5888 49.592,64.4478 L49.592,58.0758 L50.942,58.0758 C51.084,58.0758 51.201,58.0258 51.3,57.9248 C51.396,57.8268 51.444,57.7088 51.444,57.5668 C51.444,57.4308 51.396,57.3118 51.3,57.2118 C51.201,57.1128 51.084,57.0648 50.942,57.0648" id="Fill-17" fill="#404041"></path>
                <path d="M11.7218,51.3631 C5.0548,46.1031 1.2298,38.2241 1.2298,29.7451 C1.2298,14.5731 13.5728,2.2301 28.7438,2.2301 C43.9218,2.2301 56.2698,14.5731 56.2698,29.7451 C56.2698,38.2231 52.4468,46.1021 45.7798,51.3631 C45.5128,51.5731 45.4678,51.9601 45.6778,52.2271 C45.7988,52.3801 45.9788,52.4611 46.1608,52.4611 C46.2938,52.4611 46.4278,52.4181 46.5408,52.3291 C53.5048,46.8341 57.4998,38.6021 57.4998,29.7451 C57.4998,13.8951 44.5998,1.0001 28.7438,1.0001 C12.8938,1.0001 -0.0002,13.8951 -0.0002,29.7451 C-0.0002,38.6021 3.9948,46.8341 10.9598,52.3291 C11.2278,52.5391 11.6148,52.4941 11.8238,52.2271 C12.0338,51.9601 11.9888,51.5731 11.7218,51.3631" id="Fill-19" fill="#404041"></path>
                <g id="Group-21" transform="translate(0.000000, 0.958000)">
                    <mask id="mask-2" fill="white">
                        <use xlink:href="#path-1"></use>
                    </mask>
                    <g id="Clip-20"></g>
                </g>
                <path d="M22.921,36.9856 L22.921,36.3266 L29.21,30.0386 C29.45,29.7976 29.45,29.4086 29.21,29.1686 C28.97,28.9286 28.581,28.9286 28.34,29.1686 L22.921,34.5876 L22.921,19.0216 L34.568,19.0216 L34.568,19.8276 L24.971,29.4236 C24.731,29.6636 24.731,30.0526 24.971,30.2926 C25.091,30.4126 25.249,30.4736 25.406,30.4736 C25.563,30.4736 25.721,30.4126 25.841,30.2926 L34.568,21.5666 L34.568,36.9856 L22.921,36.9856 Z M35.183,17.7916 L22.306,17.7916 C21.966,17.7916 21.691,18.0666 21.691,18.4066 L21.691,36.0666 L21.691,36.0786 L21.691,37.6006 C21.691,37.9406 21.966,38.2156 22.306,38.2156 L35.183,38.2156 C35.523,38.2156 35.798,37.9406 35.798,37.6006 L35.798,18.4066 C35.798,18.0666 35.523,17.7916 35.183,17.7916 L35.183,17.7916 Z" id="Fill-22" fill="#404041"></path>
                <path d="M37.2468,41.6412 C37.2468,42.4942 36.5538,43.1882 35.7008,43.1882 L21.7868,43.1882 C20.9348,43.1882 20.2408,42.4942 20.2408,41.6412 L20.2408,17.9842 C20.2408,17.1302 20.9348,16.4352 21.7868,16.4352 L35.7008,16.4352 C36.5538,16.4352 37.2468,17.1302 37.2468,17.9842 L37.2468,41.6412 Z M38.4768,17.9842 C38.4768,16.4522 37.2308,15.2052 35.7008,15.2052 L21.7868,15.2052 C20.2568,15.2052 19.0118,16.4522 19.0118,17.9842 L19.0118,41.6412 C19.0118,43.1722 20.2568,44.4182 21.7868,44.4182 L35.7008,44.4182 C37.2308,44.4182 38.4768,43.1722 38.4768,41.6412 L38.4768,17.9842 Z" id="Fill-24" fill="#404041"></path>
                <path d="M28.7436,39.6424 C28.1766,39.6424 27.7166,40.1034 27.7166,40.6704 C27.7166,41.2374 28.1766,41.6984 28.7436,41.6984 C29.3106,41.6984 29.7706,41.2374 29.7706,40.6704 C29.7706,40.1034 29.3106,39.6424 28.7436,39.6424" id="Fill-26" fill="#404041"></path>
                <path d="M29.7878,27.725 C29.6648,27.836 29.6038,27.996 29.6038,28.156 C29.6038,28.328 29.6648,28.488 29.7878,28.598 C29.8988,28.71 30.0588,28.771 30.2188,28.771 C30.3668,28.771 30.5268,28.71 30.6608,28.598 C30.7718,28.476 30.8338,28.316 30.8338,28.156 C30.8338,28.008 30.7718,27.849 30.6488,27.713 C30.4028,27.492 30.0098,27.504 29.7878,27.725" id="Fill-28" fill="#404041"></path>
            </g>
        </g>
    </g>
</svg>