
<svg width="130px" height="146px" viewBox="0 0 130 146" version="1.1" xmlns="http://www.w3.org/2000/svg" xmlns:xlink="http://www.w3.org/1999/xlink">
    <!-- Generator: Sketch 43.2 (39069) - http://www.bohemiancoding.com/sketch -->
    <desc>Created with Sketch.</desc>
    <defs>
        <polygon id="path-1" points="0.000833333334 0.775 129.861111 0.775 129.861111 116.996789 0.000833333334 116.996789"></polygon>
        <polygon id="path-3" points="0 145.222222 129.861111 145.222222 129.861111 0.775 0 0.775"></polygon>
    </defs>
    <g id="monitor" stroke="none" stroke-width="1" fill="none" fill-rule="evenodd">
        <g id="kapcsolat" transform="translate(-618.000000, -186.000000)">
            <g id="Page-1" transform="translate(618.000000, 186.000000)">
                <polygon id="Fill-1" fill="#68D1C9" points="50.375 83.4388889 79.4583333 83.4388889 79.4583333 40.0916667 50.375 40.0916667"></polygon>
                <g id="Group-30" transform="translate(0.000000, 0.002778)">
                    <path d="M23.9094444,143.411389 C24.0927778,143.664167 24.165,143.944722 24.115,144.253056 C24.0677778,144.564167 23.9205556,144.811389 23.6761111,144.9975 C23.4233333,145.186389 23.1427778,145.255833 22.8344444,145.205833 C22.5233333,145.158611 22.2761111,145.005833 22.09,144.753056 L16.8011111,137.589167 L16.8011111,144.069722 C16.8011111,144.389167 16.6927778,144.655833 16.4733333,144.875278 C16.2455556,145.103056 15.9788889,145.216944 15.6677778,145.216944 C15.3511111,145.216944 15.0761111,145.103056 14.8483333,144.875278 C14.6316667,144.655833 14.5205556,144.389167 14.5205556,144.069722 L14.5205556,128.3725 C14.5205556,128.055833 14.6316667,127.786389 14.8483333,127.566944 C15.0761111,127.3475 15.3511111,127.239167 15.6677778,127.239167 C15.9788889,127.239167 16.2455556,127.3475 16.4733333,127.566944 C16.6927778,127.786389 16.8011111,128.055833 16.8011111,128.3725 L16.8011111,133.9975 L22.1372222,127.628056 C22.3427778,127.391944 22.5955556,127.261389 22.9066667,127.239167 C23.2261111,127.211389 23.5011111,127.303056 23.7372222,127.503056 C23.9705556,127.711389 24.1038889,127.964167 24.1261111,128.275278 C24.1538889,128.583611 24.0622222,128.858611 23.8594444,129.094722 L18.2677778,135.755833 L23.9094444,143.411389 Z" id="Fill-2" fill="#404041"></path>
                    <path d="M33.5394444,134.465 L33.5394444,131.851111 C33.5394444,131.542778 33.4783333,131.245556 33.3588889,130.959444 L33.345,130.934444 C33.2533333,130.731667 33.1394444,130.545556 33.0033333,130.373333 C33.0116667,130.381667 33.0033333,130.370556 32.9783333,130.337222 C32.9033333,130.256667 32.8227778,130.176111 32.7338889,130.092778 C32.7005556,130.070556 32.6755556,130.048333 32.6616667,130.031667 C32.6116667,129.992778 32.5616667,129.956667 32.5144444,129.923333 C32.4644444,129.892778 32.4116667,129.859444 32.3533333,129.826111 C32.3061111,129.798333 32.2477778,129.773333 32.1866667,129.74 C32.1255556,129.715 32.07,129.69 32.0116667,129.665 C31.9477778,129.642778 31.9116667,129.631667 31.9033333,129.631667 C31.8144444,129.598333 31.72,129.573333 31.6227778,129.553889 C31.6061111,129.553889 31.5727778,129.551111 31.5227778,129.545556 C31.4088889,129.528889 31.3088889,129.520556 31.22,129.520556 L31.1116667,129.520556 C31.02,129.520556 30.92,129.528889 30.8061111,129.545556 C30.7561111,129.551111 30.7227778,129.553889 30.7061111,129.553889 C30.6088889,129.573333 30.5144444,129.598333 30.4283333,129.631667 L30.3033333,129.665 C30.245,129.69 30.195,129.715 30.145,129.74 C30.0727778,129.773333 30.0144444,129.798333 29.9755556,129.826111 C29.9088889,129.859444 29.8561111,129.892778 29.8144444,129.923333 C29.7672222,129.956667 29.7172222,129.992778 29.6672222,130.031667 C29.6616667,130.031667 29.6366667,130.053889 29.5977778,130.092778 C29.5061111,130.176111 29.4255556,130.256667 29.3533333,130.337222 C29.3422222,130.348333 29.3394444,130.356667 29.3394444,130.362222 C29.3311111,130.370556 29.3227778,130.373333 29.3144444,130.373333 C29.1783333,130.545556 29.0672222,130.731667 28.9838889,130.934444 C28.9838889,130.928889 28.9811111,130.934444 28.9727778,130.959444 C28.8533333,131.245556 28.7894444,131.542778 28.7894444,131.851111 L28.7894444,134.465 L33.5394444,134.465 Z M35.5894444,130.434444 C35.745,130.901111 35.82,131.373333 35.82,131.851111 L35.82,144.070556 C35.82,144.387222 35.7061111,144.662222 35.4783333,144.887222 C35.2616667,145.109444 34.9894444,145.217778 34.6755556,145.217778 C34.3561111,145.217778 34.0894444,145.109444 33.8672222,144.887222 C33.6505556,144.662222 33.5394444,144.387222 33.5394444,144.070556 L33.5394444,136.745556 L28.7894444,136.745556 L28.7894444,144.070556 C28.7894444,144.387222 28.6811111,144.662222 28.4616667,144.887222 C28.2338889,145.109444 27.9644444,145.217778 27.6561111,145.217778 C27.3394444,145.217778 27.0644444,145.109444 26.8366667,144.887222 C26.62,144.662222 26.5088889,144.387222 26.5088889,144.070556 L26.5088889,131.851111 C26.5088889,131.373333 26.5811111,130.901111 26.7283333,130.434444 C26.7533333,130.356667 26.7561111,130.334444 26.7394444,130.373333 C27.2422222,128.884444 28.245,127.909444 29.745,127.445556 C29.7505556,127.445556 29.7644444,127.442778 29.7783333,127.434444 C29.9005556,127.401111 30.0255556,127.367778 30.1561111,127.337222 L30.195,127.337222 C30.22,127.328889 30.2366667,127.323333 30.2422222,127.323333 C30.3561111,127.298333 30.4755556,127.278889 30.595,127.259444 L30.6838889,127.248333 C30.845,127.24 30.9922222,127.237222 31.1227778,127.237222 L31.2088889,127.237222 C31.3366667,127.237222 31.4811111,127.24 31.6338889,127.248333 L31.7338889,127.259444 C31.8561111,127.278889 31.9727778,127.298333 32.0894444,127.323333 C32.0922222,127.323333 32.1061111,127.328889 32.1227778,127.337222 L32.1727778,127.337222 C32.3033333,127.367778 32.4311111,127.401111 32.5505556,127.434444 C32.5561111,127.442778 32.5644444,127.445556 32.5755556,127.445556 C34.07,127.909444 35.0727778,128.884444 35.5755556,130.373333 C35.5838889,130.381667 35.5894444,130.395556 35.5894444,130.412222 L35.5894444,130.434444 Z" id="Fill-4" fill="#404041"></path>
                    <path d="M45.7330556,132.045278 C45.7330556,131.406389 45.5025,130.853611 45.0358333,130.398056 C44.5802778,129.9425 44.0330556,129.714722 43.3886111,129.714722 L40.7886111,129.714722 L40.7886111,134.464722 L43.3886111,134.464722 C44.0330556,134.464722 44.5802778,134.236944 45.0358333,133.781389 C45.5025,133.325833 45.7330556,132.773056 45.7330556,132.120278 L45.7330556,132.045278 Z M43.3886111,127.434167 C44.6663889,127.434167 45.7580556,127.884167 46.6608333,128.786944 C47.5636111,129.689722 48.0136111,130.775833 48.0136111,132.045278 L48.0136111,132.120278 C48.0136111,133.398056 47.5636111,134.486944 46.6608333,135.3925 C45.7580556,136.2925 44.6663889,136.745278 43.3886111,136.745278 L40.7886111,136.745278 L40.7886111,144.070278 C40.7886111,144.386944 40.6802778,144.661944 40.4608333,144.886944 C40.2330556,145.109167 39.9636111,145.2175 39.6552778,145.2175 C39.3358333,145.2175 39.0636111,145.109167 38.8358333,144.886944 C38.6163889,144.661944 38.5052778,144.386944 38.5052778,144.070278 L38.5052778,128.5675 C38.5052778,128.250833 38.6163889,127.981389 38.8358333,127.761944 C39.0636111,127.5425 39.3358333,127.434167 39.6552778,127.434167 L43.3886111,127.434167 Z" id="Fill-6" fill="#404041"></path>
                    <path d="M57.9536111,140.590278 C58.3369444,140.590278 58.6452778,140.751389 58.8813889,141.068056 C59.1091667,141.376389 59.1619444,141.7125 59.0425,142.081944 C58.7286111,143.001389 58.1758333,143.751389 57.3813889,144.329167 C56.5730556,144.923611 55.6730556,145.218056 54.6675,145.218056 L54.5980556,145.218056 C53.3175,145.218056 52.2258333,144.768056 51.3258333,143.8625 C50.4202778,142.9625 49.9702778,141.870833 49.9702778,140.590278 L49.9702778,131.851389 C49.9702778,130.579167 50.4202778,129.495833 51.3258333,128.593056 C52.2258333,127.6875 53.3175,127.2375 54.5980556,127.2375 L54.6675,127.2375 C55.6730556,127.2375 56.5730556,127.531944 57.3813889,128.118056 C58.1758333,128.695833 58.7286111,129.445833 59.0425,130.373611 C59.1619444,130.731944 59.1091667,131.068056 58.8813889,131.3875 C58.6452778,131.698611 58.3369444,131.851389 57.9536111,131.851389 C57.4091667,131.851389 57.0508333,131.604167 56.8786111,131.106944 C56.7258333,130.634722 56.4425,130.251389 56.0369444,129.959722 C55.6286111,129.665278 55.1730556,129.520833 54.6675,129.520833 L54.5980556,129.520833 C53.9452778,129.520833 53.3897222,129.748611 52.9369444,130.204167 C52.4786111,130.659722 52.2536111,131.209722 52.2536111,131.851389 L52.2536111,140.590278 C52.2536111,141.243056 52.4786111,141.798611 52.9369444,142.251389 C53.3897222,142.709722 53.9452778,142.934722 54.5980556,142.934722 L54.6675,142.934722 C55.1730556,142.934722 55.6286111,142.784722 56.0369444,142.484722 C56.4425,142.190278 56.7258333,141.809722 56.8786111,141.348611 C57.0508333,140.845833 57.4091667,140.590278 57.9536111,140.590278" id="Fill-8" fill="#404041"></path>
                    <path d="M65.5708333,134.695556 C67.1986111,134.703889 68.5263889,135.345556 69.5625,136.623333 C70.6125,137.917778 70.9652778,139.398333 70.6236111,141.067778 C70.3791667,142.278889 69.7708333,143.276111 68.7930556,144.056667 C67.8263889,144.831667 66.7180556,145.217778 65.4736111,145.217778 L65.4597222,145.217778 C64.3041667,145.217778 63.2625,144.865 62.3347222,144.153889 C61.4347222,143.465 60.8180556,142.573333 60.4930556,141.481667 C60.3791667,141.101111 60.4347222,140.751111 60.6625,140.431667 C60.8902778,140.115 61.2013889,139.956667 61.5902778,139.956667 C62.1680556,139.956667 62.5347222,140.228889 62.6902778,140.773333 C62.8680556,141.384444 63.2097222,141.887222 63.7152778,142.276111 C64.2291667,142.676111 64.8097222,142.873333 65.4597222,142.873333 L65.5097222,142.873333 C66.1708333,142.873333 66.7597222,142.678889 67.2791667,142.287222 C67.8097222,141.89 68.1597222,141.376111 68.3291667,140.751111 C68.5736111,139.798333 68.4069444,138.942778 67.8291667,138.187222 C67.2652778,137.445556 66.5263889,137.065 65.6069444,137.04 C64.2875,137.015 63.1708333,136.548333 62.2513889,135.637222 C61.3236111,134.726111 60.8597222,133.612222 60.8597222,132.303889 L60.8597222,131.962222 C60.8597222,130.651111 61.3180556,129.534444 62.2375,128.606667 C63.1486111,127.687222 64.2513889,127.226111 65.5458333,127.226111 L65.6208333,127.226111 C66.6375,127.226111 67.5513889,127.526111 68.3680556,128.128889 C69.1708333,128.723333 69.7347222,129.492778 70.0486111,130.434444 C70.1736111,130.812222 70.1152778,131.162222 69.8819444,131.487222 C69.6513889,131.801111 69.3430556,131.962222 68.9541667,131.962222 L68.9402778,131.962222 C68.3958333,131.962222 68.0375,131.703889 67.8652778,131.192778 C67.7041667,130.712222 67.4180556,130.323333 67.0125,130.020556 C66.5958333,129.712222 66.1319444,129.553889 65.6208333,129.553889 L65.5458333,129.553889 C64.8875,129.553889 64.3291667,129.792778 63.8763889,130.265 C63.4097222,130.726111 63.1791667,131.292778 63.1791667,131.962222 L63.1791667,132.337222 C63.1791667,133.001111 63.4152778,133.556667 63.8875,134.012222 C64.3513889,134.467778 64.9125,134.695556 65.5708333,134.695556" id="Fill-10" fill="#404041"></path>
                    <path d="M75.7377778,130.363333 C75.1683333,130.932778 74.885,131.616111 74.885,132.413333 L74.885,140.03 C74.885,140.83 75.1683333,141.513333 75.7377778,142.082778 C76.3016667,142.652222 76.985,142.932778 77.7877778,142.932778 C78.585,142.932778 79.2683333,142.652222 79.8405556,142.082778 C80.41,141.513333 80.6961111,140.83 80.6961111,140.03 L80.6961111,132.413333 C80.6961111,131.616111 80.41,130.932778 79.8405556,130.363333 C79.2683333,129.799444 78.585,129.518889 77.7877778,129.518889 C76.985,129.518889 76.3016667,129.799444 75.7377778,130.363333 M74.1266667,143.693889 C73.11,142.685556 72.6016667,141.463333 72.6016667,140.03 L72.6016667,132.413333 C72.6016667,130.991111 73.11,129.768889 74.1266667,128.752222 C75.135,127.743889 76.3572222,127.238333 77.7877778,127.238333 C79.2211111,127.238333 80.4405556,127.743889 81.4516667,128.752222 C82.4683333,129.768889 82.9766667,130.991111 82.9766667,132.413333 L82.9766667,140.03 C82.9766667,141.463333 82.4683333,142.685556 81.4516667,143.693889 C80.4405556,144.710556 79.2211111,145.218889 77.7877778,145.218889 C76.3572222,145.218889 75.135,144.710556 74.1266667,143.693889" id="Fill-12" fill="#404041"></path>
                    <path d="M93.0366667,142.933889 C93.3533333,142.933889 93.6227778,143.045 93.8422222,143.264444 C94.07,143.492222 94.1838889,143.761667 94.1838889,144.07 C94.1838889,144.386667 94.07,144.661667 93.8422222,144.886667 C93.6227778,145.108889 93.3533333,145.217222 93.0366667,145.217222 L86.445,145.217222 C86.1283333,145.217222 85.8533333,145.108889 85.6255556,144.886667 C85.4088889,144.661667 85.2977778,144.386667 85.2977778,144.07 L85.2977778,128.592222 C85.2977778,128.275556 85.4088889,128.006111 85.6255556,127.786667 C85.8533333,127.558889 86.1283333,127.445 86.445,127.445 C86.7533333,127.445 87.0227778,127.558889 87.2505556,127.786667 C87.47,128.006111 87.5783333,128.275556 87.5783333,128.592222 L87.5783333,142.933889 L93.0366667,142.933889 Z" id="Fill-14" fill="#404041"></path>
                    <path d="M103.168333,134.465 L103.168333,131.851111 C103.168333,131.542778 103.107222,131.245556 102.987778,130.959444 L102.973889,130.934444 C102.882222,130.731667 102.768333,130.545556 102.632222,130.373333 C102.640556,130.381667 102.632222,130.370556 102.607222,130.337222 C102.532222,130.256667 102.451667,130.176111 102.362778,130.092778 C102.329444,130.070556 102.304444,130.048333 102.290556,130.031667 C102.240556,129.992778 102.190556,129.956667 102.143333,129.923333 C102.093333,129.892778 102.040556,129.859444 101.982222,129.826111 C101.935,129.798333 101.876667,129.773333 101.815556,129.74 C101.754444,129.715 101.698889,129.69 101.640556,129.665 C101.576667,129.642778 101.540556,129.631667 101.532222,129.631667 C101.443333,129.598333 101.348889,129.573333 101.251667,129.553889 C101.235,129.553889 101.201667,129.551111 101.151667,129.545556 C101.037778,129.528889 100.937778,129.520556 100.848889,129.520556 L100.740556,129.520556 C100.648889,129.520556 100.548889,129.528889 100.435,129.545556 C100.385,129.551111 100.351667,129.553889 100.335,129.553889 C100.237778,129.573333 100.143333,129.598333 100.057222,129.631667 L99.9322222,129.665 C99.8738889,129.69 99.8238889,129.715 99.7738889,129.74 C99.7016667,129.773333 99.6433333,129.798333 99.6044444,129.826111 C99.5377778,129.859444 99.485,129.892778 99.4433333,129.923333 C99.3961111,129.956667 99.3461111,129.992778 99.2961111,130.031667 C99.2905556,130.031667 99.2655556,130.053889 99.2266667,130.092778 C99.135,130.176111 99.0544444,130.256667 98.9822222,130.337222 C98.9711111,130.348333 98.9683333,130.356667 98.9683333,130.362222 C98.96,130.370556 98.9516667,130.373333 98.9433333,130.373333 C98.8072222,130.545556 98.6961111,130.731667 98.6127778,130.934444 C98.6127778,130.928889 98.61,130.934444 98.6016667,130.959444 C98.4822222,131.245556 98.4183333,131.542778 98.4183333,131.851111 L98.4183333,134.465 L103.168333,134.465 Z M105.218333,130.434444 C105.373889,130.901111 105.448889,131.373333 105.448889,131.851111 L105.448889,144.070556 C105.448889,144.387222 105.335,144.662222 105.107222,144.887222 C104.890556,145.109444 104.618333,145.217778 104.304444,145.217778 C103.985,145.217778 103.718333,145.109444 103.496111,144.887222 C103.279444,144.662222 103.168333,144.387222 103.168333,144.070556 L103.168333,136.745556 L98.4183333,136.745556 L98.4183333,144.070556 C98.4183333,144.387222 98.31,144.662222 98.0905556,144.887222 C97.8627778,145.109444 97.5933333,145.217778 97.285,145.217778 C96.9683333,145.217778 96.6933333,145.109444 96.4655556,144.887222 C96.2488889,144.662222 96.1377778,144.387222 96.1377778,144.070556 L96.1377778,131.851111 C96.1377778,131.373333 96.21,130.901111 96.3572222,130.434444 C96.3822222,130.356667 96.385,130.334444 96.3683333,130.373333 C96.8711111,128.884444 97.8738889,127.909444 99.3738889,127.445556 C99.3794444,127.445556 99.3933333,127.442778 99.4072222,127.434444 C99.5294444,127.401111 99.6544444,127.367778 99.785,127.337222 L99.8238889,127.337222 C99.8488889,127.328889 99.8655556,127.323333 99.8711111,127.323333 C99.985,127.298333 100.104444,127.278889 100.223889,127.259444 L100.312778,127.248333 C100.473889,127.24 100.621111,127.237222 100.751667,127.237222 L100.837778,127.237222 C100.965556,127.237222 101.11,127.24 101.262778,127.248333 L101.362778,127.259444 C101.485,127.278889 101.601667,127.298333 101.718333,127.323333 C101.721111,127.323333 101.735,127.328889 101.751667,127.337222 L101.801667,127.337222 C101.932222,127.367778 102.06,127.401111 102.179444,127.434444 C102.185,127.442778 102.193333,127.445556 102.204444,127.445556 C103.698889,127.909444 104.701667,128.884444 105.204444,130.373333 C105.212778,130.381667 105.218333,130.395556 105.218333,130.412222 L105.218333,130.434444 Z" id="Fill-16" fill="#404041"></path>
                    <path d="M115.0525,127.395833 C115.369167,127.395833 115.638611,127.504167 115.858056,127.726389 C116.0775,127.954167 116.185833,128.223611 116.185833,128.529167 C116.185833,128.848611 116.0775,129.115278 115.858056,129.3375 C115.638611,129.565278 115.369167,129.679167 115.0525,129.679167 L111.999722,129.679167 L111.999722,144.070833 C111.999722,144.3875 111.888611,144.6625 111.671944,144.8875 C111.441389,145.109722 111.174722,145.218056 110.863611,145.218056 C110.549722,145.218056 110.2775,145.109722 110.060833,144.8875 C109.830278,144.6625 109.719167,144.3875 109.719167,144.070833 L109.719167,129.679167 L106.6775,129.679167 C106.360833,129.679167 106.085833,129.565278 105.860833,129.3375 C105.638611,129.115278 105.530278,128.848611 105.530278,128.529167 C105.530278,128.223611 105.638611,127.954167 105.860833,127.726389 C106.085833,127.504167 106.360833,127.395833 106.6775,127.395833 L115.0525,127.395833 Z" id="Fill-18" fill="#404041"></path>
                    <g id="Group-22">
                        <mask id="mask-2" fill="white">
                            <use xlink:href="#path-1"></use>
                        </mask>
                        <g id="Clip-21"></g>
                        <path d="M104.250833,116.996667 C103.8425,116.996667 103.434167,116.816111 103.159167,116.468889 C102.686944,115.866111 102.789722,114.991111 103.389722,114.516111 C118.448056,102.638333 127.084167,84.8411111 127.084167,65.6938889 C127.084167,31.43 99.1952778,3.55222222 64.9175,3.55222222 C30.6536111,3.55222222 2.77861111,31.43 2.77861111,65.6938889 C2.77861111,84.8411111 11.4147222,102.638333 26.4730556,114.516111 C27.0758333,114.991111 27.1786111,115.866111 26.7036111,116.468889 C26.2286111,117.071667 25.3563889,117.171667 24.7536111,116.699444 C9.02305556,104.288333 0.000833333334,85.6966667 0.000833333334,65.6938889 C0.000833333334,29.8994444 29.1202778,0.774444444 64.9175,0.774444444 C100.725833,0.774444444 129.861944,29.8994444 129.861944,65.6938889 C129.861944,85.6966667 120.839722,104.288333 105.111944,116.699444 C104.856389,116.899444 104.550833,116.996667 104.250833,116.996667" id="Fill-20" fill="#404041" mask="url(#mask-2)"></path>
                    </g>
                    <mask id="mask-4" fill="white">
                        <use xlink:href="#path-3"></use>
                    </mask>
                    <g id="Clip-24"></g>
                    <path d="M51.7666667,82.0472222 L78.0722222,82.0472222 L78.0722222,41.4777778 L51.7666667,41.4777778 L51.7666667,82.0472222 Z M79.4583333,84.825 L50.3777778,84.825 C49.6083333,84.825 48.9888889,84.2027778 48.9888889,83.4361111 L48.9888889,40.0861111 C48.9888889,39.3194444 49.6083333,38.6972222 50.3777778,38.6972222 L79.4583333,38.6972222 C80.2277778,38.6972222 80.8472222,39.3194444 80.8472222,40.0861111 L80.8472222,83.4361111 C80.8472222,84.2027778 80.2277778,84.825 79.4583333,84.825 L79.4583333,84.825 Z" id="Fill-23" fill="#404041" mask="url(#mask-4)"></path>
                    <path d="M49.2052778,35.6355556 C47.2802778,35.6355556 45.7136111,37.2022222 45.7136111,39.1327778 L45.7136111,92.5605556 C45.7136111,94.4883333 47.2802778,96.055 49.2052778,96.055 L80.6302778,96.055 C82.5552778,96.055 84.1191667,94.4883333 84.1191667,92.5605556 L84.1191667,39.1327778 C84.1191667,37.2022222 82.5552778,35.6355556 80.6302778,35.6355556 L49.2052778,35.6355556 Z M80.6302778,98.8327778 L49.2052778,98.8327778 C45.7497222,98.8327778 42.9358333,96.0188889 42.9358333,92.5605556 L42.9358333,39.1327778 C42.9358333,35.6716667 45.7497222,32.8577778 49.2052778,32.8577778 L80.6302778,32.8577778 C84.0858333,32.8577778 86.8969444,35.6716667 86.8969444,39.1327778 L86.8969444,92.5605556 C86.8969444,96.0188889 84.0858333,98.8327778 80.6302778,98.8327778 L80.6302778,98.8327778 Z" id="Fill-25" fill="#404041" mask="url(#mask-4)"></path>
                    <path d="M67.2363889,90.3691667 C67.2363889,91.6497222 66.1975,92.6913889 64.9169444,92.6913889 C63.6363889,92.6913889 62.5975,91.6497222 62.5975,90.3691667 C62.5975,89.0886111 63.6363889,88.0469444 64.9169444,88.0469444 C66.1975,88.0469444 67.2363889,89.0886111 67.2363889,90.3691667" id="Fill-26" fill="#424143" mask="url(#mask-4)"></path>
                    <path d="M50.3744444,81.3738889 C50.0188889,81.3738889 49.6633333,81.2377778 49.3911111,80.9683333 C48.8494444,80.4238889 48.8494444,79.5461111 49.3911111,79.0016667 L64.005,64.3933333 C64.5494444,63.8488889 65.4272222,63.8488889 65.9688889,64.3933333 C66.5133333,64.935 66.5133333,65.8127778 65.9688889,66.3572222 L51.3577778,80.9683333 C51.0855556,81.2377778 50.73,81.3738889 50.3744444,81.3738889" id="Fill-27" fill="#404041" mask="url(#mask-4)"></path>
                    <path d="M57.3786111,67.3386111 C57.0230556,67.3386111 56.6675,67.2025 56.3952778,66.9330556 C55.8536111,66.3886111 55.8536111,65.5108333 56.3952778,64.9663889 L78.3341667,43.0330556 C78.8758333,42.4913889 79.7563889,42.4913889 80.2980556,43.0330556 C80.8397222,43.5747222 80.8397222,44.4552778 80.2980556,44.9969444 L58.3619444,66.9330556 C58.0897222,67.2025 57.7341667,67.3386111 57.3786111,67.3386111" id="Fill-28" fill="#404041" mask="url(#mask-4)"></path>
                    <path d="M68.2427778,63.5219444 C67.8816667,63.5219444 67.5205556,63.3552778 67.2677778,63.1052778 C66.9927778,62.8275 66.8538889,62.4941667 66.8538889,62.1330556 C66.8538889,61.7441667 66.9927778,61.3830556 67.2677778,61.1330556 C67.7705556,60.6330556 68.715,60.6052778 69.215,61.1330556 C69.4927778,61.3830556 69.6316667,61.7441667 69.6316667,62.1330556 C69.6316667,62.4663889 69.4927778,62.8275 69.24,63.1052778 C68.965,63.3552778 68.6038889,63.5219444 68.2427778,63.5219444" id="Fill-29" fill="#404041" mask="url(#mask-4)"></path>
                </g>
            </g>
        </g>
    </g>
</svg>