<svg xmlns="http://www.w3.org/2000/svg" viewBox="0 0 960 175.02"><defs><style>.cls-1{fill:#fff;}.cls-2{fill:#8ee8e3;}.cls-3{fill:#231f20;}.cls-4,.cls-5{fill:#50d1ca;}.cls-5{opacity:0.3;}.cls-6{fill:#0d7f74;opacity:0.2;}</style></defs><title>Asset 2</title><g id="Layer_2" data-name="Layer 2"><g id="maci"><rect class="cls-1" width="960" height="175"/><path class="cls-2" d="M960,113.72V175L0,175V146.71S19,85.59,61.64,53.59c32.27-31.34,76.57-16.83,101,.61,2.66,21.74,9.19,38.41,19.48,50.9,41.75,50.71,145.34,32.72,302.57,7.1,21.91-3.57,44.85-7.29,68.82-11l.49-.08C769,67.93,960,113.72,960,113.72Z"/><path class="cls-3" d="M160.77,108.56a3.59,3.59,0,0,1-1.63,1.84,3,3,0,0,1-2.83,0,4.74,4.74,0,0,1-1.85-2,7.85,7.85,0,0,1-.76-2.28l1.27.33a7.66,7.66,0,0,0-1.24,1.06,7,7,0,0,0-.55.65,5.92,5.92,0,0,0-.51.76,3.92,3.92,0,0,1,.22-1.91,5.84,5.84,0,0,1,1-1.71l.69-.79.59,1.12a9.57,9.57,0,0,0,2.09,3.1,2,2,0,0,0,1.44.39A7.43,7.43,0,0,0,160.77,108.56Z"/><path class="cls-2" d="M307,71.25c-2.71,9.22-16.41,26.78-41.45,36.13-21.27,8-50.72,10-88.55-4.13-93.2-34.71-14.29-49-14.29-49S258,123.59,299.61,65.92a4.47,4.47,0,0,1,.47,0C301.58,65.88,306.14,66.25,307,71.25Z"/><path class="cls-4" d="M113.23,55.58s-4.94,48.61-7.54,55.85c-6,10.87-12.77,20.26-29.28,18.57-38.13-3.92-35.1-79.86-10.7-97.71a18.7,18.7,0,0,1,8-3.5C102.85,23.92,113.23,55.58,113.23,55.58Z"/><path class="cls-4" d="M198,75.64c-.59,2.17-1,4.08-1.36,6.08-.14,1-.31,2-.41,3s-.22,2.08-.45,3.21a8.66,8.66,0,0,1-1.12-3.17,10.65,10.65,0,0,1,0-3.38,10.44,10.44,0,0,1,1.1-3.21A6.82,6.82,0,0,1,198,75.64Z"/><path class="cls-4" d="M223.33,85.59c-.12.78-.19,1.41-.26,2l-.18,1.8c0,.6-.11,1.2-.18,1.84a12.82,12.82,0,0,1-.38,2.08,4.38,4.38,0,0,1-1.18-1.9,5.49,5.49,0,0,1-.25-2.21,5.15,5.15,0,0,1,.7-2.15A3.38,3.38,0,0,1,223.33,85.59Z"/><path class="cls-4" d="M245,89.92a12.84,12.84,0,0,0-.31,2.17,15.53,15.53,0,0,0,0,1.93c0,.64.11,1.29.17,2,0,.35.08.71.1,1.09a7.76,7.76,0,0,1,0,1.2,6,6,0,0,1-.94-.8,8.93,8.93,0,0,1-.7-1,5.69,5.69,0,0,1-.67-2.38,5,5,0,0,1,.5-2.48A3.35,3.35,0,0,1,245,89.92Z"/><path class="cls-4" d="M264.33,89.09c.2.71.41,1.23.61,1.76l.61,1.53c.18.51.39,1,.55,1.61a9.11,9.11,0,0,1,.4,1.93,4.2,4.2,0,0,1-1.74-1.11,5.06,5.06,0,0,1-1.08-1.72,4.57,4.57,0,0,1-.3-2.08A2.8,2.8,0,0,1,264.33,89.09Z"/><path class="cls-3" d="M142.85,74c2.23.56,0,7.56-1.93,7.14S139.44,73.1,142.85,74Z"/><path class="cls-1" d="M168.59,100.24a11.5,11.5,0,0,0,9.81-4.12c3.87-4.88,5.94-6.44,5.56-1.32S180.07,106,176.3,107,169.4,104.74,168.59,100.24Z"/><path class="cls-5" d="M307,71.25c-2.71,9.22-16.41,26.78-41.45,36.13C285.9,93.75,297,72.45,300.08,65.9,301.58,65.88,306.14,66.25,307,71.25Z"/><path class="cls-5" d="M960,113.72V147.3c-46.41-11.63-196.25-47.16-289.69-46.05-53.92.65-125.73,5.8-185.58,11,21.91-3.57,44.85-7.29,68.82-11l.49-.08C769,67.93,960,113.72,960,113.72Z"/><path class="cls-6" d="M105.69,111.43c-6,10.87-12.77,20.26-29.28,18.57-38.13-3.92-35.1-79.86-10.7-97.71C51.84,54.2,54,138.59,105.69,111.43Z"/><path class="cls-2" d="M109.93,36.26s-.13-8.39,3.15-7.91S109.93,36.26,109.93,36.26Z"/><path class="cls-2" d="M116.6,31.31c1.47.77-1.51,4.21-7.1,4.32C115.6,29.57,116.6,31.31,116.6,31.31Z"/></g></g></svg>