<?xml version="1.0" encoding="UTF-8"?>
<svg width="58px" height="64px" viewBox="0 0 58 64" version="1.1" xmlns="http://www.w3.org/2000/svg" xmlns:xlink="http://www.w3.org/1999/xlink">
    <!-- Generator: Sketch 44.1 (41455) - http://www.bohemiancoding.com/sketch -->
    <title>home-h</title>
    <desc>Created with Sketch.</desc>
    <defs>
        <polygon id="path-1" points="0 63.9548 57.5 63.9548 57.5 -0.0002 0 -0.0002"></polygon>
    </defs>
    <g id="Page-1" stroke="none" stroke-width="1" fill="none" fill-rule="evenodd">
        <g id="Artboard-Copy-13" transform="translate(-3.000000, 0.000000)">
            <g id="home-h" transform="translate(3.000000, 0.000000)">
                <path d="M30.7027,29.7565 C30.7027,30.8355 29.8287,31.7095 28.7497,31.7095 C27.6727,31.7095 26.7977,30.8355 26.7977,29.7565 C26.7977,28.6775 27.6727,27.8035 28.7497,27.8035 C29.8287,27.8035 30.7027,28.6775 30.7027,29.7565 Z" id="Fill-1" fill="#68D1C9"></path>
                <mask id="mask-2" fill="white">
                    <use xlink:href="#path-1"></use>
                </mask>
                <g id="Clip-4"></g>
                <polygon id="Fill-3" fill="#68D1C9" mask="url(#mask-2)" points="26.798 40.9678 30.703 40.9678 30.703 35.7548 26.798 35.7548"></polygon>
                <path d="M14.8194,56.1824 L12.1554,56.1824 C12.0144,56.1824 11.8934,56.2314 11.7924,56.3274 C11.6964,56.4294 11.6474,56.5484 11.6474,56.6854 L11.6474,63.4464 C11.6474,63.5874 11.6964,63.7084 11.7924,63.8084 C11.8934,63.9064 12.0144,63.9544 12.1554,63.9544 C12.2924,63.9544 12.4114,63.9064 12.5124,63.8084 C12.6094,63.7084 12.6574,63.5874 12.6574,63.4464 L12.6574,60.3014 L14.4954,60.3014 C14.6364,60.3014 14.7574,60.2504 14.8574,60.1494 C14.9554,60.0524 15.0044,59.9334 15.0044,59.7934 C15.0044,59.6524 14.9554,59.5334 14.8574,59.4364 C14.7574,59.3394 14.6364,59.2894 14.4954,59.2894 L12.6574,59.2894 L12.6574,57.1924 L14.8194,57.1924 C14.9614,57.1924 15.0784,57.1434 15.1774,57.0414 C15.2784,56.9454 15.3284,56.8254 15.3284,56.6854 C15.3284,56.5484 15.2784,56.4294 15.1774,56.3274 C15.0784,56.2314 14.9614,56.1824 14.8194,56.1824" id="Fill-5" fill="#404041" mask="url(#mask-2)"></path>
                <path d="M19.6143,61.6583 C19.6143,62.0113 19.4883,62.3143 19.2363,62.5663 C18.9833,62.8183 18.6813,62.9433 18.3283,62.9433 C17.9713,62.9433 17.6683,62.8183 17.4203,62.5663 C17.1673,62.3143 17.0413,62.0113 17.0413,61.6583 L17.0413,58.2853 C17.0413,57.9323 17.1673,57.6293 17.4203,57.3773 C17.6683,57.1273 17.9713,57.0043 18.3283,57.0043 C18.6813,57.0043 18.9833,57.1273 19.2363,57.3773 C19.4883,57.6293 19.6143,57.9323 19.6143,58.2853 L19.6143,61.6583 Z M18.3283,55.9943 C17.6933,55.9943 17.1533,56.2173 16.7063,56.6643 C16.2563,57.1143 16.0303,57.6553 16.0303,58.2853 L16.0303,61.6583 C16.0303,62.2923 16.2563,62.8333 16.7063,63.2803 C17.1533,63.7303 17.6933,63.9553 18.3283,63.9553 C18.9623,63.9553 19.5023,63.7303 19.9493,63.2803 C20.4003,62.8333 20.6253,62.2923 20.6253,61.6583 L20.6253,58.2853 C20.6253,57.6553 20.4003,57.1143 19.9493,56.6643 C19.5023,56.2173 18.9623,55.9943 18.3283,55.9943 L18.3283,55.9943 Z" id="Fill-6" fill="#404041" mask="url(#mask-2)"></path>
                <path d="M16.7388,55.0209 C16.7788,55.1539 16.8588,55.2529 16.9818,55.3179 C17.1088,55.3829 17.2388,55.3929 17.3708,55.3499 C17.5048,55.3099 17.6038,55.2299 17.6688,55.1069 L18.2198,54.0529 C18.2848,53.9299 18.2958,53.8029 18.2518,53.6689 C18.2088,53.5359 18.1258,53.4369 18.0038,53.3719 C17.8808,53.3069 17.7528,53.2959 17.6208,53.3389 C17.4858,53.3789 17.3878,53.4609 17.3228,53.5819 L16.7708,54.6369 C16.7068,54.7589 16.6958,54.8879 16.7388,55.0209" id="Fill-7" fill="#404041" mask="url(#mask-2)"></path>
                <path d="M19.1927,55.35 C19.3257,55.31 19.4247,55.23 19.4897,55.107 L20.0417,54.053 C20.1067,53.93 20.1167,53.803 20.0727,53.668 C20.0297,53.536 19.9487,53.437 19.8257,53.372 C19.7027,53.307 19.5747,53.296 19.4417,53.339 C19.3077,53.379 19.2087,53.461 19.1437,53.582 L18.5937,54.637 C18.5287,54.759 18.5167,54.888 18.5597,55.021 C18.6007,55.154 18.6807,55.253 18.8037,55.318 C18.9297,55.382 19.0597,55.393 19.1927,55.35" id="Fill-8" fill="#404041" mask="url(#mask-2)"></path>
                <path d="M25.0734,61.6583 C25.0734,62.0113 24.9474,62.3143 24.6954,62.5663 C24.4424,62.8183 24.1404,62.9433 23.7874,62.9433 C23.4304,62.9433 23.1274,62.8183 22.8794,62.5663 C22.6264,62.3143 22.5004,62.0113 22.5004,61.6583 L22.5004,58.2853 C22.5004,57.9323 22.6264,57.6293 22.8794,57.3773 C23.1274,57.1273 23.4304,57.0043 23.7874,57.0043 C24.1404,57.0043 24.4424,57.1273 24.6954,57.3773 C24.9474,57.6293 25.0734,57.9323 25.0734,58.2853 L25.0734,61.6583 Z M23.7874,55.9943 C23.1524,55.9943 22.6124,56.2173 22.1654,56.6643 C21.7154,57.1143 21.4904,57.6553 21.4904,58.2853 L21.4904,61.6583 C21.4904,62.2923 21.7154,62.8333 22.1654,63.2803 C22.6124,63.7303 23.1524,63.9553 23.7874,63.9553 C24.4214,63.9553 24.9614,63.7303 25.4084,63.2803 C25.8594,62.8333 26.0834,62.2923 26.0834,61.6583 L26.0834,58.2853 C26.0834,57.6553 25.8594,57.1143 25.4084,56.6643 C24.9614,56.2173 24.4214,55.9943 23.7874,55.9943 L23.7874,55.9943 Z" id="Fill-9" fill="#404041" mask="url(#mask-2)"></path>
                <path d="M30.5373,62.9435 L28.1223,62.9435 L28.1223,56.5935 C28.1223,56.4525 28.0723,56.3335 27.9763,56.2365 C27.8753,56.1355 27.7553,56.0855 27.6183,56.0855 C27.4793,56.0855 27.3583,56.1355 27.2573,56.2365 C27.1593,56.3335 27.1113,56.4525 27.1113,56.5935 L27.1113,63.4465 C27.1113,63.5875 27.1593,63.7085 27.2573,63.8085 C27.3583,63.9065 27.4793,63.9545 27.6183,63.9545 L30.5373,63.9545 C30.6793,63.9545 30.7963,63.9065 30.8953,63.8085 C30.9963,63.7085 31.0463,63.5875 31.0463,63.4465 C31.0463,63.3095 30.9963,63.1905 30.8953,63.0905 C30.7963,62.9925 30.6793,62.9435 30.5373,62.9435" id="Fill-10" fill="#404041" mask="url(#mask-2)"></path>
                <path d="M35.1111,61.9057 C35.1111,62.1947 35.0081,62.4397 34.8011,62.6407 C34.5991,62.8437 34.3571,62.9437 34.0731,62.9437 L32.9201,62.9437 L32.9201,57.1927 L34.0731,57.1927 C34.3571,57.1927 34.5991,57.2947 34.8011,57.4947 C35.0081,57.6977 35.1111,57.9407 35.1111,58.2257 L35.1111,61.9057 Z M34.0731,56.1827 L32.4181,56.1827 C32.2791,56.1827 32.1561,56.2317 32.0551,56.3277 C31.9591,56.4297 31.9111,56.5487 31.9111,56.6857 L31.9111,63.4467 C31.9111,63.5877 31.9591,63.7087 32.0551,63.8087 C32.1561,63.9067 32.2791,63.9547 32.4181,63.9547 L34.0731,63.9547 C34.6381,63.9547 35.1211,63.7557 35.5221,63.3547 C35.9211,62.9557 36.1201,62.4727 36.1201,61.9057 L36.1201,58.2257 C36.1201,57.6637 35.9211,57.1827 35.5221,56.7817 C35.1211,56.3827 34.6381,56.1827 34.0731,56.1827 L34.0731,56.1827 Z" id="Fill-11" fill="#404041" mask="url(#mask-2)"></path>
                <path d="M40.0405,59.1936 L37.9365,59.1936 L37.9365,58.0356 C37.9365,57.8996 37.9645,57.7676 38.0175,57.6416 C38.0225,57.6306 38.0225,57.6276 38.0225,57.6306 C38.0585,57.5406 38.1095,57.4576 38.1695,57.3826 C38.1735,57.3826 38.1765,57.3816 38.1815,57.3776 C38.1815,57.3736 38.1815,57.3706 38.1855,57.3656 C38.2175,57.3306 38.2535,57.2946 38.2945,57.2576 C38.3105,57.2406 38.3225,57.2306 38.3255,57.2306 C38.3465,57.2126 38.3685,57.1976 38.3905,57.1826 C38.4095,57.1686 38.4335,57.1546 38.4625,57.1396 C38.4795,57.1276 38.5055,57.1156 38.5365,57.1016 C38.5585,57.0906 38.5825,57.0796 38.6065,57.0686 L38.6615,57.0536 C38.7005,57.0386 38.7435,57.0276 38.7865,57.0196 C38.7935,57.0196 38.8085,57.0186 38.8295,57.0146 C38.8805,57.0076 38.9235,57.0036 38.9645,57.0036 L39.0125,57.0036 C39.0535,57.0036 39.0965,57.0076 39.1465,57.0146 C39.1685,57.0186 39.1825,57.0196 39.1905,57.0196 C39.2335,57.0276 39.2765,57.0386 39.3155,57.0536 C39.3195,57.0536 39.3345,57.0576 39.3635,57.0686 C39.3895,57.0796 39.4135,57.0906 39.4395,57.1016 C39.4685,57.1156 39.4925,57.1276 39.5145,57.1396 C39.5405,57.1546 39.5645,57.1686 39.5865,57.1826 C39.6085,57.1976 39.6295,57.2126 39.6515,57.2306 C39.6585,57.2386 39.6685,57.2476 39.6825,57.2576 C39.7235,57.2946 39.7595,57.3306 39.7905,57.3656 C39.8025,57.3816 39.8055,57.3856 39.8025,57.3826 C39.8625,57.4576 39.9135,57.5406 39.9545,57.6306 L39.9585,57.6416 C40.0115,57.7676 40.0405,57.8996 40.0405,58.0356 L40.0405,59.1936 Z M40.9485,57.3996 C40.9485,57.3916 40.9465,57.3856 40.9415,57.3826 C40.7175,56.7226 40.2755,56.2906 39.6125,56.0856 C39.6085,56.0856 39.6055,56.0836 39.6005,56.0806 C39.5485,56.0656 39.4925,56.0516 39.4355,56.0366 L39.4135,56.0366 C39.4065,56.0336 39.3995,56.0306 39.3965,56.0306 C39.3465,56.0206 39.2935,56.0116 39.2405,56.0036 L39.1975,55.9986 C39.1275,55.9946 39.0655,55.9936 39.0075,55.9936 L38.9695,55.9936 C38.9115,55.9936 38.8465,55.9946 38.7745,55.9986 L38.7365,56.0036 C38.6835,56.0116 38.6305,56.0206 38.5795,56.0306 C38.5775,56.0306 38.5705,56.0336 38.5585,56.0366 L38.5415,56.0366 C38.4835,56.0516 38.4285,56.0656 38.3755,56.0806 C38.3685,56.0836 38.3615,56.0856 38.3585,56.0856 C37.6955,56.2906 37.2515,56.7226 37.0285,57.3826 C37.0355,57.3646 37.0355,57.3736 37.0235,57.4086 C36.9585,57.6156 36.9275,57.8246 36.9275,58.0356 L36.9275,63.4466 C36.9275,63.5876 36.9755,63.7086 37.0715,63.8086 C37.1725,63.9066 37.2945,63.9546 37.4345,63.9546 C37.5715,63.9546 37.6915,63.9066 37.7925,63.8086 C37.8885,63.7086 37.9365,63.5876 37.9365,63.4466 L37.9365,60.2036 L40.0405,60.2036 L40.0405,63.4466 C40.0405,63.5876 40.0885,63.7086 40.1845,63.8086 C40.2835,63.9066 40.4005,63.9546 40.5425,63.9546 C40.6815,63.9546 40.8025,63.9066 40.8985,63.8086 C40.9985,63.7086 41.0495,63.5876 41.0495,63.4466 L41.0495,58.0356 C41.0495,57.8246 41.0155,57.6156 40.9485,57.4086 L40.9485,57.3996 Z" id="Fill-12" fill="#404041" mask="url(#mask-2)"></path>
                <path d="M45.6666,62.9435 L43.2496,62.9435 L43.2496,56.5935 C43.2496,56.4525 43.2016,56.3335 43.1056,56.2365 C43.0046,56.1355 42.8846,56.0855 42.7476,56.0855 C42.6086,56.0855 42.4856,56.1355 42.3856,56.2365 C42.2886,56.3335 42.2406,56.4525 42.2406,56.5935 L42.2406,63.4465 C42.2406,63.5875 42.2886,63.7085 42.3856,63.8085 C42.4856,63.9065 42.6086,63.9545 42.7476,63.9545 L45.6666,63.9545 C45.8086,63.9545 45.9256,63.9065 46.0246,63.8085 C46.1256,63.7085 46.1756,63.5875 46.1756,63.4465 C46.1756,63.3095 46.1256,63.1905 46.0246,63.0905 C45.9256,62.9925 45.8086,62.9435 45.6666,62.9435" id="Fill-13" fill="#404041" mask="url(#mask-2)"></path>
                <path d="M28.744,-7.10542736e-15 C12.894,-7.10542736e-15 0,12.894 0,28.743 C0,37.601 3.995,45.834 10.96,51.329 C11.227,51.539 11.614,51.494 11.824,51.227 C12.034,50.96 11.988,50.573 11.722,50.363 C5.054,45.103 1.23,37.223 1.23,28.743 C1.23,13.573 13.573,1.23 28.744,1.23 C43.921,1.23 56.27,13.573 56.27,28.743 C56.27,37.223 52.447,45.102 45.779,50.363 C45.513,50.573 45.467,50.96 45.677,51.227 C45.799,51.38 45.979,51.461 46.16,51.461 C46.294,51.461 46.428,51.418 46.541,51.329 C53.505,45.834 57.5,37.601 57.5,28.743 C57.5,12.894 44.6,-7.10542736e-15 28.744,-7.10542736e-15" id="Fill-14" fill="#404041" mask="url(#mask-2)"></path>
                <path d="M32.3582,40.5318 C32.2602,40.6558 32.1862,40.8148 32.1862,40.9748 C32.1862,41.1228 32.2602,41.2828 32.3702,41.4048 C32.4812,41.5168 32.6412,41.5778 32.8012,41.5778 C32.9612,41.5778 33.1212,41.5168 33.2432,41.3928 C33.3542,41.2828 33.4162,41.1228 33.4162,40.9748 C33.4162,40.8148 33.3542,40.6558 33.2432,40.5318 C33.0102,40.2988 32.5922,40.2988 32.3582,40.5318" id="Fill-15" fill="#404041" mask="url(#mask-2)"></path>
                <path d="M13.9978,30.1913 C14.1178,30.3113 14.2748,30.3713 14.4328,30.3713 C14.5898,30.3713 14.7468,30.3113 14.8678,30.1913 L28.7498,16.3083 L42.6338,30.1913 C42.8738,30.4313 43.2628,30.4313 43.5038,30.1913 C43.7438,29.9513 43.7438,29.5623 43.5038,29.3213 L29.1848,15.0043 C28.9448,14.7643 28.5558,14.7643 28.3148,15.0043 L13.9978,29.3213 C13.7578,29.5623 13.7578,29.9513 13.9978,30.1913" id="Fill-16" fill="#404041" mask="url(#mask-2)"></path>
                <path d="M30.703,35.1399 L26.798,35.1399 C26.458,35.1399 26.183,35.4149 26.183,35.7549 L26.183,40.3529 L18.623,40.3529 L18.623,30.3819 L28.755,20.2369 L38.884,30.3669 L38.884,40.3529 L34.915,40.3529 C34.575,40.3529 34.3,40.6279 34.3,40.9679 C34.3,41.3079 34.575,41.5829 34.915,41.5829 L39.499,41.5829 C39.839,41.5829 40.114,41.3079 40.114,40.9679 L40.114,30.1119 C40.114,29.9489 40.049,29.7929 39.934,29.6769 L29.19,18.9319 C28.959,18.7009 28.551,18.7009 28.32,18.9319 L17.558,29.7109 C17.452,29.8239 17.393,29.9739 17.393,30.1289 L17.393,40.9679 C17.393,41.3079 17.668,41.5829 18.008,41.5829 L26.797,41.5829 L26.798,41.5829 L26.798,41.5829 C27.138,41.5829 27.413,41.3079 27.413,40.9679 L27.413,36.3699 L30.088,36.3699 L30.088,40.9679 C30.088,41.3079 30.363,41.5829 30.703,41.5829 C31.043,41.5829 31.318,41.3079 31.318,40.9679 L31.318,35.7549 C31.318,35.4149 31.043,35.1399 30.703,35.1399" id="Fill-17" fill="#404041" mask="url(#mask-2)"></path>
                <path d="M30.0568,29.7565 C30.0568,30.4775 29.4708,31.0635 28.7498,31.0635 C28.0308,31.0635 27.4448,30.4775 27.4448,29.7565 C27.4448,29.0355 28.0308,28.4495 28.7498,28.4495 C29.4708,28.4495 30.0568,29.0355 30.0568,29.7565 M26.2148,29.7565 C26.2148,31.1555 27.3518,32.2935 28.7498,32.2935 C30.1488,32.2935 31.2868,31.1555 31.2868,29.7565 C31.2868,28.3575 30.1488,27.2195 28.7498,27.2195 C27.3518,27.2195 26.2148,28.3575 26.2148,29.7565" id="Fill-18" fill="#404041" mask="url(#mask-2)"></path>
                <path d="M21.4952,19.6815 C21.8352,19.6815 22.1102,19.4065 22.1102,19.0665 L22.1102,17.7145 C22.1102,17.3745 21.8352,17.0995 21.4952,17.0995 L18.0092,17.0995 C17.6692,17.0995 17.3942,17.3745 17.3942,17.7145 L17.3942,22.5525 C17.3942,22.8925 17.6692,23.1675 18.0092,23.1675 C18.3492,23.1675 18.6242,22.8925 18.6242,22.5525 L18.6242,18.3295 L20.8802,18.3295 L20.8802,19.0665 C20.8802,19.4065 21.1552,19.6815 21.4952,19.6815" id="Fill-19" fill="#404041" mask="url(#mask-2)"></path>
            </g>
        </g>
    </g>
</svg>