
<svg width="188px" height="266px" viewBox="0 0 188 266" version="1.1" xmlns="http://www.w3.org/2000/svg" xmlns:xlink="http://www.w3.org/1999/xlink">
    <!-- Generator: Sketch 44.1 (41455) - http://www.bohemiancoding.com/sketch -->
    <desc>Created with Sketch.</desc>
    <defs>
        <polygon id="path-1" points="0.47 65.3214911 0.47 0.00338880292 37.3004 0.00338880292 37.3004 65.3214911"></polygon>
        <polygon id="path-3" points="0.47 108.8635 0.47 0.745328557 55.2304 0.745328557 55.2304 108.8635 0.47 108.8635"></polygon>
        <polygon id="path-5" points="0.47 40.3723496 0.47 0.0602878965 50.7848 0.0602878965 50.7848 40.3723496 0.47 40.3723496"></polygon>
        <polygon id="path-7" points="0.47 49.5532964 0.47 0.0392 45.4369 0.0392 45.4369 49.5532964 0.47 49.5532964"></polygon>
    </defs>
    <g id="monitor" stroke="none" stroke-width="1" fill="none" fill-rule="evenodd">
        <g id="Home" transform="translate(0.000000, -2605.000000)">
            <g id="Page-1" transform="translate(0.000000, 2605.000000)">
                <g id="Group-3" transform="translate(0.000000, 152.215000)">
                    <mask id="mask-2" fill="white">
                        <use xlink:href="#path-1"></use>
                    </mask>
                    <g id="Clip-2"></g>
                    <path d="M-160.5236,5.7421 C-160.5236,5.7421 -125.2836,71.1881 -51.0276,64.8951 C-14.7676,61.8221 10.5634,41.4321 37.3004,50.4911 C30.0934,17.9421 11.0284,-9.7149 -40.0386,3.2851 C-100.5356,18.6861 -103.0596,20.8491 -160.5236,5.7421" id="Fill-1" fill="#73E4E2" mask="url(#mask-2)"></path>
                </g>
                <g id="Group-6" transform="translate(0.000000, 30.215000)">
                    <mask id="mask-4" fill="white">
                        <use xlink:href="#path-3"></use>
                    </mask>
                    <g id="Clip-5"></g>
                    <path d="M-54.2916,108.8635 C-54.2916,108.8635 45.2674,90.7555 50.7844,40.6805 C52.1524,28.2675 48.2274,11.9025 55.2304,3.8115 C27.5934,-6.9825 3.5424,10.9665 -8.9826,53.8015 C-14.2716,71.8865 -34.1546,99.1095 -54.2916,108.8635" id="Fill-4" fill="#73E4E2" mask="url(#mask-4)"></path>
                </g>
                <g id="Group-9" transform="translate(0.000000, 128.215000)">
                    <mask id="mask-6" fill="white">
                        <use xlink:href="#path-5"></use>
                    </mask>
                    <g id="Clip-8"></g>
                    <path d="M-1.2972,7.0878 C-1.2972,7.0878 22.6788,2.3348 28.0848,20.4528 C32.0158,33.6288 39.4508,43.1638 50.7848,39.6308 C43.4608,34.4528 53.9228,25.3858 47.1118,12.0798 C39.4108,-2.9642 12.7728,-3.0102 -1.2972,7.0878" id="Fill-7" fill="#73E4E2" mask="url(#mask-6)"></path>
                </g>
                <g id="Group-12" transform="translate(0.000000, 224.215000)">
                    <mask id="mask-8" fill="white">
                        <use xlink:href="#path-7"></use>
                    </mask>
                    <g id="Clip-11"></g>
                    <path d="M-99.7551,0.0392 C-99.7551,0.0392 -65.7731,24.4722 -21.4391,8.1002 C25.9809,-9.4108 42.0269,6.9402 45.4369,19.6342 C37.2999,17.5582 17.4149,26.9482 5.2169,37.7842 C-15.8971,56.5412 -66.7111,58.7062 -99.7551,0.0392" id="Fill-10" fill="#73E4E2" mask="url(#mask-8)"></path>
                </g>
                <path d="M33.8257,120.4303 C33.8257,120.4303 47.2707,131.1833 62.8157,118.0553 C78.6837,104.6553 82.8677,105.8193 82.8677,105.8193 C82.8677,105.8193 75.1957,92.5723 61.4507,95.1883 C40.8827,99.1013 49.0857,112.5083 33.8257,120.4303" id="Fill-13" fill="#73E4E2"></path>
                <path d="M66.3757,73.0321 C66.3757,73.0321 73.3757,19.9771 122.1787,20.9071 C170.9817,21.8371 183.7607,0.9081 183.7607,0.9081 C183.7607,0.9081 198.9177,41.4181 167.0477,59.7591 C135.1787,78.1001 85.9197,50.2951 66.3757,73.0321" id="Fill-15" fill="#73E4E2"></path>
            </g>
        </g>
    </g>
</svg>