
<svg width="262px" height="299px" viewBox="0 0 262 299" version="1.1" xmlns="http://www.w3.org/2000/svg" xmlns:xlink="http://www.w3.org/1999/xlink">
    <!-- Generator: Sketch 43.2 (39069) - http://www.bohemiancoding.com/sketch -->
    <desc>Created with Sketch.</desc>
    <defs></defs>
    <g id="monitor" stroke="none" stroke-width="1" fill="none" fill-rule="evenodd">
        <g id="Home" transform="translate(-552.000000, -216.000000)" fill="#00A0A0">
            <g id="Page-1" transform="translate(552.000000, 216.000000)">
                <path d="M90.521487,138.421058 C99.4100343,140.911934 108.476353,148.443869 112.387313,151.52781 C116.298274,154.611752 117.305643,155.442044 117.305643,155.442044 C117.305643,155.442044 112.624341,155.442044 106.283844,158.288759 C99.9433472,161.135474 92.4769674,165.583467 80.921856,165.524161 C69.3667445,165.464854 57.4560911,165.227628 45.9602366,158.703905 C34.4643821,152.180182 26.2276617,139.42927 27.5905722,120.095328 C27.5905722,120.095328 27.7090862,122.586204 34.879181,126.500438 C42.0492758,130.414672 54.493242,131.660109 60.4781972,132.490401 C66.4631524,133.320693 77.671255,134.819964 90.521487,138.421058 Z" id="Fill-1"></path>
                <path d="M39.5012256,122.764124 C45.5454378,128.042409 56.9820353,127.271423 58.2264319,126.856277 C52.6562756,124.602628 48.5082869,117.900985 43.2936724,111.555182 C38.079058,105.20938 34.879181,101.710292 34.879181,101.710292 C33.1014716,110.072518 33.4570134,117.485839 39.5012256,122.764124" id="Fill-3"></path>
                <path d="M57.0610604,118.612664 C60.7743399,122.329051 68.8731101,127.666642 80.032859,130.770511 C80.032859,130.770511 69.5443732,125.729453 61.2483957,116.655547 C52.9524183,107.581642 50.2858541,98.3891241 49.9303122,97.1436861 C49.9303122,97.1436861 49.0414575,93.9017518 48.7849933,91.1337956 C48.6465689,89.4338321 49.0021108,89.0979197 50.6812167,89.2165328 C52.3598485,89.335146 59.9646525,90.5212774 72.8433279,97.835438 C71.1248754,95.4831022 64.6260437,87.5160949 54.3944962,84.7879927 C44.1629487,82.0598905 43.5305582,84.3135401 42.4639325,85.6581387 C41.3973068,87.0022628 40.9431613,92.6363869 44.9726361,101.710292 C49.0021108,110.784197 53.3477809,114.896277 57.0610604,118.612664" id="Fill-5"></path>
                <path d="M92.2399395,134.032372 C92.2399395,134.032372 84.4180179,121.518686 81.7514537,110.665584 C79.0848895,99.8124818 79.0256325,88.6035401 82.3440235,81.0716058 C85.6624145,73.5396715 91.4695987,75.7340146 99.4100343,87.7732482 C99.4100343,87.7732482 97.217526,80.5378467 90.0474312,74.1327372 C84.2402469,69.3882117 79.3811744,72.7392701 77.7219789,77.8690511 C76.4861153,81.690292 74.0480461,96.0761679 77.0108952,106.276898 C79.9737442,116.477628 81.575579,124.006241 92.2399395,134.032372" id="Fill-7"></path>
                <path d="M216.442574,120.095328 C216.442574,120.095328 216.32406,122.586204 209.153965,126.500438 C201.98387,130.414672 189.539904,131.660109 183.554949,132.490401 C177.569993,133.320693 166.361891,134.819964 153.511659,138.421058 C144.623112,140.911934 135.556793,148.443869 131.645832,151.52781 C127.734872,154.611752 126.727503,155.442044 126.727503,155.442044 C126.727503,155.442044 131.408805,155.442044 137.749302,158.288759 C144.089799,161.135474 151.556178,165.583467 163.11129,165.524161 C174.666401,165.464854 186.577055,165.227628 198.072909,158.703905 C209.568764,152.180182 217.805484,139.42927 216.442574,120.095328" id="Fill-9"></path>
                <path d="M185.806714,126.856277 C187.051111,127.271423 198.487708,128.042409 204.53192,122.764124 C210.576132,117.485839 210.931674,110.072518 209.153965,101.710292 C209.153965,101.710292 205.954088,105.20938 200.739473,111.555182 C195.524859,117.900985 191.37687,124.602628 185.806714,126.856277" id="Fill-11"></path>
                <path d="M195.248342,91.133938 C194.991404,93.9014197 194.102549,97.1438285 194.102549,97.1438285 C193.747007,98.3892664 191.080443,107.581785 182.784466,116.65569 C174.488488,125.729595 164.000002,130.770653 164.000002,130.770653 C175.160225,127.666785 183.258522,122.329193 186.972275,118.612807 C190.685555,114.895945 195.031225,110.784339 199.060699,101.710434 C203.090174,92.6365292 202.635555,87.0024051 201.568929,85.6578066 C200.502303,84.3136825 199.870387,82.0600328 189.638839,84.788135 C179.406818,87.5162372 172.90846,95.4832445 171.190008,97.8355803 C184.068683,90.5209453 191.673013,89.3348139 193.352119,89.2162007 C195.031225,89.0975876 195.386767,89.4339745 195.248342,91.133938" id="Fill-13"></path>
                <path d="M161.689122,81.0716058 C165.007513,88.6035401 164.948256,99.8124818 162.281692,110.665584 C159.615128,121.518686 151.793206,134.032372 151.793206,134.032372 C162.457567,124.006241 164.059402,116.477628 167.022251,106.276898 C169.9851,96.0761679 167.547031,81.690292 166.311167,77.8690511 C164.651971,72.7392701 159.792899,69.3882117 153.985715,74.1327372 C146.81562,80.5378467 144.623112,87.7732482 144.623112,87.7732482 C152.563547,75.7340146 158.370731,73.5396715 161.689122,81.0716058" id="Fill-15"></path>
                <path d="M138.667785,98.4187774 C142.163947,104.201405 144.030779,111.495639 144.297198,117.723303 C144.564092,123.950493 141.867662,129.050858 140.208466,132.164215 C138.549271,135.278047 133.986483,141.534653 131.467825,144.440675 C128.94964,147.346697 127.17193,151.379544 127.17193,151.379544 C132.001137,146.822901 139.438126,143.69958 145.541595,131.245201 C151.645064,118.790821 149.718975,112.800383 149.363433,107.611296 C149.007891,102.422208 144.65274,92.3989234 138.075215,84.6596533 C131.49769,76.9199088 122.016573,72.3831934 122.016573,72.3831934 C122.016573,72.3831934 112.535456,76.9199088 105.957931,84.6596533 C99.3804058,92.3989234 95.0247806,102.422208 94.6692387,107.611296 C94.3136968,112.800383 92.388082,118.790821 98.4915511,131.245201 C104.59502,143.69958 112.031534,146.822901 116.861215,151.379544 C116.861215,151.379544 115.083506,147.346697 112.564847,144.440675 C110.046663,141.534653 105.483875,135.278047 103.824679,132.164215 C102.165484,129.050858 99.4690543,123.950493 99.7359477,117.723303 C100.002367,111.495639 101.869199,104.201405 105.365361,98.4187774 C108.861523,92.6361496 113.602081,86.2609307 122.016573,81.842354 C130.431064,86.2609307 135.171623,92.6361496 138.667785,98.4187774" id="Fill-17"></path>
                <path d="M127.102766,59.5433212 C127.102766,62.2510219 124.909783,64.4458394 122.204346,64.4458394 C119.49891,64.4458394 117.305453,62.2510219 117.305453,59.5433212 C117.305453,56.8356204 119.49891,54.6408029 122.204346,54.6408029 C124.909783,54.6408029 127.102766,56.8356204 127.102766,59.5433212" id="Fill-19"></path>
                <path d="M121.749916,151.379544 C121.749916,151.379544 128.090414,141.090091 127.142302,131.600566 C126.19419,122.111515 115.251559,118.753339 113.05905,118.57542 C110.866542,118.3975 109.088833,118.592974 110.688771,120.312865 C110.688771,120.312865 117.601928,125.551296 120.031464,132.430858 C122.461,139.310894 123.231341,142.572755 121.749916,151.379544" id="Fill-21"></path>
                <path d="M123.113301,4.74476277 C62.86175,4.74476277 13.8434265,53.8041058 13.8434265,114.106077 C13.8434265,174.408047 62.86175,223.467391 123.113301,223.467391 C183.364852,223.467391 232.383176,174.408047 232.383176,114.106077 C232.383176,53.8041058 183.364852,4.74476277 123.113301,4.74476277 M123.113301,227.737464 C92.7865259,227.737464 64.2753846,215.917427 42.8305199,194.455566 C21.3866033,172.993704 9.57692379,144.457755 9.57692379,114.106077 C9.57692379,83.7539234 21.3866033,55.2184489 42.8305199,33.7565876 C64.2753846,12.2942518 92.7865259,0.474689781 123.113301,0.474689781 C153.440076,0.474689781 181.951218,12.2942518 203.395608,33.7565876 C224.839999,55.2184489 236.649678,83.7539234 236.649678,114.106077 C236.649678,144.457755 224.839999,172.99323 203.395608,194.455566 C181.951218,215.917427 153.440076,227.737464 123.113301,227.737464" id="Fill-23"></path>
                <path d="M13.2439355,253.182544 C13.2439355,251.625865 12.7589763,250.462033 11.788584,249.691047 C10.8181916,248.920062 9.45148861,248.534332 7.68847489,248.534332 L3.95528503,248.534332 L3.95528503,258.141996 L7.15516205,258.141996 C8.08857803,258.141996 8.92907906,258.03477 9.67761326,257.819369 C10.4256734,257.604442 11.0623304,257.285609 11.5885324,256.863347 C12.1142604,256.440609 12.5219484,255.921558 12.8106484,255.306668 C13.0993484,254.691303 13.2439355,253.982945 13.2439355,253.182544 L13.2439355,253.182544 Z M19.5768476,274.266266 L15.1107674,274.266266 L10.7774228,264.969843 C10.4512724,264.258164 10.1180111,263.668894 9.77763904,263.201558 C9.43679288,262.734697 9.06987365,262.36415 8.6773554,262.089442 C8.28483715,261.815208 7.85534255,261.618785 7.38839753,261.500172 C6.92192657,261.381558 6.39951702,261.322252 5.82211699,261.322252 L3.95528503,261.322252 L3.95528503,274.266266 L0.000237027928,274.266266 L0.000237027928,245.198456 L7.77759739,245.198456 C9.46618435,245.198456 10.9182174,245.383967 12.1327485,245.754515 C13.3477537,246.125062 14.343745,246.644113 15.1216707,247.311193 C15.8995964,247.978274 16.4698856,248.782945 16.8325383,249.724259 C17.1956651,250.665573 17.3772285,251.707471 17.3772285,252.849004 C17.3772285,253.75331 17.2440188,254.609697 16.9771253,255.41769 C16.7102319,256.225682 16.3143952,256.959661 15.7881932,257.619624 C15.2624653,258.279113 14.6106385,258.84988 13.8327128,259.331923 C13.0552612,259.813967 12.1626141,260.173128 11.1552454,260.410354 C11.9696733,260.692179 12.6622689,261.185135 13.2330322,261.889697 C13.8033214,262.593785 14.3845138,263.531303 14.9770837,264.702726 L19.5768476,274.266266 Z" id="Fill-25"></path>
                <polygon id="Fill-27" points="42.2205996 274.266029 25.7101823 274.266029 25.7101823 245.198219 42.2205996 245.198219 42.2205996 248.534569 29.6657043 248.534569 29.6657043 257.541577 41.731848 257.541577 41.731848 260.877453 29.6657043 260.877453 29.6657043 270.885555 42.2205996 270.885555"></polygon>
                <polygon id="Fill-29" points="68.6640041 274.266029 63.5086467 274.266029 55.0424831 256.140518 52.5977771 250.313766 52.5977771 264.969606 52.5977771 274.266029 48.9091485 274.266029 48.9091485 245.198219 53.9981381 245.198219 62.0641985 262.367708 64.9753755 269.017161 64.9753755 253.449423 64.9753755 245.198219 68.6640041 245.198219"></polygon>
                <path d="M90.5298304,259.698818 C90.5298304,257.637796 90.3373637,255.895606 89.9519563,254.472248 C89.567023,253.048891 88.981564,251.900241 88.1965275,251.02535 C87.411491,250.15046 86.4264029,249.516591 85.2412633,249.123745 C84.0561237,248.730898 82.6633475,248.534474 81.063409,248.534474 L77.6634804,248.534474 L77.6634804,270.840861 L80.6192187,270.840861 C87.2261352,270.840861 90.5298304,267.126847 90.5298304,259.698818 M94.685404,259.409876 C94.685404,260.803343 94.5777934,262.137978 94.3630461,263.412832 C94.1482988,264.688161 93.8036601,265.874292 93.3296043,266.971226 C92.8555484,268.068635 92.240698,269.06546 91.485527,269.96265 C90.729882,270.859365 89.8040509,271.627029 88.7075597,272.264219 C87.6115426,272.901883 86.3372804,273.394839 84.8857214,273.743562 C83.4336883,274.09181 81.7820777,274.265934 79.9304155,274.265934 L73.7084324,274.265934 L73.7084324,245.198599 L81.1970928,245.198599 C85.7300149,245.198599 89.1114553,246.365752 91.34094,248.701007 C93.5704247,251.036263 94.685404,254.606044 94.685404,259.409876" id="Fill-31"></path>
                <path d="M108.01064,272.928358 C109.668413,272.459124 111.38971,271.707591 113.173108,270.673759 C114.956032,269.640401 116.575407,268.505985 118.030759,267.268613 C119.485162,266.03219 120.650391,264.763504 121.526921,263.463978 C122.402028,262.164927 122.76231,260.997774 122.606346,259.964891 C122.480721,259.27646 121.831739,258.798686 120.658924,258.532044 C119.485162,258.26635 118.100919,258.172409 116.505247,258.250219 C114.909575,258.328978 113.290674,258.555292 111.647597,258.931058 C110.004993,259.306825 108.651564,259.776533 107.587782,260.340657 L107.587782,262.618504 C107.587782,263.698832 107.6039,264.881168 107.635188,266.164562 C107.665527,267.448905 107.712933,268.717117 107.775982,269.969672 C107.838558,271.222226 107.916777,272.208613 108.01064,272.928358 M107.21233,247.282299 C107.087653,249.255073 107.102823,251.087409 107.259736,252.777883 C107.4157,254.469307 107.525207,256.222883 107.587782,258.038613 C108.401262,257.694635 109.23086,257.240584 110.075153,256.67646 C110.920395,256.113285 111.717757,255.440036 112.468661,254.656715 C113.22004,253.874818 113.877081,252.997555 114.44026,252.02635 C115.003438,251.056095 115.40923,249.975766 115.660479,248.785365 C115.754342,248.190876 115.558557,247.681788 115.073598,247.258577 C114.588165,246.836314 113.939183,246.554489 113.126177,246.413577 C112.312223,246.272664 111.381177,246.265547 110.333514,246.389854 C109.284902,246.515584 108.245298,246.812591 107.21233,247.282299 M122.606346,257.28708 C123.638839,257.851204 124.232831,258.610328 124.389744,259.565401 C124.545708,260.520949 124.396855,261.538175 123.943657,262.618504 C123.489512,263.698832 122.824886,264.802409 121.94883,265.929708 C121.073249,267.057007 120.118975,268.075182 119.086481,268.983285 C118.96133,269.10854 118.7883,269.257518 118.56976,269.42927 C118.350746,269.601496 118.131733,269.774197 117.913193,269.945949 C117.693705,270.118175 117.482276,270.274745 117.279854,270.415657 C117.075536,270.556569 116.927631,270.673759 116.833294,270.767701 C115.331485,271.801058 113.814032,272.686387 112.281409,273.421788 C110.747839,274.158139 109.105709,274.838029 107.353599,275.465255 C106.570932,275.62135 105.882603,275.652664 105.288611,275.559197 C104.693671,275.465255 104.201127,275.308212 103.810505,275.089489 C103.418461,274.869818 103.129761,274.619307 102.942035,274.337956 C102.754309,274.055657 102.675615,273.80562 102.706903,273.586423 C103.457808,273.743467 104.029045,273.828869 104.420615,273.844526 C104.811237,273.860657 105.116529,273.844526 105.335069,273.797555 C105.553609,273.750584 105.710521,273.688431 105.804858,273.609672 C105.898721,273.531861 106.023398,273.461168 106.18031,273.398066 C106.211124,272.678321 106.226768,272.035912 106.226768,271.472737 C106.226768,270.908613 106.234353,270.391934 106.250471,269.922226 C106.26564,269.452993 106.281758,268.999416 106.297876,268.560547 C106.313046,268.122153 106.336749,267.667628 106.368037,267.198394 C106.336749,265.882737 106.297876,264.708942 106.250471,263.675109 C106.203539,262.641752 106.18031,261.781095 106.18031,261.09219 C105.335069,261.436642 104.717374,261.710401 104.326752,261.913942 C103.934708,262.117956 103.646008,262.265985 103.457808,262.360401 C103.270556,262.454343 103.15299,262.500839 103.106058,262.500839 C103.059601,262.500839 102.972849,262.47 102.847698,262.406898 C102.723021,262.344745 102.644328,262.22708 102.613514,262.054854 C102.581752,261.883102 102.566583,261.70281 102.566583,261.514453 C102.566583,261.29573 102.581752,261.044745 102.613514,260.76292 C102.832054,260.606825 103.035898,260.473978 103.22315,260.363905 C103.41135,260.254307 103.622305,260.137117 103.856963,260.011387 C104.09162,259.88708 104.380794,259.737628 104.724959,259.565401 C105.069123,259.39365 105.507151,259.15073 106.039516,258.837591 C106.007754,257.741606 105.984525,256.770401 105.968882,255.924927 C105.952764,255.079927 105.922424,254.257701 105.875018,253.459197 C105.828087,252.660693 105.765512,251.823285 105.687766,250.946496 C105.609073,250.069708 105.523269,249.06719 105.429406,247.939891 C105.429406,247.815109 105.209918,247.838832 104.772365,248.010584 C104.333863,248.183285 103.83326,248.433321 103.270556,248.762117 C102.706903,249.090912 102.151784,249.474745 101.604249,249.912664 C101.056715,250.351533 100.658508,250.789927 100.407732,251.228321 C100.157905,251.509672 99.9782377,251.776314 99.8677826,252.02635 C99.7587498,252.27781 99.6648867,252.488942 99.5861935,252.660693 C99.5084483,252.833394 99.4458729,252.927336 99.3984674,252.942518 C99.3515358,252.95865 99.2662058,252.856642 99.140581,252.636971 C99.2036304,251.823285 99.438288,251.063686 99.8440799,250.359124 C100.251294,249.654562 100.751897,249.028759 101.345889,248.480292 C101.939881,247.932774 102.589811,247.463066 103.293784,247.071168 C103.997757,246.680219 104.678501,246.359489 105.335069,246.108504 C105.366357,245.764051 105.366357,245.497883 105.335069,245.309526 C105.303781,245.122117 105.318951,244.949891 105.382474,244.792847 C105.538439,244.762482 105.773096,244.597847 106.085973,244.299891 C106.39885,244.002409 106.617864,243.853905 106.743489,243.853905 C106.80559,244.041314 106.852996,244.22208 106.884283,244.393832 C106.914623,244.566533 106.946385,244.715036 106.978146,244.840292 C107.00896,244.997336 107.040248,245.138248 107.072009,245.262555 C107.885015,244.792847 108.808476,244.487774 109.840496,244.346861 C110.873463,244.205949 111.866136,244.190766 112.820885,244.299891 C113.775159,244.409964 114.619453,244.628686 115.355187,244.957482 C116.089974,245.286277 116.582992,245.670109 116.833294,246.108504 C117.459521,246.953978 117.678535,247.900985 117.490809,248.95 C117.303083,249.999489 116.919572,251.024781 116.34075,252.02635 C115.761927,253.029343 115.073598,253.952628 114.275762,254.797628 C113.477926,255.643102 112.797656,256.300693 112.234478,256.770401 C113.203922,256.582993 114.189484,256.441606 115.19069,256.348139 C116.191896,256.253723 117.154229,256.230474 118.077216,256.277445 C119.000203,256.324416 119.852555,256.426423 120.635222,256.582993 C121.416466,256.740036 122.073981,256.974416 122.606346,257.28708" id="Fill-33"></path>
                <path d="M145.602274,242.115843 C144.851369,242.554712 143.763885,243.039602 142.340296,243.571464 C140.916232,244.104274 139.383609,244.636609 137.741006,245.168945 C136.098402,245.701755 134.44774,246.241682 132.789966,246.789675 C131.131245,247.337668 129.692011,247.862412 128.471791,248.36296 C128.534367,249.083653 128.581298,249.701391 128.61306,250.218069 C128.643874,250.734748 128.683694,251.298398 128.730152,251.909493 C128.777083,252.520113 128.854829,253.271646 128.96481,254.164091 C129.074316,255.056062 129.23834,256.254055 129.457354,257.75712 C130.678047,257.225259 131.66361,256.810588 132.414514,256.512631 C133.165419,256.21515 133.947137,255.941391 134.761091,255.689931 C135.57457,255.439894 136.53643,255.158069 137.647143,254.844931 C138.757855,254.532266 140.267249,254.093398 142.175798,253.529748 C142.332711,253.561062 142.519963,253.663069 142.739451,253.834821 C142.95799,254.007047 143.138132,254.203471 143.2794,254.421719 C143.419721,254.641391 143.490355,254.861062 143.490355,255.079785 C143.490355,255.298982 143.380374,255.471208 143.161834,255.596464 C141.847752,255.753507 140.556897,255.995478 139.29022,256.324274 C138.022595,256.653544 136.825604,257.02931 135.699247,257.451573 C134.57289,257.87431 133.524279,258.305113 132.555309,258.743507 C131.58539,259.182376 130.724979,259.573325 129.974075,259.917777 C130.036176,261.390004 130.200673,262.81431 130.466619,264.19212 C130.73209,265.570405 131.092372,266.815369 131.546518,267.926062 C131.999715,269.038179 132.531606,269.954347 133.141716,270.673617 C133.751826,271.394785 134.43257,271.817522 135.183,271.942303 C135.527165,272.005405 136.012124,272.059493 136.638352,272.106464 C137.263631,272.153909 137.999366,272.052376 138.844134,271.800916 C139.688427,271.55088 140.642702,271.089237 141.706957,270.415515 C142.76979,269.742741 143.943552,268.701318 145.226822,267.291719 C146.071115,266.540186 146.681225,266.117923 147.056677,266.023982 C147.432129,265.929566 147.479535,266.070953 147.197472,266.446719 C146.353178,267.355296 145.578571,268.207887 144.874598,269.006865 C144.170625,269.804894 143.442949,270.525588 142.692045,271.167047 C141.941141,271.809456 141.127661,272.36504 140.252079,272.834748 C139.37555,273.303982 138.3587,273.633252 137.201056,273.821135 C135.605858,274.166062 134.275183,274.079237 133.211876,273.562558 C132.148095,273.04588 131.280098,272.200405 130.607413,271.026609 C129.934254,269.851865 129.394778,268.388653 128.988512,266.634602 C128.581298,264.881026 128.22149,262.94004 127.909087,260.809748 C127.376722,260.873325 126.938695,260.974383 126.59453,261.115296 C126.250366,261.256682 125.797168,261.514785 125.23399,261.890551 C124.983214,261.859712 124.889351,261.725916 124.951927,261.491062 C125.014502,261.256682 125.179,260.974383 125.444945,260.646062 C125.710416,260.316792 126.038937,259.972814 126.430981,259.61223 C126.821603,259.252595 127.20464,258.947522 127.580092,258.696536 C127.39284,257.412668 127.212225,256.074237 127.041091,254.680296 C126.868061,253.287303 126.704037,251.955989 126.548073,250.687777 C126.39116,249.42004 126.274069,248.276609 126.195849,247.258909 C126.117156,246.241682 126.078283,245.466427 126.078283,244.933617 C126.266484,244.84015 126.407278,244.769931 126.501141,244.722485 C126.59453,244.675989 126.695978,244.636609 126.806433,244.605296 C126.915466,244.574456 127.047728,244.551208 127.20464,244.535077 C127.361079,244.518945 127.61138,244.496172 127.955545,244.464383 C128.01812,244.621427 128.056993,244.84015 128.073111,245.121974 C128.088754,245.403799 128.096339,245.654785 128.096339,245.873507 C129.692011,245.466427 131.131245,245.075004 132.414514,244.698763 C133.696835,244.322996 134.948343,243.95577 136.169036,243.595186 C137.389256,243.235551 138.624646,242.875442 139.876627,242.515332 C141.127661,242.155223 142.504793,241.787047 144.006602,241.411281 C144.256429,241.349128 144.499146,241.340588 144.733804,241.387558 C144.968461,241.434529 145.163298,241.512814 145.320211,241.622412 C145.476649,241.732485 145.586156,241.834018 145.649205,241.92796 C145.711307,242.021901 145.695663,242.085004 145.602274,242.115843" id="Fill-35"></path>
                <path d="M167.028319,245.198361 L167.028319,265.392485 C167.028319,266.637923 166.842489,267.820259 166.472725,268.939493 C166.102488,270.058726 165.539309,271.033726 164.784138,271.864018 C164.028493,272.69431 163.080381,273.354274 161.939803,273.843434 C160.798277,274.332595 159.458121,274.577412 157.917439,274.577412 C157.340039,274.577412 156.750788,274.536609 156.151107,274.455004 C155.550952,274.373398 154.973078,274.262376 154.417485,274.121464 C153.862365,273.980551 153.339956,273.810223 152.851204,273.610004 C152.362453,273.409785 151.940069,273.191062 151.584527,272.953836 L151.584527,268.972704 C152.502773,269.640259 153.521045,270.166427 154.639817,270.552157 C155.758589,270.937412 156.865509,271.13004 157.962,271.13004 C159.576161,271.13004 160.820557,270.637084 161.69519,269.651172 C162.569349,268.665259 163.006429,267.245697 163.006429,265.392485 L163.006429,248.623434 L151.962349,248.623434 L151.962349,245.198361 L167.028319,245.198361 Z" id="Fill-37"></path>
                <path d="M187.708531,237.369894 C188.034208,237.369894 188.345188,237.432996 188.641947,237.558726 C188.938232,237.684931 189.189482,237.851938 189.397592,238.059274 C189.604755,238.267084 189.771622,238.519018 189.897247,238.815551 C190.022872,239.112084 190.086395,239.423325 190.086395,239.749748 C190.086395,240.075697 190.022872,240.383617 189.897247,240.672558 C189.771622,240.9615 189.604755,241.210113 189.397592,241.417449 C189.189482,241.625259 188.938232,241.791792 188.641947,241.917996 C188.345188,242.044201 188.034208,242.106828 187.708531,242.106828 C187.042009,242.106828 186.482623,241.880989 186.030848,241.428836 C185.578598,240.976682 185.352948,240.416828 185.352948,239.749748 C185.352948,239.423325 185.415997,239.112084 185.542096,238.815551 C185.667247,238.519018 185.834114,238.267084 186.041751,238.059274 C186.249387,237.851938 186.497319,237.684931 186.786493,237.558726 C187.075193,237.432996 187.382855,237.369894 187.708531,237.369894 M190.019554,259.832376 C190.019554,258.127193 189.889662,256.566719 189.630828,255.150953 C189.371519,253.734712 188.952928,252.515369 188.375054,251.492449 C187.79718,250.469055 187.052912,249.67577 186.141777,249.112595 C185.230641,248.548945 184.130832,248.267595 182.841874,248.267595 C181.597477,248.267595 180.527533,248.567923 179.631094,249.168106 C178.73418,249.768763 177.997971,250.584347 177.420097,251.614383 C176.842223,252.644894 176.412254,253.853325 176.131139,255.239675 C175.84955,256.626026 175.709229,258.097777 175.709229,259.654456 C175.709229,261.374347 175.842439,262.941938 176.108858,264.358179 C176.375752,265.773945 176.794343,266.989967 177.364632,268.005296 C177.934448,269.021099 178.672079,269.810588 179.575629,270.374237 C180.478705,270.937412 181.567612,271.219237 182.841874,271.219237 C184.08627,271.219237 185.160481,270.918909 186.064031,270.318252 C186.967582,269.718069 187.71185,268.902485 188.297309,267.871974 C188.882768,266.841464 189.316055,265.636828 189.59717,264.258069 C189.878285,262.87931 190.019554,261.403763 190.019554,259.832376 M177.97569,237.369894 C178.300893,237.369894 178.609029,237.432996 178.897729,237.558726 C179.186429,237.684931 179.438627,237.851938 179.653374,238.059274 C179.867647,238.267084 180.038307,238.519018 180.164406,238.815551 C180.290031,239.112084 180.353081,239.423325 180.353081,239.749748 C180.353081,240.075697 180.290031,240.383617 180.164406,240.672558 C180.038307,240.9615 179.867647,241.210113 179.653374,241.417449 C179.438627,241.625259 179.186429,241.791792 178.897729,241.917996 C178.609029,242.044201 178.300893,242.106828 177.97569,242.106828 C177.309168,242.106828 176.749782,241.880989 176.298007,241.428836 C175.845757,240.976682 175.620107,240.416828 175.620107,239.749748 C175.620107,239.423325 175.683156,239.112084 175.808781,238.815551 C175.934406,238.519018 176.101274,238.267084 176.30891,238.059274 C176.516547,237.851938 176.764478,237.684931 177.053178,237.558726 C177.342352,237.432996 177.64954,237.369894 177.97569,237.369894 M194.130566,259.54296 C194.130566,262.152449 193.82243,264.406099 193.208527,266.303909 C192.593677,268.201719 191.764079,269.769785 190.719734,271.007631 C189.674915,272.245953 188.452799,273.164967 187.052912,273.765624 C185.653025,274.366281 184.175393,274.666135 182.620016,274.666135 C180.753184,274.666135 179.127172,274.328799 177.742455,273.654602 C176.35679,272.979931 175.2091,272.004931 174.297965,270.730077 C173.38683,269.454748 172.70893,267.901865 172.26474,266.070478 C171.820075,264.239566 171.598217,262.174748 171.598217,259.876974 C171.598217,257.296901 171.901139,255.05796 172.508878,253.16015 C173.116618,251.262339 173.942423,249.694748 174.986768,248.456427 C176.031113,247.21858 177.249911,246.299091 178.642213,245.698909 C180.034515,245.098252 181.508829,244.797923 183.064206,244.797923 C184.931038,244.797923 186.556101,245.139055 187.941767,245.820843 C189.326958,246.503106 190.47844,247.478106 191.39716,248.745843 C192.31588,250.013106 193.000417,251.558872 193.452666,253.382668 C193.904441,255.206464 194.130566,257.259894 194.130566,259.54296" id="Fill-39"></path>
                <path d="M215.277392,266.393058 C215.277392,267.771818 214.995803,268.980248 214.433098,270.01835 C213.869446,271.055978 213.084883,271.919482 212.077515,272.609336 C211.069672,273.298715 209.858459,273.813971 208.444351,274.154628 C207.029768,274.495759 205.470124,274.666088 203.766841,274.666088 C202.996501,274.666088 202.229952,274.636672 201.466722,274.577365 C200.703493,274.518058 199.970128,274.444044 199.267103,274.354847 C198.56313,274.266124 197.9004,274.162219 197.277965,274.043606 C196.656004,273.924993 196.092351,273.798788 195.589378,273.665467 L195.589378,269.840431 C196.700091,270.255577 197.947806,270.581526 199.333471,270.818752 C200.718662,271.055978 202.292054,271.174591 204.055541,271.174591 C205.329804,271.174591 206.414443,271.074482 207.310883,270.874263 C208.207323,270.674044 208.940687,270.377511 209.510976,269.984664 C210.080791,269.591818 210.496064,269.113569 210.755373,268.550394 C211.014207,267.986745 211.144099,267.341964 211.144099,266.615577 C211.144099,265.829883 210.925085,265.158533 210.488479,264.602949 C210.051874,264.046891 209.477792,263.550139 208.766709,263.112693 C208.055625,262.675248 207.244515,262.27481 206.33338,261.911854 C205.422245,261.548423 204.492147,261.17408 203.544509,260.78835 C202.596398,260.403095 201.666774,259.984153 200.755639,259.532 C199.844503,259.079847 199.033394,258.546088 198.32231,257.930723 C197.611226,257.315358 197.036671,256.592766 196.600539,255.762474 C196.16346,254.932182 195.94492,253.94627 195.94492,252.804263 C195.94492,251.811234 196.152082,250.832438 196.566881,249.868825 C196.981206,248.905212 197.625922,248.048825 198.500081,247.300139 C199.37424,246.551453 200.49633,245.947 201.866826,245.487255 C203.236847,245.027985 204.869969,244.797876 206.766667,244.797876 C207.255419,244.797876 207.784939,244.820175 208.355228,244.864774 C208.925517,244.909372 209.502917,244.972474 210.08885,245.053606 C210.673835,245.135212 211.251709,245.228204 211.821999,245.331635 C212.391814,245.43554 212.921808,245.546562 213.41056,245.665175 L213.41056,249.223569 C212.269507,248.89762 211.129403,248.649482 209.988825,248.478679 C208.847772,248.30835 207.74417,248.222949 206.677544,248.222949 C204.411083,248.222949 202.744777,248.601088 201.678151,249.357365 C200.611526,250.113168 200.077739,251.128971 200.077739,252.404299 C200.077739,253.189993 200.296279,253.864664 200.733358,254.427839 C201.169964,254.991489 201.744519,255.495358 202.455603,255.940394 C203.166687,256.384956 203.977796,256.78919 204.888932,257.152146 C205.800067,257.515577 206.729691,257.88992 207.677802,258.27565 C208.62544,258.660905 209.555538,259.083642 210.466673,259.542912 C211.377334,260.002657 212.188444,260.547803 212.899528,261.177876 C213.610611,261.807949 214.184693,262.545723 214.621772,263.390723 C215.058378,264.235723 215.277392,265.236343 215.277392,266.393058" id="Fill-41"></path>
                <path d="M238.068622,266.393058 C238.068622,267.771818 237.787033,268.980248 237.224329,270.01835 C236.661151,271.055978 235.876114,271.919482 234.868745,272.609336 C233.861377,273.298715 232.650164,273.813971 231.235581,274.154628 C229.820999,274.495759 228.261829,274.666088 226.558072,274.666088 C225.787731,274.666088 225.021183,274.636672 224.257953,274.577365 C223.495197,274.518058 222.761833,274.444044 222.058334,274.354847 C221.354361,274.266124 220.691631,274.162219 220.069196,274.043606 C219.447234,273.924993 218.884056,273.798788 218.380609,273.665467 L218.380609,269.840431 C219.491322,270.255577 220.739511,270.581526 222.124702,270.818752 C223.509893,271.055978 225.083759,271.174591 226.846772,271.174591 C228.121034,271.174591 229.206148,271.074482 230.102114,270.874263 C230.998553,270.674044 231.731918,270.377511 232.302207,269.984664 C232.872496,269.591818 233.287295,269.113569 233.546604,268.550394 C233.805912,267.986745 233.935329,267.341964 233.935329,266.615577 C233.935329,265.829883 233.71679,265.158533 233.27971,264.602949 C232.843105,264.046891 232.269023,263.550139 231.557939,263.112693 C230.846856,262.675248 230.035746,262.27481 229.124611,261.911854 C228.213475,261.548423 227.283852,261.17408 226.33574,260.78835 C225.387628,260.403095 224.458005,259.984153 223.546869,259.532 C222.635734,259.079847 221.824625,258.546088 221.113541,257.930723 C220.402457,257.315358 219.828375,256.592766 219.39177,255.762474 C218.95469,254.932182 218.736151,253.94627 218.736151,252.804263 C218.736151,251.811234 218.943313,250.832438 219.358112,249.868825 C219.772911,248.905212 220.417627,248.048825 221.291312,247.300139 C222.165471,246.551453 223.287561,245.947 224.658056,245.487255 C226.028552,245.027985 227.661674,244.797876 229.557898,244.797876 C230.046649,244.797876 230.57617,244.820175 231.146459,244.864774 C231.717222,244.909372 232.294622,244.972474 232.880081,245.053606 C233.465066,245.135212 234.04294,245.228204 234.613229,245.331635 C235.183519,245.43554 235.713039,245.546562 236.201791,245.665175 L236.201791,249.223569 C235.061212,248.89762 233.920634,248.649482 232.780055,248.478679 C231.639003,248.30835 230.535401,248.222949 229.468775,248.222949 C227.202314,248.222949 225.536008,248.601088 224.469382,249.357365 C223.402756,250.113168 222.86897,251.128971 222.86897,252.404299 C222.86897,253.189993 223.087509,253.864664 223.524589,254.427839 C223.961668,254.991489 224.53575,255.495358 225.246834,255.940394 C225.957918,256.384956 226.769027,256.78919 227.680162,257.152146 C228.591298,257.515577 229.520921,257.88992 230.469033,258.27565 C231.417145,258.660905 232.346768,259.083642 233.257904,259.542912 C234.168565,260.002657 234.979675,260.547803 235.690758,261.177876 C236.401842,261.807949 236.975924,262.545723 237.413003,263.390723 C237.850083,264.235723 238.068622,265.236343 238.068622,266.393058" id="Fill-43"></path>
                <polygon id="Fill-45" points="260.948786 248.311956 246.126956 270.574219 261.237486 270.574219 261.237486 274.265934 241.17165 274.265934 241.17165 271.308197 256.082129 248.801117 241.571753 248.801117 241.571753 245.198599 260.948786 245.198599"></polygon>
                <polygon id="Fill-47" points="19.7672759 288.411073 19.7672759 289.586766 16.4446184 289.586766 16.4446184 298.280161 15.0954554 298.280161 15.0954554 289.586766 11.7727979 289.586766 11.7727979 288.411073"></polygon>
                <path d="M30.2576105,294.235642 L28.7396836,289.875423 L27.1620257,294.235642 L30.2576105,294.235642 Z M28.0423475,288.411263 L29.5507932,288.411263 L33.1294409,298.279876 L31.6665045,298.279876 L30.6368552,295.324036 L26.7685594,295.324036 L25.6990894,298.279876 L24.329542,298.279876 L28.0423475,288.411263 Z" id="Fill-49"></path>
                <polygon id="Fill-51" points="39.5174857 288.411073 41.0908771 288.411073 46.0082585 296.385197 46.0082585 288.411073 47.2844169 288.411073 47.2844169 298.280161 45.783556 298.280161 40.792696 290.315526 40.792696 298.280161 39.5174857 298.280161"></polygon>
                <path d="M59.6292106,285.689945 L57.8368054,287.63188 L56.9109743,287.63188 L58.138779,285.689945 L59.6292106,285.689945 Z M59.7207033,294.235785 L58.2023024,289.875091 L56.6251186,294.235785 L59.7207033,294.235785 Z M57.5059144,288.410931 L59.0138861,288.410931 L62.5930078,298.280018 L61.1291233,298.280018 L60.099948,295.324179 L56.2311782,295.324179 L55.1617082,298.280018 L53.7921608,298.280018 L57.5059144,288.410931 Z" id="Fill-53"></path>
                <path d="M75.9554098,289.129726 C76.636154,289.788266 77.0144506,290.536004 77.0898255,291.373412 L75.787594,291.373412 C75.6425329,290.737646 75.3533589,290.233777 74.9200718,289.862281 C74.4872588,289.49031 73.8795192,289.304325 73.0978011,289.304325 C72.1440007,289.304325 71.3736599,289.646405 70.7872529,290.329617 C70.1998977,291.013303 69.9069311,292.061369 69.9069311,293.472865 C69.9069311,294.630055 70.1719284,295.567573 70.7019228,296.287318 C71.2314432,297.007062 72.0212202,297.366223 73.0722021,297.366223 C74.039276,297.366223 74.7759588,296.987609 75.2813024,296.231332 C75.549618,295.832318 75.7491955,295.308047 75.8814571,294.658522 L77.1836885,294.658522 C77.0684929,295.698047 76.6878261,296.569142 76.0426361,297.272281 C75.2685029,298.118704 74.2241578,298.542391 72.910075,298.542391 C71.7775555,298.542391 70.8270735,298.194617 70.0572068,297.500493 C69.0441495,296.581478 68.5378578,295.162865 68.5378578,293.244653 C68.5378578,291.788084 68.9175766,290.593887 69.6789103,289.661588 C70.5013972,288.648631 71.6362869,288.142391 73.0821573,288.142391 C74.3165987,288.142391 75.2741915,288.471186 75.9554098,289.129726" id="Fill-55"></path>
                <path d="M84.9643199,295.095588 C84.9941854,295.655442 85.1217064,296.109967 85.3459348,296.459164 C85.7725851,297.113434 86.5249117,297.440332 87.6019666,297.440332 C88.0855036,297.440332 88.5254274,297.36869 88.9217381,297.225405 C89.6892346,296.947376 90.0722717,296.45015 90.0722717,295.733726 C90.0722717,295.196172 89.9106187,294.813288 89.5849423,294.585077 C89.2554735,294.361135 88.7397007,294.166135 88.0371499,294.000551 L86.7429774,293.698325 C85.8977358,293.501427 85.2994773,293.284128 84.948676,293.046427 C84.3414105,292.634602 84.0380147,292.018763 84.0380147,291.198909 C84.0380147,290.312157 84.3366699,289.584347 84.9330322,289.015478 C85.5289204,288.446609 86.374636,288.162412 87.4673348,288.162412 C88.4732813,288.162412 89.328004,288.411974 90.0310288,288.911573 C90.7345277,289.411172 91.0862772,290.209201 91.0862772,291.306609 L89.8309773,291.306609 C89.7669797,290.777595 89.6295035,290.372887 89.4190227,290.090113 C89.0288748,289.575332 88.3661447,289.317704 87.4303584,289.317704 C86.6751874,289.317704 86.1328675,289.483763 85.8024506,289.814931 C85.4715596,290.146099 85.3070622,290.531828 85.3070622,290.970697 C85.3070622,291.454164 85.5018992,291.808106 85.8920472,292.032047 C86.1475633,292.175332 86.7268595,292.354675 87.6285138,292.569602 L88.9681956,292.885113 C89.6148078,293.037412 90.1130405,293.246172 90.4643159,293.509967 C91.0715814,293.971609 91.3749772,294.641062 91.3749772,295.518799 C91.3749772,296.611464 90.9876736,297.393361 90.2130663,297.863544 C89.438459,298.333726 88.538227,298.569055 87.5123701,298.569055 C86.3168012,298.569055 85.3805409,298.255442 84.7040632,297.62869 C84.0271114,297.005734 83.6957464,296.161682 83.70902,295.095588 L84.9643199,295.095588 Z" id="Fill-57"></path>
                <path d="M103.536738,294.235642 L102.018337,289.875423 L100.441153,294.235642 L103.536738,294.235642 Z M101.321949,288.411263 L102.829921,288.411263 L106.409042,298.279876 L104.945158,298.279876 L103.915983,295.324036 L100.047213,295.324036 L98.9777428,298.279876 L97.6081954,298.279876 L101.321949,288.411263 Z" id="Fill-59"></path>
                <path d="M116.53625,297.137964 C116.97807,297.137964 117.341197,297.090993 117.626105,296.996577 C118.133344,296.822453 118.549091,296.486066 118.872872,295.989314 C119.130758,295.590299 119.316588,295.079788 119.430361,294.457781 C119.496255,294.085336 119.528965,293.740883 119.528965,293.422526 C119.528965,292.200336 119.291463,291.250482 118.816933,290.573912 C118.342403,289.897818 117.577751,289.559533 116.523451,289.559533 L114.205792,289.559533 L114.205792,297.137964 L116.53625,297.137964 Z M112.856629,288.410883 L116.798403,288.410883 C118.136189,288.410883 119.173897,288.892453 119.911528,289.855117 C120.569517,290.723839 120.898512,291.836905 120.898512,293.194314 C120.898512,294.24238 120.704149,295.189861 120.315898,296.036285 C119.630887,297.532234 118.45428,298.279971 116.784655,298.279971 L112.856629,298.279971 L112.856629,288.410883 Z" id="Fill-61"></path>
                <path d="M133.646727,285.421215 L131.854322,287.36315 L130.928491,287.36315 L132.155822,285.421215 L133.646727,285.421215 Z M134.851303,296.112055 C135.377031,295.267529 135.640132,294.29585 135.640132,293.197967 C135.640132,292.036507 135.337211,291.10231 134.730893,290.393478 C134.124576,289.68512 133.295926,289.331179 132.243996,289.331179 C131.223828,289.331179 130.391386,289.681799 129.74667,290.383515 C129.102428,291.08523 128.78007,292.119536 128.78007,293.486434 C128.78007,294.580522 129.055971,295.502858 129.60872,296.253442 C130.161469,297.0045 131.057908,297.379792 132.297564,297.379792 C133.474645,297.379792 134.325575,296.957055 134.851303,296.112055 L134.851303,296.112055 Z M136.029806,289.821288 C136.682581,290.69523 137.00968,291.812566 137.00968,293.174245 C137.00968,294.64742 136.636598,295.872456 135.888538,296.849354 C135.011534,297.995631 133.760501,298.569245 132.136385,298.569245 C130.618933,298.569245 129.426682,298.067274 128.558212,297.064281 C127.784079,296.096872 127.396775,294.873734 127.396775,293.395814 C127.396775,292.061179 127.728614,290.919172 128.390396,289.969792 C129.241326,288.751398 130.498522,288.142201 132.163407,288.142201 C133.90414,288.142201 135.193098,288.702055 136.029806,289.821288 L136.029806,289.821288 Z" id="Fill-63"></path>
                <polygon id="Fill-66" points="152.785784 288.411073 154.08849 288.411073 154.08849 293.241474 159.021515 288.411073 160.889295 288.411073 156.675413 292.394102 160.976047 298.280161 159.228204 298.280161 155.696013 293.321182 154.08849 294.84038 154.08849 298.280161 152.785784 298.280161"></polygon>
                <path d="M172.065684,287.201788 L173.320035,287.201788 L173.320035,285.804526 L172.065684,285.804526 L172.065684,287.201788 Z M169.849946,287.201788 L171.105246,287.201788 L171.105246,285.804526 L169.849946,285.804526 L169.849946,287.201788 Z M174.082317,296.112007 C174.608045,295.267482 174.871146,294.295803 174.871146,293.19792 C174.871146,292.03646 174.568224,291.102263 173.961907,290.393905 C173.355589,289.685073 172.526466,289.331131 171.47501,289.331131 C170.454368,289.331131 169.6224,289.682226 168.977684,290.383467 C168.333442,291.085182 168.011084,292.119489 168.011084,293.486387 C168.011084,294.580474 168.286984,295.50281 168.839733,296.253394 C169.392483,297.004453 170.288922,297.379745 171.528578,297.379745 C172.705185,297.379745 173.556115,296.957482 174.082317,296.112007 L174.082317,296.112007 Z M175.26082,289.821715 C175.913595,290.695182 176.240219,291.812518 176.240219,293.174197 C176.240219,294.647372 175.867137,295.872409 175.119077,296.849307 C174.242548,297.995584 172.991515,298.569197 171.367399,298.569197 C169.849946,298.569197 168.657222,298.067226 167.788752,297.064234 C167.015092,296.096825 166.627789,294.873686 166.627789,293.395766 C166.627789,292.061131 166.959154,290.919124 167.62141,289.969745 C168.47234,288.75135 169.729536,288.142153 171.39442,288.142153 C173.135154,288.142153 174.423637,288.702007 175.26082,289.821715 L175.26082,289.821715 Z" id="Fill-68"></path>
                <polygon id="Fill-70" points="182.28282 297.171792 188.346468 289.586719 182.725588 289.586719 182.725588 288.411026 190.069661 288.411026 190.069661 289.559675 183.969985 297.103945 190.069661 297.103945 190.069661 298.280113 182.28282 298.280113"></polygon>
                <path d="M201.903328,289.767723 C201.609887,289.629182 201.207888,289.559912 200.696856,289.559912 L198.058261,289.559912 L198.058261,292.979766 L200.696856,292.979766 C201.29227,292.979766 201.775333,292.851664 202.146993,292.596409 C202.51723,292.341153 202.70306,291.890898 202.70306,291.245642 C202.70306,290.520204 202.436641,290.027723 201.903328,289.767723 L201.903328,289.767723 Z M196.721897,288.411263 L201.134883,288.411263 C202.007146,288.411263 202.711593,288.658453 203.24775,289.153307 C203.783907,289.648161 204.052223,290.343708 204.052223,291.239474 C204.052223,292.009985 203.812351,292.680387 203.334977,293.251628 C202.85618,293.822394 202.123764,294.108015 201.13678,294.108015 L198.058261,294.108015 L198.058261,298.279876 L196.721897,298.279876 L196.721897,288.411263 Z" id="Fill-71"></path>
                <path d="M217.89162,296.11215 C218.417348,295.267624 218.680449,294.295945 218.680449,293.197588 C218.680449,292.036602 218.376579,291.101931 217.770262,290.393573 C217.163944,289.685215 216.335295,289.331274 215.283365,289.331274 C214.263197,289.331274 213.430755,289.681894 212.786039,290.383609 C212.141797,291.08485 211.819439,292.119631 211.819439,293.486529 C211.819439,294.580142 212.096287,295.502953 212.649036,296.253536 C213.201786,297.004595 214.097277,297.379887 215.336933,297.379887 C216.514014,297.379887 217.365892,296.95715 217.89162,296.11215 M219.069175,289.821383 C219.722898,290.695325 220.049996,291.812186 220.049996,293.174339 C220.049996,294.647515 219.675966,295.872551 218.928854,296.849449 C218.051851,297.995726 216.800818,298.569339 215.175754,298.569339 C213.659249,298.569339 212.466999,298.067369 211.598529,297.064376 C210.824395,296.096967 210.437092,294.873828 210.437092,293.395434 C210.437092,292.061274 210.767983,290.919266 211.430713,289.969887 C212.280695,288.751018 213.537891,288.142296 215.202775,288.142296 C216.943508,288.142296 218.232466,288.70215 219.069175,289.821383" id="Fill-72"></path>
                <polygon id="Fill-73" points="226.823686 288.411073 228.396603 288.411073 233.314933 296.385197 233.314933 288.411073 234.590143 288.411073 234.590143 298.280161 233.089282 298.280161 228.098422 290.315526 228.098422 298.280161 226.823686 298.280161"></polygon>
                <polygon id="Fill-74" points="249.10341 288.411073 249.10341 289.586766 245.780279 289.586766 245.780279 298.280161 244.43159 298.280161 244.43159 289.586766 241.108458 289.586766 241.108458 288.411073"></polygon>
            </g>
        </g>
    </g>
</svg>