
<svg width="58px" height="64px" viewBox="0 0 58 64" version="1.1" xmlns="http://www.w3.org/2000/svg" xmlns:xlink="http://www.w3.org/1999/xlink">
    <!-- Generator: Sketch 43.2 (39069) - http://www.bohemiancoding.com/sketch -->
    <desc>Created with Sketch.</desc>
    <defs>
        <polygon id="path-1" points="0.105607018 8.61595722 4.36404256 8.61595722 4.36404256 0.645028839 0.105607018 0.645028839 0.105607018 8.61595722"></polygon>
        <polygon id="path-3" points="0.366424352 8.61595722 4.62485989 8.61595722 4.62485989 0.645028839 0.366424352 0.645028839 0.366424352 8.61595722"></polygon>
    </defs>
    <g id="monitor" stroke="none" stroke-width="1" fill="none" fill-rule="evenodd">
        <g id="szakemberek" transform="translate(-654.000000, -21.000000)">
            <g id="HEADER_MENU">
                <g id="SZAKEMBEREK" transform="translate(654.000000, 21.000000)">
                    <g id="Group-3" transform="translate(0.000000, 55.387189)" fill="#404041">
                        <path d="M2.27535122,3.95201649 C2.99662992,3.95570904 3.58497671,4.24003563 4.04408415,4.80622711 C4.50934584,5.37980369 4.66566392,6.03584729 4.51426924,6.77558876 C4.40595435,7.31223981 4.13639798,7.75411533 3.70313841,8.10121532 C3.27480225,8.4433919 2.78369269,8.6144802 2.23227143,8.6144802 L2.22611718,8.6144802 C1.71408315,8.6144802 1.25251401,8.45816212 0.841409765,8.1442951 C0.442614031,7.8378132 0.169365102,7.44271002 0.0253555312,6.95898556 C-0.025109361,6.79035897 -0.000492340412,6.63527174 0.100437444,6.49372387 C0.201367229,6.35340685 0.339222544,6.28324834 0.511541689,6.28324834 C0.767558703,6.28324834 0.930031039,6.40387175 0.998958697,6.64511855 C1.07773316,6.91590578 1.22912784,7.13745896 1.45314273,7.31100896 C1.68085017,7.4882515 1.93809803,7.57564193 2.22611718,7.57564193 L2.24827249,7.57564193 C2.54121504,7.57564193 2.80215546,7.48948236 3.0323246,7.31593236 C3.26741715,7.13992066 3.42250438,6.91221322 3.49758629,6.63527174 C3.60590118,6.21308984 3.53205012,5.83398772 3.27603311,5.49919624 C3.02617035,5.17055901 2.69876397,5.00193242 2.29135228,4.99085476 C1.70669804,4.9797771 1.21189593,4.77299413 0.804484234,4.36804414 C0.39337999,3.964325 0.187827867,3.47198459 0.187827867,2.89225375 L0.187827867,2.74085908 C0.187827867,2.15989739 0.390918288,1.66386442 0.798329979,1.25276018 C1.20204912,0.845348488 1.69069698,0.642258068 2.26427356,0.642258068 L2.29750654,0.642258068 C2.74799801,0.642258068 3.152948,0.77518998 3.51481821,1.04228465 C3.87053415,1.30568677 4.12039691,1.64540166 4.25948308,2.06389101 C4.31487138,2.2300559 4.2890235,2.38514313 4.18563202,2.5291527 C4.08347138,2.66946972 3.94684692,2.74085908 3.77452777,2.74085908 L3.76837352,2.74085908 C3.52712672,2.74085908 3.36834693,2.62638993 3.29203417,2.39991334 C3.22064481,2.18697611 3.09386715,2.01342612 2.9141629,1.88049421 C2.72953525,1.74386974 2.52398312,1.67494208 2.29750654,1.67494208 L2.26427356,1.67494208 C1.97256186,1.67494208 1.72516081,1.77956442 1.52453209,1.9888091 C1.31774911,2.19436122 1.21558848,2.44422398 1.21558848,2.74085908 L1.21558848,2.90825482 C1.21558848,3.19996651 1.32021082,3.44736757 1.52945549,3.64922714 C1.73500761,3.85108671 1.98363952,3.95201649 2.27535122,3.95201649" id="Fill-1"></path>
                    </g>
                    <path d="M9.25304571,62.9362442 C9.39705528,62.9645538 9.51644783,63.0297889 9.60999251,63.1307187 C9.7109223,63.235341 9.76138719,63.3559644 9.76138719,63.4938197 C9.76138719,63.6341367 9.7109223,63.7547601 9.60999251,63.8556899 C9.51275528,63.9529271 9.39336273,64.0021612 9.25304571,64.0021612 L5.93713303,64.0021612 C5.85343516,64.0021612 5.77835325,63.9836984 5.71065645,63.9480037 C5.58634049,63.8864612 5.50264262,63.789224 5.45587028,63.6550612 C5.4127905,63.5258218 5.42140645,63.3978133 5.482949,63.2710357 L8.44683829,57.2029401 L5.97036601,57.2029401 C5.82881814,57.2029401 5.71065645,57.153706 5.61218836,57.0564688 C5.51125858,56.955539 5.46079369,56.8349156 5.46079369,56.6945986 C5.46079369,56.5567433 5.51125858,56.4385816 5.61218836,56.3376518 C5.71065645,56.2404146 5.82881814,56.1911805 5.97036601,56.1911805 L9.28504784,56.1911805 C9.42290316,56.1911805 9.5349106,56.2404146 9.62722443,56.3376518 C9.713384,56.434889 9.75646379,56.5530507 9.75646379,56.6945986 C9.75646379,56.7487561 9.75030953,56.7992209 9.74046272,56.8459933 C9.73677017,56.8595326 9.73307762,56.8718412 9.72938506,56.881688 C9.72569251,56.8903039 9.71953825,56.9013816 9.713384,56.9161518 L9.69615208,56.9543082 L6.77041918,62.9362442 L9.25304571,62.9362442 Z" id="Fill-4" fill="#404041"></path>
                    <path d="M13.904801,59.2364291 L13.904801,58.0794291 C13.904801,57.9415738 13.8777223,57.8098727 13.8247957,57.6843259 L13.8186414,57.6732483 C13.7780234,57.5833961 13.7275585,57.4996983 13.6672468,57.4246164 C13.6709393,57.4283089 13.6672468,57.4221547 13.6561691,57.4086153 C13.6229361,57.3716898 13.5872415,57.3359951 13.5478542,57.3003004 C13.533084,57.2892227 13.5220063,57.2806068 13.5158521,57.2732217 C13.4936968,57.2547589 13.4715415,57.2387579 13.450617,57.2239876 C13.4284617,57.2104483 13.4050755,57.1956781 13.3792276,57.1809079 C13.3583032,57.1698302 13.3324553,57.1575217 13.3053766,57.1427515 C13.2782978,57.1329047 13.2536808,57.121827 13.2278329,57.1107493 C13.1995234,57.0996717 13.1835223,57.0947483 13.1798298,57.0947483 C13.1404425,57.0799781 13.0985936,57.0689004 13.0555138,57.0615153 C13.0481287,57.0615153 13.0333585,57.0602845 13.0112032,57.0565919 C12.9607383,57.0492068 12.9164276,57.0455142 12.8770404,57.0455142 L12.8290372,57.0455142 C12.7884191,57.0455142 12.7441085,57.0492068 12.6936436,57.0565919 C12.6714883,57.0602845 12.6567181,57.0615153 12.649333,57.0615153 C12.6062532,57.0689004 12.5644042,57.0799781 12.5262479,57.0947483 L12.4708596,57.1107493 C12.4450117,57.121827 12.4228564,57.1329047 12.4007011,57.1427515 C12.3686989,57.1575217 12.3428511,57.1698302 12.3256191,57.1809079 C12.2960787,57.1956781 12.2726925,57.2104483 12.2542298,57.2239876 C12.2333053,57.2387579 12.21115,57.2547589 12.1889947,57.2732217 C12.186533,57.2732217 12.1754553,57.2818376 12.1582234,57.3003004 C12.1176053,57.3359951 12.0819106,57.3716898 12.0499085,57.4086153 C12.0449851,57.4123078 12.0437543,57.4160004 12.0437543,57.4184621 C12.0400617,57.4221547 12.0363692,57.4246164 12.0326766,57.4246164 C11.9723649,57.4996983 11.9231309,57.5833961 11.8862053,57.6732483 C11.8862053,57.6695557 11.8849745,57.6732483 11.8812819,57.6843259 C11.8283553,57.8098727 11.8000458,57.9415738 11.8000458,58.0794291 L11.8000458,59.2364291 L13.904801,59.2364291 Z M14.8131691,57.4516951 C14.8820967,57.6572472 14.9153297,57.8664919 14.9153297,58.0794291 L14.9153297,63.4927119 C14.9153297,63.6342598 14.8648648,63.7548832 14.763935,63.855813 C14.6679287,63.9530502 14.5473053,64.0022843 14.4082191,64.0022843 C14.2666712,64.0022843 14.1485095,63.9530502 14.0500414,63.855813 C13.9540351,63.7548832 13.904801,63.6342598 13.904801,63.4927119 L13.904801,60.2481886 L11.8000458,60.2481886 L11.8000458,63.4927119 C11.8000458,63.6342598 11.7520426,63.7548832 11.6548053,63.855813 C11.5538755,63.9530502 11.434483,64.0022843 11.2978585,64.0022843 C11.1575415,64.0022843 11.0356873,63.9530502 10.9347575,63.855813 C10.8387511,63.7548832 10.7895171,63.6342598 10.7895171,63.4927119 L10.7895171,58.0794291 C10.7895171,57.8664919 10.8215192,57.6572472 10.8867543,57.4516951 C10.8978319,57.4160004 10.8990628,57.4061536 10.8916777,57.4246164 C11.1144617,56.7648802 11.558799,56.3316206 12.2234585,56.1260685 C12.2259202,56.1260685 12.2320745,56.1248377 12.2382287,56.1211451 C12.2923862,56.1063749 12.3477745,56.0916047 12.4056245,56.0780653 L12.4228564,56.0780653 C12.433934,56.0743728 12.4413191,56.0719111 12.4437808,56.0719111 C12.4942457,56.0608334 12.5471723,56.0522175 12.6000989,56.0448324 L12.6394862,56.0399089 C12.7108755,56.0362164 12.7761106,56.0337547 12.8339606,56.0337547 L12.872117,56.0337547 C12.9287361,56.0337547 12.9927404,56.0362164 13.0604372,56.0399089 L13.1047478,56.0448324 C13.1589053,56.0522175 13.210601,56.0608334 13.2622968,56.0719111 C13.2635276,56.0719111 13.2696819,56.0743728 13.277067,56.0780653 L13.2992223,56.0780653 C13.3570723,56.0916047 13.4136915,56.1063749 13.466618,56.1211451 C13.4690798,56.1248377 13.4727723,56.1260685 13.4776957,56.1260685 C14.1398936,56.3316206 14.5842308,56.7648802 14.8070148,57.4246164 C14.8107074,57.4283089 14.8131691,57.4332323 14.8131691,57.4406174 L14.8131691,57.4516951 Z" id="Fill-6" fill="#404041"></path>
                    <g id="Group-10" transform="translate(16.001063, 55.387189)">
                        <mask id="mask-2" fill="white">
                            <use xlink:href="#path-1"></use>
                        </mask>
                        <g id="Clip-9"></g>
                        <path d="M4.2658835,7.81405777 C4.34711967,7.92606522 4.3791218,8.05038117 4.35696648,8.18700564 C4.33604201,8.32486095 4.27080691,8.43440669 4.16249202,8.51687371 C4.05048457,8.60057158 3.92616862,8.63134286 3.78954416,8.60918754 C3.65168884,8.58703222 3.5421431,8.52056626 3.45967608,8.40855882 L1.11613572,5.23419401 L1.11613572,8.10576947 C1.11613572,8.24731734 1.06813253,8.36547903 0.970895294,8.46271627 C0.869965509,8.56364605 0.75180381,8.61411094 0.613948494,8.61411094 C0.473631477,8.61411094 0.351777225,8.56364605 0.25084744,8.46271627 C0.15484106,8.36547903 0.105607018,8.24731734 0.105607018,8.10576947 L0.105607018,1.15023029 C0.105607018,1.00991327 0.15484106,0.890520721 0.25084744,0.79328349 C0.351777225,0.696046258 0.473631477,0.646812217 0.613948494,0.646812217 C0.75180381,0.646812217 0.869965509,0.696046258 0.970895294,0.79328349 C1.06813253,0.890520721 1.11613572,1.00991327 1.11613572,1.15023029 L1.11613572,3.64393448 L3.48060055,0.820362212 C3.57168352,0.715739875 3.68369097,0.657889876 3.82154628,0.646812217 C3.96309415,0.635734558 4.0849484,0.676352642 4.18957074,0.766204767 C4.29296223,0.856056892 4.35204308,0.969295187 4.36188988,1.1071505 C4.3741984,1.24377497 4.33358031,1.36439837 4.24372819,1.46902071 L1.76602506,4.42306318 L4.2658835,7.81405777 Z" id="Fill-8" fill="#404041" mask="url(#mask-2)"></path>
                    </g>
                    <path d="M24.5917882,62.9904016 C24.733336,62.9904016 24.8514977,63.0396357 24.9499658,63.1368729 C25.0496648,63.2378027 25.1013605,63.3559644 25.1013605,63.4938197 C25.1013605,63.6341367 25.0496648,63.7547601 24.9499658,63.8556899 C24.8514977,63.9529271 24.733336,64.0021612 24.5917882,64.0021612 L21.9257648,64.0021612 C21.7854478,64.0021612 21.6635936,63.9529271 21.5626638,63.8556899 C21.4666574,63.7547601 21.4174234,63.6341367 21.4174234,63.4938197 L21.4174234,56.7266007 C21.4174234,56.5899763 21.4666574,56.4705837 21.5626638,56.3696539 C21.6635936,56.2724167 21.7854478,56.2231827 21.9257648,56.2231827 L24.5917882,56.2231827 C24.733336,56.2231827 24.8514977,56.2724167 24.9499658,56.3696539 C25.0496648,56.4705837 25.1013605,56.5899763 25.1013605,56.7266007 C25.1013605,56.8669178 25.0496648,56.9863103 24.9499658,57.0835475 C24.8514977,57.1844773 24.733336,57.2349422 24.5917882,57.2349422 L22.4279521,57.2349422 L22.4279521,59.3335432 L24.2668435,59.3335432 C24.4096222,59.3335432 24.5290148,59.3827773 24.6299446,59.4800145 C24.7271818,59.5772517 24.7764158,59.6966443 24.7764158,59.8369613 C24.7764158,59.9772783 24.7271818,60.0966709 24.6299446,60.1939081 C24.5290148,60.2948379 24.4096222,60.3453028 24.2668435,60.3453028 L22.4279521,60.3453028 L22.4279521,62.9904016 L24.5917882,62.9904016 Z" id="Fill-11" fill="#404041"></path>
                    <path d="M31.4948931,56.0560331 C31.6352101,56.0560331 31.7558335,56.106498 31.8567633,56.2074278 C31.9552314,56.304665 32.0032346,56.4240576 32.0032346,56.5643746 L32.0032346,63.492835 C32.0032346,63.6343829 31.9552314,63.7550063 31.8567633,63.8559361 C31.7558335,63.9531733 31.6352101,64.0024074 31.4948931,64.0024074 C31.3582686,64.0024074 31.2388761,63.9531733 31.1379463,63.8559361 C31.0407091,63.7550063 30.991475,63.6343829 30.991475,63.492835 L30.991475,58.6580522 L29.5107612,61.551783 C29.4910676,61.5837851 29.471374,61.6108638 29.4504495,61.6330191 C29.4073698,61.6945617 29.3544432,61.741334 29.2941315,61.7733361 C29.166123,61.8348787 29.0368836,61.8434946 28.9051825,61.8004149 C28.7747123,61.7610276 28.6762442,61.6773298 28.6110091,61.551783 L27.1401422,58.6691298 L27.1401422,63.492835 C27.1401422,63.6343829 27.092139,63.7550063 26.9949017,63.8559361 C26.893972,63.9531733 26.7745794,64.0024074 26.6379549,64.0024074 C26.4964071,64.0024074 26.3757837,63.9531733 26.2748539,63.8559361 C26.1788475,63.7550063 26.1296135,63.6343829 26.1296135,63.492835 L26.1296135,56.5643746 C26.1296135,56.4240576 26.1788475,56.304665 26.2748539,56.2074278 C26.3757837,56.106498 26.4964071,56.0560331 26.6379549,56.0560331 C26.8324294,56.0560331 26.9789007,56.1421927 27.0749071,56.3157427 C27.0749071,56.3194352 27.0773688,56.3231278 27.0810613,56.3268203 L27.0872156,56.3317437 L29.0602698,60.2052319 L31.0468633,56.3317437 C31.0468633,56.3354363 31.0530176,56.3231278 31.0677878,56.2935873 C31.0776346,56.280048 31.0813272,56.2738937 31.0776346,56.2775863 C31.0924048,56.2603544 31.1059442,56.2455842 31.115791,56.2345065 L31.2671857,56.0560331 L31.4948931,56.0560331 Z" id="Fill-13" fill="#404041"></path>
                    <path d="M36.590124,61.6434814 C36.590124,61.2939197 36.4682698,60.9948229 36.2282538,60.746191 C35.9820836,60.4963282 35.6903719,60.3720122 35.350657,60.3720122 L34.2047347,60.3720122 L34.2047347,62.9580303 L35.350657,62.9580303 C35.6903719,62.9580303 35.9820836,62.8337143 36.2282538,62.5850824 C36.4682698,62.3352196 36.590124,62.0361228 36.590124,61.6865611 L36.590124,61.6434814 Z M36.3956496,58.2303314 C36.3956496,57.9349272 36.2934889,57.6826027 36.086706,57.4733581 C35.8848464,57.2641134 35.6411379,57.159491 35.3568113,57.159491 L34.2047347,57.159491 L34.2047347,59.3282506 L35.3568113,59.3282506 C35.6411379,59.3282506 35.8873081,59.2236282 36.0928602,59.0143835 C36.2947198,58.8051389 36.3956496,58.5552761 36.3956496,58.2623336 L36.3956496,58.2303314 Z M36.7304411,59.820591 C37.3114027,60.2858527 37.6006527,60.8938931 37.6006527,61.6434814 L37.6006527,61.6865611 C37.6006527,62.3216803 37.384023,62.8644856 36.9470708,63.3149771 C36.5113496,63.7691611 35.9820836,63.9980994 35.3629656,64.0017919 L33.7013167,64.0017919 C33.5609996,64.0017919 33.4391454,63.951327 33.3382156,63.8503973 C33.2422092,63.7494675 33.1929752,63.6263824 33.1929752,63.4823728 L33.1929752,56.6400719 C33.1929752,56.4960623 33.2422092,56.3729772 33.3382156,56.2720475 C33.4391454,56.1711177 33.5609996,56.1206528 33.7013167,56.1206528 L35.3568113,56.1206528 C35.9230028,56.1206528 36.4067272,56.3262049 36.8067538,56.7373091 C37.2067804,57.1484134 37.4061783,57.6456772 37.4061783,58.2303314 L37.4061783,58.2623336 C37.4061783,58.8826825 37.1809325,59.4021016 36.7304411,59.820591 L36.7304411,59.820591 Z" id="Fill-15" fill="#404041"></path>
                    <path d="M41.8045013,62.9904016 C41.9460492,62.9904016 42.0642109,63.0396357 42.162679,63.1368729 C42.2623779,63.2378027 42.3140737,63.3559644 42.3140737,63.4938197 C42.3140737,63.6341367 42.2623779,63.7547601 42.162679,63.8556899 C42.0642109,63.9529271 41.9460492,64.0021612 41.8045013,64.0021612 L39.138478,64.0021612 C38.998161,64.0021612 38.8763067,63.9529271 38.775377,63.8556899 C38.6793706,63.7547601 38.6301365,63.6341367 38.6301365,63.4938197 L38.6301365,56.7266007 C38.6301365,56.5899763 38.6793706,56.4705837 38.775377,56.3696539 C38.8763067,56.2724167 38.998161,56.2231827 39.138478,56.2231827 L41.8045013,56.2231827 C41.9460492,56.2231827 42.0642109,56.2724167 42.162679,56.3696539 C42.2623779,56.4705837 42.3140737,56.5899763 42.3140737,56.7266007 C42.3140737,56.8669178 42.2623779,56.9863103 42.162679,57.0835475 C42.0642109,57.1844773 41.9460492,57.2349422 41.8045013,57.2349422 L39.6406652,57.2349422 L39.6406652,59.3335432 L41.4795567,59.3335432 C41.6223354,59.3335432 41.7417279,59.3827773 41.8426577,59.4800145 C41.939895,59.5772517 41.989129,59.6966443 41.989129,59.8369613 C41.989129,59.9772783 41.939895,60.0966709 41.8426577,60.1939081 C41.7417279,60.2948379 41.6223354,60.3453028 41.4795567,60.3453028 L39.6406652,60.3453028 L39.6406652,62.9904016 L41.8045013,62.9904016 Z" id="Fill-17" fill="#404041"></path>
                    <path d="M44.3515014,59.2364291 L45.5048088,59.2364291 C45.7891354,59.2364291 46.031613,59.1354993 46.2334726,58.9336397 C46.4402556,58.7317802 46.5424162,58.4868408 46.5424162,58.1975908 L46.5424162,58.1655887 C46.5424162,57.8800312 46.4402556,57.6375536 46.2334726,57.435694 C46.031613,57.2338344 45.7891354,57.1329047 45.5048088,57.1329047 L44.3515014,57.1329047 L44.3515014,59.2364291 Z M47.5541758,58.1975908 C47.5541758,58.8179397 47.3178524,59.3324355 46.8452056,59.7398471 C47.3178524,60.1509514 47.5541758,60.6642163 47.5541758,61.2808726 L47.5541758,63.4927119 C47.5541758,63.6342598 47.5037109,63.7548832 47.4027811,63.855813 C47.3055439,63.9530502 47.1861513,64.0022843 47.0458343,64.0022843 C46.9042864,64.0022843 46.7873556,63.9530502 46.6876566,63.855813 C46.5916503,63.7548832 46.5424162,63.6342598 46.5424162,63.4927119 L46.5424162,61.2808726 C46.5424162,60.9965461 46.4402556,60.7528375 46.2334726,60.550978 C46.031613,60.3491184 45.7891354,60.2481886 45.5048088,60.2481886 L44.3515014,60.2481886 L44.3515014,63.4927119 C44.3515014,63.6342598 44.3034982,63.7548832 44.206261,63.855813 C44.1053312,63.9530502 43.9859386,64.0022843 43.8493142,64.0022843 C43.7089971,64.0022843 43.5871429,63.9530502 43.4862131,63.855813 C43.3902067,63.7548832 43.3409727,63.6342598 43.3409727,63.4927119 L43.3409727,56.6233323 C43.3409727,56.4830153 43.3902067,56.3648536 43.4862131,56.2663855 C43.5871429,56.1691483 43.7089971,56.1211451 43.8493142,56.1211451 L45.5048088,56.1211451 C46.0697694,56.1211451 46.5534939,56.320543 46.9535205,56.7218004 C47.353547,57.121827 47.5541758,57.6030898 47.5541758,58.1655887 L47.5541758,58.1975908 Z" id="Fill-19" fill="#404041"></path>
                    <path d="M51.7570397,62.9904016 C51.8985876,62.9904016 52.0167493,63.0396357 52.1152173,63.1368729 C52.2149163,63.2378027 52.266612,63.3559644 52.266612,63.4938197 C52.266612,63.6341367 52.2149163,63.7547601 52.1152173,63.8556899 C52.0167493,63.9529271 51.8985876,64.0021612 51.7570397,64.0021612 L49.0910164,64.0021612 C48.9506993,64.0021612 48.8288451,63.9529271 48.7279153,63.8556899 C48.6319089,63.7547601 48.5826749,63.6341367 48.5826749,63.4938197 L48.5826749,56.7266007 C48.5826749,56.5899763 48.6319089,56.4705837 48.7279153,56.3696539 C48.8288451,56.2724167 48.9506993,56.2231827 49.0910164,56.2231827 L51.7570397,56.2231827 C51.8985876,56.2231827 52.0167493,56.2724167 52.1152173,56.3696539 C52.2149163,56.4705837 52.266612,56.5899763 52.266612,56.7266007 C52.266612,56.8669178 52.2149163,56.9863103 52.1152173,57.0835475 C52.0167493,57.1844773 51.8985876,57.2349422 51.7570397,57.2349422 L49.5932036,57.2349422 L49.5932036,59.3335432 L51.432095,59.3335432 C51.5748737,59.3335432 51.6942663,59.3827773 51.7951961,59.4800145 C51.8924333,59.5772517 51.9416674,59.6966443 51.9416674,59.8369613 C51.9416674,59.9772783 51.8924333,60.0966709 51.7951961,60.1939081 C51.6942663,60.2948379 51.5748737,60.3453028 51.432095,60.3453028 L49.5932036,60.3453028 L49.5932036,62.9904016 L51.7570397,62.9904016 Z" id="Fill-21" fill="#404041"></path>
                    <g id="Group-25" transform="translate(52.926594, 55.387189)">
                        <mask id="mask-4" fill="white">
                            <use xlink:href="#path-3"></use>
                        </mask>
                        <g id="Clip-24"></g>
                        <path d="M4.52670084,7.81405777 C4.60793701,7.92606522 4.63993913,8.05038117 4.61778381,8.18700564 C4.59685935,8.32486095 4.53162424,8.43440669 4.42330935,8.51687371 C4.31130191,8.60057158 4.18698595,8.63134286 4.05036149,8.60918754 C3.91250617,8.58703222 3.80296043,8.52056626 3.72049341,8.40855882 L1.37695305,5.23419401 L1.37695305,8.10576947 C1.37695305,8.24731734 1.32894986,8.36547903 1.23171263,8.46271627 C1.13078284,8.56364605 1.01262114,8.61411094 0.874765828,8.61411094 C0.73444881,8.61411094 0.612594558,8.56364605 0.511664774,8.46271627 C0.415658393,8.36547903 0.366424352,8.24731734 0.366424352,8.10576947 L0.366424352,1.15023029 C0.366424352,1.00991327 0.415658393,0.890520721 0.511664774,0.79328349 C0.612594558,0.696046258 0.73444881,0.646812217 0.874765828,0.646812217 C1.01262114,0.646812217 1.13078284,0.696046258 1.23171263,0.79328349 C1.32894986,0.890520721 1.37695305,1.00991327 1.37695305,1.15023029 L1.37695305,3.64393448 L3.74141788,0.820362212 C3.83250086,0.715739875 3.9445083,0.657889876 4.08236362,0.646812217 C4.22391148,0.635734558 4.34576574,0.676352642 4.45038807,0.766204767 C4.55377956,0.856056892 4.61286041,0.969295187 4.62270722,1.1071505 C4.63501573,1.24377497 4.59439764,1.36439837 4.50454552,1.46902071 L2.02684239,4.42306318 L4.52670084,7.81405777 Z" id="Fill-23" fill="#404041" mask="url(#mask-4)"></path>
                    </g>
                    <path d="M11.449007,50.8831355 C4.91195721,45.7258696 0.715986045,37.7376465 0.715986045,28.7647424 C0.715986045,13.2190939 13.3199006,0.615179345 28.8643183,0.615179345 C44.4235062,0.615179345 57.0274207,13.2190939 57.0274207,28.7647424 C57.0274207,37.7376465 52.8302187,45.7258696 46.2943997,50.8831355" id="Stroke-26" stroke="#404041" stroke-linecap="round"></path>
                    <path d="M27.0774918,35.1825228 C27.0774918,38.9538504 24.0163653,42.0149769 20.2438069,42.0149769 C16.4638634,42.0149769 13.4125837,38.9538504 13.4125837,35.1825228 C13.4125837,34.544942 13.5036667,33.9344398 13.6673699,33.3510165 C15.7536624,32.7134356 17.9581165,32.3761824 20.2438069,32.3761824 C22.531959,32.3761824 24.7450291,32.7134356 26.8227057,33.3510165 C26.9864089,33.9344398 27.0774918,34.544942 27.0774918,35.1825228 Z" id="Stroke-28" stroke="#404041" stroke-linecap="round" stroke-linejoin="round"></path>
                    <path d="M23.6445252,38.5583779 C23.1681859,39.0445641 22.5564529,39.4285896 21.8597912,39.6636821" id="Stroke-30" stroke="#404041" stroke-linecap="round" stroke-linejoin="round"></path>
                    <path d="M24.8092796,36.7331489 L24.7908168,36.7331489" id="Stroke-32" stroke="#404041" stroke-linecap="round" stroke-linejoin="round"></path>
                    <path d="M45.3960016,35.1825228 C45.3960016,38.9538504 42.3361059,42.0149769 38.5635475,42.0149769 C34.7823731,42.0149769 31.7310934,38.9538504 31.7310934,35.1825228 C31.7310934,34.544942 31.8234072,33.9344398 31.9858796,33.3510165 C34.0721721,32.7134356 36.2766263,32.3761824 38.5635475,32.3761824 C40.8516996,32.3761824 43.0635389,32.7134356 45.1412154,33.3510165 C45.3049186,33.9344398 45.3960016,34.544942 45.3960016,35.1825228 Z" id="Stroke-34" stroke="#404041" stroke-linecap="round" stroke-linejoin="round"></path>
                    <path d="M41.9642658,38.5583779 C41.4866956,39.0445641 40.8749626,39.4285896 40.1795318,39.6636821" id="Stroke-36" stroke="#404041" stroke-linecap="round" stroke-linejoin="round"></path>
                    <path d="M43.1290201,36.7331489 L43.1093265,36.7331489" id="Stroke-38" stroke="#404041" stroke-linecap="round" stroke-linejoin="round"></path>
                    <path d="M26.7673174,33.3188912 C27.2978142,32.4511413 28.2504929,31.8726413 29.3410269,31.8726413 C30.4130981,31.8726413 31.35593,32.4326785 31.8876577,33.2758115" id="Stroke-40" stroke="#404041" stroke-linecap="round" stroke-linejoin="round"></path>
                    <path d="M13.6258902,33.395204 L12.0996349,33.395204" id="Stroke-42" stroke="#404041" stroke-linecap="round"></path>
                    <path d="M12.0992656,33.395204 L16.2078464,15.1810705" id="Stroke-44" stroke="#404041" stroke-linecap="round"></path>
                    <path d="M16.2077233,15.1331903 C16.2988063,14.3725244 16.9893137,13.8297191 17.7499796,13.9208021 C18.5106456,14.0118851 19.0546817,14.7036233 18.9623679,15.4642893" id="Stroke-46" stroke="#404041" stroke-linecap="round"></path>
                    <path d="M46.5907887,33.3566784 L42.4822079,15.1425448" id="Stroke-48" stroke="#404041" stroke-linecap="round"></path>
                    <path d="M42.482331,15.1331903 C42.391248,14.3725244 41.7007406,13.8297191 40.9400747,13.9208021 C40.1794087,14.0118851 39.6366034,14.7036233 39.7276864,15.4642893" id="Stroke-50" stroke="#404041" stroke-linecap="round"></path>
                    <path d="M46.5907887,33.395204 L45.0645334,33.395204" id="Stroke-52" stroke="#404041" stroke-linecap="round"></path>
                </g>
            </g>
        </g>
    </g>
</svg>