<?xml version="1.0" encoding="UTF-8"?>
<svg width="58px" height="64px" viewBox="0 0 58 64" version="1.1" xmlns="http://www.w3.org/2000/svg" xmlns:xlink="http://www.w3.org/1999/xlink">
    <!-- Generator: Sketch 44.1 (41455) - http://www.bohemiancoding.com/sketch -->
    <title>prices-h</title>
    <desc>Created with Sketch.</desc>
    <defs>
        <polygon id="path-1" points="0 52.4931071 0 0.983 57.555 0.983 57.555 52.4931071"></polygon>
    </defs>
    <g id="Page-1" stroke="none" stroke-width="1" fill="none" fill-rule="evenodd">
        <g id="Artboard-Copy-8" transform="translate(-3.000000, 0.000000)">
            <g id="prices-h" transform="translate(3.000000, -1.000000)">
                <path d="M27.3538,27.4921 C27.3538,28.9891 24.1908,30.2011 20.2868,30.2011 C16.3838,30.2011 13.2198,28.9891 13.2198,27.4921 C13.2198,25.9951 16.3838,24.7821 20.2868,24.7821 C24.1908,24.7821 27.3538,25.9951 27.3538,27.4921" id="Fill-1" fill="#68D1C9"></path>
                <path d="M37.2677,20.3134 C37.2677,21.8104 34.1047,23.0234 30.2017,23.0234 C26.2977,23.0234 23.1337,21.8104 23.1337,20.3134 C23.1337,18.8164 26.2977,17.6034 30.2017,17.6034 C34.1047,17.6034 37.2677,18.8164 37.2677,20.3134" id="Fill-3" fill="#68D1C9"></path>
                <path d="M44.3346,35.6218 C44.3346,37.1188 41.1716,38.3318 37.2686,38.3318 C33.3656,38.3318 30.2006,37.1188 30.2006,35.6218 C30.2006,34.1248 33.3656,32.9118 37.2686,32.9118 C41.1716,32.9118 44.3346,34.1248 44.3346,35.6218" id="Fill-5" fill="#68D1C9"></path>
                <path d="M20.8426,54.3412 C20.7096,54.3822 20.6096,54.4622 20.5446,54.5852 L19.9936,55.6392 C19.9286,55.7622 19.9166,55.8912 19.9606,56.0242 C20.0006,56.1582 20.0816,56.2572 20.2046,56.3222 C20.3306,56.3872 20.4606,56.3972 20.5936,56.3542 C20.7276,56.3152 20.8256,56.2332 20.8906,56.1112 L21.4436,55.0552 C21.5086,54.9332 21.5186,54.8052 21.4746,54.6722 C21.4316,54.5382 21.3496,54.4402 21.2276,54.3752 C21.1046,54.3102 20.9756,54.2982 20.8426,54.3412" id="Fill-7" fill="#404041"></path>
                <path d="M21.8922,60.2492 L19.7872,60.2492 L19.7872,59.0922 C19.7872,58.9552 19.8142,58.8232 19.8692,58.6972 C19.8722,58.6862 19.8732,58.6822 19.8732,58.6862 C19.9092,58.5962 19.9592,58.5132 20.0202,58.4372 C20.0242,58.4372 20.0272,58.4362 20.0312,58.4312 C20.0312,58.4292 20.0322,58.4242 20.0372,58.4222 C20.0682,58.3852 20.1042,58.3492 20.1452,58.3132 C20.1622,58.2942 20.1742,58.2862 20.1762,58.2862 C20.1982,58.2682 20.2202,58.2512 20.2412,58.2362 C20.2612,58.2222 20.2832,58.2082 20.3122,58.1932 C20.3302,58.1832 20.3552,58.1702 20.3882,58.1562 C20.4102,58.1452 20.4342,58.1342 20.4582,58.1232 L20.5132,58.1072 C20.5512,58.0922 20.5942,58.0822 20.6372,58.0752 C20.6442,58.0752 20.6582,58.0732 20.6802,58.0692 C20.7312,58.0622 20.7752,58.0582 20.8162,58.0582 L20.8642,58.0582 C20.9042,58.0582 20.9482,58.0622 20.9992,58.0692 C21.0202,58.0732 21.0352,58.0752 21.0422,58.0752 C21.0852,58.0822 21.1272,58.0922 21.1672,58.1072 C21.1712,58.1072 21.1862,58.1132 21.2152,58.1232 C21.2422,58.1342 21.2662,58.1452 21.2922,58.1562 C21.3212,58.1702 21.3452,58.1832 21.3672,58.1932 C21.3932,58.2082 21.4162,58.2222 21.4382,58.2362 C21.4592,58.2512 21.4812,58.2682 21.5022,58.2862 C21.5102,58.2932 21.5202,58.3012 21.5352,58.3132 C21.5752,58.3492 21.6112,58.3852 21.6432,58.4222 C21.6542,58.4362 21.6582,58.4412 21.6542,58.4372 C21.7152,58.5132 21.7662,58.5962 21.8052,58.6862 L21.8112,58.6972 C21.8642,58.8232 21.8922,58.9552 21.8922,59.0922 L21.8922,60.2492 Z M22.8012,58.4532 C22.8012,58.4462 22.8002,58.4412 22.7952,58.4372 C22.5712,57.7772 22.1292,57.3442 21.4652,57.1392 C21.4602,57.1392 21.4582,57.1382 21.4532,57.1332 C21.4002,57.1182 21.3442,57.1042 21.2862,57.0892 L21.2642,57.0892 C21.2572,57.0872 21.2512,57.0852 21.2492,57.0852 C21.1982,57.0742 21.1452,57.0652 21.0912,57.0582 L21.0482,57.0522 C20.9792,57.0492 20.9172,57.0462 20.8592,57.0462 L20.8212,57.0462 C20.7632,57.0462 20.6982,57.0492 20.6262,57.0522 L20.5882,57.0582 C20.5352,57.0652 20.4822,57.0742 20.4312,57.0852 C20.4282,57.0852 20.4202,57.0872 20.4102,57.0892 L20.3932,57.0892 C20.3352,57.1042 20.2802,57.1182 20.2262,57.1332 C20.2182,57.1382 20.2122,57.1392 20.2102,57.1392 C19.5462,57.3442 19.1022,57.7772 18.8782,58.4372 C18.8852,58.4192 18.8842,58.4292 18.8732,58.4652 C18.8082,58.6692 18.7762,58.8782 18.7762,59.0922 L18.7762,64.5072 C18.7762,64.6482 18.8252,64.7702 18.9212,64.8712 C19.0222,64.9672 19.1442,65.0162 19.2842,65.0162 C19.4212,65.0162 19.5402,64.9672 19.6412,64.8712 C19.7392,64.7702 19.7872,64.6482 19.7872,64.5072 L19.7872,61.2612 L21.8922,61.2612 L21.8922,64.5072 C21.8922,64.6482 21.9412,64.7702 22.0372,64.8712 C22.1362,64.9672 22.2542,65.0162 22.3962,65.0162 C22.5352,65.0162 22.6552,64.9672 22.7522,64.8712 C22.8532,64.7702 22.9032,64.6482 22.9032,64.5072 L22.9032,59.0922 C22.9032,58.8782 22.8692,58.6692 22.8012,58.4652 L22.8012,58.4532 Z" id="Fill-9" fill="#404041"></path>
                <path d="M27.1353,59.2105 C27.1353,59.4995 27.0323,59.7445 26.8263,59.9465 C26.6243,60.1485 26.3803,60.2495 26.0963,60.2495 L24.9433,60.2495 L24.9433,58.1455 L26.0963,58.1455 C26.3803,58.1455 26.6243,58.2465 26.8263,58.4485 C27.0323,58.6505 27.1353,58.8935 27.1353,59.1795 L27.1353,59.2105 Z M26.0963,57.1325 L24.4403,57.1325 C24.3003,57.1325 24.1793,57.1825 24.0783,57.2795 C23.9803,57.3775 23.9323,57.4965 23.9323,57.6365 L23.9323,64.5075 C23.9323,64.6485 23.9803,64.7695 24.0783,64.8705 C24.1793,64.9665 24.3003,65.0165 24.4403,65.0165 C24.5773,65.0165 24.6973,64.9665 24.7983,64.8705 C24.8943,64.7695 24.9433,64.6485 24.9433,64.5075 L24.9433,61.2615 L26.0963,61.2615 C26.3803,61.2615 26.6243,61.3625 26.8263,61.5645 C27.0323,61.7665 27.1353,62.0095 27.1353,62.2955 L27.1353,64.5075 C27.1353,64.6485 27.1833,64.7695 27.2803,64.8705 C27.3783,64.9665 27.4973,65.0165 27.6383,65.0165 C27.7783,65.0165 27.8973,64.9665 27.9953,64.8705 C28.0963,64.7695 28.1463,64.6485 28.1463,64.5075 L28.1463,62.2955 C28.1463,61.6775 27.9093,61.1645 27.4383,60.7535 C27.9093,60.3455 28.1463,59.8305 28.1463,59.2105 L28.1463,59.1795 C28.1463,58.6165 27.9453,58.1345 27.5463,57.7345 C27.1453,57.3335 26.6613,57.1325 26.0963,57.1325 L26.0963,57.1325 Z" id="Fill-11" fill="#404041"></path>
                <path d="M32.2906,60.2492 L30.1866,60.2492 L30.1866,59.0922 C30.1866,58.9552 30.2126,58.8232 30.2686,58.6972 C30.2706,58.6862 30.2736,58.6822 30.2736,58.6862 C30.3096,58.5962 30.3576,58.5132 30.4196,58.4372 C30.4226,58.4372 30.4266,58.4362 30.4296,58.4312 C30.4296,58.4292 30.4316,58.4242 30.4346,58.4222 C30.4676,58.3852 30.5036,58.3492 30.5426,58.3132 C30.5616,58.2942 30.5716,58.2862 30.5766,58.2862 C30.5976,58.2682 30.6196,58.2512 30.6406,58.2362 C30.6576,58.2222 30.6816,58.2082 30.7106,58.1932 C30.7296,58.1832 30.7536,58.1702 30.7876,58.1562 C30.8096,58.1452 30.8306,58.1342 30.8576,58.1232 L30.9106,58.1072 C30.9516,58.0922 30.9926,58.0822 31.0356,58.0752 C31.0426,58.0752 31.0566,58.0732 31.0786,58.0692 C31.1296,58.0622 31.1746,58.0582 31.2156,58.0582 L31.2636,58.0582 C31.3026,58.0582 31.3476,58.0622 31.3986,58.0692 C31.4206,58.0732 31.4346,58.0752 31.4416,58.0752 C31.4846,58.0822 31.5256,58.0922 31.5666,58.1072 C31.5696,58.1072 31.5856,58.1132 31.6146,58.1232 C31.6386,58.1342 31.6656,58.1452 31.6916,58.1562 C31.7186,58.1702 31.7446,58.1832 31.7666,58.1932 C31.7906,58.2082 31.8146,58.2222 31.8366,58.2362 C31.8576,58.2512 31.8796,58.2682 31.9006,58.2862 C31.9086,58.2932 31.9206,58.3012 31.9346,58.3132 C31.9736,58.3492 32.0096,58.3852 32.0426,58.4222 C32.0526,58.4362 32.0576,58.4412 32.0526,58.4372 C32.1146,58.5132 32.1656,58.5962 32.2036,58.6862 L32.2116,58.6972 C32.2646,58.8232 32.2906,58.9552 32.2906,59.0922 L32.2906,60.2492 Z M33.1996,58.4532 C33.1996,58.4462 33.1976,58.4412 33.1946,58.4372 C32.9706,57.7772 32.5266,57.3442 31.8646,57.1392 C31.8606,57.1392 31.8556,57.1382 31.8526,57.1332 C31.7996,57.1182 31.7426,57.1042 31.6846,57.0892 L31.6626,57.0892 C31.6556,57.0872 31.6506,57.0852 31.6486,57.0852 C31.5956,57.0742 31.5456,57.0652 31.4896,57.0582 L31.4466,57.0522 C31.3796,57.0492 31.3146,57.0462 31.2586,57.0462 L31.2206,57.0462 C31.1626,57.0462 31.0976,57.0492 31.0256,57.0522 L30.9876,57.0582 C30.9316,57.0652 30.8816,57.0742 30.8306,57.0852 C30.8266,57.0852 30.8186,57.0872 30.8096,57.0892 L30.7926,57.0892 C30.7346,57.1042 30.6796,57.1182 30.6246,57.1332 C30.6166,57.1382 30.6126,57.1392 30.6076,57.1392 C29.9436,57.3442 29.5016,57.7772 29.2776,58.4372 C29.2846,58.4192 29.2826,58.4292 29.2716,58.4652 C29.2066,58.6692 29.1746,58.8782 29.1746,59.0922 L29.1746,64.5072 C29.1746,64.6482 29.2226,64.7702 29.3206,64.8712 C29.4216,64.9672 29.5426,65.0162 29.6826,65.0162 C29.8196,65.0162 29.9386,64.9672 30.0396,64.8712 C30.1376,64.7702 30.1866,64.6482 30.1866,64.5072 L30.1866,61.2612 L32.2906,61.2612 L32.2906,64.5072 C32.2906,64.6482 32.3406,64.7702 32.4376,64.8712 C32.5356,64.9672 32.6536,65.0162 32.7956,65.0162 C32.9346,65.0162 33.0556,64.9672 33.1516,64.8712 C33.2526,64.7702 33.3026,64.6482 33.3026,64.5072 L33.3026,59.0922 C33.3026,58.8782 33.2696,58.6692 33.1996,58.4652 L33.1996,58.4532 Z" id="Fill-13" fill="#404041"></path>
                <path d="M38.7492,57.5068 C38.7392,57.3698 38.6822,57.2558 38.5762,57.1668 C38.4722,57.0748 38.3502,57.0368 38.2082,57.0468 C38.0712,57.0588 37.9582,57.1158 37.8692,57.2198 L35.5032,60.0448 L35.5032,57.5498 C35.5032,57.4098 35.4552,57.2908 35.3592,57.1928 C35.2582,57.0958 35.1372,57.0468 35.0002,57.0468 C34.8612,57.0468 34.7382,57.0958 34.6372,57.1928 C34.5412,57.2908 34.4932,57.4098 34.4932,57.5498 L34.4932,64.5078 C34.4932,64.6478 34.5412,64.7678 34.6372,64.8648 C34.7382,64.9658 34.8612,65.0158 35.0002,65.0158 C35.1372,65.0158 35.2582,64.9658 35.3592,64.8648 C35.4552,64.7678 35.5032,64.6478 35.5032,64.5078 L35.5032,61.6338 L37.8472,64.8108 C37.9292,64.9228 38.0402,64.9888 38.1772,65.0098 C38.3142,65.0318 38.4392,65.0018 38.5492,64.9188 C38.6582,64.8358 38.7232,64.7268 38.7442,64.5898 C38.7662,64.4528 38.7352,64.3268 38.6532,64.2158 L36.1522,60.8238 L38.6312,57.8688 C38.7202,57.7648 38.7612,57.6438 38.7492,57.5068" id="Fill-15" fill="#404041"></path>
                <g id="Group-19" transform="translate(0.000000, 0.017000)">
                    <mask id="mask-2" fill="white">
                        <use xlink:href="#path-1"></use>
                    </mask>
                    <g id="Clip-18"></g>
                    <path d="M28.7716,0.983 C12.9066,0.983 -0.0004,13.891 -0.0004,29.756 C-0.0004,38.621 3.9986,46.861 10.9706,52.361 C11.2376,52.571 11.6246,52.526 11.8356,52.259 C12.0456,51.992 11.9996,51.605 11.7326,51.394 C5.0596,46.13 1.2316,38.243 1.2316,29.756 C1.2316,14.569 13.5856,2.214 28.7716,2.214 C43.9636,2.214 56.3236,14.569 56.3236,29.756 C56.3236,38.241 52.4976,46.128 45.8236,51.394 C45.5566,51.605 45.5106,51.992 45.7216,52.259 C45.8426,52.413 46.0226,52.493 46.2046,52.493 C46.3376,52.493 46.4726,52.45 46.5856,52.361 C53.5566,46.861 57.5556,38.621 57.5556,29.756 C57.5556,13.891 44.6426,0.983 28.7716,0.983" id="Fill-17" fill="#404041" mask="url(#mask-2)"></path>
                </g>
                <path d="M26.7385,27.4921 C26.7385,28.3461 24.2255,29.5851 20.2875,29.5851 C16.3485,29.5851 13.8355,28.3461 13.8355,27.4921 C13.8355,26.6381 16.3485,25.3981 20.2875,25.3981 C24.2255,25.3981 26.7385,26.6381 26.7385,27.4921 M12.6045,27.4921 C12.6045,29.6511 16.5625,30.8161 20.2875,30.8161 C24.0115,30.8161 27.9695,29.6511 27.9695,27.4921 C27.9695,25.3321 24.0115,24.1671 20.2875,24.1671 C16.5625,24.1671 12.6045,25.3321 12.6045,27.4921" id="Fill-20" fill="#404041"></path>
                <path d="M15.537,32.8579 C15.6,32.8779 15.664,32.8879 15.727,32.8879 C15.987,32.8879 16.228,32.7229 16.312,32.4619 C16.417,32.1389 16.24,31.7919 15.917,31.6869 C14.38,31.1879 13.836,30.5749 13.836,30.2009 C13.836,29.8609 13.56,29.5849 13.22,29.5849 C12.88,29.5849 12.605,29.8609 12.605,30.2009 C12.605,31.2999 13.646,32.2439 15.537,32.8579" id="Fill-22" fill="#404041"></path>
                <path d="M27.3541,29.5865 C27.0141,29.5865 26.7381,29.8615 26.7381,30.2025 C26.7381,31.0555 24.2261,32.2955 20.2871,32.2955 C19.6761,32.2955 19.0741,32.2655 18.4941,32.2055 C18.1571,32.1615 17.8541,32.4155 17.8191,32.7535 C17.7841,33.0915 18.0291,33.3945 18.3671,33.4285 C18.9891,33.4935 19.6341,33.5265 20.2871,33.5265 C24.0121,33.5265 27.9701,32.3615 27.9701,30.2025 C27.9701,29.8615 27.6941,29.5865 27.3541,29.5865" id="Fill-24" fill="#404041"></path>
                <path d="M37.268,37.715 C33.329,37.715 30.817,36.475 30.817,35.622 C30.817,35.302 31.198,34.91 31.836,34.575 C33.079,33.919 35.11,33.527 37.268,33.527 C41.207,33.527 43.719,34.768 43.719,35.622 C43.719,36.475 41.207,37.715 37.268,37.715 M37.268,32.296 C34.885,32.296 32.696,32.73 31.263,33.485 C29.876,34.214 29.585,35.05 29.585,35.622 C29.585,37.781 33.543,38.946 37.268,38.946 C40.993,38.946 44.951,37.781 44.951,35.622 C44.951,33.461 40.993,32.296 37.268,32.296" id="Fill-26" fill="#404041"></path>
                <path d="M44.335,37.7162 C43.995,37.7162 43.719,37.9912 43.719,38.3322 C43.719,39.1852 41.207,40.4262 37.269,40.4262 C33.331,40.4262 30.817,39.1852 30.817,38.3322 C30.817,37.9912 30.541,37.7162 30.201,37.7162 C29.861,37.7162 29.586,37.9912 29.586,38.3322 C29.586,40.4922 33.545,41.6572 37.269,41.6572 C40.993,41.6572 44.951,40.4922 44.951,38.3322 C44.951,37.9912 44.675,37.7162 44.335,37.7162" id="Fill-28" fill="#404041"></path>
                <path d="M20.2871,36.2386 C20.7921,36.2386 21.2841,36.2166 21.7601,36.1796 C22.0991,36.1536 22.3531,35.8576 22.3251,35.5186 C22.2981,35.1796 21.9991,34.9076 21.6641,34.9536 C21.2191,34.9886 20.7581,35.0076 20.2871,35.0076 C16.3481,35.0076 13.8361,33.7666 13.8361,32.9136 C13.8361,32.5726 13.5601,32.2976 13.2201,32.2976 C12.8801,32.2976 12.6041,32.5726 12.6041,32.9136 C12.6041,35.0736 16.5621,36.2386 20.2871,36.2386" id="Fill-30" fill="#404041"></path>
                <path d="M26.7385,32.912 C26.7385,33.464 25.6395,34.253 23.5395,34.691 C23.2065,34.761 22.9935,35.087 23.0635,35.42 C23.1235,35.71 23.3795,35.909 23.6645,35.909 C23.7065,35.909 23.7485,35.906 23.7915,35.896 C26.4465,35.342 27.9695,34.254 27.9695,32.912 C27.9695,32.572 27.6945,32.296 27.3545,32.296 C27.0135,32.296 26.7385,32.572 26.7385,32.912" id="Fill-32" fill="#404041"></path>
                <path d="M20.2871,38.9474 C24.0121,38.9474 27.9701,37.7824 27.9701,35.6224 C27.9701,35.2814 27.6941,35.0064 27.3541,35.0064 C27.0141,35.0064 26.7381,35.2814 26.7381,35.6224 C26.7381,36.4754 24.2261,37.7164 20.2871,37.7164 C16.3481,37.7164 13.8361,36.4754 13.8361,35.6224 C13.8361,35.2814 13.5601,35.0064 13.2201,35.0064 C12.8801,35.0064 12.6041,35.2814 12.6041,35.6224 C12.6041,37.7824 16.5621,38.9474 20.2871,38.9474" id="Fill-34" fill="#404041"></path>
                <path d="M27.9697,38.3318 C27.9697,37.9918 27.6947,37.7158 27.3537,37.7158 C27.0137,37.7158 26.7387,37.9918 26.7387,38.3318 C26.7387,39.1858 24.2257,40.4258 20.2867,40.4258 C16.3487,40.4258 13.8357,39.1858 13.8357,38.3318 C13.8357,37.9918 13.5607,37.7158 13.2207,37.7158 C12.8797,37.7158 12.6047,37.9918 12.6047,38.3318 C12.6047,40.4918 16.5627,41.6568 20.2867,41.6568 C24.0117,41.6568 27.9697,40.4918 27.9697,38.3318" id="Fill-36" fill="#404041"></path>
                <path d="M30.2023,22.4077 C26.2633,22.4077 23.7493,21.1667 23.7493,20.3137 C23.7493,19.4597 26.2633,18.2187 30.2023,18.2187 C34.1393,18.2187 36.6523,19.4597 36.6523,20.3137 C36.6523,21.1667 34.1393,22.4077 30.2023,22.4077 M30.2023,16.9877 C26.4773,16.9877 22.5183,18.1527 22.5183,20.3137 C22.5183,22.4737 26.4773,23.6387 30.2023,23.6387 C33.9253,23.6387 37.8833,22.4737 37.8833,20.3137 C37.8833,18.1527 33.9253,16.9877 30.2023,16.9877" id="Fill-38" fill="#404041"></path>
                <path d="M30.2011,26.3487 C31.4471,26.3487 32.6811,26.2257 33.7721,25.9927 C34.1051,25.9217 34.3161,25.5947 34.2451,25.2617 C34.1731,24.9297 33.8431,24.7257 33.5141,24.7877 C32.5071,25.0037 31.3611,25.1177 30.2011,25.1177 C29.8611,25.1177 29.5851,25.3927 29.5851,25.7327 C29.5851,26.0737 29.8611,26.3487 30.2011,26.3487" id="Fill-40" fill="#404041"></path>
                <path d="M37.268,22.4077 C36.928,22.4077 36.652,22.6827 36.652,23.0237 C36.652,23.3157 36.341,23.6657 35.798,23.9807 C35.798,23.9807 35.797,23.9807 35.797,23.9807 C35.795,23.9817 35.793,23.9817 35.792,23.9827 C35.683,24.0477 35.566,24.1077 35.441,24.1667 C35.134,24.3137 35.003,24.6797 35.148,24.9877 C35.254,25.2087 35.475,25.3387 35.705,25.3387 C35.794,25.3387 35.884,25.3197 35.97,25.2797 C36.126,25.2047 36.276,25.1267 36.414,25.0457 C36.414,25.0457 36.415,25.0457 36.416,25.0457 C37.629,24.3397 37.884,23.5567 37.884,23.0237 C37.884,22.6827 37.608,22.4077 37.268,22.4077" id="Fill-42" fill="#404041"></path>
                <path d="M37.268,25.1176 C36.928,25.1176 36.652,25.3926 36.652,25.7336 C36.652,26.5866 34.14,27.8276 30.202,27.8276 C29.862,27.8276 29.587,28.1026 29.587,28.4426 C29.587,28.7836 29.862,29.0586 30.202,29.0586 C33.926,29.0586 37.884,27.8936 37.884,25.7336 C37.884,25.3926 37.608,25.1176 37.268,25.1176" id="Fill-44" fill="#404041"></path>
                <path d="M36.6525,28.4431 C36.6525,29.2971 34.1395,30.5371 30.2025,30.5371 C29.8625,30.5371 29.5865,30.8131 29.5865,31.1531 C29.5865,31.4931 29.8625,31.7681 30.2025,31.7681 C33.9255,31.7681 37.8835,30.6031 37.8835,28.4431 C37.8835,28.1031 37.6085,27.8271 37.2685,27.8271 C36.9275,27.8271 36.6525,28.1031 36.6525,28.4431" id="Fill-46" fill="#404041"></path>
            </g>
        </g>
    </g>
</svg>