
<svg width="136px" height="150px" viewBox="0 0 136 150" version="1.1" xmlns="http://www.w3.org/2000/svg" xmlns:xlink="http://www.w3.org/1999/xlink">
    <!-- Generator: Sketch 43.2 (39069) - http://www.bohemiancoding.com/sketch -->
    <desc>Created with Sketch.</desc>
    <defs>
        <polygon id="path-1" points="0.244615385 19.1923077 10.2246604 19.1923077 10.2246604 0.511685871 0.244615385 0.511685871"></polygon>
        <polygon id="path-3" points="0.85875 19.1923077 10.838795 19.1923077 10.838795 0.511685871 0.85875 0.511685871 0.85875 19.1923077"></polygon>
        <polygon id="path-5" points="135.095192 0.000576923077 135.095192 120.69423 0.240288462 120.69423 0.240288462 0.000576923077 135.095192 0.000576923077"></polygon>
    </defs>
    <g id="monitor" stroke="none" stroke-width="1" fill="none" fill-rule="evenodd">
        <g id="szakemberek" transform="translate(-615.000000, -186.000000)">
            <g id="Page-1" transform="translate(615.000000, 185.000000)">
                <path d="M47.4461538,99.4663462 C38.5875,99.4663462 31.4365385,92.2923077 31.4365385,83.4538462 C31.4365385,81.9596154 31.65,80.5288462 32.0336538,79.1644231 C36.9230769,77.6673077 42.0894231,76.8798077 47.4461538,76.8798077 C52.8086538,76.8798077 57.9951923,77.6673077 62.8644231,79.1644231 C63.2480769,80.5288462 63.4615385,81.9596154 63.4615385,83.4538462 C63.4615385,92.2923077 56.2875,99.4663462 47.4461538,99.4663462 Z" id="Fill-1" fill="#68D1C9"></path>
                <path d="M90.1041346,99.4663462 C81.2454808,99.4663462 74.0916346,92.2923077 74.0916346,83.4538462 C74.0916346,81.9596154 74.3079808,80.5288462 74.68875,79.1644231 C79.5810577,77.6673077 84.7474038,76.8798077 90.1041346,76.8798077 C95.4666346,76.8798077 100.650288,77.6673077 105.522404,79.1644231 C105.906058,80.5288462 106.119519,81.9596154 106.119519,83.4538462 C106.119519,92.2923077 98.9454808,99.4663462 90.1041346,99.4663462 Z" id="Fill-3" fill="#68D1C9"></path>
                <g id="Group-7" transform="translate(0.000000, 131.806538)" fill="#404041">
                    <path d="M5.3325,8.26192308 C7.02288462,8.27057692 8.40173077,8.93692308 9.47769231,10.2638462 C10.5680769,11.6080769 10.9344231,13.1455769 10.5796154,14.8792308 C10.3257692,16.1369231 9.69403846,17.1725 8.67865385,17.9859615 C7.67480769,18.7878846 6.52384615,19.1888462 5.23153846,19.1888462 L5.21711538,19.1888462 C4.01711538,19.1888462 2.93538462,18.8225 1.97192308,18.0869231 C1.03730769,17.3686538 0.396923077,16.4426923 0.0594230769,15.3090385 C-0.0588461538,14.9138462 -0.00115384615,14.5503846 0.235384615,14.2186538 C0.471923077,13.8898077 0.795,13.7253846 1.19884615,13.7253846 C1.79884615,13.7253846 2.17961538,14.0080769 2.34115385,14.5734615 C2.52576923,15.2080769 2.88057692,15.7273077 3.40557692,16.1340385 C3.93923077,16.5494231 4.54211538,16.7542308 5.21711538,16.7542308 L5.26903846,16.7542308 C5.95557692,16.7542308 6.56711538,16.5523077 7.10653846,16.1455769 C7.6575,15.7330769 8.02096154,15.1994231 8.19692308,14.5503846 C8.45076923,13.5609615 8.27769231,12.6725 7.67769231,11.8878846 C7.09211538,11.1176923 6.32480769,10.7225 5.37,10.6965385 C3.99980769,10.6705769 2.84019231,10.1859615 1.88538462,9.23692308 C0.921923077,8.29076923 0.440192308,7.13692308 0.440192308,5.77826923 L0.440192308,5.42346154 C0.440192308,4.06192308 0.916153846,2.89942308 1.87096154,1.93596154 C2.81711538,0.981153846 3.96230769,0.505192308 5.30653846,0.505192308 L5.38442308,0.505192308 C6.44019231,0.505192308 7.38923077,0.816730769 8.23730769,1.44269231 C9.07096154,2.06 9.65653846,2.85615385 9.9825,3.83692308 C10.1123077,4.22634615 10.0517308,4.58980769 9.80942308,4.92730769 C9.57,5.25615385 9.24980769,5.42346154 8.84596154,5.42346154 L8.83153846,5.42346154 C8.26615385,5.42346154 7.89403846,5.15519231 7.71519231,4.62442308 C7.54788462,4.12538462 7.25076923,3.71865385 6.82961538,3.40711538 C6.39692308,3.08692308 5.91519231,2.92538462 5.38442308,2.92538462 L5.30653846,2.92538462 C4.62288462,2.92538462 4.04307692,3.17057692 3.57288462,3.66096154 C3.08826923,4.14269231 2.84884615,4.72826923 2.84884615,5.42346154 L2.84884615,5.81576923 C2.84884615,6.49942308 3.09403846,7.07923077 3.58442308,7.55230769 C4.06615385,8.02538462 4.64884615,8.26192308 5.3325,8.26192308" id="Fill-5"></path>
                </g>
                <path d="M21.6853846,148.498462 C22.0228846,148.564808 22.3026923,148.717692 22.5219231,148.954231 C22.7584615,149.199423 22.8767308,149.482115 22.8767308,149.805192 C22.8767308,150.134038 22.7584615,150.416731 22.5219231,150.653269 C22.2940385,150.881154 22.0142308,150.996538 21.6853846,150.996538 L13.9142308,150.996538 C13.7180769,150.996538 13.5421154,150.953269 13.3834615,150.869615 C13.0921154,150.725385 12.8959615,150.4975 12.7863462,150.183077 C12.6853846,149.880192 12.7055769,149.580192 12.8498077,149.283077 L19.7959615,135.061923 L13.9921154,135.061923 C13.6603846,135.061923 13.3834615,134.946538 13.1526923,134.718654 C12.9161538,134.482115 12.7978846,134.199423 12.7978846,133.870577 C12.7978846,133.5475 12.9161538,133.270577 13.1526923,133.034038 C13.3834615,132.806154 13.6603846,132.690769 13.9921154,132.690769 L21.7603846,132.690769 C22.0834615,132.690769 22.3459615,132.806154 22.5623077,133.034038 C22.7642308,133.261923 22.8651923,133.538846 22.8651923,133.870577 C22.8651923,133.9975 22.8507692,134.115769 22.8276923,134.225385 C22.8190385,134.257115 22.8103846,134.285962 22.8017308,134.309038 C22.7930769,134.329231 22.7786538,134.355192 22.7642308,134.389808 L22.7238462,134.479231 L15.8671154,148.498462 L21.6853846,148.498462 Z" id="Fill-8" fill="#404041"></path>
                <path d="M32.5872115,139.827596 L32.5872115,137.116058 C32.5872115,136.792981 32.52375,136.484327 32.3997115,136.190096 L32.3852885,136.164135 C32.2900962,135.953558 32.1718269,135.757404 32.0304808,135.581442 C32.0391346,135.590096 32.0304808,135.575673 32.0045192,135.543942 C31.9266346,135.457404 31.8429808,135.37375 31.7506731,135.290096 C31.7160577,135.264135 31.6900962,135.243942 31.6756731,135.226635 C31.62375,135.183365 31.5718269,135.145865 31.5227885,135.11125 C31.4708654,135.079519 31.4160577,135.044904 31.3554808,135.010288 C31.3064423,134.984327 31.2458654,134.955481 31.1824038,134.920865 C31.1189423,134.897788 31.06125,134.871827 31.0006731,134.845865 C30.9343269,134.819904 30.8968269,134.808365 30.8881731,134.808365 C30.7958654,134.77375 30.6977885,134.747788 30.5968269,134.730481 C30.5795192,134.730481 30.5449038,134.727596 30.4929808,134.718942 C30.3747115,134.701635 30.2708654,134.692981 30.1785577,134.692981 L30.0660577,134.692981 C29.9708654,134.692981 29.8670192,134.701635 29.74875,134.718942 C29.6968269,134.727596 29.6622115,134.730481 29.6449038,134.730481 C29.5439423,134.747788 29.4458654,134.77375 29.3564423,134.808365 L29.2266346,134.845865 C29.1660577,134.871827 29.1141346,134.897788 29.0622115,134.920865 C28.9872115,134.955481 28.9266346,134.984327 28.88625,135.010288 C28.8170192,135.044904 28.7622115,135.079519 28.7189423,135.11125 C28.6699038,135.145865 28.6179808,135.183365 28.5660577,135.226635 C28.5602885,135.226635 28.5343269,135.246827 28.4939423,135.290096 C28.39875,135.37375 28.3150962,135.457404 28.2400962,135.543942 C28.2285577,135.552596 28.2256731,135.56125 28.2256731,135.567019 C28.2170192,135.575673 28.2083654,135.581442 28.1997115,135.581442 C28.0583654,135.757404 27.9429808,135.953558 27.8564423,136.164135 C27.8564423,136.155481 27.8535577,136.164135 27.8449038,136.190096 C27.7208654,136.484327 27.6545192,136.792981 27.6545192,137.116058 L27.6545192,139.827596 L32.5872115,139.827596 Z M34.7160577,135.644904 C34.8775962,136.126635 34.9554808,136.617019 34.9554808,137.116058 L34.9554808,149.802596 C34.9554808,150.134327 34.8372115,150.417019 34.6006731,150.653558 C34.3756731,150.881442 34.0929808,150.996827 33.7670192,150.996827 C33.4352885,150.996827 33.1583654,150.881442 32.9275962,150.653558 C32.7025962,150.417019 32.5872115,150.134327 32.5872115,149.802596 L32.5872115,142.19875 L27.6545192,142.19875 L27.6545192,149.802596 C27.6545192,150.134327 27.5420192,150.417019 27.3141346,150.653558 C27.0775962,150.881442 26.7977885,150.996827 26.4775962,150.996827 C26.14875,150.996827 25.8631731,150.881442 25.6266346,150.653558 C25.4016346,150.417019 25.28625,150.134327 25.28625,149.802596 L25.28625,137.116058 C25.28625,136.617019 25.36125,136.126635 25.5141346,135.644904 C25.5400962,135.56125 25.5429808,135.538173 25.5256731,135.581442 C26.0477885,134.035288 27.0891346,133.019904 28.6468269,132.538173 C28.6525962,132.538173 28.6670192,132.535288 28.6814423,132.526635 C28.8083654,132.492019 28.9381731,132.457404 29.07375,132.425673 L29.1141346,132.425673 C29.1400962,132.417019 29.1574038,132.41125 29.1631731,132.41125 C29.2814423,132.385288 29.4054808,132.365096 29.5295192,132.347788 L29.6218269,132.33625 C29.7891346,132.327596 29.9420192,132.321827 30.0775962,132.321827 L30.1670192,132.321827 C30.2997115,132.321827 30.4497115,132.327596 30.6083654,132.33625 L30.7122115,132.347788 C30.8391346,132.365096 30.9602885,132.385288 31.0814423,132.41125 C31.0843269,132.41125 31.09875,132.417019 31.1160577,132.425673 L31.1679808,132.425673 C31.3035577,132.457404 31.43625,132.492019 31.5602885,132.526635 C31.5660577,132.535288 31.5747115,132.538173 31.58625,132.538173 C33.1381731,133.019904 34.1795192,134.035288 34.7016346,135.581442 C34.7102885,135.590096 34.7160577,135.601635 34.7160577,135.618942 L34.7160577,135.644904 Z" id="Fill-10" fill="#404041"></path>
                <g id="Group-14" transform="translate(37.500000, 131.806538)">
                    <mask id="mask-2" fill="white">
                        <use xlink:href="#path-1"></use>
                    </mask>
                    <g id="Clip-13"></g>
                    <path d="M9.99461538,17.3129808 C10.185,17.5754808 10.26,17.8668269 10.2080769,18.1870192 C10.1590385,18.5100962 10.0061538,18.7668269 9.75230769,18.9600962 C9.48980769,19.15625 9.19846154,19.2283654 8.87826923,19.1764423 C8.55519231,19.1245192 8.29846154,18.96875 8.10519231,18.70625 L2.61288462,11.2668269 L2.61288462,17.9966346 C2.61288462,18.3283654 2.50038462,18.6052885 2.2725,18.8331731 C2.03596154,19.0697115 1.75903846,19.1879808 1.43596154,19.1879808 C1.10711538,19.1879808 0.821538462,19.0697115 0.585,18.8331731 C0.36,18.6052885 0.244615385,18.3283654 0.244615385,17.9966346 L0.244615385,1.69567308 C0.244615385,1.36682692 0.36,1.08701923 0.585,0.859134615 C0.821538462,0.63125 1.10711538,0.515865385 1.43596154,0.515865385 C1.75903846,0.515865385 2.03596154,0.63125 2.2725,0.859134615 C2.50038462,1.08701923 2.61288462,1.36682692 2.61288462,1.69567308 L2.61288462,7.53990385 L8.15423077,0.922596154 C8.36769231,0.677403846 8.63019231,0.541826923 8.95326923,0.515865385 C9.285,0.489903846 9.57057692,0.585096154 9.81576923,0.795673077 C10.0580769,1.00625 10.1965385,1.27163462 10.2196154,1.59471154 C10.2484615,1.91490385 10.1532692,2.19759615 9.94269231,2.44278846 L4.13596154,9.36586538 L9.99461538,17.3129808 Z" id="Fill-12" fill="#404041" mask="url(#mask-2)"></path>
                </g>
                <path d="M57.6360577,148.625385 C57.9677885,148.625385 58.2447115,148.740769 58.4754808,148.968654 C58.7091346,149.205192 58.8302885,149.482115 58.8302885,149.805192 C58.8302885,150.134038 58.7091346,150.416731 58.4754808,150.653269 C58.2447115,150.881154 57.9677885,150.996538 57.6360577,150.996538 L51.3879808,150.996538 C51.0591346,150.996538 50.7735577,150.881154 50.5370192,150.653269 C50.3120192,150.416731 50.1966346,150.134038 50.1966346,149.805192 L50.1966346,133.945577 C50.1966346,133.625385 50.3120192,133.345577 50.5370192,133.109038 C50.7735577,132.881154 51.0591346,132.765769 51.3879808,132.765769 L57.6360577,132.765769 C57.9677885,132.765769 58.2447115,132.881154 58.4754808,133.109038 C58.7091346,133.345577 58.8302885,133.625385 58.8302885,133.945577 C58.8302885,134.274423 58.7091346,134.554231 58.4754808,134.782115 C58.2447115,135.018654 57.9677885,135.136923 57.6360577,135.136923 L52.5649038,135.136923 L52.5649038,140.055192 L56.8745192,140.055192 C57.2091346,140.055192 57.4889423,140.170577 57.7254808,140.398462 C57.9533654,140.626346 58.06875,140.906154 58.06875,141.235 C58.06875,141.563846 57.9533654,141.843654 57.7254808,142.071538 C57.4889423,142.308077 57.2091346,142.426346 56.8745192,142.426346 L52.5649038,142.426346 L52.5649038,148.625385 L57.6360577,148.625385 Z" id="Fill-15" fill="#404041"></path>
                <path d="M73.81125,132.374038 C74.1400962,132.374038 74.4227885,132.492308 74.6593269,132.728846 C74.8900962,132.956731 75.0025962,133.236538 75.0025962,133.565385 L75.0025962,149.802885 C75.0025962,150.134615 74.8900962,150.417308 74.6593269,150.653846 C74.4227885,150.881731 74.1400962,150.997115 73.81125,150.997115 C73.4910577,150.997115 73.21125,150.881731 72.9747115,150.653846 C72.7468269,150.417308 72.6314423,150.134615 72.6314423,149.802885 L72.6314423,138.472115 L69.16125,145.253846 C69.1150962,145.328846 69.0689423,145.392308 69.0199038,145.444231 C68.9189423,145.588462 68.7949038,145.698077 68.6535577,145.773077 C68.3535577,145.917308 68.0506731,145.9375 67.7420192,145.836538 C67.43625,145.744231 67.2054808,145.548077 67.0525962,145.253846 L63.6054808,138.498077 L63.6054808,149.802885 C63.6054808,150.134615 63.4929808,150.417308 63.2650962,150.653846 C63.0285577,150.881731 62.74875,150.997115 62.4285577,150.997115 C62.0968269,150.997115 61.8141346,150.881731 61.5775962,150.653846 C61.3525962,150.417308 61.2372115,150.134615 61.2372115,149.802885 L61.2372115,133.565385 C61.2372115,133.236538 61.3525962,132.956731 61.5775962,132.728846 C61.8141346,132.492308 62.0968269,132.374038 62.4285577,132.374038 C62.8843269,132.374038 63.2275962,132.575962 63.4525962,132.982692 C63.4525962,132.991346 63.4583654,133 63.4670192,133.008654 L63.4814423,133.020192 L68.1054808,142.098077 L72.76125,133.020192 C72.76125,133.028846 72.7756731,133 72.8102885,132.930769 C72.8333654,132.899038 72.8420192,132.884615 72.8333654,132.893269 C72.8679808,132.852885 72.8997115,132.818269 72.9227885,132.792308 L73.2775962,132.374038 L73.81125,132.374038 Z" id="Fill-17" fill="#404041"></path>
                <path d="M85.7524038,145.46875 C85.7524038,144.649519 85.4668269,143.948558 84.9043269,143.365865 C84.3274038,142.780288 83.64375,142.488942 82.8475962,142.488942 L80.1620192,142.488942 L80.1620192,148.549519 L82.8475962,148.549519 C83.64375,148.549519 84.3274038,148.258173 84.9043269,147.675481 C85.4668269,147.089904 85.7524038,146.388942 85.7524038,145.569712 L85.7524038,145.46875 Z M85.2966346,137.469712 C85.2966346,136.777404 85.0572115,136.186058 84.5725962,135.695673 C84.0995192,135.205288 83.5283654,134.960096 82.8620192,134.960096 L80.1620192,134.960096 L80.1620192,140.042788 L82.8620192,140.042788 C83.5283654,140.042788 84.1052885,139.797596 84.5870192,139.307212 C85.0600962,138.816827 85.2966346,138.23125 85.2966346,137.544712 L85.2966346,137.469712 Z M86.08125,141.196635 C87.4427885,142.287019 88.1206731,143.712019 88.1206731,145.46875 L88.1206731,145.569712 C88.1206731,147.058173 87.6129808,148.330288 86.5889423,149.386058 C85.5677885,150.450481 84.3274038,150.987019 82.8764423,150.995673 L78.9822115,150.995673 C78.6533654,150.995673 78.3677885,150.877404 78.13125,150.640865 C77.90625,150.404327 77.7908654,150.115865 77.7908654,149.778365 L77.7908654,133.742788 C77.7908654,133.405288 77.90625,133.116827 78.13125,132.880288 C78.3677885,132.64375 78.6533654,132.525481 78.9822115,132.525481 L82.8620192,132.525481 C84.1889423,132.525481 85.3225962,133.007212 86.2600962,133.970673 C87.1975962,134.934135 87.6649038,136.099519 87.6649038,137.469712 L87.6649038,137.544712 C87.6649038,138.998558 87.1370192,140.215865 86.08125,141.196635 L86.08125,141.196635 Z" id="Fill-19" fill="#404041"></path>
                <path d="M97.9699038,148.625385 C98.3016346,148.625385 98.5785577,148.740769 98.8093269,148.968654 C99.0429808,149.205192 99.1641346,149.482115 99.1641346,149.805192 C99.1641346,150.134038 99.0429808,150.416731 98.8093269,150.653269 C98.5785577,150.881154 98.3016346,150.996538 97.9699038,150.996538 L91.7218269,150.996538 C91.3929808,150.996538 91.1074038,150.881154 90.8708654,150.653269 C90.6458654,150.416731 90.5304808,150.134038 90.5304808,149.805192 L90.5304808,133.945577 C90.5304808,133.625385 90.6458654,133.345577 90.8708654,133.109038 C91.1074038,132.881154 91.3929808,132.765769 91.7218269,132.765769 L97.9699038,132.765769 C98.3016346,132.765769 98.5785577,132.881154 98.8093269,133.109038 C99.0429808,133.345577 99.1641346,133.625385 99.1641346,133.945577 C99.1641346,134.274423 99.0429808,134.554231 98.8093269,134.782115 C98.5785577,135.018654 98.3016346,135.136923 97.9699038,135.136923 L92.89875,135.136923 L92.89875,140.055192 L97.2083654,140.055192 C97.5429808,140.055192 97.8227885,140.170577 98.0593269,140.398462 C98.2872115,140.626346 98.4025962,140.906154 98.4025962,141.235 C98.4025962,141.563846 98.2872115,141.843654 98.0593269,142.071538 C97.8227885,142.308077 97.5429808,142.426346 97.2083654,142.426346 L92.89875,142.426346 L92.89875,148.625385 L97.9699038,148.625385 Z" id="Fill-21" fill="#404041"></path>
                <path d="M103.941923,139.827596 L106.644808,139.827596 C107.311154,139.827596 107.879423,139.591058 108.3525,139.117981 C108.837115,138.644904 109.076538,138.070865 109.076538,137.392981 L109.076538,137.317981 C109.076538,136.64875 108.837115,136.080481 108.3525,135.607404 C107.879423,135.134327 107.311154,134.897788 106.644808,134.897788 L103.941923,134.897788 L103.941923,139.827596 Z M111.447692,137.392981 C111.447692,138.846827 110.893846,140.052596 109.786154,141.007404 C110.893846,141.970865 111.447692,143.17375 111.447692,144.618942 L111.447692,149.802596 C111.447692,150.134327 111.329423,150.417019 111.092885,150.653558 C110.865,150.881442 110.585192,150.996827 110.256346,150.996827 C109.924615,150.996827 109.650577,150.881442 109.416923,150.653558 C109.191923,150.417019 109.076538,150.134327 109.076538,149.802596 L109.076538,144.618942 C109.076538,143.952596 108.837115,143.381442 108.3525,142.908365 C107.879423,142.435288 107.311154,142.19875 106.644808,142.19875 L103.941923,142.19875 L103.941923,149.802596 C103.941923,150.134327 103.829423,150.417019 103.601538,150.653558 C103.365,150.881442 103.085192,150.996827 102.765,150.996827 C102.436154,150.996827 102.150577,150.881442 101.914038,150.653558 C101.689038,150.417019 101.573654,150.134327 101.573654,149.802596 L101.573654,133.703558 C101.573654,133.374712 101.689038,133.097788 101.914038,132.867019 C102.150577,132.639135 102.436154,132.526635 102.765,132.526635 L106.644808,132.526635 C107.968846,132.526635 109.1025,132.993942 110.04,133.934327 C110.9775,134.871827 111.447692,135.999712 111.447692,137.317981 L111.447692,137.392981 Z" id="Fill-23" fill="#404041"></path>
                <path d="M121.294615,148.625385 C121.626346,148.625385 121.903269,148.740769 122.134038,148.968654 C122.367692,149.205192 122.488846,149.482115 122.488846,149.805192 C122.488846,150.134038 122.367692,150.416731 122.134038,150.653269 C121.903269,150.881154 121.626346,150.996538 121.294615,150.996538 L115.046538,150.996538 C114.717692,150.996538 114.432115,150.881154 114.195577,150.653269 C113.970577,150.416731 113.855192,150.134038 113.855192,149.805192 L113.855192,133.945577 C113.855192,133.625385 113.970577,133.345577 114.195577,133.109038 C114.432115,132.881154 114.717692,132.765769 115.046538,132.765769 L121.294615,132.765769 C121.626346,132.765769 121.903269,132.881154 122.134038,133.109038 C122.367692,133.345577 122.488846,133.625385 122.488846,133.945577 C122.488846,134.274423 122.367692,134.554231 122.134038,134.782115 C121.903269,135.018654 121.626346,135.136923 121.294615,135.136923 L116.223462,135.136923 L116.223462,140.055192 L120.533077,140.055192 C120.867692,140.055192 121.1475,140.170577 121.384038,140.398462 C121.611923,140.626346 121.727308,140.906154 121.727308,141.235 C121.727308,141.563846 121.611923,141.843654 121.384038,142.071538 C121.1475,142.308077 120.867692,142.426346 120.533077,142.426346 L116.223462,142.426346 L116.223462,148.625385 L121.294615,148.625385 Z" id="Fill-25" fill="#404041"></path>
                <g id="Group-29" transform="translate(124.038462, 131.806538)">
                    <mask id="mask-4" fill="white">
                        <use xlink:href="#path-3"></use>
                    </mask>
                    <g id="Clip-28"></g>
                    <path d="M10.60875,17.3129808 C10.7991346,17.5754808 10.8741346,17.8668269 10.8222115,18.1870192 C10.7731731,18.5100962 10.6202885,18.7668269 10.3664423,18.9600962 C10.1039423,19.15625 9.81259615,19.2283654 9.49240385,19.1764423 C9.16932692,19.1245192 8.91259615,18.96875 8.71932692,18.70625 L3.22701923,11.2668269 L3.22701923,17.9966346 C3.22701923,18.3283654 3.11451923,18.6052885 2.88663462,18.8331731 C2.65009615,19.0697115 2.37317308,19.1879808 2.05009615,19.1879808 C1.72125,19.1879808 1.43567308,19.0697115 1.19913462,18.8331731 C0.974134615,18.6052885 0.85875,18.3283654 0.85875,17.9966346 L0.85875,1.69567308 C0.85875,1.36682692 0.974134615,1.08701923 1.19913462,0.859134615 C1.43567308,0.63125 1.72125,0.515865385 2.05009615,0.515865385 C2.37317308,0.515865385 2.65009615,0.63125 2.88663462,0.859134615 C3.11451923,1.08701923 3.22701923,1.36682692 3.22701923,1.69567308 L3.22701923,7.53990385 L8.76836538,0.922596154 C8.98182692,0.677403846 9.24432692,0.541826923 9.56740385,0.515865385 C9.89913462,0.489903846 10.1847115,0.585096154 10.4299038,0.795673077 C10.6722115,1.00625 10.8106731,1.27163462 10.83375,1.59471154 C10.8625962,1.91490385 10.7674038,2.19759615 10.5568269,2.44278846 L4.75009615,9.36586538 L10.60875,17.3129808 Z" id="Fill-27" fill="#404041" mask="url(#mask-4)"></path>
                </g>
                <g id="Group-32" transform="translate(0.000000, 0.998846)">
                    <mask id="mask-6" fill="white">
                        <use xlink:href="#path-5"></use>
                    </mask>
                    <g id="Clip-31"></g>
                    <path d="M108.497019,120.692885 C108.072981,120.692885 107.648942,120.505385 107.363365,120.144808 C106.872981,119.518846 106.979712,118.610192 107.602788,118.116923 C123.240288,105.782308 132.211442,87.3005769 132.211442,67.4169231 C132.211442,31.8351923 103.249904,2.88519231 67.6508654,2.88519231 C32.0720192,2.88519231 3.12490385,31.8351923 3.12490385,67.4169231 C3.12490385,87.3034615 12.0902885,105.782308 27.7277885,118.116923 C28.35375,118.610192 28.4604808,119.518846 27.9672115,120.144808 C27.4739423,120.770769 26.5681731,120.8775 25.9422115,120.384231 C9.60951923,107.495769 0.240288462,88.1919231 0.240288462,67.4169231 C0.240288462,30.2457692 30.4797115,0.000576923077 67.6508654,0.000576923077 C104.839327,0.000576923077 135.096058,30.2457692 135.096058,67.4169231 C135.096058,88.1890385 125.726827,107.495769 109.39125,120.384231 C109.125865,120.591923 108.808558,120.692885 108.497019,120.692885" id="Fill-30" fill="#404041" mask="url(#mask-6)"></path>
                </g>
                <path d="M33.2293269,80.3127885 C32.9956731,81.3541346 32.8774038,82.4070192 32.8774038,83.4541346 C32.8774038,91.4877885 39.4139423,98.0243269 47.4475962,98.0243269 C55.48125,98.0243269 62.0177885,91.4877885 62.0177885,83.4541346 C62.0177885,82.4070192 61.8995192,81.3541346 61.6658654,80.3127885 C52.5504808,77.6733654 42.4139423,77.6618269 33.2293269,80.3127885 M47.4475962,100.908942 C37.8245192,100.908942 29.9927885,93.0772115 29.9927885,83.4541346 C29.9927885,81.8877885 30.2120192,80.3127885 30.6447115,78.7752885 C30.7745192,78.3022115 31.1379808,77.9272115 31.6081731,77.7858654 C41.8197115,74.6618269 53.1620192,74.67625 63.2870192,77.7858654 C63.7572115,77.9272115 64.1206731,78.3022115 64.2533654,78.7752885 C64.6831731,80.3127885 64.9024038,81.8877885 64.9024038,83.4541346 C64.9024038,93.0772115 57.0735577,100.908942 47.4475962,100.908942" id="Fill-33" fill="#404041"></path>
                <path d="M51.2327885,95.3978846 C50.6299038,95.3978846 50.0702885,95.0171154 49.8654808,94.4142308 C49.6116346,93.6584615 50.0183654,92.8421154 50.7741346,92.5882692 C52.1674038,92.1180769 53.4164423,91.3478846 54.3856731,90.3584615 C54.9395192,89.7901923 55.8539423,89.7786538 56.4250962,90.3353846 C56.9933654,90.8921154 57.0049038,91.8065385 56.4481731,92.3748077 C55.1616346,93.6901923 53.5174038,94.7084615 51.6914423,95.3228846 C51.5385577,95.3748077 51.3856731,95.3978846 51.2327885,95.3978846" id="Fill-35" fill="#404041"></path>
                <path d="M58.1457692,88.5299038 L58.1025,88.5299038 C57.3063462,88.5299038 56.6601923,87.88375 56.6601923,87.0875962 C56.6601923,86.2914423 57.3063462,85.6452885 58.1025,85.6452885 C58.9015385,85.6452885 59.5678846,86.2914423 59.5678846,87.0875962 C59.5678846,87.88375 58.9419231,88.5299038 58.1457692,88.5299038" id="Fill-37" fill="#404041"></path>
                <path d="M76.1633654,80.3099038 C75.9297115,81.3541346 75.8114423,82.4070192 75.8114423,83.4541346 C75.8114423,91.4877885 82.3479808,98.0243269 90.3816346,98.0243269 C98.4152885,98.0243269 104.948942,91.4877885 104.948942,83.4541346 C104.948942,82.4070192 104.830673,81.35125 104.597019,80.3099038 C95.4845192,77.67625 85.3479808,77.6647115 76.1633654,80.3099038 M90.3816346,100.908942 C80.7585577,100.908942 72.9268269,93.0772115 72.9268269,83.4541346 C72.9268269,81.8906731 73.1460577,80.3127885 73.57875,78.7724038 C73.7085577,78.2993269 74.0720192,77.9243269 74.5422115,77.7829808 C84.7508654,74.6618269 96.0902885,74.67625 106.218173,77.7829808 C106.688365,77.9243269 107.051827,78.2993269 107.184519,78.7724038 C107.614327,80.3127885 107.833558,81.8906731 107.833558,83.4541346 C107.833558,93.0772115 100.004712,100.908942 90.3816346,100.908942" id="Fill-39" fill="#404041"></path>
                <path d="M94.1668269,95.3978846 C93.5639423,95.3978846 93.0043269,95.0171154 92.7995192,94.4171154 C92.5456731,93.6613462 92.9524038,92.8421154 93.7081731,92.5882692 C95.0985577,92.1209615 96.3504808,91.3478846 97.3197115,90.3555769 C97.8822115,89.7930769 98.79375,89.7786538 99.3591346,90.3382692 C99.9274038,90.895 99.9389423,91.8065385 99.3822115,92.3776923 C98.0899038,93.6901923 96.4485577,94.7084615 94.6254808,95.3228846 C94.4725962,95.3748077 94.3197115,95.3978846 94.1668269,95.3978846" id="Fill-41" fill="#404041"></path>
                <path d="M101.079808,88.5299038 L101.033654,88.5299038 C100.2375,88.5299038 99.5913462,87.88375 99.5913462,87.0875962 C99.5913462,86.2914423 100.2375,85.6452885 101.033654,85.6452885 C101.832692,85.6452885 102.499038,86.2914423 102.499038,87.0875962 C102.499038,87.88375 101.875962,88.5299038 101.079808,88.5299038" id="Fill-43" fill="#404041"></path>
                <path d="M62.7346154,80.5297115 C62.4778846,80.5297115 62.2153846,80.4633654 61.9817308,80.3191346 C61.3038462,79.90375 61.0903846,79.0152885 61.5028846,78.3345192 C63.0634615,75.77875 65.7807692,74.2527885 68.7663462,74.2527885 C71.7,74.2527885 74.3884615,75.7354808 75.9548077,78.21625 C76.3788462,78.89125 76.1769231,79.7797115 75.5048077,80.2066346 C74.8326923,80.6249038 73.9384615,80.4316346 73.5144231,79.75375 C72.4817308,78.1181731 70.7076923,77.1374038 68.7663462,77.1374038 C66.7932692,77.1374038 64.9990385,78.1470192 63.9663462,79.8402885 C63.6923077,80.2845192 63.2192308,80.5297115 62.7346154,80.5297115" id="Fill-45" fill="#404041"></path>
                <path d="M31.9364423,80.71 L28.3595192,80.71 C27.5604808,80.71 26.9172115,80.0638462 26.9172115,79.2676923 C26.9172115,78.4715385 27.5604808,77.8253846 28.3595192,77.8253846 L31.9364423,77.8253846 C32.7325962,77.8253846 33.37875,78.4715385 33.37875,79.2676923 C33.37875,80.0638462 32.7325962,80.71 31.9364423,80.71" id="Fill-47" fill="#404041"></path>
                <path d="M28.3589423,80.71 C28.2550962,80.71 28.1483654,80.6984615 28.0416346,80.6753846 C27.2656731,80.4994231 26.7752885,79.7263462 26.9541346,78.9503846 L36.5829808,36.2609615 C36.7531731,35.485 37.5175962,34.9975 38.3050962,35.1705769 C39.0810577,35.3465385 39.5714423,36.1196154 39.3925962,36.8955769 L29.76375,79.585 C29.6166346,80.2542308 29.0195192,80.71 28.3589423,80.71" id="Fill-49" fill="#404041"></path>
                <path d="M44.4467308,38.6857692 C44.3861538,38.6857692 44.3313462,38.6828846 44.2707692,38.6771154 C43.4803846,38.5790385 42.9178846,37.8607692 43.0130769,37.0703846 C43.1313462,36.0809615 42.4217308,35.1780769 41.4294231,35.0598077 C40.4140385,34.9155769 39.5371154,35.6482692 39.4188462,36.6376923 C39.3265385,37.4309615 38.6082692,38.0021154 37.815,37.8982692 C37.0246154,37.8030769 36.4592308,37.0848077 36.5573077,36.2944231 C36.8630769,33.7242308 39.2169231,31.8982692 41.7726923,32.1953846 C44.3457692,32.5011538 46.1861538,34.8434615 45.8746154,37.4165385 C45.7880769,38.1463462 45.165,38.6857692 44.4467308,38.6857692" id="Fill-51" fill="#404041"></path>
                <path d="M109.192788,80.62 C108.532212,80.62 107.935096,80.1642308 107.787981,79.495 L98.1591346,36.8055769 C97.9802885,36.0296154 98.4706731,35.2565385 99.2466346,35.0805769 C100.037019,34.9046154 100.798558,35.3978846 100.96875,36.1709615 L110.597596,78.8603846 C110.776442,79.6363462 110.286058,80.4094231 109.510096,80.5853846 C109.403365,80.6084615 109.296635,80.62 109.192788,80.62" id="Fill-53" fill="#404041"></path>
                <path d="M93.105,38.6857692 C92.3867308,38.6857692 91.7607692,38.1463462 91.6771154,37.4136538 C91.3684615,34.8434615 93.2117308,32.5011538 95.7790385,32.1953846 C98.3376923,31.8982692 100.688654,33.7242308 100.994423,36.2944231 C101.0925,37.0848077 100.527115,37.8030769 99.7367308,37.8982692 C98.9578846,37.9876923 98.2280769,37.4309615 98.1328846,36.6376923 C98.0146154,35.6511538 97.1376923,34.9184615 96.1223077,35.0598077 C95.1328846,35.1780769 94.4232692,36.0809615 94.5386538,37.0732692 C94.6338462,37.8636538 94.0684615,38.5819231 93.2780769,38.6771154 C93.2203846,38.6828846 93.1626923,38.6857692 93.105,38.6857692" id="Fill-55" fill="#404041"></path>
                <path d="M109.192788,80.71 L105.615865,80.71 C104.816827,80.71 104.173558,80.0638462 104.173558,79.2676923 C104.173558,78.4715385 104.816827,77.8253846 105.615865,77.8253846 L109.192788,77.8253846 C109.988942,77.8253846 110.635096,78.4715385 110.635096,79.2676923 C110.635096,80.0638462 109.988942,80.71 109.192788,80.71" id="Fill-57" fill="#404041"></path>
            </g>
        </g>
    </g>
</svg>