<?xml version="1.0" encoding="UTF-8"?>
<svg width="58px" height="64px" viewBox="0 0 58 64" version="1.1" xmlns="http://www.w3.org/2000/svg" xmlns:xlink="http://www.w3.org/1999/xlink">
    <!-- Generator: Sketch 44.1 (41455) - http://www.bohemiancoding.com/sketch -->
    <title>professionals</title>
    <desc>Created with Sketch.</desc>
    <defs>
        <polygon id="path-1" points="57.635 0.0091 57.635 64 0 64 0 0.009 57.635 0.009 0.1031 0.0091 0.1031 51.4982071 57.6351 51.4982071 57.6351 0.0091"></polygon>
    </defs>
    <g id="Page-1" stroke="none" stroke-width="1" fill="none" fill-rule="evenodd">
        <g id="Artboard-Copy-2" transform="translate(-3.000000, 0.000000)">
            <g id="professionals" transform="translate(3.000000, -1.000000)">
                <g id="Group-3" transform="translate(0.000000, 56.991000)" fill="#404041">
                    <path d="M2.2747,3.3375 C1.9837,3.3375 1.7337,3.2365 1.5297,3.0345 C1.3207,2.8325 1.2147,2.5855 1.2147,2.2945 L1.2147,2.1265 C1.2147,1.8305 1.3177,1.5805 1.5247,1.3735 C1.7247,1.1645 1.9717,1.0615 2.2647,1.0615 L2.2967,1.0615 C2.5247,1.0615 2.7287,1.1285 2.9137,1.2655 C3.0947,1.4005 3.2197,1.5735 3.2917,1.7845 C3.3687,2.0135 3.5267,2.1265 3.7677,2.1265 L3.7747,2.1265 C3.9477,2.1265 4.0817,2.0565 4.1857,1.9145 C4.2887,1.7705 4.3157,1.6165 4.2597,1.4505 C4.1207,1.0325 3.8707,0.6915 3.5147,0.4275 C3.1517,0.1615 2.7477,0.0275 2.2967,0.0275 L2.2647,0.0275 C1.6907,0.0275 1.2027,0.2325 0.7987,0.6385 C0.3907,1.0495 0.1887,1.5455 0.1887,2.1265 L0.1887,2.2775 C0.1887,2.8575 0.3927,3.3495 0.8037,3.7535 C1.2127,4.1575 1.7077,4.3655 2.2917,4.3755 C2.6977,4.3865 3.0267,4.5565 3.2767,4.8845 C3.5317,5.2195 3.6067,5.5985 3.4977,6.0195 C3.4207,6.2975 3.2677,6.5245 3.0317,6.7015 C2.8007,6.8745 2.5417,6.9605 2.2487,6.9605 L2.2267,6.9605 C1.9377,6.9605 1.6807,6.8735 1.4527,6.6955 C1.2287,6.5225 1.0777,6.3015 0.9987,6.0305 C0.9307,5.7895 0.7677,5.6685 0.5127,5.6685 C0.3397,5.6685 0.2027,5.7385 0.1017,5.8795 C0.0007,6.0195 -0.0253,6.1745 0.0247,6.3445 C0.1687,6.8275 0.4427,7.2215 0.8417,7.5295 C1.2527,7.8415 1.7147,7.9995 2.2267,7.9995 L2.2317,7.9995 C2.7847,7.9995 3.2747,7.8275 3.7027,7.4865 C4.1347,7.1395 4.4067,6.6975 4.5147,6.1605 C4.6667,5.4215 4.5097,4.7655 4.0437,4.1915 C3.5847,3.6255 2.9957,3.3415 2.2747,3.3375" id="Fill-1"></path>
                </g>
                <path d="M9.2522,63.9242 L6.7692,63.9242 L9.6942,57.9442 L9.7112,57.9052 C9.7182,57.8912 9.7232,57.8792 9.7282,57.8712 C9.7302,57.8622 9.7352,57.8502 9.7382,57.8362 C9.7502,57.7882 9.7542,57.7372 9.7542,57.6842 C9.7542,57.5432 9.7112,57.4252 9.6252,57.3262 C9.5332,57.2302 9.4202,57.1812 9.2832,57.1812 L5.9692,57.1812 C5.8272,57.1812 5.7092,57.2302 5.6112,57.3262 C5.5102,57.4272 5.4592,57.5472 5.4592,57.6842 C5.4592,57.8242 5.5102,57.9452 5.6112,58.0462 C5.7092,58.1432 5.8272,58.1912 5.9692,58.1912 L8.4442,58.1912 L5.4812,64.2612 C5.4212,64.3852 5.4112,64.5142 5.4542,64.6442 C5.5022,64.7772 5.5872,64.8752 5.7092,64.9362 C5.7762,64.9722 5.8532,64.9902 5.9352,64.9902 L9.2522,64.9902 C9.3912,64.9902 9.5122,64.9412 9.6082,64.8452 C9.7092,64.7442 9.7592,64.6222 9.7592,64.4822 C9.7592,64.3452 9.7092,64.2242 9.6082,64.1192 C9.5142,64.0182 9.3962,63.9532 9.2522,63.9242" id="Fill-4" fill="#404041"></path>
                <path d="M13.9031,60.2252 L11.7971,60.2252 L11.7971,59.0692 C11.7971,58.9322 11.8261,58.8002 11.8791,58.6732 C11.8841,58.6632 11.8841,58.6592 11.8841,58.6632 C11.9201,58.5732 11.9711,58.4902 12.0311,58.4142 C12.0351,58.4142 12.0381,58.4132 12.0431,58.4082 C12.0431,58.4052 12.0431,58.4012 12.0471,58.3982 C12.0791,58.3622 12.1151,58.3262 12.1561,58.2902 C12.1721,58.2712 12.1841,58.2622 12.1871,58.2622 C12.2081,58.2442 12.2301,58.2282 12.2521,58.2132 C12.2711,58.1992 12.2951,58.1842 12.3241,58.1702 C12.3411,58.1602 12.3671,58.1472 12.3981,58.1332 C12.4201,58.1222 12.4441,58.1112 12.4681,58.1002 L12.5231,58.0832 C12.5621,58.0692 12.6051,58.0592 12.6481,58.0522 C12.6561,58.0522 12.6701,58.0502 12.6921,58.0462 C12.7421,58.0392 12.7851,58.0352 12.8261,58.0352 L12.8741,58.0352 C12.9151,58.0352 12.9581,58.0392 13.0091,58.0462 C13.0311,58.0502 13.0451,58.0522 13.0521,58.0522 C13.0951,58.0592 13.1391,58.0692 13.1771,58.0832 C13.1821,58.0832 13.1961,58.0892 13.2251,58.1002 C13.2521,58.1112 13.2761,58.1222 13.3021,58.1332 C13.3311,58.1472 13.3551,58.1602 13.3771,58.1702 C13.4031,58.1842 13.4271,58.1992 13.4491,58.2132 C13.4701,58.2282 13.4921,58.2442 13.5141,58.2622 C13.5211,58.2702 13.5301,58.2782 13.5451,58.2902 C13.5861,58.3262 13.6221,58.3622 13.6531,58.3982 C13.6651,58.4132 13.6671,58.4182 13.6651,58.4142 C13.7251,58.4902 13.7761,58.5732 13.8161,58.6632 L13.8211,58.6732 C13.8741,58.8002 13.9031,58.9322 13.9031,59.0692 L13.9031,60.2252 Z M14.8121,58.4302 C14.8121,58.4222 14.8091,58.4182 14.8041,58.4142 C14.5811,57.7542 14.1391,57.3212 13.4751,57.1162 C13.4701,57.1162 13.4681,57.1152 13.4631,57.1102 C13.4101,57.0962 13.3551,57.0812 13.2971,57.0672 L13.2761,57.0672 C13.2681,57.0642 13.2611,57.0622 13.2591,57.0622 C13.2081,57.0512 13.1551,57.0432 13.1031,57.0352 L13.0591,57.0292 C12.9901,57.0262 12.9271,57.0232 12.8691,57.0232 L12.8311,57.0232 C12.7731,57.0232 12.7081,57.0262 12.6361,57.0292 L12.5981,57.0352 C12.5451,57.0432 12.4921,57.0512 12.4421,57.0622 C12.4391,57.0622 12.4321,57.0642 12.4201,57.0672 L12.4031,57.0672 C12.3451,57.0812 12.2901,57.0962 12.2371,57.1102 C12.2301,57.1152 12.2231,57.1162 12.2211,57.1162 C11.5571,57.3212 11.1121,57.7542 10.8891,58.4142 C10.8961,58.3962 10.8961,58.4052 10.8841,58.4422 C10.8191,58.6462 10.7881,58.8552 10.7881,59.0692 L10.7881,64.4822 C10.7881,64.6222 10.8361,64.7442 10.9321,64.8452 C11.0331,64.9412 11.1561,64.9902 11.2951,64.9902 C11.4321,64.9902 11.5521,64.9412 11.6531,64.8452 C11.7491,64.7442 11.7971,64.6222 11.7971,64.4822 L11.7971,61.2372 L13.9031,61.2372 L13.9031,64.4822 C13.9031,64.6222 13.9511,64.7442 14.0471,64.8452 C14.1461,64.9412 14.2641,64.9902 14.4051,64.9902 C14.5451,64.9902 14.6651,64.9412 14.7611,64.8452 C14.8621,64.7442 14.9121,64.6222 14.9121,64.4822 L14.9121,59.0692 C14.9121,58.8552 14.8791,58.6462 14.8121,58.4422 L14.8121,58.4302 Z" id="Fill-6" fill="#404041"></path>
                <path d="M20.3591,57.4839 C20.3491,57.3469 20.2891,57.2329 20.1861,57.1439 C20.0801,57.0529 19.9601,57.0139 19.8181,57.0239 C19.6811,57.0359 19.5681,57.0929 19.4771,57.1969 L17.1141,60.0209 L17.1141,57.5269 C17.1141,57.3869 17.0661,57.2679 16.9681,57.1699 C16.8671,57.0729 16.7491,57.0239 16.6121,57.0239 C16.4701,57.0239 16.3501,57.0729 16.2491,57.1699 C16.1531,57.2679 16.1021,57.3869 16.1021,57.5269 L16.1021,64.4819 C16.1021,64.6229 16.1531,64.7419 16.2491,64.8389 C16.3501,64.9399 16.4701,64.9899 16.6121,64.9899 C16.7491,64.9899 16.8671,64.9399 16.9681,64.8389 C17.0661,64.7419 17.1141,64.6229 17.1141,64.4819 L17.1141,61.6099 L19.4551,64.7849 C19.5391,64.8969 19.6481,64.9629 19.7871,64.9839 C19.9221,65.0059 20.0471,64.9759 20.1601,64.8929 C20.2681,64.8099 20.3331,64.7009 20.3541,64.5639 C20.3761,64.4269 20.3451,64.3019 20.2631,64.1899 L17.7631,60.7999 L20.2411,57.8459 C20.3301,57.7419 20.3711,57.6209 20.3591,57.4839" id="Fill-8" fill="#404041"></path>
                <path d="M24.5894,58.2254 C24.7314,58.2254 24.8494,58.1754 24.9474,58.0744 C25.0464,57.9754 25.0994,57.8574 25.0994,57.7154 C25.0994,57.5784 25.0464,57.4614 24.9474,57.3604 C24.8494,57.2614 24.7314,57.2134 24.5894,57.2134 L21.9234,57.2134 C21.7824,57.2134 21.6614,57.2614 21.5604,57.3604 C21.4644,57.4614 21.4144,57.5784 21.4144,57.7154 L21.4144,64.4814 C21.4144,64.6224 21.4644,64.7434 21.5604,64.8444 C21.6614,64.9414 21.7824,64.9904 21.9234,64.9904 L24.5894,64.9904 C24.7314,64.9904 24.8494,64.9414 24.9474,64.8444 C25.0464,64.7434 25.0994,64.6224 25.0994,64.4814 C25.0994,64.3444 25.0464,64.2264 24.9474,64.1254 C24.8494,64.0274 24.7314,63.9794 24.5894,63.9794 L22.4264,63.9794 L22.4264,61.3344 L24.2654,61.3344 C24.4064,61.3344 24.5274,61.2844 24.6274,61.1834 C24.7244,61.0854 24.7744,60.9664 24.7744,60.8264 C24.7744,60.6854 24.7244,60.5664 24.6274,60.4694 C24.5274,60.3714 24.4064,60.3234 24.2654,60.3234 L22.4264,60.3234 L22.4264,58.2254 L24.5894,58.2254 Z" id="Fill-10" fill="#404041"></path>
                <path d="M31.49,57.0452 L31.262,57.0452 C31.262,57.0452 31.211,57.1052 31.11,57.2242 C31.101,57.2352 31.086,57.2492 31.072,57.2672 C31.077,57.2642 31.072,57.2692 31.062,57.2832 C31.048,57.3122 31.041,57.3252 31.041,57.3212 L29.055,61.1942 L27.082,57.3212 L27.077,57.3172 C27.072,57.3122 27.07,57.3092 27.07,57.3052 C26.974,57.1322 26.827,57.0452 26.632,57.0452 C26.493,57.0452 26.37,57.0952 26.269,57.1962 C26.173,57.2952 26.125,57.4132 26.125,57.5552 L26.125,64.4822 C26.125,64.6222 26.173,64.7442 26.269,64.8452 C26.37,64.9412 26.493,64.9902 26.632,64.9902 C26.769,64.9902 26.89,64.9412 26.991,64.8452 C27.087,64.7442 27.135,64.6222 27.135,64.4822 L27.135,59.6582 L28.606,62.5402 C28.671,62.6672 28.769,62.7492 28.899,62.7902 C29.031,62.8332 29.161,62.8232 29.288,62.7622 C29.348,62.7292 29.401,62.6832 29.445,62.6212 C29.466,62.6002 29.485,62.5732 29.505,62.5402 L30.985,59.6472 L30.985,64.4822 C30.985,64.6222 31.036,64.7442 31.132,64.8452 C31.233,64.9412 31.353,64.9902 31.49,64.9902 C31.629,64.9902 31.75,64.9412 31.851,64.8452 C31.949,64.7442 31.997,64.6222 31.997,64.4822 L31.997,57.5552 C31.997,57.4132 31.949,57.2952 31.851,57.1962 C31.75,57.0952 31.629,57.0452 31.49,57.0452" id="Fill-12" fill="#404041"></path>
                <path d="M36.5832,62.6756 C36.5832,63.0256 36.4632,63.3246 36.2222,63.5736 C35.9752,63.8226 35.6842,63.9456 35.3452,63.9456 L34.1992,63.9456 L34.1992,61.3616 L35.3452,61.3616 C35.6842,61.3616 35.9752,61.4856 36.2222,61.7346 C36.4632,61.9836 36.5832,62.2826 36.5832,62.6326 L36.5832,62.6756 Z M34.1992,58.1486 L35.3502,58.1486 C35.6362,58.1486 35.8792,58.2546 36.0812,58.4636 C36.2872,58.6726 36.3882,58.9246 36.3882,59.2206 L36.3882,59.2516 C36.3882,59.5446 36.2872,59.7946 36.0852,60.0036 C35.8812,60.2136 35.6362,60.3176 35.3502,60.3176 L34.1992,60.3176 L34.1992,58.1486 Z M36.7252,60.8096 C37.1742,60.3906 37.4002,59.8716 37.4002,59.2516 L37.4002,59.2206 C37.4002,58.6366 37.2012,58.1386 36.7992,57.7276 C36.4002,57.3166 35.9172,57.1106 35.3502,57.1106 L33.6962,57.1106 C33.5542,57.1106 33.4342,57.1606 33.3332,57.2616 C33.2372,57.3626 33.1872,57.4846 33.1872,57.6296 L33.1872,64.4706 C33.1872,64.6156 33.2372,64.7376 33.3332,64.8386 C33.4342,64.9396 33.5542,64.9906 33.6962,64.9906 L35.3572,64.9906 C35.9752,64.9866 36.5042,64.7586 36.9412,64.3036 C37.3762,63.8526 37.5952,63.3106 37.5952,62.6756 L37.5952,62.6326 C37.5952,61.8826 37.3042,61.2756 36.7252,60.8096 L36.7252,60.8096 Z" id="Fill-14" fill="#404041"></path>
                <path d="M41.7965,58.2254 C41.9385,58.2254 42.0565,58.1754 42.1545,58.0744 C42.2535,57.9754 42.3065,57.8574 42.3065,57.7154 C42.3065,57.5784 42.2535,57.4614 42.1545,57.3604 C42.0565,57.2614 41.9385,57.2134 41.7965,57.2134 L39.1305,57.2134 C38.9895,57.2134 38.8685,57.2614 38.7685,57.3604 C38.6715,57.4614 38.6215,57.5784 38.6215,57.7154 L38.6215,64.4814 C38.6215,64.6224 38.6715,64.7434 38.7685,64.8444 C38.8685,64.9414 38.9895,64.9904 39.1305,64.9904 L41.7965,64.9904 C41.9385,64.9904 42.0565,64.9414 42.1545,64.8444 C42.2535,64.7434 42.3065,64.6224 42.3065,64.4814 C42.3065,64.3444 42.2535,64.2264 42.1545,64.1254 C42.0565,64.0274 41.9385,63.9794 41.7965,63.9794 L39.6335,63.9794 L39.6335,61.3344 L41.4725,61.3344 C41.6135,61.3344 41.7345,61.2844 41.8345,61.1834 C41.9315,61.0854 41.9815,60.9664 41.9815,60.8264 C41.9815,60.6854 41.9315,60.5664 41.8345,60.4694 C41.7345,60.3714 41.6135,60.3234 41.4725,60.3234 L39.6335,60.3234 L39.6335,58.2254 L41.7965,58.2254 Z" id="Fill-16" fill="#404041"></path>
                <path d="M46.534,59.1868 C46.534,59.4748 46.433,59.7208 46.226,59.9218 C46.024,60.1238 45.782,60.2248 45.496,60.2248 L44.344,60.2248 L44.344,58.1218 L45.496,58.1218 C45.782,58.1218 46.024,58.2228 46.226,58.4248 C46.433,58.6268 46.534,58.8698 46.534,59.1558 L46.534,59.1868 Z M45.496,57.1098 L43.842,57.1098 C43.7,57.1098 43.58,57.1598 43.479,57.2568 C43.383,57.3538 43.332,57.4728 43.332,57.6138 L43.332,64.4818 C43.332,64.6228 43.383,64.7438 43.479,64.8448 C43.58,64.9408 43.7,64.9898 43.842,64.9898 C43.979,64.9898 44.097,64.9408 44.198,64.8448 C44.296,64.7438 44.344,64.6228 44.344,64.4818 L44.344,61.2368 L45.496,61.2368 C45.782,61.2368 46.024,61.3378 46.226,61.5398 C46.433,61.7418 46.534,61.9848 46.534,62.2708 L46.534,64.4818 C46.534,64.6228 46.584,64.7438 46.681,64.8448 C46.779,64.9408 46.897,64.9898 47.039,64.9898 C47.178,64.9898 47.298,64.9408 47.394,64.8448 C47.495,64.7438 47.546,64.6228 47.546,64.4818 L47.546,62.2708 C47.546,61.6528 47.31,61.1398 46.837,60.7288 C47.31,60.3208 47.546,59.8068 47.546,59.1868 L47.546,59.1558 C47.546,58.5928 47.346,58.1108 46.945,57.7108 C46.546,57.3108 46.063,57.1098 45.496,57.1098 L45.496,57.1098 Z" id="Fill-18" fill="#404041"></path>
                <path d="M51.7473,58.2254 C51.8893,58.2254 52.0073,58.1754 52.1053,58.0744 C52.2043,57.9754 52.2573,57.8574 52.2573,57.7154 C52.2573,57.5784 52.2043,57.4614 52.1053,57.3604 C52.0073,57.2614 51.8893,57.2134 51.7473,57.2134 L49.0813,57.2134 C48.9403,57.2134 48.8193,57.2614 48.7193,57.3604 C48.6223,57.4614 48.5723,57.5784 48.5723,57.7154 L48.5723,64.4814 C48.5723,64.6224 48.6223,64.7434 48.7193,64.8444 C48.8193,64.9414 48.9403,64.9904 49.0813,64.9904 L51.7473,64.9904 C51.8893,64.9904 52.0073,64.9414 52.1053,64.8444 C52.2043,64.7434 52.2573,64.6224 52.2573,64.4814 C52.2573,64.3444 52.2043,64.2264 52.1053,64.1254 C52.0073,64.0274 51.8893,63.9794 51.7473,63.9794 L49.5843,63.9794 L49.5843,61.3344 L51.4233,61.3344 C51.5643,61.3344 51.6853,61.2844 51.7853,61.1834 C51.8823,61.0854 51.9323,60.9664 51.9323,60.8264 C51.9323,60.6854 51.8823,60.5664 51.7853,60.4694 C51.6853,60.3714 51.5643,60.3234 51.4233,60.3234 L49.5843,60.3234 L49.5843,58.2254 L51.7473,58.2254 Z" id="Fill-20" fill="#404041"></path>
                <path d="M57.5399,57.4839 C57.5299,57.3469 57.4699,57.2329 57.3669,57.1439 C57.2609,57.0529 57.1409,57.0139 56.9989,57.0239 C56.8619,57.0359 56.7489,57.0929 56.6579,57.1969 L54.2949,60.0209 L54.2949,57.5269 C54.2949,57.3869 54.2469,57.2679 54.1489,57.1699 C54.0479,57.0729 53.9299,57.0239 53.7929,57.0239 C53.6509,57.0239 53.5309,57.0729 53.4299,57.1699 C53.3339,57.2679 53.2829,57.3869 53.2829,57.5269 L53.2829,64.4819 C53.2829,64.6229 53.3339,64.7419 53.4299,64.8389 C53.5309,64.9399 53.6509,64.9899 53.7929,64.9899 C53.9299,64.9899 54.0479,64.9399 54.1489,64.8389 C54.2469,64.7419 54.2949,64.6229 54.2949,64.4819 L54.2949,61.6099 L56.6359,64.7849 C56.7199,64.8969 56.8289,64.9629 56.9679,64.9839 C57.1029,65.0059 57.2279,64.9759 57.3409,64.8929 C57.4489,64.8099 57.5139,64.7009 57.5349,64.5639 C57.5569,64.4269 57.5259,64.3019 57.4439,64.1899 L54.9439,60.7999 L57.4219,57.8459 C57.5109,57.7419 57.5519,57.6209 57.5399,57.4839" id="Fill-22" fill="#404041"></path>
                <g id="Group-26" transform="translate(0.000000, 0.991000)">
                    <mask id="mask-2" fill="white">
                        <use xlink:href="#path-1"></use>
                    </mask>
                    <g id="Clip-25"></g>
                </g>
                <path d="M11.0681,52.3571 C11.3361,52.5671 11.7231,52.5221 11.9321,52.2551 C12.1421,51.9881 12.0971,51.6011 11.8301,51.3911 C5.1591,46.1281 1.3341,38.2441 1.3341,29.7611 C1.3341,14.5801 13.6831,2.2311 28.8621,2.2311 C44.0491,2.2311 56.4041,14.5801 56.4041,29.7611 C56.4041,38.2441 52.5781,46.1281 45.9071,51.3911 C45.6401,51.6011 45.5941,51.9881 45.8041,52.2551 C45.9261,52.4091 46.1061,52.4891 46.2871,52.4891 C46.4211,52.4891 46.5551,52.4461 46.6681,52.3571 C53.6381,46.8591 57.6351,38.6231 57.6351,29.7611 C57.6351,13.9021 44.7281,1.0001 28.8621,1.0001 C13.0041,1.0001 0.1031,13.9021 0.1031,29.7611 C0.1031,38.6241 4.1001,46.8601 11.0681,52.3571" id="Fill-24" fill="#404041"></path>
                <path d="M23.2025,39.1218 C22.7895,39.5438 22.2565,39.8728 21.6615,40.0738 C21.3395,40.1818 21.1665,40.5298 21.2745,40.8528 C21.3615,41.1098 21.6005,41.2718 21.8575,41.2718 C21.9225,41.2718 21.9885,41.2608 22.0535,41.2398 C22.8325,40.9778 23.5345,40.5438 24.0825,39.9818 C24.3205,39.7398 24.3155,39.3498 24.0725,39.1118 C23.8295,38.8758 23.4405,38.8788 23.2025,39.1218" id="Fill-27" fill="#404041"></path>
                <path d="M24.7889,37.1112 C24.4489,37.1112 24.1739,37.3862 24.1739,37.7262 C24.1739,38.0662 24.4489,38.3422 24.7889,38.3422 L24.8069,38.3422 C25.1469,38.3422 25.4129,38.0662 25.4129,37.7262 C25.4129,37.3862 25.1289,37.1112 24.7889,37.1112" id="Fill-29" fill="#404041"></path>
                <path d="M38.5589,42.3919 C35.1319,42.3919 32.3429,39.6039 32.3429,36.1759 C32.3429,35.7309 32.3939,35.2799 32.4939,34.8349 C36.4129,33.7069 40.7349,33.7089 44.6239,34.8349 C44.7239,35.2799 44.7749,35.7289 44.7749,36.1759 C44.7749,39.6039 41.9859,42.3919 38.5589,42.3919 M20.2429,42.3919 C16.8149,42.3919 14.0269,39.6039 14.0269,36.1759 C14.0269,35.7289 14.0769,35.2799 14.1769,34.8359 C18.0959,33.7079 22.4209,33.7099 26.3089,34.8359 C26.4089,35.2799 26.4589,35.7289 26.4589,36.1759 C26.4589,39.6039 23.6699,42.3919 20.2429,42.3919 M46.0049,36.1759 C46.0049,35.7859 45.9639,35.3959 45.8999,35.0059 L46.5849,35.0059 C46.8909,35.0059 47.1339,34.7779 47.1809,34.4839 C47.1839,34.4699 47.1879,34.4559 47.1899,34.4409 C47.1909,34.4229 47.1999,34.4079 47.1999,34.3909 C47.1999,34.3679 47.1889,34.3479 47.1869,34.3259 C47.1849,34.2889 47.1929,34.2539 47.1839,34.2159 L43.0769,16.0039 C43.0759,16.0029 43.0749,16.0019 43.0749,15.9999 C42.9149,14.9349 41.9409,14.1809 40.8619,14.3089 C39.7669,14.4399 38.9809,15.4379 39.1119,16.5339 C39.1479,16.8479 39.4129,17.0779 39.7209,17.0779 C39.7449,17.0779 39.7699,17.0759 39.7939,17.0729 C40.1319,17.0329 40.3739,16.7279 40.3329,16.3899 C40.2839,15.9659 40.5859,15.5809 41.0079,15.5299 C41.4429,15.4779 41.8169,15.7819 41.8659,16.2039 C41.8679,16.2149 41.8739,16.2229 41.8759,16.2329 C41.8779,16.2479 41.8739,16.2619 41.8769,16.2759 L45.8239,33.7749 L45.3449,33.7749 C45.3339,33.7709 45.3269,33.7609 45.3149,33.7569 C41.1169,32.4669 36.4309,32.4389 32.1709,33.6589 C31.4869,32.7839 30.4649,32.2509 29.3379,32.2509 C28.2199,32.2509 27.2129,32.7739 26.5279,33.6329 C22.3279,32.4429 17.6839,32.4739 13.4859,33.7569 C13.4749,33.7609 13.4679,33.7709 13.4569,33.7749 L12.8679,33.7749 L16.8069,16.3139 C16.8129,16.2859 16.8059,16.2589 16.8089,16.2309 C16.8099,16.2209 16.8159,16.2139 16.8179,16.2039 C16.8679,15.7819 17.2439,15.4759 17.6759,15.5299 C18.0989,15.5809 18.4009,15.9659 18.3509,16.3889 C18.3099,16.7269 18.5499,17.0329 18.8879,17.0729 C18.9129,17.0759 18.9369,17.0779 18.9629,17.0779 C19.2689,17.0779 19.5349,16.8479 19.5719,16.5359 C19.7039,15.4399 18.9189,14.4399 17.8219,14.3089 C16.7379,14.1789 15.7279,14.9609 15.5969,16.0569 C15.5949,16.0659 15.5989,16.0739 15.5979,16.0819 L11.4999,34.2549 C11.4949,34.2769 11.5009,34.2989 11.4979,34.3209 C11.4949,34.3449 11.4839,34.3659 11.4839,34.3909 C11.4839,34.4099 11.4929,34.4259 11.4949,34.4449 C11.4989,34.4869 11.5069,34.5249 11.5189,34.5639 C11.5299,34.6029 11.5429,34.6389 11.5619,34.6739 C11.5799,34.7069 11.6009,34.7369 11.6239,34.7669 C11.6499,34.7989 11.6759,34.8279 11.7069,34.8549 C11.7359,34.8789 11.7659,34.8979 11.7979,34.9159 C11.8359,34.9379 11.8739,34.9559 11.9159,34.9689 C11.9329,34.9739 11.9459,34.9859 11.9639,34.9899 C12.0089,35.0009 12.0549,35.0059 12.0989,35.0059 L12.9009,35.0059 C12.8379,35.3949 12.7959,35.7859 12.7959,36.1759 C12.7959,40.2819 16.1369,43.6229 20.2429,43.6229 C24.3489,43.6229 27.6899,40.2819 27.6899,36.1759 C27.6899,35.5879 27.6049,34.9989 27.4619,34.4189 C27.9159,33.8359 28.5899,33.4819 29.3379,33.4819 C30.1399,33.4819 30.8689,33.8789 31.3149,34.5389 C31.1909,35.0819 31.1129,35.6299 31.1129,36.1759 C31.1129,40.2819 34.4539,43.6229 38.5589,43.6229 C42.6639,43.6229 46.0049,40.2819 46.0049,36.1759" id="Fill-31" fill="#404041"></path>
                <path d="M41.5189,39.1218 C41.1059,39.5438 40.5719,39.8728 39.9779,40.0738 C39.6559,40.1818 39.4829,40.5298 39.5909,40.8528 C39.6779,41.1098 39.9169,41.2718 40.1739,41.2718 C40.2389,41.2718 40.3049,41.2608 40.3699,41.2398 C41.1479,40.9778 41.8479,40.5438 42.3989,39.9818 C42.6369,39.7398 42.6319,39.3498 42.3889,39.1118 C42.1479,38.8758 41.7579,38.8788 41.5189,39.1218" id="Fill-33" fill="#404041"></path>
                <path d="M43.1041,37.1112 C42.7641,37.1112 42.4891,37.3862 42.4891,37.7262 C42.4891,38.0662 42.7641,38.3422 43.1041,38.3422 L43.1231,38.3422 C43.4631,38.3422 43.7291,38.0662 43.7291,37.7262 C43.7291,37.3862 43.4441,37.1112 43.1041,37.1112" id="Fill-35" fill="#404041"></path>
            </g>
        </g>
    </g>
</svg>