
<svg width="130px" height="145px" viewBox="0 0 130 145" version="1.1" xmlns="http://www.w3.org/2000/svg" xmlns:xlink="http://www.w3.org/1999/xlink">
    <!-- Generator: Sketch 44 (41411) - http://www.bohemiancoding.com/sketch -->
    <desc>Created with Sketch.</desc>
    <defs>
        <polygon id="path-1" points="2.6526566 24.9622642 10.9539962 24.9622642 10.9539962 1.23295715 2.6526566 1.23295715 2.6526566 24.9622642"></polygon>
        <polygon id="path-3" points="2.62020566 24.9622642 10.9215453 24.9622642 10.9215453 1.23295715 2.62020566 1.23295715"></polygon>
        <polygon id="path-5" points="129.665094 0.000832075472 129.665094 116.047747 0.000832075472 116.047747 0.000832075472 0.000832075472 129.665094 0.000832075472"></polygon>
    </defs>
    <g id="monitor" stroke="none" stroke-width="1" fill="none" fill-rule="evenodd">
        <g id="terembérlés" transform="translate(-618.000000, -188.000000)">
            <g id="Page-1" transform="translate(618.000000, 188.000000)">
                <path d="M65.3794981,57.5452623 C63.0801962,57.5452623 61.2163472,55.6814132 61.2163472,53.3821113 C61.2163472,51.0800358 63.0801962,49.2161868 65.3794981,49.2161868 C67.6788,49.2161868 69.5426491,51.0800358 69.5426491,53.3821113 C69.5426491,55.6814132 67.6788,57.5452623 65.3794981,57.5452623 L65.3794981,57.5452623 Z M83.4632717,63.8551679 L83.3634226,63.8191113 C85.7598,57.9502057 84.650366,50.9191679 80.0462151,46.1430547 C73.9887057,39.8497906 64.1674415,39.8497906 58.1099321,46.1430547 C52.0524226,52.4279981 52.0524226,62.6264698 58.1099321,68.9169604 C62.7113094,73.6875264 69.4816302,74.8413377 75.1258755,72.3617528 L75.1314226,72.3617528 L79.7106113,77.1129038 L86.0593472,77.1129038 L86.0593472,83.7584132 L92.2527623,83.7584132 L92.2527623,90.1348849 L100.687234,90.1348849 L100.687234,81.7503377 L83.4632717,63.8551679 Z" id="Fill-1" fill="#68D1C9"></path>
                <path d="M10.5931528,127.203292 C10.9093415,127.203292 11.1783792,127.311462 11.3974925,127.533349 C11.6166057,127.760783 11.7247755,128.029821 11.7247755,128.334915 C11.7247755,128.653877 11.6166057,128.920142 11.3974925,129.142028 C11.1783792,129.369462 10.9093415,129.483179 10.5931528,129.483179 L7.54498302,129.483179 L7.54498302,143.853123 C7.54498302,144.169311 7.43403962,144.443896 7.2177,144.668557 C6.99026604,144.890443 6.7212283,144.998613 6.41058679,144.998613 C6.0971717,144.998613 5.82536038,144.890443 5.60902075,144.668557 C5.38158679,144.443896 5.26786981,144.169311 5.26786981,143.853123 L5.26786981,129.483179 L2.23079434,129.483179 C1.91460566,129.483179 1.64279434,129.369462 1.41536038,129.142028 C1.19347358,128.920142 1.08530377,128.653877 1.08530377,128.334915 C1.08530377,128.029821 1.19347358,127.760783 1.41536038,127.533349 C1.64279434,127.311462 1.91460566,127.203292 2.23079434,127.203292 L10.5931528,127.203292 Z" id="Fill-3" fill="#404041"></path>
                <path d="M20.7098038,142.717894 C21.0259925,142.717894 21.2950302,142.828838 21.5141434,143.047951 C21.7415774,143.275385 21.8552943,143.544423 21.8552943,143.852291 C21.8552943,144.168479 21.7415774,144.443064 21.5141434,144.667725 C21.2950302,144.889611 21.0259925,144.997781 20.7098038,144.997781 L14.6994453,144.997781 C14.3860302,144.997781 14.1114453,144.889611 13.8840113,144.667725 C13.6648981,144.443064 13.5567283,144.168479 13.5567283,143.852291 L13.5567283,128.605894 C13.5567283,128.298026 13.6648981,128.028989 13.8840113,127.798781 C14.1114453,127.582442 14.3860302,127.471498 14.6994453,127.471498 L20.7098038,127.471498 C21.0259925,127.471498 21.2950302,127.582442 21.5141434,127.798781 C21.7415774,128.028989 21.8552943,128.298026 21.8552943,128.605894 C21.8552943,128.919309 21.7415774,129.191121 21.5141434,129.40746 C21.2950302,129.637668 21.0259925,129.748611 20.7098038,129.748611 L15.8338415,129.748611 L15.8338415,134.477574 L19.9775774,134.477574 C20.2965396,134.477574 20.5655774,134.588517 20.7930113,134.80763 C21.0148981,135.029517 21.1230679,135.295781 21.1230679,135.61197 C21.1230679,135.930932 21.0148981,136.197196 20.7930113,136.419083 C20.5655774,136.646517 20.2965396,136.760234 19.9775774,136.760234 L15.8338415,136.760234 L15.8338415,142.717894 L20.7098038,142.717894 Z" id="Fill-5" fill="#404041"></path>
                <path d="M26.449183,134.261789 L29.0480321,134.261789 C29.6887302,134.261789 30.2351264,134.034355 30.6899943,133.579487 C31.1559566,133.124619 31.3861642,132.572675 31.3861642,131.920883 L31.3861642,131.845996 C31.3861642,131.205298 31.1559566,130.656128 30.6899943,130.20126 C30.2351264,129.746392 29.6887302,129.518958 29.0480321,129.518958 L26.449183,129.518958 L26.449183,134.261789 Z M33.6660509,131.920883 C33.6660509,133.31877 33.1335226,134.475355 32.068466,135.393411 C33.1335226,136.319789 33.6660509,137.479147 33.6660509,138.86594 L33.6660509,143.852845 C33.6660509,144.169034 33.552334,144.443619 33.3249,144.668279 C33.1057868,144.890166 32.8367491,144.998336 32.5205604,144.998336 C32.2015981,144.998336 31.9381075,144.890166 31.7134472,144.668279 C31.4971075,144.443619 31.3861642,144.169034 31.3861642,143.852845 L31.3861642,138.86594 C31.3861642,138.228015 31.1559566,137.676072 30.6899943,137.221204 C30.2351264,136.766336 29.6887302,136.538902 29.0480321,136.538902 L26.449183,136.538902 L26.449183,143.852845 C26.449183,144.169034 26.3410132,144.443619 26.1219,144.668279 C25.894466,144.890166 25.6254283,144.998336 25.3175604,144.998336 C25.0013717,144.998336 24.7267868,144.890166 24.4993528,144.668279 C24.2830132,144.443619 24.1720698,144.169034 24.1720698,143.852845 L24.1720698,128.373468 C24.1720698,128.057279 24.2830132,127.788242 24.4993528,127.569128 C24.7267868,127.350015 25.0013717,127.241845 25.3175604,127.241845 L29.0480321,127.241845 C30.3211075,127.241845 31.4111264,127.691166 32.3125415,128.592581 C33.2139566,129.493996 33.6660509,130.578468 33.6660509,131.845996 L33.6660509,131.920883 Z" id="Fill-7" fill="#404041"></path>
                <path d="M43.136734,142.717894 C43.4529226,142.717894 43.7219604,142.828838 43.9410736,143.047951 C44.1685075,143.275385 44.2822245,143.544423 44.2822245,143.852291 C44.2822245,144.168479 44.1685075,144.443064 43.9410736,144.667725 C43.7219604,144.889611 43.4529226,144.997781 43.136734,144.997781 L37.1263755,144.997781 C36.8129604,144.997781 36.5383755,144.889611 36.3109415,144.667725 C36.0918283,144.443064 35.9836585,144.168479 35.9836585,143.852291 L35.9836585,128.605894 C35.9836585,128.298026 36.0918283,128.028989 36.3109415,127.798781 C36.5383755,127.582442 36.8129604,127.471498 37.1263755,127.471498 L43.136734,127.471498 C43.4529226,127.471498 43.7219604,127.582442 43.9410736,127.798781 C44.1685075,128.028989 44.2822245,128.298026 44.2822245,128.605894 C44.2822245,128.919309 44.1685075,129.191121 43.9410736,129.40746 C43.7219604,129.637668 43.4529226,129.748611 43.136734,129.748611 L38.2607717,129.748611 L38.2607717,134.477574 L42.4045075,134.477574 C42.7234698,134.477574 42.9925075,134.588517 43.2199415,134.80763 C43.4418283,135.029517 43.5499981,135.295781 43.5499981,135.61197 C43.5499981,135.930932 43.4418283,136.197196 43.2199415,136.419083 C42.9925075,136.646517 42.7234698,136.760234 42.4045075,136.760234 L38.2607717,136.760234 L38.2607717,142.717894 L43.136734,142.717894 Z" id="Fill-9" fill="#404041"></path>
                <path d="M58.6896113,127.094845 C59.0058,127.094845 59.2776113,127.208562 59.5050453,127.435996 C59.7269321,127.652336 59.8351019,127.924147 59.8351019,128.237562 L59.8351019,143.852845 C59.8351019,144.169034 59.7269321,144.443619 59.5050453,144.668279 C59.2776113,144.890166 59.0058,144.998336 58.6896113,144.998336 C58.3817434,144.998336 58.1127057,144.890166 57.8852717,144.668279 C57.6661585,144.443619 57.5552151,144.169034 57.5552151,143.852845 L57.5552151,132.95543 L54.2185925,139.478902 C54.1742151,139.548242 54.1298377,139.612034 54.0826868,139.659185 C53.9856113,139.797864 53.8663472,139.90326 53.7304415,139.978147 C53.4419887,140.114053 53.1507623,140.133468 52.8539887,140.036392 C52.5599887,139.950411 52.3381019,139.761808 52.1911019,139.478902 L48.8766679,132.980392 L48.8766679,143.852845 C48.8766679,144.169034 48.7684981,144.443619 48.5493849,144.668279 C48.3219509,144.890166 48.0529132,144.998336 47.7450453,144.998336 C47.426083,144.998336 47.1542717,144.890166 46.9268377,144.668279 C46.7104981,144.443619 46.5995547,144.169034 46.5995547,143.852845 L46.5995547,128.237562 C46.5995547,127.924147 46.7104981,127.652336 46.9268377,127.435996 C47.1542717,127.208562 47.426083,127.094845 47.7450453,127.094845 C48.1832717,127.094845 48.5133283,127.288996 48.7296679,127.680072 C48.7296679,127.688392 48.7352151,127.696713 48.7435358,127.70226 L48.7574038,127.716128 L53.2034604,136.441826 L57.6800264,127.716128 C57.6800264,127.724449 57.6966679,127.696713 57.7271774,127.630147 C57.749366,127.599638 57.7604604,127.58577 57.749366,127.594091 C57.7826491,127.552487 57.8131585,127.519204 57.8353472,127.497015 C58.0627811,127.227977 58.1764981,127.094845 58.1764981,127.094845 L58.6896113,127.094845 Z" id="Fill-11" fill="#404041"></path>
                <path d="M70.1711434,139.684425 C70.1711434,138.896726 69.8993321,138.222745 69.3529358,137.662481 C68.8009925,137.099443 68.1464264,136.819311 67.380917,136.819311 L64.7987094,136.819311 L64.7987094,142.646613 L67.380917,142.646613 C68.1464264,142.646613 68.8009925,142.366481 69.3529358,141.806217 C69.8993321,141.243179 70.1711434,140.569198 70.1711434,139.7815 L70.1711434,139.684425 Z M69.732917,131.993274 C69.732917,131.327613 69.4999358,130.759028 69.0395208,130.284745 C68.5846528,129.816009 68.0327094,129.580255 67.3920113,129.580255 L64.7987094,129.580255 L64.7987094,134.467311 L67.3920113,134.467311 C68.0327094,134.467311 68.5874264,134.231557 69.0506151,133.760047 C69.505483,133.288538 69.732917,132.722726 69.732917,132.06816 L69.732917,131.993274 Z M70.4873321,135.579519 C71.7964642,136.622387 72.4510302,137.995311 72.4510302,139.684425 L72.4510302,139.7815 C72.4510302,141.21267 71.9601057,142.435821 70.975483,143.448179 C69.993634,144.474406 68.8009925,144.990292 67.4031057,144.998613 L63.6615396,144.998613 C63.3453509,144.998613 63.0735396,144.884896 62.8461057,144.657462 C62.6242189,144.430028 62.5160491,144.15267 62.5160491,143.82816 L62.5160491,128.412575 C62.5160491,128.085292 62.6242189,127.810708 62.8461057,127.583274 C63.0735396,127.35584 63.3453509,127.242123 63.6615396,127.242123 L67.3920113,127.242123 C68.6678604,127.242123 69.7578792,127.702538 70.6592943,128.628915 C71.5607094,129.555292 72.0128038,130.675821 72.0128038,131.993274 L72.0128038,132.06816 C72.0128038,133.466047 71.5024642,134.6365 70.4873321,135.579519 L70.4873321,135.579519 Z" id="Fill-13" fill="#404041"></path>
                <g id="Group-17" transform="translate(72.113208, 120.036349)">
                    <mask id="mask-2" fill="white">
                        <use xlink:href="#path-1"></use>
                    </mask>
                    <g id="Clip-16"></g>
                    <path d="M8.04173208,1.36515849 C7.76437358,1.21815849 7.47592075,1.19319623 7.17637358,1.29304528 C6.87405283,1.3818 6.64939245,1.5648566 6.50239245,1.84221509 L5.2626,4.21640377 C5.1156,4.49376226 5.09063774,4.78221509 5.18771321,5.08176226 C5.27924151,5.38408302 5.45952453,5.60596981 5.73688302,5.75296981 C6.01978868,5.89996981 6.31378868,5.92493208 6.61333585,5.82508302 C6.9156566,5.7363283 7.1375434,5.55604528 7.2845434,5.27591321 L8.52988302,2.90172453 C8.67688302,2.62436604 8.69629811,2.33868679 8.59922264,2.03636604 C8.50214717,1.73681887 8.31909057,1.51215849 8.04173208,1.36515849 L8.04173208,1.36515849 Z M9.80850566,22.6829321 C10.1246943,22.6829321 10.3937321,22.7938755 10.6128453,23.0129887 C10.8402792,23.2404226 10.9539962,23.5066868 10.9539962,23.8173283 C10.9539962,24.133517 10.8402792,24.4081019 10.6128453,24.6327623 C10.3937321,24.8546491 10.1246943,24.9628189 9.80850566,24.9628189 L3.80092075,24.9628189 C3.47918491,24.9628189 3.21014717,24.8546491 2.98271321,24.6327623 C2.7636,24.4081019 2.6526566,24.133517 2.6526566,23.8173283 L2.6526566,8.57093208 C2.6526566,8.26029057 2.7636,7.99402642 2.98271321,7.76381887 C3.21014717,7.54747925 3.47918491,7.43376226 3.80092075,7.43376226 L9.80850566,7.43376226 C10.1246943,7.43376226 10.3937321,7.54747925 10.6128453,7.76381887 C10.8402792,7.99402642 10.9539962,8.26029057 10.9539962,8.57093208 C10.9539962,8.88434717 10.8402792,9.15615849 10.6128453,9.37249811 C10.3937321,9.60270566 10.1246943,9.71364906 9.80850566,9.71364906 L4.9325434,9.71364906 L4.9325434,14.4426113 L9.07627925,14.4426113 C9.39246792,14.4426113 9.66705283,14.5535547 9.89448679,14.7726679 C10.1108264,14.9917811 10.2217698,15.2608189 10.2217698,15.5770075 C10.2217698,15.8931962 10.1108264,16.162234 9.89448679,16.3813472 C9.66705283,16.6087811 9.39246792,16.7224981 9.07627925,16.7224981 L4.9325434,16.7224981 L4.9325434,22.6829321 L9.80850566,22.6829321 Z" id="Fill-15" fill="#404041" mask="url(#mask-2)"></path>
                </g>
                <path d="M87.663034,134.261789 L90.2591094,134.261789 C90.8998075,134.261789 91.4489774,134.034355 91.9038453,133.579487 C92.3642604,133.124619 92.5972415,132.572675 92.5972415,131.920883 L92.5972415,131.845996 C92.5972415,131.205298 92.3642604,130.656128 91.9038453,130.20126 C91.4489774,129.746392 90.8998075,129.518958 90.2591094,129.518958 L87.663034,129.518958 L87.663034,134.261789 Z M94.8799019,131.920883 C94.8799019,133.31877 94.3446,134.475355 93.2795434,135.393411 C94.3446,136.319789 94.8799019,137.479147 94.8799019,138.86594 L94.8799019,143.852845 C94.8799019,144.169034 94.7661849,144.443619 94.5387509,144.668279 C94.3140906,144.890166 94.0506,144.998336 93.7316377,144.998336 C93.4154491,144.998336 93.1464113,144.890166 92.9272981,144.668279 C92.7054113,144.443619 92.5972415,144.169034 92.5972415,143.852845 L92.5972415,138.86594 C92.5972415,138.228015 92.3642604,137.676072 91.9038453,137.221204 C91.4489774,136.766336 90.8998075,136.538902 90.2591094,136.538902 L87.663034,136.538902 L87.663034,143.852845 C87.663034,144.169034 87.5520906,144.443619 87.3329774,144.668279 C87.1055434,144.890166 86.8365057,144.998336 86.5286377,144.998336 C86.2124491,144.998336 85.9406377,144.890166 85.7132038,144.668279 C85.491317,144.443619 85.3831472,144.169034 85.3831472,143.852845 L85.3831472,128.373468 C85.3831472,128.057279 85.491317,127.788242 85.7132038,127.569128 C85.9406377,127.350015 86.2124491,127.241845 86.5286377,127.241845 L90.2591094,127.241845 C91.5349585,127.241845 92.6222038,127.691166 93.5236189,128.592581 C94.425034,129.493996 94.8799019,130.578468 94.8799019,131.845996 L94.8799019,131.920883 Z" id="Fill-18" fill="#404041"></path>
                <path d="M104.922221,142.717894 C105.235636,142.717894 105.507447,142.828838 105.723787,143.047951 C105.951221,143.275385 106.064938,143.544423 106.064938,143.852291 C106.064938,144.168479 105.951221,144.443064 105.723787,144.667725 C105.507447,144.889611 105.235636,144.997781 104.922221,144.997781 L98.3405038,144.997781 C98.0215415,144.997781 97.7497302,144.889611 97.5222962,144.667725 C97.303183,144.443064 97.1922396,144.168479 97.1922396,143.852291 L97.1922396,128.397875 C97.1922396,128.081687 97.303183,127.812649 97.5222962,127.593536 C97.7497302,127.366102 98.0215415,127.252385 98.3405038,127.252385 C98.6483717,127.252385 98.9146358,127.366102 99.1420698,127.593536 C99.3639566,127.812649 99.4721264,128.081687 99.4721264,128.397875 L99.4721264,142.717894 L104.922221,142.717894 Z" id="Fill-20" fill="#404041"></path>
                <g id="Group-24" transform="translate(105.396226, 120.036349)">
                    <mask id="mask-4" fill="white">
                        <use xlink:href="#path-3"></use>
                    </mask>
                    <g id="Clip-23"></g>
                    <path d="M8.00928113,1.36515849 C7.73192264,1.21815849 7.44346981,1.19319623 7.14392264,1.29304528 C6.84160189,1.3818 6.61694151,1.5648566 6.46994151,1.84221509 L5.23014906,4.21640377 C5.08314906,4.49376226 5.05818679,4.78221509 5.15526226,5.08176226 C5.24679057,5.38408302 5.42707358,5.60596981 5.70443208,5.75296981 C5.98733774,5.89996981 6.28133774,5.92493208 6.58088491,5.82508302 C6.88320566,5.7363283 7.10509245,5.55604528 7.25209245,5.27591321 L8.49743208,2.90172453 C8.64443208,2.62436604 8.66384717,2.33868679 8.5667717,2.03636604 C8.46969623,1.73681887 8.28663962,1.51215849 8.00928113,1.36515849 L8.00928113,1.36515849 Z M9.77605472,22.6829321 C10.0922434,22.6829321 10.3612811,22.7938755 10.5803943,23.0129887 C10.8078283,23.2404226 10.9215453,23.5066868 10.9215453,23.8173283 C10.9215453,24.133517 10.8078283,24.4081019 10.5803943,24.6327623 C10.3612811,24.8546491 10.0922434,24.9628189 9.77605472,24.9628189 L3.76846981,24.9628189 C3.44673396,24.9628189 3.17769623,24.8546491 2.95026226,24.6327623 C2.73114906,24.4081019 2.62020566,24.133517 2.62020566,23.8173283 L2.62020566,8.57093208 C2.62020566,8.26029057 2.73114906,7.99402642 2.95026226,7.76381887 C3.17769623,7.54747925 3.44673396,7.43376226 3.76846981,7.43376226 L9.77605472,7.43376226 C10.0922434,7.43376226 10.3612811,7.54747925 10.5803943,7.76381887 C10.8078283,7.99402642 10.9215453,8.26029057 10.9215453,8.57093208 C10.9215453,8.88434717 10.8078283,9.15615849 10.5803943,9.37249811 C10.3612811,9.60270566 10.0922434,9.71364906 9.77605472,9.71364906 L4.90009245,9.71364906 L4.90009245,14.4426113 L9.0438283,14.4426113 C9.36001698,14.4426113 9.63460189,14.5535547 9.86203585,14.7726679 C10.0783755,14.9917811 10.1893189,15.2608189 10.1893189,15.5770075 C10.1893189,15.8931962 10.0783755,16.162234 9.86203585,16.3813472 C9.63460189,16.6087811 9.36001698,16.7224981 9.0438283,16.7224981 L4.90009245,16.7224981 L4.90009245,22.6829321 L9.77605472,22.6829321 Z" id="Fill-22" fill="#404041" mask="url(#mask-4)"></path>
                </g>
                <path d="M123.020972,134.491996 C124.646292,134.500317 125.972066,135.141015 127.006613,136.416864 C128.052255,137.709355 128.407274,139.187675 128.066123,140.8546 C127.822047,142.063883 127.214632,143.0596 126.23833,143.838977 C125.273123,144.612808 124.166462,144.998336 122.923896,144.998336 L122.912802,144.998336 C121.758991,144.998336 120.718896,144.646091 119.792519,143.936053 C118.88833,143.248204 118.275368,142.357883 117.950858,141.267864 C117.837142,140.887883 117.892613,140.538411 118.120047,140.219449 C118.347481,139.90326 118.658123,139.745166 119.046425,139.745166 C119.62333,139.745166 119.989443,140.016977 120.144764,140.5606 C120.322274,141.170789 120.663425,141.672808 121.168217,142.061109 C121.68133,142.460506 122.263783,142.65743 122.912802,142.65743 L122.962726,142.65743 C123.617292,142.65743 124.208066,142.463279 124.726726,142.072204 C125.256481,141.675581 125.605953,141.162468 125.775142,140.538411 C126.019217,139.587072 125.852802,138.732808 125.273123,137.978392 C124.715632,137.237845 123.975085,136.857864 123.059802,136.832902 C121.742349,136.80794 120.624594,136.341977 119.706538,135.432242 C118.78016,134.522506 118.316972,133.410298 118.316972,132.10394 L118.316972,131.762789 C118.316972,130.453657 118.774613,129.338675 119.695443,128.412298 C120.605179,127.494242 121.703519,127.033826 122.996009,127.033826 L123.070896,127.033826 C124.086028,127.033826 124.998538,127.333374 125.811198,127.935242 C126.618311,128.528789 127.175802,129.297072 127.494764,130.237317 C127.614028,130.614525 127.56133,130.963996 127.322802,131.288506 C127.095368,131.601921 126.784726,131.762789 126.396425,131.762789 L126.38533,131.762789 C125.841708,131.762789 125.483915,131.504845 125.311953,130.994506 C125.151085,130.514675 124.865406,130.126374 124.460462,129.824053 C124.044425,129.516185 123.581236,129.358091 123.070896,129.358091 L122.996009,129.358091 C122.33867,129.358091 121.781179,129.596619 121.326311,130.068128 C120.865896,130.528543 120.632915,131.094355 120.632915,131.762789 L120.632915,132.137223 C120.632915,132.800109 120.86867,133.354826 121.340179,133.809694 C121.803368,134.264562 122.363632,134.491996 123.020972,134.491996" id="Fill-25" fill="#404041"></path>
                <g id="Group-29" transform="translate(0.000000, 0.772198)">
                    <mask id="mask-6" fill="white">
                        <use xlink:href="#path-5"></use>
                    </mask>
                    <g id="Clip-28"></g>
                    <path d="M104.096247,116.047625 C103.68853,116.047625 103.280813,115.867342 103.006228,115.520643 C102.534719,114.918775 102.637342,114.045096 103.236436,113.570813 C118.269266,101.710964 126.892342,83.9433792 126.892342,64.8222849 C126.892342,30.6101151 99.0483226,2.77441698 64.8222849,2.77441698 C30.6073415,2.77441698 2.77441698,30.6101151 2.77441698,64.8222849 C2.77441698,83.9406057 11.3974925,101.710964 26.4330962,113.570813 C27.0349642,114.045096 27.1375868,114.918775 26.6633038,115.520643 C26.1890208,116.122511 25.3181151,116.22236 24.7162472,115.750851 C9.00943585,103.358474 0.000832075472,84.7948698 0.000832075472,64.8222849 C0.000832075472,29.0818698 29.0790962,0.000832075472 64.8222849,0.000832075472 C100.576568,0.000832075472 129.665926,29.0818698 129.665926,64.8222849 C129.665926,84.7976434 120.660096,103.358474 104.956058,115.750851 C104.700889,115.950549 104.395794,116.047625 104.096247,116.047625" id="Fill-27" fill="#404041" mask="url(#mask-6)"></path>
                </g>
                <path d="M69.0578264,75.031883 C64.6644679,75.031883 60.3598642,73.2484679 57.1092226,69.8785623 C50.5524679,63.0694113 50.5524679,51.986166 57.1092226,45.1742415 C60.3043925,41.8625811 64.5535245,40.0347887 69.0744679,40.0347887 C73.6009585,40.0347887 77.8500906,41.8598075 81.0452604,45.1742415 C85.9212226,50.2388075 87.3357509,57.7607698 84.6481472,64.3424868 C84.3569208,65.0525245 83.5525811,65.3909019 82.8397698,65.1024491 C82.1325057,64.8112226 81.7913547,64.0013358 82.0798075,63.2940717 C84.3541472,57.7274868 83.1642792,51.3704302 79.0482792,47.0991094 C76.3828642,44.3310717 72.8382226,42.8083736 69.0772415,42.8083736 C65.3107132,42.8083736 61.7743925,44.3338453 59.1089774,47.0991094 C53.5729019,52.8487509 53.5729019,62.2040528 59.1089774,67.9536943 C63.1916943,72.1861849 69.2547509,73.4204302 74.566166,71.0906189 C75.2706566,70.7910717 76.0888642,71.1017132 76.3967321,71.8034302 C76.7018264,72.5051472 76.3856377,73.3233547 75.6839208,73.6312226 C73.5343925,74.5714679 71.2850151,75.031883 69.0578264,75.031883" id="Fill-30" fill="#404041"></path>
                <path d="M100.691394,91.5216774 L92.2541491,91.5216774 C91.4886396,91.5216774 90.8673566,90.9003943 90.8673566,90.1348849 L90.8673566,85.1452057 L86.0635075,85.1452057 C85.2952245,85.1452057 84.6767151,84.5266962 84.6767151,83.7584132 L84.6767151,78.4996962 L79.7092245,78.4996962 C79.332017,78.4996962 78.9714509,78.3471491 78.7079604,78.0725642 L74.1204509,73.3075453 C73.5906962,72.7556019 73.6045642,71.8763755 74.1592811,71.3466208 C74.7084509,70.816866 75.5849038,70.830734 76.1202057,71.3826774 L80.2972245,75.7261113 L86.0635075,75.7261113 C86.829017,75.7261113 87.4503,76.3446208 87.4503,77.1129038 L87.4503,82.3716208 L92.2541491,82.3716208 C93.0196585,82.3716208 93.6409415,82.9929038 93.6409415,83.7584132 L93.6409415,88.7480925 L99.3046019,88.7480925 L99.3046019,82.3078283 L82.4633943,64.8203755 C81.930866,64.2684321 81.9475075,63.3919792 82.4994509,62.8594509 C83.0541679,62.3324698 83.9278472,62.3435642 84.4603755,62.8982811 L101.689885,80.7879038 C101.939508,81.0458472 102.078187,81.3897717 102.078187,81.7503377 L102.078187,90.1348849 C102.078187,90.9003943 101.456904,91.5216774 100.691394,91.5216774" id="Fill-32" fill="#404041"></path>
                <path d="M53.7870226,78.0709 C53.6095132,78.0709 53.423683,78.0348434 53.2517208,77.9627302 C46.8475132,75.2695792 42.7093245,68.9069755 42.7093245,61.7511264 C42.7093245,55.3885226 46.0514943,49.5223906 51.4267019,46.4409377 C52.0923623,46.058183 52.9383057,46.2883906 53.3210604,46.9540509 C53.7038151,47.6197113 53.4736075,48.4656547 52.8079472,48.8456358 C48.2897774,51.4333906 45.4829094,56.381466 45.4829094,61.7511264 C45.4829094,67.7864472 48.9526642,73.1477868 54.3223245,75.4054849 C55.0295887,75.7022585 55.3624189,76.5149189 55.0656453,77.222183 C54.8437585,77.7519377 54.3278717,78.0709 53.7870226,78.0709" id="Fill-34" fill="#404041"></path>
                <path d="M59.7513396,109.403811 C59.3741321,109.403811 59.013566,109.251264 58.7528491,108.979453 L52.7868679,102.786038 C52.2709811,102.250736 52.2709811,101.402019 52.7868679,100.863943 L56.2039245,97.3137547 L52.7508113,93.730283 C52.2321509,93.1922075 52.2321509,92.3434906 52.7508113,91.8054151 L56.3509245,88.0666226 L52.7868679,84.369434 C52.5372453,84.1114906 52.4013396,83.7647925 52.4013396,83.407 L52.4013396,76.6616415 C52.4013396,75.8961321 53.0198491,75.2748491 53.7881321,75.2748491 C54.5536415,75.2748491 55.1749245,75.8961321 55.1749245,76.6616415 L55.1749245,82.8467358 L59.2770566,87.1014151 C59.795717,87.6394906 59.795717,88.4909811 59.2770566,89.026283 L55.6741698,92.7678491 L59.127283,96.3485472 C59.6459434,96.8866226 59.6459434,97.7353396 59.127283,98.2734151 L55.713,101.826377 L59.7513396,106.017264 L64.0753585,101.52683 L64.0809057,82.7136038 C64.0809057,81.9480943 64.6994151,81.3268113 65.4676981,81.3268113 C66.2332075,81.3268113 66.8544906,81.9480943 66.8544906,82.7136038 L66.8489434,102.084321 C66.8489434,102.444887 66.7102642,102.788811 66.4606415,103.046755 L60.7498302,108.979453 C60.4891132,109.251264 60.1285472,109.403811 59.7513396,109.403811" id="Fill-36" fill="#404041"></path>
                <path d="M65.4690849,79.5120547 C65.1085189,79.5120547 64.7479528,79.3456396 64.4733679,79.096017 C64.2237453,78.8463943 64.0822925,78.4858283 64.0822925,78.1252623 C64.0822925,77.7369604 64.2237453,77.3763943 64.4733679,77.1267717 C64.9975755,76.5997906 65.9128585,76.6275264 66.4426132,77.1267717 C66.7171981,77.4041302 66.8558774,77.7646962 66.8558774,78.1252623 C66.8558774,78.4858283 66.7171981,78.8186585 66.4426132,79.096017 C66.1929906,79.3456396 65.8324245,79.5120547 65.4690849,79.5120547" id="Fill-38" fill="#404041"></path>
                <path d="M65.4174962,58.9306679 C63.9641377,58.9306679 62.5939868,58.3454415 61.570534,57.2831585 C59.4875717,55.1197623 59.4875717,51.600083 61.5677604,49.4394604 C62.1058358,48.887517 62.9822887,48.8736491 63.5286849,49.4006302 C64.0834019,49.9303849 64.0972698,50.8096113 63.5675151,51.3615547 C62.5080057,52.4626679 62.5080057,54.2571774 63.5675151,55.3582906 C64.5576849,56.3872906 66.2773075,56.384517 67.2730245,55.3582906 C67.8027792,54.8091208 68.6820057,54.7924792 69.2339491,55.322234 C69.7831189,55.8547623 69.7997604,56.7339887 69.2672321,57.2831585 C68.2437792,58.3454415 66.8736283,58.9306679 65.4174962,58.9306679" id="Fill-40" fill="#404041"></path>
                <path d="M65.6504774,54.6851415 C65.3204208,54.6851415 64.9903642,54.5686509 64.7268736,54.3328962 C64.1555151,53.819783 64.1055906,52.9433302 64.6187038,52.3747453 C67.009534,49.7010094 68.2631943,46.2173868 68.1467038,42.5618019 C68.0329868,38.8812547 66.5463453,35.4669717 63.9641377,32.9485566 C61.3930245,30.4412358 58.0564019,29.1043679 54.5339491,29.2319528 C51.0225906,29.3428962 47.7636283,30.8683679 45.3561566,33.5310094 C42.934817,36.2075189 41.6672887,39.707783 41.7837792,43.3855566 C41.858666,45.8845566 42.5853453,48.3086698 43.8806094,50.3999528 C44.2855528,51.0517453 44.0858547,51.9060094 43.4340623,52.3109528 C42.7905906,52.7103491 41.9307792,52.5161981 41.5258358,51.8616321 C39.9698547,49.3570849 39.1017226,46.4559151 39.0101943,43.4743113 C38.8715151,39.0754057 40.3942132,34.8817453 43.295383,31.669934 C46.2159679,28.4442547 50.1766472,26.5942736 54.4479679,26.4611415 C58.7276094,26.3474245 62.7853642,27.9255943 65.9001,30.9598962 C69.0009679,33.9858774 70.784383,38.0741415 70.9202887,42.4758208 C71.0561943,46.8469906 69.5529113,51.0184623 66.6822509,54.2219528 C66.407666,54.5298208 66.0304585,54.6851415 65.6504774,54.6851415" id="Fill-42" fill="#404041"></path>
            </g>
        </g>
    </g>
</svg>