<?xml version="1.0" encoding="utf-8"?>
<!-- Generator: Adobe Illustrator 19.0.0, SVG Export Plug-In . SVG Version: 6.00 Build 0)  -->
<svg version="1.1" id="Layer_1" xmlns="http://www.w3.org/2000/svg" xmlns:xlink="http://www.w3.org/1999/xlink" x="0px" y="0px"
	 viewBox="377 252.2 1366 190.1" style="enable-background:new 377 252.2 1366 190.1;" xml:space="preserve">
<style type="text/css">
	.st0{fill:#059B90;}
	.st1{fill:#FFFFFF;}
</style>
<desc>Created with Sketch.</desc>
<g id="monitor">
	<g id="Home" transform="translate(0.000000, -1238.000000)">
		<g id="Page-1-Copy-6" transform="translate(0.000000, 1231.000000)">
			<path id="Fill-1" class="st0" d="M1130.6,313.3c-0.1,0-0.2,0-0.3,0c-30.7-3.9-61.7-8.8-91.9-14.6
				c-209.3-40.5-377.2-38.8-481.2-30.3c-112.7,9.2-176.7,28.3-177.4,28.5c-1.1,0.3-2.3-0.3-2.7-1.4s0.3-2.3,1.4-2.7
				c0.6-0.2,65-19.4,178.1-28.6c104.3-8.6,272.7-10.3,482.5,30.3c30.2,5.8,61,10.8,91.7,14.6c1.2,0.1,2,1.2,1.8,2.4
				C1132.6,312.5,1131.7,313.3,1130.6,313.3"/>
			<path id="Fill-4" class="st0" d="M1186,319.1c-0.1,0-0.1,0-0.2,0c-9.7-0.8-19.5-1.8-29.1-2.8c-1.2-0.1-2-1.2-1.9-2.3
				c0.1-1.2,1.2-2,2.3-1.9c9.6,1,19.4,2,29.1,2.8c1.2,0.1,2,1.1,1.9,2.3C1188,318.3,1187.1,319.1,1186,319.1"/>
			<path id="Fill-6" class="st0" d="M1309.2,324.4c-15.2,0-30.3-0.2-45.4-0.7c-1.2,0-2.1-1-2.1-2.2s1-2.1,2.2-2.1
				c73.3,2.3,147.3-1,220.1-9.8c1.2-0.1,2.2,0.7,2.4,1.9c0.1,1.2-0.7,2.2-1.9,2.4C1426.5,320.9,1367.7,324.4,1309.2,324.4"/>
			<path id="Fill-8" class="st0" d="M1535.3,306.7c-1,0-1.9-0.7-2.1-1.8c-0.2-1.2,0.6-2.3,1.8-2.4c3.2-0.5,6.4-1,9.5-1.5
				c1.2-0.2,2.3,0.6,2.4,1.8c0.2,1.2-0.6,2.3-1.8,2.4c-3.1,0.5-6.3,1-9.5,1.5C1535.5,306.7,1535.4,306.7,1535.3,306.7"/>
		</g>
		<path id="Fill-1_1_" class="st1" d="M1743.1,1510.4c0,0-306.1,119.8-704.3,42.7c-407-78.7-661.7-1.7-661.7-1.7v129h1366V1510.4z"
			/>
	</g>
</g>
</svg>
