
<svg width="1366px" height="139px" viewBox="0 0 1366 139" version="1.1" xmlns="http://www.w3.org/2000/svg" xmlns:xlink="http://www.w3.org/1999/xlink">
    <!-- Generator: Sketch 43.2 (39069) - http://www.bohemiancoding.com/sketch -->
    <desc>Created with Sketch.</desc>
    <defs>
        <polygon id="path-1" points="1366 59.5429422 1366 118.789585 0 118.789585 0 59.5429422 0 0.29629931 1366 0.29629931 1366 59.5429422"></polygon>
        <polygon id="path-3" points="1387.98391 48.829682 1387.98391 73.7061132 0 73.7061132 0 0.168149533 1387.98391 0.168149533 1387.98391 48.829682 1387.9846 0.168286443 1214.98374 0.168286443 1214.98374 48.829682 1387.98391 48.829682"></polygon>
    </defs>
    <g id="monitor" stroke="none" stroke-width="1" fill="none" fill-rule="evenodd">
        <g id="szakemberek" transform="translate(0.000000, -429.000000)">
            <g id="HEADER_BG" transform="translate(-31.000000, 22.000000)">
                <g id="Group-2" transform="translate(710.000000, 476.000000) scale(-1, -1) translate(-710.000000, -476.000000) translate(16.000000, 406.000000)">
                    <g id="Page-1-Copy-5" transform="translate(690.000000, 80.500000) scale(-1, -1) translate(-690.000000, -80.500000) translate(7.000000, 21.000000)">
                        <mask id="mask-2" fill="white">
                            <use xlink:href="#path-1"></use>
                        </mask>
                        <g id="Clip-2"></g>
                        <path d="M1373,1.25210084 C1373,1.25210084 1058.41625,124.022284 649.0625,45.0434733 C230.755325,-35.6610838 -31,43.2593749 -31,43.2593749 L-31,123.041978 L1373,123.041978 L1373,1.25210084 Z" id="Fill-1" fill="#68D1C9" mask="url(#mask-2)" transform="translate(671.000000, 62.147039) scale(-1, -1) translate(-671.000000, -62.147039) "></path>
                    </g>
                    <g id="Page-1-Copy-6">
                        <path d="M765.654297,55.5925562 C765.564936,55.5925562 765.472692,55.5868086 765.381889,55.5753134 C734.167385,51.6654928 702.736684,46.6736821 671.963222,40.7392613 C459.330717,-0.262844989 288.71103,1.42839311 183.021028,10.0670706 C68.5029872,19.4285117 3.43205325,38.7347777 2.78778657,38.9273231 C1.64338448,39.2750543 0.43700594,38.6270098 0.0925322604,37.4875435 C-0.251941419,36.3480772 0.393766566,35.146824 1.53672735,34.8019666 C2.18387665,34.6079843 67.5776646,15.1925135 182.497832,5.78509141 C288.489068,-2.89381946 459.587271,-4.60517424 672.783328,36.5075738 C703.464547,42.4233148 734.801563,47.4007564 765.922381,51.2990818 C767.105699,51.4470831 767.945984,52.5247624 767.796088,53.705899 C767.659163,54.7950735 766.728075,55.5925562 765.654297,55.5925562" id="Fill-1" fill="#059B90"></path>
                        <path d="M821.927316,61.5268334 C821.865339,61.5268334 821.801922,61.5239596 821.738504,61.518212 C811.878485,60.6718745 801.916134,59.7148952 792.129622,58.6745754 C790.943422,58.5481277 790.082958,57.4862544 790.209794,56.302244 C790.336629,55.1182336 791.417614,54.2532164 792.589401,54.3882855 C802.347086,55.4257315 812.27917,56.3798369 822.110363,57.2247375 C823.299445,57.3253209 824.180087,58.3713883 824.077754,59.5568356 C823.981186,60.679059 823.037126,61.5268334 821.927316,61.5268334" id="Fill-4" fill="#059B90"></path>
                        <path d="M947.054137,66.8702549 C931.646507,66.8702549 916.261938,66.6302916 900.901871,66.1474913 C899.708464,66.1115686 898.771611,65.1157929 898.809085,63.926035 C898.848,62.736277 899.869891,61.7951037 901.037354,61.8396478 C975.472495,64.1746197 1050.69748,60.8251923 1124.6368,51.8818908 C1125.81724,51.7496954 1126.89967,52.5816639 1127.0438,53.7628004 C1127.18793,54.943937 1126.34332,56.0187425 1125.15712,56.1624331 C1066.25788,63.285175 1006.53566,66.8702549 947.054137,66.8702549" id="Fill-6" fill="#059B90"></path>
                        <path d="M1176.83365,48.946867 C1175.7887,48.946867 1174.87058,48.1910546 1174.70195,47.1277443 C1174.51458,45.9523554 1175.31883,44.8473749 1176.49926,44.6634509 C1179.74798,44.1490387 1182.96643,43.6317526 1186.15173,43.107282 C1187.33505,42.9147366 1188.44342,43.7064717 1188.63656,44.8804237 C1188.83257,46.0543757 1188.03553,47.1651039 1186.85798,47.3590862 C1183.66114,47.8864306 1180.43549,48.4065905 1177.1738,48.9195658 C1177.05993,48.9382456 1176.94607,48.946867 1176.83365,48.946867" id="Fill-8" fill="#059B90"></path>
                        <g id="Group-12" transform="translate(0.000000, 3.294012)">
                            <mask id="mask-4" fill="white">
                                <use xlink:href="#path-3"></use>
                            </mask>
                            <g id="Clip-11"></g>
                            <path d="M1217.14399,48.829682 C1216.12498,48.829682 1215.21695,48.1083553 1215.02093,47.0723462 C1214.80185,45.9027049 1215.57296,44.7761708 1216.74763,44.5548873 C1321.16495,24.9756093 1384.4083,0.561143262 1385.03383,0.31686928 C1386.14076,-0.115639358 1387.39902,0.427511025 1387.83574,1.53823919 C1388.26957,2.64609354 1387.72332,3.89620156 1386.61062,4.33014711 C1385.98077,4.5772949 1322.39871,29.1311408 1217.54611,48.7937594 C1217.41207,48.8181868 1217.27659,48.829682 1217.14399,48.829682" id="Fill-10" fill="#FFFFFF" mask="url(#mask-4)"></path>
                        </g>
                    </g>
                </g>
            </g>
        </g>
    </g>
</svg>