<?xml version="1.0" encoding="utf-8"?>
<!-- Generator: Adobe Illustrator 19.0.0, SVG Export Plug-In . SVG Version: 6.00 Build 0)  -->
<svg version="1.1" id="Layer_1" xmlns="http://www.w3.org/2000/svg" xmlns:xlink="http://www.w3.org/1999/xlink" x="0px" y="0px"
	 viewBox="377 -94 1366 719" style="enable-background:new 377 -94 1366 719;" xml:space="preserve">
<style type="text/css">
	.st0{fill:#FFFFFF;}
</style>
<desc>Created with Sketch.</desc>
<g id="monitor">
	<g id="Home" transform="translate(0.000000, -2468.000000)">
		
			<g id="Page-1-Copy-7" transform="translate(683.500000, 2546.500000) scale(-1, -1) translate(-683.500000, -2546.500000) translate(0.000000, 2488.000000)">
			<path id="Fill-1" class="st0" d="M377.1-441.1c-0.1,0-0.2,0-0.3,0c-30.7-3.9-61.7-8.8-91.9-14.6C75.6-496.2-92.3-494.5-196.3-486
				c-112.7,9.2-176.7,28.3-177.4,28.5c-1.1,0.3-2.3-0.3-2.7-1.4s0.3-2.3,1.4-2.7c0.6-0.2,65-19.4,178.1-28.6
				c104.3-8.6,272.7-10.3,482.5,30.3c30.2,5.8,61,10.8,91.7,14.6c1.2,0.1,2,1.2,1.8,2.4C379.1-441.9,378.2-441.1,377.1-441.1"/>
			<path id="Fill-4" class="st0" d="M432.5-435.3c-0.1,0-0.1,0-0.2,0c-9.7-0.8-19.5-1.8-29.1-2.8c-1.2-0.1-2-1.2-1.9-2.3
				c0.1-1.2,1.2-2,2.3-1.9c9.6,1,19.4,2,29.1,2.8c1.2,0.1,2,1.1,1.9,2.3C434.5-436.1,433.6-435.3,432.5-435.3"/>
			<path id="Fill-6" class="st0" d="M555.7-430c-15.2,0-30.3-0.2-45.4-0.7c-1.2,0-2.1-1-2.1-2.2s1-2.1,2.2-2.1
				c73.3,2.3,147.3-1,220.1-9.8c1.2-0.1,2.2,0.7,2.4,1.9c0.1,1.2-0.7,2.2-1.9,2.4C673-433.5,614.2-430,555.7-430"/>
			<path id="Fill-8" class="st0" d="M781.8-447.7c-1,0-1.9-0.7-2.1-1.8c-0.2-1.2,0.6-2.3,1.8-2.4c3.2-0.5,6.4-1,9.5-1.5
				c1.2-0.2,2.3,0.6,2.4,1.8c0.2,1.2-0.6,2.3-1.8,2.4c-3.1,0.5-6.3,1-9.5,1.5C782-447.7,781.9-447.7,781.8-447.7"/>
			<g id="Group-12" transform="translate(0.000000, 43.251781)">
				<g id="Clip-11">
				</g>
			</g>
		</g>
		<path id="Fill-1-Copy" class="st0" d="M376.4,3082.8c0,0,306.1-119.8,704.3-42.7c407,78.7,661.7,1.7,661.7,1.7V2374h-1366V3082.8z
			"/>
	</g>
</g>
</svg>
