
<svg width="1366px" height="136px" viewBox="0 0 1366 136" version="1.1" xmlns="http://www.w3.org/2000/svg" xmlns:xlink="http://www.w3.org/1999/xlink">
    <!-- Generator: Sketch 44.1 (41455) - http://www.bohemiancoding.com/sketch -->
    <desc>Created with Sketch.</desc>
    <defs>
        <polygon id="path-1" points="1366 59.3973796 1366 118.794759 0 118.794759 0 59.3973796 0 0 1366 0 1366 59.3973796"></polygon>
        <polygon id="path-3" points="1366 48.2036604 1366 72.761163 0 72.761163 0 0.165993769 1366 0.165993769 1366 48.2036604 1366.00068 0.166128924 1195.73994 0.166128924 1195.73994 48.2036604 1366 48.2036604"></polygon>
    </defs>
    <g id="monitor" stroke="none" stroke-width="1" fill="none" fill-rule="evenodd">
        <g id="felnőtteknek" transform="translate(0.000000, -3528.000000)">
            <g id="Group-4" transform="translate(-1.000000, 3528.000000)">
                <g id="Page-1" transform="translate(684.000000, 59.500000) scale(-1, -1) translate(-684.000000, -59.500000) translate(1.000000, 0.000000)">
                    <mask id="mask-2" fill="white">
                        <use xlink:href="#path-1"></use>
                    </mask>
                    <g id="Clip-2"></g>
                    <path d="M1366,0 C1366,0 1059.93062,119.751244 661.65625,42.7145354 C254.670779,-36.0054833 0,40.9743083 0,40.9743083 L0,118.795044 L1366,118.795044 L1366,0 Z" id="Fill-1" fill="#68D1C9" mask="url(#mask-2)"></path>
                </g>
                <g id="Page-1" transform="translate(683.500000, 106.000000) scale(-1, -1) translate(-683.500000, -106.000000) translate(0.000000, 69.000000)">
                    <path d="M753.527303,61.8798312 C753.439357,61.8798312 753.348574,61.8741572 753.25921,61.8628093 C722.539104,58.0031146 691.606226,53.0753016 661.320176,47.216963 C452.055501,6.74052482 284.138213,8.41008037 180.122207,16.9380056 C67.4179867,26.1794282 3.37769387,45.238178 2.74363157,45.4282548 C1.61735535,45.7715279 0.43008432,45.1317917 0.0910666667,44.006934 C-0.247950987,42.8820762 0.387529803,41.6962237 1.51238754,41.3557875 C2.14928681,41.1642922 66.50732,21.9977377 179.607297,12.7109236 C283.919767,4.14328079 452.307991,2.45386646 662.127293,43.0395279 C692.32256,48.8794262 723.163237,53.7930544 753.791141,57.6414012 C754.955717,57.7875051 755.782693,58.851368 755.635171,60.0173618 C755.500415,61.0925726 754.584074,61.8798312 753.527303,61.8798312" id="Fill-1" fill="#68D1C9"></path>
                    <path d="M808.909029,67.7380278 C808.848034,67.7380278 808.785621,67.7351909 808.723207,67.7295169 C799.019359,66.8940299 789.214798,65.9493196 779.583292,64.9223373 C778.41588,64.7975107 777.569045,63.7492511 777.693872,62.5804204 C777.818698,61.4115896 778.882561,60.5576623 780.035789,60.6909998 C789.638925,61.7151452 799.413697,62.6570185 809.089176,63.491087 C810.259425,63.5903809 811.126119,64.6230372 811.025407,65.7932864 C810.930368,66.9011223 810.001261,67.7380278 808.909029,67.7380278" id="Fill-4" fill="#68D1C9"></path>
                    <path d="M932.054,73.0129439 C916.890407,73.0129439 901.749509,72.7760571 886.632726,72.2994465 C885.458222,72.2639844 884.536207,71.2809751 884.573088,70.1064704 C884.611387,68.9319657 885.617092,68.0028588 886.766064,68.0468318 C960.022247,70.3518681 1034.05576,67.0453821 1106.82398,58.2167383 C1107.98572,58.0862378 1109.051,58.90754 1109.19285,60.0735337 C1109.3347,61.2395275 1108.50347,62.3005535 1107.33606,62.4424019 C1049.36971,69.4738266 990.593412,73.0129439 932.054,73.0129439" id="Fill-6" fill="#68D1C9"></path>
                    <path d="M1158.19409,55.3193431 C1157.16569,55.3193431 1156.26212,54.5732206 1156.09616,53.5235425 C1155.91175,52.3632226 1156.70327,51.2724085 1157.86501,51.0908426 C1161.06227,50.5830253 1164.22974,50.0723711 1167.36459,49.5546245 C1168.52917,49.3645477 1169.61998,50.1461323 1169.81006,51.3050336 C1170.00297,52.463935 1169.21855,53.5604231 1168.05965,53.7519184 C1164.91345,54.272502 1161.73889,54.7859931 1158.52886,55.2923919 C1158.4168,55.3108322 1158.30474,55.3193431 1158.19409,55.3193431" id="Fill-8" fill="#68D1C9"></path>
                    <g id="Group-12" transform="translate(0.000000, 0.251781)">
                        <mask id="mask-4" fill="white">
                            <use xlink:href="#path-3"></use>
                        </mask>
                        <g id="Clip-11"></g>
                        <path d="M1197.86597,48.2036604 C1196.8631,48.2036604 1195.96946,47.4915815 1195.77654,46.4688546 C1195.56093,45.3142087 1196.31982,44.2021173 1197.47588,43.9836708 C1300.23937,24.6554091 1362.48103,0.553949117 1363.09665,0.312806854 C1364.18604,-0.114156802 1365.42438,0.422030114 1365.85418,1.51851817 C1366.28114,2.61216926 1365.74354,3.84625026 1364.64847,4.2746324 C1364.02859,4.51861163 1301.45359,28.7576646 1198.26173,48.1681983 C1198.12981,48.1923126 1197.99647,48.2036604 1197.86597,48.2036604" id="Fill-10" fill="#68D1C9" mask="url(#mask-4)"></path>
                    </g>
                </g>
            </g>
        </g>
    </g>
</svg>