
<svg width="1366px" height="248px" viewBox="0 0 1366 248" version="1.1" xmlns="http://www.w3.org/2000/svg" xmlns:xlink="http://www.w3.org/1999/xlink">
    <!-- Generator: Sketch 44.1 (41455) - http://www.bohemiancoding.com/sketch -->
    <desc>Created with Sketch.</desc>
    <defs>
        <polygon id="path-1" points="1365.99957 119.715835 0 119.715835 0 0.222269436 1365.99957 0.222269436"></polygon>
        <polygon id="path-3" points="113.596133 0.00142086976 0.000426875 0.00142086976 0.000426875 192.407647 113.596133 192.407647 113.596133 0.00142086976"></polygon>
    </defs>
    <g id="monitor" stroke="none" stroke-width="1" fill="none" fill-rule="evenodd">
        <g id="gyerekeknek" transform="translate(0.000000, -739.000000)">
            <g id="róka" transform="translate(0.000000, 739.000000)">
                <path d="M166.334832,145.474783 C166.334832,145.474783 163.333901,137.031975 169.146515,128.968539 C171.397569,125.855413 174.96909,122.79486 180.561153,120.304075 C180.623761,120.272816 180.676409,120.251503 180.74044,120.23019 C185.675115,118.056259 192.174999,116.32564 200.68404,115.396391 C210.048255,114.373365 218.957136,112.504921 227.24278,109.961564 L227.254163,109.961564 C250.917267,98.9853451 271.844103,83.8942874 284.705846,63.1566933 C276.58953,62.037048 268.419142,60.4868791 260.386778,58.6610614 C215.596207,48.5075261 172.086261,35.3673226 172.086261,35.3673226 C172.086261,35.3673226 170.910932,12.3193943 170.202319,1.06894753 C152.943763,9.51175563 140.969919,32.7301883 140.969919,32.7301883 L124.059978,34.1340077 C119.852413,25.7224587 114.452444,4.2460123 113.595849,0.825978798 L113.595849,0.81603271 C113.53324,0.5204918 113.490553,0.362775257 113.490553,0.362775257 C113.490553,0.362775257 99.0436798,17.9545637 80.7264735,46.7982198 C58.1832048,82.6808647 40.6927131,148.113338 40.6927131,148.113338 L166.334832,145.474783 Z" id="Fill-1" fill="#F45A3B"></path>
                <g id="Group-5" transform="translate(0.000000, 127.876857)">
                    <mask id="mask-2" fill="white">
                        <use xlink:href="#path-1"></use>
                    </mask>
                    <g id="Clip-4"></g>
                    <path d="M169.145946,1.09196562 C169.145946,1.09196562 217.848115,104.656321 616.12249,27.7304318 C1023.10796,-50.8763458 1365.99957,63.9711359 1365.99957,63.9711359 L1365.99957,119.716119 L-0.000426875,119.716119 L-0.000426875,64.8932803 L25.2478065,11.4444227 L169.145946,1.09196562 Z" id="Fill-3" fill="#F45A3B" mask="url(#mask-2)"></path>
                </g>
                <g id="Group-8" transform="translate(0.000000, 0.361354)">
                    <mask id="mask-4" fill="white">
                        <use xlink:href="#path-3"></use>
                    </mask>
                    <g id="Clip-7"></g>
                    <path d="M113.596133,0.465192759 C107.392216,17.994463 85.3754269,38.0088344 85.731156,83.1214492 C68.3004269,96.2048179 56.7975685,114.380584 56.7975685,114.380584 L89.5303435,116.439424 L81.0753727,138.96021 C81.0753727,138.96021 36.7927831,138.53537 0.000426875,192.407647 C0.000426875,192.407647 9.74598312,142.749669 68.7742581,52.3354641 C87.4528852,23.7248307 113.490837,0.000568347903 113.490837,0.000568347903 C113.490837,0.000568347903 113.532102,0.159705761 113.596133,0.45524667 L113.596133,0.465192759 Z" id="Fill-6" fill="#EB4126" mask="url(#mask-4)"></path>
                </g>
                <path d="M156.37968,58.0056142 C160.013809,58.8467691 160.355309,70.5547359 156.820784,70.6030455 C153.287682,70.6527759 152.745551,57.1644593 156.37968,58.0056142" id="Fill-9" fill="#231F1F"></path>
                <path d="M173.938899,60.2279966 C176.844494,60.8546001 177.38378,68.4249942 174.579211,68.3752638 C171.774642,68.3255333 171.033303,59.601393 173.938899,60.2279966" id="Fill-11" fill="#231F1F"></path>
                <path d="M284.705846,63.1564092 C277.762013,74.3542837 268.47179,83.9053702 257.660469,92.0412705 C248.454199,98.9964279 238.149436,104.907246 227.254163,109.96128 L227.24278,109.96128 C208.695061,118.584538 188.465455,124.663019 169.146515,128.968255 C149.773505,133.284857 131.319699,135.796955 116.428876,137.253346 C95.4394319,139.310766 81.2871027,139.322133 81.076511,139.322133 C81.076511,139.322133 81.0864715,139.310766 81.0864715,139.279506 C81.7623569,137.897 101.388646,98.4905983 173.732576,97.108092 C208.557038,96.443125 235.24384,88.8116335 253.728951,80.9499611 C274.327092,72.2002452 284.705846,63.1564092 284.705846,63.1564092" id="Fill-13" fill="#E6E7E8"></path>
                <path d="M284.705846,63.1564092 C277.762013,74.3542837 268.47179,83.9053702 257.660469,92.0412705 C254.965465,88.8116335 253.834246,84.9923356 253.728951,80.9499611 C253.516936,73.4037218 256.889249,65.1299972 260.386778,58.6607772 C268.419142,60.4865949 276.58953,62.0381847 284.705846,63.1564092" id="Fill-15" fill="#231F1F"></path>
                <path d="M32.5537721,177.915371 C32.5537721,177.915371 32.4456304,178.269167 32.2350387,178.836094 C32.0201783,179.398759 31.7071367,180.174554 31.2788387,181.024234 C31.0682471,181.451915 30.8505408,181.919382 30.5787637,182.368376 C30.3169471,182.827317 30.0722054,183.334568 29.7620096,183.803455 C29.1843054,184.77533 28.50842,185.747205 27.8353804,186.713396 C27.1338825,187.662537 26.4195783,188.596049 25.70812,189.457096 C24.9696262,190.305355 24.2752429,191.108146 23.6121637,191.785901 C23.3048137,192.135435 22.9661596,192.43666 22.6730387,192.713729 C22.4097992,193.000745 22.1309075,193.236609 21.9103554,193.439794 C21.4550221,193.837637 21.149095,194.062135 21.149095,194.062135 L20.8815867,193.965515 C20.8815867,193.965515 20.9883054,193.669974 21.1775533,193.152778 C21.3611096,192.63274 21.627195,191.891046 22.036995,191.038524 C22.4254512,190.176056 22.9334325,189.195656 23.5282117,188.17405 C24.1158762,187.149603 24.7903387,186.08253 25.5245637,185.056662 C27.0072429,183.016293 28.6891304,181.133641 30.028095,179.802286 C31.3670596,178.470931 32.3716387,177.697978 32.3716387,177.697978 L32.5537721,177.915371 Z" id="Fill-17" fill="#EB4126"></path>
                <path d="M34.0442773,199.046972 C34.0442773,199.046972 34.1054627,199.292782 34.169494,199.669313 C34.2278335,200.04016 34.2975565,200.543148 34.2918648,201.061765 C34.2975565,201.327468 34.304671,201.6088 34.2634065,201.871661 C34.2335252,202.141626 34.2278335,202.437167 34.1595335,202.700028 C34.0542377,203.244221 33.8721044,203.768522 33.6458606,204.264406 C33.4068106,204.753185 33.1065752,205.210705 32.7707669,205.62702 C32.6071315,205.838729 32.3908481,206.024863 32.2144065,206.21526 C32.0465023,206.408498 31.8188356,206.577582 31.6295877,206.743823 C31.2454002,207.076307 30.8284856,207.356218 30.5254044,207.566507 C30.206671,207.772533 29.9790044,207.89757 29.9790044,207.89757 L29.6972669,207.856364 C29.6972669,207.856364 29.7171877,207.70149 29.7499148,207.428683 C29.781219,207.155876 29.8253294,206.763716 29.9420085,206.306195 C30.1582919,205.388314 30.5552856,204.19052 31.0760731,203.04672 C31.6310106,201.91855 32.3012044,200.855739 32.8404898,200.088469 C33.3868898,199.325462 33.8237252,198.867942 33.8237252,198.867942 L34.0442773,199.046972 Z" id="Fill-19" fill="#EB4126"></path>
                <path d="M47.8155494,160.293176 C47.8155494,160.293176 47.7828223,160.544669 47.7074077,160.918358 C47.6277244,161.286363 47.5110452,161.779405 47.3175285,162.262501 C47.2278848,162.511153 47.1311265,162.775435 46.9987952,163.007037 C46.8721556,163.247164 46.7611681,163.519971 46.6018015,163.741626 C46.3072577,164.210513 45.9472598,164.633933 45.5573806,165.014726 C45.157541,165.385573 44.7121681,165.702427 44.2482973,165.970971 C44.0192077,166.108795 43.7502765,166.203994 43.5169181,166.317663 C43.2906744,166.438437 43.0160515,166.513743 42.7798473,166.598996 C42.3017473,166.770921 41.812264,166.883169 41.453689,166.968422 C41.0823077,167.046569 40.8233369,167.08067 40.8233369,167.08067 L40.5757494,166.941425 C40.5757494,166.941425 40.649741,166.803601 40.7806494,166.560632 C40.907289,166.317663 41.0908452,165.968129 41.3640452,165.583074 C41.8990619,164.805858 42.7015869,163.831141 43.6008702,162.953044 C44.525766,162.100522 45.5360369,161.351723 46.3157952,160.828843 C47.1012452,160.315909 47.6746806,160.045944 47.6746806,160.045944 L47.8155494,160.293176 Z" id="Fill-21" fill="#EB4126"></path>
                <path d="M47.1711104,173.961943 C47.1711104,173.961943 47.1924542,174.250379 47.1938771,174.702216 C47.1896083,175.151211 47.1711104,175.762185 47.0700833,176.417206 C47.0259729,176.748268 46.9832854,177.104906 46.8893729,177.445915 C46.8068437,177.794028 46.7485042,178.173401 46.6247104,178.522935 C46.4155417,179.246157 46.1209979,179.958013 45.7994187,180.652818 C45.4550729,181.337678 45.0737312,181.999803 44.6582396,182.609356 C44.2142896,183.208963 43.7803,183.77589 43.3235437,184.258986 C43.1214896,184.506217 42.8781708,184.725031 42.6690021,184.926795 C42.4840229,185.1314 42.2720083,185.306167 42.1083729,185.453937 C41.76545,185.748057 41.5235542,185.919982 41.5235542,185.919982 L41.2432396,185.871673 C41.2432396,185.871673 41.2773896,185.662805 41.3371521,185.297642 C41.3940687,184.932478 41.4737521,184.406756 41.6430792,183.794361 C41.9603896,182.563888 42.51675,180.955464 43.2367458,179.419503 C43.9880458,177.899173 44.890175,176.462673 45.6258229,175.42828 C46.3657396,174.39815 46.9534042,173.77865 46.9534042,173.77865 L47.1711104,173.961943 Z" id="Fill-23" fill="#EB4126"></path>
                <path d="M16.7317925,206.004119 C16.7317925,206.004119 16.7531362,206.292555 16.7545592,206.744392 C16.7502904,207.193387 16.7317925,207.804361 16.6307654,208.459382 C16.586655,208.790444 16.5439675,209.147082 16.450055,209.488091 C16.3675258,209.836204 16.3091862,210.215577 16.1853925,210.565111 C15.9762237,211.288333 15.68168,212.000189 15.3601008,212.694994 C15.015755,213.379854 14.6344133,214.041979 14.2189217,214.651532 C13.7749717,215.251139 13.3409821,215.818066 12.8842258,216.301162 C12.6821717,216.548393 12.4388529,216.767207 12.2296842,216.968971 C12.044705,217.173576 11.8326904,217.348343 11.669055,217.496113 C11.3261321,217.790233 11.0842362,217.962158 11.0842362,217.962158 L10.8039217,217.913849 C10.8039217,217.913849 10.8380717,217.704981 10.8978342,217.339818 C10.9547508,216.974654 11.0344342,216.448932 11.2037612,215.836537 C11.5210717,214.606064 12.0774321,212.99764 12.7974279,211.461679 C13.5487279,209.941349 14.4508571,208.504849 15.186505,207.470456 C15.9264217,206.440326 16.5140862,205.820826 16.5140862,205.820826 L16.7317925,206.004119 Z" id="Fill-25" fill="#EB4126"></path>
                <path d="M1283.37294,181.096414 C1283.37294,181.096414 1283.00725,181.160353 1282.40678,181.229976 C1281.80631,181.293915 1280.97248,181.366379 1280.02054,181.369221 C1279.54244,181.376325 1279.02593,181.394796 1278.50229,181.356433 C1277.97439,181.330857 1277.41092,181.342224 1276.85171,181.278285 C1275.72191,181.2044 1274.54801,181.043842 1273.37979,180.881862 C1272.21585,180.687203 1271.05902,180.475494 1269.96622,180.232525 C1268.87626,179.959718 1267.84465,179.703961 1266.93967,179.421208 C1266.48718,179.306118 1266.06458,179.141297 1265.68608,179.006314 C1265.30901,178.90117 1264.97178,178.759083 1264.69146,178.65536 C1264.12941,178.430862 1263.79076,178.258937 1263.79076,178.258937 L1263.75518,177.977605 C1263.75518,177.977605 1264.06823,177.939241 1264.61605,177.87246 C1265.16245,177.799996 1265.94648,177.701956 1266.89272,177.680643 C1267.83753,177.635175 1268.94456,177.6437 1270.12416,177.710481 C1271.3066,177.768737 1272.56446,177.885248 1273.81236,178.074224 C1276.30673,178.469226 1278.74988,179.114301 1280.54418,179.702541 C1282.3399,180.290781 1283.48392,180.834974 1283.48392,180.834974 L1283.37294,181.096414 Z" id="Fill-27" fill="#EB4126"></path>
                <path d="M1351.2371,211.964241 C1351.2371,211.964241 1350.86714,211.971345 1350.26098,211.950032 C1349.65908,211.921615 1348.82383,211.867622 1347.88186,211.726956 C1347.40803,211.661596 1346.89578,211.601919 1346.38353,211.483987 C1345.86416,211.378843 1345.30638,211.304957 1344.76425,211.158608 C1343.65722,210.914218 1342.52173,210.577472 1341.39194,210.240726 C1340.27068,209.872721 1339.15938,209.487665 1338.11638,209.082717 C1337.0805,208.647931 1336.09869,208.23872 1335.24636,207.822406 C1334.81806,207.641955 1334.42534,207.413195 1334.07103,207.222799 C1333.71388,207.06224 1333.40226,206.871844 1333.14187,206.725494 C1332.61966,206.418586 1332.31088,206.198351 1332.31088,206.198351 L1332.31942,205.914178 C1332.31942,205.914178 1332.63388,205.924124 1333.18455,205.941174 C1333.73665,205.952541 1334.52636,205.973854 1335.46549,206.094628 C1336.40604,206.194089 1337.49884,206.368856 1338.65567,206.613245 C1339.81392,206.84911 1341.04048,207.156018 1342.24426,207.531127 C1344.65042,208.298397 1346.96692,209.305794 1348.65308,210.158315 C1350.33781,211.012258 1351.3865,211.722693 1351.3865,211.722693 L1351.2371,211.964241 Z" id="Fill-29" fill="#EB4126"></path>
                <path d="M1337.9203,193.608877 C1337.9203,193.608877 1337.55462,193.672816 1336.95414,193.742439 C1336.35367,193.806378 1335.51984,193.878842 1334.56791,193.881684 C1334.08981,193.888788 1333.57329,193.90726 1333.04966,193.868896 C1332.52176,193.843321 1331.95828,193.854688 1331.39908,193.790748 C1330.26928,193.716863 1329.09538,193.556305 1327.92716,193.394326 C1326.76322,193.199667 1325.60638,192.987957 1324.51358,192.744988 C1323.42363,192.472181 1322.39202,192.216425 1321.48704,191.933672 C1321.03455,191.818581 1320.61195,191.65376 1320.23203,191.518778 C1319.85638,191.413633 1319.51915,191.271546 1319.23883,191.167823 C1318.67678,190.943325 1318.33813,190.7714 1318.33813,190.7714 L1318.30255,190.490068 C1318.30255,190.490068 1318.61559,190.451704 1319.16342,190.384924 C1319.70982,190.312459 1320.49384,190.214419 1321.44008,190.193106 C1322.3849,190.147638 1323.49193,190.156164 1324.67153,190.222944 C1325.85397,190.2812 1327.11183,190.397711 1328.35973,190.586687 C1330.8541,190.981689 1333.29583,191.626764 1335.09155,192.215004 C1336.88727,192.803244 1338.03129,193.347437 1338.03129,193.347437 L1337.9203,193.608877 Z" id="Fill-31" fill="#EB4126"></path>
                <path d="M1263.72018,191.072625 C1263.72018,191.072625 1263.51101,191.216132 1263.18232,191.409371 C1262.85362,191.594084 1262.40683,191.837052 1261.91877,192.014661 C1261.6726,192.114122 1261.41079,192.219266 1261.15039,192.27468 C1260.88715,192.34004 1260.60826,192.439501 1260.33791,192.46934 C1259.79008,192.561696 1259.23515,192.575905 1258.69017,192.540383 C1258.14804,192.489232 1257.61302,192.369879 1257.10504,192.203637 C1256.84892,192.125489 1256.59848,191.989086 1256.35801,191.889625 C1256.11754,191.801531 1255.87849,191.648077 1255.65651,191.530145 C1255.20972,191.288597 1254.79992,190.998739 1254.49541,190.788451 C1254.18948,190.563953 1253.99312,190.39487 1253.99312,190.39487 L1253.93194,190.1178 C1253.93194,190.1178 1254.08419,190.080857 1254.3517,190.015497 C1254.61778,189.947296 1255.00055,189.852097 1255.47153,189.798104 C1256.40781,189.67733 1257.66994,189.626179 1258.92495,189.71001 C1260.17854,189.829364 1261.40936,190.080857 1262.32003,190.31388 C1263.22785,190.556849 1263.81125,190.802659 1263.81125,190.802659 L1263.72018,191.072625 Z" id="Fill-33" fill="#EB4126"></path>
                <path d="M1338.42971,226.145232 C1338.42971,226.145232 1338.20062,226.254639 1337.84489,226.393884 C1337.49343,226.527446 1337.01391,226.69795 1336.5045,226.798832 C1336.24553,226.857087 1335.97091,226.922447 1335.70482,226.935235 C1335.43447,226.960811 1335.14419,227.016225 1334.87242,227.003437 C1334.31606,227.010541 1333.76539,226.939498 1333.23322,226.820145 C1332.70532,226.685162 1332.19591,226.484819 1331.71923,226.241851 C1331.47876,226.125339 1331.25109,225.951993 1331.02912,225.817011 C1330.8043,225.691974 1330.59228,225.504419 1330.39165,225.352386 C1329.98754,225.045478 1329.62755,224.695944 1329.36004,224.441609 C1329.09253,224.171643 1328.9232,223.974143 1328.9232,223.974143 L1328.90613,223.69139 C1328.90613,223.69139 1329.06265,223.678602 1329.33727,223.655868 C1329.61047,223.630292 1330.00462,223.593349 1330.47703,223.613242 C1331.42042,223.638817 1332.67543,223.782325 1333.90341,224.057974 C1335.12285,224.370565 1336.30103,224.809614 1337.16331,225.180461 C1338.02275,225.558412 1338.56062,225.892317 1338.56062,225.892317 L1338.42971,226.145232 Z" id="Fill-35" fill="#EB4126"></path>
                <path d="M1306.18969,187.204875 C1306.18969,187.204875 1305.96771,187.328491 1305.62337,187.491891 C1305.28045,187.648186 1304.81373,187.848529 1304.31144,187.983512 C1304.05674,188.058818 1303.78781,188.141228 1303.52314,188.172487 C1303.25421,188.215113 1302.96821,188.288999 1302.69643,188.294682 C1302.14291,188.338729 1301.58798,188.303207 1301.04869,188.219376 C1300.51225,188.119915 1299.99146,187.952252 1299.49914,187.741964 C1299.25155,187.641082 1299.01392,187.483365 1298.78341,187.362592 C1298.55147,187.253185 1298.32665,187.079838 1298.11606,186.942014 C1297.69345,186.662103 1297.31069,186.336724 1297.02753,186.099438 C1296.74295,185.849365 1296.56081,185.663231 1296.56081,185.663231 L1296.52524,185.381899 C1296.52524,185.381899 1296.68034,185.357744 1296.95211,185.31796 C1297.22389,185.273913 1297.61377,185.211395 1298.0876,185.201449 C1299.031,185.164506 1300.29312,185.225603 1301.53533,185.420263 C1302.77327,185.651864 1303.97705,186.011344 1304.86353,186.325357 C1305.74574,186.646473 1306.30352,186.944856 1306.30352,186.944856 L1306.18969,187.204875 Z" id="Fill-37" fill="#EB4126"></path>
                <path d="M1292.60297,198.191892 C1292.60297,198.191892 1292.32123,198.260094 1291.87444,198.3354 C1291.43191,198.403602 1290.82432,198.484592 1290.16125,198.491696 C1289.82686,198.501642 1289.46686,198.518693 1289.1154,198.480329 C1288.75683,198.456174 1288.37264,198.460437 1288.00695,198.396498 C1287.2585,198.308404 1286.5072,198.132216 1285.7687,197.930452 C1285.0359,197.701692 1284.32017,197.434569 1283.64998,197.121978 C1282.98405,196.783811 1282.3537,196.448485 1281.80303,196.077638 C1281.52414,195.918501 1281.26802,195.713896 1281.03608,195.54055 C1280.80272,195.391358 1280.5964,195.210908 1280.4228,195.074504 C1280.07703,194.784647 1279.86787,194.572937 1279.86787,194.572937 L1279.87071,194.288763 L1280.45268,194.288763 C1280.82264,194.285922 1281.35481,194.277396 1281.98801,194.345598 C1283.25583,194.457847 1284.93487,194.744862 1286.5698,195.203803 C1288.19477,195.696845 1289.76141,196.351866 1290.90258,196.908847 C1292.04092,197.470091 1292.74811,197.947503 1292.74811,197.947503 L1292.60297,198.191892 Z" id="Fill-39" fill="#EB4126"></path>
                <path d="M1251.05651,175.479005 C1251.05651,175.479005 1250.79754,175.608304 1250.3792,175.78023 C1249.96086,175.945051 1249.38743,176.159602 1248.74284,176.313056 C1248.41842,176.396887 1248.07123,176.493506 1247.71977,176.534711 C1247.36546,176.590125 1246.99123,176.67964 1246.62128,176.698111 C1245.87282,176.77768 1245.09875,176.773418 1244.33465,176.740738 C1243.56912,176.67964 1242.81213,176.578758 1242.08929,176.422463 C1241.36502,176.240591 1240.67491,176.053037 1240.05594,175.81291 C1239.75001,175.720553 1239.45404,175.577045 1239.18938,175.460534 C1238.92899,175.366757 1238.68709,175.236037 1238.48788,175.140838 C1238.0852,174.934812 1237.83477,174.777096 1237.83477,174.777096 L1237.77358,174.498605 C1237.77358,174.498605 1237.9799,174.451716 1238.34132,174.369306 C1238.70274,174.284054 1239.21926,174.159017 1239.85104,174.083711 C1241.11174,173.913207 1242.81355,173.819429 1244.50967,173.904682 C1246.20294,174.024035 1247.87629,174.315313 1249.1128,174.60517 C1250.34789,174.89929 1251.1433,175.20904 1251.1433,175.20904 L1251.05651,175.479005 Z" id="Fill-41" fill="#EB4126"></path>
                <path d="M1319.06637,209.395308 C1319.06637,209.395308 1318.78748,209.472035 1318.34353,209.562971 C1317.90243,209.646802 1317.29769,209.747684 1316.63603,209.776102 C1316.30165,209.797415 1315.94307,209.827253 1315.59019,209.800256 C1315.23161,209.788889 1314.84743,209.804519 1314.48031,209.753368 C1313.72901,209.689428 1312.97202,209.540237 1312.22641,209.361208 C1311.4865,209.158023 1310.76223,208.915054 1310.08208,208.625197 C1309.40619,208.309764 1308.76446,207.995752 1308.20098,207.641955 C1307.91782,207.494185 1307.65601,207.296684 1307.41696,207.131863 C1307.17933,206.991197 1306.96731,206.81643 1306.78945,206.68571 C1306.43372,206.407219 1306.21744,206.204035 1306.21744,206.204035 L1306.21032,205.919861 C1306.21032,205.919861 1306.42091,205.912757 1306.7923,205.899969 C1307.16225,205.884339 1307.693,205.858764 1308.32905,205.905652 C1309.59971,205.976696 1311.28729,206.205456 1312.93645,206.610404 C1314.57707,207.049452 1316.16505,207.65048 1317.3233,208.169098 C1318.48013,208.691978 1319.20297,209.146656 1319.20297,209.146656 L1319.06637,209.395308 Z" id="Fill-43" fill="#EB4126"></path>
                <path d="M175.575537,105.484972 C175.575537,105.484972 176.291264,107.175807 176.302648,109.793049 C176.316877,110.449491 176.289841,111.165609 176.168894,111.920091 C176.066444,112.680256 175.917037,113.495835 175.605419,114.325623 C175.300914,115.155411 174.950877,116.070451 174.276414,116.924394 C173.637525,117.774074 172.70836,118.703323 171.379356,119.221941 C170.716277,119.463488 170.013356,119.584262 169.303321,119.577158 L169.001662,119.570054 L168.470914,119.524586 C168.085304,119.491906 167.836294,119.418021 167.528944,119.354081 C166.360729,119.044332 165.415912,118.40352 164.666035,117.772653 C163.903352,117.141787 163.388256,116.390147 162.948575,115.712392 C162.500356,115.034637 162.215773,114.338411 161.980991,113.707545 C161.511429,112.442971 161.3606,111.341797 161.303683,110.571685 C161.256727,109.795891 161.307952,109.342633 161.307952,109.342633 L161.315066,109.278694 C161.323604,109.204809 161.390481,109.150816 161.464473,109.159341 C161.517121,109.165024 161.558385,109.200546 161.57546,109.247435 C161.57546,109.247435 161.71206,109.619703 162.005181,110.256252 C162.299725,110.891381 162.750789,111.789371 163.408177,112.791084 C164.065564,113.785693 164.940658,114.903917 166.131639,115.770648 C166.727841,116.195488 167.412264,116.535076 168.147912,116.702738 C168.8736,116.844825 169.687508,116.86898 170.359125,116.579123 C171.774927,116.036351 172.688439,114.59701 173.315946,113.282705 C173.944875,111.9343 174.331908,110.577369 174.615069,109.412256 C175.164314,107.067821 175.292377,105.462238 175.292377,105.462238 C175.298069,105.388353 175.3621,105.332939 175.436091,105.338622 C175.487316,105.342885 175.528581,105.375565 175.548502,105.419612 L175.575537,105.484972 Z" id="Fill-45" fill="#231F1F"></path>
            </g>
        </g>
    </g>
</svg>