<svg width="337" height="295" viewBox="0 0 337 295" fill="none" xmlns="http://www.w3.org/2000/svg">
<rect width="337" height="295" rx="4" fill="black"/>
<rect x="22.5" y="128.5" width="292" height="39" stroke="#F05454" stroke-dasharray="6 6"/>
<path d="M37.664 57.552C35.5787 57.552 33.6007 57.3833 31.73 57.046C29.89 56.7087 28.2647 56.1567 26.854 55.39C25.474 54.5927 24.3853 53.5653 23.588 52.308C22.7907 51.02 22.392 49.4253 22.392 47.524C22.392 47.4013 22.392 47.2787 22.392 47.156C22.4227 47.0027 22.438 46.88 22.438 46.788H28.924C28.924 46.88 28.9087 47.018 28.878 47.202C28.878 47.3553 28.878 47.524 28.878 47.708C28.878 48.6893 29.2307 49.5173 29.936 50.192C30.6413 50.836 31.6533 51.3267 32.972 51.664C34.3213 51.9707 35.8853 52.124 37.664 52.124C38.6147 52.124 39.504 52.078 40.332 51.986C41.1907 51.894 41.9727 51.756 42.678 51.572C43.3833 51.3573 43.9967 51.112 44.518 50.836C45.0393 50.5293 45.438 50.1767 45.714 49.778C45.99 49.3487 46.128 48.8887 46.128 48.398C46.128 47.5393 45.806 46.8493 45.162 46.328C44.518 45.8067 43.644 45.3773 42.54 45.04C41.4667 44.672 40.24 44.3653 38.86 44.12C37.5107 43.844 36.1153 43.5527 34.674 43.246C33.2327 42.9393 31.822 42.556 30.442 42.096C29.0927 41.636 27.866 41.0687 26.762 40.394C25.6887 39.6887 24.83 38.7993 24.186 37.726C23.542 36.6527 23.22 35.3493 23.22 33.816C23.22 32.344 23.5573 31.056 24.232 29.952C24.9067 28.8173 25.8727 27.882 27.13 27.146C28.418 26.3793 29.9513 25.812 31.73 25.444C33.5087 25.0453 35.502 24.846 37.71 24.846C39.8873 24.846 41.85 25.0453 43.598 25.444C45.346 25.8427 46.818 26.4407 48.014 27.238C49.2407 28.0047 50.1607 28.9553 50.774 30.09C51.418 31.2247 51.74 32.528 51.74 34V34.644H45.346V34.092C45.346 33.3253 45.024 32.666 44.38 32.114C43.7667 31.5313 42.8927 31.0867 41.758 30.78C40.654 30.4427 39.3813 30.274 37.94 30.274C36.1307 30.274 34.628 30.412 33.432 30.688C32.236 30.964 31.3467 31.3473 30.764 31.838C30.1813 32.3287 29.89 32.896 29.89 33.54C29.89 34.276 30.212 34.8893 30.856 35.38C31.5 35.84 32.3587 36.2233 33.432 36.53C34.5053 36.8367 35.7167 37.128 37.066 37.404C38.446 37.6493 39.8567 37.9407 41.298 38.278C42.77 38.5847 44.1807 38.968 45.53 39.428C46.91 39.8573 48.1367 40.4247 49.21 41.13C50.314 41.8353 51.1727 42.7093 51.786 43.752C52.43 44.7947 52.752 46.0673 52.752 47.57C52.752 49.9927 52.108 51.94 50.82 53.412C49.5627 54.8533 47.784 55.9113 45.484 56.586C43.2147 57.23 40.608 57.552 37.664 57.552ZM67.0911 57.552C64.2084 57.552 61.9697 56.8313 60.3751 55.39C58.7804 53.9487 57.9831 51.618 57.9831 48.398V32.758H63.9631V47.34C63.9631 48.2907 64.0857 49.1033 64.3311 49.778C64.6071 50.422 64.9751 50.9433 65.4351 51.342C65.8951 51.71 66.4471 51.986 67.0911 52.17C67.7657 52.3233 68.5017 52.4 69.2991 52.4C70.4644 52.4 71.5531 52.1393 72.5651 51.618C73.5771 51.0967 74.3897 50.376 75.0031 49.456C75.6164 48.536 75.9231 47.4627 75.9231 46.236V32.758H81.9031V57H77.0271L76.5671 53.32H76.1991C75.4937 54.2707 74.6504 55.068 73.6691 55.712C72.7184 56.3253 71.6757 56.7853 70.5411 57.092C69.4371 57.3987 68.2871 57.552 67.0911 57.552ZM88.1749 57V32.758H93.0969L93.5569 36.852H93.8789C94.2162 36.024 94.6609 35.2727 95.2129 34.598C95.7649 33.8927 96.4549 33.3253 97.2829 32.896C98.1109 32.436 99.0922 32.206 100.227 32.206C100.748 32.206 101.239 32.252 101.699 32.344C102.19 32.436 102.604 32.5433 102.941 32.666V38.094H100.457C99.3835 38.094 98.4482 38.2627 97.6509 38.6C96.8535 38.9373 96.1942 39.428 95.6729 40.072C95.1515 40.716 94.7682 41.452 94.5229 42.28C94.2775 43.108 94.1549 44.0127 94.1549 44.994V57H88.1749ZM114.089 57L103.785 32.758H110.179L114.825 44.12C115.039 44.6107 115.285 45.27 115.561 46.098C115.837 46.8953 116.128 47.7233 116.435 48.582C116.741 49.41 117.002 50.1613 117.217 50.836H117.493C117.707 50.192 117.953 49.456 118.229 48.628C118.505 47.7693 118.781 46.9413 119.057 46.144C119.333 45.316 119.578 44.6413 119.793 44.12L124.439 32.758H130.603L120.299 57H114.089ZM146.324 57.552C143.442 57.552 141.004 57.1073 139.01 56.218C137.017 55.298 135.499 53.9027 134.456 52.032C133.414 50.1613 132.892 47.7847 132.892 44.902C132.892 42.05 133.398 39.6887 134.41 37.818C135.453 35.9473 136.971 34.552 138.964 33.632C140.958 32.6813 143.365 32.206 146.186 32.206C148.977 32.206 151.323 32.666 153.224 33.586C155.126 34.506 156.552 35.8707 157.502 37.68C158.453 39.4587 158.928 41.7127 158.928 44.442V46.374H139.102C139.194 47.8767 139.516 49.1187 140.068 50.1C140.651 51.0507 141.464 51.756 142.506 52.216C143.58 52.6453 144.883 52.86 146.416 52.86C147.122 52.86 147.842 52.7833 148.578 52.63C149.314 52.446 149.989 52.1853 150.602 51.848C151.246 51.5107 151.768 51.0813 152.166 50.56C152.565 50.008 152.795 49.3487 152.856 48.582H158.836C158.836 49.962 158.545 51.204 157.962 52.308C157.38 53.412 156.536 54.3627 155.432 55.16C154.328 55.9267 153.01 56.5247 151.476 56.954C149.943 57.3527 148.226 57.552 146.324 57.552ZM139.148 42.28H152.672C152.672 41.3293 152.504 40.5167 152.166 39.842C151.829 39.1673 151.369 38.6153 150.786 38.186C150.204 37.7567 149.529 37.45 148.762 37.266C147.996 37.0513 147.152 36.944 146.232 36.944C144.852 36.944 143.641 37.1433 142.598 37.542C141.586 37.91 140.789 38.4927 140.206 39.29C139.654 40.0873 139.302 41.084 139.148 42.28ZM167.358 65.74C166.346 65.74 165.487 65.6633 164.782 65.51C164.076 65.3567 163.54 65.2187 163.172 65.096V61.002H166.07C167.112 61.002 168.002 60.8333 168.738 60.496C169.474 60.1893 170.102 59.7293 170.624 59.116C171.145 58.5333 171.59 57.828 171.958 57L161.24 32.758H167.68L172.556 44.442C172.801 44.994 173.062 45.6687 173.338 46.466C173.644 47.2633 173.951 48.0913 174.258 48.95C174.595 49.778 174.871 50.514 175.086 51.158H175.362C175.423 50.9127 175.53 50.5293 175.684 50.008C175.868 49.4867 176.067 48.8887 176.282 48.214C176.527 47.5393 176.772 46.8647 177.018 46.19C177.263 45.5153 177.478 44.9173 177.662 44.396L181.894 32.758H188.058L179.088 55.206C178.413 56.77 177.738 58.196 177.064 59.484C176.389 60.772 175.607 61.876 174.718 62.796C173.859 63.7467 172.832 64.4673 171.636 64.958C170.44 65.4793 169.014 65.74 167.358 65.74ZM213.61 57V31.102H201.512V25.398H232.286V31.102H220.142V57H213.61ZM244.748 57.552C241.896 57.552 239.458 57.092 237.434 56.172C235.441 55.2213 233.923 53.8107 232.88 51.94C231.837 50.0693 231.316 47.708 231.316 44.856C231.316 42.004 231.837 39.658 232.88 37.818C233.923 35.9473 235.441 34.552 237.434 33.632C239.458 32.6813 241.896 32.206 244.748 32.206C247.661 32.206 250.115 32.6813 252.108 33.632C254.101 34.552 255.619 35.9473 256.662 37.818C257.705 39.658 258.226 42.004 258.226 44.856C258.226 47.708 257.705 50.0693 256.662 51.94C255.619 53.8107 254.101 55.2213 252.108 56.172C250.115 57.092 247.661 57.552 244.748 57.552ZM244.748 52.768C246.373 52.768 247.723 52.492 248.796 51.94C249.869 51.3573 250.667 50.514 251.188 49.41C251.74 48.2753 252.016 46.8953 252.016 45.27V44.488C252.016 42.832 251.74 41.452 251.188 40.348C250.667 39.244 249.869 38.416 248.796 37.864C247.723 37.2813 246.373 36.99 244.748 36.99C243.153 36.99 241.819 37.2813 240.746 37.864C239.673 38.416 238.86 39.244 238.308 40.348C237.787 41.452 237.526 42.832 237.526 44.488V45.27C237.526 46.8953 237.787 48.2753 238.308 49.41C238.86 50.514 239.673 51.3573 240.746 51.94C241.819 52.492 243.153 52.768 244.748 52.768ZM275.789 57.552C272.937 57.552 270.499 57.092 268.475 56.172C266.482 55.2213 264.964 53.8107 263.921 51.94C262.878 50.0693 262.357 47.708 262.357 44.856C262.357 42.004 262.878 39.658 263.921 37.818C264.964 35.9473 266.482 34.552 268.475 33.632C270.499 32.6813 272.937 32.206 275.789 32.206C278.702 32.206 281.156 32.6813 283.149 33.632C285.142 34.552 286.66 35.9473 287.703 37.818C288.746 39.658 289.267 42.004 289.267 44.856C289.267 47.708 288.746 50.0693 287.703 51.94C286.66 53.8107 285.142 55.2213 283.149 56.172C281.156 57.092 278.702 57.552 275.789 57.552ZM275.789 52.768C277.414 52.768 278.764 52.492 279.837 51.94C280.91 51.3573 281.708 50.514 282.229 49.41C282.781 48.2753 283.057 46.8953 283.057 45.27V44.488C283.057 42.832 282.781 41.452 282.229 40.348C281.708 39.244 280.91 38.416 279.837 37.864C278.764 37.2813 277.414 36.99 275.789 36.99C274.194 36.99 272.86 37.2813 271.787 37.864C270.714 38.416 269.901 39.244 269.349 40.348C268.828 41.452 268.567 42.832 268.567 44.488V45.27C268.567 46.8953 268.828 48.2753 269.349 49.41C269.901 50.514 270.714 51.3573 271.787 51.94C272.86 52.492 274.194 52.768 275.789 52.768ZM294.456 57V23.696H300.436V57H294.456ZM24.002 101V69.398H44.978C47.278 69.398 49.164 69.8273 50.636 70.686C52.108 71.5447 53.212 72.7253 53.948 74.228C54.684 75.7 55.052 77.3867 55.052 79.288C55.052 81.22 54.5767 82.9987 53.626 84.624C52.6753 86.2187 51.2493 87.4607 49.348 88.35L55.972 101H48.75L42.954 89.5H30.488V101H24.002ZM30.488 84.072H43.736C45.2387 84.072 46.3887 83.6427 47.186 82.784C47.9833 81.9253 48.382 80.7753 48.382 79.334C48.382 78.3833 48.198 77.586 47.83 76.942C47.4927 76.2673 46.9713 75.7613 46.266 75.424C45.5913 75.0867 44.748 74.918 43.736 74.918H30.488V84.072ZM72.6973 101.552C69.8146 101.552 67.3766 101.107 65.3833 100.218C63.39 99.298 61.872 97.9027 60.8293 96.032C59.7866 94.1613 59.2653 91.7847 59.2653 88.902C59.2653 86.05 59.7713 83.6887 60.7833 81.818C61.826 79.9473 63.344 78.552 65.3373 77.632C67.3306 76.6813 69.738 76.206 72.5593 76.206C75.35 76.206 77.696 76.666 79.5973 77.586C81.4986 78.506 82.9246 79.8707 83.8753 81.68C84.826 83.4587 85.3013 85.7127 85.3013 88.442V90.374H65.4753C65.5673 91.8767 65.8893 93.1187 66.4413 94.1C67.024 95.0507 67.8366 95.756 68.8793 96.216C69.9526 96.6453 71.256 96.86 72.7893 96.86C73.4946 96.86 74.2153 96.7833 74.9513 96.63C75.6873 96.446 76.362 96.1853 76.9753 95.848C77.6193 95.5107 78.1406 95.0813 78.5393 94.56C78.938 94.008 79.168 93.3487 79.2293 92.582H85.2093C85.2093 93.962 84.918 95.204 84.3353 96.308C83.7526 97.412 82.9093 98.3627 81.8053 99.16C80.7013 99.9267 79.3826 100.525 77.8493 100.954C76.316 101.353 74.5986 101.552 72.6973 101.552ZM65.5213 86.28H79.0453C79.0453 85.3293 78.8766 84.5167 78.5393 83.842C78.202 83.1673 77.742 82.6153 77.1593 82.186C76.5766 81.7567 75.902 81.45 75.1353 81.266C74.3686 81.0513 73.5253 80.944 72.6053 80.944C71.2253 80.944 70.014 81.1433 68.9713 81.542C67.9593 81.91 67.162 82.4927 66.5793 83.29C66.0273 84.0873 65.6746 85.084 65.5213 86.28ZM100.493 101.552C98.2541 101.552 96.3068 101.107 94.6508 100.218C92.9948 99.298 91.7068 97.9027 90.7868 96.032C89.8975 94.1307 89.4528 91.754 89.4528 88.902C89.4528 85.9887 89.8975 83.612 90.7868 81.772C91.7068 79.9013 92.9641 78.506 94.5588 77.586C96.1841 76.666 98.0395 76.206 100.125 76.206C101.351 76.206 102.486 76.344 103.529 76.62C104.571 76.896 105.507 77.2947 106.335 77.816C107.163 78.3373 107.868 78.9813 108.451 79.748H108.773V67.696H114.753V101H109.877L109.371 97.458H109.003C108.052 98.8993 106.841 99.942 105.369 100.586C103.897 101.23 102.271 101.552 100.493 101.552ZM102.195 96.446C103.636 96.446 104.847 96.17 105.829 95.618C106.81 95.0353 107.546 94.2073 108.037 93.134C108.527 92.0607 108.773 90.742 108.773 89.178V88.718C108.773 87.522 108.635 86.464 108.359 85.544C108.083 84.624 107.653 83.8573 107.071 83.244C106.519 82.6307 105.829 82.1553 105.001 81.818C104.173 81.4807 103.222 81.312 102.149 81.312C100.677 81.312 99.4501 81.588 98.4688 82.14C97.5181 82.692 96.7975 83.5047 96.3068 84.578C95.8468 85.6513 95.6168 86.9853 95.6168 88.58V89.224C95.6168 90.8187 95.8468 92.1527 96.3068 93.226C96.7975 94.2993 97.5335 95.112 98.5148 95.664C99.4961 96.1853 100.723 96.446 102.195 96.446ZM133.387 101.552C130.504 101.552 128.066 101.107 126.073 100.218C124.079 99.298 122.561 97.9027 121.519 96.032C120.476 94.1613 119.955 91.7847 119.955 88.902C119.955 86.05 120.461 83.6887 121.473 81.818C122.515 79.9473 124.033 78.552 126.027 77.632C128.02 76.6813 130.427 76.206 133.249 76.206C136.039 76.206 138.385 76.666 140.287 77.586C142.188 78.506 143.614 79.8707 144.565 81.68C145.515 83.4587 145.991 85.7127 145.991 88.442V90.374H126.165C126.257 91.8767 126.579 93.1187 127.131 94.1C127.713 95.0507 128.526 95.756 129.569 96.216C130.642 96.6453 131.945 96.86 133.479 96.86C134.184 96.86 134.905 96.7833 135.641 96.63C136.377 96.446 137.051 96.1853 137.665 95.848C138.309 95.5107 138.83 95.0813 139.229 94.56C139.627 94.008 139.857 93.3487 139.919 92.582H145.899C145.899 93.962 145.607 95.204 145.025 96.308C144.442 97.412 143.599 98.3627 142.495 99.16C141.391 99.9267 140.072 100.525 138.539 100.954C137.005 101.353 135.288 101.552 133.387 101.552ZM126.211 86.28H139.735C139.735 85.3293 139.566 84.5167 139.229 83.842C138.891 83.1673 138.431 82.6153 137.849 82.186C137.266 81.7567 136.591 81.45 135.825 81.266C135.058 81.0513 134.215 80.944 133.295 80.944C131.915 80.944 130.703 81.1433 129.661 81.542C128.649 81.91 127.851 82.4927 127.269 83.29C126.717 84.0873 126.364 85.084 126.211 86.28ZM161.964 101.552C160.186 101.552 158.56 101.383 157.088 101.046C155.616 100.709 154.344 100.233 153.27 99.62C152.197 98.976 151.354 98.194 150.74 97.274C150.158 96.354 149.866 95.3113 149.866 94.146C149.866 93.9927 149.866 93.8547 149.866 93.732C149.897 93.6093 149.928 93.502 149.958 93.41H155.984C155.984 93.4407 155.969 93.502 155.938 93.594C155.938 93.6553 155.938 93.7167 155.938 93.778C155.969 94.5753 156.276 95.2193 156.858 95.71C157.441 96.17 158.192 96.5073 159.112 96.722C160.032 96.9367 161.029 97.044 162.102 97.044C163.084 97.044 164.034 96.9673 164.954 96.814C165.874 96.6607 166.626 96.4 167.208 96.032C167.791 95.6333 168.082 95.0813 168.082 94.376C168.082 93.5787 167.73 92.996 167.024 92.628C166.35 92.2293 165.414 91.9227 164.218 91.708C163.022 91.4627 161.627 91.1867 160.032 90.88C158.806 90.6347 157.625 90.3433 156.49 90.006C155.356 89.6687 154.344 89.2393 153.454 88.718C152.596 88.1967 151.906 87.522 151.384 86.694C150.894 85.8353 150.648 84.7927 150.648 83.566C150.648 82.3087 150.924 81.22 151.476 80.3C152.028 79.38 152.81 78.6287 153.822 78.046C154.865 77.4327 156.092 76.988 157.502 76.712C158.944 76.4053 160.538 76.252 162.286 76.252C163.912 76.252 165.384 76.4053 166.702 76.712C168.052 76.988 169.217 77.4173 170.198 78C171.21 78.5827 171.992 79.3033 172.544 80.162C173.096 80.99 173.372 81.9253 173.372 82.968C173.372 83.1213 173.372 83.2747 173.372 83.428C173.372 83.5813 173.357 83.704 173.326 83.796H167.346V83.566C167.346 82.922 167.116 82.4007 166.656 82.002C166.196 81.5727 165.583 81.266 164.816 81.082C164.05 80.8673 163.16 80.76 162.148 80.76C161.596 80.76 160.998 80.7907 160.354 80.852C159.71 80.9133 159.112 81.036 158.56 81.22C158.008 81.404 157.548 81.634 157.18 81.91C156.812 82.186 156.628 82.554 156.628 83.014C156.628 83.658 156.935 84.1487 157.548 84.486C158.192 84.8233 159.02 85.0993 160.032 85.314C161.044 85.498 162.148 85.7127 163.344 85.958C164.694 86.2033 166.012 86.4793 167.3 86.786C168.588 87.0927 169.738 87.5067 170.75 88.028C171.762 88.5187 172.575 89.2087 173.188 90.098C173.802 90.9873 174.108 92.168 174.108 93.64C174.108 95.112 173.817 96.354 173.234 97.366C172.682 98.378 171.87 99.1907 170.796 99.804C169.754 100.417 168.481 100.862 166.978 101.138C165.476 101.414 163.804 101.552 161.964 101.552ZM179.097 72.94V67.696H185.077V72.94H179.097ZM179.097 101V76.758H185.077V101H179.097ZM196.144 109.74C194.887 109.74 193.706 109.541 192.602 109.142C191.529 108.743 190.655 108.115 189.98 107.256C189.336 106.428 189.014 105.339 189.014 103.99C189.014 102.733 189.413 101.675 190.21 100.816C191.038 99.9573 192.02 99.3287 193.154 98.93C192.326 98.5007 191.682 97.9333 191.222 97.228C190.793 96.492 190.578 95.664 190.578 94.744C190.578 93.548 191.008 92.5513 191.866 91.754C192.725 90.926 193.798 90.4047 195.086 90.19C193.89 89.5153 192.97 88.6567 192.326 87.614C191.682 86.5713 191.36 85.4213 191.36 84.164C191.36 82.3853 191.82 80.9133 192.74 79.748C193.66 78.5827 195.01 77.7087 196.788 77.126C198.598 76.5127 200.806 76.206 203.412 76.206C204.424 76.206 205.39 76.2673 206.31 76.39C207.23 76.5127 208.089 76.6813 208.886 76.896C210.144 76.252 211.064 75.5313 211.646 74.734C212.26 73.9367 212.612 73.2467 212.704 72.664H218.454C218.424 73.7373 218.178 74.688 217.718 75.516C217.258 76.344 216.63 77.034 215.832 77.586C215.035 78.138 214.054 78.5367 212.888 78.782C213.716 79.426 214.345 80.208 214.774 81.128C215.234 82.0173 215.464 83.0293 215.464 84.164C215.464 85.8507 215.035 87.292 214.176 88.488C213.318 89.6533 212.06 90.5427 210.404 91.156C208.748 91.7693 206.694 92.076 204.24 92.076H199.134C198.368 92.076 197.77 92.2293 197.34 92.536C196.911 92.8427 196.696 93.2567 196.696 93.778C196.696 94.2687 196.896 94.6827 197.294 95.02C197.724 95.3573 198.352 95.526 199.18 95.526H211.554C213.609 95.526 215.234 96.17 216.43 97.458C217.657 98.7153 218.27 100.31 218.27 102.242C218.27 103.714 217.887 105.002 217.12 106.106C216.384 107.241 215.357 108.13 214.038 108.774C212.75 109.418 211.263 109.74 209.576 109.74H196.144ZM197.662 105.508H209.392C209.944 105.508 210.435 105.401 210.864 105.186C211.294 105.002 211.631 104.711 211.876 104.312C212.122 103.944 212.244 103.515 212.244 103.024C212.244 102.227 211.984 101.613 211.462 101.184C210.941 100.785 210.312 100.586 209.576 100.586H197.8C197.003 100.586 196.344 100.785 195.822 101.184C195.301 101.613 195.04 102.211 195.04 102.978C195.04 103.745 195.286 104.358 195.776 104.818C196.267 105.278 196.896 105.508 197.662 105.508ZM203.412 87.89C205.314 87.89 206.786 87.5987 207.828 87.016C208.902 86.4027 209.438 85.452 209.438 84.164C209.438 82.8453 208.902 81.8947 207.828 81.312C206.786 80.6987 205.314 80.392 203.412 80.392C201.511 80.392 200.024 80.6987 198.95 81.312C197.908 81.8947 197.386 82.8453 197.386 84.164C197.386 85.0533 197.616 85.774 198.076 86.326C198.536 86.878 199.211 87.2767 200.1 87.522C201.02 87.7673 202.124 87.89 203.412 87.89ZM221.862 101V76.758H226.784L227.244 80.484H227.612C228.348 79.5027 229.192 78.7053 230.142 78.092C231.093 77.448 232.12 76.9727 233.224 76.666C234.359 76.3593 235.509 76.206 236.674 76.206C238.606 76.206 240.247 76.528 241.596 77.172C242.946 77.816 243.988 78.8127 244.724 80.162C245.46 81.4807 245.828 83.2133 245.828 85.36V101H239.802V86.418C239.802 85.4673 239.68 84.67 239.434 84.026C239.189 83.382 238.821 82.8607 238.33 82.462C237.87 82.0633 237.318 81.7873 236.674 81.634C236.03 81.45 235.294 81.358 234.466 81.358C233.301 81.358 232.212 81.6187 231.2 82.14C230.188 82.6613 229.376 83.382 228.762 84.302C228.149 85.222 227.842 86.3107 227.842 87.568V101H221.862Z" fill="white"/>
<rect x="22.5" y="189.5" width="111" height="23" rx="1.5" fill="#F05454"/>
<rect x="29.5" y="196.5" width="9" height="9" rx="4.5" stroke="black" stroke-width="5"/>
<line x1="52.5" y1="201" x2="97.5" y2="201" stroke="black" stroke-width="3" stroke-linecap="round"/>
<rect x="22.5" y="189.5" width="111" height="23" rx="1.5" stroke="#F05454" stroke-dasharray="6 6"/>
<rect x="27.5" y="224.5" width="13" height="13" rx="6.5" stroke="#F05454"/>
<line x1="51.5" y1="231" x2="98.5" y2="231" stroke="#F05454" stroke-linecap="round"/>
<rect x="22.5" y="219.5" width="111" height="23" rx="1.5" stroke="#F05454"/>
<rect x="110.5" y="141.5" width="13" height="13" rx="6.5" stroke="#F05454"/>
<line x1="134.5" y1="148" x2="181.5" y2="148" stroke="#F05454" stroke-linecap="round"/>
<rect x="105.5" y="136.5" width="145" height="23" rx="1.5" stroke="#F05454"/>
<rect x="22" y="250" width="24" height="23" rx="2" fill="#F05454"/>
<path d="M39.8594 265.273C40.2344 265.93 39.7656 266.75 39.0156 266.75H28.9844C28.2109 266.75 27.7422 265.93 28.1406 265.273L33.1328 256.742C33.5312 256.086 34.4922 256.086 34.8438 256.742L39.8594 265.273Z" fill="black"/>
<rect x="48" y="250" width="24" height="23" rx="2" fill="#F05454"/>
<path d="M65.8594 265.273C66.2344 265.93 65.7656 266.75 65.0156 266.75H54.9844C54.2109 266.75 53.7422 265.93 54.1406 265.273L59.1328 256.742C59.5312 256.086 60.4922 256.086 60.8438 256.742L65.8594 265.273Z" fill="black"/>
<rect x="74" y="250" width="24" height="23" rx="2" fill="#F05454"/>
<path d="M91.8594 265.273C92.2344 265.93 91.7656 266.75 91.0156 266.75H80.9844C80.2109 266.75 79.7422 265.93 80.1406 265.273L85.1328 256.742C85.5312 256.086 86.4922 256.086 86.8438 256.742L91.8594 265.273Z" fill="black"/>
<rect x="100" y="250" width="24" height="23" rx="2" fill="#F05454"/>
<path d="M117.859 265.273C118.234 265.93 117.766 266.75 117.016 266.75H106.984C106.211 266.75 105.742 265.93 106.141 265.273L111.133 256.742C111.531 256.086 112.492 256.086 112.844 256.742L117.859 265.273Z" fill="black"/>
<rect x="126" y="250" width="24" height="23" rx="2" fill="#F05454"/>
<path d="M143.859 265.273C144.234 265.93 143.766 266.75 143.016 266.75H132.984C132.211 266.75 131.742 265.93 132.141 265.273L137.133 256.742C137.531 256.086 138.492 256.086 138.844 256.742L143.859 265.273Z" fill="black"/>
<rect x="152" y="250" width="24" height="23" rx="2" fill="#F05454"/>
<path d="M169.859 265.273C170.234 265.93 169.766 266.75 169.016 266.75H158.984C158.211 266.75 157.742 265.93 158.141 265.273L163.133 256.742C163.531 256.086 164.492 256.086 164.844 256.742L169.859 265.273Z" fill="black"/>
<rect x="178" y="250" width="24" height="23" rx="2" fill="#F05454"/>
<path d="M195.859 265.273C196.234 265.93 195.766 266.75 195.016 266.75H184.984C184.211 266.75 183.742 265.93 184.141 265.273L189.133 256.742C189.531 256.086 190.492 256.086 190.844 256.742L195.859 265.273Z" fill="black"/>
<rect x="204" y="250" width="24" height="23" rx="2" fill="#F05454"/>
<path d="M221.859 265.273C222.234 265.93 221.766 266.75 221.016 266.75H210.984C210.211 266.75 209.742 265.93 210.141 265.273L215.133 256.742C215.531 256.086 216.492 256.086 216.844 256.742L221.859 265.273Z" fill="black"/>
<path d="M247.859 265.273L242.867 256.742C242.656 256.414 242.328 256.25 241.977 256.25C241.602 256.25 241.32 256.414 241.109 256.742L236.094 265.273C235.719 265.93 236.211 266.75 236.961 266.75H246.992C247.766 266.75 248.234 265.93 247.859 265.273ZM247.203 265.883C247.18 265.93 247.109 266 246.992 266H236.984C236.867 266 236.797 265.93 236.773 265.883C236.75 265.836 236.727 265.766 236.773 265.672L241.766 257.141C241.836 257.023 241.93 257 241.977 257C242.023 257 242.117 257.023 242.188 257.141L247.18 265.672C247.25 265.766 247.227 265.836 247.203 265.883Z" fill="#F05454"/>
<rect x="230.5" y="250.5" width="23" height="22" rx="1.5" stroke="#F05454"/>
<path d="M273.859 265.273L268.867 256.742C268.656 256.414 268.328 256.25 267.977 256.25C267.602 256.25 267.32 256.414 267.109 256.742L262.094 265.273C261.719 265.93 262.211 266.75 262.961 266.75H272.992C273.766 266.75 274.234 265.93 273.859 265.273ZM273.203 265.883C273.18 265.93 273.109 266 272.992 266H262.984C262.867 266 262.797 265.93 262.773 265.883C262.75 265.836 262.727 265.766 262.773 265.672L267.766 257.141C267.836 257.023 267.93 257 267.977 257C268.023 257 268.117 257.023 268.188 257.141L273.18 265.672C273.25 265.766 273.227 265.836 273.203 265.883Z" fill="#F05454"/>
<rect x="256.5" y="250.5" width="23" height="22" rx="1.5" stroke="#F05454"/>
<path d="M299.859 265.273L294.867 256.742C294.656 256.414 294.328 256.25 293.977 256.25C293.602 256.25 293.32 256.414 293.109 256.742L288.094 265.273C287.719 265.93 288.211 266.75 288.961 266.75H298.992C299.766 266.75 300.234 265.93 299.859 265.273ZM299.203 265.883C299.18 265.93 299.109 266 298.992 266H288.984C288.867 266 288.797 265.93 288.773 265.883C288.75 265.836 288.727 265.766 288.773 265.672L293.766 257.141C293.836 257.023 293.93 257 293.977 257C294.023 257 294.117 257.023 294.188 257.141L299.18 265.672C299.25 265.766 299.227 265.836 299.203 265.883Z" fill="#F05454"/>
<rect x="282.5" y="250.5" width="23" height="22" rx="1.5" stroke="#F05454"/>
<path d="M47.8125 153.031C48.3125 153.906 47.6875 155 46.6875 155H33.3125C32.2812 155 31.6562 153.906 32.1875 153.031L38.8438 141.656C39.375 140.781 40.6562 140.781 41.125 141.656L47.8125 153.031Z" fill="#F05454"/>
<path d="M304 148C304 152.438 300.406 156 296 156C291.562 156 288 152.438 288 148C288 143.594 291.562 140 296 140C300.406 140 304 143.594 304 148Z" fill="#F05454"/>
</svg>
