<svg width="337" height="295" viewBox="0 0 337 295" fill="none" xmlns="http://www.w3.org/2000/svg">
<rect width="337" height="295" rx="4" fill="black"/>
<path d="M24.002 57V25.398H30.488V51.296H48.52V57H24.002ZM65.1504 57.552C62.2984 57.552 59.8604 57.092 57.8364 56.172C55.8431 55.2213 54.3251 53.8107 53.2824 51.94C52.2398 50.0693 51.7184 47.708 51.7184 44.856C51.7184 42.004 52.2398 39.658 53.2824 37.818C54.3251 35.9473 55.8431 34.552 57.8364 33.632C59.8604 32.6813 62.2984 32.206 65.1504 32.206C68.0638 32.206 70.5171 32.6813 72.5104 33.632C74.5038 34.552 76.0218 35.9473 77.0644 37.818C78.1071 39.658 78.6284 42.004 78.6284 44.856C78.6284 47.708 78.1071 50.0693 77.0644 51.94C76.0218 53.8107 74.5038 55.2213 72.5104 56.172C70.5171 57.092 68.0638 57.552 65.1504 57.552ZM65.1504 52.768C66.7758 52.768 68.1251 52.492 69.1984 51.94C70.2718 51.3573 71.0691 50.514 71.5904 49.41C72.1424 48.2753 72.4184 46.8953 72.4184 45.27V44.488C72.4184 42.832 72.1424 41.452 71.5904 40.348C71.0691 39.244 70.2718 38.416 69.1984 37.864C68.1251 37.2813 66.7758 36.99 65.1504 36.99C63.5558 36.99 62.2218 37.2813 61.1484 37.864C60.0751 38.416 59.2624 39.244 58.7104 40.348C58.1891 41.452 57.9284 42.832 57.9284 44.488V45.27C57.9284 46.8953 58.1891 48.2753 58.7104 49.41C59.2624 50.514 60.0751 51.3573 61.1484 51.94C62.2218 52.492 63.5558 52.768 65.1504 52.768ZM91.5455 57.552C90.4721 57.552 89.3988 57.4447 88.3255 57.23C87.2828 57.046 86.3168 56.7087 85.4275 56.218C84.5688 55.6967 83.8788 54.9913 83.3575 54.102C82.8361 53.182 82.5755 52.0013 82.5755 50.56C82.5755 48.7507 83.0201 47.3093 83.9095 46.236C84.8295 45.132 86.1175 44.304 87.7735 43.752C89.4601 43.1693 91.4228 42.786 93.6615 42.602C95.9308 42.418 98.3841 42.326 101.021 42.326V40.854C101.021 39.9647 100.837 39.2287 100.469 38.646C100.101 38.0633 99.5035 37.634 98.6755 37.358C97.8781 37.0513 96.7588 36.898 95.3175 36.898C94.0601 36.898 93.0021 37.0207 92.1435 37.266C91.2848 37.4807 90.6408 37.7873 90.2115 38.186C89.8128 38.554 89.6135 38.9833 89.6135 39.474V40.072H83.6795C83.6488 39.9493 83.6335 39.8267 83.6335 39.704C83.6335 39.5507 83.6335 39.382 83.6335 39.198C83.6335 37.7873 84.0935 36.5607 85.0135 35.518C85.9641 34.4753 87.3288 33.6627 89.1075 33.08C90.8861 32.4973 93.0328 32.206 95.5475 32.206C98.0928 32.206 100.209 32.4973 101.895 33.08C103.613 33.632 104.885 34.4907 105.713 35.656C106.572 36.8213 107.001 38.324 107.001 40.164V51.066C107.001 51.6487 107.139 52.078 107.415 52.354C107.722 52.63 108.121 52.768 108.611 52.768H110.543V56.77C110.237 56.8927 109.731 57.046 109.025 57.23C108.32 57.4447 107.507 57.552 106.587 57.552C105.514 57.552 104.625 57.3987 103.919 57.092C103.214 56.7853 102.677 56.3713 102.309 55.85C101.941 55.298 101.681 54.6693 101.527 53.964H101.205C100.5 54.7 99.6568 55.344 98.6755 55.896C97.7248 56.4173 96.6515 56.816 95.4555 57.092C94.2595 57.3987 92.9561 57.552 91.5455 57.552ZM93.2015 52.768C94.1521 52.768 95.0875 52.6453 96.0075 52.4C96.9275 52.1547 97.7708 51.8173 98.5375 51.388C99.3041 50.928 99.9021 50.376 100.331 49.732C100.791 49.0573 101.021 48.306 101.021 47.478V46.282C98.4148 46.282 96.1761 46.4047 94.3055 46.65C92.4655 46.8647 91.0548 47.2633 90.0735 47.846C89.1228 48.398 88.6475 49.1953 88.6475 50.238C88.6475 50.8513 88.8468 51.342 89.2455 51.71C89.6441 52.078 90.1808 52.354 90.8555 52.538C91.5608 52.6913 92.3428 52.768 93.2015 52.768ZM123.762 57.552C121.524 57.552 119.576 57.1073 117.92 56.218C116.264 55.298 114.976 53.9027 114.056 52.032C113.167 50.1307 112.722 47.754 112.722 44.902C112.722 41.9887 113.167 39.612 114.056 37.772C114.976 35.9013 116.234 34.506 117.828 33.586C119.454 32.666 121.309 32.206 123.394 32.206C124.621 32.206 125.756 32.344 126.798 32.62C127.841 32.896 128.776 33.2947 129.604 33.816C130.432 34.3373 131.138 34.9813 131.72 35.748H132.042V23.696H138.022V57H133.146L132.64 53.458H132.272C131.322 54.8993 130.11 55.942 128.638 56.586C127.166 57.23 125.541 57.552 123.762 57.552ZM125.464 52.446C126.906 52.446 128.117 52.17 129.098 51.618C130.08 51.0353 130.816 50.2073 131.306 49.134C131.797 48.0607 132.042 46.742 132.042 45.178V44.718C132.042 43.522 131.904 42.464 131.628 41.544C131.352 40.624 130.923 39.8573 130.34 39.244C129.788 38.6307 129.098 38.1553 128.27 37.818C127.442 37.4807 126.492 37.312 125.418 37.312C123.946 37.312 122.72 37.588 121.738 38.14C120.788 38.692 120.067 39.5047 119.576 40.578C119.116 41.6513 118.886 42.9853 118.886 44.58V45.224C118.886 46.8187 119.116 48.1527 119.576 49.226C120.067 50.2993 120.803 51.112 121.784 51.664C122.766 52.1853 123.992 52.446 125.464 52.446ZM144.282 28.94V23.696H150.262V28.94H144.282ZM144.282 57V32.758H150.262V57H144.282ZM156.546 57V32.758H161.468L161.928 36.484H162.296C163.032 35.5027 163.875 34.7053 164.826 34.092C165.777 33.448 166.804 32.9727 167.908 32.666C169.043 32.3593 170.193 32.206 171.358 32.206C173.29 32.206 174.931 32.528 176.28 33.172C177.629 33.816 178.672 34.8127 179.408 36.162C180.144 37.4807 180.512 39.2133 180.512 41.36V57H174.486V42.418C174.486 41.4673 174.363 40.67 174.118 40.026C173.873 39.382 173.505 38.8607 173.014 38.462C172.554 38.0633 172.002 37.7873 171.358 37.634C170.714 37.45 169.978 37.358 169.15 37.358C167.985 37.358 166.896 37.6187 165.884 38.14C164.872 38.6613 164.059 39.382 163.446 40.302C162.833 41.222 162.526 42.3107 162.526 43.568V57H156.546ZM191.383 65.74C190.125 65.74 188.945 65.5407 187.841 65.142C186.767 64.7433 185.893 64.1147 185.219 63.256C184.575 62.428 184.253 61.3393 184.253 59.99C184.253 58.7327 184.651 57.6747 185.449 56.816C186.277 55.9573 187.258 55.3287 188.393 54.93C187.565 54.5007 186.921 53.9333 186.461 53.228C186.031 52.492 185.817 51.664 185.817 50.744C185.817 49.548 186.246 48.5513 187.105 47.754C187.963 46.926 189.037 46.4047 190.325 46.19C189.129 45.5153 188.209 44.6567 187.565 43.614C186.921 42.5713 186.599 41.4213 186.599 40.164C186.599 38.3853 187.059 36.9133 187.979 35.748C188.899 34.5827 190.248 33.7087 192.027 33.126C193.836 32.5127 196.044 32.206 198.651 32.206C199.663 32.206 200.629 32.2673 201.549 32.39C202.469 32.5127 203.327 32.6813 204.125 32.896C205.382 32.252 206.302 31.5313 206.885 30.734C207.498 29.9367 207.851 29.2467 207.943 28.664H213.693C213.662 29.7373 213.417 30.688 212.957 31.516C212.497 32.344 211.868 33.034 211.071 33.586C210.273 34.138 209.292 34.5367 208.127 34.782C208.955 35.426 209.583 36.208 210.013 37.128C210.473 38.0173 210.703 39.0293 210.703 40.164C210.703 41.8507 210.273 43.292 209.415 44.488C208.556 45.6533 207.299 46.5427 205.643 47.156C203.987 47.7693 201.932 48.076 199.479 48.076H194.373C193.606 48.076 193.008 48.2293 192.579 48.536C192.149 48.8427 191.935 49.2567 191.935 49.778C191.935 50.2687 192.134 50.6827 192.533 51.02C192.962 51.3573 193.591 51.526 194.419 51.526H206.793C208.847 51.526 210.473 52.17 211.669 53.458C212.895 54.7153 213.509 56.31 213.509 58.242C213.509 59.714 213.125 61.002 212.359 62.106C211.623 63.2407 210.595 64.13 209.277 64.774C207.989 65.418 206.501 65.74 204.815 65.74H191.383ZM192.901 61.508H204.631C205.183 61.508 205.673 61.4007 206.103 61.186C206.532 61.002 206.869 60.7107 207.115 60.312C207.36 59.944 207.483 59.5147 207.483 59.024C207.483 58.2267 207.222 57.6133 206.701 57.184C206.179 56.7853 205.551 56.586 204.815 56.586H193.039C192.241 56.586 191.582 56.7853 191.061 57.184C190.539 57.6133 190.279 58.2113 190.279 58.978C190.279 59.7447 190.524 60.358 191.015 60.818C191.505 61.278 192.134 61.508 192.901 61.508ZM198.651 43.89C200.552 43.89 202.024 43.5987 203.067 43.016C204.14 42.4027 204.677 41.452 204.677 40.164C204.677 38.8453 204.14 37.8947 203.067 37.312C202.024 36.6987 200.552 36.392 198.651 36.392C196.749 36.392 195.262 36.6987 194.189 37.312C193.146 37.8947 192.625 38.8453 192.625 40.164C192.625 41.0533 192.855 41.774 193.315 42.326C193.775 42.878 194.449 43.2767 195.339 43.522C196.259 43.7673 197.363 43.89 198.651 43.89ZM24.002 101V69.398H52.43V74.918H30.488V82.14H50.038V87.66H30.488V95.526H52.752V101H24.002ZM56.0841 101L66.2041 88.442L56.7281 76.758H64.2261L70.2061 84.394H70.5281L76.5081 76.758H83.5461L74.0241 88.442L84.0981 101H76.6921L70.0681 92.536H69.7461L63.1221 101H56.0841ZM87.1417 109.28V76.758H92.0177L92.5237 80.3H92.8917C93.873 78.8893 95.0843 77.862 96.5257 77.218C97.9977 76.5433 99.623 76.206 101.402 76.206C103.671 76.206 105.618 76.666 107.244 77.586C108.9 78.506 110.188 79.9013 111.108 81.772C112.028 83.6427 112.488 86.0193 112.488 88.902C112.488 91.754 112.028 94.1307 111.108 96.032C110.188 97.9027 108.93 99.298 107.336 100.218C105.741 101.107 103.886 101.552 101.77 101.552C100.574 101.552 99.439 101.414 98.3657 101.138C97.323 100.893 96.3877 100.509 95.5597 99.988C94.7317 99.4667 94.0263 98.8227 93.4437 98.056H93.1217V109.28H87.1417ZM99.7457 96.446C101.248 96.446 102.475 96.1853 103.426 95.664C104.376 95.112 105.097 94.2993 105.588 93.226C106.078 92.1527 106.324 90.8187 106.324 89.224V88.58C106.324 86.9853 106.078 85.6513 105.588 84.578C105.097 83.474 104.361 82.6613 103.38 82.14C102.398 81.588 101.172 81.312 99.6997 81.312C98.289 81.312 97.093 81.6033 96.1117 82.186C95.1303 82.738 94.379 83.566 93.8577 84.67C93.367 85.7433 93.1217 87.0773 93.1217 88.672V89.086C93.1217 90.2513 93.2597 91.294 93.5357 92.214C93.8423 93.134 94.2717 93.916 94.8237 94.56C95.3757 95.1733 96.0657 95.6487 96.8937 95.986C97.7217 96.2927 98.6723 96.446 99.7457 96.446ZM130.018 101.552C127.135 101.552 124.697 101.107 122.704 100.218C120.71 99.298 119.192 97.9027 118.15 96.032C117.107 94.1613 116.586 91.7847 116.586 88.902C116.586 86.05 117.092 83.6887 118.104 81.818C119.146 79.9473 120.664 78.552 122.658 77.632C124.651 76.6813 127.058 76.206 129.88 76.206C132.67 76.206 135.016 76.666 136.918 77.586C138.819 78.506 140.245 79.8707 141.196 81.68C142.146 83.4587 142.622 85.7127 142.622 88.442V90.374H122.796C122.888 91.8767 123.21 93.1187 123.762 94.1C124.344 95.0507 125.157 95.756 126.2 96.216C127.273 96.6453 128.576 96.86 130.11 96.86C130.815 96.86 131.536 96.7833 132.272 96.63C133.008 96.446 133.682 96.1853 134.296 95.848C134.94 95.5107 135.461 95.0813 135.86 94.56C136.258 94.008 136.488 93.3487 136.55 92.582H142.53C142.53 93.962 142.238 95.204 141.656 96.308C141.073 97.412 140.23 98.3627 139.126 99.16C138.022 99.9267 136.703 100.525 135.17 100.954C133.636 101.353 131.919 101.552 130.018 101.552ZM122.842 86.28H136.366C136.366 85.3293 136.197 84.5167 135.86 83.842C135.522 83.1673 135.062 82.6153 134.48 82.186C133.897 81.7567 133.222 81.45 132.456 81.266C131.689 81.0513 130.846 80.944 129.926 80.944C128.546 80.944 127.334 81.1433 126.292 81.542C125.28 81.91 124.482 82.4927 123.9 83.29C123.348 84.0873 122.995 85.084 122.842 86.28ZM147.831 101V76.758H152.753L153.213 80.852H153.535C153.872 80.024 154.317 79.2727 154.869 78.598C155.421 77.8927 156.111 77.3253 156.939 76.896C157.767 76.436 158.748 76.206 159.883 76.206C160.404 76.206 160.895 76.252 161.355 76.344C161.846 76.436 162.26 76.5433 162.597 76.666V82.094H160.113C159.04 82.094 158.104 82.2627 157.307 82.6C156.51 82.9373 155.85 83.428 155.329 84.072C154.808 84.716 154.424 85.452 154.179 86.28C153.934 87.108 153.811 88.0127 153.811 88.994V101H147.831ZM166.339 72.94V67.696H172.319V72.94H166.339ZM166.339 101V76.758H172.319V101H166.339ZM190.977 101.552C188.094 101.552 185.656 101.107 183.663 100.218C181.669 99.298 180.151 97.9027 179.109 96.032C178.066 94.1613 177.545 91.7847 177.545 88.902C177.545 86.05 178.051 83.6887 179.063 81.818C180.105 79.9473 181.623 78.552 183.617 77.632C185.61 76.6813 188.017 76.206 190.839 76.206C193.629 76.206 195.975 76.666 197.877 77.586C199.778 78.506 201.204 79.8707 202.155 81.68C203.105 83.4587 203.581 85.7127 203.581 88.442V90.374H183.755C183.847 91.8767 184.169 93.1187 184.721 94.1C185.303 95.0507 186.116 95.756 187.159 96.216C188.232 96.6453 189.535 96.86 191.069 96.86C191.774 96.86 192.495 96.7833 193.231 96.63C193.967 96.446 194.641 96.1853 195.255 95.848C195.899 95.5107 196.42 95.0813 196.819 94.56C197.217 94.008 197.447 93.3487 197.509 92.582H203.489C203.489 93.962 203.197 95.204 202.615 96.308C202.032 97.412 201.189 98.3627 200.085 99.16C198.981 99.9267 197.662 100.525 196.129 100.954C194.595 101.353 192.878 101.552 190.977 101.552ZM183.801 86.28H197.325C197.325 85.3293 197.156 84.5167 196.819 83.842C196.481 83.1673 196.021 82.6153 195.439 82.186C194.856 81.7567 194.181 81.45 193.415 81.266C192.648 81.0513 191.805 80.944 190.885 80.944C189.505 80.944 188.293 81.1433 187.251 81.542C186.239 81.91 185.441 82.4927 184.859 83.29C184.307 84.0873 183.954 85.084 183.801 86.28ZM208.79 101V76.758H213.712L214.172 80.484H214.54C215.276 79.5027 216.119 78.7053 217.07 78.092C218.021 77.448 219.048 76.9727 220.152 76.666C221.287 76.3593 222.437 76.206 223.602 76.206C225.534 76.206 227.175 76.528 228.524 77.172C229.873 77.816 230.916 78.8127 231.652 80.162C232.388 81.4807 232.756 83.2133 232.756 85.36V101H226.73V86.418C226.73 85.4673 226.607 84.67 226.362 84.026C226.117 83.382 225.749 82.8607 225.258 82.462C224.798 82.0633 224.246 81.7873 223.602 81.634C222.958 81.45 222.222 81.358 221.394 81.358C220.229 81.358 219.14 81.6187 218.128 82.14C217.116 82.6613 216.303 83.382 215.69 84.302C215.077 85.222 214.77 86.3107 214.77 87.568V101H208.79ZM250.895 101.552C248.074 101.552 245.682 101.092 243.719 100.172C241.756 99.252 240.269 97.8567 239.257 95.986C238.276 94.0847 237.785 91.708 237.785 88.856C237.785 86.004 238.291 83.658 239.303 81.818C240.315 79.9473 241.787 78.552 243.719 77.632C245.682 76.6813 248.074 76.206 250.895 76.206C252.674 76.206 254.299 76.4207 255.771 76.85C257.274 77.2487 258.577 77.862 259.681 78.69C260.785 79.518 261.628 80.5453 262.211 81.772C262.794 82.9987 263.085 84.4247 263.085 86.05H257.013C257.013 84.9153 256.752 83.98 256.231 83.244C255.71 82.508 254.989 81.956 254.069 81.588C253.149 81.1893 252.076 80.99 250.849 80.99C249.377 80.99 248.12 81.2813 247.077 81.864C246.034 82.416 245.252 83.244 244.731 84.348C244.21 85.452 243.949 86.832 243.949 88.488V89.27C243.949 90.8953 244.21 92.2753 244.731 93.41C245.283 94.5447 246.08 95.4033 247.123 95.986C248.196 96.538 249.515 96.814 251.079 96.814C252.275 96.814 253.333 96.6147 254.253 96.216C255.173 95.8173 255.909 95.2347 256.461 94.468C257.013 93.7013 257.289 92.7813 257.289 91.708H263.085C263.085 93.3027 262.778 94.7287 262.165 95.986C261.582 97.2127 260.754 98.24 259.681 99.068C258.608 99.896 257.32 100.525 255.817 100.954C254.314 101.353 252.674 101.552 250.895 101.552ZM280.641 101.552C277.758 101.552 275.32 101.107 273.327 100.218C271.333 99.298 269.815 97.9027 268.773 96.032C267.73 94.1613 267.209 91.7847 267.209 88.902C267.209 86.05 267.715 83.6887 268.727 81.818C269.769 79.9473 271.287 78.552 273.281 77.632C275.274 76.6813 277.681 76.206 280.503 76.206C283.293 76.206 285.639 76.666 287.541 77.586C289.442 78.506 290.868 79.8707 291.819 81.68C292.769 83.4587 293.245 85.7127 293.245 88.442V90.374H273.419C273.511 91.8767 273.833 93.1187 274.385 94.1C274.967 95.0507 275.78 95.756 276.823 96.216C277.896 96.6453 279.199 96.86 280.733 96.86C281.438 96.86 282.159 96.7833 282.895 96.63C283.631 96.446 284.305 96.1853 284.919 95.848C285.563 95.5107 286.084 95.0813 286.483 94.56C286.881 94.008 287.111 93.3487 287.173 92.582H293.153C293.153 93.962 292.861 95.204 292.279 96.308C291.696 97.412 290.853 98.3627 289.749 99.16C288.645 99.9267 287.326 100.525 285.793 100.954C284.259 101.353 282.542 101.552 280.641 101.552ZM273.465 86.28H286.989C286.989 85.3293 286.82 84.5167 286.483 83.842C286.145 83.1673 285.685 82.6153 285.103 82.186C284.52 81.7567 283.845 81.45 283.079 81.266C282.312 81.0513 281.469 80.944 280.549 80.944C279.169 80.944 277.957 81.1433 276.915 81.542C275.903 81.91 275.105 82.4927 274.523 83.29C273.971 84.0873 273.618 85.084 273.465 86.28Z" fill="white"/>
<rect x="22" y="133" width="112" height="24" rx="2" fill="#f05454"/>
<rect x="22.5" y="133.5" width="283" height="23" rx="1.5" stroke="#f05454"/>
<rect x="22" y="169" width="24" height="23" rx="2" fill="#f05454"/>
<path d="M39.25 177.5C39.25 177.711 39.1562 177.898 39.0156 178.039L33.0156 184.039C32.875 184.18 32.6875 184.25 32.5 184.25C32.2891 184.25 32.1016 184.18 31.9609 184.039L28.9609 181.039C28.8203 180.898 28.75 180.711 28.75 180.5C28.75 180.078 29.0781 179.75 29.5 179.75C29.6875 179.75 29.875 179.844 30.0156 179.984L32.5 182.445L37.9609 176.984C38.1016 176.844 38.2891 176.75 38.5 176.75C38.8984 176.75 39.25 177.078 39.25 177.5Z" fill="black"/>
<path d="M40 205.5C40 208.828 37.3047 211.5 34 211.5C30.6719 211.5 28 208.828 28 205.5C28 202.875 29.7578 200.508 32.2656 199.758C32.6641 199.641 33.0859 199.875 33.2031 200.273C33.3203 200.672 33.1094 201.07 32.7109 201.188C30.8125 201.75 29.5 203.531 29.5 205.5C29.5 207.984 31.5156 210 34 210C36.4609 210 38.5 207.984 38.5 205.5C38.5 203.531 37.1641 201.75 35.2656 201.188C34.8672 201.07 34.6562 200.672 34.7734 200.273C34.8906 199.875 35.3125 199.641 35.7109 199.758C38.2188 200.508 40 202.875 40 205.5Z" fill="#f05454"/>
<rect x="22.5" y="194.5" width="23" height="22" rx="1.5" stroke="#f05454"/>
<path d="M34.6328 226.047C34.2578 226 34 225.695 34 225.32C34 224.875 34.3984 224.5 34.8438 224.57C37.75 224.992 40 227.5 40 230.5C40 231.297 39.8359 232.047 39.5547 232.727C39.3906 233.148 38.875 233.312 38.5 233.078C38.1719 232.891 38.0312 232.516 38.1719 232.164C38.3828 231.648 38.5 231.086 38.5 230.5C38.5 228.25 36.8125 226.375 34.6328 226.047Z" fill="#f05454"/>
<rect x="22.5" y="219.5" width="23" height="22" rx="1.5" stroke="#f05454"/>
<path d="M34.6328 251.047C34.2578 251 34 250.695 34 250.32C34 249.875 34.3984 249.5 34.8438 249.57C37.75 249.992 40 252.5 40 255.5C40 256.297 39.8359 257.047 39.5547 257.727C39.3906 258.148 38.875 258.312 38.5 258.078C38.1719 257.891 38.0312 257.516 38.1719 257.164C38.3828 256.648 38.5 256.086 38.5 255.5C38.5 253.25 36.8125 251.375 34.6328 251.047Z" fill="#f05454"/>
<path d="M34.6328 259.953C34.2578 260 34 260.305 34 260.68C34 261.125 34.3984 261.5 34.8438 261.43C37.75 261.008 40 258.5 40 255.5C40 254.703 39.8359 253.953 39.5547 253.273C39.3906 252.852 38.875 252.688 38.5 252.922C38.1719 253.109 38.0312 253.484 38.1719 253.836C38.3828 254.352 38.5 254.914 38.5 255.5C38.5 257.75 36.8125 259.625 34.6328 259.953Z" fill="#f05454"/>
<path d="M34.7742 259.931C35.1453 259.859 35.4847 260.07 35.6006 260.426C35.7382 260.85 35.4751 261.329 35.0299 261.4C32.1355 261.897 29.2207 260.207 28.2936 257.354C28.0474 256.596 27.9716 255.832 28.0291 255.099C28.0548 254.647 28.4944 254.332 28.9235 254.439C29.2935 254.516 29.5431 254.829 29.518 255.207C29.4768 255.762 29.5391 256.333 29.7202 256.891C30.4155 259.03 32.5998 260.292 34.7742 259.931Z" fill="#f05454"/>
<rect x="22.5" y="244.5" width="23" height="23" rx="1.5" stroke="#f05454"/>
<path d="M277.5 163.75V171.25C277.5 172.07 276.82 172.75 276 172.75H268.5C267.656 172.75 267 172.07 267 171.25V163.75C267 162.906 267.656 162.25 268.5 162.25H276C276.82 162.25 277.5 162.93 277.5 163.75Z" fill="#f05454"/>
<path d="M292 167.5C292 170.828 289.305 173.5 286 173.5C282.672 173.5 280 170.828 280 167.5C280 164.195 282.672 161.5 286 161.5C289.305 161.5 292 164.195 292 167.5Z" fill="#f05454"/>
<path d="M305.859 171.273C306.234 171.93 305.766 172.75 305.016 172.75H294.984C294.211 172.75 293.742 171.93 294.141 171.273L299.133 162.742C299.531 162.086 300.492 162.086 300.844 162.742L305.859 171.273Z" fill="#f05454"/>
</svg>
