<svg width="337" height="295" viewBox="0 0 337 295" fill="none" xmlns="http://www.w3.org/2000/svg">
<rect width="337" height="295" rx="4" fill="#30475E"/>
<path d="M50.6464 205.354C50.8417 205.549 51.1583 205.549 51.3536 205.354L54.5355 202.172C54.7308 201.976 54.7308 201.66 54.5355 201.464C54.3403 201.269 54.0237 201.269 53.8284 201.464L51 204.293L48.1716 201.464C47.9763 201.269 47.6597 201.269 47.4645 201.464C47.2692 201.66 47.2692 201.976 47.4645 202.172L50.6464 205.354ZM50.5 156L50.5 205L51.5 205L51.5 156L50.5 156Z" fill="#F05454"/>
<path d="M34.544 28.36C27.008 28.36 22.448 31.768 22.448 37.336V37.912C22.448 43.48 26.336 45.64 33.104 47.176C39.488 48.664 41.648 49.72 41.648 52.216V52.648C41.648 55.096 39.44 56.584 35.12 56.584H34.592C30.272 56.584 28.016 55.096 28.016 51.544V49.192H21.968V51.496C21.968 57.64 26.144 61.48 34.544 61.48H35.12C43.568 61.48 47.744 57.64 47.744 52.6V52.12C47.744 46.744 44 44.488 36.752 42.616C30.464 41.032 28.496 40.312 28.496 37.768V37.24C28.496 34.936 30.704 33.256 34.544 33.256H35.072C38.912 33.256 41.12 35.032 41.12 37.864V40.264H47.168V37.864C47.168 31.816 42.176 28.36 35.12 28.36H34.544ZM63.0628 36.184C56.3428 36.184 52.7428 39.448 52.7428 44.92H58.5028C58.5028 41.944 60.5668 40.696 63.0628 40.696H63.6388C66.4708 40.696 68.1988 41.944 68.1988 44.968V46.744H61.8148C54.9988 46.744 52.0228 49.528 52.0228 54.088C52.0228 59.272 55.6228 61.48 59.9428 61.48C63.2548 61.48 65.4628 60.472 67.2388 58.168H68.1988V61H74.0548V44.968C74.0548 39.448 70.6468 36.184 63.6388 36.184H63.0628ZM62.2948 50.44H68.1988V51.16C68.1988 55.336 65.3188 56.872 62.0068 56.872C59.2708 56.872 57.8308 55.72 57.8308 53.656C57.8308 51.592 59.1268 50.44 62.2948 50.44ZM77.1084 36.664L85.4124 61H93.6684L101.876 36.664H96.4524L90.4044 54.664H89.2524L83.1084 36.664H77.1084ZM105.284 36.664V61H111.188V36.664H105.284ZM108.02 26.488C106.244 26.488 104.948 27.736 104.948 29.272V29.512C104.948 31.096 106.244 32.296 108.02 32.296H108.452C110.228 32.296 111.524 31.096 111.524 29.512V29.272C111.524 27.736 110.228 26.488 108.452 26.488H108.02ZM116.768 36.664V61H122.672V46.84C122.672 43.096 124.544 41.272 127.712 41.272H128.288C131.408 41.272 133.28 43.096 133.28 46.84V61H139.184V45.784C139.184 39.16 135.776 36.184 131.024 36.184H130.448C127.424 36.184 125.024 37.432 123.632 39.592H122.672V36.664H116.768ZM154.55 36.184C148.454 36.184 144.47 39.736 144.47 44.728V45.208C144.47 47.704 145.526 49.912 147.302 51.352V52.168C145.814 52.792 144.806 54.088 144.806 55.72C144.806 57.208 145.478 58.504 147.302 59.272V60.328C144.71 61.24 142.838 63.064 142.838 65.944V66.376C142.838 70.312 147.11 73 154.742 73H155.654C163.382 73 167.75 70.168 167.75 65.224V64.744C167.75 59.56 163.478 57.16 155.798 57.16H154.598C150.71 57.16 150.278 55.816 150.278 54.856C150.278 54.136 150.614 53.608 150.95 53.32C152.15 53.656 153.398 53.848 154.55 53.848H155.126C161.27 53.848 165.206 50.44 165.206 45.208V44.728C165.206 43.192 164.822 41.8 164.15 40.6L168.566 40.84V36.664H158.774C157.67 36.328 156.47 36.184 155.126 36.184H154.55ZM154.55 40.552H155.078C157.814 40.552 159.446 42.136 159.446 44.632V45.304C159.446 47.8 157.814 49.48 155.078 49.48H154.55C151.814 49.48 150.23 47.8 150.23 45.304V44.632C150.23 42.136 151.814 40.552 154.55 40.552ZM154.886 61.528H155.606C159.686 61.528 161.99 62.584 161.99 64.84V65.224C161.99 67.48 159.686 68.632 155.606 68.632H154.886C150.806 68.632 148.55 67.48 148.55 65.224V64.84C148.55 62.584 150.806 61.528 154.886 61.528ZM22.544 74.84V94.808C22.544 103.544 27.488 107.48 35.264 107.48H35.888C43.712 107.48 48.656 103.544 48.656 94.808V74.84H42.56V94.904C42.56 99.32 40.88 102.152 35.888 102.152H35.264C30.32 102.152 28.64 99.32 28.64 94.904V74.84H22.544ZM51.8015 74.84L61.9775 90.872L51.8495 107H58.1855L65.3375 95.528H66.8735L74.2655 107H81.2255L70.6655 90.68L80.5535 74.84H74.2175L67.3535 85.88H65.8175L58.7615 74.84H51.8015ZM94.7428 74.84V107H100.839V95.672H107.847C115.623 95.672 119.223 92.216 119.223 86.12V84.44C119.223 78.104 115.623 74.84 107.847 74.84H94.7428ZM100.839 79.928H107.607C111.255 79.928 113.079 81.368 113.079 84.584V85.976C113.079 89.288 111.255 90.536 107.607 90.536H100.839V79.928ZM133.282 82.184C126.562 82.184 122.962 85.448 122.962 90.92H128.722C128.722 87.944 130.786 86.696 133.282 86.696H133.858C136.69 86.696 138.418 87.944 138.418 90.968V92.744H132.034C125.218 92.744 122.242 95.528 122.242 100.088C122.242 105.272 125.842 107.48 130.162 107.48C133.474 107.48 135.682 106.472 137.458 104.168H138.418V107H144.274V90.968C144.274 85.448 140.866 82.184 133.858 82.184H133.282ZM132.514 96.44H138.418V97.16C138.418 101.336 135.538 102.872 132.226 102.872C129.49 102.872 128.05 101.72 128.05 99.656C128.05 97.592 129.346 96.44 132.514 96.44ZM150.829 75.8V82.664H147.421V87.224H150.829V99.416C150.829 105.176 154.717 107.48 159.661 107.48H160.237C165.085 107.48 168.493 105.176 168.493 99.416V96.968H163.213V99.416C163.213 101.624 162.253 102.824 160.285 102.824H159.709C157.741 102.824 156.685 101.624 156.685 99.416V87.224H167.293V82.664H156.685V75.8H150.829ZM172.391 75.8V82.664H168.983V87.224H172.391V99.416C172.391 105.176 176.279 107.48 181.223 107.48H181.799C186.647 107.48 190.055 105.176 190.055 99.416V96.968H184.775V99.416C184.775 101.624 183.815 102.824 181.847 102.824H181.271C179.303 102.824 178.247 101.624 178.247 99.416V87.224H188.855V82.664H178.247V75.8H172.391ZM205.198 82.184C198.622 82.184 193.726 85.832 193.726 93.224V96.536C193.726 103.88 198.622 107.48 205.198 107.48H205.774C212.542 107.48 216.382 104.36 216.958 99.176H211.534C210.958 101.576 209.23 103.016 205.774 103.016H205.198C201.598 103.016 199.438 101 199.438 96.776V96.44H217.246V93.224C217.246 85.832 212.398 82.184 205.774 82.184H205.198ZM205.15 86.648H205.726C209.086 86.648 211.39 88.568 211.534 92.168H199.438C199.582 88.52 201.646 86.648 205.15 86.648ZM222.331 82.664V107H228.235V91.736C228.235 88.952 229.339 87.272 232.219 87.272C235.051 87.272 236.203 88.952 236.203 91.736V92.36H241.675V90.968C241.675 84.632 239.179 82.184 235.003 82.184C232.219 82.184 230.395 83.336 229.195 85.352H228.235V82.664H222.331ZM245.581 82.664V107H251.485V92.84C251.485 89.096 253.357 87.272 256.525 87.272H257.101C260.221 87.272 262.093 89.096 262.093 92.84V107H267.997V91.784C267.997 85.16 264.589 82.184 259.837 82.184H259.261C256.237 82.184 253.837 83.432 252.445 85.592H251.485V82.664H245.581ZM282.739 82.184C276.595 82.184 272.755 85.112 272.755 89.336V89.72C272.755 94.136 276.115 95.912 281.683 96.872C286.243 97.784 287.827 98.504 287.827 100.52C287.827 102.296 286.387 103.208 283.363 103.208H282.787C280.099 103.208 278.083 102.248 278.083 99.464V98.984H272.371V99.32C272.371 104.984 276.595 107.48 282.787 107.48H283.363C289.651 107.48 293.587 104.936 293.587 100.424V100.088C293.587 96.248 291.091 94.088 284.563 92.792C280.243 91.976 278.515 91.352 278.515 89.336C278.515 87.176 280.387 86.408 282.739 86.408H283.315C285.619 86.408 287.635 87.224 287.635 90.2V90.728H293.347V90.248C293.347 85.112 289.459 82.184 283.315 82.184H282.739Z" fill="white"/>
<rect x="20" y="133" width="62" height="23" rx="2" fill="#F05454"/>
<path d="M56.8594 148.273C57.2344 148.93 56.7656 149.75 56.0156 149.75H45.9844C45.2109 149.75 44.7422 148.93 45.1406 148.273L50.1328 139.742C50.5312 139.086 51.4922 139.086 51.8438 139.742L56.8594 148.273Z" fill="#30475E"/>
<rect x="20" y="169" width="62" height="23" rx="2" fill="#F05454"/>
<path d="M57 180.5C57 183.828 54.3047 186.5 51 186.5C47.6719 186.5 45 183.828 45 180.5C45 177.875 46.7578 175.508 49.2656 174.758C49.6641 174.641 50.0859 174.875 50.2031 175.273C50.3203 175.672 50.1094 176.07 49.7109 176.188C47.8125 176.75 46.5 178.531 46.5 180.5C46.5 182.984 48.5156 185 51 185C53.4609 185 55.5 182.984 55.5 180.5C55.5 178.531 54.1641 176.75 52.2656 176.188C51.8672 176.07 51.6562 175.672 51.7734 175.273C51.8906 174.875 52.3125 174.641 52.7109 174.758C55.2188 175.508 57 177.875 57 180.5Z" fill="#30475E"/>
<rect x="20" y="205" width="62" height="23" rx="2" fill="#F05454"/>
<path d="M56.25 213.5C56.25 213.711 56.1562 213.898 56.0156 214.039L50.0156 220.039C49.875 220.18 49.6875 220.25 49.5 220.25C49.2891 220.25 49.1016 220.18 48.9609 220.039L45.9609 217.039C45.8203 216.898 45.75 216.711 45.75 216.5C45.75 216.078 46.0781 215.75 46.5 215.75C46.6875 215.75 46.875 215.844 47.0156 215.984L49.5 218.445L54.9609 212.984C55.1016 212.844 55.2891 212.75 55.5 212.75C55.8984 212.75 56.25 213.078 56.25 213.5Z" fill="#30475E"/>
<path d="M240 139.25H232.5C231.656 139.25 231 139.906 231 140.727V148.227C231 149.047 231.656 149.727 232.5 149.727H240C240.82 149.727 241.5 149.047 241.5 148.227V140.727C241.5 139.93 240.82 139.25 240 139.25ZM240.375 148.25C240.375 148.461 240.188 148.625 240 148.625H232.5C232.289 148.625 232.125 148.461 232.125 148.25V140.75C232.125 140.562 232.289 140.375 232.5 140.375H240C240.188 140.375 240.375 140.562 240.375 140.75V148.25Z" fill="#F05454"/>
<path d="M250 138.5C246.672 138.5 244 141.195 244 144.5C244 147.828 246.672 150.5 250 150.5C253.305 150.5 256 147.828 256 144.5C256 141.195 253.305 138.5 250 138.5ZM250 149.375C247.305 149.375 245.125 147.195 245.125 144.5C245.125 141.828 247.305 139.625 250 139.625C252.672 139.625 254.875 141.828 254.875 144.5C254.875 147.195 252.672 149.375 250 149.375Z" fill="#F05454"/>
<path d="M263.977 140.492L268.758 148.625H259.219L263.977 140.492ZM263.977 139.25C263.648 139.25 263.32 139.414 263.109 139.742L258.094 148.273C257.719 148.93 258.211 149.75 258.961 149.75H268.992C269.766 149.75 270.234 148.93 269.836 148.273L264.844 139.742C264.656 139.414 264.328 139.25 263.977 139.25Z" fill="#F05454"/>
<path d="M316.312 147.289C316.523 147.523 316.523 147.875 316.312 148.086C316.078 148.32 315.727 148.32 315.516 148.086L312.75 145.297L309.961 148.086C309.727 148.32 309.375 148.32 309.164 148.086C308.93 147.875 308.93 147.523 309.164 147.289L311.953 144.5L309.164 141.711C308.93 141.477 308.93 141.125 309.164 140.914C309.375 140.68 309.727 140.68 309.938 140.914L312.75 143.727L315.539 140.938C315.75 140.703 316.102 140.703 316.312 140.938C316.547 141.148 316.547 141.5 316.312 141.734L313.523 144.5L316.312 147.289Z" fill="#F05454"/>
<rect x="225.5" y="133.5" width="97" height="22" rx="1.5" stroke="#F05454"/>
</svg>
