<svg width="337" height="295" viewBox="0 0 337 295" fill="none" xmlns="http://www.w3.org/2000/svg">
<rect width="337" height="295" rx="4" fill="#30475E"/>
<path d="M23.024 28.84V61H35.216C44.336 61 48.992 56.968 48.992 47.8V42.136C48.992 32.968 44.288 28.84 35.216 28.84H23.024ZM29.072 33.928H35.216C40.544 33.928 42.896 36.568 42.896 42.136V47.8C42.896 53.368 40.496 55.912 35.216 55.912H29.072V33.928ZM64.9479 36.184C58.3719 36.184 53.4759 39.832 53.4759 47.224V50.536C53.4759 57.88 58.3719 61.48 64.9479 61.48H65.5239C72.2919 61.48 76.1319 58.36 76.7079 53.176H71.2839C70.7079 55.576 68.9799 57.016 65.5239 57.016H64.9479C61.3479 57.016 59.1879 55 59.1879 50.776V50.44H76.9959V47.224C76.9959 39.832 72.1479 36.184 65.5239 36.184H64.9479ZM64.8999 40.648H65.4759C68.8359 40.648 71.1399 42.568 71.2839 46.168H59.1879C59.3319 42.52 61.3959 40.648 64.8999 40.648ZM91.4889 36.184C85.3449 36.184 81.5049 39.112 81.5049 43.336V43.72C81.5049 48.136 84.8649 49.912 90.4329 50.872C94.9929 51.784 96.5769 52.504 96.5769 54.52C96.5769 56.296 95.1369 57.208 92.1129 57.208H91.5369C88.8489 57.208 86.8329 56.248 86.8329 53.464V52.984H81.1209V53.32C81.1209 58.984 85.3449 61.48 91.5369 61.48H92.1129C98.4009 61.48 102.337 58.936 102.337 54.424V54.088C102.337 50.248 99.8409 48.088 93.3129 46.792C88.9929 45.976 87.2649 45.352 87.2649 43.336C87.2649 41.176 89.1369 40.408 91.4889 40.408H92.0649C94.3689 40.408 96.3849 41.224 96.3849 44.2V44.728H102.097V44.248C102.097 39.112 98.2089 36.184 92.0649 36.184H91.4889ZM106.925 36.664V61H112.829V36.664H106.925ZM109.661 26.488C107.885 26.488 106.589 27.736 106.589 29.272V29.512C106.589 31.096 107.885 32.296 109.661 32.296H110.093C111.869 32.296 113.165 31.096 113.165 29.512V29.272C113.165 27.736 111.869 26.488 110.093 26.488H109.661ZM128.441 36.184C122.345 36.184 118.361 39.736 118.361 44.728V45.208C118.361 47.704 119.417 49.912 121.193 51.352V52.168C119.705 52.792 118.697 54.088 118.697 55.72C118.697 57.208 119.369 58.504 121.193 59.272V60.328C118.601 61.24 116.729 63.064 116.729 65.944V66.376C116.729 70.312 121.001 73 128.633 73H129.545C137.273 73 141.641 70.168 141.641 65.224V64.744C141.641 59.56 137.369 57.16 129.689 57.16H128.489C124.601 57.16 124.169 55.816 124.169 54.856C124.169 54.136 124.505 53.608 124.841 53.32C126.041 53.656 127.289 53.848 128.441 53.848H129.017C135.161 53.848 139.097 50.44 139.097 45.208V44.728C139.097 43.192 138.713 41.8 138.041 40.6L142.457 40.84V36.664H132.665C131.561 36.328 130.361 36.184 129.017 36.184H128.441ZM128.441 40.552H128.969C131.705 40.552 133.337 42.136 133.337 44.632V45.304C133.337 47.8 131.705 49.48 128.969 49.48H128.441C125.705 49.48 124.121 47.8 124.121 45.304V44.632C124.121 42.136 125.705 40.552 128.441 40.552ZM128.777 61.528H129.497C133.577 61.528 135.881 62.584 135.881 64.84V65.224C135.881 67.48 133.577 68.632 129.497 68.632H128.777C124.697 68.632 122.441 67.48 122.441 65.224V64.84C122.441 62.584 124.697 61.528 128.777 61.528ZM145.362 36.664V61H151.266V46.84C151.266 43.096 153.138 41.272 156.306 41.272H156.882C160.002 41.272 161.874 43.096 161.874 46.84V61H167.778V45.784C167.778 39.16 164.37 36.184 159.618 36.184H159.042C156.018 36.184 153.618 37.432 152.226 39.592H151.266V36.664H145.362ZM34.544 74.36C27.008 74.36 22.448 77.768 22.448 83.336V83.912C22.448 89.48 26.336 91.64 33.104 93.176C39.488 94.664 41.648 95.72 41.648 98.216V98.648C41.648 101.096 39.44 102.584 35.12 102.584H34.592C30.272 102.584 28.016 101.096 28.016 97.544V95.192H21.968V97.496C21.968 103.64 26.144 107.48 34.544 107.48H35.12C43.568 107.48 47.744 103.64 47.744 98.6V98.12C47.744 92.744 44 90.488 36.752 88.616C30.464 87.032 28.496 86.312 28.496 83.768V83.24C28.496 80.936 30.704 79.256 34.544 79.256H35.072C38.912 79.256 41.12 81.032 41.12 83.864V86.264H47.168V83.864C47.168 77.816 42.176 74.36 35.12 74.36H34.544ZM50.0615 82.664L60.1895 108.344L56.3975 118.52H61.9175L75.2135 82.664H69.7415L63.8855 98.456H62.3495L56.2055 82.664H50.0615ZM87.6451 82.184C81.5011 82.184 77.6611 85.112 77.6611 89.336V89.72C77.6611 94.136 81.0211 95.912 86.5891 96.872C91.1491 97.784 92.7331 98.504 92.7331 100.52C92.7331 102.296 91.2931 103.208 88.2691 103.208H87.6931C85.0051 103.208 82.9891 102.248 82.9891 99.464V98.984H77.2771V99.32C77.2771 104.984 81.5011 107.48 87.6931 107.48H88.2691C94.5571 107.48 98.4931 104.936 98.4931 100.424V100.088C98.4931 96.248 95.9971 94.088 89.4691 92.792C85.1491 91.976 83.4211 91.352 83.4211 89.336C83.4211 87.176 85.2931 86.408 87.6451 86.408H88.2211C90.5251 86.408 92.5411 87.224 92.5411 90.2V90.728H98.2531V90.248C98.2531 85.112 94.3651 82.184 88.2211 82.184H87.6451ZM104.329 75.8V82.664H100.921V87.224H104.329V99.416C104.329 105.176 108.217 107.48 113.161 107.48H113.737C118.585 107.48 121.993 105.176 121.993 99.416V96.968H116.713V99.416C116.713 101.624 115.753 102.824 113.785 102.824H113.209C111.241 102.824 110.185 101.624 110.185 99.416V87.224H120.793V82.664H110.185V75.8H104.329ZM137.135 82.184C130.559 82.184 125.663 85.832 125.663 93.224V96.536C125.663 103.88 130.559 107.48 137.135 107.48H137.711C144.479 107.48 148.319 104.36 148.895 99.176H143.471C142.895 101.576 141.167 103.016 137.711 103.016H137.135C133.535 103.016 131.375 101 131.375 96.776V96.44H149.183V93.224C149.183 85.832 144.335 82.184 137.711 82.184H137.135ZM137.087 86.648H137.663C141.023 86.648 143.327 88.568 143.471 92.168H131.375C131.519 88.52 133.583 86.648 137.087 86.648ZM154.268 82.664V107H160.172V92.216C160.172 88.856 161.564 87.08 164.444 87.08H164.924C167.804 87.08 169.196 88.856 169.196 92.216V107H175.1V92.216C175.1 88.856 176.444 87.08 179.372 87.08H179.852C182.78 87.08 184.124 88.856 184.124 92.216V107H189.98V91.736C189.98 84.92 187.1 82.184 182.252 82.184H181.772C178.844 82.184 176.492 83.336 175.148 85.592H174.044C172.7 83.288 170.684 82.184 167.852 82.184H167.372C164.444 82.184 162.188 83.576 161.036 85.592H160.172V82.664H154.268Z" fill="white"/>
<path d="M51.625 260.062C52.625 261.812 51.375 264 49.375 264H22.625C20.5625 264 19.3125 261.812 20.375 260.062L33.6875 237.312C34.75 235.562 37.3125 235.562 38.25 237.312L51.625 260.062Z" fill="#F05454"/>
<path d="M84 236H64C61.75 236 60 237.75 60 239.938V259.938C60 262.125 61.75 263.938 64 263.938H84C86.1875 263.938 88 262.125 88 259.938V239.938C88 237.812 86.1875 236 84 236ZM87 260C87 261.688 85.625 263 84 263H64C62.3125 263 61 261.688 61 260V240C61 238.375 62.3125 237 64 237H84C85.625 237 87 238.375 87 240V260Z" fill="#F05454"/>
<path d="M127.625 260.062L114.312 237.312C113.75 236.438 112.875 236 111.938 236C110.938 236 110.188 236.438 109.625 237.312L96.25 260.062C95.25 261.812 96.5625 264 98.5625 264H125.312C127.375 264 128.625 261.812 127.625 260.062ZM126.75 262.188C126.438 262.688 125.938 263 125.312 263H98.625C98 263 97.5 262.75 97.1875 262.188C96.875 261.688 96.875 261.125 97.1875 260.625L110.5 237.875C110.812 237.312 111.375 237 111.938 237C112.5 237 113.062 237.312 113.375 237.875L126.688 260.562C127.062 261.125 127.062 261.688 126.75 262.188Z" fill="#F05454"/>
<path d="M164 240V260C164 262.188 162.188 264 160 264H140C137.75 264 136 262.188 136 260V240C136 237.75 137.75 236 140 236H160C162.188 236 164 237.812 164 240Z" fill="#F05454"/>
<path d="M204 250C204 258.875 196.812 266 188 266C179.125 266 172 258.875 172 250C172 241.188 179.125 234 188 234C196.812 234 204 241.188 204 250Z" fill="#F05454"/>
<rect x="20.5" y="179.5" width="56" height="23" rx="1.5" fill="#F05454" stroke="#F05454" stroke-dasharray="6 6"/>
<rect x="84.5" y="179.5" width="55" height="23" rx="1.5" fill="#F05454"/>
<rect x="89.5" y="184.5" width="13" height="13" rx="6.5" stroke="#30475E" stroke-dasharray="6 6"/>
<rect x="84.5" y="179.5" width="55" height="23" rx="1.5" stroke="#F05454" stroke-dasharray="6 6"/>
<rect x="147.5" y="179.5" width="56" height="23" rx="1.5" stroke="#F05454"/>
<rect x="20.5" y="209.5" width="183" height="19" rx="1.5" stroke="#F05454"/>
<rect x="20.5" y="133.5" width="39" height="39" stroke="#F05454" stroke-dasharray="6 6"/>
<rect x="68.5" y="133.5" width="39" height="39" rx="1.5" fill="#F05454" stroke="#F05454" stroke-dasharray="6 6"/>
<rect x="116.5" y="133.5" width="39" height="39" stroke="#F05454" stroke-dasharray="6 6"/>
<rect x="164.5" y="133.5" width="39" height="39" stroke="#F05454" stroke-dasharray="6 6"/>
<line x1="27" y1="218.5" x2="92" y2="218.5" stroke="#F05454"/>
<path d="M186.109 216.727C186.191 216.617 186.301 216.562 186.438 216.562C186.52 216.562 186.629 216.59 186.711 216.672L192.098 221.621L197.512 216.672C197.676 216.508 197.949 216.508 198.113 216.699C198.277 216.863 198.277 217.137 198.086 217.301L192.398 222.551C192.234 222.715 191.988 222.715 191.824 222.551L186.137 217.301C185.945 217.164 185.945 216.891 186.109 216.727Z" fill="#F05454"/>
</svg>
