<svg width="337" height="295" viewBox="0 0 337 295" fill="none" xmlns="http://www.w3.org/2000/svg">
<rect width="337" height="295" rx="4" fill="#30475E"/>
<rect x="22.5" y="128.5" width="292" height="39" stroke="#F05454" stroke-dasharray="6 6"/>
<path d="M34.544 28.36C27.008 28.36 22.448 31.768 22.448 37.336V37.912C22.448 43.48 26.336 45.64 33.104 47.176C39.488 48.664 41.648 49.72 41.648 52.216V52.648C41.648 55.096 39.44 56.584 35.12 56.584H34.592C30.272 56.584 28.016 55.096 28.016 51.544V49.192H21.968V51.496C21.968 57.64 26.144 61.48 34.544 61.48H35.12C43.568 61.48 47.744 57.64 47.744 52.6V52.12C47.744 46.744 44 44.488 36.752 42.616C30.464 41.032 28.496 40.312 28.496 37.768V37.24C28.496 34.936 30.704 33.256 34.544 33.256H35.072C38.912 33.256 41.12 35.032 41.12 37.864V40.264H47.168V37.864C47.168 31.816 42.176 28.36 35.12 28.36H34.544ZM74.624 61V36.664H68.72V50.824C68.72 54.568 66.848 56.392 63.68 56.392H63.104C59.984 56.392 58.112 54.568 58.112 50.824V36.664H52.208V51.88C52.208 58.504 55.616 61.48 60.368 61.48H60.944C63.968 61.48 66.368 60.232 67.76 58.072H68.72V61H74.624ZM80.534 36.664V61H86.438V45.736C86.438 42.952 87.542 41.272 90.422 41.272C93.254 41.272 94.406 42.952 94.406 45.736V46.36H99.878V44.968C99.878 38.632 97.382 36.184 93.206 36.184C90.422 36.184 88.598 37.336 87.398 39.352H86.438V36.664H80.534ZM102.046 36.664L110.35 61H118.606L126.814 36.664H121.39L115.342 54.664H114.19L108.046 36.664H102.046ZM140.37 36.184C133.794 36.184 128.898 39.832 128.898 47.224V50.536C128.898 57.88 133.794 61.48 140.37 61.48H140.946C147.714 61.48 151.554 58.36 152.13 53.176H146.706C146.13 55.576 144.402 57.016 140.946 57.016H140.37C136.77 57.016 134.61 55 134.61 50.776V50.44H152.418V47.224C152.418 39.832 147.57 36.184 140.946 36.184H140.37ZM140.322 40.648H140.898C144.258 40.648 146.562 42.568 146.706 46.168H134.61C134.754 42.52 136.818 40.648 140.322 40.648ZM155.015 36.664L165.143 62.344L161.351 72.52H166.871L180.167 36.664H174.695L168.839 52.456H167.303L161.159 36.664H155.015ZM191.348 28.84V33.928H202.004V61H208.1V33.928H218.804V28.84H191.348ZM230.514 36.184C223.794 36.184 218.898 39.88 218.898 47.176V50.488C218.898 57.88 223.794 61.48 230.514 61.48H231.09C237.762 61.48 242.658 57.88 242.658 50.488V47.176C242.658 39.88 237.762 36.184 231.09 36.184H230.514ZM230.514 40.936H231.09C234.834 40.936 236.754 43.192 236.754 47.128V50.536C236.754 54.52 234.834 56.728 231.09 56.728H230.514C226.722 56.728 224.802 54.52 224.802 50.536V47.128C224.802 43.192 226.77 40.936 230.514 40.936ZM258.639 36.184C251.919 36.184 247.023 39.88 247.023 47.176V50.488C247.023 57.88 251.919 61.48 258.639 61.48H259.215C265.887 61.48 270.783 57.88 270.783 50.488V47.176C270.783 39.88 265.887 36.184 259.215 36.184H258.639ZM258.639 40.936H259.215C262.959 40.936 264.879 43.192 264.879 47.128V50.536C264.879 54.52 262.959 56.728 259.215 56.728H258.639C254.847 56.728 252.927 54.52 252.927 50.536V47.128C252.927 43.192 254.895 40.936 258.639 40.936ZM275.862 25.48V61H281.766V25.48H275.862ZM23.024 74.84V107H29.12V95.048H35.6L41.936 107H48.512L41.696 94.088C45.248 92.648 47.36 89.72 47.36 85.688V84.152C47.36 77.912 43.04 74.84 36.128 74.84H23.024ZM29.12 79.832H35.456C39.008 79.832 41.264 80.936 41.264 84.296V85.544C41.264 88.712 39.008 90.008 35.456 90.008H29.12V79.832ZM63.2135 82.184C56.6375 82.184 51.7415 85.832 51.7415 93.224V96.536C51.7415 103.88 56.6375 107.48 63.2135 107.48H63.7895C70.5575 107.48 74.3975 104.36 74.9735 99.176H69.5495C68.9735 101.576 67.2455 103.016 63.7895 103.016H63.2135C59.6135 103.016 57.4535 101 57.4535 96.776V96.44H75.2615V93.224C75.2615 85.832 70.4135 82.184 63.7895 82.184H63.2135ZM63.1655 86.648H63.7415C67.1015 86.648 69.4055 88.568 69.5495 92.168H57.4535C57.5975 88.52 59.6615 86.648 63.1655 86.648ZM97.7225 71.48V85.448H96.7625C95.1305 83.288 92.6825 82.184 89.7545 82.184H89.1785C83.7065 82.184 79.8665 85.736 79.8665 93.176V96.488C79.8665 103.976 83.7065 107.48 89.1785 107.48H89.7545C92.6825 107.48 95.1305 106.424 96.7625 104.168H97.7225V107H103.627V71.48H97.7225ZM91.4825 86.936H92.0105C95.6585 86.936 97.7225 89.144 97.7225 93.128V96.536C97.7225 100.568 95.6105 102.728 92.0105 102.728H91.4825C87.8825 102.728 85.7705 100.568 85.7705 96.536V93.128C85.7705 89.144 87.8825 86.936 91.4825 86.936ZM120.167 82.184C113.591 82.184 108.695 85.832 108.695 93.224V96.536C108.695 103.88 113.591 107.48 120.167 107.48H120.743C127.511 107.48 131.351 104.36 131.927 99.176H126.503C125.927 101.576 124.199 103.016 120.743 103.016H120.167C116.567 103.016 114.407 101 114.407 96.776V96.44H132.215V93.224C132.215 85.832 127.367 82.184 120.743 82.184H120.167ZM120.119 86.648H120.695C124.055 86.648 126.359 88.568 126.503 92.168H114.407C114.551 88.52 116.615 86.648 120.119 86.648ZM146.708 82.184C140.564 82.184 136.724 85.112 136.724 89.336V89.72C136.724 94.136 140.084 95.912 145.652 96.872C150.212 97.784 151.796 98.504 151.796 100.52C151.796 102.296 150.356 103.208 147.332 103.208H146.756C144.068 103.208 142.052 102.248 142.052 99.464V98.984H136.34V99.32C136.34 104.984 140.564 107.48 146.756 107.48H147.332C153.62 107.48 157.556 104.936 157.556 100.424V100.088C157.556 96.248 155.06 94.088 148.532 92.792C144.212 91.976 142.484 91.352 142.484 89.336C142.484 87.176 144.356 86.408 146.708 86.408H147.284C149.588 86.408 151.604 87.224 151.604 90.2V90.728H157.316V90.248C157.316 85.112 153.428 82.184 147.284 82.184H146.708ZM162.143 82.664V107H168.047V82.664H162.143ZM164.879 72.488C163.103 72.488 161.807 73.736 161.807 75.272V75.512C161.807 77.096 163.103 78.296 164.879 78.296H165.311C167.087 78.296 168.383 77.096 168.383 75.512V75.272C168.383 73.736 167.087 72.488 165.311 72.488H164.879ZM183.66 82.184C177.564 82.184 173.58 85.736 173.58 90.728V91.208C173.58 93.704 174.636 95.912 176.412 97.352V98.168C174.924 98.792 173.916 100.088 173.916 101.72C173.916 103.208 174.588 104.504 176.412 105.272V106.328C173.82 107.24 171.948 109.064 171.948 111.944V112.376C171.948 116.312 176.22 119 183.852 119H184.764C192.492 119 196.86 116.168 196.86 111.224V110.744C196.86 105.56 192.588 103.16 184.908 103.16H183.708C179.82 103.16 179.388 101.816 179.388 100.856C179.388 100.136 179.724 99.608 180.06 99.32C181.26 99.656 182.508 99.848 183.66 99.848H184.236C190.38 99.848 194.316 96.44 194.316 91.208V90.728C194.316 89.192 193.932 87.8 193.26 86.6L197.676 86.84V82.664H187.884C186.78 82.328 185.58 82.184 184.236 82.184H183.66ZM183.66 86.552H184.188C186.924 86.552 188.556 88.136 188.556 90.632V91.304C188.556 93.8 186.924 95.48 184.188 95.48H183.66C180.924 95.48 179.34 93.8 179.34 91.304V90.632C179.34 88.136 180.924 86.552 183.66 86.552ZM183.996 107.528H184.716C188.796 107.528 191.1 108.584 191.1 110.84V111.224C191.1 113.48 188.796 114.632 184.716 114.632H183.996C179.916 114.632 177.66 113.48 177.66 111.224V110.84C177.66 108.584 179.916 107.528 183.996 107.528ZM200.581 82.664V107H206.485V92.84C206.485 89.096 208.357 87.272 211.525 87.272H212.101C215.221 87.272 217.093 89.096 217.093 92.84V107H222.997V91.784C222.997 85.16 219.589 82.184 214.837 82.184H214.261C211.237 82.184 208.837 83.432 207.445 85.592H206.485V82.664H200.581Z" fill="white"/>
<rect x="22.5" y="189.5" width="111" height="23" rx="1.5" fill="#F05454"/>
<rect x="29.5" y="196.5" width="9" height="9" rx="4.5" stroke="#30475E" stroke-width="5"/>
<line x1="52.5" y1="201" x2="97.5" y2="201" stroke="#30475E" stroke-width="3" stroke-linecap="round"/>
<rect x="22.5" y="189.5" width="111" height="23" rx="1.5" stroke="#F05454" stroke-dasharray="6 6"/>
<rect x="27.5" y="224.5" width="13" height="13" rx="6.5" stroke="#F05454"/>
<line x1="51.5" y1="231" x2="98.5" y2="231" stroke="#F05454" stroke-linecap="round"/>
<rect x="22.5" y="219.5" width="111" height="23" rx="1.5" stroke="#F05454"/>
<rect x="110.5" y="141.5" width="13" height="13" rx="6.5" stroke="#F05454"/>
<line x1="134.5" y1="148" x2="181.5" y2="148" stroke="#F05454" stroke-linecap="round"/>
<rect x="105.5" y="136.5" width="145" height="23" rx="1.5" stroke="#F05454"/>
<rect x="22" y="250" width="24" height="23" rx="2" fill="#F05454"/>
<path d="M39.8594 265.273C40.2344 265.93 39.7656 266.75 39.0156 266.75H28.9844C28.2109 266.75 27.7422 265.93 28.1406 265.273L33.1328 256.742C33.5312 256.086 34.4922 256.086 34.8438 256.742L39.8594 265.273Z" fill="#30475E"/>
<rect x="48" y="250" width="24" height="23" rx="2" fill="#F05454"/>
<path d="M65.8594 265.273C66.2344 265.93 65.7656 266.75 65.0156 266.75H54.9844C54.2109 266.75 53.7422 265.93 54.1406 265.273L59.1328 256.742C59.5312 256.086 60.4922 256.086 60.8438 256.742L65.8594 265.273Z" fill="#30475E"/>
<rect x="74" y="250" width="24" height="23" rx="2" fill="#F05454"/>
<path d="M91.8594 265.273C92.2344 265.93 91.7656 266.75 91.0156 266.75H80.9844C80.2109 266.75 79.7422 265.93 80.1406 265.273L85.1328 256.742C85.5312 256.086 86.4922 256.086 86.8438 256.742L91.8594 265.273Z" fill="#30475E"/>
<rect x="100" y="250" width="24" height="23" rx="2" fill="#F05454"/>
<path d="M117.859 265.273C118.234 265.93 117.766 266.75 117.016 266.75H106.984C106.211 266.75 105.742 265.93 106.141 265.273L111.133 256.742C111.531 256.086 112.492 256.086 112.844 256.742L117.859 265.273Z" fill="#30475E"/>
<rect x="126" y="250" width="24" height="23" rx="2" fill="#F05454"/>
<path d="M143.859 265.273C144.234 265.93 143.766 266.75 143.016 266.75H132.984C132.211 266.75 131.742 265.93 132.141 265.273L137.133 256.742C137.531 256.086 138.492 256.086 138.844 256.742L143.859 265.273Z" fill="#30475E"/>
<rect x="152" y="250" width="24" height="23" rx="2" fill="#F05454"/>
<path d="M169.859 265.273C170.234 265.93 169.766 266.75 169.016 266.75H158.984C158.211 266.75 157.742 265.93 158.141 265.273L163.133 256.742C163.531 256.086 164.492 256.086 164.844 256.742L169.859 265.273Z" fill="#30475E"/>
<rect x="178" y="250" width="24" height="23" rx="2" fill="#F05454"/>
<path d="M195.859 265.273C196.234 265.93 195.766 266.75 195.016 266.75H184.984C184.211 266.75 183.742 265.93 184.141 265.273L189.133 256.742C189.531 256.086 190.492 256.086 190.844 256.742L195.859 265.273Z" fill="#30475E"/>
<rect x="204" y="250" width="24" height="23" rx="2" fill="#F05454"/>
<path d="M221.859 265.273C222.234 265.93 221.766 266.75 221.016 266.75H210.984C210.211 266.75 209.742 265.93 210.141 265.273L215.133 256.742C215.531 256.086 216.492 256.086 216.844 256.742L221.859 265.273Z" fill="#30475E"/>
<path d="M247.859 265.273L242.867 256.742C242.656 256.414 242.328 256.25 241.977 256.25C241.602 256.25 241.32 256.414 241.109 256.742L236.094 265.273C235.719 265.93 236.211 266.75 236.961 266.75H246.992C247.766 266.75 248.234 265.93 247.859 265.273ZM247.203 265.883C247.18 265.93 247.109 266 246.992 266H236.984C236.867 266 236.797 265.93 236.773 265.883C236.75 265.836 236.727 265.766 236.773 265.672L241.766 257.141C241.836 257.023 241.93 257 241.977 257C242.023 257 242.117 257.023 242.188 257.141L247.18 265.672C247.25 265.766 247.227 265.836 247.203 265.883Z" fill="#F05454"/>
<rect x="230.5" y="250.5" width="23" height="22" rx="1.5" stroke="#F05454"/>
<path d="M273.859 265.273L268.867 256.742C268.656 256.414 268.328 256.25 267.977 256.25C267.602 256.25 267.32 256.414 267.109 256.742L262.094 265.273C261.719 265.93 262.211 266.75 262.961 266.75H272.992C273.766 266.75 274.234 265.93 273.859 265.273ZM273.203 265.883C273.18 265.93 273.109 266 272.992 266H262.984C262.867 266 262.797 265.93 262.773 265.883C262.75 265.836 262.727 265.766 262.773 265.672L267.766 257.141C267.836 257.023 267.93 257 267.977 257C268.023 257 268.117 257.023 268.188 257.141L273.18 265.672C273.25 265.766 273.227 265.836 273.203 265.883Z" fill="#F05454"/>
<rect x="256.5" y="250.5" width="23" height="22" rx="1.5" stroke="#F05454"/>
<path d="M299.859 265.273L294.867 256.742C294.656 256.414 294.328 256.25 293.977 256.25C293.602 256.25 293.32 256.414 293.109 256.742L288.094 265.273C287.719 265.93 288.211 266.75 288.961 266.75H298.992C299.766 266.75 300.234 265.93 299.859 265.273ZM299.203 265.883C299.18 265.93 299.109 266 298.992 266H288.984C288.867 266 288.797 265.93 288.773 265.883C288.75 265.836 288.727 265.766 288.773 265.672L293.766 257.141C293.836 257.023 293.93 257 293.977 257C294.023 257 294.117 257.023 294.188 257.141L299.18 265.672C299.25 265.766 299.227 265.836 299.203 265.883Z" fill="#F05454"/>
<rect x="282.5" y="250.5" width="23" height="22" rx="1.5" stroke="#F05454"/>
<path d="M47.8125 153.031C48.3125 153.906 47.6875 155 46.6875 155H33.3125C32.2812 155 31.6562 153.906 32.1875 153.031L38.8438 141.656C39.375 140.781 40.6562 140.781 41.125 141.656L47.8125 153.031Z" fill="#F05454"/>
<path d="M304 148C304 152.438 300.406 156 296 156C291.562 156 288 152.438 288 148C288 143.594 291.562 140 296 140C300.406 140 304 143.594 304 148Z" fill="#F05454"/>
</svg>
