<svg width="337" height="295" viewBox="0 0 337 295" fill="none" xmlns="http://www.w3.org/2000/svg">
<rect width="337" height="295" rx="4" fill="#30475E"/>
<path d="M23.024 28.84V61H44.096V55.912H29.12V28.84H23.024ZM58.2481 36.184C51.5281 36.184 46.6321 39.88 46.6321 47.176V50.488C46.6321 57.88 51.5281 61.48 58.2481 61.48H58.8241C65.4961 61.48 70.3921 57.88 70.3921 50.488V47.176C70.3921 39.88 65.4961 36.184 58.8241 36.184H58.2481ZM58.2481 40.936H58.8241C62.5681 40.936 64.4881 43.192 64.4881 47.128V50.536C64.4881 54.52 62.5681 56.728 58.8241 56.728H58.2481C54.4561 56.728 52.5361 54.52 52.5361 50.536V47.128C52.5361 43.192 54.5041 40.936 58.2481 40.936ZM85.3284 36.184C78.6084 36.184 75.0084 39.448 75.0084 44.92H80.7684C80.7684 41.944 82.8324 40.696 85.3284 40.696H85.9044C88.7364 40.696 90.4644 41.944 90.4644 44.968V46.744H84.0804C77.2644 46.744 74.2884 49.528 74.2884 54.088C74.2884 59.272 77.8884 61.48 82.2084 61.48C85.5204 61.48 87.7284 60.472 89.5044 58.168H90.4644V61H96.3204V44.968C96.3204 39.448 92.9124 36.184 85.9044 36.184H85.3284ZM84.5604 50.44H90.4644V51.16C90.4644 55.336 87.5844 56.872 84.2724 56.872C81.5364 56.872 80.0964 55.72 80.0964 53.656C80.0964 51.592 81.3924 50.44 84.5604 50.44ZM119.004 25.48V39.448H118.044C116.412 37.288 113.964 36.184 111.036 36.184H110.46C104.988 36.184 101.148 39.736 101.148 47.176V50.488C101.148 57.976 104.988 61.48 110.46 61.48H111.036C113.964 61.48 116.412 60.424 118.044 58.168H119.004V61H124.908V25.48H119.004ZM112.764 40.936H113.292C116.94 40.936 119.004 43.144 119.004 47.128V50.536C119.004 54.568 116.892 56.728 113.292 56.728H112.764C109.164 56.728 107.052 54.568 107.052 50.536V47.128C107.052 43.144 109.164 40.936 112.764 40.936ZM130.456 36.664V61H136.36V36.664H130.456ZM133.192 26.488C131.416 26.488 130.12 27.736 130.12 29.272V29.512C130.12 31.096 131.416 32.296 133.192 32.296H133.624C135.4 32.296 136.696 31.096 136.696 29.512V29.272C136.696 27.736 135.4 26.488 133.624 26.488H133.192ZM141.94 36.664V61H147.844V46.84C147.844 43.096 149.716 41.272 152.884 41.272H153.46C156.58 41.272 158.452 43.096 158.452 46.84V61H164.356V45.784C164.356 39.16 160.948 36.184 156.196 36.184H155.62C152.596 36.184 150.196 37.432 148.804 39.592H147.844V36.664H141.94ZM179.722 36.184C173.626 36.184 169.642 39.736 169.642 44.728V45.208C169.642 47.704 170.698 49.912 172.474 51.352V52.168C170.986 52.792 169.978 54.088 169.978 55.72C169.978 57.208 170.65 58.504 172.474 59.272V60.328C169.882 61.24 168.01 63.064 168.01 65.944V66.376C168.01 70.312 172.282 73 179.914 73H180.826C188.554 73 192.922 70.168 192.922 65.224V64.744C192.922 59.56 188.65 57.16 180.97 57.16H179.77C175.882 57.16 175.45 55.816 175.45 54.856C175.45 54.136 175.786 53.608 176.122 53.32C177.322 53.656 178.57 53.848 179.722 53.848H180.298C186.442 53.848 190.378 50.44 190.378 45.208V44.728C190.378 43.192 189.994 41.8 189.322 40.6L193.738 40.84V36.664H183.946C182.842 36.328 181.642 36.184 180.298 36.184H179.722ZM179.722 40.552H180.25C182.986 40.552 184.618 42.136 184.618 44.632V45.304C184.618 47.8 182.986 49.48 180.25 49.48H179.722C176.986 49.48 175.402 47.8 175.402 45.304V44.632C175.402 42.136 176.986 40.552 179.722 40.552ZM180.058 61.528H180.778C184.858 61.528 187.162 62.584 187.162 64.84V65.224C187.162 67.48 184.858 68.632 180.778 68.632H180.058C175.978 68.632 173.722 67.48 173.722 65.224V64.84C173.722 62.584 175.978 61.528 180.058 61.528ZM23.024 74.84V107H45.488V101.912H29.12V93.08H42.992V88.136H29.12V79.928H45.248V74.84H23.024ZM48.9489 82.664L58.2129 94.76L48.9009 107H54.9489L60.5169 99.656H62.1489L67.8609 107H74.5809L64.8369 94.328L73.6209 82.664H67.6209L62.4849 89.432H60.8529L55.7169 82.664H48.9489ZM78.4715 82.664V118.52H84.3755V104.168H85.3355C86.9675 106.424 89.4155 107.48 92.3435 107.48H92.9195C98.3915 107.48 102.232 103.928 102.232 96.488V93.176C102.232 85.688 98.3915 82.184 92.9195 82.184H92.3435C89.4155 82.184 86.9675 83.288 85.3355 85.448H84.3755V82.664H78.4715ZM90.0875 86.936H90.6155C94.2155 86.936 96.3275 89.048 96.3275 93.128V96.536C96.3275 100.568 94.2155 102.728 90.6155 102.728H90.0875C86.4395 102.728 84.3755 100.568 84.3755 96.536V93.128C84.3755 89.048 86.4875 86.936 90.0875 86.936ZM118.198 82.184C111.622 82.184 106.726 85.832 106.726 93.224V96.536C106.726 103.88 111.622 107.48 118.198 107.48H118.774C125.542 107.48 129.382 104.36 129.958 99.176H124.534C123.958 101.576 122.23 103.016 118.774 103.016H118.198C114.598 103.016 112.438 101 112.438 96.776V96.44H130.246V93.224C130.246 85.832 125.398 82.184 118.774 82.184H118.198ZM118.15 86.648H118.726C122.086 86.648 124.39 88.568 124.534 92.168H112.438C112.582 88.52 114.646 86.648 118.15 86.648ZM135.331 82.664V107H141.235V91.736C141.235 88.952 142.339 87.272 145.219 87.272C148.051 87.272 149.203 88.952 149.203 91.736V92.36H154.675V90.968C154.675 84.632 152.179 82.184 148.003 82.184C145.219 82.184 143.395 83.336 142.195 85.352H141.235V82.664H135.331ZM158.581 82.664V107H164.485V82.664H158.581ZM161.317 72.488C159.541 72.488 158.245 73.736 158.245 75.272V75.512C158.245 77.096 159.541 78.296 161.317 78.296H161.749C163.525 78.296 164.821 77.096 164.821 75.512V75.272C164.821 73.736 163.525 72.488 161.749 72.488H161.317ZM181.057 82.184C174.481 82.184 169.585 85.832 169.585 93.224V96.536C169.585 103.88 174.481 107.48 181.057 107.48H181.633C188.401 107.48 192.241 104.36 192.817 99.176H187.393C186.817 101.576 185.089 103.016 181.633 103.016H181.057C177.457 103.016 175.297 101 175.297 96.776V96.44H193.105V93.224C193.105 85.832 188.257 82.184 181.633 82.184H181.057ZM181.009 86.648H181.585C184.945 86.648 187.249 88.568 187.393 92.168H175.297C175.441 88.52 177.505 86.648 181.009 86.648ZM198.19 82.664V107H204.094V92.84C204.094 89.096 205.966 87.272 209.134 87.272H209.71C212.83 87.272 214.702 89.096 214.702 92.84V107H220.606V91.784C220.606 85.16 217.198 82.184 212.446 82.184H211.87C208.846 82.184 206.446 83.432 205.054 85.592H204.094V82.664H198.19ZM236.788 82.184C230.02 82.184 225.46 85.88 225.46 93.224V96.536C225.46 103.832 230.02 107.48 236.788 107.48H237.364C244.036 107.48 248.548 103.88 248.548 97.88V97.64H242.788V97.88C242.788 100.568 240.916 102.728 237.364 102.728H236.788C233.236 102.728 231.364 100.52 231.364 96.632V93.08C231.364 89.192 233.236 86.936 236.788 86.936H237.364C240.916 86.936 242.644 89.096 242.644 92.072V92.36H248.404V92.072C248.404 85.736 243.988 82.184 237.364 82.184H236.788ZM264.214 82.184C257.638 82.184 252.742 85.832 252.742 93.224V96.536C252.742 103.88 257.638 107.48 264.214 107.48H264.79C271.558 107.48 275.398 104.36 275.974 99.176H270.55C269.974 101.576 268.246 103.016 264.79 103.016H264.214C260.614 103.016 258.454 101 258.454 96.776V96.44H276.262V93.224C276.262 85.832 271.414 82.184 264.79 82.184H264.214ZM264.166 86.648H264.742C268.102 86.648 270.406 88.568 270.55 92.168H258.454C258.598 88.52 260.662 86.648 264.166 86.648Z" fill="white"/>
<rect x="22" y="133" width="112" height="24" rx="2" fill="#F05454"/>
<rect x="22.5" y="133.5" width="283" height="23" rx="1.5" stroke="#F05454"/>
<rect x="22" y="169" width="24" height="23" rx="2" fill="#F05454"/>
<path d="M39.25 177.5C39.25 177.711 39.1562 177.898 39.0156 178.039L33.0156 184.039C32.875 184.18 32.6875 184.25 32.5 184.25C32.2891 184.25 32.1016 184.18 31.9609 184.039L28.9609 181.039C28.8203 180.898 28.75 180.711 28.75 180.5C28.75 180.078 29.0781 179.75 29.5 179.75C29.6875 179.75 29.875 179.844 30.0156 179.984L32.5 182.445L37.9609 176.984C38.1016 176.844 38.2891 176.75 38.5 176.75C38.8984 176.75 39.25 177.078 39.25 177.5Z" fill="#30475E"/>
<path d="M40 205.5C40 208.828 37.3047 211.5 34 211.5C30.6719 211.5 28 208.828 28 205.5C28 202.875 29.7578 200.508 32.2656 199.758C32.6641 199.641 33.0859 199.875 33.2031 200.273C33.3203 200.672 33.1094 201.07 32.7109 201.188C30.8125 201.75 29.5 203.531 29.5 205.5C29.5 207.984 31.5156 210 34 210C36.4609 210 38.5 207.984 38.5 205.5C38.5 203.531 37.1641 201.75 35.2656 201.188C34.8672 201.07 34.6562 200.672 34.7734 200.273C34.8906 199.875 35.3125 199.641 35.7109 199.758C38.2188 200.508 40 202.875 40 205.5Z" fill="#F05454"/>
<rect x="22.5" y="194.5" width="23" height="22" rx="1.5" stroke="#F05454"/>
<path d="M34.6328 226.047C34.2578 226 34 225.695 34 225.32C34 224.875 34.3984 224.5 34.8438 224.57C37.75 224.992 40 227.5 40 230.5C40 231.297 39.8359 232.047 39.5547 232.727C39.3906 233.148 38.875 233.312 38.5 233.078C38.1719 232.891 38.0312 232.516 38.1719 232.164C38.3828 231.648 38.5 231.086 38.5 230.5C38.5 228.25 36.8125 226.375 34.6328 226.047Z" fill="#F05454"/>
<rect x="22.5" y="219.5" width="23" height="22" rx="1.5" stroke="#F05454"/>
<path d="M34.6328 251.047C34.2578 251 34 250.695 34 250.32C34 249.875 34.3984 249.5 34.8438 249.57C37.75 249.992 40 252.5 40 255.5C40 256.297 39.8359 257.047 39.5547 257.727C39.3906 258.148 38.875 258.312 38.5 258.078C38.1719 257.891 38.0312 257.516 38.1719 257.164C38.3828 256.648 38.5 256.086 38.5 255.5C38.5 253.25 36.8125 251.375 34.6328 251.047Z" fill="#F05454"/>
<path d="M34.6328 259.953C34.2578 260 34 260.305 34 260.68C34 261.125 34.3984 261.5 34.8438 261.43C37.75 261.008 40 258.5 40 255.5C40 254.703 39.8359 253.953 39.5547 253.273C39.3906 252.852 38.875 252.688 38.5 252.922C38.1719 253.109 38.0312 253.484 38.1719 253.836C38.3828 254.352 38.5 254.914 38.5 255.5C38.5 257.75 36.8125 259.625 34.6328 259.953Z" fill="#F05454"/>
<path d="M34.7742 259.931C35.1453 259.859 35.4847 260.07 35.6006 260.426C35.7382 260.85 35.4751 261.329 35.0299 261.4C32.1355 261.897 29.2207 260.207 28.2936 257.354C28.0474 256.596 27.9716 255.832 28.0291 255.099C28.0548 254.647 28.4944 254.332 28.9235 254.439C29.2935 254.516 29.5431 254.829 29.518 255.207C29.4768 255.762 29.5391 256.333 29.7202 256.891C30.4155 259.03 32.5998 260.292 34.7742 259.931Z" fill="#F05454"/>
<rect x="22.5" y="244.5" width="23" height="23" rx="1.5" stroke="#F05454"/>
<path d="M277.5 163.75V171.25C277.5 172.07 276.82 172.75 276 172.75H268.5C267.656 172.75 267 172.07 267 171.25V163.75C267 162.906 267.656 162.25 268.5 162.25H276C276.82 162.25 277.5 162.93 277.5 163.75Z" fill="#F05454"/>
<path d="M292 167.5C292 170.828 289.305 173.5 286 173.5C282.672 173.5 280 170.828 280 167.5C280 164.195 282.672 161.5 286 161.5C289.305 161.5 292 164.195 292 167.5Z" fill="#F05454"/>
<path d="M305.859 171.273C306.234 171.93 305.766 172.75 305.016 172.75H294.984C294.211 172.75 293.742 171.93 294.141 171.273L299.133 162.742C299.531 162.086 300.492 162.086 300.844 162.742L305.859 171.273Z" fill="#F05454"/>
</svg>
