<svg width="337" height="295" viewBox="0 0 337 295" fill="none" xmlns="http://www.w3.org/2000/svg">
<rect width="337" height="295" rx="4" fill="black"/>
<path d="M50.6464 205.354C50.8417 205.549 51.1583 205.549 51.3536 205.354L54.5355 202.172C54.7308 201.976 54.7308 201.66 54.5355 201.464C54.3403 201.269 54.0237 201.269 53.8284 201.464L51 204.293L48.1716 201.464C47.9763 201.269 47.6597 201.269 47.4645 201.464C47.2692 201.66 47.2692 201.976 47.4645 202.172L50.6464 205.354ZM50.5 156L50.5 205L51.5 205L51.5 156L50.5 156Z" fill="#f05454"/>
<path d="M37.664 57.552C35.5787 57.552 33.6007 57.3833 31.73 57.046C29.89 56.7087 28.2647 56.1567 26.854 55.39C25.474 54.5927 24.3853 53.5653 23.588 52.308C22.7907 51.02 22.392 49.4253 22.392 47.524C22.392 47.4013 22.392 47.2787 22.392 47.156C22.4227 47.0027 22.438 46.88 22.438 46.788H28.924C28.924 46.88 28.9087 47.018 28.878 47.202C28.878 47.3553 28.878 47.524 28.878 47.708C28.878 48.6893 29.2307 49.5173 29.936 50.192C30.6413 50.836 31.6533 51.3267 32.972 51.664C34.3213 51.9707 35.8853 52.124 37.664 52.124C38.6147 52.124 39.504 52.078 40.332 51.986C41.1907 51.894 41.9727 51.756 42.678 51.572C43.3833 51.3573 43.9967 51.112 44.518 50.836C45.0393 50.5293 45.438 50.1767 45.714 49.778C45.99 49.3487 46.128 48.8887 46.128 48.398C46.128 47.5393 45.806 46.8493 45.162 46.328C44.518 45.8067 43.644 45.3773 42.54 45.04C41.4667 44.672 40.24 44.3653 38.86 44.12C37.5107 43.844 36.1153 43.5527 34.674 43.246C33.2327 42.9393 31.822 42.556 30.442 42.096C29.0927 41.636 27.866 41.0687 26.762 40.394C25.6887 39.6887 24.83 38.7993 24.186 37.726C23.542 36.6527 23.22 35.3493 23.22 33.816C23.22 32.344 23.5573 31.056 24.232 29.952C24.9067 28.8173 25.8727 27.882 27.13 27.146C28.418 26.3793 29.9513 25.812 31.73 25.444C33.5087 25.0453 35.502 24.846 37.71 24.846C39.8873 24.846 41.85 25.0453 43.598 25.444C45.346 25.8427 46.818 26.4407 48.014 27.238C49.2407 28.0047 50.1607 28.9553 50.774 30.09C51.418 31.2247 51.74 32.528 51.74 34V34.644H45.346V34.092C45.346 33.3253 45.024 32.666 44.38 32.114C43.7667 31.5313 42.8927 31.0867 41.758 30.78C40.654 30.4427 39.3813 30.274 37.94 30.274C36.1307 30.274 34.628 30.412 33.432 30.688C32.236 30.964 31.3467 31.3473 30.764 31.838C30.1813 32.3287 29.89 32.896 29.89 33.54C29.89 34.276 30.212 34.8893 30.856 35.38C31.5 35.84 32.3587 36.2233 33.432 36.53C34.5053 36.8367 35.7167 37.128 37.066 37.404C38.446 37.6493 39.8567 37.9407 41.298 38.278C42.77 38.5847 44.1807 38.968 45.53 39.428C46.91 39.8573 48.1367 40.4247 49.21 41.13C50.314 41.8353 51.1727 42.7093 51.786 43.752C52.43 44.7947 52.752 46.0673 52.752 47.57C52.752 49.9927 52.108 51.94 50.82 53.412C49.5627 54.8533 47.784 55.9113 45.484 56.586C43.2147 57.23 40.608 57.552 37.664 57.552ZM65.8951 57.552C64.8217 57.552 63.7484 57.4447 62.6751 57.23C61.6324 57.046 60.6664 56.7087 59.7771 56.218C58.9184 55.6967 58.2284 54.9913 57.7071 54.102C57.1857 53.182 56.9251 52.0013 56.9251 50.56C56.9251 48.7507 57.3697 47.3093 58.2591 46.236C59.1791 45.132 60.4671 44.304 62.1231 43.752C63.8097 43.1693 65.7724 42.786 68.0111 42.602C70.2804 42.418 72.7337 42.326 75.3711 42.326V40.854C75.3711 39.9647 75.1871 39.2287 74.8191 38.646C74.4511 38.0633 73.8531 37.634 73.0251 37.358C72.2277 37.0513 71.1084 36.898 69.6671 36.898C68.4097 36.898 67.3517 37.0207 66.4931 37.266C65.6344 37.4807 64.9904 37.7873 64.5611 38.186C64.1624 38.554 63.9631 38.9833 63.9631 39.474V40.072H58.0291C57.9984 39.9493 57.9831 39.8267 57.9831 39.704C57.9831 39.5507 57.9831 39.382 57.9831 39.198C57.9831 37.7873 58.4431 36.5607 59.3631 35.518C60.3137 34.4753 61.6784 33.6627 63.4571 33.08C65.2357 32.4973 67.3824 32.206 69.8971 32.206C72.4424 32.206 74.5584 32.4973 76.2451 33.08C77.9624 33.632 79.2351 34.4907 80.0631 35.656C80.9217 36.8213 81.3511 38.324 81.3511 40.164V51.066C81.3511 51.6487 81.4891 52.078 81.7651 52.354C82.0717 52.63 82.4704 52.768 82.9611 52.768H84.8931V56.77C84.5864 56.8927 84.0804 57.046 83.3751 57.23C82.6697 57.4447 81.8571 57.552 80.9371 57.552C79.8637 57.552 78.9744 57.3987 78.2691 57.092C77.5637 56.7853 77.0271 56.3713 76.6591 55.85C76.2911 55.298 76.0304 54.6693 75.8771 53.964H75.5551C74.8497 54.7 74.0064 55.344 73.0251 55.896C72.0744 56.4173 71.0011 56.816 69.8051 57.092C68.6091 57.3987 67.3057 57.552 65.8951 57.552ZM67.5511 52.768C68.5017 52.768 69.4371 52.6453 70.3571 52.4C71.2771 52.1547 72.1204 51.8173 72.8871 51.388C73.6537 50.928 74.2517 50.376 74.6811 49.732C75.1411 49.0573 75.3711 48.306 75.3711 47.478V46.282C72.7644 46.282 70.5257 46.4047 68.6551 46.65C66.8151 46.8647 65.4044 47.2633 64.4231 47.846C63.4724 48.398 62.9971 49.1953 62.9971 50.238C62.9971 50.8513 63.1964 51.342 63.5951 51.71C63.9937 52.078 64.5304 52.354 65.2051 52.538C65.9104 52.6913 66.6924 52.768 67.5511 52.768ZM95.536 57L85.232 32.758H91.626L96.272 44.12C96.4866 44.6107 96.732 45.27 97.008 46.098C97.284 46.8953 97.5753 47.7233 97.882 48.582C98.1886 49.41 98.4493 50.1613 98.664 50.836H98.94C99.1546 50.192 99.4 49.456 99.676 48.628C99.952 47.7693 100.228 46.9413 100.504 46.144C100.78 45.316 101.025 44.6413 101.24 44.12L105.886 32.758H112.05L101.746 57H95.536ZM115.398 28.94V23.696H121.378V28.94H115.398ZM115.398 57V32.758H121.378V57H115.398ZM127.661 57V32.758H132.583L133.043 36.484H133.411C134.147 35.5027 134.991 34.7053 135.941 34.092C136.892 33.448 137.919 32.9727 139.023 32.666C140.158 32.3593 141.308 32.206 142.473 32.206C144.405 32.206 146.046 32.528 147.395 33.172C148.745 33.816 149.787 34.8127 150.523 36.162C151.259 37.4807 151.627 39.2133 151.627 41.36V57H145.601V42.418C145.601 41.4673 145.479 40.67 145.233 40.026C144.988 39.382 144.62 38.8607 144.129 38.462C143.669 38.0633 143.117 37.7873 142.473 37.634C141.829 37.45 141.093 37.358 140.265 37.358C139.1 37.358 138.011 37.6187 136.999 38.14C135.987 38.6613 135.175 39.382 134.561 40.302C133.948 41.222 133.641 42.3107 133.641 43.568V57H127.661ZM162.498 65.74C161.241 65.74 160.06 65.5407 158.956 65.142C157.883 64.7433 157.009 64.1147 156.334 63.256C155.69 62.428 155.368 61.3393 155.368 59.99C155.368 58.7327 155.767 57.6747 156.564 56.816C157.392 55.9573 158.373 55.3287 159.508 54.93C158.68 54.5007 158.036 53.9333 157.576 53.228C157.147 52.492 156.932 51.664 156.932 50.744C156.932 49.548 157.361 48.5513 158.22 47.754C159.079 46.926 160.152 46.4047 161.44 46.19C160.244 45.5153 159.324 44.6567 158.68 43.614C158.036 42.5713 157.714 41.4213 157.714 40.164C157.714 38.3853 158.174 36.9133 159.094 35.748C160.014 34.5827 161.363 33.7087 163.142 33.126C164.951 32.5127 167.159 32.206 169.766 32.206C170.778 32.206 171.744 32.2673 172.664 32.39C173.584 32.5127 174.443 32.6813 175.24 32.896C176.497 32.252 177.417 31.5313 178 30.734C178.613 29.9367 178.966 29.2467 179.058 28.664H184.808C184.777 29.7373 184.532 30.688 184.072 31.516C183.612 32.344 182.983 33.034 182.186 33.586C181.389 34.138 180.407 34.5367 179.242 34.782C180.07 35.426 180.699 36.208 181.128 37.128C181.588 38.0173 181.818 39.0293 181.818 40.164C181.818 41.8507 181.389 43.292 180.53 44.488C179.671 45.6533 178.414 46.5427 176.758 47.156C175.102 47.7693 173.047 48.076 170.594 48.076H165.488C164.721 48.076 164.123 48.2293 163.694 48.536C163.265 48.8427 163.05 49.2567 163.05 49.778C163.05 50.2687 163.249 50.6827 163.648 51.02C164.077 51.3573 164.706 51.526 165.534 51.526H177.908C179.963 51.526 181.588 52.17 182.784 53.458C184.011 54.7153 184.624 56.31 184.624 58.242C184.624 59.714 184.241 61.002 183.474 62.106C182.738 63.2407 181.711 64.13 180.392 64.774C179.104 65.418 177.617 65.74 175.93 65.74H162.498ZM164.016 61.508H175.746C176.298 61.508 176.789 61.4007 177.218 61.186C177.647 61.002 177.985 60.7107 178.23 60.312C178.475 59.944 178.598 59.5147 178.598 59.024C178.598 58.2267 178.337 57.6133 177.816 57.184C177.295 56.7853 176.666 56.586 175.93 56.586H164.154C163.357 56.586 162.697 56.7853 162.176 57.184C161.655 57.6133 161.394 58.2113 161.394 58.978C161.394 59.7447 161.639 60.358 162.13 60.818C162.621 61.278 163.249 61.508 164.016 61.508ZM169.766 43.89C171.667 43.89 173.139 43.5987 174.182 43.016C175.255 42.4027 175.792 41.452 175.792 40.164C175.792 38.8453 175.255 37.8947 174.182 37.312C173.139 36.6987 171.667 36.392 169.766 36.392C167.865 36.392 166.377 36.6987 165.304 37.312C164.261 37.8947 163.74 38.8453 163.74 40.164C163.74 41.0533 163.97 41.774 164.43 42.326C164.89 42.878 165.565 43.2767 166.454 43.522C167.374 43.7673 168.478 43.89 169.766 43.89ZM39.274 101.552C35.87 101.552 33.018 101.031 30.718 99.988C28.418 98.9147 26.6853 97.3507 25.52 95.296C24.3547 93.2413 23.772 90.7573 23.772 87.844V69.398H30.258V87.614C30.258 90.3433 31.04 92.444 32.604 93.916C34.168 95.3573 36.3913 96.078 39.274 96.078C42.126 96.078 44.334 95.3573 45.898 93.916C47.4927 92.444 48.29 90.3433 48.29 87.614V69.398H54.822V87.844C54.822 90.7573 54.224 93.2413 53.028 95.296C51.8627 97.3507 50.13 98.9147 47.83 99.988C45.53 101.031 42.678 101.552 39.274 101.552ZM59.693 101L72.849 84.532L60.889 69.398H69.077L77.035 79.886H77.403L85.453 69.398H93.135L81.221 84.348L94.423 101H86.235L77.035 88.948H76.621L67.375 101H59.693ZM111.6 101V69.398H131.242C133.419 69.398 135.259 69.8427 136.762 70.732C138.295 71.5907 139.46 72.7867 140.258 74.32C141.086 75.8227 141.5 77.6013 141.5 79.656C141.5 81.68 141.086 83.474 140.258 85.038C139.43 86.602 138.234 87.8133 136.67 88.672C135.106 89.5307 133.22 89.96 131.012 89.96H118.086V101H111.6ZM118.086 84.486H129.908C131.502 84.486 132.729 84.0567 133.588 83.198C134.477 82.3393 134.922 81.174 134.922 79.702C134.922 78.69 134.722 77.8313 134.324 77.126C133.925 76.4207 133.358 75.884 132.622 75.516C131.886 75.1173 130.981 74.918 129.908 74.918H118.086V84.486ZM153.044 101.552C151.97 101.552 150.897 101.445 149.824 101.23C148.781 101.046 147.815 100.709 146.926 100.218C146.067 99.6967 145.377 98.9913 144.856 98.102C144.334 97.182 144.074 96.0013 144.074 94.56C144.074 92.7507 144.518 91.3093 145.408 90.236C146.328 89.132 147.616 88.304 149.272 87.752C150.958 87.1693 152.921 86.786 155.16 86.602C157.429 86.418 159.882 86.326 162.52 86.326V84.854C162.52 83.9647 162.336 83.2287 161.968 82.646C161.6 82.0633 161.002 81.634 160.174 81.358C159.376 81.0513 158.257 80.898 156.816 80.898C155.558 80.898 154.5 81.0207 153.642 81.266C152.783 81.4807 152.139 81.7873 151.71 82.186C151.311 82.554 151.112 82.9833 151.112 83.474V84.072H145.178C145.147 83.9493 145.132 83.8267 145.132 83.704C145.132 83.5507 145.132 83.382 145.132 83.198C145.132 81.7873 145.592 80.5607 146.512 79.518C147.462 78.4753 148.827 77.6627 150.606 77.08C152.384 76.4973 154.531 76.206 157.046 76.206C159.591 76.206 161.707 76.4973 163.394 77.08C165.111 77.632 166.384 78.4907 167.212 79.656C168.07 80.8213 168.5 82.324 168.5 84.164V95.066C168.5 95.6487 168.638 96.078 168.914 96.354C169.22 96.63 169.619 96.768 170.11 96.768H172.042V100.77C171.735 100.893 171.229 101.046 170.524 101.23C169.818 101.445 169.006 101.552 168.086 101.552C167.012 101.552 166.123 101.399 165.417 101.092C164.712 100.785 164.176 100.371 163.808 99.85C163.44 99.298 163.179 98.6693 163.026 97.964H162.704C161.998 98.7 161.155 99.344 160.174 99.896C159.223 100.417 158.15 100.816 156.954 101.092C155.758 101.399 154.454 101.552 153.044 101.552ZM154.7 96.768C155.65 96.768 156.586 96.6453 157.506 96.4C158.426 96.1547 159.269 95.8173 160.036 95.388C160.802 94.928 161.4 94.376 161.83 93.732C162.29 93.0573 162.52 92.306 162.52 91.478V90.282C159.913 90.282 157.674 90.4047 155.804 90.65C153.964 90.8647 152.553 91.2633 151.572 91.846C150.621 92.398 150.146 93.1953 150.146 94.238C150.146 94.8513 150.345 95.342 150.744 95.71C151.142 96.078 151.679 96.354 152.354 96.538C153.059 96.6913 153.841 96.768 154.7 96.768ZM183.512 101.552C181.856 101.552 180.538 101.291 179.556 100.77C178.575 100.218 177.87 99.4207 177.44 98.378C177.011 97.3047 176.796 96.0167 176.796 94.514V81.542H172.978V76.758H176.934L178.13 69.858H182.776V76.758H188.204V81.542H182.776V94.008C182.776 94.928 182.96 95.618 183.328 96.078C183.727 96.538 184.463 96.768 185.536 96.768H188.204V100.77C187.836 100.923 187.376 101.061 186.824 101.184C186.272 101.307 185.705 101.399 185.122 101.46C184.54 101.521 184.003 101.552 183.512 101.552ZM201.167 101.552C199.511 101.552 198.192 101.291 197.211 100.77C196.229 100.218 195.524 99.4207 195.095 98.378C194.665 97.3047 194.451 96.0167 194.451 94.514V81.542H190.633V76.758H194.589L195.785 69.858H200.431V76.758H205.859V81.542H200.431V94.008C200.431 94.928 200.615 95.618 200.983 96.078C201.381 96.538 202.117 96.768 203.191 96.768H205.859V100.77C205.491 100.923 205.031 101.061 204.479 101.184C203.927 101.307 203.359 101.399 202.777 101.46C202.194 101.521 201.657 101.552 201.167 101.552ZM222.961 101.552C220.078 101.552 217.64 101.107 215.647 100.218C213.654 99.298 212.136 97.9027 211.093 96.032C210.05 94.1613 209.529 91.7847 209.529 88.902C209.529 86.05 210.035 83.6887 211.047 81.818C212.09 79.9473 213.608 78.552 215.601 77.632C217.594 76.6813 220.002 76.206 222.823 76.206C225.614 76.206 227.96 76.666 229.861 77.586C231.762 78.506 233.188 79.8707 234.139 81.68C235.09 83.4587 235.565 85.7127 235.565 88.442V90.374H215.739C215.831 91.8767 216.153 93.1187 216.705 94.1C217.288 95.0507 218.1 95.756 219.143 96.216C220.216 96.6453 221.52 96.86 223.053 96.86C223.758 96.86 224.479 96.7833 225.215 96.63C225.951 96.446 226.626 96.1853 227.239 95.848C227.883 95.5107 228.404 95.0813 228.803 94.56C229.202 94.008 229.432 93.3487 229.493 92.582H235.473C235.473 93.962 235.182 95.204 234.599 96.308C234.016 97.412 233.173 98.3627 232.069 99.16C230.965 99.9267 229.646 100.525 228.113 100.954C226.58 101.353 224.862 101.552 222.961 101.552ZM215.785 86.28H229.309C229.309 85.3293 229.14 84.5167 228.803 83.842C228.466 83.1673 228.006 82.6153 227.423 82.186C226.84 81.7567 226.166 81.45 225.399 81.266C224.632 81.0513 223.789 80.944 222.869 80.944C221.489 80.944 220.278 81.1433 219.235 81.542C218.223 81.91 217.426 82.4927 216.843 83.29C216.291 84.0873 215.938 85.084 215.785 86.28ZM240.774 101V76.758H245.696L246.156 80.852H246.478C246.816 80.024 247.26 79.2727 247.812 78.598C248.364 77.8927 249.054 77.3253 249.882 76.896C250.71 76.436 251.692 76.206 252.826 76.206C253.348 76.206 253.838 76.252 254.298 76.344C254.789 76.436 255.203 76.5433 255.54 76.666V82.094H253.056C251.983 82.094 251.048 82.2627 250.25 82.6C249.453 82.9373 248.794 83.428 248.272 84.072C247.751 84.716 247.368 85.452 247.122 86.28C246.877 87.108 246.754 88.0127 246.754 88.994V101H240.774ZM259.282 101V76.758H264.204L264.664 80.484H265.032C265.768 79.5027 266.612 78.7053 267.562 78.092C268.513 77.448 269.54 76.9727 270.644 76.666C271.779 76.3593 272.929 76.206 274.094 76.206C276.026 76.206 277.667 76.528 279.016 77.172C280.366 77.816 281.408 78.8127 282.144 80.162C282.88 81.4807 283.248 83.2133 283.248 85.36V101H277.222V86.418C277.222 85.4673 277.1 84.67 276.854 84.026C276.609 83.382 276.241 82.8607 275.75 82.462C275.29 82.0633 274.738 81.7873 274.094 81.634C273.45 81.45 272.714 81.358 271.886 81.358C270.721 81.358 269.632 81.6187 268.62 82.14C267.608 82.6613 266.796 83.382 266.182 84.302C265.569 85.222 265.262 86.3107 265.262 87.568V101H259.282ZM300.099 101.552C298.32 101.552 296.695 101.383 295.223 101.046C293.751 100.709 292.478 100.233 291.405 99.62C290.332 98.976 289.488 98.194 288.875 97.274C288.292 96.354 288.001 95.3113 288.001 94.146C288.001 93.9927 288.001 93.8547 288.001 93.732C288.032 93.6093 288.062 93.502 288.093 93.41H294.119C294.119 93.4407 294.104 93.502 294.073 93.594C294.073 93.6553 294.073 93.7167 294.073 93.778C294.104 94.5753 294.41 95.2193 294.993 95.71C295.576 96.17 296.327 96.5073 297.247 96.722C298.167 96.9367 299.164 97.044 300.237 97.044C301.218 97.044 302.169 96.9673 303.089 96.814C304.009 96.6607 304.76 96.4 305.343 96.032C305.926 95.6333 306.217 95.0813 306.217 94.376C306.217 93.5787 305.864 92.996 305.159 92.628C304.484 92.2293 303.549 91.9227 302.353 91.708C301.157 91.4627 299.762 91.1867 298.167 90.88C296.94 90.6347 295.76 90.3433 294.625 90.006C293.49 89.6687 292.478 89.2393 291.589 88.718C290.73 88.1967 290.04 87.522 289.519 86.694C289.028 85.8353 288.783 84.7927 288.783 83.566C288.783 82.3087 289.059 81.22 289.611 80.3C290.163 79.38 290.945 78.6287 291.957 78.046C293 77.4327 294.226 76.988 295.637 76.712C297.078 76.4053 298.673 76.252 300.421 76.252C302.046 76.252 303.518 76.4053 304.837 76.712C306.186 76.988 307.352 77.4173 308.333 78C309.345 78.5827 310.127 79.3033 310.679 80.162C311.231 80.99 311.507 81.9253 311.507 82.968C311.507 83.1213 311.507 83.2747 311.507 83.428C311.507 83.5813 311.492 83.704 311.461 83.796H305.481V83.566C305.481 82.922 305.251 82.4007 304.791 82.002C304.331 81.5727 303.718 81.266 302.951 81.082C302.184 80.8673 301.295 80.76 300.283 80.76C299.731 80.76 299.133 80.7907 298.489 80.852C297.845 80.9133 297.247 81.036 296.695 81.22C296.143 81.404 295.683 81.634 295.315 81.91C294.947 82.186 294.763 82.554 294.763 83.014C294.763 83.658 295.07 84.1487 295.683 84.486C296.327 84.8233 297.155 85.0993 298.167 85.314C299.179 85.498 300.283 85.7127 301.479 85.958C302.828 86.2033 304.147 86.4793 305.435 86.786C306.723 87.0927 307.873 87.5067 308.885 88.028C309.897 88.5187 310.71 89.2087 311.323 90.098C311.936 90.9873 312.243 92.168 312.243 93.64C312.243 95.112 311.952 96.354 311.369 97.366C310.817 98.378 310.004 99.1907 308.931 99.804C307.888 100.417 306.616 100.862 305.113 101.138C303.61 101.414 301.939 101.552 300.099 101.552Z" fill="white"/>
<rect x="20" y="133" width="62" height="23" rx="2" fill="#f05454"/>
<path d="M56.8594 148.273C57.2344 148.93 56.7656 149.75 56.0156 149.75H45.9844C45.2109 149.75 44.7422 148.93 45.1406 148.273L50.1328 139.742C50.5312 139.086 51.4922 139.086 51.8438 139.742L56.8594 148.273Z" fill="black"/>
<rect x="20" y="169" width="62" height="23" rx="2" fill="#f05454"/>
<path d="M57 180.5C57 183.828 54.3047 186.5 51 186.5C47.6719 186.5 45 183.828 45 180.5C45 177.875 46.7578 175.508 49.2656 174.758C49.6641 174.641 50.0859 174.875 50.2031 175.273C50.3203 175.672 50.1094 176.07 49.7109 176.188C47.8125 176.75 46.5 178.531 46.5 180.5C46.5 182.984 48.5156 185 51 185C53.4609 185 55.5 182.984 55.5 180.5C55.5 178.531 54.1641 176.75 52.2656 176.188C51.8672 176.07 51.6562 175.672 51.7734 175.273C51.8906 174.875 52.3125 174.641 52.7109 174.758C55.2188 175.508 57 177.875 57 180.5Z" fill="black"/>
<rect x="20" y="205" width="62" height="23" rx="2" fill="#f05454"/>
<path d="M56.25 213.5C56.25 213.711 56.1562 213.898 56.0156 214.039L50.0156 220.039C49.875 220.18 49.6875 220.25 49.5 220.25C49.2891 220.25 49.1016 220.18 48.9609 220.039L45.9609 217.039C45.8203 216.898 45.75 216.711 45.75 216.5C45.75 216.078 46.0781 215.75 46.5 215.75C46.6875 215.75 46.875 215.844 47.0156 215.984L49.5 218.445L54.9609 212.984C55.1016 212.844 55.2891 212.75 55.5 212.75C55.8984 212.75 56.25 213.078 56.25 213.5Z" fill="black"/>
<path d="M240 139.25H232.5C231.656 139.25 231 139.906 231 140.727V148.227C231 149.047 231.656 149.727 232.5 149.727H240C240.82 149.727 241.5 149.047 241.5 148.227V140.727C241.5 139.93 240.82 139.25 240 139.25ZM240.375 148.25C240.375 148.461 240.188 148.625 240 148.625H232.5C232.289 148.625 232.125 148.461 232.125 148.25V140.75C232.125 140.562 232.289 140.375 232.5 140.375H240C240.188 140.375 240.375 140.562 240.375 140.75V148.25Z" fill="#f05454"/>
<path d="M250 138.5C246.672 138.5 244 141.195 244 144.5C244 147.828 246.672 150.5 250 150.5C253.305 150.5 256 147.828 256 144.5C256 141.195 253.305 138.5 250 138.5ZM250 149.375C247.305 149.375 245.125 147.195 245.125 144.5C245.125 141.828 247.305 139.625 250 139.625C252.672 139.625 254.875 141.828 254.875 144.5C254.875 147.195 252.672 149.375 250 149.375Z" fill="#f05454"/>
<path d="M263.977 140.492L268.758 148.625H259.219L263.977 140.492ZM263.977 139.25C263.648 139.25 263.32 139.414 263.109 139.742L258.094 148.273C257.719 148.93 258.211 149.75 258.961 149.75H268.992C269.766 149.75 270.234 148.93 269.836 148.273L264.844 139.742C264.656 139.414 264.328 139.25 263.977 139.25Z" fill="#f05454"/>
<path d="M316.312 147.289C316.523 147.523 316.523 147.875 316.312 148.086C316.078 148.32 315.727 148.32 315.516 148.086L312.75 145.297L309.961 148.086C309.727 148.32 309.375 148.32 309.164 148.086C308.93 147.875 308.93 147.523 309.164 147.289L311.953 144.5L309.164 141.711C308.93 141.477 308.93 141.125 309.164 140.914C309.375 140.68 309.727 140.68 309.938 140.914L312.75 143.727L315.539 140.938C315.75 140.703 316.102 140.703 316.312 140.938C316.547 141.148 316.547 141.5 316.312 141.734L313.523 144.5L316.312 147.289Z" fill="#f05454"/>
<rect x="225.5" y="133.5" width="97" height="22" rx="1.5" stroke="#f05454"/>
</svg>
