<svg width="337" height="295" viewBox="0 0 337 295" fill="none" xmlns="http://www.w3.org/2000/svg">
<rect width="337" height="295" rx="4" fill="black"/>
<path d="M24.002 57V25.398H38.814C42.3713 25.398 45.4073 25.996 47.922 27.192C50.4673 28.3573 52.4147 30.1053 53.764 32.436C55.144 34.7667 55.834 37.6953 55.834 41.222C55.834 44.718 55.144 47.6313 53.764 49.962C52.4147 52.2927 50.4673 54.056 47.922 55.252C45.4073 56.4173 42.3713 57 38.814 57H24.002ZM30.488 51.526H38.63C40.2247 51.526 41.666 51.3267 42.954 50.928C44.242 50.4987 45.3307 49.8853 46.22 49.088C47.14 48.26 47.8453 47.2327 48.336 46.006C48.8573 44.7793 49.118 43.3533 49.118 41.728V40.716C49.118 39.0907 48.8573 37.6647 48.336 36.438C47.8453 35.2113 47.14 34.1993 46.22 33.402C45.3307 32.574 44.242 31.9607 42.954 31.562C41.666 31.1327 40.2247 30.918 38.63 30.918H30.488V51.526ZM73.9102 57.552C71.0275 57.552 68.5895 57.1073 66.5962 56.218C64.6029 55.298 63.0849 53.9027 62.0422 52.032C60.9995 50.1613 60.4782 47.7847 60.4782 44.902C60.4782 42.05 60.9842 39.6887 61.9962 37.818C63.0389 35.9473 64.5569 34.552 66.5502 33.632C68.5435 32.6813 70.9509 32.206 73.7722 32.206C76.5629 32.206 78.9089 32.666 80.8102 33.586C82.7115 34.506 84.1375 35.8707 85.0882 37.68C86.0389 39.4587 86.5142 41.7127 86.5142 44.442V46.374H66.6882C66.7802 47.8767 67.1022 49.1187 67.6542 50.1C68.2369 51.0507 69.0495 51.756 70.0922 52.216C71.1655 52.6453 72.4689 52.86 74.0022 52.86C74.7075 52.86 75.4282 52.7833 76.1642 52.63C76.9002 52.446 77.5749 52.1853 78.1882 51.848C78.8322 51.5107 79.3535 51.0813 79.7522 50.56C80.1509 50.008 80.3809 49.3487 80.4422 48.582H86.4222C86.4222 49.962 86.1309 51.204 85.5482 52.308C84.9655 53.412 84.1222 54.3627 83.0182 55.16C81.9142 55.9267 80.5955 56.5247 79.0622 56.954C77.5289 57.3527 75.8115 57.552 73.9102 57.552ZM66.7342 42.28H80.2582C80.2582 41.3293 80.0895 40.5167 79.7522 39.842C79.4149 39.1673 78.9549 38.6153 78.3722 38.186C77.7895 37.7567 77.1149 37.45 76.3482 37.266C75.5815 37.0513 74.7382 36.944 73.8182 36.944C72.4382 36.944 71.2269 37.1433 70.1842 37.542C69.1722 37.91 68.3749 38.4927 67.7922 39.29C67.2402 40.0873 66.8875 41.084 66.7342 42.28ZM102.488 57.552C100.709 57.552 99.0837 57.3833 97.6117 57.046C96.1397 56.7087 94.867 56.2333 93.7937 55.62C92.7204 54.976 91.877 54.194 91.2637 53.274C90.681 52.354 90.3897 51.3113 90.3897 50.146C90.3897 49.9927 90.3897 49.8547 90.3897 49.732C90.4204 49.6093 90.451 49.502 90.4817 49.41H96.5077C96.5077 49.4407 96.4924 49.502 96.4617 49.594C96.4617 49.6553 96.4617 49.7167 96.4617 49.778C96.4924 50.5753 96.799 51.2193 97.3817 51.71C97.9644 52.17 98.7157 52.5073 99.6357 52.722C100.556 52.9367 101.552 53.044 102.626 53.044C103.607 53.044 104.558 52.9673 105.478 52.814C106.398 52.6607 107.149 52.4 107.732 52.032C108.314 51.6333 108.606 51.0813 108.606 50.376C108.606 49.5787 108.253 48.996 107.548 48.628C106.873 48.2293 105.938 47.9227 104.742 47.708C103.546 47.4627 102.15 47.1867 100.556 46.88C99.329 46.6347 98.1484 46.3433 97.0137 46.006C95.879 45.6687 94.867 45.2393 93.9777 44.718C93.119 44.1967 92.429 43.522 91.9077 42.694C91.417 41.8353 91.1717 40.7927 91.1717 39.566C91.1717 38.3087 91.4477 37.22 91.9997 36.3C92.5517 35.38 93.3337 34.6287 94.3457 34.046C95.3884 33.4327 96.615 32.988 98.0257 32.712C99.467 32.4053 101.062 32.252 102.81 32.252C104.435 32.252 105.907 32.4053 107.226 32.712C108.575 32.988 109.74 33.4173 110.722 34C111.734 34.5827 112.516 35.3033 113.068 36.162C113.62 36.99 113.896 37.9253 113.896 38.968C113.896 39.1213 113.896 39.2747 113.896 39.428C113.896 39.5813 113.88 39.704 113.85 39.796H107.87V39.566C107.87 38.922 107.64 38.4007 107.18 38.002C106.72 37.5727 106.106 37.266 105.34 37.082C104.573 36.8673 103.684 36.76 102.672 36.76C102.12 36.76 101.522 36.7907 100.878 36.852C100.234 36.9133 99.6357 37.036 99.0837 37.22C98.5317 37.404 98.0717 37.634 97.7037 37.91C97.3357 38.186 97.1517 38.554 97.1517 39.014C97.1517 39.658 97.4584 40.1487 98.0717 40.486C98.7157 40.8233 99.5437 41.0993 100.556 41.314C101.568 41.498 102.672 41.7127 103.868 41.958C105.217 42.2033 106.536 42.4793 107.824 42.786C109.112 43.0927 110.262 43.5067 111.274 44.028C112.286 44.5187 113.098 45.2087 113.712 46.098C114.325 46.9873 114.632 48.168 114.632 49.64C114.632 51.112 114.34 52.354 113.758 53.366C113.206 54.378 112.393 55.1907 111.32 55.804C110.277 56.4173 109.004 56.862 107.502 57.138C105.999 57.414 104.328 57.552 102.488 57.552ZM119.62 28.94V23.696H125.6V28.94H119.62ZM119.62 57V32.758H125.6V57H119.62ZM136.668 65.74C135.411 65.74 134.23 65.5407 133.126 65.142C132.053 64.7433 131.179 64.1147 130.504 63.256C129.86 62.428 129.538 61.3393 129.538 59.99C129.538 58.7327 129.937 57.6747 130.734 56.816C131.562 55.9573 132.543 55.3287 133.678 54.93C132.85 54.5007 132.206 53.9333 131.746 53.228C131.317 52.492 131.102 51.664 131.102 50.744C131.102 49.548 131.531 48.5513 132.39 47.754C133.249 46.926 134.322 46.4047 135.61 46.19C134.414 45.5153 133.494 44.6567 132.85 43.614C132.206 42.5713 131.884 41.4213 131.884 40.164C131.884 38.3853 132.344 36.9133 133.264 35.748C134.184 34.5827 135.533 33.7087 137.312 33.126C139.121 32.5127 141.329 32.206 143.936 32.206C144.948 32.206 145.914 32.2673 146.834 32.39C147.754 32.5127 148.613 32.6813 149.41 32.896C150.667 32.252 151.587 31.5313 152.17 30.734C152.783 29.9367 153.136 29.2467 153.228 28.664H158.978C158.947 29.7373 158.702 30.688 158.242 31.516C157.782 32.344 157.153 33.034 156.356 33.586C155.559 34.138 154.577 34.5367 153.412 34.782C154.24 35.426 154.869 36.208 155.298 37.128C155.758 38.0173 155.988 39.0293 155.988 40.164C155.988 41.8507 155.559 43.292 154.7 44.488C153.841 45.6533 152.584 46.5427 150.928 47.156C149.272 47.7693 147.217 48.076 144.764 48.076H139.658C138.891 48.076 138.293 48.2293 137.864 48.536C137.435 48.8427 137.22 49.2567 137.22 49.778C137.22 50.2687 137.419 50.6827 137.818 51.02C138.247 51.3573 138.876 51.526 139.704 51.526H152.078C154.133 51.526 155.758 52.17 156.954 53.458C158.181 54.7153 158.794 56.31 158.794 58.242C158.794 59.714 158.411 61.002 157.644 62.106C156.908 63.2407 155.881 64.13 154.562 64.774C153.274 65.418 151.787 65.74 150.1 65.74H136.668ZM138.186 61.508H149.916C150.468 61.508 150.959 61.4007 151.388 61.186C151.817 61.002 152.155 60.7107 152.4 60.312C152.645 59.944 152.768 59.5147 152.768 59.024C152.768 58.2267 152.507 57.6133 151.986 57.184C151.465 56.7853 150.836 56.586 150.1 56.586H138.324C137.527 56.586 136.867 56.7853 136.346 57.184C135.825 57.6133 135.564 58.2113 135.564 58.978C135.564 59.7447 135.809 60.358 136.3 60.818C136.791 61.278 137.419 61.508 138.186 61.508ZM143.936 43.89C145.837 43.89 147.309 43.5987 148.352 43.016C149.425 42.4027 149.962 41.452 149.962 40.164C149.962 38.8453 149.425 37.8947 148.352 37.312C147.309 36.6987 145.837 36.392 143.936 36.392C142.035 36.392 140.547 36.6987 139.474 37.312C138.431 37.8947 137.91 38.8453 137.91 40.164C137.91 41.0533 138.14 41.774 138.6 42.326C139.06 42.878 139.735 43.2767 140.624 43.522C141.544 43.7673 142.648 43.89 143.936 43.89ZM162.386 57V32.758H167.308L167.768 36.484H168.136C168.872 35.5027 169.715 34.7053 170.666 34.092C171.616 33.448 172.644 32.9727 173.748 32.666C174.882 32.3593 176.032 32.206 177.198 32.206C179.13 32.206 180.77 32.528 182.12 33.172C183.469 33.816 184.512 34.8127 185.248 36.162C185.984 37.4807 186.352 39.2133 186.352 41.36V57H180.326V42.418C180.326 41.4673 180.203 40.67 179.958 40.026C179.712 39.382 179.344 38.8607 178.854 38.462C178.394 38.0633 177.842 37.7873 177.198 37.634C176.554 37.45 175.818 37.358 174.99 37.358C173.824 37.358 172.736 37.6187 171.724 38.14C170.712 38.6613 169.899 39.382 169.286 40.302C168.672 41.222 168.366 42.3107 168.366 43.568V57H162.386ZM37.664 101.552C35.5787 101.552 33.6007 101.383 31.73 101.046C29.89 100.709 28.2647 100.157 26.854 99.39C25.474 98.5927 24.3853 97.5653 23.588 96.308C22.7907 95.02 22.392 93.4253 22.392 91.524C22.392 91.4013 22.392 91.2787 22.392 91.156C22.4227 91.0027 22.438 90.88 22.438 90.788H28.924C28.924 90.88 28.9087 91.018 28.878 91.202C28.878 91.3553 28.878 91.524 28.878 91.708C28.878 92.6893 29.2307 93.5173 29.936 94.192C30.6413 94.836 31.6533 95.3267 32.972 95.664C34.3213 95.9707 35.8853 96.124 37.664 96.124C38.6147 96.124 39.504 96.078 40.332 95.986C41.1907 95.894 41.9727 95.756 42.678 95.572C43.3833 95.3573 43.9967 95.112 44.518 94.836C45.0393 94.5293 45.438 94.1767 45.714 93.778C45.99 93.3487 46.128 92.8887 46.128 92.398C46.128 91.5393 45.806 90.8493 45.162 90.328C44.518 89.8067 43.644 89.3773 42.54 89.04C41.4667 88.672 40.24 88.3653 38.86 88.12C37.5107 87.844 36.1153 87.5527 34.674 87.246C33.2327 86.9393 31.822 86.556 30.442 86.096C29.0927 85.636 27.866 85.0687 26.762 84.394C25.6887 83.6887 24.83 82.7993 24.186 81.726C23.542 80.6527 23.22 79.3493 23.22 77.816C23.22 76.344 23.5573 75.056 24.232 73.952C24.9067 72.8173 25.8727 71.882 27.13 71.146C28.418 70.3793 29.9513 69.812 31.73 69.444C33.5087 69.0453 35.502 68.846 37.71 68.846C39.8873 68.846 41.85 69.0453 43.598 69.444C45.346 69.8427 46.818 70.4407 48.014 71.238C49.2407 72.0047 50.1607 72.9553 50.774 74.09C51.418 75.2247 51.74 76.528 51.74 78V78.644H45.346V78.092C45.346 77.3253 45.024 76.666 44.38 76.114C43.7667 75.5313 42.8927 75.0867 41.758 74.78C40.654 74.4427 39.3813 74.274 37.94 74.274C36.1307 74.274 34.628 74.412 33.432 74.688C32.236 74.964 31.3467 75.3473 30.764 75.838C30.1813 76.3287 29.89 76.896 29.89 77.54C29.89 78.276 30.212 78.8893 30.856 79.38C31.5 79.84 32.3587 80.2233 33.432 80.53C34.5053 80.8367 35.7167 81.128 37.066 81.404C38.446 81.6493 39.8567 81.9407 41.298 82.278C42.77 82.5847 44.1807 82.968 45.53 83.428C46.91 83.8573 48.1367 84.4247 49.21 85.13C50.314 85.8353 51.1727 86.7093 51.786 87.752C52.43 88.7947 52.752 90.0673 52.752 91.57C52.752 93.9927 52.108 95.94 50.82 97.412C49.5627 98.8533 47.784 99.9113 45.484 100.586C43.2147 101.23 40.608 101.552 37.664 101.552ZM61.3871 109.74C60.3751 109.74 59.5164 109.663 58.8111 109.51C58.1057 109.357 57.5691 109.219 57.2011 109.096V105.002H60.0991C61.1417 105.002 62.0311 104.833 62.7671 104.496C63.5031 104.189 64.1317 103.729 64.6531 103.116C65.1744 102.533 65.6191 101.828 65.9871 101L55.2691 76.758H61.7091L66.5851 88.442C66.8304 88.994 67.0911 89.6687 67.3671 90.466C67.6737 91.2633 67.9804 92.0913 68.2871 92.95C68.6244 93.778 68.9004 94.514 69.1151 95.158H69.3911C69.4524 94.9127 69.5597 94.5293 69.7131 94.008C69.8971 93.4867 70.0964 92.8887 70.3111 92.214C70.5564 91.5393 70.8017 90.8647 71.0471 90.19C71.2924 89.5153 71.5071 88.9173 71.6911 88.396L75.9231 76.758H82.0871L73.1171 99.206C72.4424 100.77 71.7677 102.196 71.0931 103.484C70.4184 104.772 69.6364 105.876 68.7471 106.796C67.8884 107.747 66.8611 108.467 65.6651 108.958C64.4691 109.479 63.0431 109.74 61.3871 109.74ZM96.1986 101.552C94.42 101.552 92.7946 101.383 91.3226 101.046C89.8506 100.709 88.578 100.233 87.5046 99.62C86.4313 98.976 85.588 98.194 84.9746 97.274C84.392 96.354 84.1006 95.3113 84.1006 94.146C84.1006 93.9927 84.1006 93.8547 84.1006 93.732C84.1313 93.6093 84.162 93.502 84.1926 93.41H90.2186C90.2186 93.4407 90.2033 93.502 90.1726 93.594C90.1726 93.6553 90.1726 93.7167 90.1726 93.778C90.2033 94.5753 90.51 95.2193 91.0926 95.71C91.6753 96.17 92.4266 96.5073 93.3466 96.722C94.2666 96.9367 95.2633 97.044 96.3366 97.044C97.318 97.044 98.2686 96.9673 99.1886 96.814C100.109 96.6607 100.86 96.4 101.443 96.032C102.025 95.6333 102.317 95.0813 102.317 94.376C102.317 93.5787 101.964 92.996 101.259 92.628C100.584 92.2293 99.6486 91.9227 98.4526 91.708C97.2566 91.4627 95.8613 91.1867 94.2666 90.88C93.04 90.6347 91.8593 90.3433 90.7246 90.006C89.59 89.6687 88.578 89.2393 87.6886 88.718C86.83 88.1967 86.14 87.522 85.6186 86.694C85.128 85.8353 84.8826 84.7927 84.8826 83.566C84.8826 82.3087 85.1586 81.22 85.7106 80.3C86.2626 79.38 87.0446 78.6287 88.0566 78.046C89.0993 77.4327 90.326 76.988 91.7366 76.712C93.178 76.4053 94.7726 76.252 96.5206 76.252C98.146 76.252 99.618 76.4053 100.937 76.712C102.286 76.988 103.451 77.4173 104.433 78C105.445 78.5827 106.227 79.3033 106.779 80.162C107.331 80.99 107.607 81.9253 107.607 82.968C107.607 83.1213 107.607 83.2747 107.607 83.428C107.607 83.5813 107.591 83.704 107.561 83.796H101.581V83.566C101.581 82.922 101.351 82.4007 100.891 82.002C100.431 81.5727 99.8173 81.266 99.0506 81.082C98.284 80.8673 97.3946 80.76 96.3826 80.76C95.8306 80.76 95.2326 80.7907 94.5886 80.852C93.9446 80.9133 93.3466 81.036 92.7946 81.22C92.2426 81.404 91.7826 81.634 91.4146 81.91C91.0466 82.186 90.8626 82.554 90.8626 83.014C90.8626 83.658 91.1693 84.1487 91.7826 84.486C92.4266 84.8233 93.2546 85.0993 94.2666 85.314C95.2786 85.498 96.3826 85.7127 97.5786 85.958C98.928 86.2033 100.247 86.4793 101.535 86.786C102.823 87.0927 103.973 87.5067 104.985 88.028C105.997 88.5187 106.809 89.2087 107.423 90.098C108.036 90.9873 108.343 92.168 108.343 93.64C108.343 95.112 108.051 96.354 107.469 97.366C106.917 98.378 106.104 99.1907 105.031 99.804C103.988 100.417 102.715 100.862 101.213 101.138C99.71 101.414 98.0386 101.552 96.1986 101.552ZM121.565 101.552C119.909 101.552 118.59 101.291 117.609 100.77C116.628 100.218 115.922 99.4207 115.493 98.378C115.064 97.3047 114.849 96.0167 114.849 94.514V81.542H111.031V76.758H114.987L116.183 69.858H120.829V76.758H126.257V81.542H120.829V94.008C120.829 94.928 121.013 95.618 121.381 96.078C121.78 96.538 122.516 96.768 123.589 96.768H126.257V100.77C125.889 100.923 125.429 101.061 124.877 101.184C124.325 101.307 123.758 101.399 123.175 101.46C122.592 101.521 122.056 101.552 121.565 101.552ZM143.359 101.552C140.477 101.552 138.039 101.107 136.045 100.218C134.052 99.298 132.534 97.9027 131.491 96.032C130.449 94.1613 129.927 91.7847 129.927 88.902C129.927 86.05 130.433 83.6887 131.445 81.818C132.488 79.9473 134.006 78.552 135.999 77.632C137.993 76.6813 140.4 76.206 143.221 76.206C146.012 76.206 148.358 76.666 150.259 77.586C152.161 78.506 153.587 79.8707 154.537 81.68C155.488 83.4587 155.963 85.7127 155.963 88.442V90.374H136.137C136.229 91.8767 136.551 93.1187 137.103 94.1C137.686 95.0507 138.499 95.756 139.541 96.216C140.615 96.6453 141.918 96.86 143.451 96.86C144.157 96.86 144.877 96.7833 145.613 96.63C146.349 96.446 147.024 96.1853 147.637 95.848C148.281 95.5107 148.803 95.0813 149.201 94.56C149.6 94.008 149.83 93.3487 149.891 92.582H155.871C155.871 93.962 155.58 95.204 154.997 96.308C154.415 97.412 153.571 98.3627 152.467 99.16C151.363 99.9267 150.045 100.525 148.511 100.954C146.978 101.353 145.261 101.552 143.359 101.552ZM136.183 86.28H149.707C149.707 85.3293 149.539 84.5167 149.201 83.842C148.864 83.1673 148.404 82.6153 147.821 82.186C147.239 81.7567 146.564 81.45 145.797 81.266C145.031 81.0513 144.187 80.944 143.267 80.944C141.887 80.944 140.676 81.1433 139.633 81.542C138.621 81.91 137.824 82.4927 137.241 83.29C136.689 84.0873 136.337 85.084 136.183 86.28ZM161.173 101V76.758H166.095L166.555 80.484H166.923C167.628 79.5027 168.426 78.7053 169.315 78.092C170.204 77.448 171.186 76.9727 172.259 76.666C173.332 76.3593 174.421 76.206 175.525 76.206C177.365 76.206 178.944 76.5433 180.263 77.218C181.582 77.8927 182.563 78.9813 183.207 80.484H183.575C184.28 79.5027 185.093 78.7053 186.013 78.092C186.933 77.448 187.93 76.9727 189.003 76.666C190.107 76.3593 191.226 76.206 192.361 76.206C194.17 76.206 195.719 76.528 197.007 77.172C198.295 77.7853 199.276 78.7513 199.951 80.07C200.656 81.3887 201.009 83.106 201.009 85.222V101H195.029V86.372C195.029 85.4213 194.906 84.624 194.661 83.98C194.446 83.336 194.124 82.83 193.695 82.462C193.266 82.0633 192.76 81.7873 192.177 81.634C191.594 81.45 190.935 81.358 190.199 81.358C189.126 81.358 188.114 81.6187 187.163 82.14C186.243 82.6613 185.492 83.382 184.909 84.302C184.357 85.222 184.081 86.3107 184.081 87.568V101H178.101V86.372C178.101 85.4213 177.978 84.624 177.733 83.98C177.518 83.336 177.196 82.83 176.767 82.462C176.368 82.0633 175.862 81.7873 175.249 81.634C174.666 81.45 174.022 81.358 173.317 81.358C172.213 81.358 171.186 81.6187 170.235 82.14C169.315 82.6613 168.564 83.382 167.981 84.302C167.429 85.222 167.153 86.3107 167.153 87.568V101H161.173Z" fill="white"/>
<path d="M51.625 260.062C52.625 261.812 51.375 264 49.375 264H22.625C20.5625 264 19.3125 261.812 20.375 260.062L33.6875 237.312C34.75 235.562 37.3125 235.562 38.25 237.312L51.625 260.062Z" fill="#F05454"/>
<path d="M84 236H64C61.75 236 60 237.75 60 239.938V259.938C60 262.125 61.75 263.938 64 263.938H84C86.1875 263.938 88 262.125 88 259.938V239.938C88 237.812 86.1875 236 84 236ZM87 260C87 261.688 85.625 263 84 263H64C62.3125 263 61 261.688 61 260V240C61 238.375 62.3125 237 64 237H84C85.625 237 87 238.375 87 240V260Z" fill="#F05454"/>
<path d="M127.625 260.062L114.312 237.312C113.75 236.438 112.875 236 111.938 236C110.938 236 110.188 236.438 109.625 237.312L96.25 260.062C95.25 261.812 96.5625 264 98.5625 264H125.312C127.375 264 128.625 261.812 127.625 260.062ZM126.75 262.188C126.438 262.688 125.938 263 125.312 263H98.625C98 263 97.5 262.75 97.1875 262.188C96.875 261.688 96.875 261.125 97.1875 260.625L110.5 237.875C110.812 237.312 111.375 237 111.938 237C112.5 237 113.062 237.312 113.375 237.875L126.688 260.562C127.062 261.125 127.062 261.688 126.75 262.188Z" fill="#F05454"/>
<path d="M164 240V260C164 262.188 162.188 264 160 264H140C137.75 264 136 262.188 136 260V240C136 237.75 137.75 236 140 236H160C162.188 236 164 237.812 164 240Z" fill="#F05454"/>
<path d="M204 250C204 258.875 196.812 266 188 266C179.125 266 172 258.875 172 250C172 241.188 179.125 234 188 234C196.812 234 204 241.188 204 250Z" fill="#F05454"/>
<rect x="20.5" y="179.5" width="56" height="23" rx="1.5" fill="#F05454" stroke="#F05454" stroke-dasharray="6 6"/>
<rect x="84.5" y="179.5" width="55" height="23" rx="1.5" fill="#F05454"/>
<rect x="89.5" y="184.5" width="13" height="13" rx="6.5" stroke="black" stroke-dasharray="6 6"/>
<rect x="84.5" y="179.5" width="55" height="23" rx="1.5" stroke="#F05454" stroke-dasharray="6 6"/>
<rect x="147.5" y="179.5" width="56" height="23" rx="1.5" stroke="#F05454"/>
<rect x="20.5" y="209.5" width="183" height="19" rx="1.5" stroke="#F05454"/>
<rect x="20.5" y="133.5" width="39" height="39" stroke="#F05454" stroke-dasharray="6 6"/>
<rect x="68.5" y="133.5" width="39" height="39" rx="1.5" fill="#F05454" stroke="#F05454" stroke-dasharray="6 6"/>
<rect x="116.5" y="133.5" width="39" height="39" stroke="#F05454" stroke-dasharray="6 6"/>
<rect x="164.5" y="133.5" width="39" height="39" stroke="#F05454" stroke-dasharray="6 6"/>
<line x1="27" y1="218.5" x2="92" y2="218.5" stroke="#F05454"/>
<path d="M186.109 216.727C186.191 216.617 186.301 216.562 186.438 216.562C186.52 216.562 186.629 216.59 186.711 216.672L192.098 221.621L197.512 216.672C197.676 216.508 197.949 216.508 198.113 216.699C198.277 216.863 198.277 217.137 198.086 217.301L192.398 222.551C192.234 222.715 191.988 222.715 191.824 222.551L186.137 217.301C185.945 217.164 185.945 216.891 186.109 216.727Z" fill="#F05454"/>
</svg>
