
<svg width="215px" height="215px" viewBox="0 0 215 215" version="1.1" xmlns="http://www.w3.org/2000/svg" xmlns:xlink="http://www.w3.org/1999/xlink">
    <!-- Generator: Sketch 44.1 (41455) - http://www.bohemiancoding.com/sketch -->
    <desc>Created with Sketch.</desc>
    <defs>
        <polygon id="path-1" points="0.0504807692 19.1923077 10.0305258 19.1923077 10.0305258 0.51168587 0.0504807692 0.51168587"></polygon>
        <polygon id="path-3" points="134.855769 0.000576923077 134.855769 120.69423 0.000865384615 120.69423 0.000865384615 0.000576923077"></polygon>
    </defs>
    <g id="Page-1" stroke="none" stroke-width="1" fill="none" fill-rule="evenodd">
        <circle id="Oval" fill="#FFFFFF" cx="107.5" cy="107.5" r="107.5"></circle>
        <g id="pricesbig" transform="translate(40.000000, 32.000000)">
            <path d="M64.0926923,63.0725962 C64.0926923,66.5802885 56.6821154,69.41875 47.535,69.41875 C38.3907692,69.41875 30.9773077,66.5802885 30.9773077,63.0725962 C30.9773077,59.5649038 38.3907692,56.7235577 47.535,56.7235577 C56.6821154,56.7235577 64.0926923,59.5649038 64.0926923,63.0725962" id="Fill-1" fill="#68D1C9" fill-rule="nonzero"></path>
            <path d="M87.3216346,46.2524038 C87.3216346,49.7600962 79.9110577,52.6014423 70.7668269,52.6014423 C61.6197115,52.6014423 54.20625,49.7600962 54.20625,46.2524038 C54.20625,42.7447115 61.6197115,39.9033654 70.7668269,39.9033654 C79.9110577,39.9033654 87.3216346,42.7447115 87.3216346,46.2524038" id="Fill-3" fill="#68D1C9" fill-rule="nonzero"></path>
            <path d="M103.879904,82.1211538 C103.879904,85.6288462 96.4693269,88.4701923 87.3250962,88.4701923 C78.1779808,88.4701923 70.7645192,85.6288462 70.7645192,82.1211538 C70.7645192,78.6134615 78.1779808,75.7721154 87.3250962,75.7721154 C96.4693269,75.7721154 103.879904,78.6134615 103.879904,82.1211538" id="Fill-5" fill="#68D1C9" fill-rule="nonzero"></path>
            <path d="M49.7371154,126.061058 C49.4486538,125.908173 49.1486538,125.882212 48.8371154,125.986058 C48.5226923,126.078365 48.2919231,126.26875 48.1390385,126.554327 L46.8467308,129.026442 C46.6938462,129.314904 46.6707692,129.614904 46.7717308,129.926442 C46.8640385,130.240865 47.0515385,130.471635 47.34,130.624519 C47.6371154,130.777404 47.9428846,130.803365 48.2515385,130.699519 C48.5688462,130.607212 48.7996154,130.416827 48.9525,130.13125 L50.2448077,127.659135 C50.3976923,127.370673 50.4207692,127.070673 50.3198077,126.759135 C50.2188462,126.444712 50.0255769,126.213942 49.7371154,126.061058 L49.7371154,126.061058 Z M51.2948077,139.826442 L51.2948077,137.114904 C51.2948077,136.794712 51.2342308,136.486058 51.1073077,136.188942 L51.0928846,136.162981 C51.0005769,135.952404 50.8823077,135.759135 50.7380769,135.580288 C50.7496154,135.588942 50.7380769,135.577404 50.715,135.542788 C50.6371154,135.459135 50.5505769,135.375481 50.4611538,135.288942 C50.4265385,135.262981 50.3976923,135.242788 50.3832692,135.225481 C50.3313462,135.185096 50.2794231,135.144712 50.2303846,135.112981 C50.1784615,135.078365 50.1265385,135.04375 50.0659615,135.012019 L49.89,134.922596 L49.7111538,134.844712 C49.6448077,134.821635 49.6044231,134.807212 49.5986538,134.807212 C49.5034615,134.775481 49.4082692,134.749519 49.3073077,134.732212 C49.29,134.732212 49.2553846,134.726442 49.2034615,134.717788 C49.0851923,134.703365 48.9784615,134.694712 48.8890385,134.694712 L48.7736538,134.694712 C48.6813462,134.694712 48.5746154,134.703365 48.4563462,134.717788 C48.4044231,134.726442 48.3698077,134.732212 48.3553846,134.732212 C48.2515385,134.749519 48.1563462,134.775481 48.0640385,134.807212 L47.9371154,134.844712 C47.8765385,134.870673 47.8246154,134.896635 47.7726923,134.922596 C47.6948077,134.954327 47.6371154,134.986058 47.5938462,135.012019 C47.5246154,135.04375 47.4726923,135.078365 47.4294231,135.112981 C47.3803846,135.144712 47.3284615,135.185096 47.2765385,135.225481 C47.2707692,135.225481 47.2448077,135.248558 47.2015385,135.288942 C47.1092308,135.375481 47.0255769,135.459135 46.9476923,135.542788 C46.9390385,135.551442 46.9332692,135.560096 46.9332692,135.56875 C46.9275,135.577404 46.9159615,135.580288 46.9130769,135.580288 C46.7659615,135.759135 46.6534615,135.952404 46.5669231,136.162981 C46.5669231,136.157212 46.5611538,136.162981 46.5553846,136.188942 C46.4284615,136.486058 46.365,136.794712 46.365,137.114904 L46.365,139.826442 L51.2948077,139.826442 Z M53.4236538,135.64375 C53.5880769,136.125481 53.6659615,136.615865 53.6659615,137.114904 L53.6659615,149.804327 C53.6659615,150.133173 53.5476923,150.415865 53.3111538,150.652404 C53.0832692,150.880288 52.8034615,150.995673 52.4746154,150.995673 C52.1457692,150.995673 51.8659615,150.880288 51.6380769,150.652404 C51.4101923,150.415865 51.2948077,150.133173 51.2948077,149.804327 L51.2948077,142.197596 L46.365,142.197596 L46.365,149.804327 C46.365,150.133173 46.2525,150.415865 46.0217308,150.652404 C45.7851923,150.880288 45.5082692,150.995673 45.1880769,150.995673 C44.8563462,150.995673 44.5736538,150.880288 44.3371154,150.652404 C44.1092308,150.415865 43.9938462,150.133173 43.9938462,149.804327 L43.9938462,137.114904 C43.9938462,136.615865 44.0717308,136.125481 44.2246154,135.64375 C44.2476923,135.560096 44.2534615,135.539904 44.2361538,135.580288 C44.7582692,134.034135 45.7996154,133.021635 47.3544231,132.539904 C47.3630769,132.539904 47.3746154,132.534135 47.3919231,132.525481 C47.5188462,132.490865 47.6486538,132.459135 47.7842308,132.424519 L47.8246154,132.424519 C47.8476923,132.415865 47.865,132.412981 47.8736538,132.412981 C47.9948077,132.387019 48.1159615,132.366827 48.24,132.349519 L48.3323077,132.335096 C48.4996154,132.326442 48.6525,132.323558 48.7880769,132.323558 L48.8746154,132.323558 C49.0101923,132.323558 49.1601923,132.326442 49.3159615,132.335096 L49.4198077,132.349519 C49.5496154,132.366827 49.6707692,132.387019 49.7890385,132.412981 C49.7976923,132.412981 49.8063462,132.415865 49.8236538,132.424519 L49.8755769,132.424519 C50.0111538,132.459135 50.1438462,132.490865 50.2707692,132.525481 C50.2765385,132.534135 50.2851923,132.539904 50.2938462,132.539904 C51.8486538,133.021635 52.89,134.034135 53.4121154,135.580288 C53.4207692,135.588942 53.4236538,135.603365 53.4236538,135.617788 L53.4236538,135.64375 Z" id="Fill-7" fill="#404041" fill-rule="nonzero"></path>
            <path d="M58.4443269,139.827596 L61.1472115,139.827596 C61.8135577,139.827596 62.3818269,139.591058 62.8549038,139.117981 C63.3395192,138.644904 63.5789423,138.070865 63.5789423,137.392981 L63.5789423,137.317981 C63.5789423,136.64875 63.3395192,136.080481 62.8549038,135.607404 C62.3818269,135.134327 61.8135577,134.897788 61.1472115,134.897788 L58.4443269,134.897788 L58.4443269,139.827596 Z M65.9500962,137.392981 C65.9500962,138.846827 65.39625,140.052596 64.2885577,141.007404 C65.39625,141.970865 65.9500962,143.17375 65.9500962,144.618942 L65.9500962,149.802596 C65.9500962,150.134327 65.8318269,150.417019 65.5952885,150.653558 C65.3674038,150.881442 65.0875962,150.996827 64.75875,150.996827 C64.4270192,150.996827 64.1529808,150.881442 63.9193269,150.653558 C63.6943269,150.417019 63.5789423,150.134327 63.5789423,149.802596 L63.5789423,144.618942 C63.5789423,143.952596 63.3395192,143.381442 62.8549038,142.908365 C62.3818269,142.435288 61.8135577,142.19875 61.1472115,142.19875 L58.4443269,142.19875 L58.4443269,149.802596 C58.4443269,150.134327 58.3318269,150.417019 58.1039423,150.653558 C57.8674038,150.881442 57.5875962,150.996827 57.2674038,150.996827 C56.9385577,150.996827 56.6529808,150.881442 56.4164423,150.653558 C56.1914423,150.417019 56.0760577,150.134327 56.0760577,149.802596 L56.0760577,133.703558 C56.0760577,133.374712 56.1914423,133.097788 56.4164423,132.867019 C56.6529808,132.639135 56.9385577,132.526635 57.2674038,132.526635 L61.1472115,132.526635 C62.47125,132.526635 63.6049038,132.993942 64.5424038,133.934327 C65.4799038,134.871827 65.9500962,135.999712 65.9500962,137.317981 L65.9500962,137.392981 Z" id="Fill-9" fill="#404041" fill-rule="nonzero"></path>
            <path d="M75.6591346,139.827596 L75.6591346,137.116058 C75.6591346,136.792981 75.5985577,136.484327 75.4745192,136.190096 L75.4572115,136.164135 C75.3649038,135.953558 75.2466346,135.757404 75.1024038,135.581442 C75.1139423,135.590096 75.1024038,135.575673 75.0793269,135.543942 C74.9985577,135.457404 74.9149038,135.37375 74.8254808,135.290096 C74.7908654,135.264135 74.7620192,135.243942 74.7475962,135.226635 C74.6956731,135.183365 74.64375,135.145865 74.5947115,135.11125 C74.5427885,135.079519 74.4879808,135.044904 74.4302885,135.010288 C74.38125,134.984327 74.3177885,134.955481 74.2572115,134.920865 C74.19375,134.897788 74.1331731,134.871827 74.0754808,134.845865 C74.0091346,134.819904 73.96875,134.808365 73.9629808,134.808365 C73.8677885,134.77375 73.7725962,134.747788 73.6716346,134.730481 C73.6543269,134.730481 73.6197115,134.727596 73.5677885,134.718942 C73.4495192,134.701635 73.3427885,134.692981 73.2533654,134.692981 L73.1408654,134.692981 C73.0456731,134.692981 72.9389423,134.701635 72.8206731,134.718942 C72.76875,134.727596 72.7341346,134.730481 72.7168269,134.730481 C72.6158654,134.747788 72.5206731,134.77375 72.4283654,134.808365 L72.3014423,134.845865 C72.2408654,134.871827 72.1889423,134.897788 72.1370192,134.920865 C72.0591346,134.955481 72.0014423,134.984327 71.9581731,135.010288 C71.8889423,135.044904 71.8370192,135.079519 71.79375,135.11125 C71.7447115,135.145865 71.6927885,135.183365 71.6408654,135.226635 C71.6322115,135.226635 71.6091346,135.246827 71.5658654,135.290096 C71.4735577,135.37375 71.3899038,135.457404 71.3120192,135.543942 C71.3033654,135.552596 71.2975962,135.56125 71.2975962,135.567019 C71.2918269,135.575673 71.2802885,135.581442 71.2745192,135.581442 C71.1302885,135.757404 71.0177885,135.953558 70.93125,136.164135 C70.93125,136.155481 70.9254808,136.164135 70.9197115,136.190096 C70.7927885,136.484327 70.7293269,136.792981 70.7293269,137.116058 L70.7293269,139.827596 L75.6591346,139.827596 Z M77.7879808,135.644904 C77.9524038,136.126635 78.0302885,136.617019 78.0302885,137.116058 L78.0302885,149.802596 C78.0302885,150.134327 77.9120192,150.417019 77.6754808,150.653558 C77.4504808,150.881442 77.1677885,150.996827 76.8418269,150.996827 C76.5100962,150.996827 76.2331731,150.881442 76.0024038,150.653558 C75.7774038,150.417019 75.6591346,150.134327 75.6591346,149.802596 L75.6591346,142.19875 L70.7293269,142.19875 L70.7293269,149.802596 C70.7293269,150.134327 70.6139423,150.417019 70.3889423,150.653558 C70.1524038,150.881442 69.8697115,150.996827 69.5495192,150.996827 C69.2235577,150.996827 68.9379808,150.881442 68.7014423,150.653558 C68.4735577,150.417019 68.3610577,150.134327 68.3610577,149.802596 L68.3610577,137.116058 C68.3610577,136.617019 68.4331731,136.126635 68.5860577,135.644904 C68.6149038,135.56125 68.6177885,135.538173 68.6004808,135.581442 C69.1225962,134.035288 70.1639423,133.019904 71.71875,132.538173 C71.7274038,132.538173 71.7389423,132.535288 71.7533654,132.526635 C71.8831731,132.492019 72.0129808,132.457404 72.1485577,132.425673 L72.1889423,132.425673 C72.2120192,132.417019 72.2293269,132.41125 72.2379808,132.41125 C72.35625,132.385288 72.4774038,132.365096 72.6043269,132.347788 L72.6966346,132.33625 C72.8639423,132.327596 73.0168269,132.321827 73.1524038,132.321827 L73.2418269,132.321827 C73.3716346,132.321827 73.5245192,132.327596 73.6802885,132.33625 L73.7841346,132.347788 C73.9139423,132.365096 74.0322115,132.385288 74.15625,132.41125 C74.1591346,132.41125 74.1706731,132.417019 74.1879808,132.425673 L74.2399038,132.425673 C74.3754808,132.457404 74.5110577,132.492019 74.6350962,132.526635 C74.6379808,132.535288 74.6495192,132.538173 74.6610577,132.538173 C76.2100962,133.019904 77.2543269,134.035288 77.7764423,135.581442 C77.7822115,135.590096 77.7879808,135.601635 77.7879808,135.618942 L77.7879808,135.644904 Z" id="Fill-11" fill="#404041" fill-rule="nonzero"></path>
            <g id="Group-15" transform="translate(80.769231, 131.806538)">
                <g id="Fill-13-Clipped">
                    <mask id="mask-2" fill="white">
                        <use xlink:href="#path-1"></use>
                    </mask>
                    <g id="path-1"></g>
                    <path d="M9.80048077,17.3129808 C9.99086538,17.5754808 10.0658654,17.8668269 10.0139423,18.1870192 C9.96490385,18.5100962 9.81201923,18.7668269 9.55817308,18.9600962 C9.29567308,19.15625 9.00432692,19.2283654 8.68413462,19.1764423 C8.36105769,19.1245192 8.10432692,18.96875 7.91105769,18.70625 L2.41875,11.2668269 L2.41875,17.9966346 C2.41875,18.3283654 2.30625,18.6052885 2.07836538,18.8331731 C1.84182692,19.0697115 1.56490385,19.1879808 1.24182692,19.1879808 C0.912980769,19.1879808 0.627403846,19.0697115 0.390865385,18.8331731 C0.165865385,18.6052885 0.0504807692,18.3283654 0.0504807692,17.9966346 L0.0504807692,1.69567308 C0.0504807692,1.36682692 0.165865385,1.08701923 0.390865385,0.85913462 C0.627403846,0.63125 0.912980769,0.51586538 1.24182692,0.51586538 C1.56490385,0.51586538 1.84182692,0.63125 2.07836538,0.85913462 C2.30625,1.08701923 2.41875,1.36682692 2.41875,1.69567308 L2.41875,7.53990385 L7.96009615,0.92259615 C8.17355769,0.67740385 8.43605769,0.54182692 8.75913462,0.51586538 C9.09086538,0.48990385 9.37644231,0.58509615 9.62163462,0.79567308 C9.86394231,1.00625 10.0024038,1.27163462 10.0254808,1.59471154 C10.0543269,1.91490385 9.95913462,2.19759615 9.74855769,2.44278846 L3.94182692,9.3658654 L9.80048077,17.3129808 Z" id="Fill-13" fill="#404041" fill-rule="nonzero" mask="url(#mask-2)"></path>
                </g>
            </g>
            <g id="Group-18" transform="translate(0.000000, 0.998846)">
                <g id="Fill-16-Clipped">
                    <mask id="mask-4" fill="white">
                        <use xlink:href="#path-3"></use>
                    </mask>
                    <g id="path-3"></g>
                    <path d="M108.260481,120.692885 C107.836442,120.692885 107.412404,120.505385 107.126827,120.144808 C106.636442,119.518846 106.743173,118.610192 107.36625,118.116923 C123.00375,105.782308 131.972019,87.3005769 131.972019,67.4169231 C131.972019,31.8351923 103.010481,2.88519231 67.4143269,2.88519231 C31.8325962,2.88519231 2.88548077,31.8351923 2.88548077,67.4169231 C2.88548077,87.3005769 11.85375,105.782308 27.49125,118.116923 C28.1172115,118.610192 28.2239423,119.518846 27.7306731,120.144808 C27.2374038,120.770769 26.3316346,120.8775 25.7056731,120.384231 C9.37009615,107.495769 0.000865384615,88.1890385 0.000865384615,67.4169231 C0.000865384615,30.2457692 30.2402885,0.000576923077 67.4143269,0.000576923077 C104.599904,0.000576923077 134.856635,30.2457692 134.856635,67.4169231 C134.856635,88.1890385 125.487404,107.495769 109.154712,120.384231 C108.889327,120.591923 108.572019,120.692885 108.260481,120.692885" id="Fill-16" fill="#404041" fill-rule="nonzero" mask="url(#mask-4)"></path>
                </g>
            </g>
            <path d="M47.5341346,58.1655769 C38.30625,58.1655769 32.41875,61.0703846 32.41875,63.0723077 C32.41875,65.0742308 38.30625,67.9761538 47.5341346,67.9761538 C56.7620192,67.9761538 62.6495192,65.0742308 62.6495192,63.0723077 C62.6495192,61.0703846 56.7620192,58.1655769 47.5341346,58.1655769 M47.5341346,70.8607692 C38.8081731,70.8607692 29.5341346,68.1319231 29.5341346,63.0723077 C29.5341346,58.0126923 38.8081731,55.2809615 47.5341346,55.2809615 C56.2600962,55.2809615 65.5341346,58.0126923 65.5341346,63.0723077 C65.5341346,68.1319231 56.2600962,70.8607692 47.5341346,70.8607692" id="Fill-19" fill="#404041" fill-rule="nonzero"></path>
            <path d="M36.8492308,75.7155769 C36.7021154,75.7155769 36.5492308,75.6925 36.405,75.6463462 C31.9742308,74.2069231 29.5338462,71.9944231 29.5338462,69.4184615 C29.5338462,68.6223077 30.1771154,67.9761538 30.9761538,67.9761538 C31.7723077,67.9761538 32.4184615,68.6223077 32.4184615,69.4184615 C32.4184615,70.2953846 33.6934615,71.7319231 37.2934615,72.9001923 C38.0521154,73.1482692 38.4675,73.9617308 38.2223077,74.7175 C38.0232692,75.3290385 37.4578846,75.7155769 36.8492308,75.7155769" id="Fill-21" fill="#404041" fill-rule="nonzero"></path>
            <path d="M47.5341346,77.21125 C46.0052885,77.21125 44.4908654,77.13625 43.0341346,76.9833654 C42.24375,76.9025962 41.6697115,76.1929808 41.7504808,75.3997115 C41.83125,74.6064423 42.5581731,74.0410577 43.3341346,74.1131731 C44.6927885,74.2545192 46.1033654,74.3266346 47.5341346,74.3266346 C56.7620192,74.3266346 62.6495192,71.4218269 62.6495192,69.4227885 C62.6495192,68.62375 63.2956731,67.9804808 64.0918269,67.9804808 C64.8908654,67.9804808 65.5341346,68.62375 65.5341346,69.4227885 C65.5341346,74.4824038 56.2600962,77.21125 47.5341346,77.21125" id="Fill-23" fill="#404041" fill-rule="nonzero"></path>
            <path d="M87.3216346,77.2141346 C82.2649038,77.2141346 77.5081731,78.1314423 74.5947115,79.6689423 L74.5918269,79.6689423 C73.0975962,80.4564423 72.20625,81.3708654 72.20625,82.1208654 C72.20625,84.1227885 78.09375,87.0247115 87.3216346,87.0247115 C96.5495192,87.0247115 102.437019,84.1227885 102.437019,82.1208654 C102.437019,80.1189423 96.5495192,77.2141346 87.3216346,77.2141346 M87.3216346,89.9093269 C78.5956731,89.9093269 69.3216346,87.1804808 69.3216346,82.1208654 C69.3216346,80.7795192 70.0024038,78.82375 73.2475962,77.1160577 C76.6081731,75.3449038 81.7370192,74.3295192 87.3216346,74.3295192 C96.0475962,74.3295192 105.321635,77.06125 105.321635,82.1208654 C105.321635,87.1804808 96.0475962,89.9093269 87.3216346,89.9093269" id="Fill-25" fill="#404041" fill-rule="nonzero"></path>
            <path d="M87.3245192,96.2626923 C78.5985577,96.2626923 69.3216346,93.5309615 69.3216346,88.4713462 C69.3216346,87.6723077 69.9649038,87.0290385 70.7639423,87.0290385 C71.5600962,87.0290385 72.20625,87.6723077 72.20625,88.4713462 C72.20625,90.4732692 78.0966346,93.3780769 87.3245192,93.3780769 C96.5495192,93.3780769 102.437019,90.4732692 102.437019,88.4713462 C102.437019,87.6723077 103.083173,87.0290385 103.879327,87.0290385 C104.678365,87.0290385 105.321635,87.6723077 105.321635,88.4713462 C105.321635,93.5309615 96.0475962,96.2626923 87.3245192,96.2626923" id="Fill-27" fill="#404041" fill-rule="nonzero"></path>
            <path d="M47.5341346,83.5663462 C38.8081731,83.5663462 29.5341346,80.8346154 29.5341346,75.775 C29.5341346,74.9759615 30.1774038,74.3326923 30.9764423,74.3326923 C31.7725962,74.3326923 32.41875,74.9759615 32.41875,75.775 C32.41875,77.7769231 38.30625,80.6817308 47.5341346,80.6817308 C48.6389423,80.6817308 49.7177885,80.6355769 50.7591346,80.5548077 C51.5466346,80.5057692 52.2475962,81.0826923 52.3081731,81.8788462 C52.3745192,82.6721154 51.7802885,83.3673077 50.9841346,83.4307692 C49.8706731,83.5173077 48.7168269,83.5663462 47.5341346,83.5663462" id="Fill-29" fill="#404041" fill-rule="nonzero"></path>
            <path d="M55.4472115,82.7947115 C54.7808654,82.7947115 54.1808654,82.3274038 54.0395192,81.6466346 C53.8750962,80.8677885 54.3741346,80.1033654 55.1529808,79.9418269 C60.0741346,78.9120192 62.6500962,77.0658654 62.6500962,75.7706731 C62.6500962,74.9745192 63.29625,74.3283654 64.0924038,74.3283654 C64.8885577,74.3283654 65.5347115,74.9745192 65.5347115,75.7706731 C65.5347115,78.9149038 61.9664423,81.4649038 55.7472115,82.7629808 C55.6433654,82.7860577 55.5452885,82.7947115 55.4472115,82.7947115" id="Fill-31" fill="#404041" fill-rule="nonzero"></path>
            <path d="M47.5341346,89.9130769 C38.8081731,89.9130769 29.5341346,87.1813462 29.5341346,82.1217308 C29.5341346,81.3226923 30.1774038,80.6794231 30.9764423,80.6794231 C31.7725962,80.6794231 32.41875,81.3226923 32.41875,82.1217308 C32.41875,84.1236538 38.30625,87.0284615 47.5341346,87.0284615 C56.7620192,87.0284615 62.6495192,84.1236538 62.6495192,82.1217308 C62.6495192,81.3226923 63.2956731,80.6794231 64.0918269,80.6794231 C64.8908654,80.6794231 65.5341346,81.3226923 65.5341346,82.1217308 C65.5341346,87.1813462 56.2600962,89.9130769 47.5341346,89.9130769" id="Fill-33" fill="#404041" fill-rule="nonzero"></path>
            <path d="M47.5341346,96.2626923 C38.8081731,96.2626923 29.5341346,93.5309615 29.5341346,88.4713462 C29.5341346,87.6723077 30.1774038,87.0290385 30.9764423,87.0290385 C31.7725962,87.0290385 32.41875,87.6723077 32.41875,88.4713462 C32.41875,90.4732692 38.30625,93.3780769 47.5341346,93.3780769 C56.7620192,93.3780769 62.6495192,90.4732692 62.6495192,88.4713462 C62.6495192,87.6723077 63.2956731,87.0290385 64.0918269,87.0290385 C64.8908654,87.0290385 65.5341346,87.6723077 65.5341346,88.4713462 C65.5341346,93.5309615 56.2600962,96.2626923 47.5341346,96.2626923" id="Fill-35" fill="#404041" fill-rule="nonzero"></path>
            <path d="M70.7659615,41.3450962 C61.5380769,41.3450962 55.6476923,44.2499038 55.6476923,46.2518269 C55.6476923,48.25375 61.5380769,51.1585577 70.7659615,51.1585577 C79.9909615,51.1585577 85.8784615,48.25375 85.8784615,46.2518269 C85.8784615,44.2499038 79.9909615,41.3450962 70.7659615,41.3450962 M70.7659615,54.0431731 C62.04,54.0431731 52.7630769,51.3143269 52.7630769,46.2518269 C52.7630769,41.1922115 62.04,38.4604808 70.7659615,38.4604808 C79.4890385,38.4604808 88.7630769,41.1922115 88.7630769,46.2518269 C88.7630769,51.3143269 79.4890385,54.0431731 70.7659615,54.0431731" id="Fill-37" fill="#404041" fill-rule="nonzero"></path>
            <path d="M70.7633654,60.3936538 C69.9672115,60.3936538 69.3210577,59.7475 69.3210577,58.9513462 C69.3210577,58.1551923 69.9672115,57.5090385 70.7633654,57.5090385 C73.4806731,57.5090385 76.16625,57.2436538 78.5258654,56.7388462 C79.2931731,56.5773077 80.0720192,57.0676923 80.2393269,57.8465385 C80.4066346,58.6253846 79.9104808,59.3926923 79.12875,59.5571154 C76.5758654,60.1051923 73.6825962,60.3936538 70.7633654,60.3936538" id="Fill-39" fill="#404041" fill-rule="nonzero"></path>
            <path d="M83.6596154,58.0274038 C83.1201923,58.0274038 82.6038462,57.7245192 82.3557692,57.2024038 C82.0153846,56.4841346 82.3211538,55.6245192 83.0394231,55.28125 C83.3336538,55.1427885 83.6076923,55.0014423 83.8615385,54.8514423 C84.5451923,54.4475962 85.4307692,54.6697115 85.8403846,55.35625 C86.2442308,56.0427885 86.0163462,56.9283654 85.3326923,57.3322115 C85.0067308,57.5254808 84.6519231,57.7100962 84.2798077,57.8889423 C84.0807692,57.98125 83.8673077,58.0274038 83.6596154,58.0274038" id="Fill-41" fill="#404041" fill-rule="nonzero"></path>
            <path d="M84.6002885,57.5344231 C84.1041346,57.5344231 83.6195192,57.2776923 83.35125,56.8161538 C82.9531731,56.1267308 83.1868269,55.2469231 83.87625,54.8459615 C85.1483654,54.1046154 85.8781731,53.2882692 85.8781731,52.6017308 C85.8781731,51.8055769 86.5243269,51.1594231 87.3204808,51.1594231 C88.1195192,51.1594231 88.7627885,51.8055769 88.7627885,52.6017308 C88.7627885,53.8507692 88.1656731,55.6882692 85.3243269,57.3382692 C85.0964423,57.4709615 84.8483654,57.5344231 84.6002885,57.5344231" id="Fill-43" fill="#404041" fill-rule="nonzero"></path>
            <path d="M70.7659615,66.7432692 C69.9698077,66.7432692 69.3236538,66.0971154 69.3236538,65.3009615 C69.3236538,64.5048077 69.9698077,63.8586538 70.7659615,63.8586538 C79.9909615,63.8586538 85.8784615,60.9538462 85.8784615,58.9519231 C85.8784615,58.1528846 86.5246154,57.5096154 87.3207692,57.5096154 C88.1198077,57.5096154 88.7630769,58.1528846 88.7630769,58.9519231 C88.7630769,64.0115385 79.4890385,66.7432692 70.7659615,66.7432692" id="Fill-45" fill="#404041" fill-rule="nonzero"></path>
            <path d="M70.7659615,73.0928846 C69.9698077,73.0928846 69.3236538,72.4467308 69.3236538,71.6505769 C69.3236538,70.8544231 69.9698077,70.2082692 70.7659615,70.2082692 C79.9909615,70.2082692 85.8784615,67.3034615 85.8784615,65.3015385 C85.8784615,64.5025 86.5246154,63.8592308 87.3207692,63.8592308 C88.1198077,63.8592308 88.7630769,64.5025 88.7630769,65.3015385 C88.7630769,70.3611538 79.4890385,73.0928846 70.7659615,73.0928846" id="Fill-47" fill="#404041" fill-rule="nonzero"></path>
        </g>
    </g>
</svg>