<?xml version="1.0" encoding="UTF-8"?>
<svg width="58px" height="64px" viewBox="0 0 58 64" version="1.1" xmlns="http://www.w3.org/2000/svg" xmlns:xlink="http://www.w3.org/1999/xlink">
    <!-- Generator: Sketch 44.1 (41455) - http://www.bohemiancoding.com/sketch -->
    <title>rent</title>
    <desc>Created with Sketch.</desc>
    <defs>
        <polygon id="path-1" points="5.2002 8 0.4802 8 0.4802 0.1072 5.2002 0.1072 5.2002 8"></polygon>
        <polygon id="path-3" points="0.0114 8 3.6924 8 3.6924 0.2265 0.0114 0.2265"></polygon>
        <polygon id="path-5" points="0.9585 8 4.6395 8 4.6395 0.2265 0.9585 0.2265 0.9585 8"></polygon>
        <polygon id="path-7" points="6.5375 8 0.6675 8 0.6675 0.0592 6.5375 0.0592"></polygon>
        <polygon id="path-9" points="0.7268 8 5.1338 8 5.1338 0.1242 0.7268 0.1242 0.7268 8"></polygon>
        <polygon id="path-11" points="0.1602 8 3.8422 8 3.8422 0.2265 0.1602 0.2265"></polygon>
        <polygon id="path-13" points="4.0429 8 0.1079 8 0.1079 0.1285 4.0429 0.1285 4.0429 8"></polygon>
        <polygon id="path-15" points="0.9078 8 4.5898 8 4.5898 0.2265 0.9078 0.2265"></polygon>
        <polygon id="path-17" points="0.0002 0.033 57.51 0.033 57.51 51.5028174 0.0002 51.5028174"></polygon>
    </defs>
    <g id="Page-1" stroke="none" stroke-width="1" fill="none" fill-rule="evenodd">
        <g id="Artboard-Copy-3" transform="translate(-3.000000, 0.000000)">
            <g id="rent" transform="translate(3.000000, -1.000000)">
                <g id="Group-3" transform="translate(0.000000, 56.967500)">
                    <mask id="mask-2" fill="white">
                        <use xlink:href="#path-1"></use>
                    </mask>
                    <g id="Clip-2"></g>
                    <path d="M4.6972,0.1072 L0.9902,0.1072 C0.8482,0.1072 0.7282,0.1552 0.6272,0.2542 C0.5302,0.3542 0.4802,0.4732 0.4802,0.6092 C0.4802,0.7512 0.5302,0.8692 0.6272,0.9672 C0.7282,1.0682 0.8482,1.1192 0.9902,1.1192 L2.3352,1.1192 L2.3352,7.4922 C2.3352,7.6322 2.3862,7.7532 2.4872,7.8532 C2.5842,7.9522 2.7032,8.0002 2.8432,8.0002 C2.9802,8.0002 3.0992,7.9522 3.2002,7.8532 C3.2972,7.7532 3.3472,7.6322 3.3472,7.4922 L3.3472,1.1192 L4.6972,1.1192 C4.8392,1.1192 4.9562,1.0682 5.0552,0.9672 C5.1512,0.8692 5.2002,0.7512 5.2002,0.6092 C5.2002,0.4732 5.1512,0.3542 5.0552,0.2542 C4.9562,0.1552 4.8392,0.1072 4.6972,0.1072" id="Fill-1" fill="#404041" mask="url(#mask-2)"></path>
                </g>
                <g id="Group-6" transform="translate(6.000000, 56.967500)">
                    <mask id="mask-4" fill="white">
                        <use xlink:href="#path-3"></use>
                    </mask>
                    <g id="Clip-5"></g>
                    <path d="M3.1854,1.2365 C3.3244,1.2365 3.4444,1.1875 3.5414,1.0855 C3.6424,0.9895 3.6924,0.8685 3.6924,0.7295 C3.6924,0.5925 3.6424,0.4735 3.5414,0.3715 C3.4444,0.2755 3.3244,0.2265 3.1854,0.2265 L0.5194,0.2265 C0.3794,0.2265 0.2594,0.2755 0.1584,0.3715 C0.0594,0.4735 0.0114,0.5925 0.0114,0.7295 L0.0114,7.4915 C0.0114,7.6325 0.0594,7.7535 0.1584,7.8535 C0.2594,7.9515 0.3794,8.0005 0.5194,8.0005 L3.1854,8.0005 C3.3244,8.0005 3.4444,7.9515 3.5414,7.8535 C3.6424,7.7535 3.6924,7.6325 3.6924,7.4915 C3.6924,7.3545 3.6424,7.2355 3.5414,7.1355 C3.4444,7.0375 3.3244,6.9885 3.1854,6.9885 L1.0234,6.9885 L1.0234,4.3455 L2.8614,4.3455 C3.0004,4.3455 3.1214,4.2955 3.2224,4.1945 C3.3204,4.0965 3.3684,3.9775 3.3684,3.8375 C3.3684,3.6965 3.3204,3.5775 3.2224,3.4805 C3.1214,3.3835 3.0004,3.3345 2.8614,3.3345 L1.0234,3.3345 L1.0234,1.2365 L3.1854,1.2365 Z" id="Fill-4" fill="#404041" mask="url(#mask-4)"></path>
                </g>
                <path d="M13.9211,59.1675 C13.9211,59.4555 13.8181,59.7005 13.6121,59.9025 C13.4101,60.1045 13.1671,60.2055 12.8831,60.2055 L11.7311,60.2055 L11.7311,58.1015 L12.8831,58.1015 C13.1671,58.1015 13.4101,58.2025 13.6121,58.4045 C13.8181,58.6065 13.9211,58.8505 13.9211,59.1335 L13.9211,59.1675 Z M12.8831,57.0915 L11.2281,57.0915 C11.0881,57.0915 10.9671,57.1395 10.8661,57.2365 C10.7691,57.3345 10.7211,57.4535 10.7211,57.5935 L10.7211,64.4595 C10.7211,64.5995 10.7691,64.7215 10.8661,64.8205 C10.9671,64.9195 11.0881,64.9675 11.2281,64.9675 C11.3651,64.9675 11.4851,64.9195 11.5861,64.8205 C11.6821,64.7215 11.7311,64.5995 11.7311,64.4595 L11.7311,61.2155 L12.8831,61.2155 C13.1671,61.2155 13.4101,61.3165 13.6121,61.5185 C13.8181,61.7205 13.9211,61.9645 13.9211,62.2475 L13.9211,64.4595 C13.9211,64.5995 13.9691,64.7215 14.0661,64.8205 C14.1641,64.9195 14.2831,64.9675 14.4231,64.9675 C14.5641,64.9675 14.6831,64.9195 14.7801,64.8205 C14.8811,64.7215 14.9311,64.5995 14.9311,64.4595 L14.9311,62.2475 C14.9311,61.6325 14.6951,61.1185 14.2241,60.7075 C14.6951,60.3005 14.9311,59.7875 14.9311,59.1675 L14.9311,59.1335 C14.9311,58.5715 14.7311,58.0915 14.3321,57.6915 C13.9311,57.2915 13.4481,57.0915 12.8831,57.0915 L12.8831,57.0915 Z" id="Fill-7" fill="#404041"></path>
                <g id="Group-11" transform="translate(15.000000, 56.967500)">
                    <mask id="mask-6" fill="white">
                        <use xlink:href="#path-5"></use>
                    </mask>
                    <g id="Clip-10"></g>
                    <path d="M4.1325,1.2365 C4.2715,1.2365 4.3915,1.1875 4.4885,1.0855 C4.5895,0.9895 4.6395,0.8685 4.6395,0.7295 C4.6395,0.5925 4.5895,0.4735 4.4885,0.3715 C4.3915,0.2755 4.2715,0.2265 4.1325,0.2265 L1.4665,0.2265 C1.3265,0.2265 1.2065,0.2755 1.1055,0.3715 C1.0065,0.4735 0.9585,0.5925 0.9585,0.7295 L0.9585,7.4915 C0.9585,7.6325 1.0065,7.7535 1.1055,7.8535 C1.2065,7.9515 1.3265,8.0005 1.4665,8.0005 L4.1325,8.0005 C4.2715,8.0005 4.3915,7.9515 4.4885,7.8535 C4.5895,7.7535 4.6395,7.6325 4.6395,7.4915 C4.6395,7.3545 4.5895,7.2355 4.4885,7.1355 C4.3915,7.0375 4.2715,6.9885 4.1325,6.9885 L1.9705,6.9885 L1.9705,4.3455 L3.8085,4.3455 C3.9475,4.3455 4.0685,4.2955 4.1695,4.1945 C4.2675,4.0965 4.3155,3.9775 4.3155,3.8375 C4.3155,3.6965 4.2675,3.5775 4.1695,3.4805 C4.0685,3.3835 3.9475,3.3345 3.8085,3.3345 L1.9705,3.3345 L1.9705,1.2365 L4.1325,1.2365 Z" id="Fill-9" fill="#404041" mask="url(#mask-6)"></path>
                </g>
                <g id="Group-14" transform="translate(20.000000, 56.967500)">
                    <mask id="mask-8" fill="white">
                        <use xlink:href="#path-7"></use>
                    </mask>
                    <g id="Clip-13"></g>
                    <path d="M6.0305,0.0592 L5.8025,0.0592 C5.8025,0.0592 5.7515,0.1182 5.6505,0.2372 C5.6415,0.2482 5.6285,0.2622 5.6135,0.2802 C5.6175,0.2762 5.6135,0.2822 5.6025,0.2972 C5.5885,0.3262 5.5815,0.3382 5.5815,0.3342 L3.5965,4.2052 L1.6245,0.3342 L1.6195,0.3282 C1.6145,0.3262 1.6135,0.3222 1.6135,0.3182 C1.5155,0.1462 1.3695,0.0592 1.1745,0.0592 C1.0355,0.0592 0.9145,0.1092 0.8135,0.2102 C0.7155,0.3062 0.6675,0.4272 0.6675,0.5662 L0.6675,7.4922 C0.6675,7.6322 0.7155,7.7542 0.8135,7.8532 C0.9145,7.9522 1.0355,8.0002 1.1745,8.0002 C1.3115,8.0002 1.4315,7.9522 1.5325,7.8532 C1.6285,7.7542 1.6785,7.6322 1.6785,7.4922 L1.6785,2.6702 L3.1485,5.5522 C3.2135,5.6782 3.3105,5.7612 3.4405,5.7992 C3.5735,5.8422 3.7035,5.8342 3.8295,5.7732 C3.8905,5.7402 3.9425,5.6932 3.9855,5.6322 C4.0075,5.6102 4.0275,5.5832 4.0455,5.5522 L5.5275,2.6592 L5.5275,7.4922 C5.5275,7.6322 5.5765,7.7542 5.6725,7.8532 C5.7735,7.9522 5.8935,8.0002 6.0305,8.0002 C6.1695,8.0002 6.2915,7.9522 6.3925,7.8532 C6.4895,7.7542 6.5375,7.6322 6.5375,7.4922 L6.5375,0.5662 C6.5375,0.4272 6.4895,0.3062 6.3925,0.2102 C6.2915,0.1092 6.1695,0.0592 6.0305,0.0592" id="Fill-12" fill="#404041" mask="url(#mask-8)"></path>
                </g>
                <g id="Group-17" transform="translate(27.000000, 56.967500)">
                    <mask id="mask-10" fill="white">
                        <use xlink:href="#path-9"></use>
                    </mask>
                    <g id="Clip-16"></g>
                    <path d="M4.1218,5.6862 C4.1218,6.0362 4.0018,6.3352 3.7598,6.5832 C3.5148,6.8322 3.2228,6.9572 2.8848,6.9572 L1.7388,6.9572 L1.7388,4.3722 L2.8848,4.3722 C3.2228,4.3722 3.5148,4.4972 3.7598,4.7452 C4.0018,4.9942 4.1218,5.2932 4.1218,5.6432 L4.1218,5.6862 Z M1.7388,1.1622 L2.8888,1.1622 C3.1748,1.1622 3.4178,1.2662 3.6198,1.4742 C3.8248,1.6842 3.9268,1.9372 3.9268,2.2312 L3.9268,2.2652 C3.9268,2.5552 3.8258,2.8062 3.6248,3.0152 C3.4198,3.2242 3.1748,3.3292 2.8888,3.3292 L1.7388,3.3292 L1.7388,1.1622 Z M4.2638,3.8222 C4.7128,3.4032 4.9388,2.8842 4.9388,2.2652 L4.9388,2.2312 C4.9388,1.6472 4.7388,1.1502 4.3378,0.7392 C3.9388,0.3282 3.4558,0.1242 2.8888,0.1242 L1.2358,0.1242 C1.0948,0.1242 0.9738,0.1742 0.8738,0.2752 C0.7758,0.3762 0.7268,0.4992 0.7268,0.6432 L0.7268,7.4812 C0.7268,7.6252 0.7758,7.7472 0.8738,7.8482 C0.9738,7.9492 1.0948,8.0002 1.2358,8.0002 L2.8948,8.0002 C3.5148,7.9962 4.0428,7.7672 4.4798,7.3132 C4.9148,6.8632 5.1338,6.3202 5.1338,5.6862 L5.1338,5.6432 C5.1338,4.8932 4.8428,4.2852 4.2638,3.8222 L4.2638,3.8222 Z" id="Fill-15" fill="#404041" mask="url(#mask-10)"></path>
                </g>
                <g id="Group-20" transform="translate(33.000000, 56.967500)">
                    <mask id="mask-12" fill="white">
                        <use xlink:href="#path-11"></use>
                    </mask>
                    <g id="Clip-19"></g>
                    <path d="M3.3332,1.2365 C3.4752,1.2365 3.5922,1.1875 3.6912,1.0855 C3.7922,0.9895 3.8422,0.8685 3.8422,0.7295 C3.8422,0.5925 3.7922,0.4735 3.6912,0.3715 C3.5922,0.2755 3.4752,0.2265 3.3332,0.2265 L0.6682,0.2265 C0.5282,0.2265 0.4072,0.2755 0.3062,0.3715 C0.2102,0.4735 0.1602,0.5925 0.1602,0.7295 L0.1602,7.4915 C0.1602,7.6325 0.2102,7.7535 0.3062,7.8535 C0.4072,7.9515 0.5282,8.0005 0.6682,8.0005 L3.3332,8.0005 C3.4752,8.0005 3.5922,7.9515 3.6912,7.8535 C3.7922,7.7535 3.8422,7.6325 3.8422,7.4915 C3.8422,7.3545 3.7922,7.2355 3.6912,7.1355 C3.5922,7.0375 3.4752,6.9885 3.3332,6.9885 L1.1712,6.9885 L1.1712,4.3455 L3.0092,4.3455 C3.1502,4.3455 3.2712,4.2955 3.3712,4.1945 C3.4692,4.0965 3.5182,3.9775 3.5182,3.8375 C3.5182,3.6965 3.4692,3.5775 3.3712,3.4805 C3.2712,3.3835 3.1502,3.3345 3.0092,3.3345 L1.1712,3.3345 L1.1712,1.2365 L3.3332,1.2365 Z" id="Fill-18" fill="#404041" mask="url(#mask-12)"></path>
                </g>
                <path d="M34.918,56.4801 C35.05,56.4401 35.15,56.3601 35.215,56.2361 L35.766,55.1831 C35.831,55.0601 35.842,54.9331 35.799,54.7991 C35.755,54.6661 35.672,54.5661 35.55,54.5011 C35.427,54.4371 35.3,54.4261 35.165,54.4691 C35.033,54.5091 34.934,54.5901 34.869,54.7131 L34.317,55.7661 C34.252,55.8891 34.242,56.0171 34.285,56.1501 C34.325,56.2841 34.406,56.3831 34.529,56.4481 C34.654,56.5121 34.783,56.5231 34.918,56.4801" id="Fill-21" fill="#404041"></path>
                <path d="M41.0688,59.1675 C41.0688,59.4555 40.9668,59.7005 40.7608,59.9025 C40.5598,60.1045 40.3168,60.2055 40.0308,60.2055 L38.8798,60.2055 L38.8798,58.1015 L40.0308,58.1015 C40.3168,58.1015 40.5598,58.2025 40.7608,58.4045 C40.9668,58.6065 41.0688,58.8505 41.0688,59.1335 L41.0688,59.1675 Z M40.0308,57.0915 L38.3778,57.0915 C38.2358,57.0915 38.1158,57.1395 38.0148,57.2365 C37.9178,57.3345 37.8688,57.4535 37.8688,57.5935 L37.8688,64.4595 C37.8688,64.5995 37.9178,64.7215 38.0148,64.8205 C38.1158,64.9195 38.2358,64.9675 38.3778,64.9675 C38.5148,64.9675 38.6328,64.9195 38.7338,64.8205 C38.8318,64.7215 38.8798,64.5995 38.8798,64.4595 L38.8798,61.2155 L40.0308,61.2155 C40.3168,61.2155 40.5598,61.3165 40.7608,61.5185 C40.9668,61.7205 41.0688,61.9645 41.0688,62.2475 L41.0688,64.4595 C41.0688,64.5995 41.1178,64.7215 41.2158,64.8205 C41.3128,64.9195 41.4318,64.9675 41.5718,64.9675 C41.7128,64.9675 41.8318,64.9195 41.9288,64.8205 C42.0298,64.7215 42.0808,64.5995 42.0808,64.4595 L42.0808,62.2475 C42.0808,61.6325 41.8448,61.1185 41.3718,60.7075 C41.8448,60.3005 42.0808,59.7875 42.0808,59.1675 L42.0808,59.1335 C42.0808,58.5715 41.8808,58.0915 41.4798,57.6915 C41.0808,57.2915 40.5978,57.0915 40.0308,57.0915 L40.0308,57.0915 Z" id="Fill-23" fill="#404041"></path>
                <g id="Group-27" transform="translate(43.000000, 56.967500)">
                    <mask id="mask-14" fill="white">
                        <use xlink:href="#path-13"></use>
                    </mask>
                    <g id="Clip-26"></g>
                    <path d="M3.5349,6.9885 L1.1179,6.9885 L1.1179,0.6375 C1.1179,0.4965 1.0699,0.3775 0.9729,0.2805 C0.8719,0.1795 0.7529,0.1285 0.6159,0.1285 C0.4749,0.1285 0.3539,0.1795 0.2529,0.2805 C0.1569,0.3775 0.1079,0.4965 0.1079,0.6375 L0.1079,7.4915 C0.1079,7.6325 0.1569,7.7535 0.2529,7.8535 C0.3539,7.9515 0.4749,8.0005 0.6159,8.0005 L3.5349,8.0005 C3.6759,8.0005 3.7939,7.9515 3.8919,7.8535 C3.9929,7.7535 4.0429,7.6325 4.0429,7.4915 C4.0429,7.3545 3.9929,7.2355 3.8919,7.1355 C3.7939,7.0375 3.6759,6.9885 3.5349,6.9885" id="Fill-25" fill="#404041" mask="url(#mask-14)"></path>
                </g>
                <g id="Group-30" transform="translate(47.000000, 56.967500)">
                    <mask id="mask-16" fill="white">
                        <use xlink:href="#path-15"></use>
                    </mask>
                    <g id="Clip-29"></g>
                    <path d="M4.0808,1.2365 C4.2228,1.2365 4.3398,1.1875 4.4388,1.0855 C4.5398,0.9895 4.5898,0.8685 4.5898,0.7295 C4.5898,0.5925 4.5398,0.4735 4.4388,0.3715 C4.3398,0.2755 4.2228,0.2265 4.0808,0.2265 L1.4158,0.2265 C1.2758,0.2265 1.1548,0.2755 1.0538,0.3715 C0.9578,0.4735 0.9078,0.5925 0.9078,0.7295 L0.9078,7.4915 C0.9078,7.6325 0.9578,7.7535 1.0538,7.8535 C1.1548,7.9515 1.2758,8.0005 1.4158,8.0005 L4.0808,8.0005 C4.2228,8.0005 4.3398,7.9515 4.4388,7.8535 C4.5398,7.7535 4.5898,7.6325 4.5898,7.4915 C4.5898,7.3545 4.5398,7.2355 4.4388,7.1355 C4.3398,7.0375 4.2228,6.9885 4.0808,6.9885 L1.9188,6.9885 L1.9188,4.3455 L3.7568,4.3455 C3.8978,4.3455 4.0188,4.2955 4.1188,4.1945 C4.2168,4.0965 4.2658,3.9775 4.2658,3.8375 C4.2658,3.6965 4.2168,3.5775 4.1188,3.4805 C4.0188,3.3835 3.8978,3.3345 3.7568,3.3345 L1.9188,3.3345 L1.9188,1.2365 L4.0808,1.2365 Z" id="Fill-28" fill="#404041" mask="url(#mask-16)"></path>
                </g>
                <path d="M49.9131,54.469 C49.7811,54.509 49.6811,54.59 49.6161,54.713 L49.0651,55.766 C49.0001,55.889 48.9891,56.018 49.0321,56.15 C49.0721,56.284 49.1541,56.383 49.2761,56.448 C49.4011,56.512 49.5311,56.523 49.6661,56.48 C49.7981,56.44 49.8971,56.36 49.9621,56.236 L50.5141,55.183 C50.5791,55.06 50.5891,54.933 50.5461,54.799 C50.5031,54.666 50.4201,54.566 50.2971,54.501 C50.1751,54.437 50.0481,54.426 49.9131,54.469" id="Fill-31" fill="#404041"></path>
                <path d="M54.5623,60.3075 C54.2713,60.3075 54.0213,60.2065 53.8173,60.0045 C53.6083,59.8025 53.5023,59.5565 53.5023,59.2635 L53.5023,59.0965 C53.5023,58.8015 53.6063,58.5495 53.8113,58.3455 C54.0133,58.1365 54.2593,58.0305 54.5523,58.0305 L54.5843,58.0305 C54.8123,58.0305 55.0163,58.1005 55.2013,58.2375 C55.3813,58.3705 55.5063,58.5435 55.5783,58.7565 C55.6553,58.9825 55.8143,59.0965 56.0543,59.0965 L56.0603,59.0965 C56.2333,59.0965 56.3703,59.0255 56.4713,58.8865 C56.5753,58.7425 56.6013,58.5875 56.5473,58.4205 C56.4063,58.0035 56.1573,57.6625 55.8013,57.3995 C55.4403,57.1325 55.0353,56.9995 54.5843,56.9995 L54.5523,56.9995 C53.9783,56.9995 53.4903,57.2035 53.0873,57.6105 C52.6793,58.0215 52.4763,58.5165 52.4763,59.0965 L52.4763,59.2475 C52.4763,59.8285 52.6813,60.3205 53.0923,60.7245 C53.5003,61.1285 53.9953,61.3345 54.5793,61.3455 C54.9863,61.3565 55.3143,61.5255 55.5633,61.8535 C55.8193,62.1885 55.8933,62.5675 55.7853,62.9885 C55.7083,63.2665 55.5543,63.4935 55.3193,63.6705 C55.0883,63.8435 54.8273,63.9295 54.5363,63.9295 L54.5143,63.9295 C54.2263,63.9295 53.9693,63.8415 53.7403,63.6655 C53.5173,63.4925 53.3653,63.2695 53.2863,62.9995 C53.2193,62.7585 53.0563,62.6365 52.8013,62.6365 C52.6283,62.6365 52.4913,62.7075 52.3903,62.8485 C52.2893,62.9885 52.2633,63.1435 52.3133,63.3135 C52.4573,63.7965 52.7303,64.1915 53.1303,64.4965 C53.5413,64.8115 54.0023,64.9675 54.5143,64.9675 L54.5193,64.9675 C55.0713,64.9675 55.5613,64.7965 55.9893,64.4535 C56.4223,64.1075 56.6933,63.6665 56.8013,63.1295 C56.9533,62.3905 56.7953,61.7345 56.3303,61.1615 C55.8733,60.5955 55.2833,60.3115 54.5623,60.3075" id="Fill-33" fill="#404041"></path>
                <g id="Group-37" transform="translate(0.000000, 0.967500)">
                    <mask id="mask-18" fill="white">
                        <use xlink:href="#path-17"></use>
                    </mask>
                    <g id="Clip-36"></g>
                    <path d="M10.9622,51.3704 C11.2302,51.5804 11.6162,51.5364 11.8262,51.2684 C12.0362,51.0014 11.9902,50.6144 11.7242,50.4044 C5.0552,45.1434 1.2302,37.2634 1.2302,28.7824 C1.2302,13.6074 13.5752,1.2624 28.7502,1.2624 C43.9302,1.2624 56.2802,13.6074 56.2802,28.7824 C56.2802,37.2634 52.4562,45.1434 45.7892,50.4044 C45.5222,50.6144 45.4762,51.0014 45.6872,51.2684 C45.8082,51.4224 45.9882,51.5024 46.1702,51.5024 C46.3032,51.5024 46.4372,51.4594 46.5502,51.3704 C53.5162,45.8744 57.5102,37.6414 57.5102,28.7824 C57.5102,12.9304 44.6092,0.0324 28.7502,0.0324 C12.8972,0.0324 0.0002,12.9304 0.0002,28.7824 C0.0002,37.6414 3.9952,45.8744 10.9622,51.3704" id="Fill-35" fill="#404041" mask="url(#mask-18)"></path>
                </g>
                <path d="M35.6148,34.2433 L33.7608,32.3173 C33.7568,32.3123 33.7498,32.3113 33.7448,32.3063 C33.7388,32.3003 33.7308,32.2983 33.7248,32.2923 C33.5398,32.1273 33.2828,32.0923 33.0668,32.1903 C30.7128,33.2193 28.0258,32.6713 26.2168,30.7963 C23.7608,28.2463 23.7608,24.0973 26.2168,21.5463 C27.2978,20.4253 28.7068,19.7913 30.2158,19.6863 C30.2288,21.2513 29.6878,22.7383 28.6598,23.8863 C28.4328,24.1393 28.4548,24.5283 28.7088,24.7543 C28.8248,24.8593 28.9718,24.9113 29.1178,24.9113 C29.2858,24.9113 29.4548,24.8413 29.5758,24.7063 C30.7978,23.3413 31.4438,21.5793 31.4418,19.7253 C32.8038,19.9073 34.0708,20.5203 35.0598,21.5463 C36.8858,23.4423 37.4128,26.2613 36.4048,28.7293 C36.2978,28.9933 36.3948,29.2803 36.6108,29.4443 L44.0448,37.1623 L44.0448,40.0193 L41.5328,40.0193 L41.5328,37.8063 C41.5328,37.4663 41.2578,37.1913 40.9178,37.1913 L38.7868,37.1913 L38.7868,34.8583 C38.7868,34.5183 38.5108,34.2433 38.1708,34.2433 L35.6148,34.2433 Z M40.3028,38.4213 L40.3028,40.6343 C40.3028,40.9743 40.5778,41.2493 40.9178,41.2493 L44.6598,41.2493 C44.9998,41.2493 45.2748,40.9743 45.2748,40.6343 L45.2748,36.9153 C45.2748,36.7563 45.2138,36.6023 45.1028,36.4883 L37.6798,28.7803 C38.6538,25.9633 38.0078,22.8343 35.9468,20.6933 C34.6918,19.3923 33.0708,18.6113 31.3238,18.4483 C31.0598,16.9033 30.3528,15.4843 29.2288,14.3893 C27.8468,13.0423 26.0548,12.3283 24.1488,12.3923 C22.2548,12.4523 20.4988,13.2723 19.2038,14.7033 C17.9158,16.1283 17.2408,17.9883 17.3018,19.9393 C17.3428,21.2613 17.7278,22.5483 18.4178,23.6593 C18.5978,23.9493 18.9788,24.0363 19.2648,23.8573 C19.5528,23.6783 19.6418,23.2993 19.4628,23.0113 C18.8878,22.0833 18.5658,21.0083 18.5318,19.9003 C18.4798,18.2683 19.0428,16.7163 20.1168,15.5293 C21.1848,14.3483 22.6298,13.6703 24.1878,13.6223 C25.7508,13.5683 27.2308,14.1583 28.3698,15.2693 C29.2538,16.1323 29.8398,17.2343 30.0888,18.4413 C28.2908,18.5753 26.6168,19.3583 25.3298,20.6933 C22.4218,23.7143 22.4218,28.6293 25.3298,31.6493 C26.7718,33.1453 28.6808,33.9353 30.6288,33.9353 C31.4778,33.9353 32.3328,33.7763 33.1618,33.4683 L34.9098,35.2853 C35.0258,35.4053 35.1858,35.4733 35.3528,35.4733 L37.5558,35.4733 L37.5558,37.8063 C37.5558,38.1463 37.8308,38.4213 38.1708,38.4213 L40.3028,38.4213 Z" id="Fill-38" fill="#404041"></path>
                <path d="M29.649,45.9347 L29.651,37.3427 C29.651,37.0027 29.376,36.7277 29.036,36.7277 C28.696,36.7277 28.421,37.0027 28.421,37.3427 L28.419,45.6877 L26.502,47.6787 L24.71,45.8197 L26.225,44.2447 C26.455,44.0067 26.455,43.6297 26.225,43.3917 L24.693,41.8017 L26.291,40.1427 C26.521,39.9057 26.521,39.5277 26.291,39.2897 L24.471,37.4017 L24.471,34.6697 L24.471,34.6657 L24.471,34.6587 C24.471,34.3927 24.3,34.1707 24.063,34.0857 C21.699,33.0757 20.173,30.7107 20.173,28.0457 C20.173,25.6637 21.417,23.4697 23.422,22.3217 C23.717,22.1527 23.819,21.7767 23.65,21.4817 C23.48,21.1857 23.104,21.0847 22.81,21.2547 C20.425,22.6217 18.943,25.2237 18.943,28.0457 C18.943,31.0727 20.623,33.7617 23.241,35.0417 L23.241,37.6507 C23.241,37.8097 23.302,37.9627 23.413,38.0767 L24.994,39.7167 L23.396,41.3757 C23.167,41.6137 23.167,41.9907 23.396,42.2287 L24.928,43.8177 L23.413,45.3927 C23.183,45.6307 23.183,46.0077 23.413,46.2457 L26.058,48.9917 C26.175,49.1127 26.335,49.1807 26.502,49.1807 C26.668,49.1807 26.828,49.1127 26.945,48.9917 L29.477,46.3607 C29.588,46.2467 29.649,46.0947 29.649,45.9347" id="Fill-40" fill="#404041"></path>
                <path d="M29.4712,35.739 C29.5822,35.615 29.6552,35.468 29.6552,35.308 C29.6552,35.136 29.5822,34.988 29.4712,34.866 C29.2372,34.643 28.8192,34.643 28.5982,34.866 C28.4872,34.988 28.4252,35.148 28.4252,35.308 C28.4252,35.468 28.4872,35.615 28.5982,35.739 C28.7082,35.85 28.8682,35.923 29.0402,35.923 C29.2002,35.923 29.3602,35.85 29.4712,35.739" id="Fill-42" fill="#404041"></path>
                <path d="M29.8376,25.2093 C29.3956,25.6673 28.6336,25.6673 28.1946,25.2103 C27.7246,24.7213 27.7246,23.9263 28.1946,23.4373 C28.4296,23.1923 28.4226,22.8033 28.1776,22.5673 C27.9346,22.3323 27.5456,22.3403 27.3076,22.5843 C26.3846,23.5433 26.3846,25.1043 27.3086,26.0643 C27.7626,26.5353 28.3696,26.7953 29.0146,26.7953 C29.6606,26.7953 30.2676,26.5353 30.7216,26.0643 C30.9586,25.8193 30.9516,25.4303 30.7076,25.1953 C30.4626,24.9593 30.0726,24.9653 29.8376,25.2093" id="Fill-44" fill="#404041"></path>
            </g>
        </g>
    </g>
</svg>